<svg viewBox="0 0 1920 1080" xmlns="http://www.w3.org/2000/svg" style="background:#fff"><g fill="none" fill-rule="evenodd"><g transform="translate(64)"><path fill="#F1F2F3" d="M975 0h523v1080H975z"/><path d="M976.5 96.5V985M635 48v984M1495.5 96.5V985" stroke="#F1F2F3" stroke-width="2" stroke-linecap="square"/><text font-family="RobotoCondensed-Bold, Roboto Condensed" font-size="36" font-style="condensed" font-weight="bold" fill="#001B24"><tspan x="715" y="102">Web browser</tspan></text><text font-family="RobotoCondensed-Bold, Roboto Condensed" font-size="36" font-style="condensed" font-weight="bold" fill="#001B24"><tspan x="1057" y="102">Node JS Server (Express)</tspan></text><text font-family="RobotoCondensed-Bold, Roboto Condensed" font-size="48" font-style="condensed" font-weight="bold" fill="#333"><tspan x="0" y="106">FRONT-COMMERCE</tspan> <tspan x="0" y="169" font-family="RobotoCondensed-Light, Roboto Condensed" font-weight="300">What’s inside ?</tspan></text><g transform="translate(705 400)"><circle fill="#4A6BDD" cx="100" cy="100" r="100"/><text font-family="RobotoCondensed-Bold, Roboto Condensed" font-size="40" font-style="condensed" font-weight="bold" fill="#FFF"><tspan x="56.559" y="92">React</tspan> <tspan x="67.809" y="145">APP</tspan></text></g><path d="M1140.88 852.874c29.254-31.675 48.371-69.577 54.341-107.301 1.665-10.815 2.132-31.696 1.974-31.36-.946 1.371-1.891 2.742-2.706 4.048-1.84 2.846-3.68 5.692-5.468 8.643-.736 1.138-2.482 1.86-3.707 2.327-.26.127-3.254.938-2.677.137 2.944-4.554 6.018-9.17 9.194-13.578 2.021-2.804 5.589-7.402 9.872-6.893 1.531.163 2.015 1.485 2.397 2.598.763 2.226 1.265 4.58 1.897 6.869a264.867 264.867 0 0 1 3.711 14.557c.177.693-3.264 2.242-3.44 1.549-1.503-4.074-2.927-8.316-4.299-12.453.02 14.93-2.876 30.5-7.406 45.7-5.596 18.967-14.647 37.8-26.496 55.53a233.8 233.8 0 0 1-22.476 28.368c-.838.929-2.142 1.565-3.417 1.927-.443.086-2.133.26-1.295-.668zm57.787-140.937s-.13.064 0 0c-.182-.041-.13.064-.261.127l.26-.127zM1320.772 689.97c32.655 35.04 80.683 60.89 135.844 73.405 15.839 3.541 47.97 7.597 47.537 7.378-1.594-1.192-3.187-2.384-4.755-3.433-3.378-2.35-6.756-4.7-10.326-7.016-1.352-.94-1.487-2.831-1.523-4.15-.05-.286.38-3.455 1.297-2.733 5.405 3.76 10.835 7.663 15.883 11.634 3.211 2.527 8.334 6.926 5.131 11.173-1.115 1.522-3.44 1.785-5.38 1.98-3.884.39-7.817.494-11.725.741-8.2.563-16.425.982-24.675 1.258-1.175.06-1.638-3.688-.463-3.748 7.166-.821 14.548-1.534 21.74-2.213-23.172-2.542-45.697-8.144-66.724-15.336-26.27-8.919-50.388-21.31-71.217-36.343-11.562-8.42-22.074-17.612-31.346-27.613-.968-1.008-1.22-2.436-1.064-3.79.116-.462.798-2.202 1.766-1.195zm186.083 82.664s-.025-.143 0 0c.167-.177-.025-.143-.05-.286l.05.286zM1432.846 457.753c44.324-10.473 83.45-32.394 110.96-61.93 7.845-8.495 20.589-26.521 20.251-26.32-1.637.643-3.274 1.285-4.76 1.949-3.292 1.407-6.583 2.814-9.892 4.343-1.317.563-3.272.163-4.62-.15-.303-.043-3.403-1.102-2.424-1.463 5.266-2.251 10.685-4.481 16.069-6.466 3.426-1.264 9.265-3.185 12.714-.208 1.245 1.048.888 2.493.564 3.694-.647 2.402-1.597 4.761-2.396 7.142a280.242 280.242 0 0 1-5.35 14.952c-.255.712-4.182.035-3.927-.677 1.09-4.458 2.35-9.017 3.593-13.454-8.802 13.096-20.535 25.033-33.48 35.677-16.103 13.317-35.152 24.474-55.998 33.011a246.818 246.818 0 0 1-36.435 11.581c-1.282.318-2.8.105-4.13-.331-.438-.186-2.02-1.032-.739-1.35zm133.844-89.375s-.151-.021 0 0c-.134-.143-.151-.021-.303-.043l.303.043zM1412.321 604.423c46.062 5.088 92.263-3.546 130.92-24.24 11.056-5.974 30.862-20.058 30.458-19.97-1.813.076-3.626.153-5.307.306-3.696.274-7.391.547-11.157.941-1.478.11-3.133-1.006-4.258-1.816-.265-.153-2.704-2.364-1.63-2.385 5.914-.438 11.96-.8 17.867-.92 3.759-.077 10.064.033 11.99 4.355.708 1.532-.259 2.9-1.086 4.027-1.656 2.254-3.576 4.355-5.364 6.533a350.763 350.763 0 0 1-11.543 13.558c-.55.646-3.93-1.466-3.38-2.112 2.97-4.224 6.141-8.492 9.243-12.639-13.962 10.396-30.16 18.537-46.927 24.906-20.893 8-43.598 12.705-66.84 14.052-12.965.7-26.042.372-39.164-1.105-1.339-.131-2.666-.897-3.72-1.827-.33-.35-1.441-1.795-.102-1.664zm164.335-44.43s-.133-.076 0 0c-.064-.196-.133-.076-.266-.152l.266.153z" fill="#4AA0DD" fill-rule="nonzero"/><ellipse fill="#4AA0DD" cx="1237.5" cy="500.5" rx="190.5" ry="191.5"/><ellipse stroke="#4AA0DD" stroke-width="2" fill="#F1F2F3" cx="1113.5" cy="847" rx="78.5" ry="79"/><ellipse stroke="#4ECDA5" stroke-width="4" cx="1622.5" cy="795" rx="75.5" ry="76"/><path fill="#2A495F" d="M975 198h237v130H975z"/><text font-family="RobotoCondensed-Bold, Roboto Condensed" font-size="40" font-style="condensed" font-weight="bold" fill="#FFF"><tspan x="1055.492" y="275">SSR</tspan></text><text transform="rotate(-56 1203.5 476)" font-family="RobotoCondensed-Bold, Roboto Condensed" font-size="36" font-style="condensed" font-weight="bold" fill="#FFF"><tspan x="1142.258" y="466">GraphQL </tspan> <tspan x="1122.438" y="514">middleware</tspan></text><path fill="#4ECDA5" d="M1598.59 143.205l150.942 131.212-191.593 67.978zM1665.653 390.477l129.48 125.039-183.526 60.488z"/><text font-family="RobotoCondensed-Bold, Roboto Condensed" font-size="40" font-style="condensed" font-weight="bold" fill="#FFF"><tspan x="1596.534" y="271.205">API 1</tspan></text><text font-family="RobotoCondensed-Bold, Roboto Condensed" font-size="40" font-style="condensed" font-weight="bold" fill="#FFF"><tspan x="1653.933" y="510.477">API 2</tspan></text><text font-family="RobotoCondensed-Bold, Roboto Condensed" font-size="24" font-style="condensed" font-weight="bold" fill="#4AA0DD"><tspan x="1087.762" y="856">Redis </tspan></text><text font-family="RobotoCondensed-Bold, Roboto Condensed" font-size="24" font-style="condensed" font-weight="bold" fill="#4ECDA5"><tspan x="1569.469" y="801">File System</tspan></text><path d="M1476.5 987.5H656.231" stroke="#333" stroke-width="2" stroke-linecap="square"/><g fill-rule="nonzero"><g fill="#4267AD"><path d="M963.797 1009.881c-1.51 0-1.51 2.419 0 2.419h17.573c-.952 4.275-1.903 8.606-2.854 12.881h-15.67l-6.212-17.887c-.168-.506-.56-.9-1.12-.9h-7.275c-1.51 0-1.51 2.419 0 2.419h6.436l6.212 17.887c.672 1.688 1.4 3.375 2.07 5.119.225.506.56.9 1.12.9H977.9c1.511 0 1.511-2.419 0-2.419h-13.04c-.391-.9-.727-1.8-1.119-2.7h15.67c.504 0 1.007-.337 1.12-.9 1.119-5.119 2.238-10.181 3.357-15.3.168-.731-.336-1.519-1.12-1.519h-18.97zM936.6 1030.356h20.873c1.12 0 1.623.563 1.623 1.238s-.503 1.237-1.623 1.237H936.6c-1.12 0-1.567-.562-1.567-1.237s.504-1.238 1.567-1.238zM955.011 1025.519h-9.514c-.615 0-1.175-.563-1.175-1.182 0-.618.56-1.18 1.175-1.18h9.514c.616 0 1.175.562 1.175 1.18 0 .62-.56 1.182-1.175 1.182z"/><path d="M949.19 1025.519h-9.513c-.616 0-1.175-.563-1.175-1.182 0-.618.56-1.18 1.175-1.18h9.514c.615 0 1.175.562 1.175 1.18 0 .62-.56 1.182-1.175 1.182zM935.928 1015.731h15.445c1.12 0 1.567.563 1.567 1.182 0 .618-.447 1.18-1.567 1.18h-15.445c-1.12.057-1.735-.505-1.735-1.18 0-.62.56-1.182 1.735-1.182zM924.623 1030.356h20.874c1.12 0 1.623.563 1.623 1.238s-.503 1.237-1.623 1.237h-20.874c-1.12 0-1.567-.562-1.567-1.237s.448-1.238 1.567-1.238z"/><path d="M927.03 1015.731h15.445c1.12 0 1.567.563 1.567 1.182 0 .618-.448 1.18-1.567 1.18H927.03c-1.119.057-1.735-.505-1.735-1.18 0-.62.56-1.182 1.735-1.182z"/></g><path d="M992 1032.828h2.53c.618 0 1.124-.4 1.236-1.03l2.305-11.955a1.274 1.274 0 0 1 1.236-1.03h5.958a.662.662 0 0 0 .619-.514l.337-1.83c.056-.401-.225-.859-.618-.859h-5.284c-.787 0-1.349-.63-1.237-1.43l.787-4.061a1.274 1.274 0 0 1 1.237-1.03h7.307a.662.662 0 0 0 .619-.515l.337-1.83c.056-.4-.225-.744-.619-.744h-11.129a.662.662 0 0 0-.618.515L992 1032.828zm14.165 0h3.035a.662.662 0 0 0 .618-.514l1.8-9.668c.955-2.574 2.866-3.775 4.384-3.775.337 0 .73 0 1.011.114.281.057.619-.114.675-.4l.787-2.117c.168-.4-.169-.858-.562-.858h-.843c-1.968 0-3.317.4-4.61 2.46l-.225 1.201.563-2.974c.056-.344-.225-.687-.619-.687h-2.304a.662.662 0 0 0-.619.515l-3.091 16.703zm33.95-11.383c0-.114.113-.229.17-.343 1.573-1.602 2.753-2.346 3.821-2.346 1.406 0 2.024.744 2.024 2.174 0 .515-.112.973-.281 1.773l-1.967 10.125h3.035a.662.662 0 0 0 .618-.514l1.968-10.068a8.894 8.894 0 0 0 .28-2.346c0-2.688-1.124-4.233-3.822-4.233-2.023 0-3.204.4-5.283 2.46l.337-1.773c0-.343-.281-.687-.618-.687h-2.249a.662.662 0 0 0-.618.515l-3.26 16.704h3.035a.662.662 0 0 0 .618-.515l2.192-10.926zm13.322 5.32c-.112.686-.225 1.316-.225 2.002 0 2.345 1.18 4.119 4.216 4.119a8.05 8.05 0 0 0 2.923-.572c.281-.115.45-.458.393-.744l-.337-1.373c-.112-.343-.45-.572-.787-.458a2.295 2.295 0 0 1-.9.172c-1.348 0-1.91-.63-1.91-1.83 0-.4.056-.801.112-1.202l1.63-8.351h3.485a.662.662 0 0 0 .619-.515l.337-1.66c.056-.4-.225-.743-.618-.743h-3.148l.73-3.775c.057-.4-.224-.744-.618-.744h-1.742c-.281 0-.506.172-.619.458l-1.18 4.061h-2.024c-.28 0-.505.229-.562.515l-.45 2.403h2.305l-1.63 8.237zm-29.229 6.235c4.328 0 8.769-4.29 8.769-10.525 0-4.12-2.36-6.693-5.958-6.693-4.329 0-8.713 4.233-8.713 10.525 0 4.119 2.36 6.693 5.902 6.693zm2.417-14.13c1.855 0 2.81 1.43 2.81 3.948 0 4.233-2.36 7.608-4.89 7.608-1.855 0-2.866-1.43-2.866-3.947 0-4.233 2.36-7.608 4.946-7.608zM1070 1021.622c0 6.238 3.439 10.268 9.19 10.268 2.988 0 5.299-1.27 6.99-2.65.226-.22.282-.552.113-.773l-1.127-1.656c-.226-.276-.62-.386-.903-.166-1.296.994-2.706 1.656-4.284 1.656-4.06 0-5.807-2.815-5.807-7.01 0-5.796 3.608-11.758 8.682-11.758 1.466 0 2.537.718 3.44 1.932.225.276.62.331.901.11l1.86-1.435c.226-.165.339-.552.17-.773-1.353-2.042-3.44-3.367-6.145-3.367-7.611 0-13.08 7.342-13.08 15.622zm34.898 10.268h3.044c.282 0 .564-.221.62-.497l2.086-10.544c1.635-1.766 3.045-2.484 3.89-2.484 1.297 0 1.973.718 1.973 2.098 0 .497-.112.938-.281 1.711l-1.974 9.77h3.045c.282 0 .563-.22.62-.496l2.142-10.544c1.635-1.766 3.045-2.484 3.89-2.484 1.353 0 1.973.718 1.973 2.098 0 .497-.112.938-.281 1.711l-1.974 9.771h3.045c.282 0 .563-.22.62-.497l1.973-9.715c.17-.884.282-1.49.282-2.264 0-2.594-1.184-4.085-3.834-4.085-1.747 0-3.72 1.215-5.637 2.981-.339-1.766-1.24-2.98-3.778-2.98-1.747 0-3.777 1.214-5.412 2.65l.113-1.602c0-.33-.282-.662-.62-.662h-1.692a.657.657 0 0 0-.62.497l-3.213 15.567zm25.426 0h3.044c.282 0 .564-.221.62-.497l2.086-10.544c1.635-1.766 3.045-2.484 3.89-2.484 1.297 0 1.974.718 1.974 2.098 0 .497-.113.938-.282 1.711l-1.973 9.77h3.044c.282 0 .564-.22.62-.496l2.142-10.544c1.635-1.766 3.045-2.484 3.89-2.484 1.354 0 1.974.718 1.974 2.098 0 .497-.113.938-.282 1.711l-1.973 9.771h3.044c.282 0 .564-.22.62-.497l1.973-9.715c.17-.884.282-1.49.282-2.264 0-2.594-1.184-4.085-3.833-4.085-1.748 0-3.721 1.215-5.638 2.981-.338-1.766-1.24-2.98-3.778-2.98-1.747 0-3.777 1.214-5.412 2.65l.113-1.602c0-.33-.282-.662-.62-.662h-1.691a.657.657 0 0 0-.62.497l-3.214 15.567zm27.117-6.735c0 4.25 2.594 6.68 6.371 6.68a9.844 9.844 0 0 0 4.905-1.325c.282-.166.395-.552.225-.828l-.676-1.16c-.17-.33-.564-.386-.902-.22-.79.496-1.804.883-2.706.883-2.255 0-4.06-1.27-3.947-4.14a.62.62 0 0 1 .62-.608h8.683c.281 0 .507-.165.563-.386.226-.662.508-1.822.508-2.926 0-3.257-1.353-5.796-5.074-5.796-4.116-.055-8.57 3.975-8.57 9.826zm4.51-2.87a.595.595 0 0 1-.563-.829c.902-2.208 2.593-3.477 4.285-3.477 1.916 0 2.593 1.38 2.593 2.925 0 .332 0 .608-.056.884a.61.61 0 0 1-.62.497h-5.638zm35.406 2.87c0 4.25 2.593 6.68 6.37 6.68a9.844 9.844 0 0 0 4.905-1.325c.282-.166.395-.552.226-.828l-.677-1.16c-.169-.33-.564-.386-.902-.22-.79.496-1.804.883-2.706.883-2.255 0-4.06-1.27-3.946-4.14a.62.62 0 0 1 .62-.608h8.682c.282 0 .507-.165.564-.386.225-.662.507-1.822.507-2.926 0-3.257-1.353-5.796-5.074-5.796-4.116-.055-8.57 3.975-8.57 9.826zm4.51-2.87a.595.595 0 0 1-.564-.829c.902-2.208 2.593-3.477 4.285-3.477 1.917 0 2.593 1.38 2.593 2.925 0 .332 0 .608-.056.884a.61.61 0 0 1-.62.497h-5.638zm-17.477 3.146c0 4.085 2.537 6.459 6.032 6.459 2.086 0 3.552-.718 4.68-1.49.281-.166.338-.553.169-.829l-.79-1.16c-.169-.275-.563-.33-.902-.165a4.168 4.168 0 0 1-2.48.828c-2.143 0-3.214-1.38-3.214-3.753 0-3.92 2.48-7.232 5.356-7.232.846 0 1.41.221 2.03.773.282.22.676.22.902 0l1.127-1.214a.591.591 0 0 0 0-.828c-.845-.828-2.086-1.49-3.777-1.49-4.961-.056-9.133 4.415-9.133 10.101zm-89.64 6.459c4.34 0 8.795-4.14 8.795-10.158 0-3.974-2.368-6.458-5.976-6.458-4.341 0-8.739 4.085-8.739 10.157 0 3.92 2.368 6.459 5.92 6.459zm2.424-13.635c1.86 0 2.819 1.38 2.819 3.809 0 4.085-2.368 7.342-4.905 7.342-1.86 0-2.875-1.38-2.875-3.81 0-4.14 2.368-7.341 4.96-7.341zm75.151 13.635h3.044c.282 0 .564-.221.62-.497l1.805-9.33c.958-2.483 2.875-3.643 4.397-3.643.338 0 .733 0 1.015.11.282.056.62-.11.676-.386l.79-2.042c.169-.387-.17-.828-.564-.828h-.846c-1.973 0-3.326.386-4.623 2.374l-.225 1.159.564-2.87c.056-.332-.226-.663-.62-.663h-2.312a.657.657 0 0 0-.62.497l-3.1 16.119z" fill="#333"/></g><g fill="#333"><g><path d="M492.948 382.049c-.062-17.743-10.984-33.628-27.504-40.004l-3.522-1.345-2.348 3.026-1.342 1.512a20.268 20.268 0 0 1-15.555 6.014 20.279 20.279 0 0 1-14.8-7.695l-2.348-2.857-3.354 1.345c-16.52 6.376-27.442 22.261-27.504 40.004v13.11h98.277v-13.11zm-10.063 3.025h-78.152v-3.025c.04-12.35 6.967-23.64 17.945-29.247 11.788 11.248 30.308 11.248 42.095 0 11.043 5.561 18.04 16.86 18.112 29.247v3.025zM474.165 266.238h26.833v10.085h-26.833zM474.165 284.728h55.344v10.085h-55.344z" fill-rule="nonzero"/><path d="M554.33 238.672H448.672v45.383l-4.696-.504c-14.535-.032-26.679 11.085-27.96 25.595-1.282 14.511 8.725 27.593 23.04 30.12 14.314 2.527 28.179-6.34 31.921-20.417h9.895v23.028l31.194-23.028h42.262v-80.177zm-110.52 90.934c-9.911 0-17.945-8.052-17.945-17.985s8.034-17.985 17.944-17.985c9.911 0 17.945 8.052 17.945 17.985 0 4.77-1.89 9.345-5.256 12.718a17.924 17.924 0 0 1-12.689 5.267zm100.457-20.842H508.88l-17.945 13.11v-13.11H471.65a28.077 28.077 0 0 0-13.081-20.843v-39.164h85.531l.168 60.007z" fill-rule="nonzero"/><text font-family="RobotoCondensed-Bold, Roboto Condensed" font-size="36" font-style="condensed" font-weight="bold" transform="translate(376 238)"><tspan x="0" y="210">Customer</tspan></text></g></g><g fill="#2A495F" fill-rule="nonzero"><path d="M597.68 272.202c66.322-29.62 161.378-40.241 268.888-30.417 30.865 2.889 62.453 7.206 94.525 12.474-.857.076-1.348.286-2.205.362-3.185.781-6.371 1.563-9.495 2.172-6.737 1.43-13.475 2.859-20.579 4.155-2.695.572-3.14 2.933-3.335 4.608-.125.343.395 4.608 2.234 4.113 10.78-2.287 21.623-4.745 31.733-7.47 6.434-1.734 16.732-4.972 10.971-11.921-2-2.475-6.455-3.902-10.178-5.063-7.444-2.322-15.014-4.3-22.522-6.45a2221.345 2221.345 0 0 0-47.427-13.187c-2.258-.628-3.514 3.96-1.256 4.589 13.73 4.415 27.888 8.791 41.68 13.035l.732.266c-45.63-7.874-89.58-11.256-130.797-11.896-51.49-.885-99.165 3.693-140.76 13.201-23.095 5.374-44.244 12.232-63.08 20.708-1.963.838-2.586 2.552-2.416 4.361.18.647 1.323 3.199 3.286 2.36zm366.599-18.724s-.063.171 0 0c.303.304-.063.171-.125.343l.125-.343z"/></g><circle fill="#2A495F" cx="784" cy="233" r="16"/><text font-family="RobotoCondensed-Bold, Roboto Condensed" font-size="24" font-style="condensed" font-weight="bold" fill="#FFF"><tspan x="778.029" y="242">1</tspan></text><g fill="#2A495F" fill-rule="nonzero" stroke="#FFF" stroke-width=".5"><path d="M1171.878 272.25c23.766 20.355 40.828 47.058 48.46 75.567 2.154 8.18 4.347 24.38 4.204 24.14-.8-.928-1.598-1.856-2.298-2.753-1.57-1.946-3.141-3.89-4.685-5.925-.628-.779-1.942-1.083-2.86-1.266-.199-.06-2.414-.25-1.93.29 2.513 3.112 5.125 6.254 7.792 9.218 1.697 1.887 4.66 4.941 7.682 3.912 1.082-.353 1.31-1.455 1.485-2.379.348-1.847.498-3.754.747-5.631a234.506 234.506 0 0 0 1.362-11.89c.064-.567-2.537-1.264-2.602-.698-.713 3.395-1.355 6.91-1.97 10.337-1.314-11.634-4.773-23.338-9.37-34.51-5.695-13.95-13.852-27.285-23.913-39.347a159.752 159.752 0 0 0-18.618-18.78c-.683-.6-1.673-.902-2.619-.996-.324-.001-1.55.112-.867.712zm53.92 101.263s-.099-.03 0 0c-.126.06-.099-.03-.198-.06l.198.06z"/></g><g fill="#2A495F" fill-rule="nonzero" stroke="#FFF" stroke-width=".5"><path d="M955.563 317.383c-96.432-22.087-182.238-29.053-243.332-19.99-17.427 2.656-45.961 11.149-45.22 11.196 3.576.564 7.152 1.127 10.4 1.558 7.196 1.019 14.392 2.037 21.63 2.947 2.879.407 7.086 2.233 9.985 3.53.654.264 7.301 3.58 5.165 3.22-11.513-1.63-23.353-3.39-35.105-5.369-7.479-1.258-20.212-3.632-27.511-9.1-2.637-1.947-1.785-3.114-1.02-4.064 1.528-1.9 3.71-3.538 5.566-5.306 3.799-3.754 7.925-7.376 12.377-10.866.59-.517 9.047 3.026 8.458 3.543-2.6 3.61-5.57 7.194-8.495 10.671 19.743-6.504 45.763-9.716 74.333-10.766 35.548-1.378 77.35 1.534 122.9 8.353 25.445 3.858 51.936 8.895 79.429 15.217 2.79.624 6.06 1.945 8.915 3.35.937.505 4.315 2.5 1.525 1.876zm-294.308-9.608s.327.132 0 0c.283.24.327.132.654.264l-.654-.264z"/></g><g fill="#4A6BDD" fill-rule="nonzero"><path d="M759.155 442.24c-38.892-36.074-82.455-60.156-123.369-68.44-11.72-2.32-33.835-3.498-33.45-3.297 1.623 1.176 3.246 2.352 4.777 3.37 3.347 2.293 6.693 4.587 10.141 6.823 1.339.917 2.427 3.036 3.15 4.52.182.317 1.598 3.937.645 3.22-5.355-3.67-10.8-7.499-16.044-11.444-3.337-2.511-8.856-6.932-9.12-12.061-.117-1.835 1.188-2.377 2.29-2.802 2.206-.851 4.594-1.385 6.891-2.077a217.681 217.681 0 0 1 14.661-4.027c.699-.192 2.976 3.987 2.278 4.178-4.015 1.685-8.224 3.27-12.33 4.795 15.744.418 32.713 4.356 49.594 10.246 21.057 7.282 42.619 18.71 63.54 33.466 11.654 8.274 23.066 17.533 34.136 27.834 1.136 1.034 2.051 2.619 2.673 4.162.173.534.674 2.569-.463 1.534zM599.66 368.668s.092.158 0 0c-.01.216.092.158.183.317l-.183-.317z"/></g><g fill="#4A6BDD" fill-rule="nonzero"><path d="M566.65 405.957c24.901 35.201 58 61.78 93.66 75.463 10.231 3.878 30.56 8.676 30.263 8.45-1.144-1.209-2.288-2.419-3.397-3.488-2.401-2.391-4.802-4.782-7.316-7.145-.96-.957-1.304-2.815-1.506-4.11-.07-.281-.241-3.378.423-2.646 3.841 3.826 7.718 7.792 11.369 11.815 2.322 2.56 6.078 7.006 4.69 11.09-.478 1.464-1.872 1.662-3.04 1.804-2.336.283-4.742.285-7.113.428-4.968.342-9.972.543-15.01.603-.715.029-1.515-3.659-.8-3.687 4.297-.623 8.742-1.134 13.074-1.616-14.607-3.085-29.236-9.155-43.16-16.745-17.39-9.418-33.93-22.187-48.809-37.463a233.801 233.801 0 0 1-23.075-27.883c-.734-1.013-1.085-2.42-1.174-3.743.008-.45.188-2.14.922-1.127zm125.844 85.827s-.035-.141 0 0c.078-.17-.035-.141-.07-.282l.07.282z"/></g><g fill="#2A495F" fill-rule="nonzero" stroke="#FFF" stroke-width=".5"><path d="M1178.649 394.497c-24.8-19.082-43.235-44.856-52.348-72.926-2.58-8.055-4.49-16.232-5.952-24.49.156.231.334.372.49.603.846.885 1.693 1.77 2.439 2.63 1.67 1.86 3.34 3.72 4.988 5.671.668.744 1.996.98 2.923 1.114.201.05 2.424.123 1.911-.39-2.672-2.976-5.445-5.978-8.263-8.798-1.793-1.795-4.913-4.69-7.876-3.504-1.062.409-1.233 1.521-1.358 2.453-.251 1.862-.301 3.775-.452 5.663a234.506 234.506 0 0 0-.737 11.945c-.036.569 2.599 1.13 2.634.56.535-3.428.992-6.972 1.426-10.425l.045-.182c1.877 11.731 5.944 23.237 11.118 34.154 6.418 13.633 15.261 26.523 25.94 38.041a159.752 159.752 0 0 0 19.576 17.78c.713.563 1.718.813 2.667.857.324-.015 1.542-.193.829-.756zm-59.146-98.301s.1.025 0 0c.123-.066.1.025.2.05l-.2-.05z"/></g><circle fill="#2A495F" cx="1245" cy="277" r="18"/><text font-family="RobotoCondensed-Bold, Roboto Condensed" font-size="24" font-style="condensed" font-weight="bold" fill="#FFF"><tspan x="1236.385" y="287">1’</tspan></text><circle fill="#2A495F" cx="814" cy="295" r="16"/><text font-family="RobotoCondensed-Bold, Roboto Condensed" font-size="24" font-style="condensed" font-weight="bold" fill="#FFF"><tspan x="808.029" y="304">2</tspan></text><circle fill="#4A6BDD" cx="656" cy="428" r="16"/><text font-family="RobotoCondensed-Bold, Roboto Condensed" font-size="24" font-style="condensed" font-weight="bold" fill="#FFF"><tspan x="650.029" y="437">3</tspan></text><circle fill="#4A6BDD" cx="962" cy="592" r="16"/><text font-family="RobotoCondensed-Bold, Roboto Condensed" font-size="24" font-style="condensed" font-weight="bold" fill="#FFF"><tspan x="956.029" y="601">4</tspan></text><text transform="rotate(9 904.781 324.973)" font-family="RobotoCondensed-Bold, Roboto Condensed" font-size="16" font-style="condensed" font-weight="bold" fill="#2A495F"><tspan x="886.633" y="331.473">HTML</tspan></text><path d="M1164.412 677.532c-.134-2.232 207.342-308.979 209.94-310.479 2.598-1.5 25.526 29.315 24.794 32.047-.732 2.732-192.465 289.907-193.33 290.407-.867.5-41.27-9.743-41.404-11.975z" fill="#90C6EC"/><path d="M1265.374 591.155L1353 651M1329.353 495.709l89.662 56.75" stroke="#90C6EC" stroke-width="4" stroke-linecap="square"/><text transform="rotate(-57 1287.995 530.427)" font-family="RobotoCondensed-Bold, Roboto Condensed" font-size="20" font-style="condensed" font-weight="bold" fill="#FFF"><tspan x="1260.851" y="538.427">CACHE</tspan></text><g fill-rule="nonzero"><path d="M880.844 532.585c37.065 22.03 78.114 32.85 116.255 30.845 10.924-.62 31.447-4.505 31.084-4.59-1.537-.64-3.074-1.28-4.522-1.805-3.166-1.208-6.332-2.415-9.59-3.551-1.267-.484-2.336-2.041-3.047-3.142-.179-.229-1.594-2.988-.69-2.59 5.065 1.933 10.22 3.98 15.191 6.17 3.164 1.394 8.403 3.928 8.795 8.223.16 1.532-1.033 2.28-2.043 2.884-2.018 1.21-4.215 2.19-6.323 3.285-4.4 2.333-8.89 4.552-13.468 6.656-.641.317-2.871-2.727-2.23-3.044 3.672-2.316 7.525-4.59 11.287-6.793-14.6 3.123-30.432 3.528-46.241 2.257-19.716-1.53-40.02-6.468-59.825-14.372a233.8 233.8 0 0 1-32.422-16.086c-1.083-.627-1.976-1.77-2.595-2.942-.176-.415-.699-2.032.384-1.405zm149.872 27.222s-.09-.114 0 0c.003-.186-.09-.114-.179-.229l.179.229z" fill="#4A6BDD"/><path d="M1228.49 642.401c-35.63 24.282-62.783 56.912-77.086 92.327-4.055 10.163-9.207 30.404-8.977 30.111 1.23-1.122 2.46-2.245 3.547-3.335 2.433-2.359 4.866-4.718 7.272-7.19.973-.944 2.837-1.255 4.135-1.434.283-.066 3.382-.182 2.64.469-3.893 3.774-7.927 7.581-12.013 11.16-2.6 2.279-7.11 5.956-11.17 4.496-1.455-.502-1.629-1.9-1.75-3.07-.243-2.34-.203-4.746-.304-7.12-.255-4.973-.369-9.98-.341-15.019-.016-.715 3.684-1.45 3.7-.734.548 4.307.981 8.76 1.388 13.1 3.34-14.55 9.663-29.072 17.496-42.862 9.72-17.222 22.775-33.537 38.309-48.147a233.801 233.801 0 0 1 28.28-22.585c1.026-.716 2.44-1.043 3.764-1.109.45.016 2.137.226 1.11.942zm-88.009 124.326s.141-.033 0 0c.168.08.141-.033.283-.066l-.283.066zM1084.862 524.587c-37.811-20.723-79.212-30.103-117.26-26.77-10.896 1.001-31.27 5.6-30.905 5.672 1.558.586 3.117 1.172 4.582 1.647 3.206 1.096 6.413 2.193 9.708 3.215 1.283.438 2.406 1.958 3.155 3.033.187.222 1.698 2.93.78 2.564-5.13-1.754-10.353-3.62-15.398-5.636-3.21-1.283-8.534-3.632-9.076-7.91-.213-1.526.953-2.315 1.94-2.955 1.976-1.278 4.138-2.335 6.206-3.503a264.868 264.868 0 0 1 13.227-7.122c.63-.34 2.965 2.625 2.335 2.964-3.589 2.443-7.36 4.85-11.042 7.183 14.48-3.63 30.29-4.588 46.133-3.87 19.758.842 40.221 5.068 60.29 12.276a233.801 233.801 0 0 1 32.964 14.945c1.104.588 2.036 1.7 2.696 2.85.19.408.77 2.006-.335 1.417zm-150.73-21.975s.093.111 0 0c.004.186.093.111.186.222l-.186-.222z" fill="#4AA0DD"/></g><path fill="#90C6EC" d="M1213 671l26-42h-13l-23 21z"/></g></g></svg>