<svg viewBox="0 0 1920 906" xmlns="http://www.w3.org/2000/svg" style="background:#fff"><g fill="none" fill-rule="evenodd"><g transform="translate(84)"><path fill="#F1F2F3" d="M634 0h634v1080H634z"/><circle fill-opacity=".15" fill="#2A495F" cx="950" cy="460" r="275"/><ellipse fill="#4AA0DD" cx="1031" cy="477" rx="121" ry="122"/><path fill="#2A495F" d="M864 285h151v83H864z"/><g transform="translate(748 397)"><circle fill="#BB1F4E" cx="63.5" cy="63.5" r="63.5"/><text font-family="RobotoCondensed-Bold, Roboto Condensed" font-size="24" font-style="condensed" font-weight="bold" fill="#FFF"><tspan x="37.035" y="57">React</tspan> <tspan x="43.785" y="89">APP</tspan></text></g><text font-family="RobotoCondensed-Bold, Roboto Condensed" font-size="24" font-style="condensed" font-weight="bold" fill="#FFF"><tspan x="920.195" y="335">SSR</tspan></text><text transform="rotate(-56 1008.5 461)" font-family="RobotoCondensed-Bold, Roboto Condensed" font-size="24" font-style="condensed" font-weight="bold" fill="#FFF"><tspan x="967.672" y="454">GraphQL </tspan> <tspan x="954.459" y="486">middleware</tspan></text><path d="M984.278 592.413c-.088-1.442 133.425-199.34 135.099-200.306 1.674-.967 16.482 18.95 16.012 20.713-.47 1.764-123.848 187.038-124.406 187.36-.558.322-26.617-6.326-26.705-7.767z" fill="#90C6EC"/><path d="M1044 525l62.626 44.845M1076 470l68.647 44.291" stroke="#90C6EC" stroke-width="4" stroke-linecap="square"/><path d="M633 72v984" stroke="#F1F2F3" stroke-width="2" stroke-linecap="square"/><text font-family="RobotoCondensed-Bold, Roboto Condensed" font-size="36" font-style="condensed" font-weight="bold" fill="#001B24"><tspan x="1433" y="102">YOUR SERVICES</tspan></text><text font-family="RobotoCondensed-Bold, Roboto Condensed" font-size="48" font-style="condensed" font-weight="bold" fill="#333"><tspan x="0" y="106">FRONT-COMMERCE</tspan> <tspan x="0" y="169" font-family="RobotoCondensed-Light, Roboto Condensed" font-weight="300">With your services.</tspan></text><path fill="#4ECDA5" d="M1359 394h284v110h-284zM1369 674h85v85h-85z"/><g fill="#333"><g><path d="M490.948 406.049c-.062-17.743-10.984-33.628-27.504-40.004l-3.522-1.345-2.348 3.026-1.342 1.512a20.268 20.268 0 0 1-15.555 6.014 20.279 20.279 0 0 1-14.8-7.695l-2.348-2.857-3.354 1.345c-16.52 6.376-27.442 22.261-27.504 40.004v13.11h98.277v-13.11zm-10.063 3.025h-78.152v-3.025c.04-12.35 6.967-23.64 17.945-29.247 11.788 11.248 30.308 11.248 42.095 0 11.043 5.561 18.04 16.86 18.112 29.247v3.025zM472.165 290.238h26.833v10.085h-26.833zM472.165 308.728h55.344v10.085h-55.344z" fill-rule="nonzero"/><path d="M552.33 262.672H446.672v45.383l-4.696-.504c-14.535-.032-26.679 11.085-27.96 25.595-1.282 14.511 8.725 27.593 23.04 30.12 14.314 2.527 28.179-6.34 31.921-20.417h9.895v23.028l31.194-23.028h42.262v-80.177zm-110.52 90.934c-9.911 0-17.945-8.052-17.945-17.985s8.034-17.985 17.944-17.985c9.911 0 17.945 8.052 17.945 17.985 0 4.77-1.89 9.345-5.256 12.718a17.924 17.924 0 0 1-12.689 5.267zm100.457-20.842H506.88l-17.945 13.11v-13.11H469.65a28.077 28.077 0 0 0-13.081-20.843v-39.164h85.531l.168 60.007z" fill-rule="nonzero"/><text font-family="RobotoCondensed-Bold, Roboto Condensed" font-size="36" font-style="condensed" font-weight="bold" transform="translate(374 262)"><tspan x="0" y="210">Customer</tspan></text></g></g><text font-family="RobotoCondensed-Bold, Roboto Condensed" font-size="28" font-style="condensed" font-weight="bold" fill="#FFF"><tspan x="1443" y="459">Magento 2</tspan></text><path fill="#4ECDA5" d="M1338 165h284v110h-284z"/><text font-family="RobotoCondensed-Bold, Roboto Condensed" font-size="28" font-style="condensed" font-weight="bold" fill="#FFF"><tspan x="1405" y="230">ElasticSearch</tspan></text><text font-family="RobotoCondensed-Bold, Roboto Condensed" font-size="28" font-style="condensed" font-weight="bold" fill="#FFF"><tspan x="1389" y="727">ERP</tspan></text><path fill="#4ECDA5" d="M1470 674h85v85h-85z"/><text font-family="RobotoCondensed-Bold, Roboto Condensed" font-size="28" font-style="condensed" font-weight="bold" fill="#FFF"><tspan x="1487" y="726">CRM</tspan></text><path fill="#4ECDA5" d="M1571 674h85v85h-85z"/><text font-family="RobotoCondensed-Bold, Roboto Condensed" font-size="28" font-style="condensed" font-weight="bold" fill="#FFF"><tspan x="1588" y="726">CMS</tspan></text><path fill="#4ECDA5" d="M1671 674h85v85h-85z"/><text font-family="RobotoCondensed-Bold, Roboto Condensed" font-size="28" font-style="condensed" font-weight="bold" fill="#FFF"><tspan x="1692" y="727">PIM</tspan></text><g fill="#333" fill-rule="nonzero"><path d="M664.39 377.004c-42.822-8.79-81.898-9.319-110.796-1.634-8.249 2.231-15.738 5.031-22.721 8.21.339-.002.649.06.987.056 1.608.18 3.215.358 4.682.475 3.244.294 6.487.587 9.76.817 1.297.118 3.099.997 4.337 1.625.282.125 3.096 1.762 2.138 1.642-5.19-.47-10.52-1.003-15.794-1.664-3.356-.42-9.052-1.27-12.002-4.117-1.068-1.012-.585-1.718-.16-2.295.852-1.154 1.985-2.183 2.977-3.275a101.842 101.842 0 0 1 6.547-6.747c.312-.321 3.945 1.373 3.633 1.694-1.477 2.18-3.123 4.36-4.74 6.478l-.057.128c9.67-4.667 21.928-7.567 35.197-9.328 16.516-2.231 35.59-2.25 56.094-.176 11.45 1.187 23.293 3.009 35.5 5.53 1.24.245 2.648.872 3.858 1.564.394.253 1.8 1.262.56 1.017zM529.265 383.4s.141.063 0 0c.113.127.141.063.282.126l-.282-.126z"/></g><circle fill="#333" cx="600" cy="404" r="18"/><text font-family="RobotoCondensed-Bold, Roboto Condensed" font-size="24" font-style="condensed" font-weight="bold" fill="#FFF"><tspan x="594.029" y="414">1</tspan></text><g fill="#333" fill-rule="nonzero"><path d="M524.606 425.115c42.104 11.756 81.049 15.009 110.412 9.359 8.384-1.651 16.05-3.922 23.239-6.606-.338-.021-.643-.104-.981-.125-1.591-.29-3.183-.581-4.638-.8-3.215-.519-6.43-1.038-9.678-1.496-1.286-.208-3.022-1.21-4.214-1.923-.272-.145-2.966-1.974-2.018-1.787 5.144.831 10.425 1.734 15.64 2.762 3.318.653 8.94 1.898 11.685 4.944.995 1.084.464 1.754-.001 2.3-.93 1.092-2.132 2.04-3.198 3.06a101.842 101.842 0 0 1-7.002 6.273c-.333.3-3.839-1.644-3.505-1.943 1.625-2.071 3.419-4.132 5.18-6.131l.066-.124c-9.972 3.98-22.403 6.019-35.762 6.85-16.632 1.074-35.66-.238-55.97-3.737-11.34-1.983-23.026-4.627-35.027-7.993-1.22-.332-2.581-1.055-3.74-1.83-.376-.28-1.708-1.384-.488-1.053zm135.242 3.044s-.136-.073 0 0c-.103-.135-.136-.073-.272-.145l.272.145z"/></g><g fill="#333" fill-rule="nonzero"><path d="M1757.724 323.33v9.132h-.083c-1.321.082-2.642.33-3.88.74-1.404.494-2.726 1.152-4.047 1.975-1.32.823-2.56 1.893-3.633 3.045-.908.905-1.734 1.974-2.395 2.962h-12.963V316.91c-7.102 4.773-13.625 7.405-20.478 8.064v16.291h20.478v23.45c.495-.165.908-.412 1.32-.494 1.404-.659 2.808-1.317 4.212-1.893 1.817-.905 3.385-1.975 4.872-3.044.33 1.152.99 3.044 2.147 4.607.165.494.247.988.495 1.481l-.743.494c-.826.494-1.652.987-2.56 1.563-.413.247-.743.494-1.156.659-1.569.905-3.055 1.563-4.624 2.139l-1.9.74c-.495.247-1.155.412-1.898.412-.496 0-.991-.165-1.57-.247-7.43-2.715-13.128-6.253-17.752-10.86-3.799-3.868-6.028-7.735-7.019-12.096-.413-1.892-.66-3.702-.495-5.348v-19.335c0-3.95 2.807-4.608 4.459-4.772 6.275-.412 12.468-2.798 19.404-7.57.743-.494 1.652-1.152 2.973-1.152 1.32 0 2.147.658 3.055 1.316 5.12 3.62 9.743 5.76 14.533 6.83 1.32.246 2.725.493 4.128.658l.991.164c2.642.247 4.129 1.893 4.129 4.361zm9 19.335s-.743-1.481-2.807-2.633c-1.321-.823-3.22-1.4-5.78-1.235-.826 0-1.57.165-2.312.412-.909.329-1.734.74-2.56 1.316a12.617 12.617 0 0 0-2.56 2.14c-1.238 1.234-2.312 2.88-2.807 4.936-.413 1.728-.413 3.538.247 5.43-.908-.082-1.981.412-.99 4.032.743 2.633 1.403 3.374 1.981 3.374.248 1.48.743 3.209 1.57 4.69v3.455c0 .165-.083.33-.249.412-1.238.576-6.853 3.455-12.468 7.734-1.9 1.48-3.055 3.785-3.055 6.17v3.621c0 .823.66 1.481 1.486 1.481h44.094c.825 0 1.486-.658 1.486-1.481v-3.62c0-2.386-1.073-4.69-3.055-6.171-5.533-4.279-11.147-7.158-12.386-7.734a.452.452 0 0 1-.248-.412v-3.95c.578-1.233.991-2.55 1.156-3.702.496.33 1.404.165 2.395-3.29.826-2.798.33-3.786-.413-3.95 2.312-10.696-2.725-11.025-2.725-11.025z"/></g><text font-family="RobotoCondensed-Bold, Roboto Condensed" font-size="24" font-style="condensed" font-weight="bold" fill="#333"><tspan x="1713" y="422">Admin</tspan></text><g fill="#4ECDA5" fill-rule="nonzero" stroke="#FFF"><path d="M1627.673 422.614c16.734-20.592 38.454-35.576 61.466-42.555 6.601-1.972 13.261-3.37 19.96-4.385-.195.126-.318.274-.513.4-.758.696-1.516 1.393-2.248 2.004-1.588 1.371-3.175 2.742-4.834 4.09-.635.55-.902 1.674-1.064 2.46-.052.17-.24 2.061.2 1.639 2.54-2.193 5.107-4.472 7.53-6.793 1.543-1.478 4.044-4.054 3.268-6.612-.265-.916-1.146-1.092-1.884-1.225-1.477-.266-3.006-.362-4.509-.543a175.377 175.377 0 0 0-9.521-.962c-.454-.046-1.057 2.182-.604 2.228 2.714.551 5.525 1.04 8.265 1.506l.143.044c-9.504 1.27-18.956 4.413-28 8.516-11.293 5.086-22.134 12.26-31.984 21.035a140.572 140.572 0 0 0-15.385 16.178c-.493.592-.752 1.44-.843 2.248-.007.277.064 1.32.557.727zm82.701-47.648s-.029.096 0 0c.067.125-.029.096-.058.191 0 0 .03-.095.058-.191z"/></g><g fill="#4ECDA5" fill-rule="nonzero" stroke="#FFF"><path d="M1711.603 431.762c-19.75 17.721-43.547 29.123-67.367 32.416-6.829.916-13.625 1.255-20.4 1.209.212-.094.357-.221.569-.315.857-.57 1.715-1.139 2.534-1.628 1.783-1.105 3.565-2.211 5.415-3.284.713-.442 1.152-1.512 1.435-2.262.078-.16.56-1.999.059-1.65-2.853 1.768-5.744 3.617-8.5 5.531-1.755 1.218-4.629 3.371-4.262 6.019.118.946.96 1.259 1.67 1.505 1.416.494 2.911.828 4.367 1.242 3.046.893 6.13 1.706 9.254 2.44.44.116 1.385-1.99.944-2.107-2.594-.97-5.294-1.891-7.927-2.78l-.134-.066c9.585.232 19.413-1.394 28.988-4.031 11.95-3.257 23.778-8.646 34.88-15.772a140.572 140.572 0 0 0 17.727-13.573c.579-.507.968-1.305 1.184-2.088.05-.272.143-1.313-.436-.806zm-89.138 34.125s.044-.09 0 0c-.046-.134.044-.09.088-.18l-.088.18z"/></g><g fill="#4ECDA5" fill-rule="nonzero"><g><path d="M1439.029 526.603c.757 40.605-5.667 76.521-18.085 101.855-3.581 7.226-7.567 13.669-11.823 19.59.063-.31.06-.604.122-.914.115-1.501.23-3.003.38-4.366.295-3.019.59-6.038.952-9.073.119-1.208-.396-2.994-.773-4.226-.07-.277-1.125-3.107-1.18-2.21-.474 4.832-.912 9.8-1.22 14.737-.195 3.142-.398 8.494 1.782 11.633.772 1.133 1.527.797 2.15.494 1.248-.605 2.426-1.488 3.638-2.232a101.463 101.463 0 0 0 7.567-4.98c.36-.237-.604-3.825-.965-3.588-2.331 1.023-4.694 2.201-6.99 3.363l-.132.033c6.144-8.16 11.07-18.96 15.094-30.862 5.046-14.807 8.445-32.296 10.11-51.414.901-10.681 1.27-21.819 1.04-33.396-.013-1.175-.359-2.561-.802-3.776-.17-.4-.878-1.843-.865-.668zm-30.023 122.946s-.035-.138 0 0c-.1-.122-.035-.138-.07-.277l.07.277z"/></g><g><path d="M1408.755 652.702c19.109-35.836 29.69-70.754 30.128-98.964.09-8.064-.537-15.614-1.641-22.822-.085.305-.221.565-.307.87-.579 1.39-1.158 2.78-1.643 4.062-1.107 2.824-2.215 5.648-3.27 8.517-.443 1.13-1.713 2.488-2.608 3.414-.188.215-2.412 2.258-2.055 1.433 1.772-4.52 3.637-9.146 5.604-13.684 1.252-2.888 3.501-7.75 6.869-9.556 1.202-.659 1.722-.017 2.14.536.837 1.106 1.486 2.427 2.228 3.64a101.463 101.463 0 0 1 4.481 7.872c.214.375-2.275 3.134-2.488 2.76-1.613-1.97-3.183-4.093-4.702-6.17l-.103-.09c1.77 10.06 1.257 21.92-.561 34.35-2.227 15.485-7.138 32.61-14.335 50.401-4.045 9.927-8.773 20.018-14.234 30.228-.545 1.041-1.482 2.12-2.429 3.001-.332.28-1.62 1.243-1.074.202zm29.066-123.176s-.094.108 0 0c-.145.063-.094.108-.187.216l.187-.216z"/></g></g><g fill="#4ECDA5" fill-rule="nonzero"><g><path d="M1352.738 703.642c-63.147-18.784-115.196-43.283-147.679-69.331-9.243-7.473-17.06-15.018-23.925-22.61.446.22.901.357 1.347.577 2.258.853 4.516 1.707 6.542 2.532 4.506 1.788 9.012 3.575 13.509 5.445 1.802.715 4.838 1.005 6.944 1.181.465.058 5.403.252 4.046-.243-7.21-2.861-14.653-5.75-22.116-8.478-4.749-1.735-12.91-4.548-18.929-3.641-2.165.31-2.051 1.312-1.918 2.151.266 1.68.998 3.416 1.498 5.123a102.65 102.65 0 0 0 3.634 10.818c.173.515 6.235 1.177 6.062.662-.33-3.086-.883-6.282-1.446-9.397l.02-.162c9.31 10.774 23.357 21.47 39.587 31.694 20.172 12.766 45.372 24.997 74.02 36.087 16.02 6.165 33.03 11.958 51.043 17.297 1.822.553 4.15.84 6.265.934.708.005 3.319-.086 1.496-.64zm-173.862-92.795s.232.029 0 0c.242-.052.232.029.465.057l-.465-.057z"/></g><g><path d="M1173.164 610.41c51.607 40.953 101.53 69.537 141.498 81.204 11.423 3.286 22.087 5.361 32.244 6.63-.435-.24-.81-.533-1.245-.772-1.994-1.36-3.988-2.72-5.826-3.907-4.05-2.666-8.099-5.332-12.209-7.943-1.62-1.066-3.599-3.387-4.95-5.01-.315-.349-3.307-4.282-2.122-3.455 6.479 4.265 13.115 8.705 19.63 13.254 4.145 2.895 11.13 7.967 13.84 13.418.987 1.95.101 2.433-.663 2.805-1.528.745-3.37 1.14-5.055 1.711a102.65 102.65 0 0 1-10.946 3.228c-.52.154-4.54-4.432-4.02-4.586 2.718-1.5 5.653-2.88 8.527-4.206l.122-.109c-14.166-1.447-30.985-6.817-48.67-14.248-22.026-9.202-46.5-22.83-72.016-39.935-14.238-9.587-28.74-20.199-43.445-31.89-1.499-1.176-3.068-2.92-4.36-4.597-.41-.578-1.832-2.768-.334-1.593zm175.737 89.194s-.157-.174 0 0c-.096-.229-.157-.174-.314-.348l.314.348z"/></g></g><g fill="#4ECDA5" fill-rule="nonzero"><g><path d="M1511.252 525.24c5.7 40.21 3.7 76.642-5.537 103.3-2.674 7.609-5.845 14.49-9.348 20.885.024-.316-.015-.607.01-.922-.07-1.504-.138-3.009-.156-4.38-.074-3.032-.149-6.065-.16-9.122-.03-1.213-.758-2.923-1.283-4.1-.102-.266-1.494-2.946-1.44-2.048.119 4.852.29 9.838.586 14.775.189 3.142.64 8.48 3.186 11.328.904 1.03 1.613.605 2.195.229 1.164-.753 2.225-1.773 3.338-2.66a101.463 101.463 0 0 0 6.904-5.863c.328-.28-1.067-3.724-1.395-3.445-2.19 1.3-4.391 2.757-6.53 4.19l-.126.049c5.105-8.847 8.678-20.168 11.22-32.47 3.205-15.313 4.447-33.086 3.77-52.264-.407-10.712-1.399-21.811-3.038-33.274-.156-1.164-.668-2.498-1.256-3.65-.217-.376-1.097-1.722-.94-.558zm-14.816 125.689s-.051-.133 0 0c-.115-.11-.051-.133-.102-.267 0 0 .05.134.102.267z"/></g><g><path d="M1496.571 654.089c14.6-37.898 20.847-73.845 17.843-101.898-.894-8.015-2.436-15.433-4.41-22.452-.048.313-.151.588-.199.9-.405 1.45-.81 2.9-1.136 4.232-.755 2.939-1.51 5.877-2.208 8.853-.302 1.175-1.397 2.678-2.172 3.706-.16.237-2.12 2.535-1.865 1.672 1.208-4.7 2.495-9.52 3.895-14.264.89-3.02 2.53-8.118 5.653-10.322 1.112-.8 1.707-.227 2.19.271.965.996 1.77 2.228 2.655 3.342a101.463 101.463 0 0 1 5.407 7.267c.257.346-1.877 3.388-2.134 3.042-1.841-1.759-3.658-3.674-5.42-5.551l-.112-.076c2.984 9.769 3.919 21.603 3.63 34.163-.323 15.64-3.111 33.237-8.086 51.771-2.806 10.346-6.268 20.938-10.444 31.738-.414 1.1-1.213 2.284-2.045 3.274-.296.318-1.456 1.431-1.042.332zm13.838-125.8s-.08.118 0 0c-.136.08-.08.118-.16.237l.16-.237z"/></g></g><g fill="#4ECDA5" fill-rule="nonzero"><g><path d="M1577.785 527.166c.66 40.607 8.334 76.277 21.629 101.162 3.83 7.096 8.04 13.396 12.5 19.165-.074-.308-.081-.601-.154-.91-.168-1.496-.335-2.992-.532-4.349-.4-3.007-.802-6.014-1.27-9.035-.16-1.203.293-3.006.627-4.25.06-.28 1.015-3.144 1.102-2.249.641 4.811 1.253 9.762 1.732 14.685.305 3.133.695 8.475-1.374 11.687-.732 1.16-1.498.85-2.132.57-1.268-.562-2.476-1.403-3.714-2.104a101.463 101.463 0 0 1-7.735-4.712c-.369-.225.47-3.845.839-3.62 2.365.94 4.768 2.036 7.104 3.117l.132.028c-6.425-7.94-11.726-18.563-16.162-30.316-5.56-14.622-9.567-31.982-11.897-51.03-1.275-10.644-2.032-21.762-2.206-33.34-.028-1.174.27-2.572.67-3.802.155-.405.814-1.872.841-.697zm34.296 121.823s.03-.14 0 0c.096-.125.03-.14.059-.28l-.06.28z"/></g><g><path d="M1612.441 652.132c-20.348-35.148-32.141-69.675-33.563-97.853-.37-8.056-.008-15.623.844-22.865.095.301.24.557.336.858.628 1.369 1.255 2.738 1.785 4.002 1.205 2.784 2.41 5.568 3.565 8.399.482 1.113 1.799 2.426 2.725 3.32.195.209 2.49 2.172 2.104 1.36-1.928-4.454-3.954-9.013-6.079-13.48-1.352-2.842-3.769-7.622-7.197-9.31-1.225-.616-1.722.043-2.121.61-.797 1.135-1.4 2.478-2.1 3.717-1.498 2.57-2.9 5.244-4.203 8.023-.2.382 2.383 3.053 2.583 2.67 1.543-2.024 3.039-4.2 4.484-6.33l.1-.092c-1.419 10.115-.491 21.95 1.76 34.31 2.765 15.397 8.271 32.34 16.084 49.869 4.39 9.78 9.467 19.699 15.28 29.713.582 1.021 1.556 2.066 2.533 2.914.342.267 1.662 1.186 1.08.165zm-33.347-122.087s.098.104 0 0c.147.058.098.104.195.209l-.195-.21z"/></g></g><g fill="#4ECDA5" fill-rule="nonzero"><g><path d="M1636.204 532.636c9.779 39.418 25.28 72.447 43.831 93.704 5.33 6.053 10.847 11.244 16.49 15.862-.14-.283-.213-.568-.354-.851-.5-1.42-1-2.841-1.496-4.119-1.067-2.84-2.135-5.68-3.27-8.518-.426-1.136-.39-2.994-.346-4.281-.005-.286.282-3.292.568-2.44 1.708 4.544 3.418 9.23 4.992 13.919 1.002 2.984 2.584 8.101 1.29 11.697-.453 1.294-1.269 1.165-1.95 1.034-1.361-.262-2.727-.81-4.091-1.215a101.463 101.463 0 0 1-8.598-2.85c-.409-.137-.406-3.853.003-3.717 2.517.385 5.104.912 7.623 1.44l.136-.003c-8.047-6.291-15.601-15.449-22.567-25.903-8.707-12.997-16.516-29.01-23.072-47.047-3.636-10.083-6.875-20.746-9.649-31.988-.291-1.138-.316-2.567-.203-3.855.06-.43.372-2.008.663-.87zm60.821 110.986s-.003-.142 0 0c.065-.144-.003-.142-.005-.285l.005.285z"/></g><g><path d="M1698.083 646.603c-27.733-29.67-46.991-60.659-54.715-87.795-2.173-7.766-3.522-15.22-4.321-22.469.16.273.36.489.52.761.92 1.193 1.84 2.385 2.64 3.498 1.8 2.442 3.6 4.883 5.363 7.381.72.977 2.298 1.96 3.402 2.622.237.16 2.915 1.557 2.356.853-2.881-3.907-5.88-7.893-8.955-11.767-1.957-2.466-5.387-6.58-9.107-7.452-1.332-.326-1.669.429-1.93 1.07-.521 1.285-.806 2.73-1.21 4.094a101.463 101.463 0 0 0-2.29 8.763c-.11.418 3.009 2.439 3.118 2.022 1.048-2.32 2.015-4.777 2.945-7.177l.075-.113c.894 10.175 4.46 21.498 9.434 33.035 6.157 14.38 15.334 29.651 26.89 44.973 6.477 8.541 13.655 17.064 21.573 25.514.796.864 1.98 1.663 3.122 2.27.394.183 1.886.781 1.09-.083zm-59.956-111.456s.119.08 0 0c.157.023.119.08.237.16l-.237-.16z"/></g></g><g fill="#4ECDA5" fill-rule="nonzero"><path d="M1483.153 427.637c16.563-37.082 24.683-72.653 23.15-100.825-.472-8.05-1.624-15.539-3.228-22.652-.064.31-.181.579-.245.889-.48 1.427-.962 2.854-1.356 4.167-.908 2.894-1.815 5.79-2.669 8.725-.363 1.158-1.535 2.6-2.363 3.587-.172.228-2.249 2.42-1.95 1.572 1.453-4.631 2.99-9.377 4.637-14.041 1.047-2.968 2.951-7.975 6.185-10.011 1.153-.742 1.717-.138 2.173.385.911 1.044 1.65 2.317 2.476 3.476 1.759 2.4 3.432 4.912 5.02 7.54.238.359-2.052 3.285-2.29 2.926-1.747-1.852-3.462-3.86-5.122-5.827l-.108-.082c2.468 9.912 2.782 21.78 1.835 34.306-1.14 15.602-4.845 33.029-10.783 51.278-3.343 10.184-7.355 20.58-12.09 31.147-.472 1.077-1.332 2.218-2.214 3.163-.313.302-1.53 1.353-1.058.277zm20.403-124.904s-.086.114 0 0c-.14.073-.086.114-.172.228l.172-.228z"/></g><g fill="#4ECDA5" fill-rule="nonzero"><path d="M1329.723 241.234c-40.12 6.305-74.375 18.868-97.168 35.497-6.494 4.781-12.146 9.825-17.239 15.045.295-.116.585-.163.88-.279 1.458-.374 2.917-.748 4.233-1.132 2.922-.815 5.844-1.63 8.77-2.514 1.17-.326 3.017-.129 4.296.028.285.02 3.255.568 2.38.779-4.675 1.305-9.492 2.6-14.3 3.76-3.06.737-8.296 1.867-11.765.265-1.25-.564-1.05-1.366-.86-2.032.379-1.334 1.044-2.647 1.566-3.97a101.463 101.463 0 0 1 3.59-8.317c.17-.396 3.872-.069 3.701.327-.603 2.474-1.353 5.005-2.098 7.469l-.01.135c6.969-7.468 16.75-14.195 27.772-20.224 13.706-7.54 30.34-13.925 48.878-18.884 10.363-2.743 21.267-5.04 32.708-6.824 1.16-.19 2.585-.09 3.858.134.423.098 1.967.546.808.737zm-115.865 50.916s.142.01 0 0c.138.077.142.01.285.02l-.285-.02z"/></g><g fill="#4ECDA5" fill-rule="nonzero"><path d="M1208.68 463.776c39.217 10.558 75.62 13.014 103.206 7.094 7.877-1.727 15.093-4.036 21.868-6.733-.316-.014-.6-.089-.917-.103-1.484-.252-2.969-.503-4.327-.688-3.001-.443-6.002-.887-9.035-1.27-1.2-.178-2.81-1.11-3.913-1.773-.252-.134-2.742-1.843-1.858-1.68 4.802.71 9.73 1.486 14.594 2.383 3.095.57 8.338 1.667 10.855 4.542.913 1.023.404 1.675-.04 2.207-.89 1.063-2.03 1.993-3.046 2.99a101.463 101.463 0 0 1-6.662 6.136c-.317.293-3.566-1.512-3.249-1.804 1.557-2.014 3.272-4.022 4.955-5.97l.063-.12c-9.403 3.989-21.075 6.156-33.596 7.18-15.588 1.315-33.38.382-52.333-2.629-10.582-1.708-21.478-4.045-32.656-7.069-1.136-.297-2.398-.968-3.47-1.691-.346-.262-1.575-1.299-.438-1.002zm126.558.613s-.126-.067 0 0c-.094-.127-.126-.067-.252-.135l.252.135z"/></g><g fill="#4ECDA5" fill-rule="nonzero"><path d="M1338.287 443.639c-38.824-11.92-75.12-15.645-102.895-10.691-7.933 1.45-15.225 3.506-22.09 5.965.316.025.597.11.913.135 1.474.303 2.95.607 4.3.838 2.984.548 5.968 1.096 8.986 1.585 1.193.22 2.768 1.207 3.848 1.909.247.143 2.677 1.937 1.799 1.743-4.774-.877-9.672-1.825-14.502-2.89-3.074-.678-8.275-1.958-10.69-4.919-.877-1.054-.346-1.688.117-2.204.926-1.032 2.099-1.92 3.148-2.881a101.463 101.463 0 0 1 6.872-5.9c.328-.282 3.511 1.635 3.184 1.916-1.626 1.959-3.41 3.905-5.16 5.793l-.068.117c9.537-3.657 21.278-5.416 33.827-6.003 15.624-.77 33.373.784 52.21 4.454 10.515 2.077 21.323 4.793 32.388 8.205 1.126.336 2.363 1.05 3.41 1.811.337.274 1.528 1.353.403 1.017zm-126.46-5.03s.124.072 0 0c.09.13.124.072.248.144l-.247-.143z"/></g><circle fill="#333" cx="1704" cy="560" r="18"/><text font-family="RobotoCondensed-Bold, Roboto Condensed" font-size="24" font-style="condensed" font-weight="bold" fill="#FFF"><tspan x="1697.029" y="569">4</tspan></text><g fill-rule="nonzero"><g fill="#4267AD"><path d="M847.797 78.881c-1.51 0-1.51 2.419 0 2.419h17.573c-.952 4.275-1.903 8.606-2.854 12.881h-15.67l-6.212-17.887c-.168-.507-.56-.9-1.12-.9h-7.275c-1.51 0-1.51 2.418 0 2.418h6.436l6.212 17.888c.672 1.687 1.4 3.375 2.07 5.119.225.506.56.9 1.12.9H861.9c1.511 0 1.511-2.419 0-2.419h-13.04c-.391-.9-.727-1.8-1.119-2.7h15.67c.504 0 1.007-.338 1.12-.9 1.119-5.119 2.238-10.181 3.357-15.3.168-.731-.336-1.519-1.12-1.519h-18.97zM820.6 99.356h20.873c1.12 0 1.623.563 1.623 1.238s-.503 1.237-1.623 1.237H820.6c-1.12 0-1.567-.562-1.567-1.237s.504-1.238 1.567-1.238zM839.011 94.519h-9.514c-.615 0-1.175-.563-1.175-1.182 0-.618.56-1.18 1.175-1.18h9.514c.616 0 1.175.562 1.175 1.18 0 .62-.56 1.182-1.175 1.182z"/><path d="M833.19 94.519h-9.513c-.616 0-1.175-.563-1.175-1.182 0-.618.56-1.18 1.175-1.18h9.514c.615 0 1.175.562 1.175 1.18 0 .62-.56 1.182-1.175 1.182zM819.928 84.731h15.445c1.12 0 1.567.563 1.567 1.182 0 .618-.447 1.18-1.567 1.18h-15.445c-1.12.057-1.735-.505-1.735-1.18 0-.62.56-1.182 1.735-1.182zM808.623 99.356h20.874c1.12 0 1.623.563 1.623 1.238s-.503 1.237-1.623 1.237h-20.874c-1.12 0-1.567-.562-1.567-1.237s.448-1.238 1.567-1.238z"/><path d="M811.03 84.731h15.445c1.12 0 1.567.563 1.567 1.182 0 .618-.448 1.18-1.567 1.18H811.03c-1.119.057-1.735-.505-1.735-1.18 0-.62.56-1.182 1.735-1.182z"/></g><path d="M876 101.828h2.53c.618 0 1.124-.4 1.236-1.03l2.305-11.955a1.274 1.274 0 0 1 1.236-1.03h5.958a.662.662 0 0 0 .619-.514l.337-1.83c.056-.401-.225-.859-.618-.859h-5.284c-.787 0-1.349-.63-1.237-1.43l.787-4.061a1.274 1.274 0 0 1 1.237-1.03h7.307a.662.662 0 0 0 .619-.515l.337-1.83c.056-.4-.225-.744-.619-.744h-11.129a.662.662 0 0 0-.618.515L876 101.828zm14.165 0h3.035a.662.662 0 0 0 .618-.514l1.8-9.668c.955-2.574 2.866-3.775 4.384-3.775.337 0 .73 0 1.011.114.281.057.619-.114.675-.4l.787-2.117c.168-.4-.169-.858-.562-.858h-.843c-1.968 0-3.317.4-4.61 2.46l-.225 1.201.563-2.974c.056-.344-.225-.687-.619-.687h-2.304a.662.662 0 0 0-.619.515l-3.091 16.703zm33.95-11.383c0-.114.113-.229.17-.343 1.573-1.602 2.753-2.346 3.821-2.346 1.406 0 2.024.744 2.024 2.174 0 .515-.112.973-.281 1.773l-1.967 10.125h3.035a.662.662 0 0 0 .618-.514l1.968-10.068a8.894 8.894 0 0 0 .28-2.346c0-2.688-1.124-4.233-3.822-4.233-2.023 0-3.204.4-5.283 2.46l.337-1.773c0-.343-.281-.687-.618-.687h-2.249a.662.662 0 0 0-.618.515l-3.26 16.704h3.035a.662.662 0 0 0 .618-.515l2.192-10.926zm13.322 5.32c-.112.686-.225 1.316-.225 2.002 0 2.345 1.18 4.119 4.216 4.119a8.05 8.05 0 0 0 2.923-.572c.281-.115.45-.458.393-.744l-.337-1.373c-.112-.343-.45-.572-.787-.458a2.295 2.295 0 0 1-.9.172c-1.348 0-1.91-.63-1.91-1.83 0-.4.056-.801.112-1.202l1.63-8.351h3.485a.662.662 0 0 0 .619-.515l.337-1.66c.056-.4-.225-.743-.618-.743h-3.148l.73-3.775c.057-.4-.224-.744-.618-.744h-1.742c-.281 0-.506.172-.619.458l-1.18 4.061h-2.024c-.28 0-.505.229-.562.515l-.45 2.403h2.305l-1.63 8.237zM908.208 102c4.328 0 8.769-4.29 8.769-10.525 0-4.12-2.36-6.693-5.958-6.693-4.329 0-8.713 4.233-8.713 10.525 0 4.119 2.36 6.693 5.902 6.693zm2.417-14.13c1.855 0 2.81 1.43 2.81 3.948 0 4.233-2.36 7.608-4.89 7.608-1.855 0-2.866-1.43-2.866-3.947 0-4.233 2.36-7.608 4.946-7.608zM954 90.622c0 6.238 3.439 10.268 9.19 10.268 2.988 0 5.299-1.27 6.99-2.65.226-.22.282-.552.113-.773l-1.127-1.656c-.226-.276-.62-.386-.903-.166-1.296.994-2.706 1.656-4.284 1.656-4.06 0-5.807-2.815-5.807-7.01 0-5.796 3.608-11.758 8.682-11.758 1.466 0 2.537.718 3.44 1.932.225.276.62.331.901.11l1.86-1.435c.226-.165.339-.552.17-.773-1.353-2.042-3.44-3.367-6.145-3.367-7.611 0-13.08 7.342-13.08 15.622zm34.898 10.268h3.044c.282 0 .564-.221.62-.497l2.086-10.544c1.635-1.766 3.045-2.484 3.89-2.484 1.297 0 1.973.718 1.973 2.098 0 .497-.112.938-.281 1.711l-1.974 9.77h3.045c.282 0 .563-.22.62-.496l2.142-10.544c1.635-1.766 3.045-2.484 3.89-2.484 1.353 0 1.973.718 1.973 2.098 0 .497-.112.938-.281 1.711L1007.67 101h3.045c.282 0 .563-.22.62-.497l1.973-9.715c.17-.884.282-1.49.282-2.264 0-2.594-1.184-4.085-3.834-4.085-1.747 0-3.72 1.215-5.637 2.981-.339-1.766-1.24-2.98-3.778-2.98-1.747 0-3.777 1.214-5.412 2.65l.113-1.602c0-.33-.282-.662-.62-.662h-1.692a.657.657 0 0 0-.62.497l-3.213 15.567zm25.426 0h3.044c.282 0 .564-.221.62-.497l2.086-10.544c1.635-1.766 3.045-2.484 3.89-2.484 1.297 0 1.974.718 1.974 2.098 0 .497-.113.938-.282 1.711l-1.973 9.77h3.044c.282 0 .564-.22.62-.496l2.142-10.544c1.635-1.766 3.045-2.484 3.89-2.484 1.354 0 1.974.718 1.974 2.098 0 .497-.113.938-.282 1.711l-1.973 9.771h3.044c.282 0 .564-.22.62-.497l1.973-9.715c.17-.884.282-1.49.282-2.264 0-2.594-1.184-4.085-3.833-4.085-1.748 0-3.721 1.215-5.638 2.981-.338-1.766-1.24-2.98-3.778-2.98-1.747 0-3.777 1.214-5.412 2.65l.113-1.602c0-.33-.282-.662-.62-.662h-1.691a.657.657 0 0 0-.62.497l-3.214 15.567zm27.117-6.735c0 4.25 2.594 6.68 6.371 6.68a9.844 9.844 0 0 0 4.905-1.325c.282-.166.395-.552.225-.828l-.676-1.16c-.17-.33-.564-.386-.902-.22-.79.496-1.804.883-2.706.883-2.255 0-4.06-1.27-3.947-4.14a.62.62 0 0 1 .62-.608h8.683c.281 0 .507-.165.563-.386.226-.662.508-1.822.508-2.926 0-3.257-1.353-5.796-5.074-5.796-4.116-.055-8.57 3.975-8.57 9.826zm4.51-2.87a.595.595 0 0 1-.563-.829c.902-2.208 2.593-3.477 4.285-3.477 1.916 0 2.593 1.38 2.593 2.925 0 .332 0 .608-.056.884a.61.61 0 0 1-.62.497h-5.638zm35.406 2.87c0 4.25 2.593 6.68 6.37 6.68a9.844 9.844 0 0 0 4.905-1.325c.282-.166.395-.552.226-.828l-.677-1.16c-.169-.33-.564-.386-.902-.22-.79.496-1.804.883-2.706.883-2.255 0-4.06-1.27-3.946-4.14a.62.62 0 0 1 .62-.608h8.682c.282 0 .507-.165.564-.386.225-.662.507-1.822.507-2.926 0-3.257-1.353-5.796-5.074-5.796-4.116-.055-8.57 3.975-8.57 9.826zm4.51-2.87a.595.595 0 0 1-.564-.829c.902-2.208 2.593-3.477 4.285-3.477 1.917 0 2.593 1.38 2.593 2.925 0 .332 0 .608-.056.884a.61.61 0 0 1-.62.497h-5.638zm-17.477 3.146c0 4.085 2.537 6.459 6.032 6.459 2.086 0 3.552-.718 4.68-1.49.281-.166.338-.553.169-.829l-.79-1.16c-.169-.275-.563-.33-.902-.165a4.168 4.168 0 0 1-2.48.828c-2.143 0-3.214-1.38-3.214-3.753 0-3.92 2.48-7.232 5.356-7.232.846 0 1.41.221 2.03.773.282.22.676.22.902 0l1.127-1.214a.591.591 0 0 0 0-.828c-.845-.828-2.086-1.49-3.777-1.49-4.961-.056-9.133 4.415-9.133 10.101zm-89.64 6.459c4.34 0 8.795-4.14 8.795-10.158 0-3.974-2.368-6.458-5.976-6.458-4.341 0-8.739 4.085-8.739 10.157 0 3.92 2.368 6.459 5.92 6.459zm2.424-13.635c1.86 0 2.819 1.38 2.819 3.809 0 4.085-2.368 7.342-4.905 7.342-1.86 0-2.875-1.38-2.875-3.81 0-4.14 2.368-7.341 4.96-7.341zm75.151 13.635h3.044c.282 0 .564-.221.62-.497l1.805-9.33c.958-2.483 2.875-3.643 4.397-3.643.338 0 .733 0 1.015.11.282.056.62-.11.676-.386l.79-2.042c.169-.387-.17-.828-.564-.828h-.846c-1.973 0-3.326.386-4.623 2.374l-.225 1.159.564-2.87c.056-.332-.226-.663-.62-.663h-2.312a.657.657 0 0 0-.62.497l-3.1 16.119z" fill="#333"/></g></g><circle fill="#333" cx="1358" cy="508" r="18"/><text font-family="RobotoCondensed-Bold, Roboto Condensed" font-size="24" font-style="condensed" font-weight="bold" fill="#FFF"><tspan x="1352.029" y="517">2</tspan></text><circle fill="#333" cx="1344" cy="226" r="18"/><text font-family="RobotoCondensed-Bold, Roboto Condensed" font-size="24" font-style="condensed" font-weight="bold" fill="#FFF"><tspan x="1338.029" y="235">3</tspan></text><path fill="#FFF" d="M1401 687v21l-5-3v-23zM1385 687v21l-5-3v-23zM1369 679v21l-5-3v-23z"/><path fill="#F1F2F3" d="M1351 671v21l-5-3v-23zM1337 663v21l-5-3v-23zM1321 647v21l-5-3v-23zM1305 639v21l-5-3v-23zM1289 631v21l-5-3v-23z"/><path d="M1328 729c9.941 0 18-8.059 18-18s-8.059-18-18-18-18 8.059-18 18 8.059 18 18 18z" stroke="#333" stroke-width="2" stroke-dasharray="6"/><text font-family="RobotoCondensed-Bold, Roboto Condensed" font-size="24" font-style="condensed" font-weight="bold" fill="#333"><tspan x="1319.385" y="720">4’</tspan></text></g></svg>