<svg id="Calque_1" data-name="Calque 1" xmlns="http://www.w3.org/2000/svg" viewBox="0 0 800 800"><defs><style>.cls-1{fill:#70ceef;}</style></defs><title>react-logo</title><path class="cls-1" d="M779.22,400.73c0-50.24-62.92-97.86-159.39-127.39C642.1,175,632.2,96.79,588.61,71.75c-10.05-5.87-21.8-8.66-34.63-8.66V97.57c7.11,0,12.83,1.39,17.62,4,21,12.06,30.15,58,23,117-1.7,14.53-4.49,29.83-7.89,45.45a749.09,749.09,0,0,0-98.17-16.85,753.26,753.26,0,0,0-64.31-77.3c50.4-46.84,97.71-72.51,129.86-72.51V62.94h0c-42.51,0-98.17,30.3-154.44,82.86C343.42,93.55,287.76,63.56,245.25,63.56V98c32,0,79.46,25.51,129.86,72a731,731,0,0,0-63.85,77.15,722.6,722.6,0,0,0-98.32,17c-3.56-15.46-6.18-30.45-8-44.83-7.27-59.06,1.7-105,22.57-117.18,4.64-2.79,10.67-4,17.78-4V63.71h0c-13,0-24.74,2.78-34.94,8.66-43.44,25-53.18,103.11-30.76,201.13C83.39,303.18,20.78,350.64,20.78,400.73S83.7,498.59,180.17,528.12c-22.27,98.32-12.37,176.54,31.22,201.59,10.05,5.87,21.8,8.66,34.79,8.66,42.51,0,98.17-30.3,154.44-82.87,56.27,52.26,111.93,82.25,154.44,82.25,13,0,24.73-2.78,34.94-8.66,43.44-25,53.18-103.11,30.76-201.13C716.61,498.43,779.22,450.82,779.22,400.73ZM577.94,297.61c-5.72,19.95-12.83,40.51-20.87,61.07-6.34-12.37-13-24.74-20.25-37.1s-14.69-24.43-22.26-36.18C536.51,288.65,557.69,292.67,577.94,297.61ZM507.13,462.26c-12.05,20.87-24.42,40.66-37.25,59-23,2-46.38,3.1-69.88,3.1-23.34,0-46.69-1.09-69.57-2.94q-19.24-27.6-37.41-58.75-17.62-30.37-32.16-61.53c9.59-20.71,20.41-41.43,32-61.68,12.05-20.87,24.42-40.66,37.25-59.06,23-2,46.38-3.09,69.88-3.09,23.34,0,46.69,1.08,69.57,2.94q19.24,27.6,37.41,58.75,17.63,30.38,32.16,61.53C529.4,421.29,518.73,442,507.13,462.26Zm49.94-20.1c8.35,20.72,15.46,41.43,21.33,61.53-20.25,4.95-41.58,9.12-63.69,12.37,7.58-11.91,15.15-24.12,22.26-36.64S550.73,454.53,557.07,442.16Zm-156.76,165a635.54,635.54,0,0,1-43-49.47c13.92.62,28.14,1.09,42.52,1.09s28.9-.31,43-1.09A602.65,602.65,0,0,1,400.31,607.11Zm-115-91.05c-22-3.25-43.13-7.27-63.38-12.22,5.72-19.94,12.83-40.5,20.87-61.06,6.33,12.37,13,24.74,20.25,37.1S277.71,504.31,285.29,516.06ZM399.54,194.34a639.71,639.71,0,0,1,43,49.48c-13.91-.62-28.13-1.09-42.51-1.09s-28.91.31-43,1.09A604.58,604.58,0,0,1,399.54,194.34ZM285.14,285.4C277.56,297.31,270,309.52,262.87,322c-7.11,12.37-13.76,24.74-20.09,37.1-8.35-20.71-15.46-41.43-21.34-61.53C241.69,292.82,263,288.65,285.14,285.4ZM145.23,479C90.5,455.61,55.1,425,55.1,400.73s35.4-55,90.13-78.23c13.29-5.72,27.82-10.82,42.82-15.61A743.32,743.32,0,0,0,222.83,401a732.81,732.81,0,0,0-34.32,93.68C173.21,489.93,158.68,484.68,145.23,479ZM228.4,699.87c-21-12.06-30.15-58-23-117,1.7-14.53,4.49-29.83,7.89-45.45a749.09,749.09,0,0,0,98.17,16.85,753.26,753.26,0,0,0,64.31,77.3c-50.4,46.84-97.71,72.51-129.86,72.51C238.91,703.89,233,702.5,228.4,699.87Zm366.7-117.8c7.27,59.06-1.7,105-22.57,117.18-4.64,2.79-10.67,4-17.78,4-32,0-79.46-25.5-129.86-72a729.86,729.86,0,0,0,63.85-77.14,721,721,0,0,0,98.32-17A431.71,431.71,0,0,1,595.1,582.07ZM654.62,479c-13.3,5.72-27.83,10.82-42.82,15.61A743.43,743.43,0,0,0,577,400.42a733.36,733.36,0,0,0,34.32-93.68c15.31,4.79,29.84,10,43.44,15.76,54.73,23.35,90.13,54,90.13,78.23S709.35,455.77,654.62,479Z"/><circle class="cls-1" cx="399.85" cy="400.73" r="70.65"/></svg>