<svg xmlns="http://www.w3.org/2000/svg" viewBox="0 0 133.048 132.548" height="500.967" width="502.857">
    <g transform="translate(-39.31 -58.619)">
        <circle r="66.524" cy="124.643" cx="105.833" fill="white" />
        <g>
            <g>
                <g>
                    <g>
                        <path fill="#BB1F4E" d="M70.541 150.116l-3.526-2.036 39.282-68.035 3.526 2.036z" />
                    </g>
                </g>
                <g>
                    <g>
                        <path fill="#BB1F4E" d="M66.208 142.645h78.563v4.072H66.208z" />
                    </g>
                </g>
                <g>
                    <g>
                        <path fill="#BB1F4E" d="M107.058 167.62l-39.296-22.688 2.036-3.526 39.296 22.689z" />
                    </g>
                </g>
                <g>
                    <g>
                        <path fill="#BB1F4E" d="M141.195 108.489l-39.296-22.688 2.036-3.526 39.296 22.688z" />
                    </g>
                </g>
                <g>
                    <g>
                        <path fill="#BB1F4E" d="M69.809 108.474l-2.036-3.527L107.07 82.26l2.036 3.526z" />
                    </g>
                </g>
                <g>
                    <g>
                        <path fill="#BB1F4E" d="M140.47 150.117L101.19 82.08l3.526-2.035 39.281 68.035z" />
                    </g>
                </g>
                <g>
                    <g>
                        <path fill="#BB1F4E" d="M69.323 102.247h4.071v45.377h-4.071z" />
                    </g>
                </g>
                <g>
                    <g>
                        <path fill="#BB1F4E" d="M137.608 102.247h4.072v45.377h-4.072z" />
                    </g>
                </g>
                <g>
                    <g>
                        <path fill="#BB1F4E" d="M106.365 165.897l-1.778-3.08 34.177-19.732 1.778 3.08z" />
                    </g>
                </g>
                <path
                    d="M147.076 148.949c-2.354 4.096-7.603 5.494-11.7 3.14-4.096-2.355-5.494-7.604-3.14-11.7 2.356-4.097 7.604-5.495 11.7-3.14 4.121 2.379 5.52 7.603 3.14 11.7M78.741 109.483c-2.354 4.096-7.603 5.494-11.7 3.14-4.096-2.355-5.494-7.604-3.139-11.7 2.355-4.096 7.604-5.494 11.7-3.14 4.096 2.38 5.494 7.604 3.14 11.7M63.927 148.949c-2.355-4.097-.957-9.321 3.14-11.7 4.095-2.355 9.32-.957 11.699 3.14 2.355 4.096.957 9.32-3.14 11.7-4.12 2.354-9.345.956-11.7-3.14M132.261 109.483c-2.354-4.096-.956-9.32 3.14-11.7 4.096-2.354 9.32-.956 11.7 3.14 2.354 4.096.956 9.32-3.14 11.7-4.096 2.354-9.345.956-11.7-3.14M105.501 172.961a8.552 8.552 0 0 1-8.56-8.56 8.552 8.552 0 0 1 8.56-8.56 8.552 8.552 0 0 1 8.56 8.56c0 4.71-3.826 8.56-8.56 8.56M105.501 94.03a8.552 8.552 0 0 1-8.56-8.56 8.552 8.552 0 0 1 8.56-8.56 8.552 8.552 0 0 1 8.56 8.56 8.552 8.552 0 0 1-8.56 8.56"
                    fill="#BB1F4E" />
            </g>
        </g>
    </g>
</svg>