<svg width="318" height="88" viewBox="0 0 318 88" fill="none" xmlns="http://www.w3.org/2000/svg">
    <path
        d="M57.036 32.9391L76.0792 21.962L38.0401 8.65223e-06L0 21.962V65.886L19.0651 76.8937L19.0423 54.8756L38.0391 65.8443L38.0412 43.9251L19.0423 32.9391L38.0391 21.9713L57.036 32.9391"
        fill="#AC304F" />
    <path d="M57.036 54.8756L76.0792 65.886L38.0401 87.8485L38.0391 65.8443L57.036 54.8756Z" fill="#AC304F" />
    <path d="M86.8417 50.9989V36.8079H96.5751V40.2063H90.7391V42.5647H95.4964V45.7224H90.7391V50.9989H86.8417Z"
        fill="#AC304F" />
    <path
        d="M105.29 43.2448H107.748C107.988 43.2448 108.211 43.1109 108.418 42.8448C108.624 42.5781 108.728 42.2047 108.728 41.7261C108.728 41.2323 108.608 40.8557 108.368 40.5964C108.128 40.336 107.888 40.2063 107.648 40.2063H105.29V43.2448ZM101.392 50.9989V36.8079H107.908C108.602 36.8079 109.242 36.9516 109.828 37.238C110.414 37.5245 110.916 37.898 111.336 38.3573C111.756 38.8167 112.086 39.3437 112.327 39.9371C112.566 40.5292 112.686 41.1256 112.686 41.7261C112.686 42.5521 112.506 43.3213 112.146 44.0339C111.787 44.7475 111.287 45.3308 110.647 45.7828L113.646 50.9989H109.247L106.75 46.6428H105.29V50.9989H101.392"
        fill="#AC304F" />
    <path
        d="M121.18 43.9245C121.18 44.4037 121.247 44.8672 121.38 45.3131C121.514 45.7599 121.714 46.1563 121.98 46.5032C122.247 46.8495 122.583 47.1292 122.99 47.3417C123.396 47.5552 123.879 47.662 124.439 47.662C124.998 47.662 125.484 47.5527 125.898 47.3323C126.311 47.1125 126.647 46.8261 126.907 46.4729C127.167 46.1199 127.36 45.7161 127.487 45.2631C127.614 44.8104 127.676 44.3505 127.676 43.8839C127.676 43.4043 127.61 42.9412 127.476 42.4948C127.344 42.0489 127.14 41.6552 126.867 41.3156C126.594 40.9761 126.254 40.7032 125.848 40.4959C125.442 40.2896 124.966 40.1871 124.419 40.1871C123.859 40.1871 123.376 40.2928 122.97 40.5057C122.563 40.7193 122.227 41.0027 121.96 41.3552C121.694 41.7089 121.496 42.1089 121.371 42.5552C121.244 43.0021 121.18 43.4579 121.18 43.9245V43.9245ZM124.399 51.1204C123.319 51.1204 122.34 50.9136 121.46 50.5005C120.58 50.0865 119.828 49.5448 119.202 48.8713C118.576 48.1985 118.088 47.4287 117.743 46.5615C117.396 45.6964 117.223 44.8032 117.223 43.8839C117.223 42.9516 117.403 42.0521 117.763 41.186C118.123 40.3199 118.626 39.5563 119.272 38.8969C119.918 38.2376 120.684 37.7109 121.571 37.3183C122.456 36.9251 123.426 36.7281 124.479 36.7281C125.558 36.7281 126.538 36.9349 127.416 37.3475C128.296 37.7609 129.05 38.3073 129.675 38.9876C130.302 39.6667 130.786 40.4391 131.124 41.3057C131.464 42.1724 131.634 43.0579 131.634 43.9641C131.634 44.8969 131.455 45.7928 131.095 46.6532C130.735 47.512 130.235 48.2713 129.596 48.9303C128.956 49.5901 128.192 50.1204 127.307 50.5204C126.42 50.9199 125.451 51.1204 124.399 51.1204"
        fill="#AC304F" />
    <path
        d="M140.49 44.024V50.9989H136.591V36.8079H139.63L145.327 44.024V36.8079H149.224V50.9989H146.126L140.49 44.024Z"
        fill="#AC304F" />
    <path d="M166.015 40.2063H161.936V50.9989H158.039V40.2063H153.942V36.8079H166.015V40.2063" fill="#AC304F" />
    <path
        d="M181.24 43.7844C181.24 42.9188 181.403 42.0652 181.73 41.2261C182.055 40.386 182.531 39.6333 183.158 38.9667C183.784 38.3005 184.544 37.7609 185.436 37.3475C186.33 36.9349 187.35 36.7281 188.495 36.7281C189.867 36.7281 191.056 37.0115 192.063 37.5781C193.07 38.1443 193.819 38.8937 194.311 39.8261L191.334 41.9453C191.2 41.5989 191.023 41.3125 190.803 41.086C190.583 40.8595 190.342 40.6797 190.075 40.5459C189.807 40.4125 189.531 40.3199 189.244 40.2661C188.959 40.2136 188.682 40.1871 188.415 40.1871C187.856 40.1871 187.372 40.2959 186.967 40.5161C186.56 40.7355 186.227 41.0224 185.967 41.3756C185.707 41.7281 185.514 42.1287 185.387 42.5751C185.26 43.0213 185.196 43.4647 185.196 43.9043C185.196 44.3969 185.27 44.8704 185.416 45.3235C185.564 45.7765 185.778 46.1756 186.056 46.5224C186.336 46.8693 186.68 47.1448 187.086 47.3521C187.492 47.5595 187.948 47.662 188.456 47.662C188.722 47.662 188.995 47.6323 189.275 47.5719C189.555 47.512 189.824 47.412 190.084 47.2713C190.344 47.1323 190.578 46.9527 190.784 46.7323C190.991 46.512 191.154 46.2428 191.274 45.9224L194.452 47.8219C194.239 48.3417 193.915 48.8079 193.482 49.2209C193.05 49.6333 192.556 49.9813 192.003 50.2599C191.45 50.5396 190.856 50.7532 190.224 50.9C189.591 51.0459 188.975 51.1204 188.375 51.1204C187.322 51.1204 186.359 50.9104 185.487 50.4901C184.614 50.0709 183.86 49.5136 183.228 48.8209C182.595 48.1281 182.106 47.3417 181.759 46.4625C181.412 45.5833 181.24 44.6907 181.24 43.7844"
        fill="#AC304F" />
    <path
        d="M202.087 43.9245C202.087 44.4037 202.154 44.8672 202.288 45.3131C202.42 45.7599 202.62 46.1563 202.887 46.5032C203.154 46.8495 203.49 47.1292 203.896 47.3417C204.302 47.5552 204.786 47.662 205.346 47.662C205.906 47.662 206.391 47.5527 206.804 47.3323C207.218 47.1125 207.554 46.8261 207.814 46.4729C208.075 46.1199 208.267 45.7161 208.394 45.2631C208.52 44.8104 208.583 44.3505 208.583 43.8839C208.583 43.4043 208.518 42.9412 208.384 42.4948C208.25 42.0489 208.047 41.6552 207.774 41.3156C207.5 40.9761 207.16 40.7032 206.754 40.4959C206.348 40.2896 205.871 40.1871 205.326 40.1871C204.766 40.1871 204.283 40.2928 203.876 40.5057C203.47 40.7193 203.134 41.0027 202.867 41.3552C202.6 41.7089 202.404 42.1089 202.278 42.5552C202.15 43.0021 202.087 43.4579 202.087 43.9245V43.9245ZM205.304 51.1204C204.226 51.1204 203.246 50.9136 202.367 50.5005C201.487 50.0865 200.735 49.5448 200.108 48.8713C199.482 48.1985 198.996 47.4287 198.65 46.5615C198.302 45.6964 198.13 44.8032 198.13 43.8839C198.13 42.9516 198.31 42.0521 198.67 41.186C199.028 40.3199 199.531 39.5563 200.179 38.8969C200.824 38.2376 201.59 37.7109 202.476 37.3183C203.363 36.9251 204.332 36.7281 205.386 36.7281C206.466 36.7281 207.444 36.9349 208.324 37.3475C209.203 37.7609 209.956 38.3073 210.582 38.9876C211.208 39.6667 211.691 40.4391 212.031 41.3057C212.371 42.1724 212.54 43.0579 212.54 43.9641C212.54 44.8969 212.36 45.7928 212.002 46.6532C211.642 47.512 211.142 48.2713 210.503 48.9303C209.862 49.5901 209.099 50.1204 208.214 50.5204C207.327 50.9199 206.358 51.1204 205.304 51.1204"
        fill="#AC304F" />
    <path
        d="M228.232 50.9989V43.524L225.854 48.7819H223.775L221.396 43.524V50.9989H217.498V36.8079H221.755L224.814 43.4844L227.892 36.8079H232.131V50.9989H228.232"
        fill="#AC304F" />
    <path
        d="M248.599 50.9989V43.524L246.222 48.7819H244.142L241.763 43.524V50.9989H237.866V36.8079H242.124L245.182 43.4844L248.26 36.8079H252.498V50.9989H248.599"
        fill="#AC304F" />
    <path
        d="M268.348 47.6021V50.9989H258.234V36.8079H268.168V40.2063H262.132V42.2047H267.288V45.3631H262.132V47.6021H268.348"
        fill="#AC304F" />
    <path
        d="M277.362 43.2448H279.82C280.062 43.2448 280.284 43.1109 280.491 42.8448C280.696 42.5781 280.8 42.2047 280.8 41.7261C280.8 41.2323 280.68 40.8557 280.44 40.5964C280.2 40.336 279.962 40.2063 279.722 40.2063H277.362V43.2448ZM273.466 50.9989V36.8079H279.98C280.674 36.8079 281.312 36.9516 281.9 37.238C282.486 37.5245 282.988 37.898 283.41 38.3573C283.828 38.8167 284.158 39.3437 284.399 39.9371C284.638 40.5292 284.758 41.1256 284.758 41.7261C284.758 42.5521 284.578 43.3213 284.218 44.0339C283.858 44.7475 283.358 45.3308 282.719 45.7828L285.718 50.9989H281.32L278.822 46.6428H277.362V50.9989H273.466"
        fill="#AC304F" />
    <path
        d="M289.295 43.7844C289.295 42.9188 289.459 42.0652 289.786 41.2261C290.111 40.386 290.587 39.6333 291.214 38.9667C291.84 38.3005 292.599 37.7609 293.492 37.3475C294.386 36.9349 295.406 36.7281 296.551 36.7281C297.923 36.7281 299.112 37.0115 300.119 37.5781C301.126 38.1443 301.874 38.8937 302.367 39.8261L299.39 41.9453C299.255 41.5989 299.079 41.3125 298.859 41.086C298.639 40.8595 298.396 40.6797 298.131 40.5459C297.863 40.4125 297.587 40.3199 297.3 40.2661C297.014 40.2136 296.738 40.1871 296.47 40.1871C295.911 40.1871 295.428 40.2959 295.022 40.5161C294.615 40.7355 294.283 41.0224 294.023 41.3756C293.762 41.7281 293.57 42.1287 293.443 42.5751C293.316 43.0213 293.252 43.4647 293.252 43.9043C293.252 44.3969 293.326 44.8704 293.472 45.3235C293.619 45.7765 293.832 46.1756 294.112 46.5224C294.392 46.8693 294.735 47.1448 295.142 47.3521C295.548 47.5595 296.004 47.662 296.511 47.662C296.778 47.662 297.051 47.6323 297.331 47.5719C297.61 47.512 297.88 47.412 298.139 47.2713C298.4 47.1323 298.634 46.9527 298.84 46.7323C299.046 46.512 299.208 46.2428 299.33 45.9224L302.507 47.8219C302.295 48.3417 301.97 48.8079 301.538 49.2209C301.104 49.6333 300.612 49.9813 300.059 50.2599C299.506 50.5396 298.912 50.7532 298.28 50.9C297.647 51.0459 297.03 51.1204 296.431 51.1204C295.378 51.1204 294.415 50.9104 293.543 50.4901C292.67 50.0709 291.916 49.5136 291.284 48.8209C290.651 48.1281 290.162 47.3417 289.815 46.4625C289.467 45.5833 289.295 44.6907 289.295 43.7844"
        fill="#AC304F" />
    <path
        d="M317.299 47.6021V50.9989H307.184V36.8079H317.119V40.2063H311.082V42.2047H316.239V45.3631H311.082V47.6021H317.299"
        fill="#AC304F" />
    <path d="M176.3 41.412L170.868 44.4871V48.6765L176.3 45.6016V41.412Z" fill="#AC304F" />
</svg>