<svg width="318" height="89" viewBox="0 0 318 89" fill="none" xmlns="http://www.w3.org/2000/svg">
<path d="M57.4849 33.7041L76.5281 22.7271L38.4891 0.765079L0.448929 22.7271V66.6511L19.514 77.6588L19.4912 55.6407L38.488 66.6093L38.4901 44.6901L19.4912 33.7041L38.488 22.7364L57.4849 33.7041Z" fill="black"/>
<path d="M57.4849 55.6407L76.5281 66.6511L38.4891 88.6136L38.488 66.6093L57.4849 55.6407Z" fill="black"/>
<path d="M87.2907 51.764V37.5729H97.024V40.9713H91.188V43.3297H95.9453V46.4875H91.188V51.764H87.2907Z" fill="black"/>
<path d="M105.739 44.0099H108.197C108.437 44.0099 108.66 43.876 108.867 43.6099C109.073 43.3432 109.177 42.9697 109.177 42.4912C109.177 41.9973 109.057 41.6208 108.817 41.3615C108.577 41.1011 108.337 40.9713 108.097 40.9713H105.739V44.0099ZM101.841 51.764V37.5729H108.357C109.051 37.5729 109.691 37.7167 110.277 38.0031C110.863 38.2896 111.365 38.6631 111.785 39.1224C112.205 39.5817 112.535 40.1088 112.776 40.7021C113.015 41.2943 113.135 41.8907 113.135 42.4912C113.135 43.3172 112.955 44.0864 112.595 44.7989C112.236 45.5125 111.736 46.0959 111.096 46.5479L114.095 51.764H109.696L107.199 47.4079H105.739V51.764H101.841Z" fill="black"/>
<path d="M121.629 44.6896C121.629 45.1688 121.696 45.6323 121.829 46.0781C121.963 46.5249 122.163 46.9213 122.429 47.2683C122.696 47.6145 123.032 47.8943 123.439 48.1068C123.845 48.3203 124.328 48.4271 124.888 48.4271C125.447 48.4271 125.933 48.3177 126.347 48.0973C126.76 47.8776 127.096 47.5912 127.356 47.238C127.616 46.8849 127.809 46.4812 127.936 46.0281C128.063 45.5755 128.125 45.1156 128.125 44.6489C128.125 44.1693 128.059 43.7063 127.925 43.2599C127.793 42.814 127.589 42.4203 127.316 42.0807C127.043 41.7412 126.703 41.4683 126.297 41.2609C125.891 41.0547 125.415 40.9521 124.868 40.9521C124.308 40.9521 123.825 41.0579 123.419 41.2708C123.012 41.4844 122.676 41.7677 122.409 42.1203C122.143 42.474 121.945 42.874 121.82 43.3203C121.693 43.7672 121.629 44.2229 121.629 44.6896ZM124.848 51.8855C123.768 51.8855 122.789 51.6787 121.909 51.2656C121.029 50.8516 120.277 50.3099 119.651 49.6364C119.025 48.9636 118.537 48.1937 118.192 47.3265C117.845 46.4615 117.672 45.5683 117.672 44.6489C117.672 43.7167 117.852 42.8172 118.212 41.9511C118.572 41.0849 119.075 40.3213 119.721 39.662C120.367 39.0027 121.133 38.476 122.02 38.0833C122.905 37.6901 123.875 37.4932 124.928 37.4932C126.007 37.4932 126.987 37.7 127.865 38.1125C128.745 38.526 129.499 39.0724 130.124 39.7527C130.751 40.4317 131.235 41.2041 131.573 42.0708C131.913 42.9375 132.083 43.8229 132.083 44.7292C132.083 45.662 131.904 46.5579 131.544 47.4183C131.184 48.2771 130.684 49.0364 130.045 49.6953C129.405 50.3552 128.641 50.8855 127.756 51.2855C126.869 51.6849 125.9 51.8855 124.848 51.8855Z" fill="black"/>
<path d="M140.939 44.7891V51.764H137.04V37.5729H140.079L145.776 44.7891V37.5729H149.673V51.764H146.575L140.939 44.7891Z" fill="black"/>
<path d="M166.464 40.9713H162.385V51.764H158.488V40.9713H154.391V37.5729H166.464V40.9713Z" fill="black"/>
<path d="M181.689 44.5495C181.689 43.6839 181.852 42.8303 182.179 41.9912C182.504 41.1511 182.98 40.3984 183.607 39.7317C184.233 39.0656 184.993 38.526 185.885 38.1125C186.779 37.7 187.799 37.4932 188.944 37.4932C190.316 37.4932 191.505 37.7765 192.512 38.3432C193.519 38.9093 194.268 39.6588 194.76 40.5912L191.783 42.7104C191.649 42.364 191.472 42.0776 191.252 41.8511C191.032 41.6245 190.791 41.4448 190.524 41.3109C190.256 41.1776 189.98 41.0849 189.693 41.0312C189.408 40.9787 189.131 40.9521 188.864 40.9521C188.305 40.9521 187.821 41.0609 187.416 41.2812C187.009 41.5005 186.676 41.7875 186.416 42.1407C186.156 42.4932 185.963 42.8937 185.836 43.3401C185.709 43.7864 185.645 44.2297 185.645 44.6693C185.645 45.162 185.719 45.6355 185.865 46.0885C186.013 46.5416 186.227 46.9407 186.505 47.2875C186.785 47.6344 187.129 47.9099 187.535 48.1172C187.941 48.3245 188.397 48.4271 188.905 48.4271C189.171 48.4271 189.444 48.3973 189.724 48.3369C190.004 48.2771 190.273 48.1771 190.533 48.0364C190.793 47.8973 191.027 47.7177 191.233 47.4973C191.44 47.2771 191.603 47.0079 191.723 46.6875L194.901 48.5869C194.688 49.1068 194.364 49.5729 193.931 49.986C193.499 50.3984 193.005 50.7464 192.452 51.0249C191.899 51.3047 191.305 51.5183 190.673 51.6651C190.04 51.8109 189.424 51.8855 188.824 51.8855C187.771 51.8855 186.808 51.6755 185.936 51.2552C185.063 50.836 184.309 50.2787 183.677 49.586C183.044 48.8932 182.555 48.1068 182.208 47.2276C181.861 46.3484 181.689 45.4557 181.689 44.5495Z" fill="black"/>
<path d="M202.536 44.6896C202.536 45.1688 202.603 45.6323 202.737 46.0781C202.869 46.5249 203.069 46.9213 203.336 47.2683C203.603 47.6145 203.939 47.8943 204.345 48.1068C204.751 48.3203 205.235 48.4271 205.795 48.4271C206.355 48.4271 206.84 48.3177 207.253 48.0973C207.667 47.8776 208.003 47.5912 208.263 47.238C208.524 46.8849 208.716 46.4812 208.843 46.0281C208.969 45.5755 209.032 45.1156 209.032 44.6489C209.032 44.1693 208.967 43.7063 208.833 43.2599C208.699 42.814 208.496 42.4203 208.223 42.0807C207.949 41.7412 207.609 41.4683 207.203 41.2609C206.797 41.0547 206.32 40.9521 205.775 40.9521C205.215 40.9521 204.732 41.0579 204.325 41.2708C203.919 41.4844 203.583 41.7677 203.316 42.1203C203.049 42.474 202.853 42.874 202.727 43.3203C202.599 43.7672 202.536 44.2229 202.536 44.6896ZM205.753 51.8855C204.675 51.8855 203.695 51.6787 202.816 51.2656C201.936 50.8516 201.184 50.3099 200.557 49.6364C199.931 48.9636 199.445 48.1937 199.099 47.3265C198.751 46.4615 198.579 45.5683 198.579 44.6489C198.579 43.7167 198.759 42.8172 199.119 41.9511C199.477 41.0849 199.98 40.3213 200.628 39.662C201.273 39.0027 202.039 38.476 202.925 38.0833C203.812 37.6901 204.781 37.4932 205.835 37.4932C206.915 37.4932 207.893 37.7 208.773 38.1125C209.652 38.526 210.405 39.0724 211.031 39.7527C211.657 40.4317 212.14 41.2041 212.48 42.0708C212.82 42.9375 212.989 43.8229 212.989 44.7292C212.989 45.662 212.809 46.5579 212.451 47.4183C212.091 48.2771 211.591 49.0364 210.952 49.6953C210.311 50.3552 209.548 50.8855 208.663 51.2855C207.776 51.6849 206.807 51.8855 205.753 51.8855Z" fill="black"/>
<path d="M228.681 51.764V44.2891L226.303 49.5469H224.224L221.845 44.2891V51.764H217.947V37.5729H222.204L225.263 44.2495L228.341 37.5729H232.58V51.764H228.681Z" fill="black"/>
<path d="M249.048 51.764V44.2891L246.671 49.5469H244.591L242.212 44.2891V51.764H238.315V37.5729H242.573L245.631 44.2495L248.709 37.5729H252.947V51.764H249.048Z" fill="black"/>
<path d="M268.797 48.3672V51.764H258.683V37.5729H268.617V40.9713H262.581V42.9697H267.737V46.1281H262.581V48.3672H268.797Z" fill="black"/>
<path d="M277.811 44.0099H280.269C280.511 44.0099 280.733 43.876 280.94 43.6099C281.145 43.3432 281.249 42.9697 281.249 42.4912C281.249 41.9973 281.129 41.6208 280.889 41.3615C280.649 41.1011 280.411 40.9713 280.171 40.9713H277.811V44.0099ZM273.915 51.764V37.5729H280.429C281.123 37.5729 281.761 37.7167 282.349 38.0031C282.935 38.2896 283.437 38.6631 283.859 39.1224C284.277 39.5817 284.607 40.1088 284.848 40.7021C285.087 41.2943 285.207 41.8907 285.207 42.4912C285.207 43.3172 285.027 44.0864 284.667 44.7989C284.307 45.5125 283.807 46.0959 283.168 46.5479L286.167 51.764H281.769L279.271 47.4079H277.811V51.764H273.915Z" fill="black"/>
<path d="M289.744 44.5495C289.744 43.6839 289.908 42.8303 290.235 41.9912C290.56 41.1511 291.036 40.3984 291.663 39.7317C292.289 39.0656 293.048 38.526 293.941 38.1125C294.835 37.7 295.855 37.4932 297 37.4932C298.372 37.4932 299.561 37.7765 300.568 38.3432C301.575 38.9093 302.323 39.6588 302.816 40.5912L299.839 42.7104C299.704 42.364 299.528 42.0776 299.308 41.8511C299.088 41.6245 298.845 41.4448 298.58 41.3109C298.312 41.1776 298.036 41.0849 297.749 41.0312C297.463 40.9787 297.187 40.9521 296.919 40.9521C296.36 40.9521 295.877 41.0609 295.471 41.2812C295.064 41.5005 294.732 41.7875 294.472 42.1407C294.211 42.4932 294.019 42.8937 293.892 43.3401C293.765 43.7864 293.701 44.2297 293.701 44.6693C293.701 45.162 293.775 45.6355 293.921 46.0885C294.068 46.5416 294.281 46.9407 294.561 47.2875C294.841 47.6344 295.184 47.9099 295.591 48.1172C295.997 48.3245 296.453 48.4271 296.96 48.4271C297.227 48.4271 297.5 48.3973 297.78 48.3369C298.059 48.2771 298.329 48.1771 298.588 48.0364C298.849 47.8973 299.083 47.7177 299.289 47.4973C299.495 47.2771 299.657 47.0079 299.779 46.6875L302.956 48.5869C302.744 49.1068 302.419 49.5729 301.987 49.986C301.553 50.3984 301.061 50.7464 300.508 51.0249C299.955 51.3047 299.361 51.5183 298.729 51.6651C298.096 51.8109 297.479 51.8855 296.88 51.8855C295.827 51.8855 294.864 51.6755 293.992 51.2552C293.119 50.836 292.365 50.2787 291.733 49.586C291.1 48.8932 290.611 48.1068 290.264 47.2276C289.916 46.3484 289.744 45.4557 289.744 44.5495Z" fill="black"/>
<path d="M317.748 48.3672V51.764H307.633V37.5729H317.568V40.9713H311.531V42.9697H316.688V46.1281H311.531V48.3672H317.748Z" fill="black"/>
<path d="M176.749 42.1771L171.317 45.2521V49.4416L176.749 46.3667V42.1771Z" fill="black"/>
</svg>
