<svg width="225" height="89" viewBox="0 0 225 89" fill="none" xmlns="http://www.w3.org/2000/svg">
<g clip-path="url(#clip0_336_7174)">
<path d="M57.447 33.177L76.627 22.12L38.314 0L0.000976562 22.12V66.361L19.2009 77.447L19.1769 55.271L38.311 66.318V44.241L19.179 33.177L38.3129 22.128L57.447 33.177Z" fill="#F2F2F2"/>
<path d="M57.447 55.272L76.627 66.362L38.314 88.482V66.319L57.447 55.272Z" fill="#F2F2F2"/>
<path d="M88.4019 40.997V26.703H98.2018V30.128H92.3228V32.503H97.1188V35.684H92.3268V40.999L88.4019 40.997Z" fill="#F2F2F2"/>
<path d="M103.058 40.997V26.703H109.619C110.288 26.6968 110.949 26.845 111.552 27.136C112.125 27.412 112.641 27.7948 113.072 28.264C113.497 28.7298 113.836 29.2684 114.072 29.854C114.307 30.425 114.43 31.0363 114.434 31.654C114.44 32.4611 114.253 33.258 113.891 33.979C113.541 34.6824 113.022 35.2879 112.381 35.741L115.401 40.995H110.971L108.455 36.607H106.985V40.995L103.058 40.997ZM106.984 33.186H109.46C109.596 33.177 109.728 33.1361 109.845 33.0666C109.962 32.9971 110.061 32.901 110.135 32.786C110.361 32.4555 110.471 32.0589 110.447 31.659C110.475 31.2478 110.345 30.8412 110.085 30.522C109.998 30.4095 109.889 30.3165 109.764 30.2488C109.639 30.1811 109.501 30.1403 109.36 30.129H106.984V33.186Z" fill="#F2F2F2"/>
<path d="M126.23 41.118C125.21 41.1321 124.199 40.919 123.271 40.494C122.414 40.0988 121.641 39.5416 120.996 38.853C120.365 38.1766 119.867 37.388 119.527 36.528C119.18 35.6702 119.002 34.7534 119.003 33.828C119.001 32.8948 119.186 31.9707 119.547 31.11C119.9 30.2504 120.416 29.4674 121.067 28.804C121.73 28.1311 122.516 27.5913 123.382 27.214C124.305 26.8115 125.304 26.609 126.311 26.62C127.332 26.6058 128.343 26.819 129.271 27.244C130.129 27.6406 130.902 28.2015 131.545 28.895C132.173 29.5753 132.668 30.3673 133.005 31.23C133.343 32.0824 133.517 32.991 133.518 33.908C133.52 34.8379 133.335 35.7587 132.975 36.616C132.252 38.3571 130.886 39.7523 129.16 40.511C128.238 40.921 127.239 41.128 126.23 41.118ZM122.989 33.871C122.987 34.3449 123.054 34.8166 123.189 35.271C123.313 35.7047 123.516 36.1116 123.789 36.471C124.061 36.8238 124.408 37.1123 124.805 37.316C125.264 37.5298 125.764 37.6397 126.271 37.638C126.777 37.6363 127.277 37.5229 127.734 37.306C128.134 37.0983 128.482 36.8025 128.751 36.441C129.018 36.0736 129.216 35.6605 129.335 35.222C129.462 34.7702 129.526 34.3032 129.526 33.834C129.528 33.3601 129.46 32.8884 129.326 32.434C129.2 32.0018 128.992 31.5983 128.712 31.246C128.433 30.9007 128.082 30.6194 127.685 30.421C127.237 30.2042 126.743 30.0972 126.245 30.109C125.74 30.0958 125.239 30.2063 124.786 30.431C124.387 30.6367 124.04 30.9292 123.769 31.287C123.498 31.6492 123.296 32.0589 123.175 32.495C123.05 32.9429 122.987 33.406 122.989 33.871Z" fill="#F2F2F2"/>
<path d="M142.437 33.971V40.997H138.511V26.703H141.571L147.309 33.971V26.703H151.235V40.997H148.114L142.437 33.971Z" fill="#F2F2F2"/>
<path d="M168.146 30.128H164.039V40.999H160.113V30.128H155.986V26.705H168.146V30.128Z" fill="#F2F2F2"/>
<path d="M178.505 31.341L173.035 34.441V38.66L178.505 35.56V31.341Z" fill="#F2F2F2"/>
<path d="M87.4658 57.928C87.4737 56.1242 88.1644 54.3902 89.3989 53.075C90.0518 52.389 90.8311 51.8355 91.6938 51.445C92.7565 50.9972 93.9038 50.7859 95.0563 50.8257C96.2087 50.8656 97.3387 51.1557 98.3679 51.676C99.3278 52.1936 100.115 52.981 100.633 53.941L97.6328 56.075C97.5157 55.7535 97.3344 55.4592 97.0999 55.21C96.8872 54.9886 96.6387 54.8047 96.3648 54.666C96.1006 54.5335 95.8193 54.4386 95.5288 54.384C95.2535 54.332 94.974 54.3052 94.6938 54.304C94.2161 54.2875 93.7415 54.3882 93.3116 54.5974C92.8818 54.8066 92.5097 55.1178 92.2278 55.504C91.9616 55.8676 91.7637 56.2766 91.6439 56.711C91.5183 57.1463 91.454 57.5969 91.4528 58.05C91.4507 58.5353 91.5253 59.0179 91.6738 59.48C91.8129 59.9186 92.0312 60.328 92.3178 60.688C92.6001 61.0369 92.9537 61.3216 93.3549 61.523C93.7829 61.7358 94.2558 61.8428 94.7338 61.835C95.0116 61.834 95.2884 61.8039 95.5598 61.745C95.8444 61.6843 96.1188 61.5833 96.3748 61.445C96.6377 61.3034 96.8758 61.12 97.0798 60.902C97.2968 60.6655 97.4644 60.3881 97.5728 60.086L100.773 61.999C100.551 62.5331 100.218 63.0138 99.7958 63.409C99.3537 63.8291 98.852 64.1815 98.3068 64.455C97.7376 64.7413 97.1359 64.9578 96.5148 65.1C95.9045 65.2439 95.2799 65.3181 94.6528 65.321C93.6476 65.3333 92.6528 65.1165 91.7438 64.687C90.884 64.279 90.1114 63.7081 89.4688 63.006C88.8334 62.3119 88.3317 61.5063 87.9888 60.63C87.6448 59.7706 87.4673 58.8537 87.4658 57.928Z" fill="#F2F2F2"/>
<path d="M111.706 65.321C110.685 65.3351 109.674 65.122 108.746 64.697C107.889 64.3015 107.117 63.7444 106.471 63.056C105.841 62.379 105.343 61.5905 105.002 60.731C104.655 59.873 104.478 58.9563 104.478 58.031C104.477 57.0978 104.662 56.1737 105.022 55.313C105.376 54.4557 105.892 53.6747 106.542 53.013C107.205 52.3403 107.991 51.8006 108.857 51.423C109.781 51.0207 110.779 50.8182 111.786 50.829C112.807 50.8148 113.818 51.028 114.746 51.453C115.605 51.8493 116.378 52.4102 117.021 53.104C117.649 53.7844 118.144 54.5764 118.48 55.439C118.819 56.2912 118.993 57.1999 118.994 58.117C118.996 59.047 118.811 59.9679 118.45 60.825C118.096 61.6779 117.583 62.4563 116.94 63.119C116.282 63.7934 115.501 64.3364 114.64 64.719C113.717 65.1279 112.716 65.3332 111.706 65.321ZM108.465 58.073C108.463 58.5469 108.53 59.0186 108.665 59.473C108.789 59.9065 108.993 60.3134 109.265 60.673C109.538 61.0255 109.885 61.314 110.281 61.518C110.74 61.7317 111.241 61.8416 111.747 61.8399C112.254 61.8382 112.753 61.7248 113.211 61.508C113.611 61.3005 113.959 61.0043 114.227 60.642C114.495 60.2752 114.693 59.8624 114.811 59.424C114.938 58.972 115.002 58.5046 115.002 58.035C115.004 57.5611 114.936 57.0895 114.802 56.635C114.677 56.2027 114.468 55.7991 114.188 55.447C113.909 55.1016 113.559 54.8202 113.161 54.622C112.713 54.4053 112.22 54.2983 111.722 54.31C111.216 54.2966 110.715 54.4071 110.262 54.632C109.863 54.8374 109.516 55.13 109.246 55.488C108.974 55.8494 108.772 56.2589 108.652 56.695C108.526 57.1434 108.463 57.6072 108.465 58.073Z" fill="#F2F2F2"/>
<path d="M134.798 65.2V57.671L132.398 62.971H130.304L127.904 57.671V65.2H123.978V50.906H128.267L131.347 57.631L134.447 50.906H138.719V65.2H134.798Z" fill="#F2F2F2"/>
<path d="M155.312 65.2V57.671L152.912 62.971H150.819L148.419 57.671V65.2H144.493V50.906H148.781L151.861 57.631L154.961 50.906H159.229V65.2H155.312Z" fill="#F2F2F2"/>
<path d="M175.202 61.778V65.2H165.019V50.906H175.019V54.328H168.939V56.341H174.139V59.528H168.939V61.783L175.202 61.778Z" fill="#F2F2F2"/>
<path d="M180.356 65.1999V50.9059H186.919C187.588 50.8998 188.249 51.0479 188.852 51.3389C189.425 51.6155 189.941 51.9979 190.372 52.466C190.798 52.9322 191.137 53.4711 191.372 54.057C191.608 54.6279 191.731 55.2392 191.734 55.857C191.74 56.6642 191.554 57.4612 191.19 58.182C190.84 58.8854 190.322 59.4909 189.68 59.944L192.7 65.198H188.271L185.755 60.8089H184.285V65.198L180.356 65.1999ZM184.282 57.389H186.758C186.894 57.3798 187.026 57.3388 187.143 57.2694C187.26 57.1999 187.36 57.1038 187.433 56.9889C187.66 56.6585 187.769 56.2619 187.745 55.862C187.773 55.4502 187.643 55.0432 187.382 54.724C187.295 54.6115 187.186 54.5185 187.062 54.451C186.937 54.3835 186.799 54.3429 186.658 54.332H184.282V57.389Z" fill="#F2F2F2"/>
<path d="M196.301 57.928C196.308 56.1242 196.998 54.39 198.233 53.075C198.886 52.389 199.665 51.8355 200.528 51.445C201.59 50.9972 202.738 50.7859 203.89 50.8257C205.043 50.8656 206.173 51.1557 207.202 51.676C208.162 52.1931 208.95 52.9806 209.467 53.941L206.467 56.075C206.349 55.7536 206.167 55.4594 205.933 55.21C205.721 54.9882 205.472 54.8042 205.198 54.666C204.934 54.5336 204.653 54.4387 204.363 54.384C204.087 54.3321 203.807 54.3053 203.527 54.304C203.049 54.2875 202.574 54.3882 202.145 54.5974C201.715 54.8066 201.343 55.1178 201.061 55.504C200.795 55.8678 200.597 56.2767 200.477 56.711C200.352 57.1464 200.287 57.597 200.286 58.05C200.284 58.5353 200.359 59.0178 200.507 59.48C200.646 59.9188 200.864 60.3283 201.152 60.688C201.434 61.0371 201.787 61.3219 202.188 61.523C202.616 61.7357 203.089 61.8427 203.567 61.835C203.845 61.834 204.121 61.8038 204.393 61.745C204.677 61.6843 204.952 61.5833 205.208 61.445C205.469 61.303 205.705 61.1196 205.908 60.902C206.125 60.6655 206.292 60.3881 206.401 60.086L209.601 61.999C209.379 62.5329 209.046 63.0135 208.625 63.409C208.182 63.8289 207.68 64.1813 207.135 64.455C206.566 64.7414 205.964 64.958 205.343 65.1C204.732 65.244 204.108 65.3181 203.481 65.321C202.476 65.3333 201.481 65.1165 200.572 64.687C199.712 64.2789 198.939 63.7081 198.297 63.006C197.661 62.3119 197.16 61.5064 196.817 60.63C196.475 59.7702 196.3 58.8532 196.301 57.928Z" fill="#F2F2F2"/>
<path d="M224.506 61.778V65.2H214.319V50.906H224.325V54.328H218.245V56.341H223.439V59.528H218.245V61.783L224.506 61.778Z" fill="#F2F2F2"/>
</g>
<defs>
<clipPath id="clip0_336_7174">
<rect width="224.506" height="88.481" fill="white"/>
</clipPath>
</defs>
</svg>
