<svg width="225" height="90" viewBox="0 0 225 90" fill="none" xmlns="http://www.w3.org/2000/svg">
<g clip-path="url(#clip0_336_7277)">
<path d="M57.447 34.139L76.627 23.082L38.314 0.962036L0.000976562 23.082V67.323L19.2009 78.409L19.1769 56.233L38.311 67.28V45.203L19.179 34.139L38.3129 23.09L57.447 34.139Z" fill="#333333"/>
<path d="M57.447 56.234L76.627 67.324L38.314 89.444V67.281L57.447 56.234Z" fill="#333333"/>
<path d="M88.4019 41.959V27.665H98.2018V31.09H92.3228V33.465H97.1188V36.646H92.3268V41.961L88.4019 41.959Z" fill="#333333"/>
<path d="M103.058 41.959V27.665H109.619C110.288 27.6589 110.949 27.807 111.552 28.098C112.125 28.3741 112.641 28.7569 113.072 29.226C113.497 29.6919 113.836 30.2304 114.072 30.816C114.307 31.3871 114.43 31.9983 114.434 32.616C114.44 33.4231 114.253 34.2201 113.891 34.941C113.541 35.6444 113.022 36.2499 112.381 36.703L115.401 41.957H110.971L108.455 37.569H106.985V41.957L103.058 41.959ZM106.984 34.148H109.46C109.596 34.139 109.728 34.0982 109.845 34.0287C109.962 33.9592 110.061 33.863 110.135 33.748C110.361 33.4176 110.471 33.021 110.447 32.621C110.475 32.2098 110.345 31.8032 110.085 31.484C109.998 31.3716 109.889 31.2785 109.764 31.2108C109.639 31.1431 109.501 31.1023 109.36 31.091H106.984V34.148Z" fill="#333333"/>
<path d="M126.23 42.08C125.21 42.0942 124.199 41.881 123.271 41.456C122.414 41.0608 121.641 40.5036 120.996 39.815C120.365 39.1386 119.867 38.35 119.527 37.49C119.18 36.6322 119.002 35.7154 119.003 34.79C119.001 33.8568 119.186 32.9327 119.547 32.072C119.9 31.2125 120.416 30.4294 121.067 29.766C121.73 29.0931 122.516 28.5534 123.382 28.176C124.305 27.7735 125.304 27.5711 126.311 27.582C127.332 27.5678 128.343 27.781 129.271 28.206C130.129 28.6026 130.902 29.1635 131.545 29.857C132.173 30.5373 132.668 31.3293 133.005 32.192C133.343 33.0444 133.517 33.953 133.518 34.87C133.52 35.7999 133.335 36.7208 132.975 37.578C132.252 39.3191 130.886 40.7143 129.16 41.473C128.238 41.883 127.239 42.09 126.23 42.08ZM122.989 34.833C122.987 35.307 123.054 35.7787 123.189 36.233C123.313 36.6667 123.516 37.0736 123.789 37.433C124.061 37.7858 124.408 38.0743 124.805 38.278C125.264 38.4918 125.764 38.6018 126.271 38.6C126.777 38.5983 127.277 38.4849 127.734 38.268C128.134 38.0603 128.482 37.7645 128.751 37.403C129.018 37.0356 129.216 36.6225 129.335 36.184C129.462 35.7322 129.526 35.2652 129.526 34.796C129.528 34.3221 129.46 33.8505 129.326 33.396C129.2 32.9638 128.992 32.5603 128.712 32.208C128.433 31.8628 128.082 31.5814 127.685 31.383C127.237 31.1662 126.743 31.0593 126.245 31.071C125.74 31.0578 125.239 31.1683 124.786 31.393C124.387 31.5987 124.04 31.8912 123.769 32.249C123.498 32.6112 123.296 33.0209 123.175 33.457C123.05 33.9049 122.987 34.368 122.989 34.833Z" fill="#333333"/>
<path d="M142.437 34.933V41.959H138.511V27.665H141.571L147.309 34.933V27.665H151.235V41.959H148.114L142.437 34.933Z" fill="#333333"/>
<path d="M168.146 31.09H164.039V41.961H160.113V31.09H155.986V27.667H168.146V31.09Z" fill="#333333"/>
<path d="M178.505 32.303L173.035 35.403V39.622L178.505 36.522V32.303Z" fill="#333333"/>
<path d="M87.4658 58.89C87.4737 57.0862 88.1644 55.3523 89.3989 54.037C90.0518 53.351 90.8311 52.7976 91.6938 52.407C92.7565 51.9592 93.9038 51.7479 95.0563 51.7878C96.2087 51.8277 97.3387 52.1178 98.3679 52.638C99.3278 53.1557 100.115 53.9431 100.633 54.903L97.6328 57.037C97.5157 56.7155 97.3344 56.4212 97.0999 56.172C96.8872 55.9506 96.6387 55.7667 96.3648 55.628C96.1006 55.4955 95.8193 55.4006 95.5288 55.346C95.2535 55.2941 94.974 55.2673 94.6938 55.266C94.2161 55.2495 93.7415 55.3503 93.3116 55.5595C92.8818 55.7686 92.5097 56.0799 92.2278 56.466C91.9616 56.8296 91.7637 57.2386 91.6439 57.673C91.5183 58.1083 91.454 58.559 91.4528 59.012C91.4507 59.4973 91.5253 59.98 91.6738 60.442C91.8129 60.8806 92.0312 61.2901 92.3178 61.65C92.6001 61.9989 92.9537 62.2836 93.3549 62.485C93.7829 62.6979 94.2558 62.8049 94.7338 62.797C95.0116 62.7961 95.2884 62.7659 95.5598 62.707C95.8444 62.6463 96.1188 62.5453 96.3748 62.407C96.6377 62.2655 96.8758 62.0821 97.0798 61.864C97.2968 61.6275 97.4644 61.3501 97.5728 61.048L100.773 62.961C100.551 63.4952 100.218 63.9759 99.7958 64.371C99.3537 64.7911 98.852 65.1436 98.3068 65.417C97.7376 65.7033 97.1359 65.9199 96.5148 66.062C95.9045 66.206 95.2799 66.2801 94.6528 66.283C93.6476 66.2954 92.6528 66.0786 91.7438 65.649C90.884 65.241 90.1114 64.6701 89.4688 63.968C88.8334 63.2739 88.3317 62.4684 87.9888 61.592C87.6448 60.7327 87.4673 59.8157 87.4658 58.89Z" fill="#333333"/>
<path d="M111.706 66.283C110.685 66.2972 109.674 66.084 108.746 65.659C107.889 65.2636 107.117 64.7064 106.471 64.018C105.841 63.341 105.343 62.5525 105.002 61.693C104.655 60.835 104.478 59.9183 104.478 58.993C104.477 58.0598 104.662 57.1358 105.022 56.275C105.376 55.4177 105.892 54.6368 106.542 53.975C107.205 53.3023 107.991 52.7626 108.857 52.385C109.781 51.9827 110.779 51.7803 111.786 51.791C112.807 51.7768 113.818 51.99 114.746 52.415C115.605 52.8113 116.378 53.3722 117.021 54.066C117.649 54.7464 118.144 55.5384 118.48 56.401C118.819 57.2532 118.993 58.1619 118.994 59.079C118.996 60.009 118.811 60.9299 118.45 61.787C118.096 62.64 117.583 63.4183 116.94 64.081C116.282 64.7554 115.501 65.2984 114.64 65.681C113.717 66.0899 112.716 66.2952 111.706 66.283ZM108.465 59.035C108.463 59.509 108.53 59.9807 108.665 60.435C108.789 60.8686 108.993 61.2754 109.265 61.635C109.538 61.9876 109.885 62.276 110.281 62.48C110.74 62.6938 111.241 62.8036 111.747 62.8019C112.254 62.8002 112.753 62.6869 113.211 62.47C113.611 62.2625 113.959 61.9663 114.227 61.604C114.495 61.2373 114.693 60.8244 114.811 60.386C114.938 59.934 115.002 59.4666 115.002 58.997C115.004 58.5231 114.936 58.0515 114.802 57.597C114.677 57.1648 114.468 56.7612 114.188 56.409C113.909 56.0636 113.559 55.7823 113.161 55.584C112.713 55.3673 112.22 55.2604 111.722 55.272C111.216 55.2586 110.715 55.3692 110.262 55.594C109.863 55.7994 109.516 56.092 109.246 56.45C108.974 56.8115 108.772 57.2209 108.652 57.657C108.526 58.1054 108.463 58.5692 108.465 59.035Z" fill="#333333"/>
<path d="M134.798 66.162V58.633L132.398 63.9331H130.304L127.904 58.633V66.162H123.978V51.868H128.267L131.347 58.5931L134.447 51.868H138.719V66.162H134.798Z" fill="#333333"/>
<path d="M155.312 66.162V58.633L152.912 63.9331H150.819L148.419 58.633V66.162H144.493V51.868H148.781L151.861 58.5931L154.961 51.868H159.229V66.162H155.312Z" fill="#333333"/>
<path d="M175.202 62.74V66.162H165.019V51.868H175.019V55.2901H168.939V57.3031H174.139V60.49H168.939V62.745L175.202 62.74Z" fill="#333333"/>
<path d="M180.356 66.162V51.868H186.919C187.588 51.8618 188.249 52.01 188.852 52.301C189.425 52.5775 189.941 52.9599 190.372 53.428C190.798 53.8942 191.137 54.4331 191.372 55.019C191.608 55.59 191.731 56.2012 191.734 56.819C191.74 57.6262 191.554 58.4233 191.19 59.144C190.84 59.8474 190.322 60.4529 189.68 60.906L192.7 66.16H188.271L185.755 61.771H184.285V66.16L180.356 66.162ZM184.282 58.351H186.758C186.894 58.3419 187.026 58.3009 187.143 58.2314C187.26 58.1619 187.36 58.0659 187.433 57.951C187.66 57.6205 187.769 57.2239 187.745 56.824C187.773 56.4123 187.643 56.0052 187.382 55.686C187.295 55.5736 187.186 55.4806 187.062 55.413C186.937 55.3455 186.799 55.3049 186.658 55.294H184.282V58.351Z" fill="#333333"/>
<path d="M196.301 58.89C196.308 57.0862 196.998 55.352 198.233 54.037C198.886 53.351 199.665 52.7976 200.528 52.407C201.59 51.9592 202.738 51.7479 203.89 51.7878C205.043 51.8277 206.173 52.1178 207.202 52.638C208.162 53.1551 208.95 53.9427 209.467 54.903L206.467 57.037C206.349 56.7156 206.167 56.4214 205.933 56.172C205.721 55.9502 205.472 55.7662 205.198 55.628C204.934 55.4957 204.653 55.4008 204.363 55.346C204.087 55.2941 203.807 55.2673 203.527 55.266C203.049 55.2495 202.574 55.3503 202.145 55.5595C201.715 55.7686 201.343 56.0799 201.061 56.466C200.795 56.8299 200.597 57.2388 200.477 57.673C200.352 58.1084 200.287 58.559 200.286 59.012C200.284 59.4973 200.359 59.9799 200.507 60.442C200.646 60.8809 200.864 61.2904 201.152 61.65C201.434 61.9992 201.787 62.2839 202.188 62.485C202.616 62.6978 203.089 62.8047 203.567 62.797C203.845 62.796 204.121 62.7659 204.393 62.707C204.677 62.6463 204.952 62.5453 205.208 62.407C205.469 62.265 205.705 62.0816 205.908 61.864C206.125 61.6275 206.292 61.3501 206.401 61.048L209.601 62.961C209.379 63.4949 209.046 63.9755 208.625 64.371C208.182 64.7909 207.68 65.1433 207.135 65.417C206.566 65.7035 205.964 65.9201 205.343 66.062C204.732 66.206 204.108 66.2801 203.481 66.283C202.476 66.2954 201.481 66.0786 200.572 65.649C199.712 65.241 198.939 64.6701 198.297 63.968C197.661 63.2739 197.16 62.4684 196.817 61.592C196.475 60.7322 196.3 59.8153 196.301 58.89Z" fill="#333333"/>
<path d="M224.506 62.74V66.162H214.319V51.868H224.325V55.2901H218.245V57.3031H223.439V60.49H218.245V62.745L224.506 62.74Z" fill="#333333"/>
</g>
<defs>
<clipPath id="clip0_336_7277">
<rect width="224.506" height="88.481" fill="white" transform="translate(0 0.962036)"/>
</clipPath>
</defs>
</svg>
