<svg width="1em" height="1em" viewBox="0 0 225 89" fill="none" xmlns="http://www.w3.org/2000/svg">
  <g clip-path="url(#clip0_306_7162)">
    <path
      d="M57.447 33.177L76.627 22.12L38.314 0L0.0010376 22.12V66.361L19.201 77.447L19.177 55.271L38.311 66.318V44.241L19.179 33.177L38.313 22.128L57.447 33.177Z"
      fill="#000000" />
    <path d="M57.447 55.272L76.627 66.362L38.314 88.482V66.319L57.447 55.272Z" fill="#000000" />
    <path d="M88.402 40.997V26.703H98.202V30.128H92.323V32.503H97.119V35.684H92.327V40.999L88.402 40.997Z"
      fill="#000000" />
    <path
      d="M103.058 40.997V26.703H109.619C110.288 26.6968 110.95 26.845 111.552 27.136C112.126 27.412 112.642 27.7948 113.072 28.264C113.498 28.7298 113.837 29.2684 114.072 29.854C114.308 30.425 114.431 31.0363 114.434 31.654C114.44 32.4611 114.254 33.258 113.891 33.979C113.541 34.6824 113.023 35.2879 112.381 35.741L115.401 40.995H110.971L108.455 36.607H106.985V40.995L103.058 40.997ZM106.984 33.186H109.46C109.596 33.177 109.728 33.1361 109.845 33.0666C109.963 32.9971 110.062 32.901 110.135 32.786C110.362 32.4555 110.471 32.0589 110.447 31.659C110.475 31.2478 110.346 30.8412 110.085 30.522C109.998 30.4095 109.889 30.3165 109.764 30.2488C109.639 30.1811 109.502 30.1403 109.36 30.129H106.984V33.186Z"
      fill="#000000" />
    <path
      d="M126.23 41.118C125.21 41.1322 124.199 40.919 123.271 40.494C122.414 40.0988 121.641 39.5416 120.996 38.853C120.365 38.1766 119.867 37.388 119.527 36.528C119.18 35.6702 119.002 34.7534 119.003 33.828C119.001 32.8948 119.186 31.9707 119.547 31.11C119.9 30.2505 120.416 29.4674 121.067 28.804C121.73 28.1311 122.516 27.5914 123.382 27.214C124.305 26.8115 125.304 26.609 126.311 26.62C127.332 26.6058 128.343 26.819 129.271 27.244C130.13 27.6406 130.902 28.2015 131.545 28.895C132.173 29.5753 132.669 30.3673 133.005 31.23C133.343 32.0824 133.517 32.991 133.518 33.908C133.52 34.8379 133.335 35.7587 132.975 36.616C132.252 38.3571 130.886 39.7523 129.16 40.511C128.238 40.921 127.239 41.128 126.23 41.118V41.118ZM122.989 33.871C122.987 34.345 123.054 34.8166 123.189 35.271C123.313 35.7047 123.516 36.1116 123.789 36.471C124.062 36.8238 124.408 37.1123 124.805 37.316C125.264 37.5298 125.764 37.6397 126.271 37.638C126.777 37.6363 127.277 37.5229 127.734 37.306C128.134 37.0983 128.482 36.8025 128.751 36.441C129.018 36.0736 129.216 35.6605 129.335 35.222C129.462 34.7702 129.526 34.3032 129.526 33.834C129.528 33.3601 129.46 32.8885 129.326 32.434C129.201 32.0018 128.992 31.5983 128.712 31.246C128.433 30.9007 128.082 30.6194 127.685 30.421C127.237 30.2042 126.743 30.0972 126.245 30.109C125.74 30.0958 125.239 30.2063 124.786 30.431C124.387 30.6367 124.04 30.9292 123.769 31.287C123.498 31.6492 123.296 32.0589 123.175 32.495C123.05 32.9429 122.987 33.406 122.989 33.871V33.871Z"
      fill="#000000" />
    <path d="M142.437 33.971V40.997H138.511V26.703H141.571L147.309 33.971V26.703H151.235V40.997H148.114L142.437 33.971Z"
      fill="#000000" />
    <path d="M168.146 30.128H164.039V40.999H160.113V30.128H155.986V26.705H168.146V30.128Z" fill="#000000" />
    <path d="M178.505 31.341L173.035 34.441V38.66L178.505 35.56V31.341Z" fill="#000000" />
    <path
      d="M87.466 57.928C87.4739 56.1242 88.1646 54.3902 89.399 53.075C90.052 52.389 90.8312 51.8356 91.694 51.445C92.7567 50.9972 93.904 50.7859 95.0565 50.8258C96.2089 50.8656 97.3389 51.1558 98.368 51.676C99.328 52.1936 100.115 52.981 100.633 53.941L97.633 56.075C97.5158 55.7535 97.3345 55.4592 97.1 55.21C96.8874 54.9886 96.6389 54.8047 96.365 54.666C96.1008 54.5335 95.8194 54.4386 95.529 54.384C95.2537 54.3321 94.9742 54.3053 94.694 54.304C94.2163 54.2875 93.7417 54.3883 93.3118 54.5974C92.882 54.8066 92.5099 55.1179 92.228 55.504C91.9618 55.8676 91.7639 56.2766 91.644 56.711C91.5185 57.1463 91.4542 57.5969 91.453 58.05C91.4509 58.5353 91.5255 59.018 91.674 59.48C91.8131 59.9186 92.0313 60.328 92.318 60.688C92.6003 61.0369 92.9539 61.3216 93.355 61.523C93.7831 61.7359 94.256 61.8428 94.734 61.835C95.0117 61.834 95.2886 61.8039 95.56 61.745C95.8446 61.6843 96.119 61.5833 96.375 61.445C96.6379 61.3034 96.876 61.12 97.08 60.902C97.297 60.6655 97.4646 60.3881 97.573 60.086L100.773 61.999C100.551 62.5331 100.218 63.0138 99.796 63.409C99.3539 63.8291 98.8521 64.1815 98.307 64.455C97.7378 64.7413 97.1361 64.9579 96.515 65.1C95.9047 65.244 95.28 65.3181 94.653 65.321C93.6478 65.3333 92.6529 65.1165 91.744 64.687C90.8842 64.279 90.1116 63.7081 89.469 63.006C88.8336 62.3119 88.3319 61.5064 87.989 60.63C87.6449 59.7706 87.4674 58.8537 87.466 57.928Z"
      fill="#000000" />
    <path
      d="M111.706 65.321C110.685 65.3352 109.674 65.122 108.746 64.697C107.889 64.3016 107.117 63.7444 106.471 63.056C105.841 62.379 105.343 61.5905 105.002 60.731C104.655 59.873 104.478 58.9563 104.478 58.031C104.477 57.0978 104.662 56.1738 105.022 55.313C105.376 54.4557 105.892 53.6748 106.542 53.013C107.205 52.3403 107.991 51.8006 108.857 51.423C109.781 51.0207 110.779 50.8183 111.786 50.829C112.807 50.8148 113.818 51.028 114.746 51.453C115.605 51.8493 116.378 52.4102 117.021 53.104C117.649 53.7844 118.144 54.5764 118.48 55.439C118.819 56.2912 118.993 57.1999 118.994 58.117C118.996 59.047 118.811 59.9679 118.45 60.825C118.096 61.678 117.583 62.4563 116.94 63.119C116.282 63.7934 115.501 64.3364 114.64 64.719C113.717 65.1279 112.716 65.3332 111.706 65.321V65.321ZM108.465 58.073C108.463 58.547 108.53 59.0187 108.665 59.473C108.789 59.9066 108.993 60.3134 109.265 60.673C109.538 61.0256 109.885 61.314 110.281 61.518C110.74 61.7317 111.241 61.8416 111.747 61.8399C112.254 61.8382 112.753 61.7249 113.211 61.508C113.611 61.3005 113.959 61.0043 114.227 60.642C114.495 60.2753 114.693 59.8624 114.811 59.424C114.938 58.972 115.002 58.5046 115.002 58.035C115.004 57.5611 114.936 57.0895 114.802 56.635C114.677 56.2028 114.468 55.7992 114.188 55.447C113.909 55.1016 113.559 54.8203 113.161 54.622C112.713 54.4053 112.22 54.2984 111.722 54.31C111.216 54.2966 110.715 54.4072 110.262 54.632C109.863 54.8374 109.516 55.13 109.246 55.488C108.974 55.8495 108.772 56.2589 108.652 56.695C108.526 57.1434 108.463 57.6072 108.465 58.073Z"
      fill="#000000" />
    <path
      d="M134.798 65.2V57.671L132.398 62.971H130.304L127.904 57.671V65.2H123.978V50.906H128.267L131.347 57.631L134.447 50.906H138.719V65.2H134.798Z"
      fill="#000000" />
    <path
      d="M155.312 65.2V57.671L152.912 62.971H150.819L148.419 57.671V65.2H144.493V50.906H148.781L151.861 57.631L154.961 50.906H159.229V65.2H155.312Z"
      fill="#000000" />
    <path
      d="M175.202 61.778V65.2H165.019V50.906H175.019V54.328H168.939V56.341H174.139V59.528H168.939V61.783L175.202 61.778Z"
      fill="#000000" />
    <path
      d="M180.356 65.2V50.906H186.919C187.588 50.8998 188.25 51.048 188.852 51.339C189.425 51.6155 189.941 51.9979 190.372 52.466C190.798 52.9322 191.137 53.4711 191.372 54.057C191.608 54.628 191.731 55.2392 191.734 55.857C191.74 56.6642 191.554 57.4613 191.19 58.182C190.841 58.8854 190.322 59.4909 189.68 59.944L192.7 65.198H188.271L185.755 60.809H184.285V65.198L180.356 65.2ZM184.282 57.389H186.758C186.894 57.3799 187.026 57.3389 187.143 57.2694C187.26 57.1999 187.36 57.1039 187.433 56.989C187.66 56.6585 187.769 56.2619 187.745 55.862C187.773 55.4503 187.644 55.0432 187.382 54.724C187.296 54.6116 187.186 54.5186 187.062 54.4511C186.937 54.3835 186.799 54.343 186.658 54.332H184.282V57.389Z"
      fill="#000000" />
    <path
      d="M196.301 57.928C196.308 56.1242 196.998 54.39 198.233 53.075C198.886 52.389 199.665 51.8356 200.528 51.445C201.591 50.9972 202.738 50.7859 203.89 50.8258C205.043 50.8656 206.173 51.1558 207.202 51.676C208.162 52.1931 208.95 52.9807 209.467 53.941L206.467 56.075C206.349 55.7536 206.168 55.4594 205.933 55.21C205.721 54.9882 205.472 54.8042 205.198 54.666C204.934 54.5336 204.653 54.4387 204.363 54.384C204.087 54.3321 203.808 54.3053 203.527 54.304C203.049 54.2875 202.575 54.3883 202.145 54.5974C201.715 54.8066 201.343 55.1179 201.061 55.504C200.795 55.8679 200.597 56.2768 200.477 56.711C200.352 57.1464 200.288 57.597 200.286 58.05C200.284 58.5353 200.359 59.0178 200.507 59.48C200.646 59.9189 200.865 60.3283 201.152 60.688C201.434 61.0371 201.787 61.3219 202.188 61.523C202.616 61.7358 203.089 61.8427 203.567 61.835C203.845 61.834 204.122 61.8039 204.393 61.745C204.678 61.6843 204.952 61.5833 205.208 61.445C205.469 61.303 205.706 61.1196 205.908 60.902C206.125 60.6655 206.293 60.3881 206.401 60.086L209.601 61.999C209.379 62.5329 209.047 63.0135 208.625 63.409C208.182 63.8289 207.68 64.1813 207.135 64.455C206.566 64.7415 205.964 64.9581 205.343 65.1C204.733 65.244 204.108 65.3181 203.481 65.321C202.476 65.3333 201.481 65.1165 200.572 64.687C199.712 64.279 198.94 63.7081 198.297 63.006C197.662 62.3119 197.16 61.5064 196.817 60.63C196.475 59.7702 196.3 58.8532 196.301 57.928V57.928Z"
      fill="#000000" />
    <path
      d="M224.506 61.778V65.2H214.319V50.906H224.325V54.328H218.245V56.341H223.439V59.528H218.245V61.783L224.506 61.778Z"
      fill="#000000" />
  </g>
  <defs>
    <clipPath id="clip0_306_7162">
      <rect width="224.506" height="88.481" fill="white" />
    </clipPath>
  </defs>
</svg>