<?xml version="1.0" encoding="UTF-8"?>
<svg width="1920px" height="1080px" viewBox="0 0 1920 1080" version="1.1" xmlns="http://www.w3.org/2000/svg" xmlns:xlink="http://www.w3.org/1999/xlink" style="background: #FFFFFF;">
    <!-- Generator: Sketch 49.1 (51147) - http://www.bohemiancoding.com/sketch -->
    <title>Schema 1 - Inside FC</title>
    <desc>Created with Sketch.</desc>
    <defs></defs>
    <g id="Schema-1---Inside-FC" stroke="none" stroke-width="1" fill="none" fill-rule="evenodd">
        <g id="Group-2" transform="translate(64.000000, 0.000000)">
            <rect id="Rectangle" fill="#F1F2F3" x="975" y="0" width="523" height="1080"></rect>
            <path d="M976.5,96.5 L976.5,985" id="Line" stroke="#F1F2F3" stroke-width="2" stroke-linecap="square"></path>
            <path d="M635,48 L635,1032" id="Line-Copy-2" stroke="#F1F2F3" stroke-width="2" stroke-linecap="square"></path>
            <path d="M1495.5,96.5 L1495.5,985" id="Line-Copy" stroke="#F1F2F3" stroke-width="2" stroke-linecap="square"></path>
            <text id="Web-browser" font-family="RobotoCondensed-Bold, Roboto Condensed" font-size="36" font-style="condensed" font-weight="bold" fill="#001B24">
                <tspan x="715" y="102">Web browser</tspan>
            </text>
            <text id="Node-JS-Server-(Expr" font-family="RobotoCondensed-Bold, Roboto Condensed" font-size="36" font-style="condensed" font-weight="bold" fill="#001B24">
                <tspan x="1057" y="102">Node JS Server (Express)</tspan>
            </text>
            <text id="FRONT-COMMERCE-What’" font-family="RobotoCondensed-Bold, Roboto Condensed" font-size="48" font-style="condensed" font-weight="bold" fill="#333333">
                <tspan x="0" y="106">FRONT-COMMERCE</tspan>
                <tspan x="0" y="169" font-family="RobotoCondensed-Light, Roboto Condensed" font-weight="300">What’s inside ?</tspan>
            </text>
            <g id="Group-3" transform="translate(705.000000, 400.000000)">
                <circle id="Oval" fill="#4A6BDD" cx="100" cy="100" r="100"></circle>
                <text id="React-APP" font-family="RobotoCondensed-Bold, Roboto Condensed" font-size="40" font-style="condensed" font-weight="bold" fill="#FFFFFF">
                    <tspan x="56.5585938" y="92">React</tspan>
                    <tspan x="67.8085938" y="145">APP</tspan>
                </text>
            </g>
            <path d="M1120.50725,840.144202 C1136.15211,799.964558 1161.83769,766.16724 1193.1274,744.264257 C1202.11735,738.026984 1220.68102,728.453495 1220.44752,728.743601 C1219.63025,730.194129 1218.81298,731.644658 1217.99571,732.950134 C1216.24442,735.851191 1214.49313,738.752249 1212.62509,741.653306 C1211.92457,742.813729 1212.04133,744.699416 1212.15808,746.004892 C1212.15808,746.294998 1212.74184,749.341108 1213.20885,748.470791 C1216.01092,743.829099 1218.81298,739.042354 1221.38154,734.25561 C1223.01608,731.2095 1225.58463,725.987596 1223.24958,722.361275 C1222.43231,721.055799 1221.03128,721.200852 1219.86375,721.345905 C1217.5287,721.63601 1215.19365,722.216222 1212.8586,722.65138 C1207.95498,723.521698 1203.05137,724.537068 1198.14776,725.697491 C1197.44725,725.842543 1197.564,729.613918 1198.26452,729.468865 C1202.58436,729.033707 1207.02096,728.453495 1211.34081,727.873284 C1197.91426,734.400663 1185.18822,743.829099 1173.51295,754.563011 C1158.91887,767.907875 1145.95933,784.298848 1135.21809,802.720562 C1129.2637,813.019316 1124.00983,823.898281 1119.57323,835.357457 C1119.10622,836.51788 1119.10622,837.968409 1119.33973,839.273885 C1119.45648,839.709043 1120.04024,841.304625 1120.50725,840.144202 Z M1221.84855,726.422755 C1221.84855,726.422755 1221.84855,726.567808 1221.84855,726.422755 C1221.9653,726.567808 1221.84855,726.567808 1221.84855,726.712861 C1221.84855,726.712861 1221.84855,726.567808 1221.84855,726.422755 Z" id="Shape-Copy-2" fill="#4AA0DD" fill-rule="nonzero" transform="translate(1171.686347, 780.906721) scale(-1, 1) rotate(-64.000000) translate(-1171.686347, -780.906721) "></path>
            <path d="M1329.76221,792.732409 C1355.83696,752.552765 1398.64627,718.755447 1450.79578,696.852464 C1465.77904,690.615191 1496.71849,681.041702 1496.32932,681.331808 C1494.9672,682.782336 1493.60509,684.232865 1492.24297,685.538341 C1489.32416,688.439398 1486.40534,691.340455 1483.29194,694.241513 C1482.12441,695.401936 1482.319,697.287623 1482.51359,698.593099 C1482.51359,698.883204 1483.48653,701.929315 1484.26488,701.058997 C1488.93498,696.417306 1493.60509,691.630561 1497.88602,686.843816 C1500.61025,683.797706 1504.89118,678.575803 1500.99942,674.949481 C1499.63731,673.644006 1497.30225,673.789059 1495.35638,673.934111 C1491.46462,674.224217 1487.57287,674.804429 1483.68111,675.239587 C1475.50843,676.109904 1467.33574,677.125274 1459.16306,678.285697 C1457.99553,678.43075 1458.19012,682.202125 1459.35764,682.057072 C1466.55739,681.621913 1473.95173,681.041702 1481.15147,680.46149 C1458.77388,686.988869 1437.56382,696.417306 1418.10504,707.151218 C1393.78157,720.496081 1372.18234,736.887055 1354.28026,755.308769 C1344.35629,765.607523 1335.59984,776.486488 1328.2055,787.945664 C1327.42715,789.106087 1327.42715,790.556616 1327.81633,791.862091 C1328.01092,792.29725 1328.98386,793.892831 1329.76221,792.732409 Z M1498.66437,679.010962 C1498.66437,679.010962 1498.66437,679.156015 1498.66437,679.010962 C1498.85896,679.156015 1498.66437,679.156015 1498.66437,679.301067 C1498.66437,679.301067 1498.66437,679.156015 1498.66437,679.010962 Z" id="Shape-Copy-3" fill="#4AA0DD" fill-rule="nonzero" transform="translate(1415.060698, 733.494927) scale(-1, 1) rotate(-170.000000) translate(-1415.060698, -733.494927) "></path>
            <path d="M1448.22534,475.444048 C1464.76419,433.009696 1491.91751,397.315818 1524.99521,374.183735 C1534.49887,367.596452 1554.12333,357.48574 1553.87648,357.792126 C1553.01251,359.324052 1552.14854,360.855978 1551.28457,362.234711 C1549.4332,365.298563 1547.58184,368.362416 1545.60705,371.426268 C1544.86651,372.651809 1544.98993,374.643312 1545.11336,376.022046 C1545.11336,376.328431 1545.73048,379.545476 1546.22417,378.62632 C1549.18636,373.724157 1552.14854,368.668801 1554.86387,363.613445 C1556.59181,360.3964 1559.30714,354.881466 1556.83866,351.051651 C1555.97469,349.672917 1554.4936,349.82611 1553.25936,349.979303 C1550.79087,350.285688 1548.32239,350.898458 1545.8539,351.358036 C1540.67008,352.277192 1535.48627,353.34954 1530.30245,354.575081 C1529.5619,354.728273 1529.68533,358.711281 1530.42587,358.558089 C1534.99257,358.098511 1539.68269,357.48574 1544.24939,356.87297 C1530.0556,363.766637 1516.60236,373.724157 1504.25994,385.06041 C1488.83191,399.15413 1475.13182,416.464894 1463.77679,435.920356 C1457.48216,446.797031 1451.92807,458.286476 1447.23794,470.388692 C1446.74425,471.614233 1446.74425,473.146159 1446.9911,474.524893 C1447.11452,474.984471 1447.73164,476.669589 1448.22534,475.444048 Z M1555.35757,355.341044 C1555.35757,355.341044 1555.35757,355.494236 1555.35757,355.341044 C1555.48099,355.494236 1555.35757,355.494236 1555.35757,355.647429 C1555.35757,355.647429 1555.35757,355.494236 1555.35757,355.341044 Z" id="Shape-Copy-5" fill="#4AA0DD" fill-rule="nonzero" transform="translate(1502.328953, 412.882415) scale(-1, 1) rotate(-98.000000) translate(-1502.328953, -412.882415) "></path>
            <path d="M1436.03743,645.50111 C1454.66225,603.066758 1485.24033,567.37288 1522.48998,544.240796 C1533.19231,537.653514 1555.29192,527.542802 1555.01393,527.849187 C1554.041,529.381113 1553.06806,530.913039 1552.09512,532.291773 C1550.01025,535.355625 1547.92538,538.419477 1545.70152,541.483329 C1544.86757,542.70887 1545.00656,544.700374 1545.14556,546.079107 C1545.14556,546.385493 1545.84051,549.602537 1546.39648,548.683382 C1549.73227,543.781218 1553.06806,538.725862 1556.12586,533.670506 C1558.07174,530.453461 1561.12955,524.938528 1558.34972,521.108712 C1557.37679,519.729979 1555.70889,519.883172 1554.31898,520.036364 C1551.53915,520.342749 1548.75933,520.95552 1545.9795,521.415098 C1540.14187,522.334253 1534.30424,523.406602 1528.46661,524.632142 C1527.63266,524.785335 1527.77165,528.768343 1528.6056,528.61515 C1533.74827,528.155572 1539.02994,527.542802 1544.17262,526.930032 C1528.18862,533.823699 1513.03858,543.781218 1499.13945,555.117471 C1481.76555,569.211191 1466.33752,586.521956 1453.55032,605.977417 C1446.46177,616.854092 1440.20716,628.343538 1434.9255,640.445754 C1434.36953,641.671295 1434.36953,643.203221 1434.64751,644.581954 C1434.78651,645.041532 1435.48146,646.726651 1436.03743,645.50111 Z M1556.68183,525.398105 C1556.68183,525.398105 1556.68183,525.551298 1556.68183,525.398105 C1556.82082,525.551298 1556.68183,525.551298 1556.68183,525.704491 C1556.68183,525.704491 1556.68183,525.551298 1556.68183,525.398105 Z" id="Shape-Copy-6" fill="#4AA0DD" fill-rule="nonzero" transform="translate(1496.964921, 582.939477) scale(-1, 1) rotate(-120.000000) translate(-1496.964921, -582.939477) "></path>
            <ellipse id="Oval-Copy" fill="#4AA0DD" cx="1237.5" cy="500.5" rx="190.5" ry="191.5"></ellipse>
            <ellipse id="Oval-Copy-2" stroke="#4AA0DD" stroke-width="2" fill="#F1F2F3" cx="1113.5" cy="847" rx="78.5" ry="79"></ellipse>
            <ellipse id="Oval-Copy-3" stroke="#4ECDA5" stroke-width="4" cx="1622.5" cy="795" rx="75.5" ry="76"></ellipse>
            <rect id="Rectangle-2" fill="#2A495F" x="975" y="198" width="237" height="130"></rect>
            <text id="SSR" font-family="RobotoCondensed-Bold, Roboto Condensed" font-size="40" font-style="condensed" font-weight="bold" fill="#FFFFFF">
                <tspan x="1055.49219" y="275">SSR</tspan>
            </text>
            <text id="GraphQL-middleware" transform="translate(1203.500000, 476.000000) rotate(-56.000000) translate(-1203.500000, -476.000000) " font-family="RobotoCondensed-Bold, Roboto Condensed" font-size="36" font-style="condensed" font-weight="bold" fill="#FFFFFF">
                <tspan x="1142.25781" y="466">GraphQL </tspan>
                <tspan x="1122.43848" y="514">middleware</tspan>
            </text>
            <polygon id="Path-2" fill="#4ECDA5" transform="translate(1616.000000, 275.602930) rotate(41.000000) translate(-1616.000000, -275.602930) " points="1516 187.10293 1716 187.10293 1616 364.10293"></polygon>
            <polygon id="Path-3" fill="#4ECDA5" transform="translate(1671.000000, 514.500000) rotate(44.000000) translate(-1671.000000, -514.500000) " points="1581 429 1761 429 1671 600"></polygon>
            <text id="API-1" font-family="RobotoCondensed-Bold, Roboto Condensed" font-size="40" font-style="condensed" font-weight="bold" fill="#FFFFFF">
                <tspan x="1596.53422" y="271.20523">API 1</tspan>
            </text>
            <text id="API-2" font-family="RobotoCondensed-Bold, Roboto Condensed" font-size="40" font-style="condensed" font-weight="bold" fill="#FFFFFF">
                <tspan x="1653.93253" y="510.477194">API 2</tspan>
            </text>
            <text id="Redis" font-family="RobotoCondensed-Bold, Roboto Condensed" font-size="24" font-style="condensed" font-weight="bold" fill="#4AA0DD">
                <tspan x="1087.76172" y="856">Redis </tspan>
            </text>
            <text id="File-System" font-family="RobotoCondensed-Bold, Roboto Condensed" font-size="24" font-style="condensed" font-weight="bold" fill="#4ECDA5">
                <tspan x="1569.46875" y="801">File System</tspan>
            </text>
            <path d="M1476.5,987.5 L656.231142,987.5" id="Line-2" stroke="#333333" stroke-width="2" stroke-linecap="square"></path>
            <g id="fc_logo_2018--inline" transform="translate(923.000000, 1006.000000)" fill-rule="nonzero">
                <g id="Group-5-Copy-12_1_" fill="#4267AD">
                    <path d="M40.7972477,3.88125 C39.2862385,3.88125 39.2862385,6.3 40.7972477,6.3 C48.3522936,6.3 50.8146789,6.3 58.3697248,6.3 C57.4183486,10.575 56.4669725,14.90625 55.5155963,19.18125 C49.1917431,19.18125 46.1697248,19.18125 39.8458716,19.18125 C37.7752294,13.21875 35.7045872,7.25625 33.633945,1.29375 C33.466055,0.7875 33.0743119,0.39375 32.5146789,0.39375 L25.2394495,0.39375 C23.7284404,0.39375 23.7284404,2.8125 25.2394495,2.8125 L31.6752294,2.8125 C33.7458716,8.775 35.8165138,14.7375 37.887156,20.7 C38.5587156,22.3875 39.2862385,24.075 39.9577982,25.81875 C40.1816514,26.325 40.5174312,26.71875 41.0770642,26.71875 C46.7853211,26.71875 49.1357798,26.71875 54.9,26.71875 C56.4110092,26.71875 56.4110092,24.3 54.9,24.3 C49.4155963,24.3 47.3449541,24.3 41.8605505,24.3 C41.4688073,23.4 41.1330275,22.5 40.7412844,21.6 C47.0651376,21.6 50.087156,21.6 56.4110092,21.6 C56.9146789,21.6 57.4183486,21.2625 57.5302752,20.7 C58.6495413,15.58125 59.7688073,10.51875 60.8880734,5.4 C61.0559633,4.66875 60.5522936,3.88125 59.7688073,3.88125 C51.8220183,3.88125 48.8559633,3.88125 40.7972477,3.88125 Z" id="Shape_1_"></path>
                    <path d="M13.5990826,24.35625 L34.4733945,24.35625 C35.5926606,24.35625 36.0963303,24.91875 36.0963303,25.59375 C36.0963303,26.26875 35.5926606,26.83125 34.4733945,26.83125 L13.5990826,26.83125 C12.4798165,26.83125 12.0321101,26.26875 12.0321101,25.59375 C12.0321101,24.91875 12.5357798,24.35625 13.5990826,24.35625 Z" id="Path-Copy_3_"></path>
                    <path d="M32.0110092,19.51875 L22.4972477,19.51875 C21.8816514,19.51875 21.3220183,18.95625 21.3220183,18.3375 C21.3220183,17.71875 21.8816514,17.15625 22.4972477,17.15625 L32.0110092,17.15625 C32.6266055,17.15625 33.1862385,17.71875 33.1862385,18.3375 C33.1862385,18.95625 32.6266055,19.51875 32.0110092,19.51875 Z" id="Path-Copy-2_3_"></path>
                    <path d="M26.1908257,19.51875 L16.6770642,19.51875 C16.0614679,19.51875 15.5018349,18.95625 15.5018349,18.3375 C15.5018349,17.71875 16.0614679,17.15625 16.6770642,17.15625 L26.1908257,17.15625 C26.806422,17.15625 27.366055,17.71875 27.366055,18.3375 C27.366055,18.95625 26.806422,19.51875 26.1908257,19.51875 Z" id="Path-Copy-2_2_"></path>
                    <path d="M12.9275229,9.73125 L28.3733945,9.73125 C29.4926606,9.73125 29.940367,10.29375 29.940367,10.9125 C29.940367,11.53125 29.4926606,12.09375 28.3733945,12.09375 L12.9275229,12.09375 C11.8082569,12.15 11.1926606,11.5875 11.1926606,10.9125 C11.1926606,10.29375 11.7522936,9.73125 12.9275229,9.73125 Z" id="Path-Copy-3_3_"></path>
                    <path d="M1.62293578,24.35625 L22.4972477,24.35625 C23.6165138,24.35625 24.1201835,24.91875 24.1201835,25.59375 C24.1201835,26.26875 23.6165138,26.83125 22.4972477,26.83125 L1.62293578,26.83125 C0.503669725,26.83125 0.0559633028,26.26875 0.0559633028,25.59375 C0.0559633028,24.91875 0.503669725,24.35625 1.62293578,24.35625 Z" id="Path-Copy_2_"></path>
                    <path d="M4.0293578,9.73125 L19.4752294,9.73125 C20.5944954,9.73125 21.0422018,10.29375 21.0422018,10.9125 C21.0422018,11.53125 20.5944954,12.09375 19.4752294,12.09375 L4.0293578,12.09375 C2.91009174,12.15 2.29449541,11.5875 2.29449541,10.9125 C2.29449541,10.29375 2.85412844,9.73125 4.0293578,9.73125 Z" id="Path-Copy-3_2_"></path>
                </g>
                <path d="M69,26.8283898 L71.529436,26.8283898 C72.1477426,26.8283898 72.6536298,26.4279661 72.7660492,25.7987288 L75.0706465,13.8432203 C75.1830659,13.2711864 75.6889531,12.8135593 76.3072596,12.8135593 L82.2654867,12.8135593 C82.5465352,12.8135593 82.8275836,12.5847458 82.8837933,12.2987288 L83.2210515,10.4682203 C83.2772612,10.0677966 82.9962127,9.61016949 82.6027449,9.61016949 L77.3190341,9.61016949 C76.5320984,9.61016949 75.9700015,8.9809322 76.0824209,8.18008475 L76.8693565,4.11864407 C76.9817759,3.54661017 77.4876631,3.08898305 78.1059697,3.08898305 L85.4132294,3.08898305 C85.6942778,3.08898305 85.9753263,2.86016949 86.0315359,2.57415254 L86.3687941,0.743644068 C86.4250038,0.343220339 86.1439553,0 85.7504875,0 L74.620969,0 C74.3399205,0 74.0588721,0.228813559 74.0026624,0.514830508 L69,26.8283898 Z M83.1648418,26.8283898 L86.200165,26.8283898 C86.4812135,26.8283898 86.7622619,26.5995763 86.8184716,26.3135593 L88.6171817,16.6461864 C89.5727464,14.0720339 91.4838758,12.8707627 93.0015374,12.8707627 C93.3387956,12.8707627 93.7322634,12.8707627 94.0133119,12.9851695 C94.2943603,13.0423729 94.6316184,12.8707627 94.6878281,12.5847458 L95.4747638,10.4682203 C95.6433929,10.0677966 95.3061347,9.61016949 94.9126669,9.61016949 L94.0695215,9.61016949 C92.1021824,9.61016949 90.7531499,10.0105932 89.460327,12.0699153 L89.2354882,13.2711864 L89.7975851,10.2966102 C89.8537948,9.95338983 89.5727464,9.61016949 89.1792786,9.61016949 L86.8746813,9.61016949 C86.5936328,9.61016949 86.3125844,9.83898305 86.2563747,10.125 L83.1648418,26.8283898 Z M117.115494,15.4449153 C117.115494,15.3305085 117.227914,15.2161017 117.284123,15.1016949 C118.857995,13.5 120.038398,12.7563559 121.106382,12.7563559 C122.511624,12.7563559 123.129931,13.5 123.129931,14.9300847 C123.129931,15.4449153 123.017512,15.9025424 122.848883,16.7033898 L120.881543,26.8283898 L123.916867,26.8283898 C124.197915,26.8283898 124.478964,26.5995763 124.535173,26.3135593 L126.502512,16.2457627 C126.727351,15.3305085 126.783561,14.7012712 126.783561,13.9004237 C126.783561,11.2118644 125.659367,9.66737288 122.961302,9.66737288 C120.937753,9.66737288 119.75735,10.0677966 117.677591,12.1271186 L118.014849,10.3538136 C118.014849,10.0105932 117.733801,9.66737288 117.396543,9.66737288 L115.148155,9.66737288 C114.867107,9.66737288 114.586058,9.89618644 114.529849,10.1822034 L111.269687,26.8855932 L114.30501,26.8855932 C114.586058,26.8855932 114.867107,26.6567797 114.923316,26.3707627 L117.115494,15.4449153 Z M130.437191,20.7648305 C130.324771,21.4512712 130.212352,22.0805085 130.212352,22.7669492 C130.212352,25.1122881 131.392755,26.8855932 134.428079,26.8855932 C135.608482,26.8855932 136.620257,26.5995763 137.350983,26.3135593 C137.632031,26.1991525 137.80066,25.8559322 137.74445,25.5699153 L137.407192,24.1970339 C137.294773,23.8538136 136.957515,23.625 136.620257,23.7394068 C136.339208,23.8538136 136.05816,23.9110169 135.720902,23.9110169 C134.371869,23.9110169 133.809772,23.2817797 133.809772,22.0805085 C133.809772,21.6800847 133.865982,21.279661 133.922191,20.8792373 L135.552272,12.5275424 L139.037273,12.5275424 C139.318322,12.5275424 139.59937,12.2987288 139.65558,12.0127119 L139.992838,10.3538136 C140.049048,9.95338983 139.767999,9.61016949 139.374531,9.61016949 L136.226789,9.61016949 L136.957515,5.83474576 C137.013724,5.43432203 136.732676,5.09110169 136.339208,5.09110169 L134.596708,5.09110169 C134.315659,5.09110169 134.090821,5.26271186 133.978401,5.54872881 L132.797998,9.61016949 L130.774449,9.61016949 C130.4934,9.61016949 130.268562,9.83898305 130.212352,10.125 L129.762674,12.5275424 L132.067272,12.5275424 L130.437191,20.7648305 Z M101.208152,27 C105.536298,27 109.976864,22.7097458 109.976864,16.4745763 C109.976864,12.3559322 107.616057,9.78177966 104.018637,9.78177966 C99.6904905,9.78177966 95.3061347,14.0148305 95.3061347,20.3072034 C95.3061347,24.4258475 97.6669417,27 101.208152,27 Z M103.625169,12.8707627 C105.480089,12.8707627 106.435653,14.3008475 106.435653,16.8177966 C106.435653,21.0508475 104.074846,24.4258475 101.54541,24.4258475 C99.6904905,24.4258475 98.6787161,22.9957627 98.6787161,20.4788136 C98.6787161,16.2457627 101.039523,12.8707627 103.625169,12.8707627 Z" id="Front_1_" fill="#333333"></path>
                <path d="M147,15.6220807 C147,21.8598726 150.439024,25.8895966 156.189524,25.8895966 C159.177529,25.8895966 161.489004,24.6199575 163.180328,23.2399151 C163.405838,23.0191083 163.462215,22.6878981 163.293083,22.4670913 L162.165534,20.8110403 C161.940024,20.5350318 161.545382,20.4246285 161.263495,20.6454352 C159.966813,21.6390658 158.557377,22.3014862 156.978808,22.3014862 C152.919632,22.3014862 151.171931,19.4861996 151.171931,15.2908705 C151.171931,9.49469214 154.780088,3.5329087 159.854058,3.5329087 C161.319872,3.5329087 162.391044,4.25053079 163.293083,5.46496815 C163.518593,5.74097665 163.913235,5.79617834 164.195122,5.57537155 L166.055578,4.14012739 C166.281088,3.97452229 166.393842,3.5881104 166.22471,3.36730361 C164.871651,1.32484076 162.785686,0 160.079568,0 C152.468613,2.35338995e-14 147,7.3418259 147,15.6220807 Z M181.897641,25.8895966 L184.942023,25.8895966 C185.22391,25.8895966 185.505798,25.6687898 185.562175,25.3927813 L187.648141,14.8492569 C189.283087,13.0828025 190.692523,12.3651805 191.538185,12.3651805 C192.834866,12.3651805 193.511395,13.0828025 193.511395,14.462845 C193.511395,14.9596603 193.398641,15.4012739 193.229508,16.1740977 L191.256297,25.9447983 L194.30068,25.9447983 C194.582567,25.9447983 194.864454,25.7239915 194.920832,25.447983 L197.063175,14.9044586 C198.698121,13.1380042 200.107557,12.4203822 200.953219,12.4203822 C202.306277,12.4203822 202.926429,13.1380042 202.926429,14.5180467 C202.926429,15.014862 202.813675,15.4564756 202.644542,16.2292994 L200.671331,26 L203.715714,26 C203.997601,26 204.279488,25.7791932 204.335866,25.5031847 L206.309076,15.7876858 C206.478209,14.9044586 206.590964,14.2972399 206.590964,13.5244161 C206.590964,10.9299363 205.407037,9.43949045 202.757297,9.43949045 C201.009596,9.43949045 199.036385,10.6539278 197.119552,12.4203822 C196.781287,10.6539278 195.879248,9.43949045 193.342263,9.43949045 C191.594562,9.43949045 189.564974,10.6539278 187.930028,12.089172 L188.042783,10.4883227 C188.042783,10.1571125 187.760896,9.82590234 187.422631,9.82590234 L185.731307,9.82590234 C185.44942,9.82590234 185.167533,10.0467091 185.111156,10.3227176 L181.897641,25.8895966 Z M207.32387,25.8895966 L210.368253,25.8895966 C210.65014,25.8895966 210.932027,25.6687898 210.988405,25.3927813 L213.07437,14.8492569 C214.709316,13.0828025 216.118752,12.3651805 216.964414,12.3651805 C218.261096,12.3651805 218.937625,13.0828025 218.937625,14.462845 C218.937625,14.9596603 218.82487,15.4012739 218.655738,16.1740977 L216.682527,25.9447983 L219.726909,25.9447983 C220.008796,25.9447983 220.290684,25.7239915 220.347061,25.447983 L222.489404,14.9044586 C224.12435,13.1380042 225.533786,12.4203822 226.379448,12.4203822 C227.732507,12.4203822 228.352659,13.1380042 228.352659,14.5180467 C228.352659,15.014862 228.239904,15.4564756 228.070772,16.2292994 L226.097561,26 L229.141943,26 C229.42383,26 229.705718,25.7791932 229.762095,25.5031847 L231.735306,15.7876858 C231.904438,14.9044586 232.017193,14.2972399 232.017193,13.5244161 C232.017193,10.9299363 230.833267,9.43949045 228.183527,9.43949045 C226.435826,9.43949045 224.462615,10.6539278 222.545782,12.4203822 C222.207517,10.6539278 221.305478,9.43949045 218.768493,9.43949045 C217.020792,9.43949045 214.991204,10.6539278 213.356257,12.089172 L213.469012,10.4883227 C213.469012,10.1571125 213.187125,9.82590234 212.84886,9.82590234 L211.157537,9.82590234 C210.87565,9.82590234 210.593762,10.0467091 210.537385,10.3227176 L207.32387,25.8895966 Z M234.441423,19.1549894 C234.441423,23.4055202 237.034786,25.8343949 240.812075,25.8343949 C242.785286,25.8343949 244.476609,25.2271762 245.716913,24.5095541 C245.9988,24.343949 246.111555,23.9575372 245.942423,23.6815287 L245.265894,22.522293 C245.096761,22.1910828 244.702119,22.1358811 244.363854,22.3014862 C243.57457,22.7983015 242.559776,23.1847134 241.657737,23.1847134 C239.402639,23.1847134 237.598561,21.9150743 237.711315,19.044586 C237.711315,18.7133758 237.993203,18.4373673 238.331467,18.4373673 L247.013595,18.4373673 C247.295482,18.4373673 247.520992,18.2717622 247.577369,18.0509554 C247.802879,17.388535 248.084766,16.2292994 248.084766,15.1252654 C248.084766,11.8683652 246.731707,9.32908705 243.010796,9.32908705 C238.895242,9.27388535 234.441423,13.3036093 234.441423,19.1549894 Z M238.951619,16.2845011 C238.5006,16.2845011 238.218713,15.8428875 238.387845,15.4564756 C239.289884,13.2484076 240.981208,11.9787686 242.672531,11.9787686 C244.589364,11.9787686 245.265894,13.358811 245.265894,14.9044586 C245.265894,15.2356688 245.265894,15.5116773 245.209516,15.7876858 C245.153139,16.0636943 244.927629,16.2845011 244.589364,16.2845011 L238.951619,16.2845011 Z M274.356657,19.1549894 C274.356657,23.4055202 276.95002,25.8343949 280.727309,25.8343949 C282.70052,25.8343949 284.391843,25.2271762 285.632147,24.5095541 C285.914034,24.343949 286.026789,23.9575372 285.857657,23.6815287 L285.181128,22.522293 C285.011995,22.1910828 284.617353,22.1358811 284.279088,22.3014862 C283.489804,22.7983015 282.47501,23.1847134 281.572971,23.1847134 C279.317873,23.1847134 277.513794,21.9150743 277.626549,19.044586 C277.626549,18.7133758 277.908437,18.4373673 278.246701,18.4373673 L286.928828,18.4373673 C287.210716,18.4373673 287.436226,18.2717622 287.492603,18.0509554 C287.718113,17.388535 288,16.2292994 288,15.1252654 C288,11.8683652 286.646941,9.32908705 282.92603,9.32908705 C278.810476,9.27388535 274.356657,13.3036093 274.356657,19.1549894 Z M278.866853,16.2845011 C278.415834,16.2845011 278.133946,15.8428875 278.303079,15.4564756 C279.205118,13.2484076 280.896441,11.9787686 282.587765,11.9787686 C284.504598,11.9787686 285.181128,13.358811 285.181128,14.9044586 C285.181128,15.2356688 285.181128,15.5116773 285.12475,15.7876858 C285.068373,16.0636943 284.842863,16.2845011 284.504598,16.2845011 L278.866853,16.2845011 Z M261.389844,19.4309979 C261.389844,23.5159236 263.926829,25.8895966 267.422231,25.8895966 C269.508197,25.8895966 270.97401,25.1719745 272.101559,24.3991507 C272.383447,24.2335456 272.439824,23.8471338 272.270692,23.5711253 L271.481407,22.4118896 C271.312275,22.1358811 270.917633,22.0806794 270.579368,22.2462845 C269.902839,22.7430998 269.057177,23.07431 268.09876,23.07431 C265.956417,23.07431 264.885246,21.6942675 264.885246,19.3205945 C264.885246,15.4012739 267.365854,12.089172 270.241104,12.089172 C271.086765,12.089172 271.65054,12.3099788 272.270692,12.8619958 C272.552579,13.0828025 272.947221,13.0828025 273.172731,12.8619958 L274.30028,11.6475584 C274.52579,11.4267516 274.52579,11.0403397 274.30028,10.8195329 C273.454618,9.99150743 272.214314,9.32908705 270.522991,9.32908705 C265.561775,9.27388535 261.389844,13.7452229 261.389844,19.4309979 Z M171.7497,25.8895966 C176.090764,25.8895966 180.544582,21.7494692 180.544582,15.7324841 C180.544582,11.7579618 178.176729,9.27388535 174.568573,9.27388535 C170.227509,9.27388535 165.830068,13.358811 165.830068,19.4309979 C165.830068,23.3503185 168.197921,25.8895966 171.7497,25.8895966 Z M174.17393,12.2547771 C176.034386,12.2547771 176.992803,13.6348195 176.992803,16.0636943 C176.992803,20.14862 174.62495,23.4055202 172.087965,23.4055202 C170.227509,23.4055202 169.212715,22.0254777 169.212715,19.596603 C169.212715,15.4564756 171.580568,12.2547771 174.17393,12.2547771 Z M249.32507,25.8895966 L252.369452,25.8895966 C252.651339,25.8895966 252.933227,25.6687898 252.989604,25.3927813 L254.793683,16.0636943 C255.752099,13.5796178 257.668932,12.4203822 259.191124,12.4203822 C259.529388,12.4203822 259.92403,12.4203822 260.205918,12.5307856 C260.487805,12.5859873 260.82607,12.4203822 260.882447,12.1443737 L261.671731,10.1019108 C261.840864,9.71549894 261.502599,9.27388535 261.107957,9.27388535 L260.262295,9.27388535 C258.289084,9.27388535 256.936026,9.66029724 255.639344,11.6475584 L255.413834,12.8067941 L255.977609,9.93630573 C256.033986,9.60509554 255.752099,9.27388535 255.357457,9.27388535 L253.045982,9.27388535 C252.764094,9.27388535 252.482207,9.49469214 252.42583,9.77070064 L249.32507,25.8895966 Z" id="_x2D_copy_1_" fill="#333333"></path>
            </g>
            <g id="noun_1476991_cc" transform="translate(376.000000, 238.000000)" fill="#333333">
                <g id="Group">
                    <path d="M116.947917,144.048936 C116.885813,126.306247 105.964137,110.42089 89.44375,104.044681 L85.921875,102.7 L83.5739583,105.725532 L82.2322917,107.238298 C78.146129,111.38369 72.482133,113.573339 66.6768616,113.251885 C60.8715902,112.930431 55.4827398,110.128756 51.8770833,105.557447 L49.5291667,102.7 L46.175,104.044681 C29.6546133,110.42089 18.7329374,126.306247 18.6708333,144.048936 L18.6708333,157.159574 L116.947917,157.159574 L116.947917,144.048936 Z M106.885417,147.074468 L28.7333333,147.074468 L28.7333333,144.048936 C28.7728563,131.69968 35.7000049,120.409663 46.678125,114.802128 C58.4655182,126.05049 76.9855234,126.05049 88.7729167,114.802128 C99.8161375,120.363239 106.813793,131.662568 106.885417,144.048936 L106.885417,147.074468 Z" id="Shape" fill-rule="nonzero"></path>
                    <rect id="Rectangle-path" fill-rule="nonzero" x="98.1645833" y="28.2382979" width="26.8333333" height="10.0851064"></rect>
                    <rect id="Rectangle-path" fill-rule="nonzero" x="98.1645833" y="46.7276596" width="55.34375" height="10.0851064"></rect>
                    <path d="M178.329167,0.672340426 L72.6729167,0.672340426 L72.6729167,46.0553191 L67.9770833,45.5510638 C53.4423429,45.518873 41.298434,56.6356793 40.0169668,71.146381 C38.7354996,85.6570827 48.7423857,98.7388664 63.0568055,101.265859 C77.3712254,103.792852 91.2356023,94.925176 94.978125,80.8489362 L104.872917,80.8489362 L104.872917,103.876596 L136.066667,80.8489362 L178.329167,80.8489362 L178.329167,0.672340426 Z M67.809375,91.606383 C57.8987402,91.606383 49.8645833,83.5541766 49.8645833,73.6212766 C49.8645833,63.6883766 57.8987402,55.6361702 67.809375,55.6361702 C77.7200098,55.6361702 85.7541667,63.6883766 85.7541667,73.6212766 C85.7541667,78.3912234 83.8635601,82.9658056 80.4982589,86.3386673 C77.1329576,89.711529 72.5686297,91.606383 67.809375,91.606383 Z M168.266667,70.7638298 L132.880208,70.7638298 L114.935417,83.8744681 L114.935417,70.7638298 L95.6489583,70.7638298 C94.7238105,62.1679883 89.8980327,54.4790037 82.5677083,49.9212766 L82.5677083,10.7574468 L168.098958,10.7574468 L168.266667,70.7638298 Z" id="Shape" fill-rule="nonzero"></path>
                    <text id="Customer" font-family="RobotoCondensed-Bold, Roboto Condensed" font-size="36" font-style="condensed" font-weight="bold">
                        <tspan x="0" y="210">Customer</tspan>
                    </text>
                </g>
            </g>
            <g id="noun_593916_cc" transform="translate(783.927291, 260.733193) rotate(20.000000) translate(-783.927291, -260.733193) translate(608.427291, 185.733193)" fill="#2A495F" fill-rule="nonzero">
                <path d="M4.40669642,149.478135 C56.5997788,98.9610487 142.289914,56.4683373 246.676079,28.9301423 C276.667626,21.0881398 307.827676,14.3403701 339.766726,8.32208912 C338.987725,8.68683343 338.598224,9.05157773 337.819223,9.41632203 C335.092719,11.2400436 332.366214,13.0637651 329.63971,14.7051144 C323.797201,18.3525575 317.954692,22.0000005 311.722682,25.6474436 C309.385678,27.1064208 309.775179,29.4772588 310.164679,31.1186081 C310.164679,31.4833524 312.112182,35.3131676 313.670185,34.2189347 C323.0182,28.3830259 332.366214,22.3647448 340.935228,16.3464638 C346.388236,12.5166486 354.95725,5.95125114 347.167238,1.39194734 C344.440733,-0.249402028 339.766726,-0.0670298756 335.87172,0.115342276 C328.081708,0.480086581 320.291695,1.20957519 312.501683,1.75669165 C296.142657,2.85092456 279.783631,4.12752962 263.424605,5.58650684 C261.087602,5.76887899 261.477102,10.5105549 263.814106,10.3281828 C278.225629,9.78106634 293.026652,9.05157773 307.438175,8.32208912 C307.827676,8.32208912 307.827676,8.32208912 308.217176,8.32208912 C262.645604,16.528836 220.190037,28.3830259 181.239976,41.8785651 C132.552399,58.6568031 89.3178305,79.2648563 53.4837739,102.42612 C33.6192426,115.374542 16.0917149,129.052454 1.2906915,143.459854 C-0.267310962,144.918831 -0.267310962,146.742553 0.511690268,148.383902 C0.901190883,148.931018 2.84869396,150.937112 4.40669642,149.478135 Z M342.49323,6.4983676 C342.49323,6.4983676 342.49323,6.68073975 342.49323,6.4983676 C342.882731,6.68073975 342.49323,6.68073975 342.49323,6.8631119 C342.49323,6.8631119 342.49323,6.68073975 342.49323,6.4983676 Z" id="Shape"></path>
            </g>
            <circle id="Oval-2" fill="#2A495F" cx="784" cy="233" r="16"></circle>
            <text id="1" font-family="RobotoCondensed-Bold, Roboto Condensed" font-size="24" font-style="condensed" font-weight="bold" fill="#FFFFFF">
                <tspan x="778.029297" y="242">1</tspan>
            </text>
            <g id="noun_593916_cc" transform="translate(1199.937674, 323.643642) rotate(107.000000) translate(-1199.937674, -323.643642) translate(1157.937674, 280.643642)" fill="#2A495F" fill-rule="nonzero" stroke="#FFFFFF" stroke-width="0.5">
                <path d="M1.05672433,84.8595687 C13.5726081,56.1807379 34.1210739,32.0573892 59.1528414,16.4238027 C66.3448045,11.9718543 81.1957411,5.13863103 81.0089369,5.3456984 C80.3551221,6.38103525 79.7013073,7.4163721 79.0474924,8.34817527 C77.6464607,10.418849 76.2454289,12.4895227 74.750995,14.5601964 C74.1905823,15.3884659 74.2839844,16.7344038 74.3773866,17.6662069 C74.3773866,17.8732743 74.8443972,20.0474817 75.2180056,19.4262796 C77.4596564,16.1132017 79.7013073,12.6965901 81.7561538,9.27997844 C83.0637835,7.10577105 85.1186301,3.37855838 83.2505877,0.790216249 C82.5967729,-0.141586918 81.4759475,-0.0380532333 80.5419263,0.065480452 C78.673884,0.272547822 76.8058416,0.686682563 74.9377993,0.997283619 C71.0149103,1.61848573 67.0920214,2.34322153 63.1691325,3.17149101 C62.6087198,3.27502469 62.7021219,5.96690051 63.2625346,5.86336683 C66.7184129,5.55276577 70.2676934,5.13863103 73.7235717,4.72449629 C62.9823282,9.38351212 52.8014974,16.1132017 43.4612857,23.7746944 C31.786021,33.2997934 21.4183859,44.9990998 12.8253911,58.1478779 C8.06188314,65.4987695 3.85878786,73.2637959 0.309507391,81.442957 C-0.0641010794,82.2712265 -0.0641010794,83.3065634 0.122703156,84.2383666 C0.216105273,84.5489676 0.683115861,85.6878381 1.05672433,84.8595687 Z M82.1297623,3.68915944 C82.1297623,3.68915944 82.1297623,3.79269312 82.1297623,3.68915944 C82.2231644,3.79269312 82.1297623,3.79269312 82.1297623,3.89622681 C82.1297623,3.89622681 82.1297623,3.79269312 82.1297623,3.68915944 Z" id="Shape"></path>
            </g>
            <g id="noun_593916_cc-copy-2" transform="translate(803.300258, 311.063294) scale(-1, 1) rotate(68.000000) translate(-803.300258, -311.063294) translate(750.800258, 165.563294)" fill="#2A495F" fill-rule="nonzero" stroke="#FFFFFF" stroke-width="0.5">
                <path d="M1.32090541,289.042695 C16.9657601,191.358879 42.6513424,109.191625 73.9410518,55.9416019 C82.9310056,40.7776881 101.494676,17.5028437 101.261171,18.208142 C100.443903,21.7346335 99.6266341,25.2611251 98.8093655,28.4349675 C97.0580758,35.4879507 95.3067861,42.5409339 93.4387438,49.593917 C92.7382279,52.4151103 92.8549806,56.9995493 92.9717332,60.1733918 C92.9717332,60.8786901 93.5554964,68.2843224 94.022507,66.1684275 C96.8245706,54.8836544 99.6266341,43.2462322 102.195192,31.60881 C103.829729,24.2031777 106.398288,11.507808 104.063235,2.69157902 C103.245966,-0.482263405 101.844934,-0.129614247 100.677408,0.223034911 C98.342355,0.928333227 96.007302,2.33892986 93.6722491,3.39687733 C88.7686379,5.51277228 83.8650267,7.98131639 78.9614156,10.8025097 C78.2608997,11.1551588 78.3776523,20.3240369 79.0781682,19.9713878 C83.3980162,18.9134403 87.8346167,17.5028437 92.1544647,16.092247 C78.7279103,31.9614591 66.0018718,54.8836544 54.3266071,80.9796921 C39.7325262,113.423415 26.7729824,153.272769 16.0317389,198.059213 C10.0773539,223.097303 4.82348482,249.54599 0.386884238,277.405273 C-0.0801263493,280.226466 -0.0801263493,283.752958 0.153378944,286.9268 C0.270131591,287.984748 0.853894826,291.863889 1.32090541,289.042695 Z M102.662203,12.5657554 C102.662203,12.5657554 102.662203,12.9184046 102.662203,12.5657554 C102.778956,12.9184046 102.662203,12.9184046 102.662203,13.2710538 C102.662203,13.2710538 102.662203,12.9184046 102.662203,12.5657554 Z" id="Shape"></path>
            </g>
            <g id="noun_593916_cc-copy-3" transform="translate(677.532610, 403.369314) scale(-1, 1) rotate(92.000000) translate(-677.532610, -403.369314) translate(586.032610, 321.369314)" fill="#4A6BDD" fill-rule="nonzero">
                <path d="M40.0610069,156.674699 C55.7058615,105.986533 81.3914439,63.349917 112.681153,35.7184618 C121.671107,27.8499017 140.234778,15.772577 140.001273,16.1385565 C139.184004,17.9684542 138.366736,19.7983519 137.549467,21.4452598 C135.798177,25.1050552 134.046888,28.7648506 132.178845,32.424646 C131.478329,33.8885641 131.595082,36.2674311 131.711835,37.914339 C131.711835,38.2803186 132.295598,42.1231037 132.762608,41.0251651 C135.564672,35.1694925 138.366736,29.1308301 140.935294,23.0921677 C142.569831,19.2493826 145.138389,12.6617509 142.803336,8.08700665 C141.986068,6.44009873 140.585036,6.6230885 139.417509,6.80607827 C137.082456,7.17205781 134.747403,7.90401688 132.412351,8.45298619 C127.508739,9.55092481 122.605128,10.8318532 117.701517,12.2957713 C117.001001,12.4787611 117.117754,17.2364951 117.81827,17.0535053 C122.138118,16.504536 126.574718,15.772577 130.894566,15.0406179 C117.468012,23.2751575 104.741973,35.1694925 93.0667085,48.7107354 C78.4726277,65.5457942 65.5130839,86.2236381 54.7718404,109.463339 C48.8174554,122.455612 43.5635863,136.179845 39.1269857,150.636037 C38.6599751,152.099955 38.6599751,153.929853 38.8934804,155.576761 C39.010233,156.12573 39.5939963,158.138617 40.0610069,156.674699 Z M141.402304,13.2107202 C141.402304,13.2107202 141.402304,13.39371 141.402304,13.2107202 C141.519057,13.39371 141.402304,13.39371 141.402304,13.5766997 C141.402304,13.5766997 141.402304,13.39371 141.402304,13.2107202 Z" id="Shape" transform="translate(91.240101, 81.944339) rotate(-62.000000) translate(-91.240101, -81.944339) "></path>
            </g>
            <g id="noun_593916_cc-copy-4" transform="translate(630.539704, 451.275718) scale(1, -1) rotate(76.000000) translate(-630.539704, -451.275718) translate(552.539704, 376.275718)" fill="#4A6BDD" fill-rule="nonzero">
                <path d="M27.0610069,134.193359 C42.7058615,94.0137153 68.3914439,60.2163976 99.6811532,38.3134149 C108.671107,32.0761416 127.234778,22.5026525 127.001273,22.7927582 C126.184004,24.2432869 125.366736,25.6938155 124.549467,26.9992913 C122.798177,29.9003486 121.046888,32.8014059 119.178845,35.7024633 C118.478329,36.8628862 118.595082,38.7485734 118.711835,40.0540492 C118.711835,40.344155 119.295598,43.3902652 119.762608,42.519948 C122.564672,37.8782563 125.366736,33.0915117 127.935294,28.3047671 C129.569831,25.2586569 132.138389,20.0367538 129.803336,16.4104321 C128.986068,15.1049563 127.585036,15.2500092 126.417509,15.395062 C124.082456,15.6851678 121.747403,16.2653792 119.412351,16.7005378 C114.508739,17.570855 109.605128,18.5862251 104.701517,19.746648 C104.001001,19.8917009 104.117754,23.6630754 104.81827,23.5180225 C109.138118,23.0828639 113.574718,22.5026525 117.894566,21.922441 C104.468012,28.44982 91.7419732,37.8782563 80.0667085,48.6121683 C65.4726277,61.957032 52.5130839,78.3480058 41.7718404,96.7697198 C35.8174554,107.068473 30.5635863,117.947438 26.1269857,129.406615 C25.6599751,130.567038 25.6599751,132.017566 25.8934804,133.323042 C26.010233,133.758201 26.5939963,135.353782 27.0610069,134.193359 Z M128.402304,20.4719123 C128.402304,20.4719123 128.402304,20.6169652 128.402304,20.4719123 C128.519057,20.6169652 128.402304,20.6169652 128.402304,20.7620181 C128.402304,20.7620181 128.402304,20.6169652 128.402304,20.4719123 Z" id="Shape" transform="translate(78.240101, 74.955878) rotate(-62.000000) translate(-78.240101, -74.955878) "></path>
            </g>
            <g id="noun_593916_cc-copy" transform="translate(1147.937674, 344.643642) scale(-1, -1) rotate(104.000000) translate(-1147.937674, -344.643642) translate(1105.937674, 301.643642)" fill="#2A495F" fill-rule="nonzero" stroke="#FFFFFF" stroke-width="0.5">
                <path d="M1.05672433,84.8595687 C13.5726081,56.1807379 34.1210739,32.0573892 59.1528414,16.4238027 C66.3448045,11.9718543 73.8169739,8.1411079 81.4759475,4.72449629 C81.2891433,4.93156366 81.1957411,5.13863103 81.0089369,5.3456984 C80.3551221,6.38103525 79.7013073,7.4163721 79.0474924,8.34817527 C77.6464607,10.418849 76.2454289,12.4895227 74.750995,14.5601964 C74.1905823,15.3884659 74.2839844,16.7344038 74.3773866,17.6662069 C74.3773866,17.8732743 74.8443972,20.0474817 75.2180056,19.4262796 C77.4596564,16.1132017 79.7013073,12.6965901 81.7561538,9.27997844 C83.0637835,7.10577105 85.1186301,3.37855838 83.2505877,0.790216249 C82.5967729,-0.141586918 81.4759475,-0.0380532333 80.5419263,0.065480452 C78.673884,0.272547822 76.8058416,0.686682563 74.9377993,0.997283619 C71.0149103,1.61848573 67.0920214,2.34322153 63.1691325,3.17149101 C62.6087198,3.27502469 62.7021219,5.96690051 63.2625346,5.86336683 C66.7184129,5.55276577 70.2676934,5.13863103 73.7235717,4.72449629 C73.8169739,4.72449629 73.8169739,4.72449629 73.910376,4.72449629 C62.9823282,9.38351212 52.8014974,16.1132017 43.4612857,23.7746944 C31.786021,33.2997934 21.4183859,44.9990998 12.8253911,58.1478779 C8.06188314,65.4987695 3.85878786,73.2637959 0.309507391,81.442957 C-0.0641010794,82.2712265 -0.0641010794,83.3065634 0.122703156,84.2383666 C0.216105273,84.5489676 0.683115861,85.6878381 1.05672433,84.8595687 Z M82.1297623,3.68915944 C82.1297623,3.68915944 82.1297623,3.79269312 82.1297623,3.68915944 C82.2231644,3.79269312 82.1297623,3.79269312 82.1297623,3.89622681 C82.1297623,3.89622681 82.1297623,3.79269312 82.1297623,3.68915944 Z" id="Shape"></path>
            </g>
            <circle id="Oval-2-Copy" fill="#2A495F" cx="1245" cy="277" r="18"></circle>
            <text id="1’" font-family="RobotoCondensed-Bold, Roboto Condensed" font-size="24" font-style="condensed" font-weight="bold" fill="#FFFFFF">
                <tspan x="1236.38477" y="287">1’</tspan>
            </text>
            <circle id="Oval-2-Copy-2" fill="#2A495F" cx="814" cy="295" r="16"></circle>
            <text id="2" font-family="RobotoCondensed-Bold, Roboto Condensed" font-size="24" font-style="condensed" font-weight="bold" fill="#FFFFFF">
                <tspan x="808.029297" y="304">2</tspan>
            </text>
            <circle id="Oval-2-Copy-3" fill="#4A6BDD" cx="656" cy="428" r="16"></circle>
            <text id="3" font-family="RobotoCondensed-Bold, Roboto Condensed" font-size="24" font-style="condensed" font-weight="bold" fill="#FFFFFF">
                <tspan x="650.029297" y="437">3</tspan>
            </text>
            <circle id="Oval-2-Copy-4" fill="#4A6BDD" cx="962" cy="592" r="16"></circle>
            <text id="4" font-family="RobotoCondensed-Bold, Roboto Condensed" font-size="24" font-style="condensed" font-weight="bold" fill="#FFFFFF">
                <tspan x="956.029297" y="601">4</tspan>
            </text>
            <text id="HTML" transform="translate(904.781277, 324.972517) rotate(9.000000) translate(-904.781277, -324.972517) " font-family="RobotoCondensed-Bold, Roboto Condensed" font-size="16" font-style="condensed" font-weight="bold" fill="#2A495F">
                <tspan x="886.632839" y="331.472517">HTML</tspan>
            </text>
            <path d="M1108.22687,600.68627 C1109.22687,598.68627 1442.27995,436.774232 1445.27995,436.774232 C1448.27995,436.774232 1452.72839,474.924054 1450.72839,476.924054 C1448.72839,478.924054 1139.09589,631.758951 1138.09589,631.758951 C1137.09589,631.758951 1107.22687,602.68627 1108.22687,600.68627 Z" id="Path-6" fill="#90C6EC" transform="translate(1279.715307, 534.266592) rotate(-30.000000) translate(-1279.715307, -534.266592) "></path>
            <path d="M1265.37366,591.154683 L1353,651" id="Line-3" stroke="#90C6EC" stroke-width="4" stroke-linecap="square"></path>
            <path d="M1329.35348,495.708536 L1419.01501,552.459282" id="Line-3-Copy" stroke="#90C6EC" stroke-width="4" stroke-linecap="square"></path>
            <text id="CACHE" transform="translate(1287.994953, 530.427258) rotate(-57.000000) translate(-1287.994953, -530.427258) " font-family="RobotoCondensed-Bold, Roboto Condensed" font-size="20" font-style="condensed" font-weight="bold" fill="#FFFFFF">
                <tspan x="1260.8514" y="538.427258">CACHE</tspan>
            </text>
            <g id="noun_593916_cc-copy-5" transform="translate(1059.849086, 603.596578) scale(1, -1) rotate(100.000000) translate(-1059.849086, -603.596578) translate(882.349086, 437.596578)" fill-rule="nonzero">
                <path d="M199.061007,316.193359 C214.705862,276.013715 240.391444,242.216398 271.681153,220.313415 C280.671107,214.076142 299.234778,204.502652 299.001273,204.792758 C298.184004,206.243287 297.366736,207.693816 296.549467,208.999291 C294.798177,211.900349 293.046888,214.801406 291.178845,217.702463 C290.478329,218.862886 290.595082,220.748573 290.711835,222.054049 C290.711835,222.344155 291.295598,225.390265 291.762608,224.519948 C294.564672,219.878256 297.366736,215.091512 299.935294,210.304767 C301.569831,207.258657 304.138389,202.036754 301.803336,198.410432 C300.986068,197.104956 299.585036,197.250009 298.417509,197.395062 C296.082456,197.685168 293.747403,198.265379 291.412351,198.700538 C286.508739,199.570855 281.605128,200.586225 276.701517,201.746648 C276.001001,201.891701 276.117754,205.663075 276.81827,205.518023 C281.138118,205.082864 285.574718,204.502652 289.894566,203.922441 C276.468012,210.44982 263.741973,219.878256 252.066709,230.612168 C237.472628,243.957032 224.513084,260.348006 213.77184,278.76972 C207.817455,289.068473 202.563586,299.947438 198.126986,311.406615 C197.659975,312.567038 197.659975,314.017566 197.89348,315.323042 C198.010233,315.758201 198.593996,317.353782 199.061007,316.193359 Z M300.402304,202.471912 C300.402304,202.471912 300.402304,202.616965 300.402304,202.471912 C300.519057,202.616965 300.402304,202.616965 300.402304,202.762018 C300.402304,202.762018 300.402304,202.616965 300.402304,202.471912 Z" id="Shape" fill="#4A6BDD" transform="translate(250.240101, 256.955878) rotate(-62.000000) translate(-250.240101, -256.955878) "></path>
                <path d="M4.61246366,122.37383 C20.2573183,82.1941862 45.9429007,48.3968685 77.23261,26.4938857 C86.2225638,20.2566125 104.786235,10.6831234 104.552729,10.9732291 C103.735461,12.4237578 102.918192,13.8742864 102.100924,15.1797622 C100.349634,18.0808195 98.5983444,20.9818768 96.730302,23.8829342 C96.0297862,25.0433571 96.1465388,26.9290443 96.2632915,28.2345201 C96.2632915,28.5246259 96.8470547,31.5707361 97.3140653,30.7004189 C100.116129,26.0587272 102.918192,21.2719826 105.486751,16.485238 C107.121288,13.4391278 109.689846,8.21722465 107.354793,4.590903 C106.537524,3.28542721 105.136493,3.43048008 103.968966,3.57553294 C101.633913,3.86563867 99.2988603,4.44585014 96.9638073,4.88100873 C92.0601962,5.75132593 87.156585,6.76669599 82.2529738,7.92711892 C81.5524579,8.07217178 81.6692106,11.8435463 82.3697265,11.6984934 C86.6895744,11.2633348 91.126175,10.6831234 95.4460229,10.1029119 C82.0194685,16.6302909 69.29343,26.0587272 57.6181653,36.7926392 C43.0240845,50.1375029 30.0645407,66.5284767 19.3232972,84.9501907 C13.3689122,95.2489442 8.11504307,106.127909 3.67844249,117.587086 C3.2114319,118.747508 3.2114319,120.198037 3.44493719,121.503513 C3.56168984,121.938671 4.14545307,123.534253 4.61246366,122.37383 Z M105.953761,8.65238325 C105.953761,8.65238325 105.953761,8.79743611 105.953761,8.65238325 C106.070514,8.79743611 105.953761,8.79743611 105.953761,8.94248898 C105.953761,8.94248898 105.953761,8.79743611 105.953761,8.65238325 Z" id="Shape-Copy" fill="#4AA0DD" transform="translate(55.791558, 63.136349) rotate(183.000000) translate(-55.791558, -63.136349) "></path>
                <path d="M225.49838,260.825377 C241.143235,220.645734 266.828817,186.848416 298.118526,164.945433 C307.10848,158.70816 325.672151,149.134671 325.438646,149.424776 C324.621377,150.875305 323.804109,152.325834 322.98684,153.63131 C321.23555,156.532367 319.484261,159.433424 317.616218,162.334482 C316.915702,163.494904 317.032455,165.380592 317.149208,166.686068 C317.149208,166.976173 317.732971,170.022283 318.199982,169.151966 C321.002045,164.510275 323.804109,159.72353 326.372667,154.936785 C328.007204,151.890675 330.575762,146.668772 328.240709,143.04245 C327.423441,141.736975 326.022409,141.882027 324.854882,142.02708 C322.519829,142.317186 320.184777,142.897398 317.849724,143.332556 C312.946112,144.202873 308.042501,145.218243 303.13889,146.378666 C302.438374,146.523719 302.555127,150.295094 303.255643,150.150041 C307.575491,149.714882 312.012091,149.134671 316.331939,148.554459 C302.905385,155.081838 290.179346,164.510275 278.504082,175.244187 C263.910001,188.58905 250.950457,204.980024 240.209213,223.401738 C234.254828,233.700492 229.000959,244.579456 224.564359,256.038633 C224.097348,257.199056 224.097348,258.649584 224.330853,259.95506 C224.447606,260.390219 225.031369,261.9858 225.49838,260.825377 Z M326.839677,147.103931 C326.839677,147.103931 326.839677,147.248983 326.839677,147.103931 C326.95643,147.248983 326.839677,147.248983 326.839677,147.394036 C326.839677,147.394036 326.839677,147.248983 326.839677,147.103931 Z" id="Shape-Copy-4" fill="#4AA0DD" transform="translate(276.677474, 201.587896) rotate(120.000000) translate(-276.677474, -201.587896) "></path>
            </g>
            <polygon id="Path-4" fill="#90C6EC" points="1213 671 1239 629 1226 629 1203 650"></polygon>
        </g>
    </g>
</svg>