<svg width="876" height="109" viewBox="0 0 876 109" fill="none" xmlns="http://www.w3.org/2000/svg">
    <path
        d="M530.5 20.5H345.5C340.529 20.5 336.5 24.5294 336.5 29.5V71.5C336.5 76.4706 340.529 80.5 345.5 80.5H530.5C535.471 80.5 539.5 76.4706 539.5 71.5V29.5C539.5 24.5294 535.471 20.5 530.5 20.5Z"
        fill="#BB1F4E" />
    <path
        d="M371.836 43V59H368.914L361.953 48.9297H361.836V59H358.453V43H361.422L368.328 53.0625H368.469V43H371.836ZM379.99 59.2344C378.777 59.2344 377.727 58.9766 376.842 58.4609C375.962 57.9401 375.282 57.2161 374.803 56.2891C374.324 55.3568 374.084 54.276 374.084 53.0469C374.084 51.8073 374.324 50.724 374.803 49.7969C375.282 48.8646 375.962 48.1406 376.842 47.625C377.727 47.1042 378.777 46.8438 379.99 46.8438C381.204 46.8438 382.251 47.1042 383.131 47.625C384.016 48.1406 384.699 48.8646 385.178 49.7969C385.657 50.724 385.896 51.8073 385.896 53.0469C385.896 54.276 385.657 55.3568 385.178 56.2891C384.699 57.2161 384.016 57.9401 383.131 58.4609C382.251 58.9766 381.204 59.2344 379.99 59.2344ZM380.006 56.6562C380.558 56.6562 381.019 56.5 381.389 56.1875C381.758 55.8698 382.037 55.4375 382.225 54.8906C382.417 54.3437 382.514 53.7214 382.514 53.0234C382.514 52.3255 382.417 51.7031 382.225 51.1562C382.037 50.6094 381.758 50.1771 381.389 49.8594C381.019 49.5417 380.558 49.3828 380.006 49.3828C379.449 49.3828 378.98 49.5417 378.6 49.8594C378.225 50.1771 377.941 50.6094 377.748 51.1562C377.561 51.7031 377.467 52.3255 377.467 53.0234C377.467 53.7214 377.561 54.3437 377.748 54.8906C377.941 55.4375 378.225 55.8698 378.6 56.1875C378.98 56.5 379.449 56.6562 380.006 56.6562ZM392.482 59.1953C391.571 59.1953 390.745 58.9609 390.006 58.4922C389.271 58.0182 388.688 57.3229 388.256 56.4062C387.829 55.4844 387.615 54.3542 387.615 53.0156C387.615 51.6406 387.837 50.4974 388.279 49.5859C388.722 48.6693 389.311 47.9844 390.045 47.5313C390.785 47.0729 391.594 46.8438 392.475 46.8438C393.146 46.8438 393.706 46.9583 394.154 47.1875C394.607 47.4115 394.972 47.6927 395.248 48.0312C395.529 48.3646 395.743 48.6927 395.889 49.0156H395.99V43H399.311V59H396.029V57.0781H395.889C395.732 57.4115 395.511 57.7422 395.225 58.0703C394.943 58.3932 394.576 58.6615 394.123 58.875C393.675 59.0885 393.128 59.1953 392.482 59.1953ZM393.537 56.5469C394.074 56.5469 394.527 56.401 394.896 56.1094C395.271 55.8125 395.558 55.3984 395.756 54.8672C395.959 54.3359 396.061 53.7135 396.061 53C396.061 52.2865 395.962 51.6667 395.764 51.1406C395.566 50.6146 395.279 50.2083 394.904 49.9219C394.529 49.6354 394.074 49.4922 393.537 49.4922C392.99 49.4922 392.529 49.6406 392.154 49.9375C391.779 50.2344 391.495 50.6458 391.303 51.1719C391.11 51.6979 391.014 52.3073 391.014 53C391.014 53.6979 391.11 54.3151 391.303 54.8516C391.501 55.3828 391.785 55.7995 392.154 56.1016C392.529 56.3984 392.99 56.5469 393.537 56.5469ZM407.516 59.2344C406.281 59.2344 405.219 58.9844 404.328 58.4844C403.443 57.9792 402.76 57.2656 402.281 56.3437C401.802 55.4167 401.563 54.3203 401.563 53.0547C401.563 51.8203 401.802 50.737 402.281 49.8047C402.76 48.8724 403.435 48.1458 404.305 47.625C405.18 47.1042 406.206 46.8438 407.383 46.8438C408.174 46.8438 408.911 46.9714 409.594 47.2266C410.281 47.4766 410.88 47.8542 411.391 48.3594C411.906 48.8646 412.307 49.5 412.594 50.2656C412.88 51.026 413.023 51.9167 413.023 52.9375V53.8516H402.891V51.7891H409.891C409.891 51.3099 409.786 50.8854 409.578 50.5156C409.37 50.1458 409.081 49.8568 408.711 49.6484C408.346 49.4349 407.922 49.3281 407.438 49.3281C406.932 49.3281 406.484 49.4453 406.094 49.6797C405.708 49.9089 405.406 50.2187 405.188 50.6094C404.969 50.9948 404.857 51.4245 404.852 51.8984V53.8594C404.852 54.4531 404.961 54.9661 405.18 55.3984C405.404 55.8307 405.719 56.1641 406.125 56.3984C406.531 56.6328 407.013 56.75 407.57 56.75C407.94 56.75 408.279 56.6979 408.586 56.5938C408.893 56.4896 409.156 56.3333 409.375 56.125C409.594 55.9167 409.76 55.6615 409.875 55.3594L412.953 55.5625C412.797 56.3021 412.477 56.9479 411.992 57.5C411.513 58.0469 410.893 58.474 410.133 58.7813C409.378 59.0833 408.505 59.2344 407.516 59.2344ZM422.164 42.25L417.008 61.4062H414.141L419.297 42.25H422.164ZM434.439 48.1719C434.33 47.7917 434.176 47.4557 433.979 47.1641C433.781 46.8672 433.538 46.6172 433.252 46.4141C432.971 46.2057 432.648 46.0469 432.283 45.9375C431.924 45.8281 431.525 45.7734 431.088 45.7734C430.27 45.7734 429.551 45.9766 428.932 46.3828C428.317 46.7891 427.838 47.3802 427.494 48.1562C427.15 48.9271 426.979 49.8698 426.979 50.9844C426.979 52.099 427.148 53.0469 427.486 53.8281C427.825 54.6094 428.304 55.2057 428.924 55.6172C429.544 56.0234 430.275 56.2266 431.119 56.2266C431.885 56.2266 432.538 56.0911 433.08 55.8203C433.627 55.5443 434.044 55.1562 434.33 54.6562C434.622 54.1562 434.768 53.5651 434.768 52.8828L435.455 52.9844H431.33V50.4375H438.025V52.4531C438.025 53.8594 437.729 55.0677 437.135 56.0781C436.541 57.0833 435.723 57.8594 434.682 58.4062C433.64 58.9479 432.447 59.2187 431.104 59.2187C429.604 59.2187 428.286 58.888 427.15 58.2266C426.015 57.5599 425.13 56.6146 424.494 55.3906C423.864 54.1615 423.549 52.7031 423.549 51.0156C423.549 49.7187 423.736 48.5625 424.111 47.5469C424.492 46.526 425.023 45.6615 425.705 44.9531C426.387 44.2448 427.182 43.7057 428.088 43.3359C428.994 42.9661 429.976 42.7812 431.033 42.7812C431.939 42.7812 432.783 42.9141 433.564 43.1797C434.346 43.4401 435.038 43.8099 435.643 44.2891C436.252 44.7682 436.749 45.3385 437.135 46C437.52 46.6562 437.768 47.3802 437.877 48.1719H434.439ZM440.504 59V47H443.73V49.0937H443.855C444.074 48.349 444.441 47.7865 444.957 47.4063C445.473 47.0208 446.066 46.8281 446.738 46.8281C446.905 46.8281 447.085 46.8385 447.277 46.8594C447.47 46.8802 447.639 46.9089 447.785 46.9453V49.8984C447.629 49.8516 447.413 49.8099 447.137 49.7734C446.861 49.737 446.608 49.7188 446.379 49.7188C445.889 49.7188 445.452 49.8255 445.066 50.0391C444.686 50.2474 444.384 50.5391 444.16 50.9141C443.941 51.2891 443.832 51.7214 443.832 52.2109V59H440.504ZM452.584 59.2266C451.818 59.2266 451.136 59.0938 450.537 58.8281C449.938 58.5573 449.464 58.1589 449.115 57.6328C448.771 57.1016 448.6 56.4401 448.6 55.6484C448.6 54.9818 448.722 54.4219 448.967 53.9687C449.212 53.5156 449.545 53.151 449.967 52.875C450.389 52.599 450.868 52.3906 451.404 52.25C451.946 52.1094 452.514 52.0104 453.107 51.9531C453.805 51.8802 454.368 51.8125 454.795 51.75C455.222 51.6823 455.532 51.5833 455.725 51.4531C455.917 51.3229 456.014 51.1302 456.014 50.875V50.8281C456.014 50.3333 455.857 49.9505 455.545 49.6797C455.238 49.4089 454.8 49.2734 454.232 49.2734C453.633 49.2734 453.157 49.4062 452.803 49.6719C452.449 49.9323 452.214 50.2604 452.1 50.6562L449.021 50.4062C449.178 49.6771 449.485 49.0469 449.943 48.5156C450.402 47.9792 450.993 47.5677 451.717 47.2812C452.446 46.9896 453.29 46.8438 454.248 46.8438C454.915 46.8438 455.553 46.9219 456.162 47.0781C456.777 47.2344 457.321 47.4766 457.795 47.8047C458.274 48.1328 458.652 48.5547 458.928 49.0703C459.204 49.5807 459.342 50.1927 459.342 50.9062V59H456.186V57.3359H456.092C455.899 57.7109 455.641 58.0417 455.318 58.3281C454.995 58.6094 454.607 58.8307 454.154 58.9922C453.701 59.1484 453.178 59.2266 452.584 59.2266ZM453.537 56.9297C454.027 56.9297 454.459 56.8333 454.834 56.6406C455.209 56.4427 455.503 56.1771 455.717 55.8438C455.93 55.5104 456.037 55.1328 456.037 54.7109V53.4375C455.933 53.5052 455.79 53.5677 455.607 53.625C455.43 53.6771 455.23 53.7266 455.006 53.7734C454.782 53.8151 454.558 53.8542 454.334 53.8906C454.11 53.9219 453.907 53.9505 453.725 53.9766C453.334 54.0339 452.993 54.125 452.701 54.25C452.41 54.375 452.183 54.5443 452.021 54.7578C451.86 54.9661 451.779 55.2266 451.779 55.5391C451.779 55.9922 451.943 56.3385 452.271 56.5781C452.605 56.8125 453.027 56.9297 453.537 56.9297ZM461.924 63.5V47H465.205V49.0156H465.354C465.499 48.6927 465.71 48.3646 465.986 48.0312C466.268 47.6927 466.632 47.4115 467.08 47.1875C467.533 46.9583 468.096 46.8438 468.768 46.8438C469.643 46.8438 470.45 47.0729 471.189 47.5313C471.929 47.9844 472.52 48.6693 472.963 49.5859C473.406 50.4974 473.627 51.6406 473.627 53.0156C473.627 54.3542 473.411 55.4844 472.979 56.4062C472.551 57.3229 471.968 58.0182 471.229 58.4922C470.494 58.9609 469.671 59.1953 468.76 59.1953C468.114 59.1953 467.564 59.0885 467.111 58.875C466.663 58.6615 466.296 58.3932 466.01 58.0703C465.723 57.7422 465.505 57.4115 465.354 57.0781H465.252V63.5H461.924ZM465.182 53C465.182 53.7135 465.281 54.3359 465.479 54.8672C465.676 55.3984 465.963 55.8125 466.338 56.1094C466.713 56.401 467.169 56.5469 467.705 56.5469C468.247 56.5469 468.705 56.3984 469.08 56.1016C469.455 55.7995 469.739 55.3828 469.932 54.8516C470.13 54.3151 470.229 53.6979 470.229 53C470.229 52.3073 470.132 51.6979 469.939 51.1719C469.747 50.6458 469.463 50.2344 469.088 49.9375C468.713 49.6406 468.252 49.4922 467.705 49.4922C467.163 49.4922 466.705 49.6354 466.33 49.9219C465.96 50.2083 465.676 50.6146 465.479 51.1406C465.281 51.6667 465.182 52.2865 465.182 53ZM479.174 52.0625V59H475.846V43H479.08V49.1172H479.221C479.492 48.4089 479.929 47.8542 480.533 47.4531C481.137 47.0469 481.895 46.8438 482.807 46.8438C483.64 46.8438 484.367 47.026 484.986 47.3906C485.611 47.75 486.096 48.2682 486.439 48.9453C486.788 49.6172 486.96 50.4219 486.955 51.3594V59H483.627V51.9531C483.632 51.2135 483.445 50.638 483.064 50.2266C482.689 49.8151 482.163 49.6094 481.486 49.6094C481.033 49.6094 480.632 49.7057 480.283 49.8984C479.939 50.0911 479.669 50.3724 479.471 50.7422C479.278 51.1068 479.179 51.5469 479.174 52.0625ZM495.676 53.4375H498.551L499.996 55.2969L501.418 56.9531L504.098 60.3125H500.941L499.098 58.0469L498.152 56.7031L495.676 53.4375ZM504.34 51C504.34 52.7448 504.009 54.2292 503.348 55.4531C502.691 56.6771 501.796 57.612 500.66 58.2578C499.53 58.8984 498.259 59.2187 496.848 59.2187C495.426 59.2187 494.15 58.8958 493.02 58.25C491.889 57.6042 490.996 56.6693 490.34 55.4453C489.684 54.2214 489.355 52.7396 489.355 51C489.355 49.2552 489.684 47.7708 490.34 46.5469C490.996 45.3229 491.889 44.3906 493.02 43.75C494.15 43.1042 495.426 42.7812 496.848 42.7812C498.259 42.7812 499.53 43.1042 500.66 43.75C501.796 44.3906 502.691 45.3229 503.348 46.5469C504.009 47.7708 504.34 49.2552 504.34 51ZM500.91 51C500.91 49.8698 500.741 48.9167 500.402 48.1406C500.069 47.3646 499.598 46.776 498.988 46.375C498.379 45.974 497.665 45.7734 496.848 45.7734C496.03 45.7734 495.316 45.974 494.707 46.375C494.098 46.776 493.624 47.3646 493.285 48.1406C492.952 48.9167 492.785 49.8698 492.785 51C492.785 52.1302 492.952 53.0833 493.285 53.8594C493.624 54.6354 494.098 55.224 494.707 55.625C495.316 56.026 496.03 56.2266 496.848 56.2266C497.665 56.2266 498.379 56.026 498.988 55.625C499.598 55.224 500.069 54.6354 500.402 53.8594C500.741 53.0833 500.91 52.1302 500.91 51ZM506.846 59V43H510.229V56.2109H517.088V59H506.846Z"
        fill="white" />
    <path
        d="M866.5 20.5H681.5C676.529 20.5 672.5 24.5294 672.5 29.5V71.5C672.5 76.4706 676.529 80.5 681.5 80.5H866.5C871.471 80.5 875.5 76.4706 875.5 71.5V29.5C875.5 24.5294 871.471 20.5 866.5 20.5Z"
        fill="#BB1F4E" />
    <path
        d="M733.609 43H737.781L742.188 53.75H742.375L746.781 43H750.953V59H747.672V48.5859H747.539L743.398 58.9219H741.164L737.023 48.5469H736.891V59H733.609V43ZM757.1 59.2266C756.334 59.2266 755.652 59.0938 755.053 58.8281C754.454 58.5573 753.98 58.1589 753.631 57.6328C753.287 57.1016 753.115 56.4401 753.115 55.6484C753.115 54.9818 753.238 54.4219 753.482 53.9687C753.727 53.5156 754.061 53.151 754.482 52.875C754.904 52.599 755.383 52.3906 755.92 52.25C756.462 52.1094 757.029 52.0104 757.623 51.9531C758.321 51.8802 758.883 51.8125 759.311 51.75C759.738 51.6823 760.048 51.5833 760.24 51.4531C760.433 51.3229 760.529 51.1302 760.529 50.875V50.8281C760.529 50.3333 760.373 49.9505 760.061 49.6797C759.753 49.4089 759.316 49.2734 758.748 49.2734C758.149 49.2734 757.673 49.4062 757.318 49.6719C756.964 49.9323 756.73 50.2604 756.615 50.6562L753.537 50.4062C753.693 49.6771 754.001 49.0469 754.459 48.5156C754.917 47.9792 755.508 47.5677 756.232 47.2812C756.962 46.9896 757.805 46.8438 758.764 46.8438C759.43 46.8438 760.068 46.9219 760.678 47.0781C761.292 47.2344 761.837 47.4766 762.311 47.8047C762.79 48.1328 763.167 48.5547 763.443 49.0703C763.719 49.5807 763.857 50.1927 763.857 50.9062V59H760.701V57.3359H760.607C760.415 57.7109 760.157 58.0417 759.834 58.3281C759.511 58.6094 759.123 58.8307 758.67 58.9922C758.217 59.1484 757.693 59.2266 757.1 59.2266ZM758.053 56.9297C758.542 56.9297 758.975 56.8333 759.35 56.6406C759.725 56.4427 760.019 56.1771 760.232 55.8438C760.446 55.5104 760.553 55.1328 760.553 54.7109V53.4375C760.449 53.5052 760.305 53.5677 760.123 53.625C759.946 53.6771 759.745 53.7266 759.521 53.7734C759.298 53.8151 759.074 53.8542 758.85 53.8906C758.626 53.9219 758.423 53.9505 758.24 53.9766C757.85 54.0339 757.508 54.125 757.217 54.25C756.925 54.375 756.699 54.5443 756.537 54.7578C756.376 54.9661 756.295 55.2266 756.295 55.5391C756.295 55.9922 756.459 56.3385 756.787 56.5781C757.12 56.8125 757.542 56.9297 758.053 56.9297ZM771.846 63.75C770.768 63.75 769.843 63.6016 769.072 63.3047C768.307 63.013 767.697 62.6146 767.244 62.1094C766.791 61.6042 766.497 61.0365 766.361 60.4062L769.439 59.9922C769.533 60.2318 769.682 60.4557 769.885 60.6641C770.088 60.8724 770.356 61.0391 770.689 61.1641C771.028 61.2943 771.439 61.3594 771.924 61.3594C772.648 61.3594 773.244 61.1823 773.713 60.8281C774.187 60.4792 774.424 59.8932 774.424 59.0703V56.875H774.283C774.137 57.2083 773.919 57.5234 773.627 57.8203C773.335 58.1172 772.96 58.3594 772.502 58.5469C772.044 58.7344 771.497 58.8281 770.861 58.8281C769.96 58.8281 769.14 58.6198 768.4 58.2031C767.666 57.7812 767.08 57.138 766.643 56.2734C766.21 55.4036 765.994 54.3047 765.994 52.9766C765.994 51.6172 766.215 50.4818 766.658 49.5703C767.101 48.6589 767.689 47.9766 768.424 47.5234C769.163 47.0703 769.973 46.8438 770.854 46.8438C771.525 46.8438 772.088 46.9583 772.541 47.1875C772.994 47.4115 773.359 47.6927 773.635 48.0312C773.916 48.3646 774.132 48.6927 774.283 49.0156H774.408V47H777.713V59.1172C777.713 60.138 777.463 60.9922 776.963 61.6797C776.463 62.3672 775.77 62.8828 774.885 63.2266C774.005 63.5755 772.992 63.75 771.846 63.75ZM771.916 56.3281C772.452 56.3281 772.906 56.1953 773.275 55.9297C773.65 55.6589 773.937 55.2734 774.135 54.7734C774.338 54.2682 774.439 53.6641 774.439 52.9609C774.439 52.2578 774.34 51.6484 774.143 51.1328C773.945 50.612 773.658 50.2083 773.283 49.9219C772.908 49.6354 772.452 49.4922 771.916 49.4922C771.369 49.4922 770.908 49.6406 770.533 49.9375C770.158 50.2292 769.874 50.6354 769.682 51.1562C769.489 51.6771 769.393 52.2786 769.393 52.9609C769.393 53.6536 769.489 54.2526 769.682 54.7578C769.88 55.2578 770.163 55.6458 770.533 55.9219C770.908 56.1927 771.369 56.3281 771.916 56.3281ZM785.83 59.2344C784.596 59.2344 783.533 58.9844 782.643 58.4844C781.757 57.9792 781.075 57.2656 780.596 56.3437C780.117 55.4167 779.877 54.3203 779.877 53.0547C779.877 51.8203 780.117 50.737 780.596 49.8047C781.075 48.8724 781.749 48.1458 782.619 47.625C783.494 47.1042 784.52 46.8438 785.697 46.8438C786.489 46.8438 787.226 46.9714 787.908 47.2266C788.596 47.4766 789.195 47.8542 789.705 48.3594C790.221 48.8646 790.622 49.5 790.908 50.2656C791.195 51.026 791.338 51.9167 791.338 52.9375V53.8516H781.205V51.7891H788.205C788.205 51.3099 788.101 50.8854 787.893 50.5156C787.684 50.1458 787.395 49.8568 787.025 49.6484C786.661 49.4349 786.236 49.3281 785.752 49.3281C785.247 49.3281 784.799 49.4453 784.408 49.6797C784.023 49.9089 783.721 50.2187 783.502 50.6094C783.283 50.9948 783.171 51.4245 783.166 51.8984V53.8594C783.166 54.4531 783.275 54.9661 783.494 55.3984C783.718 55.8307 784.033 56.1641 784.439 56.3984C784.846 56.6328 785.327 56.75 785.885 56.75C786.255 56.75 786.593 56.6979 786.9 56.5938C787.208 56.4896 787.471 56.3333 787.689 56.125C787.908 55.9167 788.075 55.6615 788.189 55.3594L791.268 55.5625C791.111 56.3021 790.791 56.9479 790.307 57.5C789.827 58.0469 789.208 58.474 788.447 58.7813C787.692 59.0833 786.82 59.2344 785.83 59.2344ZM796.838 52.0625V59H793.51V47H796.682V49.1172H796.822C797.088 48.4193 797.533 47.8672 798.158 47.4609C798.783 47.0495 799.541 46.8438 800.432 46.8438C801.265 46.8438 801.992 47.026 802.611 47.3906C803.231 47.7552 803.713 48.276 804.057 48.9531C804.4 49.625 804.572 50.4271 804.572 51.3594V59H801.244V51.9531C801.249 51.2187 801.062 50.6458 800.682 50.2344C800.301 49.8177 799.778 49.6094 799.111 49.6094C798.663 49.6094 798.268 49.7057 797.924 49.8984C797.585 50.0911 797.32 50.3724 797.127 50.7422C796.939 51.1068 796.843 51.5469 796.838 52.0625ZM813.578 47V49.5H806.352V47H813.578ZM807.992 44.125H811.32V55.3125C811.32 55.6198 811.367 55.8594 811.461 56.0312C811.555 56.1979 811.685 56.3151 811.852 56.3828C812.023 56.4505 812.221 56.4844 812.445 56.4844C812.602 56.4844 812.758 56.4714 812.914 56.4453C813.07 56.4141 813.19 56.3906 813.273 56.375L813.797 58.8516C813.63 58.9036 813.396 58.9635 813.094 59.0313C812.792 59.1042 812.424 59.1484 811.992 59.1641C811.19 59.1953 810.487 59.0885 809.883 58.8437C809.284 58.599 808.818 58.2187 808.484 57.7031C808.151 57.1875 807.987 56.5365 807.992 55.75V44.125ZM821.039 59.2344C819.826 59.2344 818.776 58.9766 817.891 58.4609C817.01 57.9401 816.331 57.2161 815.852 56.2891C815.372 55.3568 815.133 54.276 815.133 53.0469C815.133 51.8073 815.372 50.724 815.852 49.7969C816.331 48.8646 817.01 48.1406 817.891 47.625C818.776 47.1042 819.826 46.8438 821.039 46.8438C822.253 46.8438 823.299 47.1042 824.18 47.625C825.065 48.1406 825.747 48.8646 826.227 49.7969C826.706 50.724 826.945 51.8073 826.945 53.0469C826.945 54.276 826.706 55.3568 826.227 56.2891C825.747 57.2161 825.065 57.9401 824.18 58.4609C823.299 58.9766 822.253 59.2344 821.039 59.2344ZM821.055 56.6562C821.607 56.6562 822.068 56.5 822.438 56.1875C822.807 55.8698 823.086 55.4375 823.273 54.8906C823.466 54.3437 823.563 53.7214 823.563 53.0234C823.563 52.3255 823.466 51.7031 823.273 51.1562C823.086 50.6094 822.807 50.1771 822.438 49.8594C822.068 49.5417 821.607 49.3828 821.055 49.3828C820.497 49.3828 820.029 49.5417 819.648 49.8594C819.273 50.1771 818.99 50.6094 818.797 51.1562C818.609 51.7031 818.516 52.3255 818.516 53.0234C818.516 53.7214 818.609 54.3437 818.797 54.8906C818.99 55.4375 819.273 55.8698 819.648 56.1875C820.029 56.5 820.497 56.6562 821.055 56.6562Z"
        fill="white" />
    <path
        d="M194.5 20.5H9.5C4.52944 20.5 0.5 24.5294 0.5 29.5V71.5C0.5 76.4706 4.52944 80.5 9.5 80.5H194.5C199.471 80.5 203.5 76.4706 203.5 71.5V29.5C203.5 24.5294 199.471 20.5 194.5 20.5Z"
        fill="#BB1F4E" />
    <path
        d="M66.582 59V43H72.8945C74.1029 43 75.1341 43.2161 75.9883 43.6484C76.8477 44.0755 77.5013 44.6823 77.9492 45.4688C78.4023 46.25 78.6289 47.1693 78.6289 48.2266C78.6289 49.2891 78.3997 50.2031 77.9414 50.9687C77.4831 51.7292 76.819 52.3125 75.9492 52.7187C75.0846 53.125 74.0378 53.3281 72.8086 53.3281H68.582V50.6094H72.2617C72.9076 50.6094 73.444 50.5208 73.8711 50.3438C74.2982 50.1667 74.6159 49.901 74.8242 49.5469C75.0378 49.1927 75.1445 48.7526 75.1445 48.2266C75.1445 47.6953 75.0378 47.2474 74.8242 46.8828C74.6159 46.5182 74.2956 46.2422 73.8633 46.0547C73.4362 45.862 72.8971 45.7656 72.2461 45.7656H69.9648V59H66.582ZM75.2227 51.7188L79.1992 59H75.4648L71.5742 51.7188H75.2227ZM86.2324 59.2344C84.998 59.2344 83.9355 58.9844 83.0449 58.4844C82.1595 57.9792 81.4772 57.2656 80.998 56.3437C80.5189 55.4167 80.2793 54.3203 80.2793 53.0547C80.2793 51.8203 80.5189 50.737 80.998 49.8047C81.4772 48.8724 82.1517 48.1458 83.0215 47.625C83.8965 47.1042 84.9225 46.8438 86.0996 46.8438C86.8913 46.8438 87.6283 46.9714 88.3105 47.2266C88.998 47.4766 89.597 47.8542 90.1074 48.3594C90.623 48.8646 91.0241 49.5 91.3105 50.2656C91.597 51.026 91.7402 51.9167 91.7402 52.9375V53.8516H81.6074V51.7891H88.6074C88.6074 51.3099 88.5033 50.8854 88.2949 50.5156C88.0866 50.1458 87.7975 49.8568 87.4277 49.6484C87.0632 49.4349 86.6387 49.3281 86.1543 49.3281C85.6491 49.3281 85.2012 49.4453 84.8105 49.6797C84.4251 49.9089 84.123 50.2187 83.9043 50.6094C83.6855 50.9948 83.5736 51.4245 83.5684 51.8984V53.8594C83.5684 54.4531 83.6777 54.9661 83.8965 55.3984C84.1204 55.8307 84.4355 56.1641 84.8418 56.3984C85.248 56.6328 85.7298 56.75 86.2871 56.75C86.6569 56.75 86.9954 56.6979 87.3027 56.5938C87.61 56.4896 87.873 56.3333 88.0918 56.125C88.3105 55.9167 88.4772 55.6615 88.5918 55.3594L91.6699 55.5625C91.5137 56.3021 91.1934 56.9479 90.709 57.5C90.2298 58.0469 89.61 58.474 88.8496 58.7813C88.0944 59.0833 87.222 59.2344 86.2324 59.2344ZM97.334 59.2266C96.5684 59.2266 95.8861 59.0938 95.2871 58.8281C94.6882 58.5573 94.2142 58.1589 93.8652 57.6328C93.5215 57.1016 93.3496 56.4401 93.3496 55.6484C93.3496 54.9818 93.472 54.4219 93.7168 53.9687C93.9616 53.5156 94.2949 53.151 94.7168 52.875C95.1387 52.599 95.6178 52.3906 96.1543 52.25C96.696 52.1094 97.2637 52.0104 97.8574 51.9531C98.5553 51.8802 99.1178 51.8125 99.5449 51.75C99.972 51.6823 100.282 51.5833 100.475 51.4531C100.667 51.3229 100.764 51.1302 100.764 50.875V50.8281C100.764 50.3333 100.607 49.9505 100.295 49.6797C99.9876 49.4089 99.5501 49.2734 98.9824 49.2734C98.3835 49.2734 97.9069 49.4062 97.5527 49.6719C97.1986 49.9323 96.9642 50.2604 96.8496 50.6562L93.7715 50.4062C93.9277 49.6771 94.235 49.0469 94.6934 48.5156C95.1517 47.9792 95.7428 47.5677 96.4668 47.2812C97.196 46.9896 98.0397 46.8438 98.998 46.8438C99.6647 46.8438 100.303 46.9219 100.912 47.0781C101.527 47.2344 102.071 47.4766 102.545 47.8047C103.024 48.1328 103.402 48.5547 103.678 49.0703C103.954 49.5807 104.092 50.1927 104.092 50.9062V59H100.936V57.3359H100.842C100.649 57.7109 100.391 58.0417 100.068 58.3281C99.7454 58.6094 99.3574 58.8307 98.9043 58.9922C98.4512 59.1484 97.9277 59.2266 97.334 59.2266ZM98.2871 56.9297C98.7767 56.9297 99.209 56.8333 99.584 56.6406C99.959 56.4427 100.253 56.1771 100.467 55.8438C100.68 55.5104 100.787 55.1328 100.787 54.7109V53.4375C100.683 53.5052 100.54 53.5677 100.357 53.625C100.18 53.6771 99.9798 53.7266 99.7559 53.7734C99.5319 53.8151 99.3079 53.8542 99.084 53.8906C98.86 53.9219 98.6569 53.9505 98.4746 53.9766C98.084 54.0339 97.7428 54.125 97.4512 54.25C97.1595 54.375 96.9329 54.5443 96.7715 54.7578C96.61 54.9661 96.5293 55.2266 96.5293 55.5391C96.5293 55.9922 96.6934 56.3385 97.0215 56.5781C97.3548 56.8125 97.7767 56.9297 98.2871 56.9297ZM112.096 59.2344C110.867 59.2344 109.809 58.974 108.924 58.4531C108.044 57.9271 107.367 57.1979 106.893 56.2656C106.424 55.3333 106.189 54.2604 106.189 53.0469C106.189 51.8177 106.426 50.7396 106.9 49.8125C107.38 48.8802 108.059 48.1536 108.939 47.6328C109.82 47.1068 110.867 46.8438 112.08 46.8438C113.127 46.8438 114.044 47.0339 114.83 47.4141C115.617 47.7943 116.239 48.3281 116.697 49.0156C117.156 49.7031 117.408 50.5104 117.455 51.4375H114.314C114.226 50.8385 113.992 50.3568 113.611 49.9922C113.236 49.6224 112.744 49.4375 112.135 49.4375C111.619 49.4375 111.169 49.5781 110.783 49.8594C110.403 50.1354 110.106 50.5391 109.893 51.0703C109.679 51.6016 109.572 52.2448 109.572 53C109.572 53.7656 109.676 54.4167 109.885 54.9531C110.098 55.4896 110.398 55.8984 110.783 56.1797C111.169 56.4609 111.619 56.6016 112.135 56.6016C112.515 56.6016 112.856 56.5234 113.158 56.3672C113.465 56.2109 113.718 55.9844 113.916 55.6875C114.119 55.3854 114.252 55.0234 114.314 54.6016H117.455C117.403 55.5182 117.153 56.3255 116.705 57.0234C116.262 57.7161 115.65 58.2578 114.869 58.6484C114.088 59.0391 113.163 59.2344 112.096 59.2344ZM125.969 47V49.5H118.742V47H125.969ZM120.383 44.125H123.711V55.3125C123.711 55.6198 123.758 55.8594 123.852 56.0312C123.945 56.1979 124.076 56.3151 124.242 56.3828C124.414 56.4505 124.612 56.4844 124.836 56.4844C124.992 56.4844 125.148 56.4714 125.305 56.4453C125.461 56.4141 125.581 56.3906 125.664 56.375L126.188 58.8516C126.021 58.9036 125.786 58.9635 125.484 59.0313C125.182 59.1042 124.815 59.1484 124.383 59.1641C123.581 59.1953 122.878 59.0885 122.273 58.8437C121.674 58.599 121.208 58.2187 120.875 57.7031C120.542 57.1875 120.378 56.5365 120.383 55.75V44.125Z"
        fill="white" />
    <path d="M203.5 35.5C247.5 25.5 289.153 24.9 328.46 33.7" stroke="currentColor" stroke-width="2"
        stroke-miterlimit="10" />
    <path d="M334.32 35.01L325.64 37.17L328.46 33.7L327.39 29.36L334.32 35.01Z" fill="currentColor"
        stroke="currentColor" stroke-width="2" stroke-miterlimit="10" />
    <path d="M539.17 35.67C583.39 25.5567 625.157 24.95 664.47 33.85" stroke="currentColor" stroke-width="2"
        stroke-miterlimit="10" />
    <path d="M670.32 35.17L661.63 37.31L664.47 33.85L663.4 29.51L670.32 35.17Z" fill="currentColor"
        stroke="currentColor" stroke-width="2" stroke-miterlimit="10" />
    <path d="M672.5 65.5C630.5 75.5 588.85 76.0767 547.55 67.23" stroke="currentColor" stroke-width="2"
        stroke-miterlimit="10" />
    <path d="M541.69 65.97L550.35 63.73L547.55 67.23L548.67 71.56L541.69 65.97Z" fill="currentColor"
        stroke="currentColor" stroke-width="2" stroke-miterlimit="10" />
    <path d="M336.33 60.67C294.443 70.5567 252.963 71.1267 211.89 62.38" stroke="currentColor" stroke-width="2"
        stroke-miterlimit="10" />
    <path d="M206.02 61.13L214.68 58.89L211.89 62.38L213.01 66.71L206.02 61.13Z" fill="currentColor"
        stroke="currentColor" stroke-width="2" stroke-miterlimit="10" />
    <path
        d="M233.388 8.09091V19H232.067V9.47585H232.003L229.339 11.2443V9.90199L232.067 8.09091H233.388ZM238.838 19.0852C238.576 19.0852 238.35 18.9911 238.162 18.8029C237.974 18.6147 237.879 18.3892 237.879 18.1264C237.879 17.8636 237.974 17.6381 238.162 17.4499C238.35 17.2617 238.576 17.1676 238.838 17.1676C239.101 17.1676 239.327 17.2617 239.515 17.4499C239.703 17.6381 239.797 17.8636 239.797 18.1264C239.797 18.3004 239.753 18.4602 239.664 18.6058C239.579 18.7514 239.463 18.8686 239.318 18.9574C239.176 19.0426 239.016 19.0852 238.838 19.0852ZM247.223 8.09091H248.8L252.507 17.1463H252.635L256.343 8.09091H257.919V19H256.684V10.7116H256.577L253.168 19H251.975L248.566 10.7116H248.459V19H247.223V8.09091ZM265.554 15.6548V10.8182H266.811V19H265.554V17.6151H265.469C265.277 18.0305 264.979 18.3839 264.574 18.6751C264.169 18.9627 263.658 19.1065 263.04 19.1065C262.528 19.1065 262.074 18.9947 261.676 18.771C261.278 18.5437 260.966 18.2028 260.739 17.7482C260.511 17.2901 260.398 16.7131 260.398 16.017V10.8182H261.655V15.9318C261.655 16.5284 261.822 17.0043 262.155 17.3594C262.493 17.7145 262.922 17.892 263.445 17.892C263.757 17.892 264.075 17.8121 264.398 17.6523C264.725 17.4925 264.998 17.2475 265.218 16.9173C265.442 16.587 265.554 16.1662 265.554 15.6548ZM272.672 10.8182V11.8835H268.432V10.8182H272.672ZM269.667 8.85795H270.925V16.6562C270.925 17.0114 270.976 17.2777 271.079 17.4553C271.186 17.6293 271.32 17.7464 271.484 17.8068C271.651 17.8636 271.827 17.892 272.011 17.892C272.15 17.892 272.263 17.8849 272.352 17.8707C272.441 17.853 272.512 17.8388 272.565 17.8281L272.821 18.9574C272.736 18.9893 272.617 19.0213 272.464 19.0533C272.311 19.0888 272.118 19.1065 271.883 19.1065C271.528 19.1065 271.18 19.0302 270.839 18.8775C270.502 18.7248 270.221 18.4922 269.998 18.1797C269.778 17.8672 269.667 17.473 269.667 16.9972V8.85795ZM276.97 19.1918C276.452 19.1918 275.981 19.0941 275.559 18.8988C275.136 18.6999 274.801 18.4141 274.552 18.0412C274.303 17.6648 274.179 17.2102 274.179 16.6776C274.179 16.2088 274.271 15.8288 274.456 15.5376C274.641 15.2429 274.888 15.0121 275.197 14.8452C275.506 14.6783 275.846 14.554 276.219 14.4723C276.596 14.3871 276.974 14.3196 277.354 14.2699C277.851 14.206 278.254 14.158 278.563 14.1261C278.876 14.0906 279.103 14.032 279.245 13.9503C279.39 13.8686 279.463 13.7266 279.463 13.5241V13.4815C279.463 12.956 279.319 12.5476 279.032 12.2564C278.748 11.9652 278.316 11.8196 277.737 11.8196C277.137 11.8196 276.667 11.951 276.326 12.2138C275.985 12.4766 275.745 12.7571 275.607 13.0554L274.414 12.6293C274.627 12.1321 274.911 11.745 275.266 11.468C275.624 11.1875 276.015 10.9922 276.438 10.8821C276.864 10.7685 277.283 10.7116 277.695 10.7116C277.958 10.7116 278.259 10.7436 278.6 10.8075C278.945 10.8679 279.277 10.994 279.596 11.1857C279.92 11.3775 280.188 11.6669 280.401 12.054C280.614 12.4411 280.72 12.9595 280.72 13.6094V19H279.463V17.892H279.399C279.314 18.0696 279.172 18.2596 278.973 18.462C278.774 18.6644 278.51 18.8366 278.18 18.9787C277.849 19.1207 277.446 19.1918 276.97 19.1918ZM277.162 18.0625C277.659 18.0625 278.078 17.9648 278.419 17.7695C278.764 17.5742 279.023 17.3221 279.197 17.0131C279.374 16.7042 279.463 16.3793 279.463 16.0384V14.8878C279.41 14.9517 279.293 15.0103 279.112 15.0636C278.934 15.1133 278.728 15.1577 278.494 15.1967C278.263 15.2322 278.037 15.2642 277.817 15.2926C277.601 15.3175 277.425 15.3388 277.29 15.3565C276.963 15.3991 276.658 15.4684 276.374 15.5643C276.093 15.6566 275.866 15.7969 275.692 15.9851C275.521 16.1697 275.436 16.4219 275.436 16.7415C275.436 17.1783 275.598 17.5085 275.921 17.7322C276.248 17.9524 276.661 18.0625 277.162 18.0625ZM286.573 10.8182V11.8835H282.333V10.8182H286.573ZM283.569 8.85795H284.826V16.6562C284.826 17.0114 284.877 17.2777 284.98 17.4553C285.087 17.6293 285.222 17.7464 285.385 17.8068C285.552 17.8636 285.728 17.892 285.913 17.892C286.051 17.892 286.165 17.8849 286.253 17.8707C286.342 17.853 286.413 17.8388 286.467 17.8281L286.722 18.9574C286.637 18.9893 286.518 19.0213 286.365 19.0533C286.213 19.0888 286.019 19.1065 285.785 19.1065C285.43 19.1065 285.082 19.0302 284.741 18.8775C284.403 18.7248 284.123 18.4922 283.899 18.1797C283.679 17.8672 283.569 17.473 283.569 16.9972V8.85795ZM288.464 19V10.8182H289.721V19H288.464ZM289.103 9.45455C288.858 9.45455 288.647 9.37109 288.469 9.20419C288.295 9.03729 288.208 8.83665 288.208 8.60227C288.208 8.3679 288.295 8.16726 288.469 8.00035C288.647 7.83345 288.858 7.75 289.103 7.75C289.348 7.75 289.558 7.83345 289.732 8.00035C289.909 8.16726 289.998 8.3679 289.998 8.60227C289.998 8.83665 289.909 9.03729 289.732 9.20419C289.558 9.37109 289.348 9.45455 289.103 9.45455ZM295.347 19.1705C294.609 19.1705 293.961 18.9947 293.403 18.6431C292.849 18.2915 292.416 17.7997 292.104 17.1676C291.795 16.5355 291.64 15.7969 291.64 14.9517C291.64 14.0994 291.795 13.3555 292.104 12.7198C292.416 12.0842 292.849 11.5906 293.403 11.239C293.961 10.8874 294.609 10.7116 295.347 10.7116C296.086 10.7116 296.732 10.8874 297.286 11.239C297.844 11.5906 298.277 12.0842 298.586 12.7198C298.899 13.3555 299.055 14.0994 299.055 14.9517C299.055 15.7969 298.899 16.5355 298.586 17.1676C298.277 17.7997 297.844 18.2915 297.286 18.6431C296.732 18.9947 296.086 19.1705 295.347 19.1705ZM295.347 18.0412C295.909 18.0412 296.37 17.8974 296.732 17.6097C297.095 17.3221 297.363 16.9439 297.537 16.4751C297.711 16.0064 297.798 15.4986 297.798 14.9517C297.798 14.4048 297.711 13.8952 297.537 13.4229C297.363 12.9506 297.095 12.5689 296.732 12.2777C296.37 11.9865 295.909 11.8409 295.347 11.8409C294.786 11.8409 294.325 11.9865 293.963 12.2777C293.6 12.5689 293.332 12.9506 293.158 13.4229C292.984 13.8952 292.897 14.4048 292.897 14.9517C292.897 15.4986 292.984 16.0064 293.158 16.4751C293.332 16.9439 293.6 17.3221 293.963 17.6097C294.325 17.8974 294.786 18.0412 295.347 18.0412ZM302.231 14.0781V19H300.974V10.8182H302.188V12.0966H302.295C302.487 11.6811 302.778 11.3473 303.168 11.0952C303.559 10.8395 304.063 10.7116 304.681 10.7116C305.235 10.7116 305.72 10.8253 306.135 11.0526C306.551 11.2763 306.874 11.6172 307.105 12.0753C307.336 12.5298 307.451 13.1051 307.451 13.8011V19H306.194V13.8864C306.194 13.2436 306.027 12.7429 305.693 12.3842C305.359 12.022 304.901 11.8409 304.319 11.8409C303.918 11.8409 303.559 11.9279 303.243 12.1019C302.93 12.2759 302.684 12.5298 302.503 12.8636C302.321 13.1974 302.231 13.6023 302.231 14.0781Z"
        fill="currentColor" />
    <path
        d="M558.59 19V18.0412L562.191 14.0994C562.613 13.6378 562.961 13.2365 563.235 12.8956C563.508 12.5511 563.71 12.228 563.842 11.9261C563.977 11.6207 564.044 11.3011 564.044 10.9673C564.044 10.5838 563.952 10.2518 563.767 9.97124C563.586 9.6907 563.338 9.47408 563.022 9.32138C562.705 9.16868 562.35 9.09233 561.956 9.09233C561.537 9.09233 561.171 9.17933 560.859 9.35334C560.55 9.52379 560.31 9.76349 560.14 10.0724C559.973 10.3814 559.889 10.7436 559.889 11.1591H558.632C558.632 10.5199 558.78 9.95881 559.074 9.47585C559.369 8.9929 559.77 8.61648 560.278 8.34659C560.79 8.0767 561.363 7.94176 561.999 7.94176C562.638 7.94176 563.204 8.0767 563.698 8.34659C564.192 8.61648 564.579 8.98047 564.859 9.43857C565.14 9.89666 565.28 10.4062 565.28 10.9673C565.28 11.3686 565.207 11.761 565.062 12.1445C564.92 12.5245 564.671 12.9489 564.316 13.4176C563.964 13.8828 563.476 14.451 562.851 15.1222L560.401 17.7429V17.8281H565.472V19H558.59ZM568.609 19.0852C568.346 19.0852 568.121 18.9911 567.933 18.8029C567.745 18.6147 567.65 18.3892 567.65 18.1264C567.65 17.8636 567.745 17.6381 567.933 17.4499C568.121 17.2617 568.346 17.1676 568.609 17.1676C568.872 17.1676 569.098 17.2617 569.286 17.4499C569.474 17.6381 569.568 17.8636 569.568 18.1264C569.568 18.3004 569.524 18.4602 569.435 18.6058C569.35 18.7514 569.234 18.8686 569.089 18.9574C568.947 19.0426 568.787 19.0852 568.609 19.0852ZM576.043 22.0682V10.8182H577.257V12.1179H577.406C577.499 11.9759 577.626 11.7947 577.79 11.5746C577.957 11.3509 578.195 11.152 578.504 10.978C578.816 10.8004 579.239 10.7116 579.771 10.7116C580.46 10.7116 581.068 10.8839 581.593 11.2283C582.119 11.5728 582.529 12.0611 582.824 12.6932C583.118 13.3253 583.266 14.071 583.266 14.9304C583.266 15.7969 583.118 16.5479 582.824 17.1836C582.529 17.8157 582.12 18.3058 581.598 18.6538C581.076 18.9982 580.474 19.1705 579.793 19.1705C579.267 19.1705 578.846 19.0835 578.53 18.9094C578.214 18.7319 577.971 18.5312 577.8 18.3075C577.63 18.0803 577.499 17.892 577.406 17.7429H577.3V22.0682H576.043ZM577.278 14.9091C577.278 15.527 577.369 16.0721 577.55 16.5444C577.731 17.0131 577.996 17.3807 578.344 17.647C578.692 17.9098 579.118 18.0412 579.622 18.0412C580.148 18.0412 580.586 17.9027 580.938 17.6257C581.293 17.3452 581.559 16.9687 581.737 16.4964C581.918 16.0206 582.009 15.4915 582.009 14.9091C582.009 14.3338 581.92 13.8153 581.742 13.3537C581.568 12.8885 581.304 12.521 580.949 12.2511C580.597 11.9776 580.155 11.8409 579.622 11.8409C579.111 11.8409 578.681 11.9705 578.333 12.2298C577.985 12.4854 577.722 12.8441 577.545 13.3058C577.367 13.7638 577.278 14.2983 577.278 14.9091ZM586.44 8.09091V19H585.183V8.09091H586.44ZM591.151 19.1918C590.632 19.1918 590.162 19.0941 589.739 18.8988C589.316 18.6999 588.981 18.4141 588.732 18.0412C588.484 17.6648 588.359 17.2102 588.359 16.6776C588.359 16.2088 588.452 15.8288 588.636 15.5376C588.821 15.2429 589.068 15.0121 589.377 14.8452C589.686 14.6783 590.027 14.554 590.399 14.4723C590.776 14.3871 591.154 14.3196 591.534 14.2699C592.031 14.206 592.434 14.158 592.743 14.1261C593.056 14.0906 593.283 14.032 593.425 13.9503C593.571 13.8686 593.643 13.7266 593.643 13.5241V13.4815C593.643 12.956 593.5 12.5476 593.212 12.2564C592.928 11.9652 592.496 11.8196 591.918 11.8196C591.317 11.8196 590.847 11.951 590.506 12.2138C590.165 12.4766 589.925 12.7571 589.787 13.0554L588.594 12.6293C588.807 12.1321 589.091 11.745 589.446 11.468C589.805 11.1875 590.195 10.9922 590.618 10.8821C591.044 10.7685 591.463 10.7116 591.875 10.7116C592.138 10.7116 592.44 10.7436 592.78 10.8075C593.125 10.8679 593.457 10.994 593.777 11.1857C594.1 11.3775 594.368 11.6669 594.581 12.054C594.794 12.4411 594.901 12.9595 594.901 13.6094V19H593.643V17.892H593.58C593.494 18.0696 593.352 18.2596 593.153 18.462C592.955 18.6644 592.69 18.8366 592.36 18.9787C592.029 19.1207 591.626 19.1918 591.151 19.1918ZM591.342 18.0625C591.839 18.0625 592.258 17.9648 592.599 17.7695C592.944 17.5742 593.203 17.3221 593.377 17.0131C593.555 16.7042 593.643 16.3793 593.643 16.0384V14.8878C593.59 14.9517 593.473 15.0103 593.292 15.0636C593.114 15.1133 592.908 15.1577 592.674 15.1967C592.443 15.2322 592.218 15.2642 591.997 15.2926C591.781 15.3175 591.605 15.3388 591.47 15.3565C591.143 15.3991 590.838 15.4684 590.554 15.5643C590.273 15.6566 590.046 15.7969 589.872 15.9851C589.702 16.1697 589.616 16.4219 589.616 16.7415C589.616 17.1783 589.778 17.5085 590.101 17.7322C590.428 17.9524 590.842 18.0625 591.342 18.0625ZM600.519 19.1705C599.752 19.1705 599.091 18.9893 598.537 18.6271C597.983 18.2649 597.557 17.766 597.259 17.1303C596.961 16.4947 596.811 15.7685 596.811 14.9517C596.811 14.1207 596.964 13.3874 597.27 12.7518C597.579 12.1126 598.008 11.6136 598.559 11.255C599.113 10.8928 599.759 10.7116 600.498 10.7116C601.073 10.7116 601.591 10.8182 602.053 11.0312C602.515 11.2443 602.893 11.5426 603.188 11.9261C603.482 12.3097 603.665 12.7571 603.736 13.2685H602.479C602.383 12.8956 602.17 12.5653 601.84 12.2777C601.513 11.9865 601.073 11.8409 600.519 11.8409C600.029 11.8409 599.599 11.9687 599.23 12.2244C598.864 12.4766 598.578 12.8335 598.372 13.2951C598.17 13.7532 598.069 14.2912 598.069 14.9091C598.069 15.5412 598.168 16.0916 598.367 16.5604C598.569 17.0291 598.853 17.3931 599.219 17.6523C599.588 17.9116 600.022 18.0412 600.519 18.0412C600.846 18.0412 601.142 17.9844 601.408 17.8707C601.675 17.7571 601.9 17.5938 602.085 17.3807C602.27 17.1676 602.401 16.9119 602.479 16.6136H603.736C603.665 17.0966 603.489 17.5316 603.209 17.9187C602.932 18.3022 602.564 18.6076 602.106 18.8349C601.652 19.0586 601.123 19.1705 600.519 19.1705ZM609.004 19.1705C608.216 19.1705 607.536 18.9964 606.964 18.6484C606.396 18.2969 605.957 17.8068 605.648 17.1783C605.343 16.5462 605.19 15.8111 605.19 14.973C605.19 14.1349 605.343 13.3963 605.648 12.7571C605.957 12.1143 606.387 11.6136 606.938 11.255C607.492 10.8928 608.138 10.7116 608.876 10.7116C609.303 10.7116 609.723 10.7827 610.139 10.9247C610.554 11.0668 610.933 11.2976 611.273 11.6172C611.614 11.9332 611.886 12.3523 612.088 12.8743C612.291 13.3963 612.392 14.0391 612.392 14.8026V15.3352H606.085V14.2486H611.114C611.114 13.7869 611.021 13.375 610.837 13.0128C610.656 12.6506 610.396 12.3647 610.059 12.1552C609.725 11.9457 609.331 11.8409 608.876 11.8409C608.376 11.8409 607.943 11.9652 607.577 12.2138C607.215 12.4588 606.936 12.7784 606.74 13.1726C606.545 13.5668 606.447 13.9893 606.447 14.4403V15.1648C606.447 15.7827 606.554 16.3065 606.767 16.7362C606.984 17.1623 607.284 17.4872 607.667 17.7109C608.051 17.9311 608.496 18.0412 609.004 18.0412C609.335 18.0412 609.633 17.995 609.899 17.9027C610.169 17.8068 610.402 17.6648 610.597 17.4766C610.792 17.2848 610.943 17.0469 611.05 16.7628L612.264 17.1037C612.136 17.5156 611.922 17.8778 611.62 18.1903C611.318 18.4993 610.945 18.7408 610.501 18.9148C610.057 19.0852 609.558 19.1705 609.004 19.1705ZM623.679 13.5455C623.679 14.696 623.472 15.6903 623.056 16.5284C622.641 17.3665 622.071 18.0128 621.346 18.4673C620.622 18.9219 619.794 19.1491 618.864 19.1491C617.934 19.1491 617.106 18.9219 616.382 18.4673C615.657 18.0128 615.087 17.3665 614.672 16.5284C614.256 15.6903 614.049 14.696 614.049 13.5455C614.049 12.3949 614.256 11.4006 614.672 10.5625C615.087 9.72443 615.657 9.07812 616.382 8.62358C617.106 8.16903 617.934 7.94176 618.864 7.94176C619.794 7.94176 620.622 8.16903 621.346 8.62358C622.071 9.07812 622.641 9.72443 623.056 10.5625C623.472 11.4006 623.679 12.3949 623.679 13.5455ZM622.401 13.5455C622.401 12.6009 622.243 11.8036 621.927 11.1538C621.614 10.5039 621.19 10.0121 620.654 9.67827C620.121 9.34446 619.525 9.17756 618.864 9.17756C618.204 9.17756 617.605 9.34446 617.069 9.67827C616.536 10.0121 616.112 10.5039 615.796 11.1538C615.483 11.8036 615.327 12.6009 615.327 13.5455C615.327 14.4901 615.483 15.2873 615.796 15.9371C616.112 16.587 616.536 17.0788 617.069 17.4126C617.605 17.7464 618.204 17.9134 618.864 17.9134C619.525 17.9134 620.121 17.7464 620.654 17.4126C621.19 17.0788 621.614 16.587 621.927 15.9371C622.243 15.2873 622.401 14.4901 622.401 13.5455ZM625.73 19V10.8182H626.945V12.054H627.03C627.179 11.6491 627.449 11.3207 627.84 11.0685C628.23 10.8164 628.67 10.6903 629.161 10.6903C629.253 10.6903 629.368 10.6921 629.507 10.6957C629.645 10.6992 629.75 10.7045 629.821 10.7116V11.9901C629.778 11.9794 629.681 11.9634 629.528 11.9421C629.379 11.9173 629.221 11.9048 629.054 11.9048C628.656 11.9048 628.301 11.9883 627.989 12.1552C627.68 12.3185 627.435 12.5458 627.254 12.837C627.076 13.1246 626.987 13.4531 626.987 13.8224V19H625.73ZM634.152 19.1705C633.47 19.1705 632.868 18.9982 632.346 18.6538C631.824 18.3058 631.416 17.8157 631.121 17.1836C630.826 16.5479 630.679 15.7969 630.679 14.9304C630.679 14.071 630.826 13.3253 631.121 12.6932C631.416 12.0611 631.826 11.5728 632.351 11.2283C632.877 10.8839 633.484 10.7116 634.173 10.7116C634.706 10.7116 635.126 10.8004 635.435 10.978C635.748 11.152 635.986 11.3509 636.149 11.5746C636.316 11.7947 636.446 11.9759 636.538 12.1179H636.645V8.09091H637.902V19H636.687V17.7429H636.538C636.446 17.892 636.314 18.0803 636.144 18.3075C635.973 18.5312 635.73 18.7319 635.414 18.9094C635.098 19.0835 634.677 19.1705 634.152 19.1705ZM634.322 18.0412C634.826 18.0412 635.253 17.9098 635.601 17.647C635.949 17.3807 636.213 17.0131 636.394 16.5444C636.575 16.0721 636.666 15.527 636.666 14.9091C636.666 14.2983 636.577 13.7638 636.4 13.3058C636.222 12.8441 635.959 12.4854 635.611 12.2298C635.263 11.9705 634.833 11.8409 634.322 11.8409C633.789 11.8409 633.346 11.9776 632.99 12.2511C632.639 12.521 632.374 12.8885 632.197 13.3537C632.023 13.8153 631.936 14.3338 631.936 14.9091C631.936 15.4915 632.025 16.0206 632.202 16.4964C632.383 16.9687 632.65 17.3452 633.001 17.6257C633.356 17.9027 633.797 18.0412 634.322 18.0412ZM643.809 19.1705C643.021 19.1705 642.341 18.9964 641.769 18.6484C641.201 18.2969 640.762 17.8068 640.453 17.1783C640.148 16.5462 639.995 15.8111 639.995 14.973C639.995 14.1349 640.148 13.3963 640.453 12.7571C640.762 12.1143 641.192 11.6136 641.742 11.255C642.296 10.8928 642.943 10.7116 643.681 10.7116C644.107 10.7116 644.528 10.7827 644.944 10.9247C645.359 11.0668 645.737 11.2976 646.078 11.6172C646.419 11.9332 646.691 12.3523 646.893 12.8743C647.096 13.3963 647.197 14.0391 647.197 14.8026V15.3352H640.89V14.2486H645.918C645.918 13.7869 645.826 13.375 645.641 13.0128C645.46 12.6506 645.201 12.3647 644.864 12.1552C644.53 11.9457 644.136 11.8409 643.681 11.8409C643.18 11.8409 642.747 11.9652 642.381 12.2138C642.019 12.4588 641.74 12.7784 641.545 13.1726C641.35 13.5668 641.252 13.9893 641.252 14.4403V15.1648C641.252 15.7827 641.359 16.3065 641.572 16.7362C641.788 17.1623 642.088 17.4872 642.472 17.7109C642.856 17.9311 643.301 18.0412 643.809 18.0412C644.139 18.0412 644.438 17.995 644.704 17.9027C644.974 17.8068 645.206 17.6648 645.402 17.4766C645.597 17.2848 645.748 17.0469 645.854 16.7628L647.069 17.1037C646.941 17.5156 646.726 17.8778 646.424 18.1903C646.123 18.4993 645.75 18.7408 645.306 18.9148C644.862 19.0852 644.363 19.1705 643.809 19.1705ZM649.109 19V10.8182H650.324V12.054H650.409C650.558 11.6491 650.828 11.3207 651.218 11.0685C651.609 10.8164 652.049 10.6903 652.539 10.6903C652.632 10.6903 652.747 10.6921 652.886 10.6957C653.024 10.6992 653.129 10.7045 653.2 10.7116V11.9901C653.157 11.9794 653.06 11.9634 652.907 11.9421C652.758 11.9173 652.6 11.9048 652.433 11.9048C652.035 11.9048 651.68 11.9883 651.368 12.1552C651.059 12.3185 650.814 12.5458 650.633 12.837C650.455 13.1246 650.366 13.4531 650.366 13.8224V19H649.109Z"
        fill="currentColor" />
    <path
        d="M575.935 99.1491C575.232 99.1491 574.606 99.0284 574.055 98.7869C573.508 98.5455 573.073 98.2099 572.75 97.7802C572.43 97.3469 572.256 96.8445 572.228 96.2727H573.57C573.599 96.6243 573.72 96.9279 573.933 97.1836C574.146 97.4357 574.424 97.631 574.769 97.7695C575.113 97.908 575.495 97.9773 575.914 97.9773C576.383 97.9773 576.798 97.8956 577.161 97.7322C577.523 97.5689 577.807 97.3416 578.013 97.0504C578.219 96.7592 578.322 96.4219 578.322 96.0384C578.322 95.6371 578.222 95.2837 578.024 94.9783C577.825 94.6694 577.533 94.4279 577.15 94.2539C576.766 94.0799 576.298 93.9929 575.744 93.9929H574.87V92.821H575.744C576.177 92.821 576.557 92.7429 576.884 92.5866C577.214 92.4304 577.471 92.2102 577.656 91.9261C577.844 91.642 577.938 91.3082 577.938 90.9247C577.938 90.5554 577.857 90.234 577.693 89.9606C577.53 89.6871 577.299 89.4741 577.001 89.3214C576.706 89.1687 576.358 89.0923 575.957 89.0923C575.58 89.0923 575.225 89.1616 574.891 89.3001C574.561 89.435 574.291 89.6321 574.082 89.8913C573.872 90.147 573.759 90.456 573.741 90.8182H572.462C572.484 90.2464 572.656 89.7457 572.979 89.3161C573.302 88.8828 573.725 88.5455 574.247 88.304C574.772 88.0625 575.35 87.9418 575.978 87.9418C576.653 87.9418 577.232 88.0785 577.715 88.3519C578.198 88.6218 578.569 88.9787 578.828 89.4226C579.087 89.8665 579.217 90.3459 579.217 90.8608C579.217 91.4751 579.055 91.9989 578.732 92.4322C578.412 92.8654 577.977 93.1655 577.427 93.3324V93.4176C578.116 93.5312 578.654 93.8242 579.041 94.2965C579.428 94.7653 579.622 95.3459 579.622 96.0384C579.622 96.6314 579.46 97.1641 579.137 97.6364C578.817 98.1051 578.38 98.4744 577.826 98.7443C577.272 99.0142 576.642 99.1491 575.935 99.1491ZM582.401 99.0852C582.138 99.0852 581.912 98.9911 581.724 98.8029C581.536 98.6147 581.442 98.3892 581.442 98.1264C581.442 97.8636 581.536 97.6381 581.724 97.4499C581.912 97.2617 582.138 97.1676 582.401 97.1676C582.664 97.1676 582.889 97.2617 583.077 97.4499C583.265 97.6381 583.36 97.8636 583.36 98.1264C583.36 98.3004 583.315 98.4602 583.226 98.6058C583.141 98.7514 583.026 98.8686 582.88 98.9574C582.738 99.0426 582.578 99.0852 582.401 99.0852ZM593.158 99.1705C592.419 99.1705 591.771 98.9947 591.214 98.6431C590.66 98.2915 590.227 97.7997 589.914 97.1676C589.605 96.5355 589.451 95.7969 589.451 94.9517C589.451 94.0994 589.605 93.3555 589.914 92.7198C590.227 92.0842 590.66 91.5906 591.214 91.239C591.771 90.8874 592.419 90.7116 593.158 90.7116C593.897 90.7116 594.543 90.8874 595.097 91.239C595.654 91.5906 596.088 92.0842 596.397 92.7198C596.709 93.3555 596.865 94.0994 596.865 94.9517C596.865 95.7969 596.709 96.5355 596.397 97.1676C596.088 97.7997 595.654 98.2915 595.097 98.6431C594.543 98.9947 593.897 99.1705 593.158 99.1705ZM593.158 98.0412C593.719 98.0412 594.181 97.8974 594.543 97.6097C594.905 97.3221 595.173 96.9439 595.347 96.4751C595.521 96.0064 595.608 95.4986 595.608 94.9517C595.608 94.4048 595.521 93.8952 595.347 93.4229C595.173 92.9506 594.905 92.5689 594.543 92.2777C594.181 91.9865 593.719 91.8409 593.158 91.8409C592.597 91.8409 592.135 91.9865 591.773 92.2777C591.411 92.5689 591.143 92.9506 590.969 93.4229C590.795 93.8952 590.708 94.4048 590.708 94.9517C590.708 95.4986 590.795 96.0064 590.969 96.4751C591.143 96.9439 591.411 97.3221 591.773 97.6097C592.135 97.8974 592.597 98.0412 593.158 98.0412ZM598.784 99V90.8182H599.999V92.054H600.084C600.233 91.6491 600.503 91.3207 600.894 91.0685C601.284 90.8164 601.725 90.6903 602.215 90.6903C602.307 90.6903 602.422 90.6921 602.561 90.6957C602.699 90.6992 602.804 90.7045 602.875 90.7116V91.9901C602.833 91.9794 602.735 91.9634 602.582 91.9421C602.433 91.9173 602.275 91.9048 602.108 91.9048C601.71 91.9048 601.355 91.9883 601.043 92.1552C600.734 92.3185 600.489 92.5458 600.308 92.837C600.13 93.1246 600.041 93.4531 600.041 93.8224V99H598.784ZM607.206 99.1705C606.524 99.1705 605.922 98.9982 605.4 98.6538C604.878 98.3058 604.47 97.8157 604.175 97.1836C603.88 96.5479 603.733 95.7969 603.733 94.9304C603.733 94.071 603.88 93.3253 604.175 92.6932C604.47 92.0611 604.88 91.5728 605.405 91.2283C605.931 90.8839 606.538 90.7116 607.227 90.7116C607.76 90.7116 608.181 90.8004 608.49 90.978C608.802 91.152 609.04 91.3509 609.203 91.5746C609.37 91.7947 609.5 91.9759 609.592 92.1179H609.699V88.0909H610.956V99H609.741V97.7429H609.592C609.5 97.892 609.369 98.0803 609.198 98.3075C609.028 98.5312 608.784 98.7319 608.468 98.9094C608.152 99.0835 607.731 99.1705 607.206 99.1705ZM607.376 98.0412C607.881 98.0412 608.307 97.9098 608.655 97.647C609.003 97.3807 609.267 97.0131 609.448 96.5444C609.63 96.0721 609.72 95.527 609.72 94.9091C609.72 94.2983 609.631 93.7638 609.454 93.3058C609.276 92.8441 609.013 92.4854 608.665 92.2298C608.317 91.9705 607.888 91.8409 607.376 91.8409C606.844 91.8409 606.4 91.9776 606.045 92.2511C605.693 92.521 605.429 92.8885 605.251 93.3537C605.077 93.8153 604.99 94.3338 604.99 94.9091C604.99 95.4915 605.079 96.0206 605.256 96.4964C605.437 96.9687 605.704 97.3452 606.055 97.6257C606.41 97.9027 606.851 98.0412 607.376 98.0412ZM616.863 99.1705C616.075 99.1705 615.395 98.9964 614.823 98.6484C614.255 98.2969 613.816 97.8068 613.507 97.1783C613.202 96.5462 613.049 95.8111 613.049 94.973C613.049 94.1349 613.202 93.3963 613.507 92.7571C613.816 92.1143 614.246 91.6136 614.796 91.255C615.35 90.8928 615.997 90.7116 616.735 90.7116C617.161 90.7116 617.582 90.7827 617.998 90.9247C618.413 91.0668 618.791 91.2976 619.132 91.6172C619.473 91.9332 619.745 92.3523 619.947 92.8743C620.15 93.3963 620.251 94.0391 620.251 94.8026V95.3352H613.944V94.2486H618.973C618.973 93.7869 618.88 93.375 618.696 93.0128C618.514 92.6506 618.255 92.3647 617.918 92.1552C617.584 91.9457 617.19 91.8409 616.735 91.8409C616.235 91.8409 615.801 91.9652 615.436 92.2138C615.073 92.4588 614.795 92.7784 614.599 93.1726C614.404 93.5668 614.306 93.9893 614.306 94.4403V95.1648C614.306 95.7827 614.413 96.3065 614.626 96.7362C614.843 97.1623 615.143 97.4872 615.526 97.7109C615.91 97.9311 616.355 98.0412 616.863 98.0412C617.193 98.0412 617.492 97.995 617.758 97.9027C618.028 97.8068 618.261 97.6648 618.456 97.4766C618.651 97.2848 618.802 97.0469 618.909 96.7628L620.123 97.1037C619.995 97.5156 619.78 97.8778 619.479 98.1903C619.177 98.4993 618.804 98.7408 618.36 98.9148C617.916 99.0852 617.417 99.1705 616.863 99.1705ZM622.163 99V90.8182H623.378V92.054H623.463C623.612 91.6491 623.882 91.3207 624.273 91.0685C624.663 90.8164 625.104 90.6903 625.594 90.6903C625.686 90.6903 625.801 90.6921 625.94 90.6957C626.078 90.6992 626.183 90.7045 626.254 90.7116V91.9901C626.212 91.9794 626.114 91.9634 625.961 91.9421C625.812 91.9173 625.654 91.9048 625.487 91.9048C625.089 91.9048 624.734 91.9883 624.422 92.1552C624.113 92.3185 623.868 92.5458 623.687 92.837C623.509 93.1246 623.42 93.4531 623.42 93.8224V99H622.163ZM629.236 88.0909V99H627.915V88.0909H629.236ZM634.804 99.1705C634.122 99.1705 633.52 98.9982 632.998 98.6538C632.476 98.3058 632.067 97.8157 631.773 97.1836C631.478 96.5479 631.331 95.7969 631.331 94.9304C631.331 94.071 631.478 93.3253 631.773 92.6932C632.067 92.0611 632.478 91.5728 633.003 91.2283C633.529 90.8839 634.136 90.7116 634.825 90.7116C635.358 90.7116 635.778 90.8004 636.087 90.978C636.4 91.152 636.638 91.3509 636.801 91.5746C636.968 91.7947 637.098 91.9759 637.19 92.1179H637.296V88.0909H638.554V99H637.339V97.7429H637.19C637.098 97.892 636.966 98.0803 636.796 98.3075C636.625 98.5312 636.382 98.7319 636.066 98.9094C635.75 99.0835 635.329 99.1705 634.804 99.1705ZM634.974 98.0412C635.478 98.0412 635.904 97.9098 636.252 97.647C636.6 97.3807 636.865 97.0131 637.046 96.5444C637.227 96.0721 637.318 95.527 637.318 94.9091C637.318 94.2983 637.229 93.7638 637.051 93.3058C636.874 92.8441 636.611 92.4854 636.263 92.2298C635.915 91.9705 635.485 91.8409 634.974 91.8409C634.441 91.8409 633.997 91.9776 633.642 92.2511C633.291 92.521 633.026 92.8885 632.849 93.3537C632.675 93.8153 632.588 94.3338 632.588 94.9091C632.588 95.4915 632.676 96.0206 632.854 96.4964C633.035 96.9687 633.301 97.3452 633.653 97.6257C634.008 97.9027 634.448 98.0412 634.974 98.0412Z"
        fill="currentColor" />
    <path
        d="M198.729 96.7628V95.6761L203.523 88.0909H204.311V89.7741H203.779L200.157 95.5057V95.5909H206.613V96.7628H198.729ZM203.864 99V96.4325V95.9265V88.0909H205.121V99H203.864ZM209.034 99.0852C208.771 99.0852 208.545 98.9911 208.357 98.8029C208.169 98.6147 208.075 98.3892 208.075 98.1264C208.075 97.8636 208.169 97.6381 208.357 97.4499C208.545 97.2617 208.771 97.1676 209.034 97.1676C209.296 97.1676 209.522 97.2617 209.71 97.4499C209.898 97.6381 209.992 97.8636 209.992 98.1264C209.992 98.3004 209.948 98.4602 209.859 98.6058C209.774 98.7514 209.659 98.8686 209.513 98.9574C209.371 99.0426 209.211 99.0852 209.034 99.0852ZM216.637 99V88.0909H220.324C221.179 88.0909 221.879 88.2454 222.422 88.5543C222.969 88.8597 223.374 89.2734 223.637 89.7955C223.9 90.3175 224.031 90.8999 224.031 91.5426C224.031 92.1854 223.9 92.7695 223.637 93.2951C223.377 93.8207 222.976 94.2397 222.433 94.5522C221.89 94.8612 221.194 95.0156 220.345 95.0156H217.703V93.8438H220.302C220.888 93.8438 221.359 93.7425 221.714 93.5401C222.069 93.3377 222.326 93.0643 222.486 92.7198C222.65 92.3718 222.731 91.9794 222.731 91.5426C222.731 91.1058 222.65 90.7152 222.486 90.3707C222.326 90.0263 222.067 89.7564 221.708 89.5611C221.35 89.3622 220.874 89.2628 220.281 89.2628H217.958V99H216.637ZM228.396 99.1918C227.878 99.1918 227.407 99.0941 226.985 98.8988C226.562 98.6999 226.226 98.4141 225.978 98.0412C225.729 97.6648 225.605 97.2102 225.605 96.6776C225.605 96.2088 225.697 95.8288 225.882 95.5376C226.067 95.2429 226.313 95.0121 226.622 94.8452C226.931 94.6783 227.272 94.554 227.645 94.4723C228.021 94.3871 228.4 94.3196 228.78 94.2699C229.277 94.206 229.68 94.158 229.989 94.1261C230.301 94.0906 230.529 94.032 230.671 93.9503C230.816 93.8686 230.889 93.7266 230.889 93.5241V93.4815C230.889 92.956 230.745 92.5476 230.458 92.2564C230.173 91.9652 229.742 91.8196 229.163 91.8196C228.563 91.8196 228.093 91.951 227.752 92.2138C227.411 92.4766 227.171 92.7571 227.032 93.0554L225.839 92.6293C226.052 92.1321 226.336 91.745 226.692 91.468C227.05 91.1875 227.441 90.9922 227.863 90.8821C228.29 90.7685 228.709 90.7116 229.121 90.7116C229.383 90.7116 229.685 90.7436 230.026 90.8075C230.371 90.8679 230.703 90.994 231.022 91.1857C231.345 91.3775 231.613 91.6669 231.827 92.054C232.04 92.4411 232.146 92.9595 232.146 93.6094V99H230.889V97.892H230.825C230.74 98.0696 230.598 98.2596 230.399 98.462C230.2 98.6644 229.936 98.8366 229.605 98.9787C229.275 99.1207 228.872 99.1918 228.396 99.1918ZM228.588 98.0625C229.085 98.0625 229.504 97.9648 229.845 97.7695C230.189 97.5742 230.449 97.3221 230.623 97.0131C230.8 96.7042 230.889 96.3793 230.889 96.0384V94.8878C230.836 94.9517 230.719 95.0103 230.537 95.0636C230.36 95.1133 230.154 95.1577 229.92 95.1967C229.689 95.2322 229.463 95.2642 229.243 95.2926C229.026 95.3175 228.851 95.3388 228.716 95.3565C228.389 95.3991 228.084 95.4684 227.8 95.5643C227.519 95.6566 227.292 95.7969 227.118 95.9851C226.947 96.1697 226.862 96.4219 226.862 96.7415C226.862 97.1783 227.024 97.5085 227.347 97.7322C227.673 97.9524 228.087 98.0625 228.588 98.0625ZM234.957 102.068C234.744 102.068 234.554 102.05 234.387 102.015C234.22 101.983 234.105 101.951 234.041 101.919L234.361 100.811C234.666 100.889 234.936 100.918 235.17 100.896C235.405 100.875 235.612 100.77 235.794 100.582C235.978 100.397 236.147 100.097 236.3 99.6818L236.534 99.0426L233.508 90.8182H234.872L237.131 97.3381H237.216L239.474 90.8182H240.838L237.365 100.193C237.209 100.616 237.015 100.966 236.784 101.243C236.554 101.523 236.285 101.731 235.98 101.866C235.678 102.001 235.337 102.068 234.957 102.068ZM242.497 99V90.8182H243.712V92.0966H243.818C243.989 91.6598 244.264 91.3207 244.644 91.0792C245.024 90.8342 245.48 90.7116 246.013 90.7116C246.553 90.7116 247.002 90.8342 247.361 91.0792C247.723 91.3207 248.005 91.6598 248.207 92.0966H248.293C248.502 91.674 248.816 91.3384 249.236 91.0898C249.655 90.8377 250.157 90.7116 250.743 90.7116C251.475 90.7116 252.073 90.9407 252.538 91.3988C253.003 91.8533 253.236 92.5618 253.236 93.5241V99H251.979V93.5241C251.979 92.9205 251.814 92.489 251.483 92.2298C251.153 91.9705 250.764 91.8409 250.317 91.8409C249.742 91.8409 249.296 92.0149 248.98 92.3629C248.664 92.7074 248.506 93.1442 248.506 93.6733V99H247.227V93.3963C247.227 92.9311 247.076 92.5565 246.775 92.2724C246.473 91.9847 246.084 91.8409 245.608 91.8409C245.281 91.8409 244.976 91.9279 244.692 92.1019C244.411 92.2759 244.184 92.5174 244.01 92.8263C243.84 93.1317 243.754 93.4851 243.754 93.8864V99H242.497ZM258.965 99.1705C258.176 99.1705 257.496 98.9964 256.925 98.6484C256.356 98.2969 255.918 97.8068 255.609 97.1783C255.304 96.5462 255.151 95.8111 255.151 94.973C255.151 94.1349 255.304 93.3963 255.609 92.7571C255.918 92.1143 256.348 91.6136 256.898 91.255C257.452 90.8928 258.098 90.7116 258.837 90.7116C259.263 90.7116 259.684 90.7827 260.099 90.9247C260.515 91.0668 260.893 91.2976 261.234 91.6172C261.575 91.9332 261.847 92.3523 262.049 92.8743C262.251 93.3963 262.353 94.0391 262.353 94.8026V95.3352H256.046V94.2486H261.074C261.074 93.7869 260.982 93.375 260.797 93.0128C260.616 92.6506 260.357 92.3647 260.019 92.1552C259.686 91.9457 259.291 91.8409 258.837 91.8409C258.336 91.8409 257.903 91.9652 257.537 92.2138C257.175 92.4588 256.896 92.7784 256.701 93.1726C256.506 93.5668 256.408 93.9893 256.408 94.4403V95.1648C256.408 95.7827 256.514 96.3065 256.728 96.7362C256.944 97.1623 257.244 97.4872 257.628 97.7109C258.011 97.9311 258.457 98.0412 258.965 98.0412C259.295 98.0412 259.593 97.995 259.86 97.9027C260.13 97.8068 260.362 97.6648 260.557 97.4766C260.753 97.2848 260.904 97.0469 261.01 96.7628L262.225 97.1037C262.097 97.5156 261.882 97.8778 261.58 98.1903C261.278 98.4993 260.905 98.7408 260.462 98.9148C260.018 99.0852 259.519 99.1705 258.965 99.1705ZM265.522 94.0781V99H264.265V90.8182H265.479V92.0966H265.586C265.778 91.6811 266.069 91.3473 266.459 91.0952C266.85 90.8395 267.354 90.7116 267.972 90.7116C268.526 90.7116 269.011 90.8253 269.426 91.0526C269.842 91.2763 270.165 91.6172 270.396 92.0753C270.627 92.5298 270.742 93.1051 270.742 93.8011V99H269.485V93.8864C269.485 93.2436 269.318 92.7429 268.984 92.3842C268.65 92.022 268.192 91.8409 267.61 91.8409C267.209 91.8409 266.85 91.9279 266.534 92.1019C266.222 92.2759 265.975 92.5298 265.794 92.8636C265.612 93.1974 265.522 93.6023 265.522 94.0781ZM276.597 90.8182V91.8835H272.357V90.8182H276.597ZM273.593 88.858H274.85V96.6562C274.85 97.0114 274.902 97.2777 275.005 97.4553C275.111 97.6293 275.246 97.7464 275.41 97.8068C275.577 97.8636 275.752 97.892 275.937 97.892C276.075 97.892 276.189 97.8849 276.278 97.8707C276.367 97.853 276.438 97.8388 276.491 97.8281L276.747 98.9574C276.661 98.9893 276.542 99.0213 276.39 99.0533C276.237 99.0888 276.044 99.1065 275.809 99.1065C275.454 99.1065 275.106 99.0302 274.765 98.8775C274.428 98.7248 274.147 98.4922 273.923 98.1797C273.703 97.8672 273.593 97.473 273.593 96.9972V88.858ZM288.844 90.8182C288.78 90.2784 288.52 89.8594 288.066 89.5611C287.611 89.2628 287.054 89.1136 286.393 89.1136C285.91 89.1136 285.488 89.1918 285.126 89.348C284.767 89.5043 284.486 89.7191 284.284 89.9925C284.085 90.266 283.986 90.5767 283.986 90.9247C283.986 91.2159 284.055 91.4663 284.193 91.6758C284.335 91.8817 284.517 92.054 284.737 92.1925C284.957 92.3274 285.188 92.4393 285.429 92.5281C285.671 92.6133 285.893 92.6825 286.095 92.7358L287.203 93.0341C287.487 93.1087 287.803 93.2116 288.151 93.343C288.503 93.4744 288.838 93.6538 289.158 93.881C289.481 94.1048 289.747 94.3924 289.957 94.744C290.166 95.0955 290.271 95.527 290.271 96.0384C290.271 96.6278 290.117 97.1605 289.808 97.6364C289.502 98.1122 289.055 98.4904 288.465 98.771C287.879 99.0515 287.167 99.1918 286.329 99.1918C285.548 99.1918 284.872 99.0657 284.3 98.8136C283.732 98.5614 283.284 98.2099 282.958 97.7589C282.634 97.3079 282.452 96.7841 282.409 96.1875H283.773C283.808 96.5994 283.947 96.9403 284.188 97.2102C284.433 97.4766 284.742 97.6754 285.115 97.8068C285.491 97.9347 285.896 97.9986 286.329 97.9986C286.834 97.9986 287.286 97.9169 287.688 97.7536C288.089 97.5866 288.407 97.3558 288.641 97.0611C288.876 96.7628 288.993 96.4148 288.993 96.017C288.993 95.6548 288.892 95.3601 288.689 95.1328C288.487 94.9055 288.22 94.7209 287.89 94.5788C287.56 94.4368 287.203 94.3125 286.819 94.206L285.477 93.8224C284.625 93.5774 283.95 93.2276 283.453 92.7731C282.956 92.3185 282.707 91.7237 282.707 90.9886C282.707 90.3778 282.872 89.8452 283.203 89.3906C283.536 88.9325 283.984 88.5774 284.545 88.3253C285.11 88.0696 285.74 87.9418 286.436 87.9418C287.139 87.9418 287.764 88.0678 288.311 88.32C288.858 88.5685 289.291 88.9094 289.611 89.3427C289.934 89.7759 290.104 90.2678 290.122 90.8182H288.844ZM297.429 95.6548V90.8182H298.686V99H297.429V97.6151H297.344C297.152 98.0305 296.854 98.3839 296.449 98.6751C296.044 98.9627 295.533 99.1065 294.915 99.1065C294.403 99.1065 293.949 98.9947 293.551 98.771C293.153 98.5437 292.841 98.2028 292.614 97.7482C292.386 97.2901 292.273 96.7131 292.273 96.017V90.8182H293.53V95.9318C293.53 96.5284 293.697 97.0043 294.03 97.3594C294.368 97.7145 294.797 97.892 295.32 97.892C295.632 97.892 295.95 97.8121 296.273 97.6523C296.6 97.4925 296.873 97.2475 297.093 96.9173C297.317 96.587 297.429 96.1662 297.429 95.6548ZM304.312 99.1705C303.545 99.1705 302.885 98.9893 302.331 98.6271C301.777 98.2649 301.351 97.766 301.052 97.1303C300.754 96.4947 300.605 95.7685 300.605 94.9517C300.605 94.1207 300.758 93.3874 301.063 92.7518C301.372 92.1126 301.802 91.6136 302.352 91.255C302.906 90.8928 303.552 90.7116 304.291 90.7116C304.866 90.7116 305.385 90.8182 305.846 91.0312C306.308 91.2443 306.686 91.5426 306.981 91.9261C307.276 92.3097 307.459 92.7571 307.53 93.2685H306.273C306.177 92.8956 305.964 92.5653 305.633 92.2777C305.307 91.9865 304.866 91.8409 304.312 91.8409C303.822 91.8409 303.393 91.9687 303.023 92.2244C302.657 92.4766 302.372 92.8335 302.166 93.2951C301.963 93.7532 301.862 94.2912 301.862 94.9091C301.862 95.5412 301.961 96.0916 302.16 96.5604C302.363 97.0291 302.647 97.3931 303.013 97.6523C303.382 97.9116 303.815 98.0412 304.312 98.0412C304.639 98.0412 304.936 97.9844 305.202 97.8707C305.468 97.7571 305.694 97.5938 305.878 97.3807C306.063 97.1676 306.194 96.9119 306.273 96.6136H307.53C307.459 97.0966 307.283 97.5316 307.002 97.9187C306.725 98.3022 306.358 98.6076 305.9 98.8349C305.445 99.0586 304.916 99.1705 304.312 99.1705ZM312.691 99.1705C311.924 99.1705 311.264 98.9893 310.71 98.6271C310.156 98.2649 309.73 97.766 309.431 97.1303C309.133 96.4947 308.984 95.7685 308.984 94.9517C308.984 94.1207 309.137 93.3874 309.442 92.7518C309.751 92.1126 310.181 91.6136 310.731 91.255C311.285 90.8928 311.931 90.7116 312.67 90.7116C313.245 90.7116 313.764 90.8182 314.225 91.0312C314.687 91.2443 315.065 91.5426 315.36 91.9261C315.655 92.3097 315.838 92.7571 315.909 93.2685H314.651C314.556 92.8956 314.343 92.5653 314.012 92.2777C313.686 91.9865 313.245 91.8409 312.691 91.8409C312.201 91.8409 311.771 91.9687 311.402 92.2244C311.036 92.4766 310.751 92.8335 310.545 93.2951C310.342 93.7532 310.241 94.2912 310.241 94.9091C310.241 95.5412 310.34 96.0916 310.539 96.5604C310.742 97.0291 311.026 97.3931 311.392 97.6523C311.761 97.9116 312.194 98.0412 312.691 98.0412C313.018 98.0412 313.314 97.9844 313.581 97.8707C313.847 97.7571 314.073 97.5938 314.257 97.3807C314.442 97.1676 314.573 96.9119 314.651 96.6136H315.909C315.838 97.0966 315.662 97.5316 315.381 97.9187C315.104 98.3022 314.737 98.6076 314.279 98.8349C313.824 99.0586 313.295 99.1705 312.691 99.1705ZM321.177 99.1705C320.388 99.1705 319.708 98.9964 319.137 98.6484C318.568 98.2969 318.13 97.8068 317.821 97.1783C317.515 96.5462 317.363 95.8111 317.363 94.973C317.363 94.1349 317.515 93.3963 317.821 92.7571C318.13 92.1143 318.559 91.6136 319.11 91.255C319.664 90.8928 320.31 90.7116 321.049 90.7116C321.475 90.7116 321.896 90.7827 322.311 90.9247C322.727 91.0668 323.105 91.2976 323.446 91.6172C323.787 91.9332 324.058 92.3523 324.261 92.8743C324.463 93.3963 324.564 94.0391 324.564 94.8026V95.3352H318.258V94.2486H323.286C323.286 93.7869 323.194 93.375 323.009 93.0128C322.828 92.6506 322.569 92.3647 322.231 92.1552C321.898 91.9457 321.503 91.8409 321.049 91.8409C320.548 91.8409 320.115 91.9652 319.749 92.2138C319.387 92.4588 319.108 92.7784 318.913 93.1726C318.718 93.5668 318.62 93.9893 318.62 94.4403V95.1648C318.62 95.7827 318.726 96.3065 318.939 96.7362C319.156 97.1623 319.456 97.4872 319.84 97.7109C320.223 97.9311 320.669 98.0412 321.177 98.0412C321.507 98.0412 321.805 97.995 322.072 97.9027C322.341 97.8068 322.574 97.6648 322.769 97.4766C322.965 97.2848 323.116 97.0469 323.222 96.7628L324.437 97.1037C324.309 97.5156 324.094 97.8778 323.792 98.1903C323.49 98.4993 323.117 98.7408 322.673 98.9148C322.23 99.0852 321.731 99.1705 321.177 99.1705ZM332.272 92.6506L331.143 92.9702C331.072 92.782 330.967 92.5991 330.829 92.4215C330.694 92.2404 330.509 92.0913 330.275 91.9741C330.04 91.8569 329.74 91.7983 329.374 91.7983C328.874 91.7983 328.456 91.9137 328.123 92.1445C327.792 92.3718 327.627 92.6612 327.627 93.0128C327.627 93.3253 327.741 93.5721 327.968 93.7532C328.195 93.9343 328.551 94.0852 329.034 94.206L330.248 94.5043C330.98 94.6818 331.525 94.9535 331.883 95.3192C332.242 95.6815 332.421 96.1484 332.421 96.7202C332.421 97.1889 332.286 97.608 332.017 97.9773C331.75 98.3466 331.377 98.6378 330.898 98.8509C330.419 99.0639 329.861 99.1705 329.225 99.1705C328.391 99.1705 327.7 98.9893 327.153 98.6271C326.606 98.2649 326.26 97.7358 326.115 97.0398L327.308 96.7415C327.421 97.1818 327.636 97.5121 327.952 97.7322C328.272 97.9524 328.689 98.0625 329.204 98.0625C329.79 98.0625 330.255 97.9382 330.6 97.6896C330.948 97.4375 331.122 97.1357 331.122 96.7841C331.122 96.5 331.022 96.2621 330.823 96.0703C330.624 95.875 330.319 95.7294 329.907 95.6335L328.544 95.3139C327.794 95.1364 327.244 94.8612 326.892 94.4883C326.544 94.1119 326.37 93.6413 326.37 93.0767C326.37 92.6151 326.5 92.2067 326.759 91.8516C327.022 91.4964 327.379 91.2177 327.83 91.0153C328.284 90.8129 328.799 90.7116 329.374 90.7116C330.184 90.7116 330.82 90.8892 331.281 91.2443C331.747 91.5994 332.077 92.0682 332.272 92.6506ZM340.109 92.6506L338.98 92.9702C338.909 92.782 338.804 92.5991 338.666 92.4215C338.531 92.2404 338.346 92.0913 338.112 91.9741C337.877 91.8569 337.577 91.7983 337.211 91.7983C336.711 91.7983 336.293 91.9137 335.96 92.1445C335.629 92.3718 335.464 92.6612 335.464 93.0128C335.464 93.3253 335.578 93.5721 335.805 93.7532C336.032 93.9343 336.388 94.0852 336.87 94.206L338.085 94.5043C338.816 94.6818 339.362 94.9535 339.72 95.3192C340.079 95.6815 340.258 96.1484 340.258 96.7202C340.258 97.1889 340.123 97.608 339.853 97.9773C339.587 98.3466 339.214 98.6378 338.735 98.8509C338.255 99.0639 337.698 99.1705 337.062 99.1705C336.228 99.1705 335.537 98.9893 334.99 98.6271C334.443 98.2649 334.097 97.7358 333.951 97.0398L335.145 96.7415C335.258 97.1818 335.473 97.5121 335.789 97.7322C336.109 97.9524 336.526 98.0625 337.041 98.0625C337.627 98.0625 338.092 97.9382 338.437 97.6896C338.785 97.4375 338.959 97.1357 338.959 96.7841C338.959 96.5 338.859 96.2621 338.66 96.0703C338.461 95.875 338.156 95.7294 337.744 95.6335L336.38 95.3139C335.631 95.1364 335.081 94.8612 334.729 94.4883C334.381 94.1119 334.207 93.6413 334.207 93.0767C334.207 92.6151 334.337 92.2067 334.596 91.8516C334.859 91.4964 335.216 91.2177 335.667 91.0153C336.121 90.8129 336.636 90.7116 337.211 90.7116C338.021 90.7116 338.657 90.8892 339.118 91.2443C339.584 91.5994 339.914 92.0682 340.109 92.6506Z"
        fill="currentColor" />
</svg>