<svg width="541" height="62" viewBox="0 0 541 62" fill="none" xmlns="http://www.w3.org/2000/svg">
<path d="M0.5 0.5H160.5L180.5 30.5L160.5 60.5H0.5L20.5 30.5L0.5 0.5Z" fill="#F1F2F3"/>
<path d="M52.9648 23.0909H55.8092L58.8135 30.4205H58.9413L61.9456 23.0909H64.79V34H62.5528V26.8995H62.4623L59.6391 33.9467H58.1157L55.2925 26.8729H55.202V34H52.9648V23.0909ZM68.9808 34.1545C68.4588 34.1545 67.9936 34.0639 67.5852 33.8828C67.1768 33.6982 66.8537 33.4265 66.6158 33.0678C66.3814 32.7056 66.2642 32.2546 66.2642 31.7148C66.2642 31.2603 66.3477 30.8786 66.5146 30.5696C66.6815 30.2607 66.9087 30.0121 67.1964 29.8239C67.484 29.6357 67.8107 29.4936 68.1765 29.3977C68.5458 29.3018 68.9329 29.2344 69.3377 29.1953C69.8136 29.1456 70.1971 29.0994 70.4883 29.0568C70.7795 29.0107 70.9908 28.9432 71.1222 28.8544C71.2536 28.7656 71.3192 28.6342 71.3192 28.4602V28.4283C71.3192 28.0909 71.2127 27.8299 70.9996 27.6452C70.7901 27.4606 70.4918 27.3683 70.1048 27.3683C69.6964 27.3683 69.3714 27.4588 69.13 27.6399C68.8885 27.8175 68.7287 28.0412 68.6506 28.3111L66.5518 28.1406C66.6584 27.6435 66.8679 27.2138 67.1804 26.8516C67.4929 26.4858 67.896 26.2053 68.3896 26.0099C68.8867 25.8111 69.462 25.7116 70.1154 25.7116C70.57 25.7116 71.005 25.7649 71.4205 25.8714C71.8395 25.978 72.2106 26.1431 72.5337 26.3668C72.8604 26.5906 73.1179 26.8782 73.3061 27.2298C73.4943 27.5778 73.5884 27.995 73.5884 28.4815V34H71.4364V32.8654H71.3725C71.2411 33.1211 71.0653 33.3466 70.8452 33.5419C70.625 33.7337 70.3604 33.8846 70.0515 33.9947C69.7425 34.1012 69.3857 34.1545 68.9808 34.1545ZM69.6307 32.5884C69.9645 32.5884 70.2592 32.5227 70.5149 32.3913C70.7706 32.2564 70.9712 32.0753 71.1168 31.848C71.2624 31.6207 71.3352 31.3633 71.3352 31.0756V30.2074C71.2642 30.2536 71.1665 30.2962 71.0423 30.3352C70.9215 30.3707 70.7848 30.4045 70.6321 30.4364C70.4794 30.4648 70.3267 30.4915 70.174 30.5163C70.0213 30.5376 69.8828 30.5572 69.7585 30.5749C69.4922 30.614 69.2596 30.6761 69.0607 30.7614C68.8619 30.8466 68.7074 30.962 68.5973 31.1076C68.4872 31.2496 68.4322 31.4272 68.4322 31.6403C68.4322 31.9492 68.544 32.1854 68.7678 32.3487C68.995 32.5085 69.2827 32.5884 69.6307 32.5884ZM79.035 37.2386C78.2999 37.2386 77.6696 37.1374 77.144 36.935C76.622 36.7362 76.2065 36.4645 75.8975 36.12C75.5886 35.7756 75.388 35.3885 75.2956 34.9588L77.3944 34.6765C77.4583 34.8398 77.5595 34.9925 77.698 35.1346C77.8365 35.2766 78.0194 35.3903 78.2466 35.4755C78.4775 35.5643 78.758 35.6087 79.0882 35.6087C79.5819 35.6087 79.9885 35.4879 80.3081 35.2464C80.6312 35.0085 80.7928 34.609 80.7928 34.0479V32.5511H80.6969C80.5975 32.7784 80.4483 32.9933 80.2495 33.1957C80.0506 33.3981 79.7949 33.5632 79.4824 33.6911C79.1699 33.8189 78.7971 33.8828 78.3638 33.8828C77.7495 33.8828 77.1902 33.7408 76.6859 33.4567C76.1852 33.169 75.7857 32.7305 75.4874 32.141C75.1926 31.5479 75.0453 30.7987 75.0453 29.8931C75.0453 28.9663 75.1962 28.1921 75.498 27.5707C75.7999 26.9492 76.2012 26.484 76.7019 26.1751C77.2061 25.8661 77.7583 25.7116 78.3585 25.7116C78.8166 25.7116 79.2001 25.7898 79.5091 25.946C79.818 26.0987 80.0666 26.2905 80.2548 26.5213C80.4466 26.7486 80.5939 26.9723 80.6969 27.1925H80.7821V25.8182H83.0353V34.0799C83.0353 34.7759 82.8649 35.3583 82.524 35.8271C82.1831 36.2958 81.7108 36.6474 81.1071 36.8817C80.5069 37.1197 79.8162 37.2386 79.035 37.2386ZM79.0829 32.1783C79.4487 32.1783 79.7576 32.0877 80.0098 31.9066C80.2654 31.7219 80.4608 31.4592 80.5957 31.1183C80.7342 30.7738 80.8034 30.3619 80.8034 29.8825C80.8034 29.4031 80.736 28.9876 80.601 28.636C80.4661 28.2809 80.2708 28.0057 80.0151 27.8104C79.7594 27.6151 79.4487 27.5174 79.0829 27.5174C78.71 27.5174 78.3958 27.6186 78.1401 27.821C77.8844 28.0199 77.6909 28.2969 77.5595 28.652C77.4281 29.0071 77.3624 29.4173 77.3624 29.8825C77.3624 30.3548 77.4281 30.7631 77.5595 31.1076C77.6944 31.4485 77.888 31.7131 78.1401 31.9013C78.3958 32.0859 78.71 32.1783 79.0829 32.1783ZM88.5698 34.1598C87.7282 34.1598 87.0037 33.9893 86.3965 33.6484C85.7928 33.304 85.3276 32.8175 85.0009 32.1889C84.6742 31.5568 84.5108 30.8093 84.5108 29.9464C84.5108 29.1048 84.6742 28.3661 85.0009 27.7305C85.3276 27.0948 85.7875 26.5994 86.3805 26.2443C86.9771 25.8892 87.6767 25.7116 88.4792 25.7116C89.019 25.7116 89.5215 25.7987 89.9867 25.9727C90.4554 26.1431 90.8638 26.4006 91.2118 26.745C91.5634 27.0895 91.8368 27.5227 92.0321 28.0447C92.2275 28.5632 92.3251 29.1705 92.3251 29.8665V30.4897H85.4164V29.0835H90.1891C90.1891 28.7567 90.1181 28.4673 89.976 28.2152C89.834 27.9631 89.6369 27.766 89.3848 27.6239C89.1362 27.4783 88.8468 27.4055 88.5165 27.4055C88.1721 27.4055 87.8667 27.4854 87.6003 27.6452C87.3375 27.8015 87.1316 28.0128 86.9824 28.2791C86.8333 28.5419 86.7569 28.8349 86.7534 29.158V30.495C86.7534 30.8999 86.8279 31.2496 86.9771 31.5444C87.1298 31.8391 87.3446 32.0664 87.6216 32.2262C87.8986 32.386 88.2271 32.4659 88.6071 32.4659C88.8592 32.4659 89.09 32.4304 89.2995 32.3594C89.5091 32.2884 89.6884 32.1818 89.8375 32.0398C89.9867 31.8977 90.1003 31.7237 90.1784 31.5178L92.2772 31.6562C92.1706 32.1605 91.9522 32.6009 91.622 32.9773C91.2953 33.3501 90.8727 33.6413 90.3542 33.8509C89.8393 34.0568 89.2445 34.1598 88.5698 34.1598ZM96.0751 29.2699V34H93.8059V25.8182H95.9686V27.2617H96.0645C96.2456 26.7859 96.5492 26.4094 96.9753 26.1325C97.4015 25.8519 97.9181 25.7116 98.5254 25.7116C99.0936 25.7116 99.589 25.8359 100.012 26.0845C100.434 26.3331 100.763 26.6882 100.997 27.1499C101.231 27.608 101.349 28.1548 101.349 28.7905V34H99.0794V29.1953C99.0829 28.6946 98.9551 28.304 98.6958 28.0234C98.4366 27.7393 98.0797 27.5973 97.6252 27.5973C97.3198 27.5973 97.0499 27.663 96.8155 27.7944C96.5847 27.9258 96.4036 28.1175 96.2722 28.3697C96.1444 28.6183 96.0787 28.9183 96.0751 29.2699ZM107.489 25.8182V27.5227H102.562V25.8182H107.489ZM103.68 23.858H105.949V31.4858C105.949 31.6953 105.981 31.8587 106.045 31.9759C106.109 32.0895 106.198 32.1694 106.312 32.2156C106.429 32.2617 106.564 32.2848 106.717 32.2848C106.823 32.2848 106.93 32.2759 107.036 32.2582C107.143 32.2369 107.224 32.2209 107.281 32.2102L107.638 33.8988C107.524 33.9343 107.365 33.9751 107.159 34.0213C106.953 34.071 106.702 34.1012 106.408 34.1119C105.861 34.1332 105.381 34.0604 104.969 33.8935C104.561 33.7266 104.243 33.4673 104.016 33.1158C103.789 32.7642 103.677 32.3203 103.68 31.7841V23.858ZM112.576 34.1598C111.748 34.1598 111.033 33.984 110.429 33.6325C109.829 33.2773 109.366 32.7837 109.039 32.1516C108.712 31.516 108.549 30.7791 108.549 29.9411C108.549 29.0959 108.712 28.3572 109.039 27.7251C109.366 27.0895 109.829 26.5959 110.429 26.2443C111.033 25.8892 111.748 25.7116 112.576 25.7116C113.403 25.7116 114.117 25.8892 114.717 26.2443C115.321 26.5959 115.786 27.0895 116.113 27.7251C116.44 28.3572 116.603 29.0959 116.603 29.9411C116.603 30.7791 116.44 31.516 116.113 32.1516C115.786 32.7837 115.321 33.2773 114.717 33.6325C114.117 33.984 113.403 34.1598 112.576 34.1598ZM112.587 32.402C112.963 32.402 113.277 32.2955 113.529 32.0824C113.782 31.8658 113.972 31.571 114.099 31.1982C114.231 30.8253 114.296 30.4009 114.296 29.9251C114.296 29.4492 114.231 29.0249 114.099 28.652C113.972 28.2791 113.782 27.9844 113.529 27.7678C113.277 27.5511 112.963 27.4428 112.587 27.4428C112.207 27.4428 111.887 27.5511 111.628 27.7678C111.372 27.9844 111.179 28.2791 111.047 28.652C110.919 29.0249 110.855 29.4492 110.855 29.9251C110.855 30.4009 110.919 30.8253 111.047 31.1982C111.179 31.571 111.372 31.8658 111.628 32.0824C111.887 32.2955 112.207 32.402 112.587 32.402ZM126.275 23.0909V34H123.968V25.2802H123.904L121.406 26.8462V24.8008L124.107 23.0909H126.275Z" fill="#333333"/>
<path d="M180.5 0.5H340.5L360.5 30.5L340.5 60.5H180.5L200.5 30.5L180.5 0.5Z" fill="#F1F2F3"/>
<path d="M360.5 0.5H520.5L540.5 30.5L520.5 60.5H360.5L380.5 30.5L360.5 0.5Z" fill="#F1F2F3"/>
<path d="M208.511 44V33.0909H215.734V34.9925H210.818V37.592H215.255V39.4936H210.818V44H208.511ZM217.111 44V35.8182H219.311V37.2457H219.396C219.545 36.7379 219.796 36.3544 220.147 36.0952C220.499 35.8324 220.904 35.701 221.362 35.701C221.475 35.701 221.598 35.7081 221.729 35.7223C221.861 35.7365 221.976 35.756 222.076 35.7809V37.7944C221.969 37.7624 221.822 37.734 221.633 37.7092C221.445 37.6843 221.273 37.6719 221.117 37.6719C220.783 37.6719 220.485 37.7447 220.222 37.8903C219.963 38.0323 219.757 38.2312 219.604 38.4869C219.455 38.7425 219.38 39.0373 219.38 39.3711V44H217.111ZM226.565 44.1598C225.737 44.1598 225.022 43.984 224.418 43.6325C223.818 43.2773 223.354 42.7837 223.028 42.1516C222.701 41.516 222.538 40.7791 222.538 39.9411C222.538 39.0959 222.701 38.3572 223.028 37.7251C223.354 37.0895 223.818 36.5959 224.418 36.2443C225.022 35.8892 225.737 35.7116 226.565 35.7116C227.392 35.7116 228.106 35.8892 228.706 36.2443C229.31 36.5959 229.775 37.0895 230.102 37.7251C230.428 38.3572 230.592 39.0959 230.592 39.9411C230.592 40.7791 230.428 41.516 230.102 42.1516C229.775 42.7837 229.31 43.2773 228.706 43.6325C228.106 43.984 227.392 44.1598 226.565 44.1598ZM226.575 42.402C226.952 42.402 227.266 42.2955 227.518 42.0824C227.77 41.8658 227.96 41.571 228.088 41.1982C228.22 40.8253 228.285 40.4009 228.285 39.9251C228.285 39.4492 228.22 39.0249 228.088 38.652C227.96 38.2791 227.77 37.9844 227.518 37.7678C227.266 37.5511 226.952 37.4428 226.575 37.4428C226.195 37.4428 225.876 37.5511 225.617 37.7678C225.361 37.9844 225.167 38.2791 225.036 38.652C224.908 39.0249 224.844 39.4492 224.844 39.9251C224.844 40.4009 224.908 40.8253 225.036 41.1982C225.167 41.571 225.361 41.8658 225.617 42.0824C225.876 42.2955 226.195 42.402 226.575 42.402ZM234.336 39.2699V44H232.067V35.8182H234.23V37.2617H234.326C234.507 36.7859 234.81 36.4094 235.237 36.1325C235.663 35.8519 236.179 35.7116 236.787 35.7116C237.355 35.7116 237.85 35.8359 238.273 36.0845C238.695 36.3331 239.024 36.6882 239.258 37.1499C239.493 37.608 239.61 38.1548 239.61 38.7905V44H237.341V39.1953C237.344 38.6946 237.216 38.304 236.957 38.0234C236.698 37.7393 236.341 37.5973 235.886 37.5973C235.581 37.5973 235.311 37.663 235.077 37.7944C234.846 37.9258 234.665 38.1175 234.533 38.3697C234.406 38.6183 234.34 38.9183 234.336 39.2699ZM245.75 35.8182V37.5227H240.823V35.8182H245.75ZM241.942 33.858H244.211V41.4858C244.211 41.6953 244.243 41.8587 244.307 41.9759C244.371 42.0895 244.459 42.1694 244.573 42.2156C244.69 42.2617 244.825 42.2848 244.978 42.2848C245.084 42.2848 245.191 42.2759 245.297 42.2582C245.404 42.2369 245.486 42.2209 245.542 42.2102L245.899 43.8988C245.786 43.9343 245.626 43.9751 245.42 44.0213C245.214 44.071 244.964 44.1012 244.669 44.1119C244.122 44.1332 243.643 44.0604 243.231 43.8935C242.822 43.7266 242.504 43.4673 242.277 43.1158C242.05 42.7642 241.938 42.3203 241.942 41.7841V33.858ZM252.077 38.62V40.4205H247.102V38.62H252.077ZM263.678 36.9102H261.345C261.303 36.6083 261.216 36.3402 261.084 36.1058C260.953 35.8679 260.784 35.6655 260.578 35.4986C260.372 35.3317 260.134 35.2038 259.865 35.1151C259.598 35.0263 259.309 34.9819 258.996 34.9819C258.432 34.9819 257.94 35.1222 257.521 35.4027C257.102 35.6797 256.777 36.0845 256.546 36.6172C256.315 37.1463 256.2 37.7891 256.2 38.5455C256.2 39.3232 256.315 39.9766 256.546 40.5057C256.78 41.0348 257.107 41.4343 257.526 41.7042C257.945 41.9741 258.43 42.109 258.98 42.109C259.289 42.109 259.575 42.0682 259.838 41.9865C260.104 41.9048 260.34 41.7859 260.546 41.6296C260.752 41.4698 260.923 41.2763 261.058 41.049C261.196 40.8217 261.292 40.5625 261.345 40.2713L263.678 40.282C263.618 40.7827 263.467 41.2656 263.226 41.7308C262.988 42.1925 262.666 42.6062 262.262 42.9719C261.86 43.3342 261.381 43.6218 260.823 43.8349C260.269 44.0444 259.643 44.1491 258.943 44.1491C257.97 44.1491 257.1 43.929 256.333 43.4886C255.569 43.0483 254.966 42.4109 254.522 41.5763C254.082 40.7418 253.861 39.7315 253.861 38.5455C253.861 37.3558 254.085 36.3438 254.533 35.5092C254.98 34.6747 255.587 34.0391 256.354 33.6023C257.121 33.1619 257.984 32.9418 258.943 32.9418C259.575 32.9418 260.161 33.0305 260.701 33.2081C261.244 33.3857 261.725 33.6449 262.144 33.9858C262.563 34.3232 262.904 34.7369 263.167 35.2269C263.433 35.717 263.604 36.2781 263.678 36.9102ZM268.987 44.1598C268.159 44.1598 267.444 43.984 266.84 43.6325C266.24 43.2773 265.776 42.7837 265.45 42.1516C265.123 41.516 264.96 40.7791 264.96 39.9411C264.96 39.0959 265.123 38.3572 265.45 37.7251C265.776 37.0895 266.24 36.5959 266.84 36.2443C267.444 35.8892 268.159 35.7116 268.987 35.7116C269.814 35.7116 270.528 35.8892 271.128 36.2443C271.732 36.5959 272.197 37.0895 272.523 37.7251C272.85 38.3572 273.014 39.0959 273.014 39.9411C273.014 40.7791 272.85 41.516 272.523 42.1516C272.197 42.7837 271.732 43.2773 271.128 43.6325C270.528 43.984 269.814 44.1598 268.987 44.1598ZM268.997 42.402C269.374 42.402 269.688 42.2955 269.94 42.0824C270.192 41.8658 270.382 41.571 270.51 41.1982C270.641 40.8253 270.707 40.4009 270.707 39.9251C270.707 39.4492 270.641 39.0249 270.51 38.652C270.382 38.2791 270.192 37.9844 269.94 37.7678C269.688 37.5511 269.374 37.4428 268.997 37.4428C268.617 37.4428 268.298 37.5511 268.038 37.7678C267.783 37.9844 267.589 38.2791 267.458 38.652C267.33 39.0249 267.266 39.4492 267.266 39.9251C267.266 40.4009 267.33 40.8253 267.458 41.1982C267.589 41.571 267.783 41.8658 268.038 42.0824C268.298 42.2955 268.617 42.402 268.997 42.402ZM274.489 44V35.8182H276.652V37.2617H276.748C276.918 36.7823 277.202 36.4041 277.6 36.1271C277.998 35.8501 278.473 35.7116 279.027 35.7116C279.588 35.7116 280.066 35.8519 280.46 36.1325C280.854 36.4094 281.117 36.7859 281.249 37.2617H281.334C281.501 36.793 281.803 36.4183 282.239 36.1378C282.68 35.8537 283.2 35.7116 283.8 35.7116C284.564 35.7116 285.183 35.9549 285.659 36.4414C286.139 36.9244 286.378 37.6097 286.378 38.4975V44H284.114V38.945C284.114 38.4904 283.994 38.1495 283.752 37.9222C283.511 37.695 283.209 37.5813 282.847 37.5813C282.435 37.5813 282.113 37.7127 281.883 37.9755C281.652 38.2347 281.536 38.5774 281.536 39.0036V44H279.336V38.897C279.336 38.4957 279.221 38.1761 278.99 37.9382C278.763 37.7003 278.463 37.5813 278.09 37.5813C277.838 37.5813 277.61 37.6452 277.408 37.7731C277.209 37.8974 277.051 38.0732 276.934 38.3004C276.817 38.5241 276.758 38.7869 276.758 39.0888V44H274.489ZM288.171 44V35.8182H290.333V37.2617H290.429C290.6 36.7823 290.884 36.4041 291.281 36.1271C291.679 35.8501 292.155 35.7116 292.709 35.7116C293.27 35.7116 293.748 35.8519 294.142 36.1325C294.536 36.4094 294.799 36.7859 294.93 37.2617H295.015C295.182 36.793 295.484 36.4183 295.921 36.1378C296.361 35.8537 296.882 35.7116 297.482 35.7116C298.245 35.7116 298.865 35.9549 299.341 36.4414C299.82 36.9244 300.06 37.6097 300.06 38.4975V44H297.796V38.945C297.796 38.4904 297.675 38.1495 297.434 37.9222C297.192 37.695 296.89 37.5813 296.528 37.5813C296.116 37.5813 295.795 37.7127 295.564 37.9755C295.333 38.2347 295.218 38.5774 295.218 39.0036V44H293.018V38.897C293.018 38.4957 292.903 38.1761 292.672 37.9382C292.444 37.7003 292.144 37.5813 291.772 37.5813C291.519 37.5813 291.292 37.6452 291.09 37.7731C290.891 37.8974 290.733 38.0732 290.616 38.3004C290.498 38.5241 290.44 38.7869 290.44 39.0888V44H288.171ZM305.581 44.1598C304.739 44.1598 304.015 43.9893 303.408 43.6484C302.804 43.304 302.339 42.8175 302.012 42.1889C301.685 41.5568 301.522 40.8093 301.522 39.9464C301.522 39.1048 301.685 38.3661 302.012 37.7305C302.339 37.0948 302.799 36.5994 303.392 36.2443C303.988 35.8892 304.688 35.7116 305.49 35.7116C306.03 35.7116 306.533 35.7987 306.998 35.9727C307.467 36.1431 307.875 36.4006 308.223 36.745C308.575 37.0895 308.848 37.5227 309.043 38.0447C309.239 38.5632 309.336 39.1705 309.336 39.8665V40.4897H302.428V39.0835H307.2C307.2 38.7567 307.129 38.4673 306.987 38.2152C306.845 37.9631 306.648 37.766 306.396 37.6239C306.147 37.4783 305.858 37.4055 305.528 37.4055C305.183 37.4055 304.878 37.4854 304.612 37.6452C304.349 37.8015 304.143 38.0128 303.994 38.2791C303.845 38.5419 303.768 38.8349 303.765 39.158V40.495C303.765 40.8999 303.839 41.2496 303.988 41.5444C304.141 41.8391 304.356 42.0664 304.633 42.2262C304.91 42.386 305.238 42.4659 305.618 42.4659C305.87 42.4659 306.101 42.4304 306.311 42.3594C306.52 42.2884 306.7 42.1818 306.849 42.0398C306.998 41.8977 307.112 41.7237 307.19 41.5178L309.288 41.6562C309.182 42.1605 308.963 42.6009 308.633 42.9773C308.307 43.3501 307.884 43.6413 307.365 43.8509C306.851 44.0568 306.256 44.1598 305.581 44.1598ZM310.817 44V35.8182H313.017V37.2457H313.102C313.251 36.7379 313.502 36.3544 313.853 36.0952C314.205 35.8324 314.61 35.701 315.068 35.701C315.182 35.701 315.304 35.7081 315.435 35.7223C315.567 35.7365 315.682 35.756 315.782 35.7809V37.7944C315.675 37.7624 315.528 37.734 315.34 37.7092C315.151 37.6843 314.979 37.6719 314.823 37.6719C314.489 37.6719 314.191 37.7447 313.928 37.8903C313.669 38.0323 313.463 38.2312 313.31 38.4869C313.161 38.7425 313.086 39.0373 313.086 39.3711V44H310.817ZM320.271 44.1598C319.433 44.1598 318.712 43.9822 318.108 43.6271C317.508 43.2685 317.046 42.7713 316.723 42.1357C316.404 41.5 316.244 40.7685 316.244 39.9411C316.244 39.103 316.405 38.3679 316.728 37.7358C317.055 37.1001 317.519 36.6048 318.119 36.2496C318.719 35.891 319.433 35.7116 320.26 35.7116C320.974 35.7116 321.599 35.8413 322.135 36.1005C322.671 36.3597 323.096 36.7237 323.408 37.1925C323.721 37.6612 323.893 38.2116 323.925 38.8438H321.784C321.723 38.4354 321.563 38.1069 321.304 37.8583C321.048 37.6062 320.713 37.4801 320.297 37.4801C319.946 37.4801 319.639 37.576 319.376 37.7678C319.117 37.956 318.914 38.2312 318.769 38.5934C318.623 38.9556 318.55 39.3942 318.55 39.9091C318.55 40.4311 318.621 40.875 318.763 41.2408C318.909 41.6065 319.113 41.8853 319.376 42.0771C319.639 42.2688 319.946 42.3647 320.297 42.3647C320.557 42.3647 320.789 42.3114 320.995 42.2049C321.205 42.0984 321.377 41.9439 321.512 41.7415C321.65 41.5355 321.741 41.2887 321.784 41.0011H323.925C323.889 41.6261 323.719 42.1765 323.413 42.6523C323.112 43.1246 322.694 43.494 322.162 43.7603C321.629 44.0266 320.999 44.1598 320.271 44.1598ZM329.106 44.1598C328.265 44.1598 327.54 43.9893 326.933 43.6484C326.329 43.304 325.864 42.8175 325.538 42.1889C325.211 41.5568 325.047 40.8093 325.047 39.9464C325.047 39.1048 325.211 38.3661 325.538 37.7305C325.864 37.0948 326.324 36.5994 326.917 36.2443C327.514 35.8892 328.213 35.7116 329.016 35.7116C329.556 35.7116 330.058 35.7987 330.523 35.9727C330.992 36.1431 331.4 36.4006 331.748 36.745C332.1 37.0895 332.373 37.5227 332.569 38.0447C332.764 38.5632 332.862 39.1705 332.862 39.8665V40.4897H325.953V39.0835H330.726C330.726 38.7567 330.655 38.4673 330.513 38.2152C330.371 37.9631 330.174 37.766 329.921 37.6239C329.673 37.4783 329.383 37.4055 329.053 37.4055C328.709 37.4055 328.403 37.4854 328.137 37.6452C327.874 37.8015 327.668 38.0128 327.519 38.2791C327.37 38.5419 327.294 38.8349 327.29 39.158V40.495C327.29 40.8999 327.365 41.2496 327.514 41.5444C327.666 41.8391 327.881 42.0664 328.158 42.2262C328.435 42.386 328.764 42.4659 329.144 42.4659C329.396 42.4659 329.627 42.4304 329.836 42.3594C330.046 42.2884 330.225 42.1818 330.374 42.0398C330.523 41.8977 330.637 41.7237 330.715 41.5178L332.814 41.6562C332.707 42.1605 332.489 42.6009 332.159 42.9773C331.832 43.3501 331.409 43.6413 330.891 43.8509C330.376 44.0568 329.781 44.1598 329.106 44.1598Z" fill="#22AA50"/>
<path d="M226.631 13.0909H229.476L232.48 20.4205H232.608L235.612 13.0909H238.457V24H236.219V16.8995H236.129L233.306 23.9467H231.782L228.959 16.8729H228.868V24H226.631V13.0909ZM242.647 24.1545C242.125 24.1545 241.66 24.0639 241.252 23.8828C240.843 23.6982 240.52 23.4265 240.282 23.0678C240.048 22.7056 239.931 22.2546 239.931 21.7148C239.931 21.2603 240.014 20.8786 240.181 20.5696C240.348 20.2607 240.575 20.0121 240.863 19.8239C241.151 19.6357 241.477 19.4936 241.843 19.3977C242.212 19.3018 242.599 19.2344 243.004 19.1953C243.48 19.1456 243.864 19.0994 244.155 19.0568C244.446 19.0107 244.657 18.9432 244.789 18.8544C244.92 18.7656 244.986 18.6342 244.986 18.4602V18.4283C244.986 18.0909 244.879 17.8299 244.666 17.6452C244.457 17.4606 244.158 17.3683 243.771 17.3683C243.363 17.3683 243.038 17.4588 242.796 17.6399C242.555 17.8175 242.395 18.0412 242.317 18.3111L240.218 18.1406C240.325 17.6435 240.534 17.2138 240.847 16.8516C241.159 16.4858 241.562 16.2053 242.056 16.0099C242.553 15.8111 243.129 15.7116 243.782 15.7116C244.236 15.7116 244.671 15.7649 245.087 15.8714C245.506 15.978 245.877 16.1431 246.2 16.3668C246.527 16.5906 246.784 16.8782 246.973 17.2298C247.161 17.5778 247.255 17.995 247.255 18.4815V24H245.103V22.8654H245.039C244.908 23.1211 244.732 23.3466 244.512 23.5419C244.292 23.7337 244.027 23.8846 243.718 23.9947C243.409 24.1012 243.052 24.1545 242.647 24.1545ZM243.297 22.5884C243.631 22.5884 243.926 22.5227 244.181 22.3913C244.437 22.2564 244.638 22.0753 244.783 21.848C244.929 21.6207 245.002 21.3633 245.002 21.0756V20.2074C244.931 20.2536 244.833 20.2962 244.709 20.3352C244.588 20.3707 244.451 20.4045 244.299 20.4364C244.146 20.4648 243.993 20.4915 243.841 20.5163C243.688 20.5376 243.549 20.5572 243.425 20.5749C243.159 20.614 242.926 20.6761 242.727 20.7614C242.528 20.8466 242.374 20.962 242.264 21.1076C242.154 21.2496 242.099 21.4272 242.099 21.6403C242.099 21.9492 242.211 22.1854 242.434 22.3487C242.662 22.5085 242.949 22.5884 243.297 22.5884ZM252.701 27.2386C251.966 27.2386 251.336 27.1374 250.811 26.935C250.288 26.7362 249.873 26.4645 249.564 26.12C249.255 25.7756 249.054 25.3885 248.962 24.9588L251.061 24.6765C251.125 24.8398 251.226 24.9925 251.364 25.1346C251.503 25.2766 251.686 25.3903 251.913 25.4755C252.144 25.5643 252.424 25.6087 252.755 25.6087C253.248 25.6087 253.655 25.4879 253.975 25.2464C254.298 25.0085 254.459 24.609 254.459 24.0479V22.5511H254.363C254.264 22.7784 254.115 22.9933 253.916 23.1957C253.717 23.3981 253.461 23.5632 253.149 23.6911C252.836 23.8189 252.464 23.8828 252.03 23.8828C251.416 23.8828 250.857 23.7408 250.352 23.4567C249.852 23.169 249.452 22.7305 249.154 22.141C248.859 21.5479 248.712 20.7987 248.712 19.8931C248.712 18.9663 248.863 18.1921 249.165 17.5707C249.466 16.9492 249.868 16.484 250.368 16.1751C250.873 15.8661 251.425 15.7116 252.025 15.7116C252.483 15.7116 252.867 15.7898 253.176 15.946C253.485 16.0987 253.733 16.2905 253.921 16.5213C254.113 16.7486 254.26 16.9723 254.363 17.1925H254.449V15.8182H256.702V24.0799C256.702 24.7759 256.531 25.3583 256.19 25.8271C255.85 26.2958 255.377 26.6474 254.774 26.8817C254.173 27.1197 253.483 27.2386 252.701 27.2386ZM252.749 22.1783C253.115 22.1783 253.424 22.0877 253.676 21.9066C253.932 21.7219 254.127 21.4592 254.262 21.1183C254.401 20.7738 254.47 20.3619 254.47 19.8825C254.47 19.4031 254.402 18.9876 254.268 18.636C254.133 18.2809 253.937 18.0057 253.682 17.8104C253.426 17.6151 253.115 17.5174 252.749 17.5174C252.377 17.5174 252.062 17.6186 251.807 17.821C251.551 18.0199 251.357 18.2969 251.226 18.652C251.095 19.0071 251.029 19.4173 251.029 19.8825C251.029 20.3548 251.095 20.7631 251.226 21.1076C251.361 21.4485 251.554 21.7131 251.807 21.9013C252.062 22.0859 252.377 22.1783 252.749 22.1783ZM262.236 24.1598C261.395 24.1598 260.67 23.9893 260.063 23.6484C259.459 23.304 258.994 22.8175 258.667 22.1889C258.341 21.5568 258.177 20.8093 258.177 19.9464C258.177 19.1048 258.341 18.3661 258.667 17.7305C258.994 17.0948 259.454 16.5994 260.047 16.2443C260.644 15.8892 261.343 15.7116 262.146 15.7116C262.686 15.7116 263.188 15.7987 263.653 15.9727C264.122 16.1431 264.53 16.4006 264.878 16.745C265.23 17.0895 265.503 17.5227 265.699 18.0447C265.894 18.5632 265.992 19.1705 265.992 19.8665V20.4897H259.083V19.0835H263.856C263.856 18.7567 263.785 18.4673 263.643 18.2152C263.5 17.9631 263.303 17.766 263.051 17.6239C262.803 17.4783 262.513 17.4055 262.183 17.4055C261.839 17.4055 261.533 17.4854 261.267 17.6452C261.004 17.8015 260.798 18.0128 260.649 18.2791C260.5 18.5419 260.423 18.8349 260.42 19.158V20.495C260.42 20.8999 260.494 21.2496 260.644 21.5444C260.796 21.8391 261.011 22.0664 261.288 22.2262C261.565 22.386 261.894 22.4659 262.274 22.4659C262.526 22.4659 262.757 22.4304 262.966 22.3594C263.176 22.2884 263.355 22.1818 263.504 22.0398C263.653 21.8977 263.767 21.7237 263.845 21.5178L265.944 21.6562C265.837 22.1605 265.619 22.6009 265.288 22.9773C264.962 23.3501 264.539 23.6413 264.021 23.8509C263.506 24.0568 262.911 24.1598 262.236 24.1598ZM269.742 19.2699V24H267.472V15.8182H269.635V17.2617H269.731C269.912 16.7859 270.216 16.4094 270.642 16.1325C271.068 15.8519 271.585 15.7116 272.192 15.7116C272.76 15.7116 273.255 15.8359 273.678 16.0845C274.101 16.3331 274.429 16.6882 274.663 17.1499C274.898 17.608 275.015 18.1548 275.015 18.7905V24H272.746V19.1953C272.749 18.6946 272.622 18.304 272.362 18.0234C272.103 17.7393 271.746 17.5973 271.292 17.5973C270.986 17.5973 270.716 17.663 270.482 17.7944C270.251 17.9258 270.07 18.1175 269.939 18.3697C269.811 18.6183 269.745 18.9183 269.742 19.2699ZM281.155 15.8182V17.5227H276.228V15.8182H281.155ZM277.347 13.858H279.616V21.4858C279.616 21.6953 279.648 21.8587 279.712 21.9759C279.776 22.0895 279.865 22.1694 279.978 22.2156C280.095 22.2617 280.23 22.2848 280.383 22.2848C280.49 22.2848 280.596 22.2759 280.703 22.2582C280.809 22.2369 280.891 22.2209 280.948 22.2102L281.305 23.8988C281.191 23.9343 281.031 23.9751 280.825 24.0213C280.619 24.071 280.369 24.1012 280.074 24.1119C279.527 24.1332 279.048 24.0604 278.636 23.8935C278.227 23.7266 277.91 23.4673 277.682 23.1158C277.455 22.7642 277.343 22.3203 277.347 21.7841V13.858ZM286.242 24.1598C285.415 24.1598 284.699 23.984 284.096 23.6325C283.496 23.2773 283.032 22.7837 282.705 22.1516C282.379 21.516 282.215 20.7791 282.215 19.9411C282.215 19.0959 282.379 18.3572 282.705 17.7251C283.032 17.0895 283.496 16.5959 284.096 16.2443C284.699 15.8892 285.415 15.7116 286.242 15.7116C287.07 15.7116 287.784 15.8892 288.384 16.2443C288.987 16.5959 289.453 17.0895 289.779 17.7251C290.106 18.3572 290.269 19.0959 290.269 19.9411C290.269 20.7791 290.106 21.516 289.779 22.1516C289.453 22.7837 288.987 23.2773 288.384 23.6325C287.784 23.984 287.07 24.1598 286.242 24.1598ZM286.253 22.402C286.629 22.402 286.944 22.2955 287.196 22.0824C287.448 21.8658 287.638 21.571 287.766 21.1982C287.897 20.8253 287.963 20.4009 287.963 19.9251C287.963 19.4492 287.897 19.0249 287.766 18.652C287.638 18.2791 287.448 17.9844 287.196 17.7678C286.944 17.5511 286.629 17.4428 286.253 17.4428C285.873 17.4428 285.553 17.5511 285.294 17.7678C285.039 17.9844 284.845 18.2791 284.714 18.652C284.586 19.0249 284.522 19.4492 284.522 19.9251C284.522 20.4009 284.586 20.8253 284.714 21.1982C284.845 21.571 285.039 21.8658 285.294 22.0824C285.553 22.2955 285.873 22.402 286.253 22.402ZM299.941 13.0909V24H297.635V15.2802H297.571L295.073 16.8462V14.8008L297.773 13.0909H299.941ZM309.266 22.3381V14.7955H311.173V22.3381H309.266ZM306.448 19.5202V17.6133H313.991V19.5202H306.448Z" fill="#333333"/>
<path d="M388.511 44V33.0909H395.734V34.9925H390.818V37.592H395.255V39.4936H390.818V44H388.511ZM397.111 44V35.8182H399.311V37.2457H399.396C399.545 36.7379 399.796 36.3544 400.147 36.0952C400.499 35.8324 400.904 35.701 401.362 35.701C401.475 35.701 401.598 35.7081 401.729 35.7223C401.861 35.7365 401.976 35.756 402.076 35.7809V37.7944C401.969 37.7624 401.822 37.734 401.633 37.7092C401.445 37.6843 401.273 37.6719 401.117 37.6719C400.783 37.6719 400.485 37.7447 400.222 37.8903C399.963 38.0323 399.757 38.2312 399.604 38.4869C399.455 38.7425 399.38 39.0373 399.38 39.3711V44H397.111ZM406.565 44.1598C405.737 44.1598 405.022 43.984 404.418 43.6325C403.818 43.2773 403.354 42.7837 403.028 42.1516C402.701 41.516 402.538 40.7791 402.538 39.9411C402.538 39.0959 402.701 38.3572 403.028 37.7251C403.354 37.0895 403.818 36.5959 404.418 36.2443C405.022 35.8892 405.737 35.7116 406.565 35.7116C407.392 35.7116 408.106 35.8892 408.706 36.2443C409.31 36.5959 409.775 37.0895 410.102 37.7251C410.428 38.3572 410.592 39.0959 410.592 39.9411C410.592 40.7791 410.428 41.516 410.102 42.1516C409.775 42.7837 409.31 43.2773 408.706 43.6325C408.106 43.984 407.392 44.1598 406.565 44.1598ZM406.575 42.402C406.952 42.402 407.266 42.2955 407.518 42.0824C407.77 41.8658 407.96 41.571 408.088 41.1982C408.22 40.8253 408.285 40.4009 408.285 39.9251C408.285 39.4492 408.22 39.0249 408.088 38.652C407.96 38.2791 407.77 37.9844 407.518 37.7678C407.266 37.5511 406.952 37.4428 406.575 37.4428C406.195 37.4428 405.876 37.5511 405.617 37.7678C405.361 37.9844 405.167 38.2791 405.036 38.652C404.908 39.0249 404.844 39.4492 404.844 39.9251C404.844 40.4009 404.908 40.8253 405.036 41.1982C405.167 41.571 405.361 41.8658 405.617 42.0824C405.876 42.2955 406.195 42.402 406.575 42.402ZM414.336 39.2699V44H412.067V35.8182H414.23V37.2617H414.326C414.507 36.7859 414.81 36.4094 415.237 36.1325C415.663 35.8519 416.179 35.7116 416.787 35.7116C417.355 35.7116 417.85 35.8359 418.273 36.0845C418.695 36.3331 419.024 36.6882 419.258 37.1499C419.493 37.608 419.61 38.1548 419.61 38.7905V44H417.341V39.1953C417.344 38.6946 417.216 38.304 416.957 38.0234C416.698 37.7393 416.341 37.5973 415.886 37.5973C415.581 37.5973 415.311 37.663 415.077 37.7944C414.846 37.9258 414.665 38.1175 414.533 38.3697C414.406 38.6183 414.34 38.9183 414.336 39.2699ZM425.75 35.8182V37.5227H420.823V35.8182H425.75ZM421.942 33.858H424.211V41.4858C424.211 41.6953 424.243 41.8587 424.307 41.9759C424.371 42.0895 424.459 42.1694 424.573 42.2156C424.69 42.2617 424.825 42.2848 424.978 42.2848C425.084 42.2848 425.191 42.2759 425.297 42.2582C425.404 42.2369 425.486 42.2209 425.542 42.2102L425.899 43.8988C425.786 43.9343 425.626 43.9751 425.42 44.0213C425.214 44.071 424.964 44.1012 424.669 44.1119C424.122 44.1332 423.643 44.0604 423.231 43.8935C422.822 43.7266 422.504 43.4673 422.277 43.1158C422.05 42.7642 421.938 42.3203 421.942 41.7841V33.858ZM432.077 38.62V40.4205H427.102V38.62H432.077ZM443.678 36.9102H441.345C441.303 36.6083 441.216 36.3402 441.084 36.1058C440.953 35.8679 440.784 35.6655 440.578 35.4986C440.372 35.3317 440.134 35.2038 439.865 35.1151C439.598 35.0263 439.309 34.9819 438.996 34.9819C438.432 34.9819 437.94 35.1222 437.521 35.4027C437.102 35.6797 436.777 36.0845 436.546 36.6172C436.315 37.1463 436.2 37.7891 436.2 38.5455C436.2 39.3232 436.315 39.9766 436.546 40.5057C436.78 41.0348 437.107 41.4343 437.526 41.7042C437.945 41.9741 438.43 42.109 438.98 42.109C439.289 42.109 439.575 42.0682 439.838 41.9865C440.104 41.9048 440.34 41.7859 440.546 41.6296C440.752 41.4698 440.923 41.2763 441.058 41.049C441.196 40.8217 441.292 40.5625 441.345 40.2713L443.678 40.282C443.618 40.7827 443.467 41.2656 443.226 41.7308C442.988 42.1925 442.666 42.6062 442.262 42.9719C441.86 43.3342 441.381 43.6218 440.823 43.8349C440.269 44.0444 439.643 44.1491 438.943 44.1491C437.97 44.1491 437.1 43.929 436.333 43.4886C435.569 43.0483 434.966 42.4109 434.522 41.5763C434.082 40.7418 433.861 39.7315 433.861 38.5455C433.861 37.3558 434.085 36.3438 434.533 35.5092C434.98 34.6747 435.587 34.0391 436.354 33.6023C437.121 33.1619 437.984 32.9418 438.943 32.9418C439.575 32.9418 440.161 33.0305 440.701 33.2081C441.244 33.3857 441.725 33.6449 442.144 33.9858C442.563 34.3232 442.904 34.7369 443.167 35.2269C443.433 35.717 443.604 36.2781 443.678 36.9102ZM448.987 44.1598C448.159 44.1598 447.444 43.984 446.84 43.6325C446.24 43.2773 445.776 42.7837 445.45 42.1516C445.123 41.516 444.96 40.7791 444.96 39.9411C444.96 39.0959 445.123 38.3572 445.45 37.7251C445.776 37.0895 446.24 36.5959 446.84 36.2443C447.444 35.8892 448.159 35.7116 448.987 35.7116C449.814 35.7116 450.528 35.8892 451.128 36.2443C451.732 36.5959 452.197 37.0895 452.523 37.7251C452.85 38.3572 453.014 39.0959 453.014 39.9411C453.014 40.7791 452.85 41.516 452.523 42.1516C452.197 42.7837 451.732 43.2773 451.128 43.6325C450.528 43.984 449.814 44.1598 448.987 44.1598ZM448.997 42.402C449.374 42.402 449.688 42.2955 449.94 42.0824C450.192 41.8658 450.382 41.571 450.51 41.1982C450.641 40.8253 450.707 40.4009 450.707 39.9251C450.707 39.4492 450.641 39.0249 450.51 38.652C450.382 38.2791 450.192 37.9844 449.94 37.7678C449.688 37.5511 449.374 37.4428 448.997 37.4428C448.617 37.4428 448.298 37.5511 448.038 37.7678C447.783 37.9844 447.589 38.2791 447.458 38.652C447.33 39.0249 447.266 39.4492 447.266 39.9251C447.266 40.4009 447.33 40.8253 447.458 41.1982C447.589 41.571 447.783 41.8658 448.038 42.0824C448.298 42.2955 448.617 42.402 448.997 42.402ZM454.489 44V35.8182H456.652V37.2617H456.748C456.918 36.7823 457.202 36.4041 457.6 36.1271C457.998 35.8501 458.473 35.7116 459.027 35.7116C459.588 35.7116 460.066 35.8519 460.46 36.1325C460.854 36.4094 461.117 36.7859 461.249 37.2617H461.334C461.501 36.793 461.803 36.4183 462.239 36.1378C462.68 35.8537 463.2 35.7116 463.8 35.7116C464.564 35.7116 465.183 35.9549 465.659 36.4414C466.139 36.9244 466.378 37.6097 466.378 38.4975V44H464.114V38.945C464.114 38.4904 463.994 38.1495 463.752 37.9222C463.511 37.695 463.209 37.5813 462.847 37.5813C462.435 37.5813 462.113 37.7127 461.883 37.9755C461.652 38.2347 461.536 38.5774 461.536 39.0036V44H459.336V38.897C459.336 38.4957 459.221 38.1761 458.99 37.9382C458.763 37.7003 458.463 37.5813 458.09 37.5813C457.838 37.5813 457.61 37.6452 457.408 37.7731C457.209 37.8974 457.051 38.0732 456.934 38.3004C456.817 38.5241 456.758 38.7869 456.758 39.0888V44H454.489ZM468.171 44V35.8182H470.333V37.2617H470.429C470.6 36.7823 470.884 36.4041 471.281 36.1271C471.679 35.8501 472.155 35.7116 472.709 35.7116C473.27 35.7116 473.748 35.8519 474.142 36.1325C474.536 36.4094 474.799 36.7859 474.93 37.2617H475.015C475.182 36.793 475.484 36.4183 475.921 36.1378C476.361 35.8537 476.882 35.7116 477.482 35.7116C478.245 35.7116 478.865 35.9549 479.341 36.4414C479.82 36.9244 480.06 37.6097 480.06 38.4975V44H477.796V38.945C477.796 38.4904 477.675 38.1495 477.434 37.9222C477.192 37.695 476.89 37.5813 476.528 37.5813C476.116 37.5813 475.795 37.7127 475.564 37.9755C475.333 38.2347 475.218 38.5774 475.218 39.0036V44H473.018V38.897C473.018 38.4957 472.903 38.1761 472.672 37.9382C472.444 37.7003 472.144 37.5813 471.772 37.5813C471.519 37.5813 471.292 37.6452 471.09 37.7731C470.891 37.8974 470.733 38.0732 470.616 38.3004C470.498 38.5241 470.44 38.7869 470.44 39.0888V44H468.171ZM485.581 44.1598C484.739 44.1598 484.015 43.9893 483.408 43.6484C482.804 43.304 482.339 42.8175 482.012 42.1889C481.685 41.5568 481.522 40.8093 481.522 39.9464C481.522 39.1048 481.685 38.3661 482.012 37.7305C482.339 37.0948 482.799 36.5994 483.392 36.2443C483.988 35.8892 484.688 35.7116 485.49 35.7116C486.03 35.7116 486.533 35.7987 486.998 35.9727C487.467 36.1431 487.875 36.4006 488.223 36.745C488.575 37.0895 488.848 37.5227 489.043 38.0447C489.239 38.5632 489.336 39.1705 489.336 39.8665V40.4897H482.428V39.0835H487.2C487.2 38.7567 487.129 38.4673 486.987 38.2152C486.845 37.9631 486.648 37.766 486.396 37.6239C486.147 37.4783 485.858 37.4055 485.528 37.4055C485.183 37.4055 484.878 37.4854 484.612 37.6452C484.349 37.8015 484.143 38.0128 483.994 38.2791C483.845 38.5419 483.768 38.8349 483.765 39.158V40.495C483.765 40.8999 483.839 41.2496 483.988 41.5444C484.141 41.8391 484.356 42.0664 484.633 42.2262C484.91 42.386 485.238 42.4659 485.618 42.4659C485.87 42.4659 486.101 42.4304 486.311 42.3594C486.52 42.2884 486.7 42.1818 486.849 42.0398C486.998 41.8977 487.112 41.7237 487.19 41.5178L489.288 41.6562C489.182 42.1605 488.963 42.6009 488.633 42.9773C488.307 43.3501 487.884 43.6413 487.365 43.8509C486.851 44.0568 486.256 44.1598 485.581 44.1598ZM490.817 44V35.8182H493.017V37.2457H493.102C493.251 36.7379 493.502 36.3544 493.853 36.0952C494.205 35.8324 494.61 35.701 495.068 35.701C495.182 35.701 495.304 35.7081 495.435 35.7223C495.567 35.7365 495.682 35.756 495.782 35.7809V37.7944C495.675 37.7624 495.528 37.734 495.34 37.7092C495.151 37.6843 494.979 37.6719 494.823 37.6719C494.489 37.6719 494.191 37.7447 493.928 37.8903C493.669 38.0323 493.463 38.2312 493.31 38.4869C493.161 38.7425 493.086 39.0373 493.086 39.3711V44H490.817ZM500.271 44.1598C499.433 44.1598 498.712 43.9822 498.108 43.6271C497.508 43.2685 497.046 42.7713 496.723 42.1357C496.404 41.5 496.244 40.7685 496.244 39.9411C496.244 39.103 496.405 38.3679 496.728 37.7358C497.055 37.1001 497.519 36.6048 498.119 36.2496C498.719 35.891 499.433 35.7116 500.26 35.7116C500.974 35.7116 501.599 35.8413 502.135 36.1005C502.671 36.3597 503.096 36.7237 503.408 37.1925C503.721 37.6612 503.893 38.2116 503.925 38.8438H501.784C501.723 38.4354 501.563 38.1069 501.304 37.8583C501.048 37.6062 500.713 37.4801 500.297 37.4801C499.946 37.4801 499.639 37.576 499.376 37.7678C499.117 37.956 498.914 38.2312 498.769 38.5934C498.623 38.9556 498.55 39.3942 498.55 39.9091C498.55 40.4311 498.621 40.875 498.763 41.2408C498.909 41.6065 499.113 41.8853 499.376 42.0771C499.639 42.2688 499.946 42.3647 500.297 42.3647C500.557 42.3647 500.789 42.3114 500.995 42.2049C501.205 42.0984 501.377 41.9439 501.512 41.7415C501.65 41.5355 501.741 41.2887 501.784 41.0011H503.925C503.889 41.6261 503.719 42.1765 503.413 42.6523C503.112 43.1246 502.694 43.494 502.162 43.7603C501.629 44.0266 500.999 44.1598 500.271 44.1598ZM509.106 44.1598C508.265 44.1598 507.54 43.9893 506.933 43.6484C506.329 43.304 505.864 42.8175 505.538 42.1889C505.211 41.5568 505.047 40.8093 505.047 39.9464C505.047 39.1048 505.211 38.3661 505.538 37.7305C505.864 37.0948 506.324 36.5994 506.917 36.2443C507.514 35.8892 508.213 35.7116 509.016 35.7116C509.556 35.7116 510.058 35.7987 510.523 35.9727C510.992 36.1431 511.4 36.4006 511.748 36.745C512.1 37.0895 512.373 37.5227 512.569 38.0447C512.764 38.5632 512.862 39.1705 512.862 39.8665V40.4897H505.953V39.0835H510.726C510.726 38.7567 510.655 38.4673 510.513 38.2152C510.371 37.9631 510.174 37.766 509.921 37.6239C509.673 37.4783 509.383 37.4055 509.053 37.4055C508.709 37.4055 508.403 37.4854 508.137 37.6452C507.874 37.8015 507.668 38.0128 507.519 38.2791C507.37 38.5419 507.294 38.8349 507.29 39.158V40.495C507.29 40.8999 507.365 41.2496 507.514 41.5444C507.666 41.8391 507.881 42.0664 508.158 42.2262C508.435 42.386 508.764 42.4659 509.144 42.4659C509.396 42.4659 509.627 42.4304 509.836 42.3594C510.046 42.2884 510.225 42.1818 510.374 42.0398C510.523 41.8977 510.637 41.7237 510.715 41.5178L512.814 41.6562C512.707 42.1605 512.489 42.6009 512.159 42.9773C511.832 43.3501 511.409 43.6413 510.891 43.8509C510.376 44.0568 509.781 44.1598 509.106 44.1598Z" fill="#333333"/>
<path d="M405.577 13.0909H408.421L411.425 20.4205H411.553L414.557 13.0909H417.402V24H415.165V16.8995H415.074L412.251 23.9467H410.727L407.904 16.8729H407.814V24H405.577V13.0909ZM421.593 24.1545C421.071 24.1545 420.605 24.0639 420.197 23.8828C419.789 23.6982 419.466 23.4265 419.228 23.0678C418.993 22.7056 418.876 22.2546 418.876 21.7148C418.876 21.2603 418.959 20.8786 419.126 20.5696C419.293 20.2607 419.521 20.0121 419.808 19.8239C420.096 19.6357 420.423 19.4936 420.788 19.3977C421.158 19.3018 421.545 19.2344 421.95 19.1953C422.425 19.1456 422.809 19.0994 423.1 19.0568C423.391 19.0107 423.603 18.9432 423.734 18.8544C423.865 18.7656 423.931 18.6342 423.931 18.4602V18.4283C423.931 18.0909 423.825 17.8299 423.611 17.6452C423.402 17.4606 423.104 17.3683 422.717 17.3683C422.308 17.3683 421.983 17.4588 421.742 17.6399C421.5 17.8175 421.341 18.0412 421.262 18.3111L419.164 18.1406C419.27 17.6435 419.48 17.2138 419.792 16.8516C420.105 16.4858 420.508 16.2053 421.001 16.0099C421.499 15.8111 422.074 15.7116 422.727 15.7116C423.182 15.7116 423.617 15.7649 424.032 15.8714C424.451 15.978 424.822 16.1431 425.146 16.3668C425.472 16.5906 425.73 16.8782 425.918 17.2298C426.106 17.5778 426.2 17.995 426.2 18.4815V24H424.048V22.8654H423.984C423.853 23.1211 423.677 23.3466 423.457 23.5419C423.237 23.7337 422.972 23.8846 422.663 23.9947C422.354 24.1012 421.997 24.1545 421.593 24.1545ZM422.242 22.5884C422.576 22.5884 422.871 22.5227 423.127 22.3913C423.382 22.2564 423.583 22.0753 423.729 21.848C423.874 21.6207 423.947 21.3633 423.947 21.0756V20.2074C423.876 20.2536 423.778 20.2962 423.654 20.3352C423.533 20.3707 423.397 20.4045 423.244 20.4364C423.091 20.4648 422.939 20.4915 422.786 20.5163C422.633 20.5376 422.495 20.5572 422.37 20.5749C422.104 20.614 421.871 20.6761 421.673 20.7614C421.474 20.8466 421.319 20.962 421.209 21.1076C421.099 21.2496 421.044 21.4272 421.044 21.6403C421.044 21.9492 421.156 22.1854 421.38 22.3487C421.607 22.5085 421.894 22.5884 422.242 22.5884ZM431.647 27.2386C430.912 27.2386 430.281 27.1374 429.756 26.935C429.234 26.7362 428.818 26.4645 428.509 26.12C428.2 25.7756 428 25.3885 427.907 24.9588L430.006 24.6765C430.07 24.8398 430.171 24.9925 430.31 25.1346C430.448 25.2766 430.631 25.3903 430.858 25.4755C431.089 25.5643 431.37 25.6087 431.7 25.6087C432.194 25.6087 432.6 25.4879 432.92 25.2464C433.243 25.0085 433.405 24.609 433.405 24.0479V22.5511H433.309C433.209 22.7784 433.06 22.9933 432.861 23.1957C432.662 23.3981 432.407 23.5632 432.094 23.6911C431.782 23.8189 431.409 23.8828 430.976 23.8828C430.361 23.8828 429.802 23.7408 429.298 23.4567C428.797 23.169 428.398 22.7305 428.099 22.141C427.804 21.5479 427.657 20.7987 427.657 19.8931C427.657 18.9663 427.808 18.1921 428.11 17.5707C428.412 16.9492 428.813 16.484 429.314 16.1751C429.818 15.8661 430.37 15.7116 430.97 15.7116C431.428 15.7116 431.812 15.7898 432.121 15.946C432.43 16.0987 432.678 16.2905 432.867 16.5213C433.058 16.7486 433.206 16.9723 433.309 17.1925H433.394V15.8182H435.647V24.0799C435.647 24.7759 435.477 25.3583 435.136 25.8271C434.795 26.2958 434.323 26.6474 433.719 26.8817C433.119 27.1197 432.428 27.2386 431.647 27.2386ZM431.695 22.1783C432.061 22.1783 432.369 22.0877 432.622 21.9066C432.877 21.7219 433.073 21.4592 433.208 21.1183C433.346 20.7738 433.415 20.3619 433.415 19.8825C433.415 19.4031 433.348 18.9876 433.213 18.636C433.078 18.2809 432.883 18.0057 432.627 17.8104C432.371 17.6151 432.061 17.5174 431.695 17.5174C431.322 17.5174 431.008 17.6186 430.752 17.821C430.496 18.0199 430.303 18.2969 430.171 18.652C430.04 19.0071 429.974 19.4173 429.974 19.8825C429.974 20.3548 430.04 20.7631 430.171 21.1076C430.306 21.4485 430.5 21.7131 430.752 21.9013C431.008 22.0859 431.322 22.1783 431.695 22.1783ZM441.182 24.1598C440.34 24.1598 439.616 23.9893 439.008 23.6484C438.405 23.304 437.939 22.8175 437.613 22.1889C437.286 21.5568 437.123 20.8093 437.123 19.9464C437.123 19.1048 437.286 18.3661 437.613 17.7305C437.939 17.0948 438.399 16.5994 438.992 16.2443C439.589 15.8892 440.288 15.7116 441.091 15.7116C441.631 15.7116 442.133 15.7987 442.598 15.9727C443.067 16.1431 443.476 16.4006 443.824 16.745C444.175 17.0895 444.449 17.5227 444.644 18.0447C444.839 18.5632 444.937 19.1705 444.937 19.8665V20.4897H438.028V19.0835H442.801C442.801 18.7567 442.73 18.4673 442.588 18.2152C442.446 17.9631 442.249 17.766 441.997 17.6239C441.748 17.4783 441.459 17.4055 441.128 17.4055C440.784 17.4055 440.478 17.4854 440.212 17.6452C439.949 17.8015 439.743 18.0128 439.594 18.2791C439.445 18.5419 439.369 18.8349 439.365 19.158V20.495C439.365 20.8999 439.44 21.2496 439.589 21.5444C439.742 21.8391 439.956 22.0664 440.233 22.2262C440.51 22.386 440.839 22.4659 441.219 22.4659C441.471 22.4659 441.702 22.4304 441.911 22.3594C442.121 22.2884 442.3 22.1818 442.449 22.0398C442.598 21.8977 442.712 21.7237 442.79 21.5178L444.889 21.6562C444.782 22.1605 444.564 22.6009 444.234 22.9773C443.907 23.3501 443.485 23.6413 442.966 23.8509C442.451 24.0568 441.856 24.1598 441.182 24.1598ZM448.687 19.2699V24H446.418V15.8182H448.58V17.2617H448.676C448.857 16.7859 449.161 16.4094 449.587 16.1325C450.013 15.8519 450.53 15.7116 451.137 15.7116C451.705 15.7116 452.201 15.8359 452.623 16.0845C453.046 16.3331 453.374 16.6882 453.609 17.1499C453.843 17.608 453.96 18.1548 453.96 18.7905V24H451.691V19.1953C451.695 18.6946 451.567 18.304 451.308 18.0234C451.048 17.7393 450.692 17.5973 450.237 17.5973C449.932 17.5973 449.662 17.663 449.427 17.7944C449.197 17.9258 449.015 18.1175 448.884 18.3697C448.756 18.6183 448.69 18.9183 448.687 19.2699ZM460.101 15.8182V17.5227H455.174V15.8182H460.101ZM456.292 13.858H458.561V21.4858C458.561 21.6953 458.593 21.8587 458.657 21.9759C458.721 22.0895 458.81 22.1694 458.924 22.2156C459.041 22.2617 459.176 22.2848 459.328 22.2848C459.435 22.2848 459.541 22.2759 459.648 22.2582C459.754 22.2369 459.836 22.2209 459.893 22.2102L460.25 23.8988C460.136 23.9343 459.976 23.9751 459.77 24.0213C459.564 24.071 459.314 24.1012 459.019 24.1119C458.473 24.1332 457.993 24.0604 457.581 23.8935C457.173 23.7266 456.855 23.4673 456.628 23.1158C456.4 22.7642 456.289 22.3203 456.292 21.7841V13.858ZM465.188 24.1598C464.36 24.1598 463.645 23.984 463.041 23.6325C462.441 23.2773 461.977 22.7837 461.651 22.1516C461.324 21.516 461.161 20.7791 461.161 19.9411C461.161 19.0959 461.324 18.3572 461.651 17.7251C461.977 17.0895 462.441 16.5959 463.041 16.2443C463.645 15.8892 464.36 15.7116 465.188 15.7116C466.015 15.7116 466.729 15.8892 467.329 16.2443C467.933 16.5959 468.398 17.0895 468.725 17.7251C469.051 18.3572 469.215 19.0959 469.215 19.9411C469.215 20.7791 469.051 21.516 468.725 22.1516C468.398 22.7837 467.933 23.2773 467.329 23.6325C466.729 23.984 466.015 24.1598 465.188 24.1598ZM465.198 22.402C465.575 22.402 465.889 22.2955 466.141 22.0824C466.393 21.8658 466.583 21.571 466.711 21.1982C466.843 20.8253 466.908 20.4009 466.908 19.9251C466.908 19.4492 466.843 19.0249 466.711 18.652C466.583 18.2791 466.393 17.9844 466.141 17.7678C465.889 17.5511 465.575 17.4428 465.198 17.4428C464.818 17.4428 464.499 17.5511 464.24 17.7678C463.984 17.9844 463.79 18.2791 463.659 18.652C463.531 19.0249 463.467 19.4492 463.467 19.9251C463.467 20.4009 463.531 20.8253 463.659 21.1982C463.79 21.571 463.984 21.8658 464.24 22.0824C464.499 22.2955 464.818 22.402 465.198 22.402ZM474.141 24V22.3381L478.024 18.7425C478.354 18.4229 478.631 18.1353 478.855 17.8796C479.082 17.6239 479.254 17.3736 479.371 17.1286C479.489 16.88 479.547 16.6119 479.547 16.3242C479.547 16.0046 479.474 15.7294 479.329 15.4986C479.183 15.2642 478.984 15.0849 478.732 14.9606C478.48 14.8327 478.194 14.7688 477.875 14.7688C477.541 14.7688 477.25 14.8363 477.001 14.9712C476.752 15.1062 476.561 15.2997 476.426 15.5518C476.291 15.804 476.223 16.104 476.223 16.4521H474.034C474.034 15.7383 474.196 15.1186 474.519 14.593C474.842 14.0675 475.295 13.6609 475.877 13.3732C476.459 13.0856 477.131 12.9418 477.891 12.9418C478.672 12.9418 479.352 13.0803 479.931 13.3572C480.513 13.6307 480.966 14.0107 481.289 14.4972C481.612 14.9837 481.774 15.5412 481.774 16.1697C481.774 16.5817 481.692 16.9883 481.529 17.3896C481.369 17.7908 481.083 18.2365 480.671 18.7266C480.259 19.2131 479.679 19.7972 478.929 20.479L477.337 22.0398V22.1143H481.918V24H474.141ZM490.32 22.3381V14.7955H492.227V22.3381H490.32ZM487.503 19.5202V17.6133H495.045V19.5202H487.503Z" fill="#22AA50"/>
<path d="M160.5 0.5H180.5L200.5 30.5L180.5 60.5H160.5L180.5 30.5L160.5 0.5Z" fill="#BB1F4E"/>
<path d="M340.5 0.5H360.5L380.5 30.5L360.5 60.5H340.5L360.5 30.5L340.5 0.5Z" fill="#BB1F4E"/>
</svg>
