<svg width="721" height="81" viewBox="0 0 721 81" fill="none" xmlns="http://www.w3.org/2000/svg">
<path d="M0.5 0.5H160.5L180.5 40.5L160.5 80.5H0.5L20.5 40.5L0.5 0.5Z" fill="#F1F2F3"/>
<path d="M52.9648 36.0909H55.8092L58.8135 43.4205H58.9413L61.9456 36.0909H64.79V47H62.5528V39.8995H62.4623L59.6391 46.9467H58.1157L55.2925 39.8729H55.202V47H52.9648V36.0909ZM68.9808 47.1545C68.4588 47.1545 67.9936 47.0639 67.5852 46.8828C67.1768 46.6982 66.8537 46.4265 66.6158 46.0678C66.3814 45.7056 66.2642 45.2546 66.2642 44.7148C66.2642 44.2603 66.3477 43.8786 66.5146 43.5696C66.6815 43.2607 66.9087 43.0121 67.1964 42.8239C67.484 42.6357 67.8107 42.4936 68.1765 42.3977C68.5458 42.3018 68.9329 42.2344 69.3377 42.1953C69.8136 42.1456 70.1971 42.0994 70.4883 42.0568C70.7795 42.0107 70.9908 41.9432 71.1222 41.8544C71.2536 41.7656 71.3192 41.6342 71.3192 41.4602V41.4283C71.3192 41.0909 71.2127 40.8299 70.9996 40.6452C70.7901 40.4606 70.4918 40.3683 70.1048 40.3683C69.6964 40.3683 69.3714 40.4588 69.13 40.6399C68.8885 40.8175 68.7287 41.0412 68.6506 41.3111L66.5518 41.1406C66.6584 40.6435 66.8679 40.2138 67.1804 39.8516C67.4929 39.4858 67.896 39.2053 68.3896 39.0099C68.8867 38.8111 69.462 38.7116 70.1154 38.7116C70.57 38.7116 71.005 38.7649 71.4205 38.8714C71.8395 38.978 72.2106 39.1431 72.5337 39.3668C72.8604 39.5906 73.1179 39.8782 73.3061 40.2298C73.4943 40.5778 73.5884 40.995 73.5884 41.4815V47H71.4364V45.8654H71.3725C71.2411 46.1211 71.0653 46.3466 70.8452 46.5419C70.625 46.7337 70.3604 46.8846 70.0515 46.9947C69.7425 47.1012 69.3857 47.1545 68.9808 47.1545ZM69.6307 45.5884C69.9645 45.5884 70.2592 45.5227 70.5149 45.3913C70.7706 45.2564 70.9712 45.0753 71.1168 44.848C71.2624 44.6207 71.3352 44.3633 71.3352 44.0756V43.2074C71.2642 43.2536 71.1665 43.2962 71.0423 43.3352C70.9215 43.3707 70.7848 43.4045 70.6321 43.4364C70.4794 43.4648 70.3267 43.4915 70.174 43.5163C70.0213 43.5376 69.8828 43.5572 69.7585 43.5749C69.4922 43.614 69.2596 43.6761 69.0607 43.7614C68.8619 43.8466 68.7074 43.962 68.5973 44.1076C68.4872 44.2496 68.4322 44.4272 68.4322 44.6403C68.4322 44.9492 68.544 45.1854 68.7678 45.3487C68.995 45.5085 69.2827 45.5884 69.6307 45.5884ZM79.035 50.2386C78.2999 50.2386 77.6696 50.1374 77.144 49.935C76.622 49.7362 76.2065 49.4645 75.8975 49.12C75.5886 48.7756 75.388 48.3885 75.2956 47.9588L77.3944 47.6765C77.4583 47.8398 77.5595 47.9925 77.698 48.1346C77.8365 48.2766 78.0194 48.3903 78.2466 48.4755C78.4775 48.5643 78.758 48.6087 79.0882 48.6087C79.5819 48.6087 79.9885 48.4879 80.3081 48.2464C80.6312 48.0085 80.7928 47.609 80.7928 47.0479V45.5511H80.6969C80.5975 45.7784 80.4483 45.9933 80.2495 46.1957C80.0506 46.3981 79.7949 46.5632 79.4824 46.6911C79.1699 46.8189 78.7971 46.8828 78.3638 46.8828C77.7495 46.8828 77.1902 46.7408 76.6859 46.4567C76.1852 46.169 75.7857 45.7305 75.4874 45.141C75.1926 44.5479 75.0453 43.7987 75.0453 42.8931C75.0453 41.9663 75.1962 41.1921 75.498 40.5707C75.7999 39.9492 76.2012 39.484 76.7019 39.1751C77.2061 38.8661 77.7583 38.7116 78.3585 38.7116C78.8166 38.7116 79.2001 38.7898 79.5091 38.946C79.818 39.0987 80.0666 39.2905 80.2548 39.5213C80.4466 39.7486 80.5939 39.9723 80.6969 40.1925H80.7821V38.8182H83.0353V47.0799C83.0353 47.7759 82.8649 48.3583 82.524 48.8271C82.1831 49.2958 81.7108 49.6474 81.1071 49.8817C80.5069 50.1197 79.8162 50.2386 79.035 50.2386ZM79.0829 45.1783C79.4487 45.1783 79.7576 45.0877 80.0098 44.9066C80.2654 44.7219 80.4608 44.4592 80.5957 44.1183C80.7342 43.7738 80.8034 43.3619 80.8034 42.8825C80.8034 42.4031 80.736 41.9876 80.601 41.636C80.4661 41.2809 80.2708 41.0057 80.0151 40.8104C79.7594 40.6151 79.4487 40.5174 79.0829 40.5174C78.71 40.5174 78.3958 40.6186 78.1401 40.821C77.8844 41.0199 77.6909 41.2969 77.5595 41.652C77.4281 42.0071 77.3624 42.4173 77.3624 42.8825C77.3624 43.3548 77.4281 43.7631 77.5595 44.1076C77.6944 44.4485 77.888 44.7131 78.1401 44.9013C78.3958 45.0859 78.71 45.1783 79.0829 45.1783ZM88.5698 47.1598C87.7282 47.1598 87.0037 46.9893 86.3965 46.6484C85.7928 46.304 85.3276 45.8175 85.0009 45.1889C84.6742 44.5568 84.5108 43.8093 84.5108 42.9464C84.5108 42.1048 84.6742 41.3661 85.0009 40.7305C85.3276 40.0948 85.7875 39.5994 86.3805 39.2443C86.9771 38.8892 87.6767 38.7116 88.4792 38.7116C89.019 38.7116 89.5215 38.7987 89.9867 38.9727C90.4554 39.1431 90.8638 39.4006 91.2118 39.745C91.5634 40.0895 91.8368 40.5227 92.0321 41.0447C92.2275 41.5632 92.3251 42.1705 92.3251 42.8665V43.4897H85.4164V42.0835H90.1891C90.1891 41.7567 90.1181 41.4673 89.976 41.2152C89.834 40.9631 89.6369 40.766 89.3848 40.6239C89.1362 40.4783 88.8468 40.4055 88.5165 40.4055C88.1721 40.4055 87.8667 40.4854 87.6003 40.6452C87.3375 40.8015 87.1316 41.0128 86.9824 41.2791C86.8333 41.5419 86.7569 41.8349 86.7534 42.158V43.495C86.7534 43.8999 86.8279 44.2496 86.9771 44.5444C87.1298 44.8391 87.3446 45.0664 87.6216 45.2262C87.8986 45.386 88.2271 45.4659 88.6071 45.4659C88.8592 45.4659 89.09 45.4304 89.2995 45.3594C89.5091 45.2884 89.6884 45.1818 89.8375 45.0398C89.9867 44.8977 90.1003 44.7237 90.1784 44.5178L92.2772 44.6562C92.1706 45.1605 91.9522 45.6009 91.622 45.9773C91.2953 46.3501 90.8727 46.6413 90.3542 46.8509C89.8393 47.0568 89.2445 47.1598 88.5698 47.1598ZM96.0751 42.2699V47H93.8059V38.8182H95.9686V40.2617H96.0645C96.2456 39.7859 96.5492 39.4094 96.9753 39.1325C97.4015 38.8519 97.9181 38.7116 98.5254 38.7116C99.0936 38.7116 99.589 38.8359 100.012 39.0845C100.434 39.3331 100.763 39.6882 100.997 40.1499C101.231 40.608 101.349 41.1548 101.349 41.7905V47H99.0794V42.1953C99.0829 41.6946 98.9551 41.304 98.6958 41.0234C98.4366 40.7393 98.0797 40.5973 97.6252 40.5973C97.3198 40.5973 97.0499 40.663 96.8155 40.7944C96.5847 40.9258 96.4036 41.1175 96.2722 41.3697C96.1444 41.6183 96.0787 41.9183 96.0751 42.2699ZM107.489 38.8182V40.5227H102.562V38.8182H107.489ZM103.68 36.858H105.949V44.4858C105.949 44.6953 105.981 44.8587 106.045 44.9759C106.109 45.0895 106.198 45.1694 106.312 45.2156C106.429 45.2617 106.564 45.2848 106.717 45.2848C106.823 45.2848 106.93 45.2759 107.036 45.2582C107.143 45.2369 107.224 45.2209 107.281 45.2102L107.638 46.8988C107.524 46.9343 107.365 46.9751 107.159 47.0213C106.953 47.071 106.702 47.1012 106.408 47.1119C105.861 47.1332 105.381 47.0604 104.969 46.8935C104.561 46.7266 104.243 46.4673 104.016 46.1158C103.789 45.7642 103.677 45.3203 103.68 44.7841V36.858ZM112.576 47.1598C111.748 47.1598 111.033 46.984 110.429 46.6325C109.829 46.2773 109.366 45.7837 109.039 45.1516C108.712 44.516 108.549 43.7791 108.549 42.9411C108.549 42.0959 108.712 41.3572 109.039 40.7251C109.366 40.0895 109.829 39.5959 110.429 39.2443C111.033 38.8892 111.748 38.7116 112.576 38.7116C113.403 38.7116 114.117 38.8892 114.717 39.2443C115.321 39.5959 115.786 40.0895 116.113 40.7251C116.44 41.3572 116.603 42.0959 116.603 42.9411C116.603 43.7791 116.44 44.516 116.113 45.1516C115.786 45.7837 115.321 46.2773 114.717 46.6325C114.117 46.984 113.403 47.1598 112.576 47.1598ZM112.587 45.402C112.963 45.402 113.277 45.2955 113.529 45.0824C113.782 44.8658 113.972 44.571 114.099 44.1982C114.231 43.8253 114.296 43.4009 114.296 42.9251C114.296 42.4492 114.231 42.0249 114.099 41.652C113.972 41.2791 113.782 40.9844 113.529 40.7678C113.277 40.5511 112.963 40.4428 112.587 40.4428C112.207 40.4428 111.887 40.5511 111.628 40.7678C111.372 40.9844 111.179 41.2791 111.047 41.652C110.919 42.0249 110.855 42.4492 110.855 42.9251C110.855 43.4009 110.919 43.8253 111.047 44.1982C111.179 44.571 111.372 44.8658 111.628 45.0824C111.887 45.2955 112.207 45.402 112.587 45.402ZM126.275 36.0909V47H123.968V38.2802H123.904L121.406 39.8462V37.8008L124.107 36.0909H126.275Z" fill="#333333"/>
<path d="M180.5 0.5H340.5L360.5 40.5L340.5 80.5H180.5L200.5 40.5L180.5 0.5Z" fill="#F1F2F3"/>
<path d="M360.5 0.5H520.5L540.5 40.5L520.5 80.5H360.5L380.5 40.5L360.5 0.5Z" fill="#F1F2F3"/>
<path d="M160.5 0.5H180.5L200.5 40.5L180.5 80.5H160.5L180.5 40.5L160.5 0.5Z" fill="#BB1F4E"/>
<path d="M340.5 0.5H360.5L380.5 40.5L360.5 80.5H340.5L360.5 40.5L340.5 0.5Z" fill="#BB1F4E"/>
<path d="M540.5 0.5H700.5L720.5 40.5L700.5 80.5H540.5L560.5 40.5L540.5 0.5Z" fill="#F1F2F3"/>
<path d="M596.661 12.5455H599.126L601.729 18.8977H601.84L604.444 12.5455H606.909V22H604.97V15.8462H604.892L602.445 21.9538H601.125L598.678 15.8232H598.6V22H596.661V12.5455ZM610.541 22.1339C610.089 22.1339 609.686 22.0554 609.332 21.8984C608.978 21.7384 608.698 21.503 608.491 21.1921C608.288 20.8782 608.187 20.4873 608.187 20.0195C608.187 19.6256 608.259 19.2947 608.404 19.027C608.548 18.7592 608.745 18.5438 608.995 18.3807C609.244 18.2176 609.527 18.0945 609.844 18.0114C610.164 17.9283 610.5 17.8698 610.85 17.8359C611.263 17.7929 611.595 17.7528 611.848 17.7159C612.1 17.6759 612.283 17.6174 612.397 17.5405C612.511 17.4635 612.568 17.3497 612.568 17.1989V17.1712C612.568 16.8788 612.475 16.6526 612.291 16.4925C612.109 16.3325 611.851 16.2525 611.515 16.2525C611.161 16.2525 610.88 16.331 610.67 16.4879C610.461 16.6418 610.323 16.8357 610.255 17.0696L608.436 16.9219C608.528 16.491 608.71 16.1186 608.981 15.8047C609.252 15.4877 609.601 15.2446 610.029 15.0753C610.46 14.9029 610.958 14.8168 611.525 14.8168C611.918 14.8168 612.295 14.8629 612.656 14.9553C613.019 15.0476 613.34 15.1907 613.62 15.3846C613.904 15.5785 614.127 15.8278 614.29 16.1325C614.453 16.4341 614.534 16.7957 614.534 17.2173V22H612.669V21.0167H612.614C612.5 21.2383 612.348 21.4337 612.157 21.603C611.966 21.7692 611.737 21.9 611.469 21.9954C611.201 22.0877 610.892 22.1339 610.541 22.1339ZM611.104 20.7766C611.394 20.7766 611.649 20.7197 611.871 20.6058C612.092 20.4889 612.266 20.3319 612.392 20.1349C612.519 19.938 612.582 19.7148 612.582 19.4656V18.7131C612.52 18.7531 612.435 18.79 612.328 18.8239C612.223 18.8546 612.105 18.8839 611.972 18.9116C611.84 18.9362 611.708 18.9593 611.575 18.9808C611.443 18.9993 611.323 19.0162 611.215 19.0316C610.984 19.0655 610.783 19.1193 610.61 19.1932C610.438 19.267 610.304 19.3671 610.209 19.4933C610.113 19.6164 610.066 19.7702 610.066 19.9549C610.066 20.2227 610.163 20.4273 610.357 20.5689C610.554 20.7074 610.803 20.7766 611.104 20.7766ZM619.255 24.8068C618.618 24.8068 618.071 24.7191 617.616 24.5437C617.164 24.3713 616.803 24.1359 616.536 23.8374C616.268 23.5388 616.094 23.2034 616.014 22.831L617.833 22.5863C617.888 22.7279 617.976 22.8602 618.096 22.9833C618.216 23.1064 618.375 23.2049 618.572 23.2788C618.772 23.3557 619.015 23.3942 619.301 23.3942C619.729 23.3942 620.081 23.2895 620.358 23.0803C620.638 22.8741 620.778 22.5278 620.778 22.0415V20.7443H620.695C620.609 20.9413 620.48 21.1275 620.307 21.3029C620.135 21.4783 619.913 21.6214 619.643 21.7322C619.372 21.843 619.049 21.8984 618.673 21.8984C618.141 21.8984 617.656 21.7753 617.219 21.5291C616.785 21.2798 616.439 20.8997 616.18 20.3888C615.925 19.8749 615.797 19.2255 615.797 18.4407C615.797 17.6374 615.928 16.9665 616.189 16.4279C616.451 15.8893 616.799 15.4862 617.233 15.2184C617.67 14.9506 618.148 14.8168 618.669 14.8168C619.066 14.8168 619.398 14.8845 619.666 15.0199C619.933 15.1522 620.149 15.3184 620.312 15.5185C620.478 15.7154 620.606 15.9093 620.695 16.1001H620.769V14.9091H622.722V22.0692C622.722 22.6725 622.574 23.1772 622.279 23.5835C621.983 23.9897 621.574 24.2944 621.051 24.4975C620.53 24.7037 619.932 24.8068 619.255 24.8068ZM619.296 20.4212C619.613 20.4212 619.881 20.3427 620.1 20.1857C620.321 20.0257 620.49 19.7979 620.607 19.5025C620.727 19.204 620.787 18.8469 620.787 18.4315C620.787 18.016 620.729 17.6559 620.612 17.3512C620.495 17.0434 620.326 16.8049 620.104 16.6357C619.883 16.4664 619.613 16.3817 619.296 16.3817C618.973 16.3817 618.701 16.4695 618.479 16.6449C618.258 16.8172 618.09 17.0573 617.976 17.3651C617.862 17.6728 617.805 18.0283 617.805 18.4315C617.805 18.8408 617.862 19.1947 617.976 19.4933C618.093 19.7887 618.261 20.018 618.479 20.1811C618.701 20.3411 618.973 20.4212 619.296 20.4212ZM627.518 22.1385C626.789 22.1385 626.161 21.9908 625.635 21.6953C625.112 21.3968 624.708 20.9751 624.425 20.4304C624.142 19.8826 624.001 19.2347 624.001 18.4869C624.001 17.7575 624.142 17.1173 624.425 16.5664C624.708 16.0155 625.107 15.5862 625.621 15.2784C626.138 14.9706 626.744 14.8168 627.44 14.8168C627.908 14.8168 628.343 14.8922 628.746 15.043C629.153 15.1907 629.506 15.4138 629.808 15.7124C630.113 16.0109 630.35 16.3864 630.519 16.8388C630.688 17.2881 630.773 17.8144 630.773 18.4176V18.9577H624.785V17.739H628.922C628.922 17.4558 628.86 17.205 628.737 16.9865C628.614 16.768 628.443 16.5972 628.225 16.4741C628.009 16.3479 627.758 16.2848 627.472 16.2848C627.174 16.2848 626.909 16.354 626.678 16.4925C626.45 16.628 626.272 16.8111 626.143 17.0419C626.013 17.2696 625.947 17.5236 625.944 17.8036V18.9624C625.944 19.3132 626.009 19.6164 626.138 19.8718C626.27 20.1272 626.456 20.3242 626.697 20.4627C626.937 20.6012 627.221 20.6705 627.551 20.6705C627.769 20.6705 627.969 20.6397 628.151 20.5781C628.332 20.5166 628.488 20.4242 628.617 20.3011C628.746 20.178 628.845 20.0272 628.912 19.8487L630.731 19.9688C630.639 20.4058 630.45 20.7874 630.164 21.1136C629.88 21.4368 629.514 21.6892 629.065 21.8707C628.619 22.0492 628.103 22.1385 627.518 22.1385ZM634.023 17.9006V22H632.056V14.9091H633.931V16.1602H634.014C634.171 15.7478 634.434 15.4215 634.803 15.1815C635.172 14.9383 635.62 14.8168 636.146 14.8168C636.639 14.8168 637.068 14.9245 637.434 15.1399C637.801 15.3554 638.085 15.6631 638.289 16.0632C638.492 16.4602 638.593 16.9342 638.593 17.4851V22H636.627V17.8359C636.63 17.402 636.519 17.0634 636.294 16.8203C636.07 16.5741 635.76 16.451 635.366 16.451C635.102 16.451 634.868 16.5079 634.665 16.6218C634.465 16.7357 634.308 16.9019 634.194 17.1204C634.083 17.3358 634.026 17.5959 634.023 17.9006ZM643.915 14.9091V16.3864H639.645V14.9091H643.915ZM640.614 13.2102H642.581V19.821C642.581 20.0026 642.608 20.1442 642.664 20.2457C642.719 20.3442 642.796 20.4135 642.895 20.4535C642.996 20.4935 643.113 20.5135 643.245 20.5135C643.338 20.5135 643.43 20.5058 643.522 20.4904C643.615 20.4719 643.686 20.4581 643.735 20.4489L644.044 21.9123C643.946 21.9431 643.807 21.9785 643.629 22.0185C643.45 22.0616 643.233 22.0877 642.978 22.0969C642.504 22.1154 642.088 22.0523 641.731 21.9077C641.377 21.763 641.102 21.5384 640.905 21.2337C640.708 20.929 640.611 20.5443 640.614 20.0795V13.2102ZM648.324 22.1385C647.607 22.1385 646.986 21.9862 646.463 21.6815C645.943 21.3737 645.541 20.9459 645.258 20.3981C644.975 19.8472 644.834 19.2086 644.834 18.4822C644.834 17.7498 644.975 17.1096 645.258 16.5618C645.541 16.0109 645.943 15.5831 646.463 15.2784C646.986 14.9706 647.607 14.8168 648.324 14.8168C649.041 14.8168 649.659 14.9706 650.179 15.2784C650.703 15.5831 651.106 16.0109 651.389 16.5618C651.672 17.1096 651.814 17.7498 651.814 18.4822C651.814 19.2086 651.672 19.8472 651.389 20.3981C651.106 20.9459 650.703 21.3737 650.179 21.6815C649.659 21.9862 649.041 22.1385 648.324 22.1385ZM648.333 20.6151C648.659 20.6151 648.931 20.5227 649.15 20.3381C649.368 20.1503 649.533 19.8949 649.644 19.5717C649.758 19.2486 649.815 18.8808 649.815 18.4684C649.815 18.056 649.758 17.6882 649.644 17.3651C649.533 17.0419 649.368 16.7865 649.15 16.5987C648.931 16.411 648.659 16.3171 648.333 16.3171C648.004 16.3171 647.727 16.411 647.502 16.5987C647.28 16.7865 647.113 17.0419 646.999 17.3651C646.888 17.6882 646.832 18.056 646.832 18.4684C646.832 18.8808 646.888 19.2486 646.999 19.5717C647.113 19.8949 647.28 20.1503 647.502 20.3381C647.727 20.5227 648.004 20.6151 648.333 20.6151ZM661.917 21.4876V14.9506H663.57V21.4876H661.917ZM659.475 19.0455V17.3928H666.012V19.0455H659.475Z" fill="#22AA50"/>
<path d="M593.768 39L591.063 29.5455H593.246L594.811 36.1147H594.89L596.616 29.5455H598.486L600.208 36.1286H600.291L601.856 29.5455H604.039L601.334 39H599.386L597.586 32.8185H597.512L595.716 39H593.768ZM607.515 39.1385C606.797 39.1385 606.177 38.9862 605.654 38.6815C605.134 38.3737 604.732 37.9459 604.449 37.3981C604.166 36.8472 604.024 36.2086 604.024 35.4822C604.024 34.7498 604.166 34.1096 604.449 33.5618C604.732 33.0109 605.134 32.5831 605.654 32.2784C606.177 31.9706 606.797 31.8168 607.515 31.8168C608.232 31.8168 608.85 31.9706 609.37 32.2784C609.894 32.5831 610.297 33.0109 610.58 33.5618C610.863 34.1096 611.005 34.7498 611.005 35.4822C611.005 36.2086 610.863 36.8472 610.58 37.3981C610.297 37.9459 609.894 38.3737 609.37 38.6815C608.85 38.9862 608.232 39.1385 607.515 39.1385ZM607.524 37.6151C607.85 37.6151 608.122 37.5227 608.341 37.3381C608.559 37.1503 608.724 36.8949 608.835 36.5717C608.949 36.2486 609.006 35.8808 609.006 35.4684C609.006 35.056 608.949 34.6882 608.835 34.3651C608.724 34.0419 608.559 33.7865 608.341 33.5987C608.122 33.411 607.85 33.3171 607.524 33.3171C607.194 33.3171 606.917 33.411 606.693 33.5987C606.471 33.7865 606.303 34.0419 606.19 34.3651C606.079 34.6882 606.023 35.056 606.023 35.4684C606.023 35.8808 606.079 36.2486 606.19 36.5717C606.303 36.8949 606.471 37.1503 606.693 37.3381C606.917 37.5227 607.194 37.6151 607.524 37.6151ZM612.283 39V31.9091H614.19V33.1463H614.264C614.393 32.7062 614.61 32.3738 614.915 32.1491C615.219 31.9214 615.57 31.8075 615.967 31.8075C616.066 31.8075 616.172 31.8137 616.286 31.826C616.4 31.8383 616.5 31.8552 616.586 31.8768V33.6218C616.494 33.5941 616.366 33.5695 616.203 33.5479C616.04 33.5264 615.89 33.5156 615.755 33.5156C615.466 33.5156 615.207 33.5787 614.979 33.7049C614.755 33.828 614.576 34.0004 614.444 34.2219C614.315 34.4435 614.25 34.699 614.25 34.9883V39H612.283ZM619.886 39.1154C619.347 39.1154 618.859 38.9769 618.422 38.6999C617.988 38.4199 617.643 38.009 617.388 37.4673C617.136 36.9226 617.009 36.2547 617.009 35.4638C617.009 34.6513 617.14 33.9757 617.402 33.4371C617.663 32.8955 618.011 32.4908 618.445 32.223C618.882 31.9522 619.361 31.8168 619.881 31.8168C620.278 31.8168 620.609 31.8845 620.873 32.0199C621.141 32.1522 621.357 32.3184 621.52 32.5185C621.686 32.7154 621.812 32.9093 621.898 33.1001H621.958V29.5455H623.92V39H621.981V37.8643H621.898C621.806 38.0613 621.675 38.2567 621.506 38.4506C621.34 38.6415 621.123 38.8 620.855 38.9261C620.59 39.0523 620.267 39.1154 619.886 39.1154ZM620.509 37.5504C620.826 37.5504 621.093 37.4643 621.312 37.2919C621.534 37.1165 621.703 36.8718 621.82 36.5579C621.94 36.244 622 35.8762 622 35.4545C622 35.0329 621.941 34.6667 621.824 34.3558C621.707 34.045 621.538 33.8049 621.317 33.6357C621.095 33.4664 620.826 33.3817 620.509 33.3817C620.186 33.3817 619.913 33.4695 619.692 33.6449C619.47 33.8203 619.302 34.0634 619.188 34.3743C619.075 34.6851 619.018 35.0452 619.018 35.4545C619.018 35.867 619.075 36.2317 619.188 36.5487C619.305 36.8626 619.473 37.1088 619.692 37.2873C619.913 37.4627 620.186 37.5504 620.509 37.5504ZM625.537 41.6591V31.9091H627.476V33.1001H627.564C627.65 32.9093 627.775 32.7154 627.938 32.5185C628.104 32.3184 628.319 32.1522 628.584 32.0199C628.852 31.8845 629.184 31.8168 629.581 31.8168C630.098 31.8168 630.575 31.9522 631.012 32.223C631.449 32.4908 631.799 32.8955 632.06 33.4371C632.322 33.9757 632.453 34.6513 632.453 35.4638C632.453 36.2547 632.325 36.9226 632.07 37.4673C631.817 38.009 631.472 38.4199 631.035 38.6999C630.602 38.9769 630.115 39.1154 629.577 39.1154C629.195 39.1154 628.87 39.0523 628.603 38.9261C628.338 38.8 628.121 38.6415 627.952 38.4506C627.782 38.2567 627.653 38.0613 627.564 37.8643H627.504V41.6591H625.537ZM627.462 35.4545C627.462 35.8762 627.521 36.244 627.638 36.5579C627.755 36.8718 627.924 37.1165 628.146 37.2919C628.367 37.4643 628.636 37.5504 628.953 37.5504C629.274 37.5504 629.544 37.4627 629.766 37.2873C629.988 37.1088 630.155 36.8626 630.269 36.5487C630.386 36.2317 630.445 35.867 630.445 35.4545C630.445 35.0452 630.388 34.6851 630.274 34.3743C630.16 34.0634 629.992 33.8203 629.771 33.6449C629.549 33.4695 629.277 33.3817 628.953 33.3817C628.633 33.3817 628.363 33.4664 628.141 33.6357C627.922 33.8049 627.755 34.045 627.638 34.3558C627.521 34.6667 627.462 35.0329 627.462 35.4545ZM633.764 39V31.9091H635.67V33.1463H635.744C635.874 32.7062 636.091 32.3738 636.395 32.1491C636.7 31.9214 637.051 31.8075 637.448 31.8075C637.546 31.8075 637.652 31.8137 637.766 31.826C637.88 31.8383 637.98 31.8552 638.066 31.8768V33.6218C637.974 33.5941 637.846 33.5695 637.683 33.5479C637.52 33.5264 637.371 33.5156 637.235 33.5156C636.946 33.5156 636.688 33.5787 636.46 33.7049C636.235 33.828 636.057 34.0004 635.924 34.2219C635.795 34.4435 635.73 34.699 635.73 34.9883V39H633.764ZM641.985 39.1385C641.255 39.1385 640.627 38.9908 640.101 38.6953C639.578 38.3968 639.175 37.9751 638.892 37.4304C638.608 36.8826 638.467 36.2347 638.467 35.4869C638.467 34.7575 638.608 34.1173 638.892 33.5664C639.175 33.0155 639.573 32.5862 640.087 32.2784C640.604 31.9706 641.211 31.8168 641.906 31.8168C642.374 31.8168 642.809 31.8922 643.213 32.043C643.619 32.1907 643.973 32.4138 644.274 32.7124C644.579 33.0109 644.816 33.3864 644.985 33.8388C645.155 34.2881 645.239 34.8144 645.239 35.4176V35.9577H639.252V34.739H643.388C643.388 34.4558 643.326 34.205 643.203 33.9865C643.08 33.768 642.909 33.5972 642.691 33.4741C642.475 33.3479 642.225 33.2848 641.938 33.2848C641.64 33.2848 641.375 33.354 641.144 33.4925C640.917 33.628 640.738 33.8111 640.609 34.0419C640.48 34.2696 640.413 34.5236 640.41 34.8036V35.9624C640.41 36.3132 640.475 36.6164 640.604 36.8718C640.737 37.1272 640.923 37.3242 641.163 37.4627C641.403 37.6012 641.688 37.6705 642.017 37.6705C642.235 37.6705 642.435 37.6397 642.617 37.5781C642.799 37.5166 642.954 37.4242 643.083 37.3011C643.213 37.178 643.311 37.0272 643.379 36.8487L645.198 36.9688C645.105 37.4058 644.916 37.7874 644.63 38.1136C644.347 38.4368 643.98 38.6892 643.531 38.8707C643.085 39.0492 642.569 39.1385 641.985 39.1385ZM652.422 33.9311L650.622 34.0419C650.591 33.888 650.525 33.7495 650.424 33.6264C650.322 33.5002 650.188 33.4002 650.022 33.3263C649.859 33.2494 649.663 33.2109 649.436 33.2109C649.131 33.2109 648.874 33.2756 648.665 33.4048C648.455 33.531 648.351 33.7003 648.351 33.9126C648.351 34.0819 648.418 34.225 648.554 34.342C648.689 34.4589 648.922 34.5528 649.251 34.6236L650.534 34.8821C651.224 35.0237 651.738 35.2514 652.076 35.5653C652.415 35.8793 652.584 36.2917 652.584 36.8026C652.584 37.2673 652.447 37.6751 652.173 38.0259C651.902 38.3768 651.53 38.6507 651.056 38.8477C650.585 39.0415 650.042 39.1385 649.426 39.1385C648.488 39.1385 647.74 38.9431 647.183 38.5522C646.629 38.1583 646.304 37.6228 646.209 36.9457L648.143 36.8441C648.201 37.1303 648.343 37.3488 648.568 37.4996C648.792 37.6474 649.08 37.7212 649.431 37.7212C649.776 37.7212 650.053 37.6551 650.262 37.5227C650.474 37.3873 650.582 37.2134 650.585 37.0011C650.582 36.8226 650.507 36.6764 650.359 36.5625C650.211 36.4455 649.983 36.3563 649.676 36.2947L648.448 36.0501C647.755 35.9116 647.24 35.6715 646.901 35.3299C646.566 34.9883 646.398 34.5528 646.398 34.0234C646.398 33.5679 646.521 33.1755 646.767 32.8462C647.017 32.5169 647.366 32.263 647.815 32.0845C648.268 31.906 648.797 31.8168 649.403 31.8168C650.299 31.8168 651.004 32.006 651.518 32.3846C652.035 32.7631 652.336 33.2786 652.422 33.9311ZM659.722 33.9311L657.922 34.0419C657.891 33.888 657.825 33.7495 657.723 33.6264C657.622 33.5002 657.488 33.4002 657.322 33.3263C657.159 33.2494 656.963 33.2109 656.735 33.2109C656.431 33.2109 656.174 33.2756 655.964 33.4048C655.755 33.531 655.651 33.7003 655.651 33.9126C655.651 34.0819 655.718 34.225 655.854 34.342C655.989 34.4589 656.221 34.5528 656.551 34.6236L657.834 34.8821C658.524 35.0237 659.037 35.2514 659.376 35.5653C659.715 35.8793 659.884 36.2917 659.884 36.8026C659.884 37.2673 659.747 37.6751 659.473 38.0259C659.202 38.3768 658.83 38.6507 658.356 38.8477C657.885 39.0415 657.342 39.1385 656.726 39.1385C655.787 39.1385 655.04 38.9431 654.483 38.5522C653.929 38.1583 653.604 37.6228 653.508 36.9457L655.443 36.8441C655.501 37.1303 655.643 37.3488 655.867 37.4996C656.092 37.6474 656.38 37.7212 656.731 37.7212C657.075 37.7212 657.352 37.6551 657.562 37.5227C657.774 37.3873 657.882 37.2134 657.885 37.0011C657.882 36.8226 657.806 36.6764 657.659 36.5625C657.511 36.4455 657.283 36.3563 656.975 36.2947L655.747 36.0501C655.055 35.9116 654.539 35.6715 654.201 35.3299C653.865 34.9883 653.698 34.5528 653.698 34.0234C653.698 33.5679 653.821 33.1755 654.067 32.8462C654.316 32.5169 654.666 32.263 655.115 32.0845C655.567 31.906 656.097 31.8168 656.703 31.8168C657.599 31.8168 658.303 32.006 658.817 32.3846C659.334 32.7631 659.636 33.2786 659.722 33.9311ZM666.938 38.4876V31.9506H668.591V38.4876H666.938ZM664.496 36.0455V34.3928H671.033V36.0455H664.496Z" fill="#333333"/>
<path d="M603.73 56H601.588L604.852 46.5455H607.428L610.687 56H608.545L606.177 48.706H606.103L603.73 56ZM603.596 52.2837H608.656V53.8441H603.596V52.2837ZM613.57 53.9595L613.575 51.6005H613.861L616.132 48.9091H618.39L615.338 52.473H614.872L613.57 53.9595ZM611.788 56V46.5455H613.755V56H611.788ZM616.22 56L614.133 52.9116L615.444 51.522L618.524 56H616.22ZM622.294 56.1385C621.565 56.1385 620.937 55.9908 620.411 55.6953C619.887 55.3968 619.484 54.9751 619.201 54.4304C618.918 53.8826 618.776 53.2347 618.776 52.4869C618.776 51.7575 618.918 51.1173 619.201 50.5664C619.484 50.0155 619.883 49.5862 620.397 49.2784C620.914 48.9706 621.52 48.8168 622.216 48.8168C622.683 48.8168 623.119 48.8922 623.522 49.043C623.928 49.1907 624.282 49.4138 624.584 49.7124C624.889 50.0109 625.126 50.3864 625.295 50.8388C625.464 51.2881 625.549 51.8144 625.549 52.4176V52.9577H619.561V51.739H623.698C623.698 51.4558 623.636 51.205 623.513 50.9865C623.39 50.768 623.219 50.5972 623 50.4741C622.785 50.3479 622.534 50.2848 622.248 50.2848C621.949 50.2848 621.685 50.354 621.454 50.4925C621.226 50.628 621.048 50.8111 620.918 51.0419C620.789 51.2696 620.723 51.5236 620.72 51.8036V52.9624C620.72 53.3132 620.785 53.6164 620.914 53.8718C621.046 54.1272 621.232 54.3242 621.472 54.4627C621.712 54.6012 621.997 54.6705 622.326 54.6705C622.545 54.6705 622.745 54.6397 622.927 54.5781C623.108 54.5166 623.264 54.4242 623.393 54.3011C623.522 54.178 623.621 54.0272 623.688 53.8487L625.507 53.9688C625.415 54.4058 625.226 54.7874 624.939 55.1136C624.656 55.4368 624.29 55.6892 623.841 55.8707C623.394 56.0492 622.879 56.1385 622.294 56.1385ZM628.799 51.9006V56H626.832V48.9091H628.706V50.1602H628.79C628.947 49.7478 629.21 49.4215 629.579 49.1815C629.948 48.9383 630.396 48.8168 630.922 48.8168C631.415 48.8168 631.844 48.9245 632.21 49.1399C632.577 49.3554 632.861 49.6631 633.064 50.0632C633.268 50.4602 633.369 50.9342 633.369 51.4851V56H631.402V51.8359C631.406 51.402 631.295 51.0634 631.07 50.8203C630.845 50.5741 630.536 50.451 630.142 50.451C629.878 50.451 629.644 50.5079 629.44 50.6218C629.24 50.7357 629.083 50.9019 628.97 51.1204C628.859 51.3358 628.802 51.5959 628.799 51.9006ZM638.151 56.1385C637.421 56.1385 636.793 55.9908 636.267 55.6953C635.744 55.3968 635.341 54.9751 635.058 54.4304C634.774 53.8826 634.633 53.2347 634.633 52.4869C634.633 51.7575 634.774 51.1173 635.058 50.5664C635.341 50.0155 635.739 49.5862 636.253 49.2784C636.77 48.9706 637.377 48.8168 638.072 48.8168C638.54 48.8168 638.975 48.8922 639.379 49.043C639.785 49.1907 640.139 49.4138 640.44 49.7124C640.745 50.0109 640.982 50.3864 641.151 50.8388C641.321 51.2881 641.405 51.8144 641.405 52.4176V52.9577H635.418V51.739H639.554C639.554 51.4558 639.492 51.205 639.369 50.9865C639.246 50.768 639.075 50.5972 638.857 50.4741C638.641 50.3479 638.391 50.2848 638.104 50.2848C637.806 50.2848 637.541 50.354 637.31 50.4925C637.083 50.628 636.904 50.8111 636.775 51.0419C636.646 51.2696 636.579 51.5236 636.576 51.8036V52.9624C636.576 53.3132 636.641 53.6164 636.77 53.8718C636.903 54.1272 637.089 54.3242 637.329 54.4627C637.569 54.6012 637.854 54.6705 638.183 54.6705C638.401 54.6705 638.601 54.6397 638.783 54.5781C638.965 54.5166 639.12 54.4242 639.249 54.3011C639.379 54.178 639.477 54.0272 639.545 53.8487L641.364 53.9688C641.271 54.4058 641.082 54.7874 640.796 55.1136C640.513 55.4368 640.146 55.6892 639.697 55.8707C639.251 56.0492 638.735 56.1385 638.151 56.1385ZM645.892 56.1385C645.175 56.1385 644.555 55.9862 644.032 55.6815C643.512 55.3737 643.11 54.9459 642.827 54.3981C642.544 53.8472 642.402 53.2086 642.402 52.4822C642.402 51.7498 642.544 51.1096 642.827 50.5618C643.11 50.0109 643.512 49.5831 644.032 49.2784C644.555 48.9706 645.175 48.8168 645.892 48.8168C646.61 48.8168 647.228 48.9706 647.748 49.2784C648.271 49.5831 648.675 50.0109 648.958 50.5618C649.241 51.1096 649.383 51.7498 649.383 52.4822C649.383 53.2086 649.241 53.8472 648.958 54.3981C648.675 54.9459 648.271 55.3737 647.748 55.6815C647.228 55.9862 646.61 56.1385 645.892 56.1385ZM645.902 54.6151C646.228 54.6151 646.5 54.5227 646.719 54.3381C646.937 54.1503 647.102 53.8949 647.213 53.5717C647.327 53.2486 647.384 52.8808 647.384 52.4684C647.384 52.056 647.327 51.6882 647.213 51.3651C647.102 51.0419 646.937 50.7865 646.719 50.5987C646.5 50.411 646.228 50.3171 645.902 50.3171C645.572 50.3171 645.295 50.411 645.071 50.5987C644.849 50.7865 644.681 51.0419 644.568 51.3651C644.457 51.6882 644.401 52.056 644.401 52.4684C644.401 52.8808 644.457 53.2486 644.568 53.5717C644.681 53.8949 644.849 54.1503 645.071 54.3381C645.295 54.5227 645.572 54.6151 645.902 54.6151ZM656.477 55.4876V48.9506H658.13V55.4876H656.477ZM654.035 53.0455V51.3928H660.572V53.0455H654.035Z" fill="#333333"/>
<path d="M577.776 73V63.5455H584.036V65.1935H579.775V67.4464H583.621V69.0945H579.775V73H577.776ZM585.23 73V65.9091H587.136V67.1463H587.21C587.339 66.7062 587.556 66.3738 587.861 66.1491C588.166 65.9214 588.517 65.8075 588.914 65.8075C589.012 65.8075 589.118 65.8137 589.232 65.826C589.346 65.8383 589.446 65.8552 589.532 65.8768V67.6218C589.44 67.5941 589.312 67.5695 589.149 67.5479C588.986 67.5264 588.837 67.5156 588.701 67.5156C588.412 67.5156 588.153 67.5787 587.926 67.7049C587.701 67.828 587.522 68.0004 587.39 68.2219C587.261 68.4435 587.196 68.699 587.196 68.9883V73H585.23ZM593.423 73.1385C592.706 73.1385 592.085 72.9862 591.562 72.6815C591.042 72.3737 590.641 71.9459 590.357 71.3981C590.074 70.8472 589.933 70.2086 589.933 69.4822C589.933 68.7498 590.074 68.1096 590.357 67.5618C590.641 67.0109 591.042 66.5831 591.562 66.2784C592.085 65.9706 592.706 65.8168 593.423 65.8168C594.14 65.8168 594.758 65.9706 595.279 66.2784C595.802 66.5831 596.205 67.0109 596.488 67.5618C596.771 68.1096 596.913 68.7498 596.913 69.4822C596.913 70.2086 596.771 70.8472 596.488 71.3981C596.205 71.9459 595.802 72.3737 595.279 72.6815C594.758 72.9862 594.14 73.1385 593.423 73.1385ZM593.432 71.6151C593.758 71.6151 594.031 71.5227 594.249 71.3381C594.468 71.1503 594.632 70.8949 594.743 70.5717C594.857 70.2486 594.914 69.8808 594.914 69.4684C594.914 69.056 594.857 68.6882 594.743 68.3651C594.632 68.0419 594.468 67.7865 594.249 67.5987C594.031 67.411 593.758 67.3171 593.432 67.3171C593.103 67.3171 592.826 67.411 592.601 67.5987C592.379 67.7865 592.212 68.0419 592.098 68.3651C591.987 68.6882 591.932 69.056 591.932 69.4684C591.932 69.8808 591.987 70.2486 592.098 70.5717C592.212 70.8949 592.379 71.1503 592.601 71.3381C592.826 71.5227 593.103 71.6151 593.432 71.6151ZM600.158 68.9006V73H598.192V65.9091H600.066V67.1602H600.149C600.306 66.7478 600.569 66.4215 600.938 66.1815C601.308 65.9383 601.755 65.8168 602.282 65.8168C602.774 65.8168 603.203 65.9245 603.57 66.1399C603.936 66.3554 604.221 66.6631 604.424 67.0632C604.627 67.4602 604.728 67.9342 604.728 68.4851V73H602.762V68.8359C602.765 68.402 602.654 68.0634 602.429 67.8203C602.205 67.5741 601.895 67.451 601.502 67.451C601.237 67.451 601.003 67.5079 600.8 67.6218C600.6 67.7357 600.443 67.9019 600.329 68.1204C600.218 68.3358 600.161 68.5959 600.158 68.9006ZM610.05 65.9091V67.3864H605.78V65.9091H610.05ZM606.749 64.2102H608.716V70.821C608.716 71.0026 608.744 71.1442 608.799 71.2457C608.854 71.3442 608.931 71.4135 609.03 71.4535C609.131 71.4935 609.248 71.5135 609.381 71.5135C609.473 71.5135 609.565 71.5058 609.658 71.4904C609.75 71.4719 609.821 71.4581 609.87 71.4489L610.179 72.9123C610.081 72.9431 609.942 72.9785 609.764 73.0185C609.585 73.0616 609.368 73.0877 609.113 73.0969C608.639 73.1154 608.224 73.0523 607.867 72.9077C607.513 72.763 607.237 72.5384 607.04 72.2337C606.843 71.929 606.746 71.5443 606.749 71.0795V64.2102ZM615.533 68.3374V69.8977H611.222V68.3374H615.533ZM625.588 66.8555H623.566C623.529 66.5939 623.454 66.3615 623.34 66.1584C623.226 65.9522 623.08 65.7768 622.901 65.6321C622.723 65.4875 622.517 65.3767 622.283 65.2997C622.052 65.2228 621.801 65.1843 621.53 65.1843C621.041 65.1843 620.615 65.3059 620.251 65.549C619.888 65.7891 619.607 66.1399 619.407 66.6016C619.207 67.0601 619.106 67.6172 619.106 68.2727C619.106 68.9467 619.207 69.513 619.407 69.9716C619.61 70.4302 619.893 70.7764 620.256 71.0103C620.619 71.2442 621.039 71.3612 621.516 71.3612C621.784 71.3612 622.032 71.3258 622.26 71.255C622.49 71.1842 622.695 71.0811 622.874 70.9457C623.052 70.8072 623.2 70.6394 623.317 70.4425C623.437 70.2455 623.52 70.0208 623.566 69.7685L625.588 69.7777C625.536 70.2116 625.405 70.6302 625.196 71.0334C624.989 71.4335 624.711 71.792 624.36 72.109C624.012 72.4229 623.597 72.6722 623.114 72.8569C622.633 73.0385 622.09 73.1293 621.484 73.1293C620.641 73.1293 619.887 72.9384 619.222 72.5568C618.56 72.1752 618.037 71.6228 617.652 70.8995C617.271 70.1763 617.08 69.3007 617.08 68.2727C617.08 67.2417 617.274 66.3646 617.662 65.6413C618.049 64.9181 618.576 64.3672 619.24 63.9886C619.905 63.607 620.653 63.4162 621.484 63.4162C622.032 63.4162 622.54 63.4931 623.007 63.647C623.478 63.8009 623.895 64.0256 624.258 64.321C624.622 64.6134 624.917 64.9719 625.145 65.3967C625.376 65.8214 625.523 66.3076 625.588 66.8555ZM630.188 73.1385C629.471 73.1385 628.851 72.9862 628.328 72.6815C627.808 72.3737 627.406 71.9459 627.123 71.3981C626.84 70.8472 626.698 70.2086 626.698 69.4822C626.698 68.7498 626.84 68.1096 627.123 67.5618C627.406 67.0109 627.808 66.5831 628.328 66.2784C628.851 65.9706 629.471 65.8168 630.188 65.8168C630.905 65.8168 631.524 65.9706 632.044 66.2784C632.567 66.5831 632.971 67.0109 633.254 67.5618C633.537 68.1096 633.678 68.7498 633.678 69.4822C633.678 70.2086 633.537 70.8472 633.254 71.3981C632.971 71.9459 632.567 72.3737 632.044 72.6815C631.524 72.9862 630.905 73.1385 630.188 73.1385ZM630.198 71.6151C630.524 71.6151 630.796 71.5227 631.015 71.3381C631.233 71.1503 631.398 70.8949 631.509 70.5717C631.623 70.2486 631.679 69.8808 631.679 69.4684C631.679 69.056 631.623 68.6882 631.509 68.3651C631.398 68.0419 631.233 67.7865 631.015 67.5987C630.796 67.411 630.524 67.3171 630.198 67.3171C629.868 67.3171 629.591 67.411 629.367 67.5987C629.145 67.7865 628.977 68.0419 628.863 68.3651C628.753 68.6882 628.697 69.056 628.697 69.4684C628.697 69.8808 628.753 70.2486 628.863 70.5717C628.977 70.8949 629.145 71.1503 629.367 71.3381C629.591 71.5227 629.868 71.6151 630.198 71.6151ZM634.957 73V65.9091H636.831V67.1602H636.915C637.062 66.7447 637.308 66.4169 637.653 66.1768C637.998 65.9368 638.41 65.8168 638.89 65.8168C639.377 65.8168 639.791 65.9383 640.132 66.1815C640.474 66.4215 640.702 66.7478 640.815 67.1602H640.889C641.034 66.7539 641.296 66.4292 641.674 66.1861C642.056 65.9399 642.507 65.8168 643.027 65.8168C643.688 65.8168 644.226 66.0276 644.638 66.4492C645.053 66.8678 645.261 67.4618 645.261 68.2312V73H643.299V68.619C643.299 68.225 643.194 67.9296 642.985 67.7326C642.776 67.5356 642.514 67.4371 642.2 67.4371C641.843 67.4371 641.565 67.551 641.365 67.7788C641.165 68.0034 641.065 68.3004 641.065 68.6697V73H639.158V68.5774C639.158 68.2296 639.058 67.9527 638.858 67.7464C638.661 67.5402 638.401 67.4371 638.078 67.4371C637.859 67.4371 637.662 67.4925 637.487 67.6033C637.315 67.7111 637.178 67.8634 637.076 68.0604C636.975 68.2543 636.924 68.482 636.924 68.7436V73H634.957ZM646.815 73V65.9091H648.689V67.1602H648.772C648.92 66.7447 649.166 66.4169 649.511 66.1768C649.855 65.9368 650.268 65.8168 650.748 65.8168C651.234 65.8168 651.648 65.9383 651.99 66.1815C652.331 66.4215 652.559 66.7478 652.673 67.1602H652.747C652.891 66.7539 653.153 66.4292 653.532 66.1861C653.913 65.9399 654.364 65.8168 654.884 65.8168C655.546 65.8168 656.083 66.0276 656.495 66.4492C656.911 66.8678 657.119 67.4618 657.119 68.2312V73H655.157V68.619C655.157 68.225 655.052 67.9296 654.843 67.7326C654.633 67.5356 654.372 67.4371 654.058 67.4371C653.701 67.4371 653.422 67.551 653.222 67.7788C653.022 68.0034 652.922 68.3004 652.922 68.6697V73H651.016V68.5774C651.016 68.2296 650.916 67.9527 650.716 67.7464C650.519 67.5402 650.258 67.4371 649.935 67.4371C649.717 67.4371 649.52 67.4925 649.344 67.6033C649.172 67.7111 649.035 67.8634 648.934 68.0604C648.832 68.2543 648.781 68.482 648.781 68.7436V73H646.815ZM661.904 73.1385C661.174 73.1385 660.546 72.9908 660.02 72.6953C659.497 72.3968 659.094 71.9751 658.811 71.4304C658.527 70.8826 658.386 70.2347 658.386 69.4869C658.386 68.7575 658.527 68.1173 658.811 67.5664C659.094 67.0155 659.492 66.5862 660.006 66.2784C660.523 65.9706 661.13 65.8168 661.825 65.8168C662.293 65.8168 662.728 65.8922 663.132 66.043C663.538 66.1907 663.892 66.4138 664.193 66.7124C664.498 67.0109 664.735 67.3864 664.904 67.8388C665.074 68.2881 665.158 68.8144 665.158 69.4176V69.9577H659.171V68.739H663.307C663.307 68.4558 663.245 68.205 663.122 67.9865C662.999 67.768 662.828 67.5972 662.61 67.4741C662.394 67.3479 662.144 67.2848 661.857 67.2848C661.559 67.2848 661.294 67.354 661.063 67.4925C660.836 67.628 660.657 67.8111 660.528 68.0419C660.399 68.2696 660.332 68.5236 660.329 68.8036V69.9624C660.329 70.3132 660.394 70.6164 660.523 70.8718C660.656 71.1272 660.842 71.3242 661.082 71.4627C661.322 71.6012 661.607 71.6705 661.936 71.6705C662.154 71.6705 662.354 71.6397 662.536 71.5781C662.718 71.5166 662.873 71.4242 663.002 71.3011C663.132 71.178 663.23 71.0272 663.298 70.8487L665.117 70.9688C665.024 71.4058 664.835 71.7874 664.549 72.1136C664.266 72.4368 663.899 72.6892 663.45 72.8707C663.004 73.0492 662.488 73.1385 661.904 73.1385ZM666.442 73V65.9091H668.348V67.1463H668.422C668.551 66.7062 668.768 66.3738 669.073 66.1491C669.378 65.9214 669.728 65.8075 670.125 65.8075C670.224 65.8075 670.33 65.8137 670.444 65.826C670.558 65.8383 670.658 65.8552 670.744 65.8768V67.6218C670.652 67.5941 670.524 67.5695 670.361 67.5479C670.198 67.5264 670.049 67.5156 669.913 67.5156C669.624 67.5156 669.365 67.5787 669.138 67.7049C668.913 67.828 668.734 68.0004 668.602 68.2219C668.473 68.4435 668.408 68.699 668.408 68.9883V73H666.442ZM674.635 73.1385C673.908 73.1385 673.284 72.9846 672.76 72.6768C672.24 72.366 671.84 71.9351 671.56 71.3842C671.283 70.8333 671.145 70.1993 671.145 69.4822C671.145 68.7559 671.285 68.1188 671.565 67.571C671.848 67.0201 672.249 66.5908 672.77 66.283C673.29 65.9722 673.908 65.8168 674.625 65.8168C675.244 65.8168 675.786 65.9291 676.25 66.1538C676.715 66.3784 677.083 66.6939 677.354 67.1001C677.625 67.5064 677.774 67.9834 677.802 68.5312H675.946C675.893 68.1773 675.755 67.8926 675.53 67.6772C675.309 67.4587 675.018 67.3494 674.658 67.3494C674.353 67.3494 674.087 67.4325 673.859 67.5987C673.634 67.7618 673.459 68.0004 673.333 68.3143C673.207 68.6282 673.144 69.0083 673.144 69.4545C673.144 69.907 673.205 70.2917 673.328 70.6087C673.454 70.9257 673.631 71.1673 673.859 71.3335C674.087 71.4996 674.353 71.5827 674.658 71.5827C674.882 71.5827 675.084 71.5366 675.262 71.4442C675.444 71.3519 675.593 71.218 675.71 71.0426C675.83 70.8641 675.909 70.6502 675.946 70.4009H677.802C677.771 70.9426 677.623 71.4196 677.358 71.832C677.097 72.2414 676.735 72.5614 676.273 72.7923C675.812 73.0231 675.266 73.1385 674.635 73.1385ZM682.292 73.1385C681.563 73.1385 680.935 72.9908 680.409 72.6953C679.885 72.3968 679.482 71.9751 679.199 71.4304C678.916 70.8826 678.774 70.2347 678.774 69.4869C678.774 68.7575 678.916 68.1173 679.199 67.5664C679.482 67.0155 679.881 66.5862 680.395 66.2784C680.912 65.9706 681.518 65.8168 682.214 65.8168C682.682 65.8168 683.117 65.8922 683.52 66.043C683.926 66.1907 684.28 66.4138 684.582 66.7124C684.887 67.0109 685.124 67.3864 685.293 67.8388C685.462 68.2881 685.547 68.8144 685.547 69.4176V69.9577H679.559V68.739H683.696C683.696 68.4558 683.634 68.205 683.511 67.9865C683.388 67.768 683.217 67.5972 682.999 67.4741C682.783 67.3479 682.532 67.2848 682.246 67.2848C681.948 67.2848 681.683 67.354 681.452 67.4925C681.224 67.628 681.046 67.8111 680.917 68.0419C680.787 68.2696 680.721 68.5236 680.718 68.8036V69.9624C680.718 70.3132 680.783 70.6164 680.912 70.8718C681.044 71.1272 681.23 71.3242 681.47 71.4627C681.711 71.6012 681.995 71.6705 682.325 71.6705C682.543 71.6705 682.743 71.6397 682.925 71.5781C683.106 71.5166 683.262 71.4242 683.391 71.3011C683.52 71.178 683.619 71.0272 683.686 70.8487L685.505 70.9688C685.413 71.4058 685.224 71.7874 684.937 72.1136C684.654 72.4368 684.288 72.6892 683.839 72.8707C683.392 73.0492 682.877 73.1385 682.292 73.1385Z" fill="#333333"/>
<path d="M520.5 0.5H540.5L560.5 40.5L540.5 80.5H520.5L540.5 40.5L520.5 0.5Z" fill="#BB1F4E"/>
<path d="M216.776 57V47.5455H223.036V49.1935H218.775V51.4464H222.621V53.0945H218.775V57H216.776ZM224.23 57V49.9091H226.136V51.1463H226.21C226.339 50.7062 226.556 50.3738 226.861 50.1491C227.166 49.9214 227.517 49.8075 227.914 49.8075C228.012 49.8075 228.118 49.8137 228.232 49.826C228.346 49.8383 228.446 49.8552 228.532 49.8768V51.6218C228.44 51.5941 228.312 51.5695 228.149 51.5479C227.986 51.5264 227.837 51.5156 227.701 51.5156C227.412 51.5156 227.153 51.5787 226.926 51.7049C226.701 51.828 226.522 52.0004 226.39 52.2219C226.261 52.4435 226.196 52.699 226.196 52.9883V57H224.23ZM232.423 57.1385C231.706 57.1385 231.085 56.9862 230.562 56.6815C230.042 56.3737 229.641 55.9459 229.357 55.3981C229.074 54.8472 228.933 54.2086 228.933 53.4822C228.933 52.7498 229.074 52.1096 229.357 51.5618C229.641 51.0109 230.042 50.5831 230.562 50.2784C231.085 49.9706 231.706 49.8168 232.423 49.8168C233.14 49.8168 233.758 49.9706 234.279 50.2784C234.802 50.5831 235.205 51.0109 235.488 51.5618C235.771 52.1096 235.913 52.7498 235.913 53.4822C235.913 54.2086 235.771 54.8472 235.488 55.3981C235.205 55.9459 234.802 56.3737 234.279 56.6815C233.758 56.9862 233.14 57.1385 232.423 57.1385ZM232.432 55.6151C232.758 55.6151 233.031 55.5227 233.249 55.3381C233.468 55.1503 233.632 54.8949 233.743 54.5717C233.857 54.2486 233.914 53.8808 233.914 53.4684C233.914 53.056 233.857 52.6882 233.743 52.3651C233.632 52.0419 233.468 51.7865 233.249 51.5987C233.031 51.411 232.758 51.3171 232.432 51.3171C232.103 51.3171 231.826 51.411 231.601 51.5987C231.379 51.7865 231.212 52.0419 231.098 52.3651C230.987 52.6882 230.932 53.056 230.932 53.4684C230.932 53.8808 230.987 54.2486 231.098 54.5717C231.212 54.8949 231.379 55.1503 231.601 55.3381C231.826 55.5227 232.103 55.6151 232.432 55.6151ZM239.158 52.9006V57H237.192V49.9091H239.066V51.1602H239.149C239.306 50.7478 239.569 50.4215 239.938 50.1815C240.308 49.9383 240.755 49.8168 241.282 49.8168C241.774 49.8168 242.203 49.9245 242.57 50.1399C242.936 50.3554 243.221 50.6631 243.424 51.0632C243.627 51.4602 243.728 51.9342 243.728 52.4851V57H241.762V52.8359C241.765 52.402 241.654 52.0634 241.429 51.8203C241.205 51.5741 240.895 51.451 240.502 51.451C240.237 51.451 240.003 51.5079 239.8 51.6218C239.6 51.7357 239.443 51.9019 239.329 52.1204C239.218 52.3358 239.161 52.5959 239.158 52.9006ZM249.05 49.9091V51.3864H244.78V49.9091H249.05ZM245.749 48.2102H247.716V54.821C247.716 55.0026 247.744 55.1442 247.799 55.2457C247.854 55.3442 247.931 55.4135 248.03 55.4535C248.131 55.4935 248.248 55.5135 248.381 55.5135C248.473 55.5135 248.565 55.5058 248.658 55.4904C248.75 55.4719 248.821 55.4581 248.87 55.4489L249.179 56.9123C249.081 56.9431 248.942 56.9785 248.764 57.0185C248.585 57.0616 248.368 57.0877 248.113 57.0969C247.639 57.1154 247.224 57.0523 246.867 56.9077C246.513 56.763 246.237 56.5384 246.04 56.2337C245.843 55.929 245.746 55.5443 245.749 55.0795V48.2102ZM254.533 52.3374V53.8977H250.222V52.3374H254.533ZM264.588 50.8555H262.566C262.529 50.5939 262.454 50.3615 262.34 50.1584C262.226 49.9522 262.08 49.7768 261.901 49.6321C261.723 49.4875 261.517 49.3767 261.283 49.2997C261.052 49.2228 260.801 49.1843 260.53 49.1843C260.041 49.1843 259.615 49.3059 259.251 49.549C258.888 49.7891 258.607 50.1399 258.407 50.6016C258.207 51.0601 258.106 51.6172 258.106 52.2727C258.106 52.9467 258.207 53.513 258.407 53.9716C258.61 54.4302 258.893 54.7764 259.256 55.0103C259.619 55.2442 260.039 55.3612 260.516 55.3612C260.784 55.3612 261.032 55.3258 261.26 55.255C261.49 55.1842 261.695 55.0811 261.874 54.9457C262.052 54.8072 262.2 54.6394 262.317 54.4425C262.437 54.2455 262.52 54.0208 262.566 53.7685L264.588 53.7777C264.536 54.2116 264.405 54.6302 264.196 55.0334C263.989 55.4335 263.711 55.792 263.36 56.109C263.012 56.4229 262.597 56.6722 262.114 56.8569C261.633 57.0385 261.09 57.1293 260.484 57.1293C259.641 57.1293 258.887 56.9384 258.222 56.5568C257.56 56.1752 257.037 55.6228 256.652 54.8995C256.271 54.1763 256.08 53.3007 256.08 52.2727C256.08 51.2417 256.274 50.3646 256.662 49.6413C257.049 48.9181 257.576 48.3672 258.24 47.9886C258.905 47.607 259.653 47.4162 260.484 47.4162C261.032 47.4162 261.54 47.4931 262.007 47.647C262.478 47.8009 262.895 48.0256 263.258 48.321C263.622 48.6134 263.917 48.9719 264.145 49.3967C264.376 49.8214 264.523 50.3076 264.588 50.8555ZM269.188 57.1385C268.471 57.1385 267.851 56.9862 267.328 56.6815C266.808 56.3737 266.406 55.9459 266.123 55.3981C265.84 54.8472 265.698 54.2086 265.698 53.4822C265.698 52.7498 265.84 52.1096 266.123 51.5618C266.406 51.0109 266.808 50.5831 267.328 50.2784C267.851 49.9706 268.471 49.8168 269.188 49.8168C269.905 49.8168 270.524 49.9706 271.044 50.2784C271.567 50.5831 271.971 51.0109 272.254 51.5618C272.537 52.1096 272.678 52.7498 272.678 53.4822C272.678 54.2086 272.537 54.8472 272.254 55.3981C271.971 55.9459 271.567 56.3737 271.044 56.6815C270.524 56.9862 269.905 57.1385 269.188 57.1385ZM269.198 55.6151C269.524 55.6151 269.796 55.5227 270.015 55.3381C270.233 55.1503 270.398 54.8949 270.509 54.5717C270.623 54.2486 270.679 53.8808 270.679 53.4684C270.679 53.056 270.623 52.6882 270.509 52.3651C270.398 52.0419 270.233 51.7865 270.015 51.5987C269.796 51.411 269.524 51.3171 269.198 51.3171C268.868 51.3171 268.591 51.411 268.367 51.5987C268.145 51.7865 267.977 52.0419 267.863 52.3651C267.753 52.6882 267.697 53.056 267.697 53.4684C267.697 53.8808 267.753 54.2486 267.863 54.5717C267.977 54.8949 268.145 55.1503 268.367 55.3381C268.591 55.5227 268.868 55.6151 269.198 55.6151ZM273.957 57V49.9091H275.831V51.1602H275.915C276.062 50.7447 276.308 50.4169 276.653 50.1768C276.998 49.9368 277.41 49.8168 277.89 49.8168C278.377 49.8168 278.791 49.9383 279.132 50.1815C279.474 50.4215 279.702 50.7478 279.815 51.1602H279.889C280.034 50.7539 280.296 50.4292 280.674 50.1861C281.056 49.9399 281.507 49.8168 282.027 49.8168C282.688 49.8168 283.226 50.0276 283.638 50.4492C284.053 50.8678 284.261 51.4618 284.261 52.2312V57H282.299V52.619C282.299 52.225 282.194 51.9296 281.985 51.7326C281.776 51.5356 281.514 51.4371 281.2 51.4371C280.843 51.4371 280.565 51.551 280.365 51.7788C280.165 52.0034 280.065 52.3004 280.065 52.6697V57H278.158V52.5774C278.158 52.2296 278.058 51.9527 277.858 51.7464C277.661 51.5402 277.401 51.4371 277.078 51.4371C276.859 51.4371 276.662 51.4925 276.487 51.6033C276.315 51.7111 276.178 51.8634 276.076 52.0604C275.975 52.2543 275.924 52.482 275.924 52.7436V57H273.957ZM285.815 57V49.9091H287.689V51.1602H287.772C287.92 50.7447 288.166 50.4169 288.511 50.1768C288.855 49.9368 289.268 49.8168 289.748 49.8168C290.234 49.8168 290.648 49.9383 290.99 50.1815C291.331 50.4215 291.559 50.7478 291.673 51.1602H291.747C291.891 50.7539 292.153 50.4292 292.532 50.1861C292.913 49.9399 293.364 49.8168 293.884 49.8168C294.546 49.8168 295.083 50.0276 295.495 50.4492C295.911 50.8678 296.119 51.4618 296.119 52.2312V57H294.157V52.619C294.157 52.225 294.052 51.9296 293.843 51.7326C293.633 51.5356 293.372 51.4371 293.058 51.4371C292.701 51.4371 292.422 51.551 292.222 51.7788C292.022 52.0034 291.922 52.3004 291.922 52.6697V57H290.016V52.5774C290.016 52.2296 289.916 51.9527 289.716 51.7464C289.519 51.5402 289.258 51.4371 288.935 51.4371C288.717 51.4371 288.52 51.4925 288.344 51.6033C288.172 51.7111 288.035 51.8634 287.934 52.0604C287.832 52.2543 287.781 52.482 287.781 52.7436V57H285.815ZM300.904 57.1385C300.174 57.1385 299.546 56.9908 299.02 56.6953C298.497 56.3968 298.094 55.9751 297.811 55.4304C297.527 54.8826 297.386 54.2347 297.386 53.4869C297.386 52.7575 297.527 52.1173 297.811 51.5664C298.094 51.0155 298.492 50.5862 299.006 50.2784C299.523 49.9706 300.13 49.8168 300.825 49.8168C301.293 49.8168 301.728 49.8922 302.132 50.043C302.538 50.1907 302.892 50.4138 303.193 50.7124C303.498 51.0109 303.735 51.3864 303.904 51.8388C304.074 52.2881 304.158 52.8144 304.158 53.4176V53.9577H298.171V52.739H302.307C302.307 52.4558 302.245 52.205 302.122 51.9865C301.999 51.768 301.828 51.5972 301.61 51.4741C301.394 51.3479 301.144 51.2848 300.857 51.2848C300.559 51.2848 300.294 51.354 300.063 51.4925C299.836 51.628 299.657 51.8111 299.528 52.0419C299.399 52.2696 299.332 52.5236 299.329 52.8036V53.9624C299.329 54.3132 299.394 54.6164 299.523 54.8718C299.656 55.1272 299.842 55.3242 300.082 55.4627C300.322 55.6012 300.607 55.6705 300.936 55.6705C301.154 55.6705 301.354 55.6397 301.536 55.5781C301.718 55.5166 301.873 55.4242 302.002 55.3011C302.132 55.178 302.23 55.0272 302.298 54.8487L304.117 54.9688C304.024 55.4058 303.835 55.7874 303.549 56.1136C303.266 56.4368 302.899 56.6892 302.45 56.8707C302.004 57.0492 301.488 57.1385 300.904 57.1385ZM305.442 57V49.9091H307.348V51.1463H307.422C307.551 50.7062 307.768 50.3738 308.073 50.1491C308.378 49.9214 308.728 49.8075 309.125 49.8075C309.224 49.8075 309.33 49.8137 309.444 49.826C309.558 49.8383 309.658 49.8552 309.744 49.8768V51.6218C309.652 51.5941 309.524 51.5695 309.361 51.5479C309.198 51.5264 309.049 51.5156 308.913 51.5156C308.624 51.5156 308.365 51.5787 308.138 51.7049C307.913 51.828 307.734 52.0004 307.602 52.2219C307.473 52.4435 307.408 52.699 307.408 52.9883V57H305.442ZM313.635 57.1385C312.908 57.1385 312.284 56.9846 311.76 56.6768C311.24 56.366 310.84 55.9351 310.56 55.3842C310.283 54.8333 310.145 54.1993 310.145 53.4822C310.145 52.7559 310.285 52.1188 310.565 51.571C310.848 51.0201 311.249 50.5908 311.77 50.283C312.29 49.9722 312.908 49.8168 313.625 49.8168C314.244 49.8168 314.786 49.9291 315.25 50.1538C315.715 50.3784 316.083 50.6939 316.354 51.1001C316.625 51.5064 316.774 51.9834 316.802 52.5312H314.946C314.893 52.1773 314.755 51.8926 314.53 51.6772C314.309 51.4587 314.018 51.3494 313.658 51.3494C313.353 51.3494 313.087 51.4325 312.859 51.5987C312.634 51.7618 312.459 52.0004 312.333 52.3143C312.207 52.6282 312.144 53.0083 312.144 53.4545C312.144 53.907 312.205 54.2917 312.328 54.6087C312.454 54.9257 312.631 55.1673 312.859 55.3335C313.087 55.4996 313.353 55.5827 313.658 55.5827C313.882 55.5827 314.084 55.5366 314.262 55.4442C314.444 55.3519 314.593 55.218 314.71 55.0426C314.83 54.8641 314.909 54.6502 314.946 54.4009H316.802C316.771 54.9426 316.623 55.4196 316.358 55.832C316.097 56.2414 315.735 56.5614 315.273 56.7923C314.812 57.0231 314.266 57.1385 313.635 57.1385ZM321.292 57.1385C320.563 57.1385 319.935 56.9908 319.409 56.6953C318.885 56.3968 318.482 55.9751 318.199 55.4304C317.916 54.8826 317.774 54.2347 317.774 53.4869C317.774 52.7575 317.916 52.1173 318.199 51.5664C318.482 51.0155 318.881 50.5862 319.395 50.2784C319.912 49.9706 320.518 49.8168 321.214 49.8168C321.682 49.8168 322.117 49.8922 322.52 50.043C322.926 50.1907 323.28 50.4138 323.582 50.7124C323.887 51.0109 324.124 51.3864 324.293 51.8388C324.462 52.2881 324.547 52.8144 324.547 53.4176V53.9577H318.559V52.739H322.696C322.696 52.4558 322.634 52.205 322.511 51.9865C322.388 51.768 322.217 51.5972 321.999 51.4741C321.783 51.3479 321.532 51.2848 321.246 51.2848C320.948 51.2848 320.683 51.354 320.452 51.4925C320.224 51.628 320.046 51.8111 319.917 52.0419C319.787 52.2696 319.721 52.5236 319.718 52.8036V53.9624C319.718 54.3132 319.783 54.6164 319.912 54.8718C320.044 55.1272 320.23 55.3242 320.47 55.4627C320.711 55.6012 320.995 55.6705 321.325 55.6705C321.543 55.6705 321.743 55.6397 321.925 55.5781C322.106 55.5166 322.262 55.4242 322.391 55.3011C322.52 55.178 322.619 55.0272 322.686 54.8487L324.505 54.9688C324.413 55.4058 324.224 55.7874 323.937 56.1136C323.654 56.4368 323.288 56.6892 322.839 56.8707C322.392 57.0492 321.877 57.1385 321.292 57.1385Z" fill="#22AA50"/>
<path d="M232.48 27.5455H234.946L237.549 33.8977H237.66L240.264 27.5455H242.729V37H240.79V30.8462H240.712L238.265 36.9538H236.945L234.498 30.8232H234.419V37H232.48V27.5455ZM246.361 37.1339C245.909 37.1339 245.505 37.0554 245.152 36.8984C244.798 36.7384 244.518 36.503 244.311 36.1921C244.108 35.8782 244.007 35.4873 244.007 35.0195C244.007 34.6256 244.079 34.2947 244.224 34.027C244.368 33.7592 244.565 33.5438 244.814 33.3807C245.064 33.2176 245.347 33.0945 245.664 33.0114C245.984 32.9283 246.319 32.8698 246.67 32.8359C247.083 32.7929 247.415 32.7528 247.667 32.7159C247.92 32.6759 248.103 32.6174 248.217 32.5405C248.331 32.4635 248.388 32.3497 248.388 32.1989V32.1712C248.388 31.8788 248.295 31.6526 248.111 31.4925C247.929 31.3325 247.671 31.2525 247.335 31.2525C246.981 31.2525 246.7 31.331 246.49 31.4879C246.281 31.6418 246.143 31.8357 246.075 32.0696L244.256 31.9219C244.348 31.491 244.53 31.1186 244.801 30.8047C245.071 30.4877 245.421 30.2446 245.849 30.0753C246.279 29.9029 246.778 29.8168 247.344 29.8168C247.738 29.8168 248.115 29.8629 248.475 29.9553C248.839 30.0476 249.16 30.1907 249.44 30.3846C249.723 30.5785 249.946 30.8278 250.11 31.1325C250.273 31.4341 250.354 31.7957 250.354 32.2173V37H248.489V36.0167H248.434C248.32 36.2383 248.168 36.4337 247.977 36.603C247.786 36.7692 247.557 36.9 247.289 36.9954C247.021 37.0877 246.712 37.1339 246.361 37.1339ZM246.924 35.7766C247.214 35.7766 247.469 35.7197 247.691 35.6058C247.912 35.4889 248.086 35.3319 248.212 35.1349C248.338 34.938 248.402 34.7148 248.402 34.4656V33.7131C248.34 33.7531 248.255 33.79 248.148 33.8239C248.043 33.8546 247.924 33.8839 247.792 33.9116C247.66 33.9362 247.527 33.9593 247.395 33.9808C247.263 33.9993 247.143 34.0162 247.035 34.0316C246.804 34.0655 246.603 34.1193 246.43 34.1932C246.258 34.267 246.124 34.3671 246.029 34.4933C245.933 34.6164 245.886 34.7702 245.886 34.9549C245.886 35.2227 245.982 35.4273 246.176 35.5689C246.373 35.7074 246.623 35.7766 246.924 35.7766ZM255.075 39.8068C254.438 39.8068 253.891 39.7191 253.436 39.5437C252.983 39.3713 252.623 39.1359 252.356 38.8374C252.088 38.5388 251.914 38.2034 251.834 37.831L253.653 37.5863C253.708 37.7279 253.796 37.8602 253.916 37.9833C254.036 38.1064 254.194 38.2049 254.391 38.2788C254.591 38.3557 254.835 38.3942 255.121 38.3942C255.549 38.3942 255.901 38.2895 256.178 38.0803C256.458 37.8741 256.598 37.5278 256.598 37.0415V35.7443H256.515C256.429 35.9413 256.3 36.1275 256.127 36.3029C255.955 36.4783 255.733 36.6214 255.462 36.7322C255.192 36.843 254.868 36.8984 254.493 36.8984C253.961 36.8984 253.476 36.7753 253.039 36.5291C252.605 36.2798 252.259 35.8997 252 35.3888C251.745 34.8749 251.617 34.2255 251.617 33.4407C251.617 32.6374 251.748 31.9665 252.009 31.4279C252.271 30.8893 252.619 30.4862 253.053 30.2184C253.49 29.9506 253.968 29.8168 254.488 29.8168C254.885 29.8168 255.218 29.8845 255.485 30.0199C255.753 30.1522 255.969 30.3184 256.132 30.5185C256.298 30.7154 256.426 30.9093 256.515 31.1001H256.589V29.9091H258.542V37.0692C258.542 37.6725 258.394 38.1772 258.098 38.5835C257.803 38.9897 257.394 39.2944 256.87 39.4975C256.35 39.7037 255.752 39.8068 255.075 39.8068ZM255.116 35.4212C255.433 35.4212 255.701 35.3427 255.919 35.1857C256.141 35.0257 256.31 34.7979 256.427 34.5025C256.547 34.204 256.607 33.8469 256.607 33.4315C256.607 33.016 256.549 32.6559 256.432 32.3512C256.315 32.0434 256.146 31.8049 255.924 31.6357C255.702 31.4664 255.433 31.3817 255.116 31.3817C254.793 31.3817 254.521 31.4695 254.299 31.6449C254.077 31.8172 253.91 32.0573 253.796 32.3651C253.682 32.6728 253.625 33.0283 253.625 33.4315C253.625 33.8408 253.682 34.1947 253.796 34.4933C253.913 34.7887 254.081 35.018 254.299 35.1811C254.521 35.3411 254.793 35.4212 255.116 35.4212ZM263.338 37.1385C262.609 37.1385 261.981 36.9908 261.455 36.6953C260.931 36.3968 260.528 35.9751 260.245 35.4304C259.962 34.8826 259.82 34.2347 259.82 33.4869C259.82 32.7575 259.962 32.1173 260.245 31.5664C260.528 31.0155 260.927 30.5862 261.441 30.2784C261.958 29.9706 262.564 29.8168 263.26 29.8168C263.727 29.8168 264.163 29.8922 264.566 30.043C264.972 30.1907 265.326 30.4138 265.628 30.7124C265.933 31.0109 266.17 31.3864 266.339 31.8388C266.508 32.2881 266.593 32.8144 266.593 33.4176V33.9577H260.605V32.739H264.742C264.742 32.4558 264.68 32.205 264.557 31.9865C264.434 31.768 264.263 31.5972 264.044 31.4741C263.829 31.3479 263.578 31.2848 263.292 31.2848C262.993 31.2848 262.729 31.354 262.498 31.4925C262.27 31.628 262.092 31.8111 261.962 32.0419C261.833 32.2696 261.767 32.5236 261.764 32.8036V33.9624C261.764 34.3132 261.829 34.6164 261.958 34.8718C262.09 35.1272 262.276 35.3242 262.516 35.4627C262.756 35.6012 263.041 35.6705 263.37 35.6705C263.589 35.6705 263.789 35.6397 263.971 35.5781C264.152 35.5166 264.308 35.4242 264.437 35.3011C264.566 35.178 264.665 35.0272 264.732 34.8487L266.551 34.9688C266.459 35.4058 266.27 35.7874 265.983 36.1136C265.7 36.4368 265.334 36.6892 264.885 36.8707C264.438 37.0492 263.923 37.1385 263.338 37.1385ZM269.843 32.9006V37H267.876V29.9091H269.75V31.1602H269.833C269.99 30.7478 270.254 30.4215 270.623 30.1815C270.992 29.9383 271.44 29.8168 271.966 29.8168C272.459 29.8168 272.888 29.9245 273.254 30.1399C273.621 30.3554 273.905 30.6631 274.108 31.0632C274.311 31.4602 274.413 31.9342 274.413 32.4851V37H272.446V32.8359C272.45 32.402 272.339 32.0634 272.114 31.8203C271.889 31.5741 271.58 31.451 271.186 31.451C270.921 31.451 270.688 31.5079 270.484 31.6218C270.284 31.7357 270.127 31.9019 270.014 32.1204C269.903 32.3358 269.846 32.5959 269.843 32.9006ZM279.735 29.9091V31.3864H275.464V29.9091H279.735ZM276.434 28.2102H278.401V34.821C278.401 35.0026 278.428 35.1442 278.484 35.2457C278.539 35.3442 278.616 35.4135 278.714 35.4535C278.816 35.4935 278.933 35.5135 279.065 35.5135C279.158 35.5135 279.25 35.5058 279.342 35.4904C279.435 35.4719 279.505 35.4581 279.555 35.4489L279.864 36.9123C279.765 36.9431 279.627 36.9785 279.448 37.0185C279.27 37.0616 279.053 37.0877 278.798 37.0969C278.324 37.1154 277.908 37.0523 277.551 36.9077C277.197 36.763 276.922 36.5384 276.725 36.2337C276.528 35.929 276.431 35.5443 276.434 35.0795V28.2102ZM284.143 37.1385C283.426 37.1385 282.806 36.9862 282.283 36.6815C281.763 36.3737 281.361 35.9459 281.078 35.3981C280.795 34.8472 280.653 34.2086 280.653 33.4822C280.653 32.7498 280.795 32.1096 281.078 31.5618C281.361 31.0109 281.763 30.5831 282.283 30.2784C282.806 29.9706 283.426 29.8168 284.143 29.8168C284.861 29.8168 285.479 29.9706 285.999 30.2784C286.522 30.5831 286.926 31.0109 287.209 31.5618C287.492 32.1096 287.633 32.7498 287.633 33.4822C287.633 34.2086 287.492 34.8472 287.209 35.3981C286.926 35.9459 286.522 36.3737 285.999 36.6815C285.479 36.9862 284.861 37.1385 284.143 37.1385ZM284.153 35.6151C284.479 35.6151 284.751 35.5227 284.97 35.3381C285.188 35.1503 285.353 34.8949 285.464 34.5717C285.578 34.2486 285.635 33.8808 285.635 33.4684C285.635 33.056 285.578 32.6882 285.464 32.3651C285.353 32.0419 285.188 31.7865 284.97 31.5987C284.751 31.411 284.479 31.3171 284.153 31.3171C283.823 31.3171 283.546 31.411 283.322 31.5987C283.1 31.7865 282.932 32.0419 282.818 32.3651C282.708 32.6882 282.652 33.056 282.652 33.4684C282.652 33.8808 282.708 34.2486 282.818 34.5717C282.932 34.8949 283.1 35.1503 283.322 35.3381C283.546 35.5227 283.823 35.6151 284.153 35.6151ZM296.016 27.5455V37H294.017V29.4428H293.962L291.796 30.8001V29.0273L294.137 27.5455H296.016ZM304.097 35.5597V29.0227H305.75V35.5597H304.097ZM301.655 33.1175V31.4648H308.192V33.1175H301.655Z" fill="#333333"/>
<path d="M405.48 12.5455H407.946L410.549 18.8977H410.66L413.264 12.5455H415.729V22H413.79V15.8462H413.712L411.265 21.9538H409.945L407.498 15.8232H407.419V22H405.48V12.5455ZM419.361 22.1339C418.909 22.1339 418.505 22.0554 418.152 21.8984C417.798 21.7384 417.518 21.503 417.311 21.1921C417.108 20.8782 417.007 20.4873 417.007 20.0195C417.007 19.6256 417.079 19.2947 417.224 19.027C417.368 18.7592 417.565 18.5438 417.814 18.3807C418.064 18.2176 418.347 18.0945 418.664 18.0114C418.984 17.9283 419.319 17.8698 419.67 17.8359C420.083 17.7929 420.415 17.7528 420.667 17.7159C420.92 17.6759 421.103 17.6174 421.217 17.5405C421.331 17.4635 421.388 17.3497 421.388 17.1989V17.1712C421.388 16.8788 421.295 16.6526 421.111 16.4925C420.929 16.3325 420.671 16.2525 420.335 16.2525C419.981 16.2525 419.7 16.331 419.49 16.4879C419.281 16.6418 419.143 16.8357 419.075 17.0696L417.256 16.9219C417.348 16.491 417.53 16.1186 417.801 15.8047C418.071 15.4877 418.421 15.2446 418.849 15.0753C419.279 14.9029 419.778 14.8168 420.344 14.8168C420.738 14.8168 421.115 14.8629 421.475 14.9553C421.839 15.0476 422.16 15.1907 422.44 15.3846C422.723 15.5785 422.946 15.8278 423.11 16.1325C423.273 16.4341 423.354 16.7957 423.354 17.2173V22H421.489V21.0167H421.434C421.32 21.2383 421.168 21.4337 420.977 21.603C420.786 21.7692 420.557 21.9 420.289 21.9954C420.021 22.0877 419.712 22.1339 419.361 22.1339ZM419.924 20.7766C420.214 20.7766 420.469 20.7197 420.691 20.6058C420.912 20.4889 421.086 20.3319 421.212 20.1349C421.338 19.938 421.402 19.7148 421.402 19.4656V18.7131C421.34 18.7531 421.255 18.79 421.148 18.8239C421.043 18.8546 420.924 18.8839 420.792 18.9116C420.66 18.9362 420.527 18.9593 420.395 18.9808C420.263 18.9993 420.143 19.0162 420.035 19.0316C419.804 19.0655 419.603 19.1193 419.43 19.1932C419.258 19.267 419.124 19.3671 419.029 19.4933C418.933 19.6164 418.886 19.7702 418.886 19.9549C418.886 20.2227 418.982 20.4273 419.176 20.5689C419.373 20.7074 419.623 20.7766 419.924 20.7766ZM428.075 24.8068C427.438 24.8068 426.891 24.7191 426.436 24.5437C425.983 24.3713 425.623 24.1359 425.356 23.8374C425.088 23.5388 424.914 23.2034 424.834 22.831L426.653 22.5863C426.708 22.7279 426.796 22.8602 426.916 22.9833C427.036 23.1064 427.194 23.2049 427.391 23.2788C427.591 23.3557 427.835 23.3942 428.121 23.3942C428.549 23.3942 428.901 23.2895 429.178 23.0803C429.458 22.8741 429.598 22.5278 429.598 22.0415V20.7443H429.515C429.429 20.9413 429.3 21.1275 429.127 21.3029C428.955 21.4783 428.733 21.6214 428.462 21.7322C428.192 21.843 427.868 21.8984 427.493 21.8984C426.961 21.8984 426.476 21.7753 426.039 21.5291C425.605 21.2798 425.259 20.8997 425 20.3888C424.745 19.8749 424.617 19.2255 424.617 18.4407C424.617 17.6374 424.748 16.9665 425.009 16.4279C425.271 15.8893 425.619 15.4862 426.053 15.2184C426.49 14.9506 426.968 14.8168 427.488 14.8168C427.885 14.8168 428.218 14.8845 428.485 15.0199C428.753 15.1522 428.969 15.3184 429.132 15.5185C429.298 15.7154 429.426 15.9093 429.515 16.1001H429.589V14.9091H431.542V22.0692C431.542 22.6725 431.394 23.1772 431.098 23.5835C430.803 23.9897 430.394 24.2944 429.87 24.4975C429.35 24.7037 428.752 24.8068 428.075 24.8068ZM428.116 20.4212C428.433 20.4212 428.701 20.3427 428.919 20.1857C429.141 20.0257 429.31 19.7979 429.427 19.5025C429.547 19.204 429.607 18.8469 429.607 18.4315C429.607 18.016 429.549 17.6559 429.432 17.3512C429.315 17.0434 429.146 16.8049 428.924 16.6357C428.702 16.4664 428.433 16.3817 428.116 16.3817C427.793 16.3817 427.521 16.4695 427.299 16.6449C427.077 16.8172 426.91 17.0573 426.796 17.3651C426.682 17.6728 426.625 18.0283 426.625 18.4315C426.625 18.8408 426.682 19.1947 426.796 19.4933C426.913 19.7887 427.081 20.018 427.299 20.1811C427.521 20.3411 427.793 20.4212 428.116 20.4212ZM436.338 22.1385C435.609 22.1385 434.981 21.9908 434.455 21.6953C433.931 21.3968 433.528 20.9751 433.245 20.4304C432.962 19.8826 432.82 19.2347 432.82 18.4869C432.82 17.7575 432.962 17.1173 433.245 16.5664C433.528 16.0155 433.927 15.5862 434.441 15.2784C434.958 14.9706 435.564 14.8168 436.26 14.8168C436.727 14.8168 437.163 14.8922 437.566 15.043C437.972 15.1907 438.326 15.4138 438.628 15.7124C438.933 16.0109 439.17 16.3864 439.339 16.8388C439.508 17.2881 439.593 17.8144 439.593 18.4176V18.9577H433.605V17.739H437.742C437.742 17.4558 437.68 17.205 437.557 16.9865C437.434 16.768 437.263 16.5972 437.044 16.4741C436.829 16.3479 436.578 16.2848 436.292 16.2848C435.993 16.2848 435.729 16.354 435.498 16.4925C435.27 16.628 435.092 16.8111 434.962 17.0419C434.833 17.2696 434.767 17.5236 434.764 17.8036V18.9624C434.764 19.3132 434.829 19.6164 434.958 19.8718C435.09 20.1272 435.276 20.3242 435.516 20.4627C435.756 20.6012 436.041 20.6705 436.37 20.6705C436.589 20.6705 436.789 20.6397 436.971 20.5781C437.152 20.5166 437.308 20.4242 437.437 20.3011C437.566 20.178 437.665 20.0272 437.732 19.8487L439.551 19.9688C439.459 20.4058 439.27 20.7874 438.983 21.1136C438.7 21.4368 438.334 21.6892 437.885 21.8707C437.438 22.0492 436.923 22.1385 436.338 22.1385ZM442.843 17.9006V22H440.876V14.9091H442.75V16.1602H442.833C442.99 15.7478 443.254 15.4215 443.623 15.1815C443.992 14.9383 444.44 14.8168 444.966 14.8168C445.459 14.8168 445.888 14.9245 446.254 15.1399C446.621 15.3554 446.905 15.6631 447.108 16.0632C447.311 16.4602 447.413 16.9342 447.413 17.4851V22H445.446V17.8359C445.45 17.402 445.339 17.0634 445.114 16.8203C444.889 16.5741 444.58 16.451 444.186 16.451C443.921 16.451 443.688 16.5079 443.484 16.6218C443.284 16.7357 443.127 16.9019 443.014 17.1204C442.903 17.3358 442.846 17.5959 442.843 17.9006ZM452.735 14.9091V16.3864H448.464V14.9091H452.735ZM449.434 13.2102H451.401V19.821C451.401 20.0026 451.428 20.1442 451.484 20.2457C451.539 20.3442 451.616 20.4135 451.714 20.4535C451.816 20.4935 451.933 20.5135 452.065 20.5135C452.158 20.5135 452.25 20.5058 452.342 20.4904C452.435 20.4719 452.505 20.4581 452.555 20.4489L452.864 21.9123C452.765 21.9431 452.627 21.9785 452.448 22.0185C452.27 22.0616 452.053 22.0877 451.798 22.0969C451.324 22.1154 450.908 22.0523 450.551 21.9077C450.197 21.763 449.922 21.5384 449.725 21.2337C449.528 20.929 449.431 20.5443 449.434 20.0795V13.2102ZM457.143 22.1385C456.426 22.1385 455.806 21.9862 455.283 21.6815C454.763 21.3737 454.361 20.9459 454.078 20.3981C453.795 19.8472 453.653 19.2086 453.653 18.4822C453.653 17.7498 453.795 17.1096 454.078 16.5618C454.361 16.0109 454.763 15.5831 455.283 15.2784C455.806 14.9706 456.426 14.8168 457.143 14.8168C457.861 14.8168 458.479 14.9706 458.999 15.2784C459.522 15.5831 459.926 16.0109 460.209 16.5618C460.492 17.1096 460.633 17.7498 460.633 18.4822C460.633 19.2086 460.492 19.8472 460.209 20.3981C459.926 20.9459 459.522 21.3737 458.999 21.6815C458.479 21.9862 457.861 22.1385 457.143 22.1385ZM457.153 20.6151C457.479 20.6151 457.751 20.5227 457.97 20.3381C458.188 20.1503 458.353 19.8949 458.464 19.5717C458.578 19.2486 458.635 18.8808 458.635 18.4684C458.635 18.056 458.578 17.6882 458.464 17.3651C458.353 17.0419 458.188 16.7865 457.97 16.5987C457.751 16.411 457.479 16.3171 457.153 16.3171C456.823 16.3171 456.546 16.411 456.322 16.5987C456.1 16.7865 455.932 17.0419 455.818 17.3651C455.708 17.6882 455.652 18.056 455.652 18.4684C455.652 18.8808 455.708 19.2486 455.818 19.5717C455.932 19.8949 456.1 20.1503 456.322 20.3381C456.546 20.5227 456.823 20.6151 457.153 20.6151ZM469.016 12.5455V22H467.017V14.4428H466.962L464.796 15.8001V14.0273L467.137 12.5455H469.016ZM477.097 20.5597V14.0227H478.75V20.5597H477.097ZM474.655 18.1175V16.4648H481.192V18.1175H474.655Z" fill="#333333"/>
<path d="M405.768 39L403.063 29.5455H405.246L406.811 36.1147H406.89L408.616 29.5455H410.486L412.208 36.1286H412.291L413.856 29.5455H416.039L413.334 39H411.386L409.586 32.8185H409.512L407.716 39H405.768ZM419.515 39.1385C418.797 39.1385 418.177 38.9862 417.654 38.6815C417.134 38.3737 416.732 37.9459 416.449 37.3981C416.166 36.8472 416.024 36.2086 416.024 35.4822C416.024 34.7498 416.166 34.1096 416.449 33.5618C416.732 33.0109 417.134 32.5831 417.654 32.2784C418.177 31.9706 418.797 31.8168 419.515 31.8168C420.232 31.8168 420.85 31.9706 421.37 32.2784C421.894 32.5831 422.297 33.0109 422.58 33.5618C422.863 34.1096 423.005 34.7498 423.005 35.4822C423.005 36.2086 422.863 36.8472 422.58 37.3981C422.297 37.9459 421.894 38.3737 421.37 38.6815C420.85 38.9862 420.232 39.1385 419.515 39.1385ZM419.524 37.6151C419.85 37.6151 420.122 37.5227 420.341 37.3381C420.559 37.1503 420.724 36.8949 420.835 36.5717C420.949 36.2486 421.006 35.8808 421.006 35.4684C421.006 35.056 420.949 34.6882 420.835 34.3651C420.724 34.0419 420.559 33.7865 420.341 33.5987C420.122 33.411 419.85 33.3171 419.524 33.3171C419.194 33.3171 418.917 33.411 418.693 33.5987C418.471 33.7865 418.303 34.0419 418.19 34.3651C418.079 34.6882 418.023 35.056 418.023 35.4684C418.023 35.8808 418.079 36.2486 418.19 36.5717C418.303 36.8949 418.471 37.1503 418.693 37.3381C418.917 37.5227 419.194 37.6151 419.524 37.6151ZM424.283 39V31.9091H426.19V33.1463H426.264C426.393 32.7062 426.61 32.3738 426.915 32.1491C427.219 31.9214 427.57 31.8075 427.967 31.8075C428.066 31.8075 428.172 31.8137 428.286 31.826C428.4 31.8383 428.5 31.8552 428.586 31.8768V33.6218C428.494 33.5941 428.366 33.5695 428.203 33.5479C428.04 33.5264 427.89 33.5156 427.755 33.5156C427.466 33.5156 427.207 33.5787 426.979 33.7049C426.755 33.828 426.576 34.0004 426.444 34.2219C426.315 34.4435 426.25 34.699 426.25 34.9883V39H424.283ZM431.886 39.1154C431.347 39.1154 430.859 38.9769 430.422 38.6999C429.988 38.4199 429.643 38.009 429.388 37.4673C429.136 36.9226 429.009 36.2547 429.009 35.4638C429.009 34.6513 429.14 33.9757 429.402 33.4371C429.663 32.8955 430.011 32.4908 430.445 32.223C430.882 31.9522 431.361 31.8168 431.881 31.8168C432.278 31.8168 432.609 31.8845 432.873 32.0199C433.141 32.1522 433.357 32.3184 433.52 32.5185C433.686 32.7154 433.812 32.9093 433.898 33.1001H433.958V29.5455H435.92V39H433.981V37.8643H433.898C433.806 38.0613 433.675 38.2567 433.506 38.4506C433.34 38.6415 433.123 38.8 432.855 38.9261C432.59 39.0523 432.267 39.1154 431.886 39.1154ZM432.509 37.5504C432.826 37.5504 433.093 37.4643 433.312 37.2919C433.534 37.1165 433.703 36.8718 433.82 36.5579C433.94 36.244 434 35.8762 434 35.4545C434 35.0329 433.941 34.6667 433.824 34.3558C433.707 34.045 433.538 33.8049 433.317 33.6357C433.095 33.4664 432.826 33.3817 432.509 33.3817C432.186 33.3817 431.913 33.4695 431.692 33.6449C431.47 33.8203 431.302 34.0634 431.188 34.3743C431.075 34.6851 431.018 35.0452 431.018 35.4545C431.018 35.867 431.075 36.2317 431.188 36.5487C431.305 36.8626 431.473 37.1088 431.692 37.2873C431.913 37.4627 432.186 37.5504 432.509 37.5504ZM437.537 41.6591V31.9091H439.476V33.1001H439.564C439.65 32.9093 439.775 32.7154 439.938 32.5185C440.104 32.3184 440.319 32.1522 440.584 32.0199C440.852 31.8845 441.184 31.8168 441.581 31.8168C442.098 31.8168 442.575 31.9522 443.012 32.223C443.449 32.4908 443.799 32.8955 444.06 33.4371C444.322 33.9757 444.453 34.6513 444.453 35.4638C444.453 36.2547 444.325 36.9226 444.07 37.4673C443.817 38.009 443.472 38.4199 443.035 38.6999C442.602 38.9769 442.115 39.1154 441.577 39.1154C441.195 39.1154 440.87 39.0523 440.603 38.9261C440.338 38.8 440.121 38.6415 439.952 38.4506C439.782 38.2567 439.653 38.0613 439.564 37.8643H439.504V41.6591H437.537ZM439.462 35.4545C439.462 35.8762 439.521 36.244 439.638 36.5579C439.755 36.8718 439.924 37.1165 440.146 37.2919C440.367 37.4643 440.636 37.5504 440.953 37.5504C441.274 37.5504 441.544 37.4627 441.766 37.2873C441.988 37.1088 442.155 36.8626 442.269 36.5487C442.386 36.2317 442.445 35.867 442.445 35.4545C442.445 35.0452 442.388 34.6851 442.274 34.3743C442.16 34.0634 441.992 33.8203 441.771 33.6449C441.549 33.4695 441.277 33.3817 440.953 33.3817C440.633 33.3817 440.363 33.4664 440.141 33.6357C439.922 33.8049 439.755 34.045 439.638 34.3558C439.521 34.6667 439.462 35.0329 439.462 35.4545ZM445.764 39V31.9091H447.67V33.1463H447.744C447.874 32.7062 448.091 32.3738 448.395 32.1491C448.7 31.9214 449.051 31.8075 449.448 31.8075C449.546 31.8075 449.652 31.8137 449.766 31.826C449.88 31.8383 449.98 31.8552 450.066 31.8768V33.6218C449.974 33.5941 449.846 33.5695 449.683 33.5479C449.52 33.5264 449.371 33.5156 449.235 33.5156C448.946 33.5156 448.688 33.5787 448.46 33.7049C448.235 33.828 448.057 34.0004 447.924 34.2219C447.795 34.4435 447.73 34.699 447.73 34.9883V39H445.764ZM453.985 39.1385C453.255 39.1385 452.627 38.9908 452.101 38.6953C451.578 38.3968 451.175 37.9751 450.892 37.4304C450.608 36.8826 450.467 36.2347 450.467 35.4869C450.467 34.7575 450.608 34.1173 450.892 33.5664C451.175 33.0155 451.573 32.5862 452.087 32.2784C452.604 31.9706 453.211 31.8168 453.906 31.8168C454.374 31.8168 454.809 31.8922 455.213 32.043C455.619 32.1907 455.973 32.4138 456.274 32.7124C456.579 33.0109 456.816 33.3864 456.985 33.8388C457.155 34.2881 457.239 34.8144 457.239 35.4176V35.9577H451.252V34.739H455.388C455.388 34.4558 455.326 34.205 455.203 33.9865C455.08 33.768 454.909 33.5972 454.691 33.4741C454.475 33.3479 454.225 33.2848 453.938 33.2848C453.64 33.2848 453.375 33.354 453.144 33.4925C452.917 33.628 452.738 33.8111 452.609 34.0419C452.48 34.2696 452.413 34.5236 452.41 34.8036V35.9624C452.41 36.3132 452.475 36.6164 452.604 36.8718C452.737 37.1272 452.923 37.3242 453.163 37.4627C453.403 37.6012 453.688 37.6705 454.017 37.6705C454.235 37.6705 454.435 37.6397 454.617 37.5781C454.799 37.5166 454.954 37.4242 455.083 37.3011C455.213 37.178 455.311 37.0272 455.379 36.8487L457.198 36.9688C457.105 37.4058 456.916 37.7874 456.63 38.1136C456.347 38.4368 455.98 38.6892 455.531 38.8707C455.085 39.0492 454.569 39.1385 453.985 39.1385ZM464.422 33.9311L462.622 34.0419C462.591 33.888 462.525 33.7495 462.424 33.6264C462.322 33.5002 462.188 33.4002 462.022 33.3263C461.859 33.2494 461.663 33.2109 461.436 33.2109C461.131 33.2109 460.874 33.2756 460.665 33.4048C460.455 33.531 460.351 33.7003 460.351 33.9126C460.351 34.0819 460.418 34.225 460.554 34.342C460.689 34.4589 460.922 34.5528 461.251 34.6236L462.534 34.8821C463.224 35.0237 463.738 35.2514 464.076 35.5653C464.415 35.8793 464.584 36.2917 464.584 36.8026C464.584 37.2673 464.447 37.6751 464.173 38.0259C463.902 38.3768 463.53 38.6507 463.056 38.8477C462.585 39.0415 462.042 39.1385 461.426 39.1385C460.488 39.1385 459.74 38.9431 459.183 38.5522C458.629 38.1583 458.304 37.6228 458.209 36.9457L460.143 36.8441C460.201 37.1303 460.343 37.3488 460.568 37.4996C460.792 37.6474 461.08 37.7212 461.431 37.7212C461.776 37.7212 462.053 37.6551 462.262 37.5227C462.474 37.3873 462.582 37.2134 462.585 37.0011C462.582 36.8226 462.507 36.6764 462.359 36.5625C462.211 36.4455 461.983 36.3563 461.676 36.2947L460.448 36.0501C459.755 35.9116 459.24 35.6715 458.901 35.3299C458.566 34.9883 458.398 34.5528 458.398 34.0234C458.398 33.5679 458.521 33.1755 458.767 32.8462C459.017 32.5169 459.366 32.263 459.815 32.0845C460.268 31.906 460.797 31.8168 461.403 31.8168C462.299 31.8168 463.004 32.006 463.518 32.3846C464.035 32.7631 464.336 33.2786 464.422 33.9311ZM471.722 33.9311L469.922 34.0419C469.891 33.888 469.825 33.7495 469.723 33.6264C469.622 33.5002 469.488 33.4002 469.322 33.3263C469.159 33.2494 468.963 33.2109 468.735 33.2109C468.431 33.2109 468.174 33.2756 467.964 33.4048C467.755 33.531 467.651 33.7003 467.651 33.9126C467.651 34.0819 467.718 34.225 467.854 34.342C467.989 34.4589 468.221 34.5528 468.551 34.6236L469.834 34.8821C470.524 35.0237 471.037 35.2514 471.376 35.5653C471.715 35.8793 471.884 36.2917 471.884 36.8026C471.884 37.2673 471.747 37.6751 471.473 38.0259C471.202 38.3768 470.83 38.6507 470.356 38.8477C469.885 39.0415 469.342 39.1385 468.726 39.1385C467.787 39.1385 467.04 38.9431 466.483 38.5522C465.929 38.1583 465.604 37.6228 465.508 36.9457L467.443 36.8441C467.501 37.1303 467.643 37.3488 467.867 37.4996C468.092 37.6474 468.38 37.7212 468.731 37.7212C469.075 37.7212 469.352 37.6551 469.562 37.5227C469.774 37.3873 469.882 37.2134 469.885 37.0011C469.882 36.8226 469.806 36.6764 469.659 36.5625C469.511 36.4455 469.283 36.3563 468.975 36.2947L467.747 36.0501C467.055 35.9116 466.539 35.6715 466.201 35.3299C465.865 34.9883 465.698 34.5528 465.698 34.0234C465.698 33.5679 465.821 33.1755 466.067 32.8462C466.316 32.5169 466.666 32.263 467.115 32.0845C467.567 31.906 468.097 31.8168 468.703 31.8168C469.599 31.8168 470.303 32.006 470.817 32.3846C471.334 32.7631 471.636 33.2786 471.722 33.9311ZM478.938 38.4876V31.9506H480.591V38.4876H478.938ZM476.496 36.0455V34.3928H483.033V36.0455H476.496Z" fill="#22AA50"/>
<path d="M415.73 56H413.588L416.852 46.5455H419.428L422.687 56H420.545L418.177 48.706H418.103L415.73 56ZM415.596 52.2837H420.656V53.8441H415.596V52.2837ZM425.57 53.9595L425.575 51.6005H425.861L428.132 48.9091H430.39L427.338 52.473H426.872L425.57 53.9595ZM423.788 56V46.5455H425.755V56H423.788ZM428.22 56L426.133 52.9116L427.444 51.522L430.524 56H428.22ZM434.294 56.1385C433.565 56.1385 432.937 55.9908 432.411 55.6953C431.887 55.3968 431.484 54.9751 431.201 54.4304C430.918 53.8826 430.776 53.2347 430.776 52.4869C430.776 51.7575 430.918 51.1173 431.201 50.5664C431.484 50.0155 431.883 49.5862 432.397 49.2784C432.914 48.9706 433.52 48.8168 434.216 48.8168C434.683 48.8168 435.119 48.8922 435.522 49.043C435.928 49.1907 436.282 49.4138 436.584 49.7124C436.889 50.0109 437.126 50.3864 437.295 50.8388C437.464 51.2881 437.549 51.8144 437.549 52.4176V52.9577H431.561V51.739H435.698C435.698 51.4558 435.636 51.205 435.513 50.9865C435.39 50.768 435.219 50.5972 435 50.4741C434.785 50.3479 434.534 50.2848 434.248 50.2848C433.949 50.2848 433.685 50.354 433.454 50.4925C433.226 50.628 433.048 50.8111 432.918 51.0419C432.789 51.2696 432.723 51.5236 432.72 51.8036V52.9624C432.72 53.3132 432.785 53.6164 432.914 53.8718C433.046 54.1272 433.232 54.3242 433.472 54.4627C433.712 54.6012 433.997 54.6705 434.326 54.6705C434.545 54.6705 434.745 54.6397 434.927 54.5781C435.108 54.5166 435.264 54.4242 435.393 54.3011C435.522 54.178 435.621 54.0272 435.688 53.8487L437.507 53.9688C437.415 54.4058 437.226 54.7874 436.939 55.1136C436.656 55.4368 436.29 55.6892 435.841 55.8707C435.394 56.0492 434.879 56.1385 434.294 56.1385ZM440.799 51.9006V56H438.832V48.9091H440.706V50.1602H440.79C440.947 49.7478 441.21 49.4215 441.579 49.1815C441.948 48.9383 442.396 48.8168 442.922 48.8168C443.415 48.8168 443.844 48.9245 444.21 49.1399C444.577 49.3554 444.861 49.6631 445.064 50.0632C445.268 50.4602 445.369 50.9342 445.369 51.4851V56H443.402V51.8359C443.406 51.402 443.295 51.0634 443.07 50.8203C442.845 50.5741 442.536 50.451 442.142 50.451C441.878 50.451 441.644 50.5079 441.44 50.6218C441.24 50.7357 441.083 50.9019 440.97 51.1204C440.859 51.3358 440.802 51.5959 440.799 51.9006ZM450.151 56.1385C449.421 56.1385 448.793 55.9908 448.267 55.6953C447.744 55.3968 447.341 54.9751 447.058 54.4304C446.774 53.8826 446.633 53.2347 446.633 52.4869C446.633 51.7575 446.774 51.1173 447.058 50.5664C447.341 50.0155 447.739 49.5862 448.253 49.2784C448.77 48.9706 449.377 48.8168 450.072 48.8168C450.54 48.8168 450.975 48.8922 451.379 49.043C451.785 49.1907 452.139 49.4138 452.44 49.7124C452.745 50.0109 452.982 50.3864 453.151 50.8388C453.321 51.2881 453.405 51.8144 453.405 52.4176V52.9577H447.418V51.739H451.554C451.554 51.4558 451.492 51.205 451.369 50.9865C451.246 50.768 451.075 50.5972 450.857 50.4741C450.641 50.3479 450.391 50.2848 450.104 50.2848C449.806 50.2848 449.541 50.354 449.31 50.4925C449.083 50.628 448.904 50.8111 448.775 51.0419C448.646 51.2696 448.579 51.5236 448.576 51.8036V52.9624C448.576 53.3132 448.641 53.6164 448.77 53.8718C448.903 54.1272 449.089 54.3242 449.329 54.4627C449.569 54.6012 449.854 54.6705 450.183 54.6705C450.401 54.6705 450.601 54.6397 450.783 54.5781C450.965 54.5166 451.12 54.4242 451.249 54.3011C451.379 54.178 451.477 54.0272 451.545 53.8487L453.364 53.9688C453.271 54.4058 453.082 54.7874 452.796 55.1136C452.513 55.4368 452.146 55.6892 451.697 55.8707C451.251 56.0492 450.735 56.1385 450.151 56.1385ZM457.892 56.1385C457.175 56.1385 456.555 55.9862 456.032 55.6815C455.512 55.3737 455.11 54.9459 454.827 54.3981C454.544 53.8472 454.402 53.2086 454.402 52.4822C454.402 51.7498 454.544 51.1096 454.827 50.5618C455.11 50.0109 455.512 49.5831 456.032 49.2784C456.555 48.9706 457.175 48.8168 457.892 48.8168C458.61 48.8168 459.228 48.9706 459.748 49.2784C460.271 49.5831 460.675 50.0109 460.958 50.5618C461.241 51.1096 461.383 51.7498 461.383 52.4822C461.383 53.2086 461.241 53.8472 460.958 54.3981C460.675 54.9459 460.271 55.3737 459.748 55.6815C459.228 55.9862 458.61 56.1385 457.892 56.1385ZM457.902 54.6151C458.228 54.6151 458.5 54.5227 458.719 54.3381C458.937 54.1503 459.102 53.8949 459.213 53.5717C459.327 53.2486 459.384 52.8808 459.384 52.4684C459.384 52.056 459.327 51.6882 459.213 51.3651C459.102 51.0419 458.937 50.7865 458.719 50.5987C458.5 50.411 458.228 50.3171 457.902 50.3171C457.572 50.3171 457.295 50.411 457.071 50.5987C456.849 50.7865 456.681 51.0419 456.568 51.3651C456.457 51.6882 456.401 52.056 456.401 52.4684C456.401 52.8808 456.457 53.2486 456.568 53.5717C456.681 53.8949 456.849 54.1503 457.071 54.3381C457.295 54.5227 457.572 54.6151 457.902 54.6151ZM468.477 55.4876V48.9506H470.13V55.4876H468.477ZM466.035 53.0455V51.3928H472.572V53.0455H466.035Z" fill="#22AA50"/>
<path d="M389.776 73V63.5455H396.036V65.1935H391.775V67.4464H395.621V69.0945H391.775V73H389.776ZM397.23 73V65.9091H399.136V67.1463H399.21C399.339 66.7062 399.556 66.3738 399.861 66.1491C400.166 65.9214 400.517 65.8075 400.914 65.8075C401.012 65.8075 401.118 65.8137 401.232 65.826C401.346 65.8383 401.446 65.8552 401.532 65.8768V67.6218C401.44 67.5941 401.312 67.5695 401.149 67.5479C400.986 67.5264 400.837 67.5156 400.701 67.5156C400.412 67.5156 400.153 67.5787 399.926 67.7049C399.701 67.828 399.522 68.0004 399.39 68.2219C399.261 68.4435 399.196 68.699 399.196 68.9883V73H397.23ZM405.423 73.1385C404.706 73.1385 404.085 72.9862 403.562 72.6815C403.042 72.3737 402.641 71.9459 402.357 71.3981C402.074 70.8472 401.933 70.2086 401.933 69.4822C401.933 68.7498 402.074 68.1096 402.357 67.5618C402.641 67.0109 403.042 66.5831 403.562 66.2784C404.085 65.9706 404.706 65.8168 405.423 65.8168C406.14 65.8168 406.758 65.9706 407.279 66.2784C407.802 66.5831 408.205 67.0109 408.488 67.5618C408.771 68.1096 408.913 68.7498 408.913 69.4822C408.913 70.2086 408.771 70.8472 408.488 71.3981C408.205 71.9459 407.802 72.3737 407.279 72.6815C406.758 72.9862 406.14 73.1385 405.423 73.1385ZM405.432 71.6151C405.758 71.6151 406.031 71.5227 406.249 71.3381C406.468 71.1503 406.632 70.8949 406.743 70.5717C406.857 70.2486 406.914 69.8808 406.914 69.4684C406.914 69.056 406.857 68.6882 406.743 68.3651C406.632 68.0419 406.468 67.7865 406.249 67.5987C406.031 67.411 405.758 67.3171 405.432 67.3171C405.103 67.3171 404.826 67.411 404.601 67.5987C404.379 67.7865 404.212 68.0419 404.098 68.3651C403.987 68.6882 403.932 69.056 403.932 69.4684C403.932 69.8808 403.987 70.2486 404.098 70.5717C404.212 70.8949 404.379 71.1503 404.601 71.3381C404.826 71.5227 405.103 71.6151 405.432 71.6151ZM412.158 68.9006V73H410.192V65.9091H412.066V67.1602H412.149C412.306 66.7478 412.569 66.4215 412.938 66.1815C413.308 65.9383 413.755 65.8168 414.282 65.8168C414.774 65.8168 415.203 65.9245 415.57 66.1399C415.936 66.3554 416.221 66.6631 416.424 67.0632C416.627 67.4602 416.728 67.9342 416.728 68.4851V73H414.762V68.8359C414.765 68.402 414.654 68.0634 414.429 67.8203C414.205 67.5741 413.895 67.451 413.502 67.451C413.237 67.451 413.003 67.5079 412.8 67.6218C412.6 67.7357 412.443 67.9019 412.329 68.1204C412.218 68.3358 412.161 68.5959 412.158 68.9006ZM422.05 65.9091V67.3864H417.78V65.9091H422.05ZM418.749 64.2102H420.716V70.821C420.716 71.0026 420.744 71.1442 420.799 71.2457C420.854 71.3442 420.931 71.4135 421.03 71.4535C421.131 71.4935 421.248 71.5135 421.381 71.5135C421.473 71.5135 421.565 71.5058 421.658 71.4904C421.75 71.4719 421.821 71.4581 421.87 71.4489L422.179 72.9123C422.081 72.9431 421.942 72.9785 421.764 73.0185C421.585 73.0616 421.368 73.0877 421.113 73.0969C420.639 73.1154 420.224 73.0523 419.867 72.9077C419.513 72.763 419.237 72.5384 419.04 72.2337C418.843 71.929 418.746 71.5443 418.749 71.0795V64.2102ZM427.533 68.3374V69.8977H423.222V68.3374H427.533ZM437.588 66.8555H435.566C435.529 66.5939 435.454 66.3615 435.34 66.1584C435.226 65.9522 435.08 65.7768 434.901 65.6321C434.723 65.4875 434.517 65.3767 434.283 65.2997C434.052 65.2228 433.801 65.1843 433.53 65.1843C433.041 65.1843 432.615 65.3059 432.251 65.549C431.888 65.7891 431.607 66.1399 431.407 66.6016C431.207 67.0601 431.106 67.6172 431.106 68.2727C431.106 68.9467 431.207 69.513 431.407 69.9716C431.61 70.4302 431.893 70.7764 432.256 71.0103C432.619 71.2442 433.039 71.3612 433.516 71.3612C433.784 71.3612 434.032 71.3258 434.26 71.255C434.49 71.1842 434.695 71.0811 434.874 70.9457C435.052 70.8072 435.2 70.6394 435.317 70.4425C435.437 70.2455 435.52 70.0208 435.566 69.7685L437.588 69.7777C437.536 70.2116 437.405 70.6302 437.196 71.0334C436.989 71.4335 436.711 71.792 436.36 72.109C436.012 72.4229 435.597 72.6722 435.114 72.8569C434.633 73.0385 434.09 73.1293 433.484 73.1293C432.641 73.1293 431.887 72.9384 431.222 72.5568C430.56 72.1752 430.037 71.6228 429.652 70.8995C429.271 70.1763 429.08 69.3007 429.08 68.2727C429.08 67.2417 429.274 66.3646 429.662 65.6413C430.049 64.9181 430.576 64.3672 431.24 63.9886C431.905 63.607 432.653 63.4162 433.484 63.4162C434.032 63.4162 434.54 63.4931 435.007 63.647C435.478 63.8009 435.895 64.0256 436.258 64.321C436.622 64.6134 436.917 64.9719 437.145 65.3967C437.376 65.8214 437.523 66.3076 437.588 66.8555ZM442.188 73.1385C441.471 73.1385 440.851 72.9862 440.328 72.6815C439.808 72.3737 439.406 71.9459 439.123 71.3981C438.84 70.8472 438.698 70.2086 438.698 69.4822C438.698 68.7498 438.84 68.1096 439.123 67.5618C439.406 67.0109 439.808 66.5831 440.328 66.2784C440.851 65.9706 441.471 65.8168 442.188 65.8168C442.905 65.8168 443.524 65.9706 444.044 66.2784C444.567 66.5831 444.971 67.0109 445.254 67.5618C445.537 68.1096 445.678 68.7498 445.678 69.4822C445.678 70.2086 445.537 70.8472 445.254 71.3981C444.971 71.9459 444.567 72.3737 444.044 72.6815C443.524 72.9862 442.905 73.1385 442.188 73.1385ZM442.198 71.6151C442.524 71.6151 442.796 71.5227 443.015 71.3381C443.233 71.1503 443.398 70.8949 443.509 70.5717C443.623 70.2486 443.679 69.8808 443.679 69.4684C443.679 69.056 443.623 68.6882 443.509 68.3651C443.398 68.0419 443.233 67.7865 443.015 67.5987C442.796 67.411 442.524 67.3171 442.198 67.3171C441.868 67.3171 441.591 67.411 441.367 67.5987C441.145 67.7865 440.977 68.0419 440.863 68.3651C440.753 68.6882 440.697 69.056 440.697 69.4684C440.697 69.8808 440.753 70.2486 440.863 70.5717C440.977 70.8949 441.145 71.1503 441.367 71.3381C441.591 71.5227 441.868 71.6151 442.198 71.6151ZM446.957 73V65.9091H448.831V67.1602H448.915C449.062 66.7447 449.308 66.4169 449.653 66.1768C449.998 65.9368 450.41 65.8168 450.89 65.8168C451.377 65.8168 451.791 65.9383 452.132 66.1815C452.474 66.4215 452.702 66.7478 452.815 67.1602H452.889C453.034 66.7539 453.296 66.4292 453.674 66.1861C454.056 65.9399 454.507 65.8168 455.027 65.8168C455.688 65.8168 456.226 66.0276 456.638 66.4492C457.053 66.8678 457.261 67.4618 457.261 68.2312V73H455.299V68.619C455.299 68.225 455.194 67.9296 454.985 67.7326C454.776 67.5356 454.514 67.4371 454.2 67.4371C453.843 67.4371 453.565 67.551 453.365 67.7788C453.165 68.0034 453.065 68.3004 453.065 68.6697V73H451.158V68.5774C451.158 68.2296 451.058 67.9527 450.858 67.7464C450.661 67.5402 450.401 67.4371 450.078 67.4371C449.859 67.4371 449.662 67.4925 449.487 67.6033C449.315 67.7111 449.178 67.8634 449.076 68.0604C448.975 68.2543 448.924 68.482 448.924 68.7436V73H446.957ZM458.815 73V65.9091H460.689V67.1602H460.772C460.92 66.7447 461.166 66.4169 461.511 66.1768C461.855 65.9368 462.268 65.8168 462.748 65.8168C463.234 65.8168 463.648 65.9383 463.99 66.1815C464.331 66.4215 464.559 66.7478 464.673 67.1602H464.747C464.891 66.7539 465.153 66.4292 465.532 66.1861C465.913 65.9399 466.364 65.8168 466.884 65.8168C467.546 65.8168 468.083 66.0276 468.495 66.4492C468.911 66.8678 469.119 67.4618 469.119 68.2312V73H467.157V68.619C467.157 68.225 467.052 67.9296 466.843 67.7326C466.633 67.5356 466.372 67.4371 466.058 67.4371C465.701 67.4371 465.422 67.551 465.222 67.7788C465.022 68.0034 464.922 68.3004 464.922 68.6697V73H463.016V68.5774C463.016 68.2296 462.916 67.9527 462.716 67.7464C462.519 67.5402 462.258 67.4371 461.935 67.4371C461.717 67.4371 461.52 67.4925 461.344 67.6033C461.172 67.7111 461.035 67.8634 460.934 68.0604C460.832 68.2543 460.781 68.482 460.781 68.7436V73H458.815ZM473.904 73.1385C473.174 73.1385 472.546 72.9908 472.02 72.6953C471.497 72.3968 471.094 71.9751 470.811 71.4304C470.527 70.8826 470.386 70.2347 470.386 69.4869C470.386 68.7575 470.527 68.1173 470.811 67.5664C471.094 67.0155 471.492 66.5862 472.006 66.2784C472.523 65.9706 473.13 65.8168 473.825 65.8168C474.293 65.8168 474.728 65.8922 475.132 66.043C475.538 66.1907 475.892 66.4138 476.193 66.7124C476.498 67.0109 476.735 67.3864 476.904 67.8388C477.074 68.2881 477.158 68.8144 477.158 69.4176V69.9577H471.171V68.739H475.307C475.307 68.4558 475.245 68.205 475.122 67.9865C474.999 67.768 474.828 67.5972 474.61 67.4741C474.394 67.3479 474.144 67.2848 473.857 67.2848C473.559 67.2848 473.294 67.354 473.063 67.4925C472.836 67.628 472.657 67.8111 472.528 68.0419C472.399 68.2696 472.332 68.5236 472.329 68.8036V69.9624C472.329 70.3132 472.394 70.6164 472.523 70.8718C472.656 71.1272 472.842 71.3242 473.082 71.4627C473.322 71.6012 473.607 71.6705 473.936 71.6705C474.154 71.6705 474.354 71.6397 474.536 71.5781C474.718 71.5166 474.873 71.4242 475.002 71.3011C475.132 71.178 475.23 71.0272 475.298 70.8487L477.117 70.9688C477.024 71.4058 476.835 71.7874 476.549 72.1136C476.266 72.4368 475.899 72.6892 475.45 72.8707C475.004 73.0492 474.488 73.1385 473.904 73.1385ZM478.442 73V65.9091H480.348V67.1463H480.422C480.551 66.7062 480.768 66.3738 481.073 66.1491C481.378 65.9214 481.728 65.8075 482.125 65.8075C482.224 65.8075 482.33 65.8137 482.444 65.826C482.558 65.8383 482.658 65.8552 482.744 65.8768V67.6218C482.652 67.5941 482.524 67.5695 482.361 67.5479C482.198 67.5264 482.049 67.5156 481.913 67.5156C481.624 67.5156 481.365 67.5787 481.138 67.7049C480.913 67.828 480.734 68.0004 480.602 68.2219C480.473 68.4435 480.408 68.699 480.408 68.9883V73H478.442ZM486.635 73.1385C485.908 73.1385 485.284 72.9846 484.76 72.6768C484.24 72.366 483.84 71.9351 483.56 71.3842C483.283 70.8333 483.145 70.1993 483.145 69.4822C483.145 68.7559 483.285 68.1188 483.565 67.571C483.848 67.0201 484.249 66.5908 484.77 66.283C485.29 65.9722 485.908 65.8168 486.625 65.8168C487.244 65.8168 487.786 65.9291 488.25 66.1538C488.715 66.3784 489.083 66.6939 489.354 67.1001C489.625 67.5064 489.774 67.9834 489.802 68.5312H487.946C487.893 68.1773 487.755 67.8926 487.53 67.6772C487.309 67.4587 487.018 67.3494 486.658 67.3494C486.353 67.3494 486.087 67.4325 485.859 67.5987C485.634 67.7618 485.459 68.0004 485.333 68.3143C485.207 68.6282 485.144 69.0083 485.144 69.4545C485.144 69.907 485.205 70.2917 485.328 70.6087C485.454 70.9257 485.631 71.1673 485.859 71.3335C486.087 71.4996 486.353 71.5827 486.658 71.5827C486.882 71.5827 487.084 71.5366 487.262 71.4442C487.444 71.3519 487.593 71.218 487.71 71.0426C487.83 70.8641 487.909 70.6502 487.946 70.4009H489.802C489.771 70.9426 489.623 71.4196 489.358 71.832C489.097 72.2414 488.735 72.5614 488.273 72.7923C487.812 73.0231 487.266 73.1385 486.635 73.1385ZM494.292 73.1385C493.563 73.1385 492.935 72.9908 492.409 72.6953C491.885 72.3968 491.482 71.9751 491.199 71.4304C490.916 70.8826 490.774 70.2347 490.774 69.4869C490.774 68.7575 490.916 68.1173 491.199 67.5664C491.482 67.0155 491.881 66.5862 492.395 66.2784C492.912 65.9706 493.518 65.8168 494.214 65.8168C494.682 65.8168 495.117 65.8922 495.52 66.043C495.926 66.1907 496.28 66.4138 496.582 66.7124C496.887 67.0109 497.124 67.3864 497.293 67.8388C497.462 68.2881 497.547 68.8144 497.547 69.4176V69.9577H491.559V68.739H495.696C495.696 68.4558 495.634 68.205 495.511 67.9865C495.388 67.768 495.217 67.5972 494.999 67.4741C494.783 67.3479 494.532 67.2848 494.246 67.2848C493.948 67.2848 493.683 67.354 493.452 67.4925C493.224 67.628 493.046 67.8111 492.917 68.0419C492.787 68.2696 492.721 68.5236 492.718 68.8036V69.9624C492.718 70.3132 492.783 70.6164 492.912 70.8718C493.044 71.1272 493.23 71.3242 493.47 71.4627C493.711 71.6012 493.995 71.6705 494.325 71.6705C494.543 71.6705 494.743 71.6397 494.925 71.5781C495.106 71.5166 495.262 71.4242 495.391 71.3011C495.52 71.178 495.619 71.0272 495.686 70.8487L497.505 70.9688C497.413 71.4058 497.224 71.7874 496.937 72.1136C496.654 72.4368 496.288 72.6892 495.839 72.8707C495.392 73.0492 494.877 73.1385 494.292 73.1385Z" fill="#333333"/>
</svg>
