<?xml version="1.0" encoding="UTF-8" standalone="no"?>
<svg
   xmlns:dc="http://purl.org/dc/elements/1.1/"
   xmlns:cc="http://creativecommons.org/ns#"
   xmlns:rdf="http://www.w3.org/1999/02/22-rdf-syntax-ns#"
   xmlns:svg="http://www.w3.org/2000/svg"
   xmlns="http://www.w3.org/2000/svg"
   width="133.04762mm"
   height="132.54762mm"
   viewBox="0 0 133.04762 132.54762"
   version="1.1"
   id="svg16">
  <defs
     id="defs10" />
  <metadata
     id="metadata13">
    <rdf:RDF>
      <cc:Work
         rdf:about="">
        <dc:format>image/svg+xml</dc:format>
        <dc:type
           rdf:resource="http://purl.org/dc/dcmitype/StillImage" />
        <dc:title></dc:title>
      </cc:Work>
    </rdf:RDF>
  </metadata>
  <g
     id="layer1"
     transform="translate(-39.309517,-58.619049)">
    <circle
       id="path18"
       cx="105.83333"
       cy="124.64286"
       r="66.523811"
       style="fill:#BB1F4E;fill-opacity:1;stroke-width:0.26458332" />
  </g>
  <g
     style="fill:#ffffff;fill-opacity:1"
     transform="matrix(0.75021725,0,0,0.75021725,84.77874,20.616583)"
     id="g4634">
    <g
       style="fill:#ffffff;fill-opacity:1"
       id="g4632">
      <g
         transform="translate(-85.757656,-2.6468412)"
         id="g4630"
         style="fill:#ffffff;fill-opacity:1" />
    </g>
  </g>
  <path
     style="fill:#ffffff;fill-opacity:1;fill-rule:evenodd;stroke-width:2.55512643"
     d="m 111.29977,67.461167 -6.78386,-6.796641 c -0.53851,-0.539835 -0.84071,-1.271368 -0.84019,-2.033877 V 50.31116 c 0,-7.688383 -0.79961,-10.476022 -2.29966,-13.286664 -1.465939,-2.775776 -3.732465,-5.04676 -6.505347,-6.518128 -2.803009,-1.504963 -5.585531,-2.304723 -13.256022,-2.304723 H 70.640467 c -0.510522,-0.0027 -0.764427,-0.619957 -0.403659,-0.981167 l 6.783862,-6.799191 c 0.536959,-0.539161 1.267407,-0.843168 2.028781,-0.843168 h 3.814781 c 10.228209,0 13.938291,1.068046 17.679008,3.071261 3.69681,1.962515 6.71827,4.9911 8.67204,8.692547 2.00067,3.748372 3.06615,7.466074 3.06615,17.714691 v 18.000871 c -4.6e-4,0.511767 -0.61905,0.76792 -0.98116,0.406276 z m -46.799707,43.122873 6.783863,-6.79919 c 0.536936,-0.53916 1.267407,-0.84317 2.028782,-0.84317 h 8.301596 c 7.670491,0 10.450505,-0.79971 13.256022,-2.30473 2.772882,-1.471365 5.039414,-3.74235 6.505344,-6.518125 1.49987,-2.810643 2.29967,-5.598282 2.29967,-13.286666 V 69.834901 c 0.002,-0.508768 0.61629,-0.763517 0.97856,-0.406278 l 6.7864,6.79919 c 0.53693,0.539161 0.84113,1.272458 0.84113,2.033887 v 3.825022 c 0,10.248607 -1.06548,13.966319 -3.06615,17.714691 -1.95377,3.701457 -4.97523,6.730027 -8.67204,8.692537 -3.740717,2.00067 -7.450799,3.06872 -17.679008,3.06872 H 64.904315 c -0.510522,-0.003 -0.764472,-0.61995 -0.403682,-0.98117 z m -43.025695,-46.907016 6.788899,6.799191 c 0.536937,0.539158 0.84114,1.272457 0.84114,2.033877 v 8.319499 c 0,7.688374 0.7967,10.476014 2.299666,13.286656 1.465226,2.7754 3.730821,5.046341 6.502745,6.518133 2.805494,1.50497 5.588015,2.30472 13.258529,2.30472 h 10.971694 c 0.512848,-0.002 0.770946,0.6183 0.408514,0.98117 l -6.789012,6.79921 c -0.536937,0.53915 -1.267294,0.84316 -2.026162,0.84316 h -3.817377 c -10.228211,0 -13.935694,-1.06805 -17.676405,-3.07127 -3.697775,-1.9621 -6.720187,-4.99072 -8.674649,-8.692547 -2.000659,-3.748362 -3.066146,-7.466074 -3.066146,-17.714688 V 64.083273 c 0.0023,-0.508873 0.616406,-0.76367 0.978656,-0.406279 z M 61.492717,27.358449 c -0.538874,0.539159 -1.267316,0.843166 -2.028782,0.843166 h -8.301597 c -7.67049,0 -10.453012,0.799808 -13.258506,2.304723 -2.772903,1.471366 -5.039433,3.742351 -6.505365,6.518128 C 29.898599,39.835109 29.0988,42.622749 29.0988,50.311132 V 61.30839 c -0.0023,0.508768 -0.616291,0.763517 -0.978564,0.406278 l -6.781355,-6.79919 c -0.53958,-0.539364 -0.842826,-1.270958 -0.843077,-2.033886 v -3.825023 c 0,-10.248616 1.065487,-13.966319 3.066146,-17.714692 1.953801,-3.701458 4.975278,-6.730045 8.672141,-8.692545 3.740712,-2.003217 7.450702,-3.071261 17.676292,-3.071261 h 17.962536 c 0.510523,0.0027 0.764474,0.61995 0.403683,0.981169 z m 35.475331,25.78379 -9.249531,-8.861181 C 87.105279,43.667827 86.389872,43.223232 85.6259,42.944728 84.977724,42.699169 84.290258,42.573608 83.597118,42.574183 H 56.293001 c -0.511913,-1.91e-4 -0.768303,-0.618972 -0.406554,-0.981169 l 6.794094,-6.80175 c 0.53696,-0.536551 1.26481,-0.840657 2.026275,-0.840657 h 21.759449 c 6.33665,0 11.472531,5.148586 11.472531,11.498072 v 7.279555 c -0.0023,0.503923 -0.605855,0.761148 -0.971045,0.413908 z m -18.179727,43.081983 8.840767,-9.272553 c 0.613215,-0.613232 1.057852,-1.328663 1.336348,-2.095202 0.24422,-0.649361 0.368859,-1.337565 0.367947,-2.031327 V 55.459738 c 4.34e-4,-0.511768 0.61905,-0.767923 0.981164,-0.406279 l 6.786391,6.806857 c 0.536936,0.539161 0.838245,1.269901 0.838245,2.033877 v 21.805452 c 0,6.349494 -5.13588,11.498069 -11.472531,11.498069 h -7.264233 c -0.503982,-0.0021 -0.761465,-0.605615 -0.414279,-0.970941 z m -42.982324,-18.225719 9.254658,8.86118 c 0.610344,0.613231 1.328736,1.057827 2.09011,1.336332 0.628668,0.240172 1.313376,0.370447 2.02876,0.370447 h 27.304117 c 0.510523,0.0027 0.764474,0.61995 0.403683,0.98117 l -6.79152,6.801747 c -0.536937,0.536554 -1.267293,0.840657 -2.026161,0.840657 H 46.310195 c -6.343168,-0.007 -11.479596,-5.154911 -11.472531,-11.49807 v -7.279557 c 0.0023,-0.503795 0.605741,-0.76096 0.970931,-0.413906 z M 53.988321,34.921626 45.14507,44.196742 c -0.613238,0.613231 -1.055345,1.328662 -1.333863,2.095201 -0.2452,0.649178 -0.370842,1.337387 -0.370842,2.031328 v 27.365402 c -0.0045,0.507626 -0.617295,0.760212 -0.978656,0.403668 L 35.67534,69.285485 C 35.138153,68.745958 34.83673,68.01551 34.837095,67.254166 v -21.80546 c 0,-6.349483 5.135767,-11.49807 11.47253,-11.49807 h 7.264211 c 0.504005,0.0021 0.761511,0.60562 0.414302,0.970953 z"
     id="path5838" />
</svg>
