<svg width="836" height="444" viewBox="0 0 836 444" fill="none" xmlns="http://www.w3.org/2000/svg">
<rect x="5" y="5" width="826" height="434" rx="45" stroke="#71717A" stroke-width="10" stroke-linecap="square" stroke-linejoin="round" stroke-dasharray="36 36"/>
<mask id="path-2-outside-1_47_314" maskUnits="userSpaceOnUse" x="67.6904" y="109.709" width="708" height="225" fill="black">
<rect fill="white" x="67.6904" y="109.709" width="708" height="225"/>
<path d="M92.8649 111.455H102.213L116.462 136.251H117.048L131.297 111.455H140.645L120.857 144.587V166H112.654V144.587L92.8649 111.455Z"/>
<path d="M193.014 138.727C193.014 144.551 191.948 149.558 189.818 153.749C187.687 157.921 184.766 161.135 181.055 163.39C177.362 165.627 173.163 166.746 168.457 166.746C163.734 166.746 159.517 165.627 155.807 163.39C152.113 161.135 149.201 157.912 147.071 153.722C144.94 149.532 143.875 144.534 143.875 138.727C143.875 132.904 144.94 127.905 147.071 123.733C149.201 119.542 152.113 116.329 155.807 114.091C159.517 111.836 163.734 110.709 168.457 110.709C173.163 110.709 177.362 111.836 181.055 114.091C184.766 116.329 187.687 119.542 189.818 123.733C191.948 127.905 193.014 132.904 193.014 138.727ZM184.864 138.727C184.864 134.289 184.145 130.551 182.706 127.515C181.286 124.461 179.333 122.153 176.847 120.59C174.379 119.01 171.582 118.22 168.457 118.22C165.315 118.22 162.509 119.01 160.041 120.59C157.573 122.153 155.62 124.461 154.182 127.515C152.761 130.551 152.051 134.289 152.051 138.727C152.051 143.166 152.761 146.913 154.182 149.967C155.62 153.003 157.573 155.311 160.041 156.892C162.509 158.454 165.315 159.235 168.457 159.235C171.582 159.235 174.379 158.454 176.847 156.892C179.333 155.311 181.286 153.003 182.706 149.967C184.145 146.913 184.864 143.166 184.864 138.727Z"/>
<path d="M238.35 111.455H246.607V147.33C246.607 151.148 245.71 154.53 243.917 157.477C242.124 160.407 239.602 162.715 236.353 164.402C233.104 166.071 229.295 166.906 224.927 166.906C220.577 166.906 216.777 166.071 213.528 164.402C210.279 162.715 207.757 160.407 205.964 157.477C204.171 154.53 203.274 151.148 203.274 147.33V111.455H211.504V146.664C211.504 149.132 212.045 151.325 213.129 153.243C214.229 155.16 215.783 156.67 217.789 157.77C219.796 158.854 222.175 159.395 224.927 159.395C227.697 159.395 230.085 158.854 232.092 157.77C234.116 156.67 235.661 155.16 236.726 153.243C237.809 151.325 238.35 149.132 238.35 146.664V111.455Z"/>
<path d="M258.572 166V111.455H278.014C282.24 111.455 285.747 112.183 288.535 113.639C291.34 115.095 293.435 117.11 294.82 119.684C296.205 122.241 296.898 125.198 296.898 128.553C296.898 131.892 296.196 134.83 294.794 137.369C293.409 139.89 291.313 141.852 288.508 143.255C285.72 144.658 282.214 145.359 277.988 145.359H263.26V138.275H277.242C279.905 138.275 282.072 137.893 283.741 137.129C285.427 136.366 286.661 135.256 287.443 133.8C288.224 132.344 288.615 130.595 288.615 128.553C288.615 126.494 288.215 124.709 287.416 123.2C286.635 121.691 285.401 120.537 283.714 119.738C282.045 118.921 279.852 118.513 277.136 118.513H266.802V166H258.572ZM285.498 141.391L298.975 166H289.6L276.39 141.391H285.498Z"/>
<path d="M68.6904 253V185.364H82.9905V241.21H111.987V253H68.6904Z"/>
<path d="M180.977 219.182C180.977 226.558 179.579 232.833 176.783 238.007C174.009 243.181 170.222 247.133 165.422 249.863C160.645 252.571 155.272 253.925 149.306 253.925C143.295 253.925 137.901 252.56 133.123 249.83C128.346 247.1 124.57 243.148 121.796 237.974C119.021 232.8 117.634 226.536 117.634 219.182C117.634 211.806 119.021 205.531 121.796 200.357C124.57 195.183 128.346 191.242 133.123 188.534C137.901 185.804 143.295 184.439 149.306 184.439C155.272 184.439 160.645 185.804 165.422 188.534C170.222 191.242 174.009 195.183 176.783 200.357C179.579 205.531 180.977 211.806 180.977 219.182ZM166.479 219.182C166.479 214.404 165.764 210.375 164.332 207.095C162.923 203.814 160.931 201.326 158.355 199.631C155.779 197.936 152.763 197.088 149.306 197.088C145.849 197.088 142.833 197.936 140.257 199.631C137.681 201.326 135.677 203.814 134.246 207.095C132.837 210.375 132.133 214.404 132.133 219.182C132.133 223.96 132.837 227.989 134.246 231.269C135.677 234.55 137.681 237.038 140.257 238.733C142.833 240.428 145.849 241.276 149.306 241.276C152.763 241.276 155.779 240.428 158.355 238.733C160.931 237.038 162.923 234.55 164.332 231.269C165.764 227.989 166.479 223.96 166.479 219.182Z"/>
<path d="M236.419 207.227C235.957 205.62 235.307 204.199 234.471 202.966C233.634 201.711 232.61 200.655 231.399 199.796C230.21 198.915 228.845 198.244 227.304 197.781C225.785 197.319 224.1 197.088 222.251 197.088C218.794 197.088 215.756 197.947 213.136 199.664C210.538 201.381 208.512 203.88 207.059 207.161C205.606 210.419 204.88 214.404 204.88 219.116C204.88 223.828 205.595 227.835 207.026 231.137C208.457 234.44 210.483 236.961 213.103 238.7C215.723 240.417 218.816 241.276 222.383 241.276C225.62 241.276 228.383 240.704 230.673 239.559C232.984 238.392 234.746 236.752 235.957 234.638C237.19 232.524 237.806 230.025 237.806 227.141L240.712 227.57H223.275V216.804H251.578V225.325C251.578 231.269 250.323 236.377 247.813 240.649C245.303 244.898 241.846 248.178 237.443 250.49C233.039 252.78 227.998 253.925 222.317 253.925C215.976 253.925 210.406 252.527 205.606 249.731C200.806 246.912 197.064 242.916 194.377 237.742C191.713 232.546 190.381 226.382 190.381 219.248C190.381 213.766 191.174 208.878 192.759 204.585C194.366 200.269 196.612 196.615 199.496 193.62C202.381 190.626 205.738 188.347 209.569 186.784C213.4 185.221 217.55 184.439 222.02 184.439C225.851 184.439 229.418 185.001 232.72 186.123C236.023 187.224 238.951 188.787 241.505 190.813C244.081 192.839 246.184 195.249 247.813 198.046C249.442 200.82 250.488 203.88 250.95 207.227H236.419Z"/>
<path d="M324.473 219.182C324.473 226.558 323.075 232.833 320.279 238.007C317.505 243.181 313.718 247.133 308.918 249.863C304.141 252.571 298.769 253.925 292.802 253.925C286.791 253.925 281.397 252.56 276.619 249.83C271.842 247.1 268.066 243.148 265.292 237.974C262.517 232.8 261.13 226.536 261.13 219.182C261.13 211.806 262.517 205.531 265.292 200.357C268.066 195.183 271.842 191.242 276.619 188.534C281.397 185.804 286.791 184.439 292.802 184.439C298.769 184.439 304.141 185.804 308.918 188.534C313.718 191.242 317.505 195.183 320.279 200.357C323.075 205.531 324.473 211.806 324.473 219.182ZM309.975 219.182C309.975 214.404 309.26 210.375 307.829 207.095C306.419 203.814 304.427 201.326 301.851 199.631C299.275 197.936 296.259 197.088 292.802 197.088C289.345 197.088 286.329 197.936 283.753 199.631C281.177 201.326 279.173 203.814 277.742 207.095C276.333 210.375 275.629 214.404 275.629 219.182C275.629 223.96 276.333 227.989 277.742 231.269C279.173 234.55 281.177 237.038 283.753 238.733C286.329 240.428 289.345 241.276 292.802 241.276C296.259 241.276 299.275 240.428 301.851 238.733C304.427 237.038 306.419 234.55 307.829 231.269C309.26 227.989 309.975 223.96 309.975 219.182Z"/>
<path d="M104.8 333V278.455H113.03V302.159H140.223V278.455H148.479V333H140.223V309.216H113.03V333H104.8Z"/>
<path d="M160.464 333V278.455H194.662V285.539H168.694V302.159H192.877V309.216H168.694V325.916H194.981V333H160.464Z"/>
<path d="M205.655 333V278.455H225.097C229.323 278.455 232.83 279.183 235.617 280.639C238.423 282.095 240.518 284.11 241.903 286.684C243.288 289.241 243.98 292.198 243.98 295.553C243.98 298.892 243.279 301.83 241.876 304.369C240.491 306.89 238.396 308.852 235.591 310.255C232.803 311.658 229.296 312.359 225.07 312.359H210.342V305.275H224.325C226.988 305.275 229.154 304.893 230.823 304.129C232.51 303.366 233.744 302.256 234.525 300.8C235.307 299.344 235.697 297.595 235.697 295.553C235.697 293.494 235.298 291.709 234.499 290.2C233.717 288.691 232.483 287.537 230.797 286.738C229.128 285.921 226.935 285.513 224.218 285.513H213.884V333H205.655ZM232.581 308.391L246.058 333H236.683L223.472 308.391H232.581Z"/>
<path d="M253.994 333V278.455H288.192V285.539H262.224V302.159H286.407V309.216H262.224V325.916H288.511V333H253.994Z"/>
<path d="M443.993 189.959C442.322 189.959 441.069 189.601 440.234 188.885C439.518 188.05 439.16 187.095 439.16 186.021C439.16 184.947 439.578 183.933 440.413 182.978C441.368 181.904 442.621 181.367 444.172 181.367C445.127 181.367 445.962 181.487 446.678 181.725C447.394 181.964 447.752 182.083 447.752 182.083C447.871 180.89 447.573 179.876 446.857 179.04C446.141 178.086 444.769 177.608 442.74 177.608C440.831 177.608 438.504 178.444 435.759 180.114C433.014 181.785 430.15 183.993 427.167 186.737C424.303 189.482 421.558 192.465 418.933 195.687C416.427 198.909 414.399 202.191 412.847 205.532C411.296 208.754 410.52 211.678 410.52 214.303C410.52 217.287 411.475 219.256 413.384 220.21C415.293 221.165 417.382 221.642 419.649 221.642C423.945 221.642 428.181 220.628 432.358 218.599C436.535 216.451 440.353 213.886 443.814 210.902C447.394 207.8 450.437 204.816 452.943 201.952C455.449 199.088 457.239 196.881 458.313 195.329L459.924 196.403C458.969 197.835 457.18 200.043 454.554 203.026C451.929 206.01 448.707 209.112 444.888 212.334C441.189 215.437 437.072 218.122 432.537 220.389C428.003 222.537 423.229 223.611 418.217 223.611C414.16 223.611 410.759 222.716 408.014 220.926C405.15 219.017 403.718 216.093 403.718 212.155C403.718 208.814 404.673 205.115 406.582 201.057C408.491 196.881 411.117 192.943 414.458 189.243C417.919 185.425 421.976 182.322 426.63 179.935C431.403 177.429 436.654 176.176 442.382 176.176C444.65 176.176 446.618 176.654 448.289 177.608C449.96 178.563 450.795 180.234 450.795 182.62C450.795 184.768 450.02 186.558 448.468 187.99C447.036 189.303 445.544 189.959 443.993 189.959Z"/>
<path d="M489.184 176.355C495.15 176.355 498.134 179.219 498.134 184.947C498.134 189.363 497.119 193.897 495.091 198.551C493.062 203.086 490.317 207.263 486.857 211.081C483.396 214.781 479.637 217.824 475.58 220.21C471.522 222.478 467.405 223.611 463.229 223.611C460.007 223.611 457.322 222.836 455.174 221.284C452.906 219.614 451.773 216.929 451.773 213.229C451.773 209.769 452.787 205.95 454.816 201.773C456.844 197.477 459.589 193.42 463.05 189.601C466.63 185.783 470.627 182.62 475.043 180.114C479.577 177.608 484.291 176.355 489.184 176.355ZM491.153 178.861C489.124 178.861 486.737 179.756 483.993 181.546C481.248 183.336 478.444 185.663 475.58 188.527C472.716 191.391 470.031 194.494 467.525 197.835C465.138 201.057 463.169 204.22 461.618 207.322C460.186 210.425 459.47 213.05 459.47 215.198C459.47 217.585 460.126 219.256 461.439 220.21C462.751 221.046 464.243 221.463 465.914 221.463C468.658 221.463 471.761 220.33 475.222 218.062C478.682 215.676 482.024 212.692 485.246 209.112C488.468 205.532 491.093 201.773 493.122 197.835C495.27 193.778 496.344 190.079 496.344 186.737C496.344 183.635 495.807 181.546 494.733 180.472C493.659 179.398 492.465 178.861 491.153 178.861ZM494.375 197.298C494.971 197.298 495.21 197.537 495.091 198.014C495.091 198.372 494.792 198.551 494.196 198.551C493.718 198.551 493.002 199.208 492.048 200.52C491.212 201.714 490.437 202.967 489.721 204.279C489.005 205.592 488.647 206.308 488.647 206.427C488.647 209.172 489.661 210.544 491.69 210.544C493.599 210.544 495.747 209.649 498.134 207.859C500.64 206.069 503.026 204.041 505.294 201.773C507.68 199.387 509.59 197.298 511.022 195.508L512.454 196.761C510.902 198.551 508.933 200.699 506.547 203.205C504.16 205.592 501.654 207.74 499.029 209.649C496.403 211.439 493.957 212.334 491.69 212.334C489.78 212.334 488.468 211.917 487.752 211.081C487.036 210.246 486.678 208.754 486.678 206.606C486.678 203.742 487.632 201.475 489.542 199.804C491.57 198.134 493.181 197.298 494.375 197.298Z"/>
<path d="M548.602 223.611C542.277 223.611 539.115 221.762 539.115 218.062C539.115 215.676 539.891 213.11 541.442 210.365C543.113 207.621 545.141 204.876 547.528 202.131C549.915 199.267 552.301 196.463 554.688 193.718C557.194 190.974 559.223 188.468 560.774 186.2C562.445 183.814 563.28 181.785 563.28 180.114C563.28 179.518 562.982 179.04 562.385 178.682C561.908 178.205 561.192 177.966 560.237 177.966C558.805 177.966 556.776 178.682 554.151 180.114C551.645 181.546 548.423 183.993 544.485 187.453C540.666 190.795 536.132 195.329 530.881 201.057C525.63 206.666 519.604 213.707 512.802 222.179C511.728 221.941 510.117 221.821 507.969 221.821C505.821 221.821 503.971 222.06 502.42 222.537C505.881 217.525 509.282 212.633 512.623 207.859C515.964 203.086 519.007 198.73 521.752 194.792C524.616 190.854 526.883 187.632 528.554 185.126C530.225 182.501 531.06 180.89 531.06 180.293C531.06 179.219 530.523 178.682 529.449 178.682C528.256 178.682 526.764 179.637 524.974 181.546C523.184 183.336 521.215 185.663 519.067 188.527C516.919 191.272 514.711 194.076 512.444 196.94L510.833 195.866C513.22 193.122 515.547 190.258 517.814 187.274C520.081 184.291 522.408 181.725 524.795 179.577C527.182 177.429 529.688 176.355 532.313 176.355C533.626 176.355 534.819 176.713 535.893 177.429C537.086 178.026 537.683 179.04 537.683 180.472C537.683 181.785 537.146 183.396 536.072 185.305C535.117 187.095 533.805 189.184 532.134 191.57C530.463 193.838 528.554 196.403 526.406 199.267C524.377 202.012 522.229 204.995 519.962 208.217L520.141 209.291C526.466 202.37 531.776 196.761 536.072 192.465C540.487 188.169 544.127 184.888 546.991 182.62C549.974 180.234 552.54 178.623 554.688 177.787C556.955 176.833 559.103 176.355 561.132 176.355C563.877 176.355 565.846 176.952 567.039 178.145C568.232 179.219 568.829 180.711 568.829 182.62C568.829 185.484 567.994 188.527 566.323 191.749C564.652 194.852 562.564 197.955 560.058 201.057C557.671 204.041 555.225 206.845 552.719 209.47C550.332 211.976 548.304 214.124 546.633 215.914C544.962 217.704 544.127 218.898 544.127 219.494C544.127 220.21 544.306 220.747 544.664 221.105C545.141 221.463 546.275 221.642 548.065 221.642C552.48 221.642 556.657 220.27 560.595 217.525C564.652 214.781 568.531 211.439 572.23 207.501C575.929 203.444 579.39 199.446 582.612 195.508L584.044 196.761C580.822 200.58 577.302 204.578 573.483 208.754C569.664 212.931 565.667 216.451 561.49 219.315C557.313 222.179 553.017 223.611 548.602 223.611Z"/>
<path d="M618.307 144.672C619.381 145.15 620.932 145.388 622.961 145.388C625.109 145.269 626.78 145.09 627.973 144.851C624.154 150.102 619.918 155.89 615.264 162.214C610.61 168.539 605.896 174.864 601.123 181.188C596.469 187.394 592.113 193.241 588.056 198.73C584.118 204.1 580.956 208.635 578.569 212.334C576.182 216.034 574.989 218.361 574.989 219.315C574.989 220.031 575.407 220.568 576.242 220.926C576.958 221.284 577.913 221.463 579.106 221.463C581.731 221.463 584.595 220.568 587.698 218.778C590.92 216.869 594.082 214.542 597.185 211.797C600.407 208.933 603.331 206.069 605.956 203.205C608.701 200.222 610.849 197.656 612.4 195.508L613.832 196.582C612.161 198.73 609.954 201.296 607.209 204.279C604.464 207.263 601.421 210.246 598.08 213.229C594.739 216.213 591.278 218.719 587.698 220.747C584.237 222.657 580.896 223.611 577.674 223.611C575.407 223.611 573.617 223.134 572.304 222.179C570.872 221.344 570.156 219.852 570.156 217.704C570.156 215.795 571.29 212.871 573.557 208.933C575.824 204.876 578.748 200.222 582.328 194.971C586.027 189.721 590.025 184.172 594.321 178.324C598.617 172.358 602.853 166.51 607.03 160.782C611.326 154.935 615.085 149.565 618.307 144.672ZM598.617 164.72C597.424 164.72 596.827 164.362 596.827 163.646C596.827 163.05 597.424 162.751 598.617 162.751H632.627C632.985 162.751 633.343 162.811 633.701 162.93C634.178 163.05 634.417 163.288 634.417 163.646C634.417 164.124 634.178 164.422 633.701 164.541C633.343 164.661 632.985 164.72 632.627 164.72H598.617Z"/>
<path d="M651.067 190.675C650.589 191.63 649.873 192.465 648.919 193.181C648.083 193.897 647.427 194.375 646.95 194.613C646.592 194.733 646.711 194.375 647.308 193.539C649.456 190.914 650.828 188.468 651.425 186.2C652.141 183.933 652.141 182.143 651.425 180.83C650.828 179.398 649.635 178.682 647.845 178.682C645.458 178.682 642.654 179.637 639.432 181.546C636.21 183.456 632.868 185.962 629.408 189.064C626.066 192.167 622.904 195.508 619.921 199.088C617.057 202.549 614.73 205.95 612.94 209.291C611.15 212.513 610.255 215.318 610.255 217.704C610.255 219.494 610.613 220.628 611.329 221.105C612.045 221.583 612.761 221.821 613.477 221.821C616.221 221.821 619.384 220.568 622.964 218.062C626.663 215.437 630.422 212.155 634.241 208.217C638.059 204.279 641.699 200.282 645.16 196.224C648.62 192.048 651.604 188.289 654.11 184.947C656.735 181.606 658.525 179.339 659.48 178.145C660.792 178.623 662.344 178.802 664.134 178.682C666.043 178.563 667.654 178.444 668.967 178.324C668.728 178.682 667.475 180.174 665.208 182.799C663.06 185.425 660.434 188.587 657.332 192.286C654.348 195.866 651.305 199.566 648.203 203.384C645.219 207.203 642.713 210.544 640.685 213.408C638.656 216.272 637.642 218.182 637.642 219.136C637.642 220.33 637.88 221.105 638.358 221.463C638.954 221.702 639.849 221.821 641.043 221.821C642.475 221.702 644.563 221.046 647.308 219.852C650.052 218.54 653.573 216.034 657.869 212.334C662.165 208.635 667.356 203.146 673.442 195.866C673.442 195.866 673.68 196.045 674.158 196.403C674.754 196.761 675.053 196.94 675.053 196.94C667.893 205.294 661.27 211.857 655.184 216.63C649.098 221.284 643.549 223.611 638.537 223.611C635.911 223.611 634.121 223.194 633.167 222.358C632.331 221.523 631.914 220.33 631.914 218.778C631.914 217.585 632.391 216.153 633.346 214.482C634.42 212.692 635.613 210.962 636.926 209.291C638.238 207.621 639.312 206.308 640.148 205.353C640.148 205.353 640.028 205.294 639.79 205.174C639.551 205.055 639.432 204.995 639.432 204.995C636.687 208.337 633.763 211.439 630.661 214.303C627.558 217.167 624.455 219.435 621.353 221.105C618.369 222.776 615.446 223.611 612.582 223.611C609.598 223.611 607.51 222.895 606.317 221.463C605.123 219.912 604.527 217.585 604.527 214.482C604.527 211.499 605.481 207.919 607.391 203.742C609.3 199.446 612.045 195.27 615.625 191.212C619.205 187.036 623.501 183.575 628.513 180.83C633.644 178.086 639.372 176.713 645.697 176.713C648.799 176.713 650.947 177.31 652.141 178.503C653.334 179.577 653.871 180.89 653.752 182.441C653.632 183.993 653.274 185.544 652.678 187.095C652.081 188.647 651.544 189.84 651.067 190.675Z"/>
<path d="M707.948 189.959C706.278 189.959 705.025 189.601 704.189 188.885C703.473 188.05 703.115 187.095 703.115 186.021C703.115 184.947 703.533 183.933 704.368 182.978C705.323 181.904 706.576 181.367 708.127 181.367C709.082 181.367 709.917 181.487 710.633 181.725C711.349 181.964 711.707 182.083 711.707 182.083C711.827 180.89 711.528 179.876 710.812 179.04C710.096 178.086 708.724 177.608 706.695 177.608C704.786 177.608 702.459 178.444 699.714 180.114C696.97 181.785 694.106 183.993 691.122 186.737C688.258 189.482 685.514 192.465 682.888 195.687C680.382 198.909 678.354 202.191 676.802 205.532C675.251 208.754 674.475 211.678 674.475 214.303C674.475 217.287 675.43 219.256 677.339 220.21C679.249 221.165 681.337 221.642 683.604 221.642C687.9 221.642 692.137 220.628 696.313 218.599C700.49 216.451 704.309 213.886 707.769 210.902C711.349 207.8 714.392 204.816 716.898 201.952C719.404 199.088 721.194 196.881 722.268 195.329L723.879 196.403C722.925 197.835 721.135 200.043 718.509 203.026C715.884 206.01 712.662 209.112 708.843 212.334C705.144 215.437 701.027 218.122 696.492 220.389C691.958 222.537 687.184 223.611 682.172 223.611C678.115 223.611 674.714 222.716 671.969 220.926C669.105 219.017 667.673 216.093 667.673 212.155C667.673 208.814 668.628 205.115 670.537 201.057C672.447 196.881 675.072 192.943 678.413 189.243C681.874 185.425 685.931 182.322 690.585 179.935C695.359 177.429 700.609 176.176 706.337 176.176C708.605 176.176 710.574 176.654 712.244 177.608C713.915 178.563 714.75 180.234 714.75 182.62C714.75 184.768 713.975 186.558 712.423 187.99C710.991 189.303 709.5 189.959 707.948 189.959Z"/>
<path d="M758.151 144.672C759.225 145.15 760.776 145.388 762.805 145.388C764.953 145.269 766.623 145.09 767.817 144.851C763.998 150.102 759.762 155.89 755.108 162.214C750.454 168.539 745.74 174.864 740.967 181.188C736.313 187.394 731.957 193.241 727.9 198.73C723.962 204.1 720.799 208.635 718.413 212.334C716.026 216.034 714.833 218.361 714.833 219.315C714.833 220.031 715.25 220.568 716.086 220.926C716.802 221.284 717.756 221.463 718.95 221.463C721.575 221.463 724.439 220.568 727.542 218.778C730.764 216.869 733.926 214.542 737.029 211.797C740.251 208.933 743.174 206.069 745.8 203.205C748.544 200.222 750.692 197.656 752.244 195.508L753.676 196.582C752.005 198.73 749.797 201.296 747.053 204.279C744.308 207.263 741.265 210.246 737.924 213.229C734.582 216.213 731.122 218.719 727.542 220.747C724.081 222.657 720.74 223.611 717.518 223.611C715.25 223.611 713.46 223.134 712.148 222.179C710.716 221.344 710 219.852 710 217.704C710 215.795 711.133 212.871 713.401 208.933C715.668 204.876 718.592 200.222 722.172 194.971C725.871 189.721 729.869 184.172 734.165 178.324C738.461 172.358 742.697 166.51 746.874 160.782C751.17 154.935 754.929 149.565 758.151 144.672ZM738.461 164.72C737.267 164.72 736.671 164.362 736.671 163.646C736.671 163.05 737.267 162.751 738.461 162.751H772.471C772.829 162.751 773.187 162.811 773.545 162.93C774.022 163.05 774.261 163.288 774.261 163.646C774.261 164.124 774.022 164.422 773.545 164.541C773.187 164.661 772.829 164.72 772.471 164.72H738.461Z"/>
<path d="M572.65 256.534C573.724 257.012 575.335 257.25 577.483 257.25C579.75 257.25 581.66 257.131 583.211 256.892C580.228 260.472 576.886 264.351 573.187 268.527C569.488 272.585 565.967 276.642 562.626 280.699C559.285 284.757 556.54 288.396 554.392 291.618C552.125 294.84 550.991 297.346 550.991 299.136C550.991 300.33 551.349 301.105 552.065 301.463C552.662 301.821 553.437 302 554.392 302C557.256 302 560.418 300.867 563.879 298.599C567.459 296.332 571.099 293.408 574.798 289.828C578.617 286.129 582.316 282.191 585.896 278.014C589.476 273.838 592.758 269.9 595.741 266.2C598.844 262.382 601.469 259.219 603.617 256.713C604.81 257.071 606.481 257.25 608.629 257.25C610.777 257.25 612.627 257.131 614.178 256.892C611.075 260.83 607.615 265.007 603.796 269.422C599.977 273.718 596.278 277.895 592.698 281.952C589.237 285.89 586.373 289.411 584.106 292.513C581.839 295.497 580.705 297.764 580.705 299.315C580.705 300.031 581.003 300.628 581.6 301.105C582.316 301.463 583.271 301.642 584.464 301.642C587.089 301.642 589.894 300.747 592.877 298.957C595.98 297.048 599.023 294.721 602.006 291.976C605.109 289.112 608.032 286.248 610.777 283.384C613.641 280.401 616.087 277.776 618.116 275.508L619.548 276.761C617.639 278.79 615.252 281.356 612.388 284.458C609.643 287.442 606.6 290.425 603.259 293.408C600.037 296.272 596.755 298.719 593.414 300.747C590.073 302.657 586.91 303.611 583.927 303.611C582.256 303.611 580.705 303.134 579.273 302.179C577.841 301.225 577.125 299.494 577.125 296.988C577.125 294.721 577.662 292.394 578.736 290.007C579.81 287.501 580.944 285.353 582.137 283.563C583.33 281.654 584.046 280.52 584.285 280.162L585.538 280.699C584.464 282.251 582.734 284.339 580.347 286.964C578.08 289.47 575.395 292.036 572.292 294.661C569.309 297.167 566.146 299.315 562.805 301.105C559.464 302.776 556.182 303.611 552.96 303.611C547.829 303.611 545.263 300.926 545.263 295.556C545.263 293.289 546.218 290.604 548.127 287.501C550.036 284.279 552.483 280.878 555.466 277.298C558.33 273.599 561.313 269.959 564.416 266.379C567.519 262.799 570.263 259.518 572.65 256.534Z"/>
<path d="M612.173 306.117C607.996 306.117 604.834 305.342 602.686 303.79C600.538 302.239 599.464 300.151 599.464 297.525C599.464 295.616 600.12 293.945 601.433 292.513C602.626 290.962 604.058 289.769 605.729 288.933C607.399 287.979 608.712 287.501 609.667 287.501C610.979 287.501 611.874 287.8 612.352 288.396C612.71 288.874 612.889 289.411 612.889 290.007C612.889 290.962 612.352 291.738 611.278 292.334C610.084 292.931 609.13 293.229 608.414 293.229C607.578 293.229 606.862 292.991 606.266 292.513C605.55 291.917 605.192 291.618 605.192 291.618C604.595 291.738 603.76 292.394 602.686 293.587C601.612 294.781 601.075 296.093 601.075 297.525C601.075 298.957 601.85 300.33 603.402 301.642C604.953 302.955 607.459 303.611 610.92 303.611C614.5 303.611 617.901 302.418 621.123 300.031C624.464 297.645 627.209 294.602 629.357 290.902C631.505 287.203 632.579 283.444 632.579 279.625C632.579 278.313 632.579 276.582 632.579 274.434C632.579 272.167 632.579 270.317 632.579 268.885C632.579 267.095 632.877 265.067 633.474 262.799C634.07 260.413 634.727 258.205 635.443 256.176C636.278 254.148 636.934 252.895 637.412 252.417C638.366 251.582 639.082 251.343 639.56 251.701C640.037 252.059 640.156 252.417 639.918 252.775C639.798 252.895 639.023 253.849 637.591 255.639C636.159 257.31 634.369 259.398 632.221 261.904C630.073 264.41 627.925 266.916 625.777 269.422C623.629 271.928 621.719 274.136 620.049 276.045C618.497 277.955 617.602 279.088 617.364 279.446C616.767 280.282 616.23 280.461 615.753 279.983C615.275 279.506 615.395 278.909 616.111 278.193C617.423 276.523 619.034 274.554 620.944 272.286C622.972 269.9 625.001 267.573 627.03 265.305C629.058 263.038 630.789 261.129 632.221 259.577C633.772 257.907 634.607 256.952 634.727 256.713C635.085 256.236 635.383 255.401 635.622 254.207C635.98 253.014 636.397 251.88 636.875 250.806C637.471 249.732 638.187 249.195 639.023 249.195C641.051 249.195 642.066 249.911 642.066 251.343C642.066 252.417 641.23 253.73 639.56 255.281C638.008 256.833 637.113 258.086 636.875 259.04C636.517 260.472 636.517 262.501 636.875 265.126C637.352 267.632 637.829 270.496 638.307 273.718C638.903 276.94 639.202 280.341 639.202 283.921C639.202 288.695 638.247 292.573 636.338 295.556C634.428 298.42 632.042 300.628 629.178 302.179C626.314 303.731 623.33 304.745 620.228 305.222C617.244 305.819 614.559 306.117 612.173 306.117ZM639.739 293.766C636.636 293.766 634.607 293.17 633.653 291.976C632.817 290.783 632.519 289.411 632.758 287.859C633.116 286.189 633.533 284.697 634.011 283.384L635.801 283.563C635.443 284.757 635.085 286.01 634.727 287.322C634.488 288.635 634.667 289.769 635.264 290.723C635.86 291.678 637.412 292.155 639.918 292.155C641.708 292.155 643.736 291.32 646.004 289.649C648.271 287.979 650.479 285.95 652.627 283.563C654.894 281.177 656.803 278.85 658.355 276.582L659.966 277.835C658.414 279.745 656.505 281.952 654.238 284.458C652.09 286.964 649.763 289.172 647.257 291.081C644.751 292.871 642.245 293.766 639.739 293.766Z"/>
</mask>
<path d="M92.8649 111.455H102.213L116.462 136.251H117.048L131.297 111.455H140.645L120.857 144.587V166H112.654V144.587L92.8649 111.455Z" fill="#71717A"/>
<path d="M193.014 138.727C193.014 144.551 191.948 149.558 189.818 153.749C187.687 157.921 184.766 161.135 181.055 163.39C177.362 165.627 173.163 166.746 168.457 166.746C163.734 166.746 159.517 165.627 155.807 163.39C152.113 161.135 149.201 157.912 147.071 153.722C144.94 149.532 143.875 144.534 143.875 138.727C143.875 132.904 144.94 127.905 147.071 123.733C149.201 119.542 152.113 116.329 155.807 114.091C159.517 111.836 163.734 110.709 168.457 110.709C173.163 110.709 177.362 111.836 181.055 114.091C184.766 116.329 187.687 119.542 189.818 123.733C191.948 127.905 193.014 132.904 193.014 138.727ZM184.864 138.727C184.864 134.289 184.145 130.551 182.706 127.515C181.286 124.461 179.333 122.153 176.847 120.59C174.379 119.01 171.582 118.22 168.457 118.22C165.315 118.22 162.509 119.01 160.041 120.59C157.573 122.153 155.62 124.461 154.182 127.515C152.761 130.551 152.051 134.289 152.051 138.727C152.051 143.166 152.761 146.913 154.182 149.967C155.62 153.003 157.573 155.311 160.041 156.892C162.509 158.454 165.315 159.235 168.457 159.235C171.582 159.235 174.379 158.454 176.847 156.892C179.333 155.311 181.286 153.003 182.706 149.967C184.145 146.913 184.864 143.166 184.864 138.727Z" fill="#71717A"/>
<path d="M238.35 111.455H246.607V147.33C246.607 151.148 245.71 154.53 243.917 157.477C242.124 160.407 239.602 162.715 236.353 164.402C233.104 166.071 229.295 166.906 224.927 166.906C220.577 166.906 216.777 166.071 213.528 164.402C210.279 162.715 207.757 160.407 205.964 157.477C204.171 154.53 203.274 151.148 203.274 147.33V111.455H211.504V146.664C211.504 149.132 212.045 151.325 213.129 153.243C214.229 155.16 215.783 156.67 217.789 157.77C219.796 158.854 222.175 159.395 224.927 159.395C227.697 159.395 230.085 158.854 232.092 157.77C234.116 156.67 235.661 155.16 236.726 153.243C237.809 151.325 238.35 149.132 238.35 146.664V111.455Z" fill="#71717A"/>
<path d="M258.572 166V111.455H278.014C282.24 111.455 285.747 112.183 288.535 113.639C291.34 115.095 293.435 117.11 294.82 119.684C296.205 122.241 296.898 125.198 296.898 128.553C296.898 131.892 296.196 134.83 294.794 137.369C293.409 139.89 291.313 141.852 288.508 143.255C285.72 144.658 282.214 145.359 277.988 145.359H263.26V138.275H277.242C279.905 138.275 282.072 137.893 283.741 137.129C285.427 136.366 286.661 135.256 287.443 133.8C288.224 132.344 288.615 130.595 288.615 128.553C288.615 126.494 288.215 124.709 287.416 123.2C286.635 121.691 285.401 120.537 283.714 119.738C282.045 118.921 279.852 118.513 277.136 118.513H266.802V166H258.572ZM285.498 141.391L298.975 166H289.6L276.39 141.391H285.498Z" fill="#71717A"/>
<path d="M68.6904 253V185.364H82.9905V241.21H111.987V253H68.6904Z" fill="#71717A"/>
<path d="M180.977 219.182C180.977 226.558 179.579 232.833 176.783 238.007C174.009 243.181 170.222 247.133 165.422 249.863C160.645 252.571 155.272 253.925 149.306 253.925C143.295 253.925 137.901 252.56 133.123 249.83C128.346 247.1 124.57 243.148 121.796 237.974C119.021 232.8 117.634 226.536 117.634 219.182C117.634 211.806 119.021 205.531 121.796 200.357C124.57 195.183 128.346 191.242 133.123 188.534C137.901 185.804 143.295 184.439 149.306 184.439C155.272 184.439 160.645 185.804 165.422 188.534C170.222 191.242 174.009 195.183 176.783 200.357C179.579 205.531 180.977 211.806 180.977 219.182ZM166.479 219.182C166.479 214.404 165.764 210.375 164.332 207.095C162.923 203.814 160.931 201.326 158.355 199.631C155.779 197.936 152.763 197.088 149.306 197.088C145.849 197.088 142.833 197.936 140.257 199.631C137.681 201.326 135.677 203.814 134.246 207.095C132.837 210.375 132.133 214.404 132.133 219.182C132.133 223.96 132.837 227.989 134.246 231.269C135.677 234.55 137.681 237.038 140.257 238.733C142.833 240.428 145.849 241.276 149.306 241.276C152.763 241.276 155.779 240.428 158.355 238.733C160.931 237.038 162.923 234.55 164.332 231.269C165.764 227.989 166.479 223.96 166.479 219.182Z" fill="#71717A"/>
<path d="M236.419 207.227C235.957 205.62 235.307 204.199 234.471 202.966C233.634 201.711 232.61 200.655 231.399 199.796C230.21 198.915 228.845 198.244 227.304 197.781C225.785 197.319 224.1 197.088 222.251 197.088C218.794 197.088 215.756 197.947 213.136 199.664C210.538 201.381 208.512 203.88 207.059 207.161C205.606 210.419 204.88 214.404 204.88 219.116C204.88 223.828 205.595 227.835 207.026 231.137C208.457 234.44 210.483 236.961 213.103 238.7C215.723 240.417 218.816 241.276 222.383 241.276C225.62 241.276 228.383 240.704 230.673 239.559C232.984 238.392 234.746 236.752 235.957 234.638C237.19 232.524 237.806 230.025 237.806 227.141L240.712 227.57H223.275V216.804H251.578V225.325C251.578 231.269 250.323 236.377 247.813 240.649C245.303 244.898 241.846 248.178 237.443 250.49C233.039 252.78 227.998 253.925 222.317 253.925C215.976 253.925 210.406 252.527 205.606 249.731C200.806 246.912 197.064 242.916 194.377 237.742C191.713 232.546 190.381 226.382 190.381 219.248C190.381 213.766 191.174 208.878 192.759 204.585C194.366 200.269 196.612 196.615 199.496 193.62C202.381 190.626 205.738 188.347 209.569 186.784C213.4 185.221 217.55 184.439 222.02 184.439C225.851 184.439 229.418 185.001 232.72 186.123C236.023 187.224 238.951 188.787 241.505 190.813C244.081 192.839 246.184 195.249 247.813 198.046C249.442 200.82 250.488 203.88 250.95 207.227H236.419Z" fill="#71717A"/>
<path d="M324.473 219.182C324.473 226.558 323.075 232.833 320.279 238.007C317.505 243.181 313.718 247.133 308.918 249.863C304.141 252.571 298.769 253.925 292.802 253.925C286.791 253.925 281.397 252.56 276.619 249.83C271.842 247.1 268.066 243.148 265.292 237.974C262.517 232.8 261.13 226.536 261.13 219.182C261.13 211.806 262.517 205.531 265.292 200.357C268.066 195.183 271.842 191.242 276.619 188.534C281.397 185.804 286.791 184.439 292.802 184.439C298.769 184.439 304.141 185.804 308.918 188.534C313.718 191.242 317.505 195.183 320.279 200.357C323.075 205.531 324.473 211.806 324.473 219.182ZM309.975 219.182C309.975 214.404 309.26 210.375 307.829 207.095C306.419 203.814 304.427 201.326 301.851 199.631C299.275 197.936 296.259 197.088 292.802 197.088C289.345 197.088 286.329 197.936 283.753 199.631C281.177 201.326 279.173 203.814 277.742 207.095C276.333 210.375 275.629 214.404 275.629 219.182C275.629 223.96 276.333 227.989 277.742 231.269C279.173 234.55 281.177 237.038 283.753 238.733C286.329 240.428 289.345 241.276 292.802 241.276C296.259 241.276 299.275 240.428 301.851 238.733C304.427 237.038 306.419 234.55 307.829 231.269C309.26 227.989 309.975 223.96 309.975 219.182Z" fill="#71717A"/>
<path d="M104.8 333V278.455H113.03V302.159H140.223V278.455H148.479V333H140.223V309.216H113.03V333H104.8Z" fill="#71717A"/>
<path d="M160.464 333V278.455H194.662V285.539H168.694V302.159H192.877V309.216H168.694V325.916H194.981V333H160.464Z" fill="#71717A"/>
<path d="M205.655 333V278.455H225.097C229.323 278.455 232.83 279.183 235.617 280.639C238.423 282.095 240.518 284.11 241.903 286.684C243.288 289.241 243.98 292.198 243.98 295.553C243.98 298.892 243.279 301.83 241.876 304.369C240.491 306.89 238.396 308.852 235.591 310.255C232.803 311.658 229.296 312.359 225.07 312.359H210.342V305.275H224.325C226.988 305.275 229.154 304.893 230.823 304.129C232.51 303.366 233.744 302.256 234.525 300.8C235.307 299.344 235.697 297.595 235.697 295.553C235.697 293.494 235.298 291.709 234.499 290.2C233.717 288.691 232.483 287.537 230.797 286.738C229.128 285.921 226.935 285.513 224.218 285.513H213.884V333H205.655ZM232.581 308.391L246.058 333H236.683L223.472 308.391H232.581Z" fill="#71717A"/>
<path d="M253.994 333V278.455H288.192V285.539H262.224V302.159H286.407V309.216H262.224V325.916H288.511V333H253.994Z" fill="#71717A"/>
<path d="M443.993 189.959C442.322 189.959 441.069 189.601 440.234 188.885C439.518 188.05 439.16 187.095 439.16 186.021C439.16 184.947 439.578 183.933 440.413 182.978C441.368 181.904 442.621 181.367 444.172 181.367C445.127 181.367 445.962 181.487 446.678 181.725C447.394 181.964 447.752 182.083 447.752 182.083C447.871 180.89 447.573 179.876 446.857 179.04C446.141 178.086 444.769 177.608 442.74 177.608C440.831 177.608 438.504 178.444 435.759 180.114C433.014 181.785 430.15 183.993 427.167 186.737C424.303 189.482 421.558 192.465 418.933 195.687C416.427 198.909 414.399 202.191 412.847 205.532C411.296 208.754 410.52 211.678 410.52 214.303C410.52 217.287 411.475 219.256 413.384 220.21C415.293 221.165 417.382 221.642 419.649 221.642C423.945 221.642 428.181 220.628 432.358 218.599C436.535 216.451 440.353 213.886 443.814 210.902C447.394 207.8 450.437 204.816 452.943 201.952C455.449 199.088 457.239 196.881 458.313 195.329L459.924 196.403C458.969 197.835 457.18 200.043 454.554 203.026C451.929 206.01 448.707 209.112 444.888 212.334C441.189 215.437 437.072 218.122 432.537 220.389C428.003 222.537 423.229 223.611 418.217 223.611C414.16 223.611 410.759 222.716 408.014 220.926C405.15 219.017 403.718 216.093 403.718 212.155C403.718 208.814 404.673 205.115 406.582 201.057C408.491 196.881 411.117 192.943 414.458 189.243C417.919 185.425 421.976 182.322 426.63 179.935C431.403 177.429 436.654 176.176 442.382 176.176C444.65 176.176 446.618 176.654 448.289 177.608C449.96 178.563 450.795 180.234 450.795 182.62C450.795 184.768 450.02 186.558 448.468 187.99C447.036 189.303 445.544 189.959 443.993 189.959Z" fill="#71717A"/>
<path d="M489.184 176.355C495.15 176.355 498.134 179.219 498.134 184.947C498.134 189.363 497.119 193.897 495.091 198.551C493.062 203.086 490.317 207.263 486.857 211.081C483.396 214.781 479.637 217.824 475.58 220.21C471.522 222.478 467.405 223.611 463.229 223.611C460.007 223.611 457.322 222.836 455.174 221.284C452.906 219.614 451.773 216.929 451.773 213.229C451.773 209.769 452.787 205.95 454.816 201.773C456.844 197.477 459.589 193.42 463.05 189.601C466.63 185.783 470.627 182.62 475.043 180.114C479.577 177.608 484.291 176.355 489.184 176.355ZM491.153 178.861C489.124 178.861 486.737 179.756 483.993 181.546C481.248 183.336 478.444 185.663 475.58 188.527C472.716 191.391 470.031 194.494 467.525 197.835C465.138 201.057 463.169 204.22 461.618 207.322C460.186 210.425 459.47 213.05 459.47 215.198C459.47 217.585 460.126 219.256 461.439 220.21C462.751 221.046 464.243 221.463 465.914 221.463C468.658 221.463 471.761 220.33 475.222 218.062C478.682 215.676 482.024 212.692 485.246 209.112C488.468 205.532 491.093 201.773 493.122 197.835C495.27 193.778 496.344 190.079 496.344 186.737C496.344 183.635 495.807 181.546 494.733 180.472C493.659 179.398 492.465 178.861 491.153 178.861ZM494.375 197.298C494.971 197.298 495.21 197.537 495.091 198.014C495.091 198.372 494.792 198.551 494.196 198.551C493.718 198.551 493.002 199.208 492.048 200.52C491.212 201.714 490.437 202.967 489.721 204.279C489.005 205.592 488.647 206.308 488.647 206.427C488.647 209.172 489.661 210.544 491.69 210.544C493.599 210.544 495.747 209.649 498.134 207.859C500.64 206.069 503.026 204.041 505.294 201.773C507.68 199.387 509.59 197.298 511.022 195.508L512.454 196.761C510.902 198.551 508.933 200.699 506.547 203.205C504.16 205.592 501.654 207.74 499.029 209.649C496.403 211.439 493.957 212.334 491.69 212.334C489.78 212.334 488.468 211.917 487.752 211.081C487.036 210.246 486.678 208.754 486.678 206.606C486.678 203.742 487.632 201.475 489.542 199.804C491.57 198.134 493.181 197.298 494.375 197.298Z" fill="#71717A"/>
<path d="M548.602 223.611C542.277 223.611 539.115 221.762 539.115 218.062C539.115 215.676 539.891 213.11 541.442 210.365C543.113 207.621 545.141 204.876 547.528 202.131C549.915 199.267 552.301 196.463 554.688 193.718C557.194 190.974 559.223 188.468 560.774 186.2C562.445 183.814 563.28 181.785 563.28 180.114C563.28 179.518 562.982 179.04 562.385 178.682C561.908 178.205 561.192 177.966 560.237 177.966C558.805 177.966 556.776 178.682 554.151 180.114C551.645 181.546 548.423 183.993 544.485 187.453C540.666 190.795 536.132 195.329 530.881 201.057C525.63 206.666 519.604 213.707 512.802 222.179C511.728 221.941 510.117 221.821 507.969 221.821C505.821 221.821 503.971 222.06 502.42 222.537C505.881 217.525 509.282 212.633 512.623 207.859C515.964 203.086 519.007 198.73 521.752 194.792C524.616 190.854 526.883 187.632 528.554 185.126C530.225 182.501 531.06 180.89 531.06 180.293C531.06 179.219 530.523 178.682 529.449 178.682C528.256 178.682 526.764 179.637 524.974 181.546C523.184 183.336 521.215 185.663 519.067 188.527C516.919 191.272 514.711 194.076 512.444 196.94L510.833 195.866C513.22 193.122 515.547 190.258 517.814 187.274C520.081 184.291 522.408 181.725 524.795 179.577C527.182 177.429 529.688 176.355 532.313 176.355C533.626 176.355 534.819 176.713 535.893 177.429C537.086 178.026 537.683 179.04 537.683 180.472C537.683 181.785 537.146 183.396 536.072 185.305C535.117 187.095 533.805 189.184 532.134 191.57C530.463 193.838 528.554 196.403 526.406 199.267C524.377 202.012 522.229 204.995 519.962 208.217L520.141 209.291C526.466 202.37 531.776 196.761 536.072 192.465C540.487 188.169 544.127 184.888 546.991 182.62C549.974 180.234 552.54 178.623 554.688 177.787C556.955 176.833 559.103 176.355 561.132 176.355C563.877 176.355 565.846 176.952 567.039 178.145C568.232 179.219 568.829 180.711 568.829 182.62C568.829 185.484 567.994 188.527 566.323 191.749C564.652 194.852 562.564 197.955 560.058 201.057C557.671 204.041 555.225 206.845 552.719 209.47C550.332 211.976 548.304 214.124 546.633 215.914C544.962 217.704 544.127 218.898 544.127 219.494C544.127 220.21 544.306 220.747 544.664 221.105C545.141 221.463 546.275 221.642 548.065 221.642C552.48 221.642 556.657 220.27 560.595 217.525C564.652 214.781 568.531 211.439 572.23 207.501C575.929 203.444 579.39 199.446 582.612 195.508L584.044 196.761C580.822 200.58 577.302 204.578 573.483 208.754C569.664 212.931 565.667 216.451 561.49 219.315C557.313 222.179 553.017 223.611 548.602 223.611Z" fill="#71717A"/>
<path d="M618.307 144.672C619.381 145.15 620.932 145.388 622.961 145.388C625.109 145.269 626.78 145.09 627.973 144.851C624.154 150.102 619.918 155.89 615.264 162.214C610.61 168.539 605.896 174.864 601.123 181.188C596.469 187.394 592.113 193.241 588.056 198.73C584.118 204.1 580.956 208.635 578.569 212.334C576.182 216.034 574.989 218.361 574.989 219.315C574.989 220.031 575.407 220.568 576.242 220.926C576.958 221.284 577.913 221.463 579.106 221.463C581.731 221.463 584.595 220.568 587.698 218.778C590.92 216.869 594.082 214.542 597.185 211.797C600.407 208.933 603.331 206.069 605.956 203.205C608.701 200.222 610.849 197.656 612.4 195.508L613.832 196.582C612.161 198.73 609.954 201.296 607.209 204.279C604.464 207.263 601.421 210.246 598.08 213.229C594.739 216.213 591.278 218.719 587.698 220.747C584.237 222.657 580.896 223.611 577.674 223.611C575.407 223.611 573.617 223.134 572.304 222.179C570.872 221.344 570.156 219.852 570.156 217.704C570.156 215.795 571.29 212.871 573.557 208.933C575.824 204.876 578.748 200.222 582.328 194.971C586.027 189.721 590.025 184.172 594.321 178.324C598.617 172.358 602.853 166.51 607.03 160.782C611.326 154.935 615.085 149.565 618.307 144.672ZM598.617 164.72C597.424 164.72 596.827 164.362 596.827 163.646C596.827 163.05 597.424 162.751 598.617 162.751H632.627C632.985 162.751 633.343 162.811 633.701 162.93C634.178 163.05 634.417 163.288 634.417 163.646C634.417 164.124 634.178 164.422 633.701 164.541C633.343 164.661 632.985 164.72 632.627 164.72H598.617Z" fill="#71717A"/>
<path d="M651.067 190.675C650.589 191.63 649.873 192.465 648.919 193.181C648.083 193.897 647.427 194.375 646.95 194.613C646.592 194.733 646.711 194.375 647.308 193.539C649.456 190.914 650.828 188.468 651.425 186.2C652.141 183.933 652.141 182.143 651.425 180.83C650.828 179.398 649.635 178.682 647.845 178.682C645.458 178.682 642.654 179.637 639.432 181.546C636.21 183.456 632.868 185.962 629.408 189.064C626.066 192.167 622.904 195.508 619.921 199.088C617.057 202.549 614.73 205.95 612.94 209.291C611.15 212.513 610.255 215.318 610.255 217.704C610.255 219.494 610.613 220.628 611.329 221.105C612.045 221.583 612.761 221.821 613.477 221.821C616.221 221.821 619.384 220.568 622.964 218.062C626.663 215.437 630.422 212.155 634.241 208.217C638.059 204.279 641.699 200.282 645.16 196.224C648.62 192.048 651.604 188.289 654.11 184.947C656.735 181.606 658.525 179.339 659.48 178.145C660.792 178.623 662.344 178.802 664.134 178.682C666.043 178.563 667.654 178.444 668.967 178.324C668.728 178.682 667.475 180.174 665.208 182.799C663.06 185.425 660.434 188.587 657.332 192.286C654.348 195.866 651.305 199.566 648.203 203.384C645.219 207.203 642.713 210.544 640.685 213.408C638.656 216.272 637.642 218.182 637.642 219.136C637.642 220.33 637.88 221.105 638.358 221.463C638.954 221.702 639.849 221.821 641.043 221.821C642.475 221.702 644.563 221.046 647.308 219.852C650.052 218.54 653.573 216.034 657.869 212.334C662.165 208.635 667.356 203.146 673.442 195.866C673.442 195.866 673.68 196.045 674.158 196.403C674.754 196.761 675.053 196.94 675.053 196.94C667.893 205.294 661.27 211.857 655.184 216.63C649.098 221.284 643.549 223.611 638.537 223.611C635.911 223.611 634.121 223.194 633.167 222.358C632.331 221.523 631.914 220.33 631.914 218.778C631.914 217.585 632.391 216.153 633.346 214.482C634.42 212.692 635.613 210.962 636.926 209.291C638.238 207.621 639.312 206.308 640.148 205.353C640.148 205.353 640.028 205.294 639.79 205.174C639.551 205.055 639.432 204.995 639.432 204.995C636.687 208.337 633.763 211.439 630.661 214.303C627.558 217.167 624.455 219.435 621.353 221.105C618.369 222.776 615.446 223.611 612.582 223.611C609.598 223.611 607.51 222.895 606.317 221.463C605.123 219.912 604.527 217.585 604.527 214.482C604.527 211.499 605.481 207.919 607.391 203.742C609.3 199.446 612.045 195.27 615.625 191.212C619.205 187.036 623.501 183.575 628.513 180.83C633.644 178.086 639.372 176.713 645.697 176.713C648.799 176.713 650.947 177.31 652.141 178.503C653.334 179.577 653.871 180.89 653.752 182.441C653.632 183.993 653.274 185.544 652.678 187.095C652.081 188.647 651.544 189.84 651.067 190.675Z" fill="#71717A"/>
<path d="M707.948 189.959C706.278 189.959 705.025 189.601 704.189 188.885C703.473 188.05 703.115 187.095 703.115 186.021C703.115 184.947 703.533 183.933 704.368 182.978C705.323 181.904 706.576 181.367 708.127 181.367C709.082 181.367 709.917 181.487 710.633 181.725C711.349 181.964 711.707 182.083 711.707 182.083C711.827 180.89 711.528 179.876 710.812 179.04C710.096 178.086 708.724 177.608 706.695 177.608C704.786 177.608 702.459 178.444 699.714 180.114C696.97 181.785 694.106 183.993 691.122 186.737C688.258 189.482 685.514 192.465 682.888 195.687C680.382 198.909 678.354 202.191 676.802 205.532C675.251 208.754 674.475 211.678 674.475 214.303C674.475 217.287 675.43 219.256 677.339 220.21C679.249 221.165 681.337 221.642 683.604 221.642C687.9 221.642 692.137 220.628 696.313 218.599C700.49 216.451 704.309 213.886 707.769 210.902C711.349 207.8 714.392 204.816 716.898 201.952C719.404 199.088 721.194 196.881 722.268 195.329L723.879 196.403C722.925 197.835 721.135 200.043 718.509 203.026C715.884 206.01 712.662 209.112 708.843 212.334C705.144 215.437 701.027 218.122 696.492 220.389C691.958 222.537 687.184 223.611 682.172 223.611C678.115 223.611 674.714 222.716 671.969 220.926C669.105 219.017 667.673 216.093 667.673 212.155C667.673 208.814 668.628 205.115 670.537 201.057C672.447 196.881 675.072 192.943 678.413 189.243C681.874 185.425 685.931 182.322 690.585 179.935C695.359 177.429 700.609 176.176 706.337 176.176C708.605 176.176 710.574 176.654 712.244 177.608C713.915 178.563 714.75 180.234 714.75 182.62C714.75 184.768 713.975 186.558 712.423 187.99C710.991 189.303 709.5 189.959 707.948 189.959Z" fill="#71717A"/>
<path d="M758.151 144.672C759.225 145.15 760.776 145.388 762.805 145.388C764.953 145.269 766.623 145.09 767.817 144.851C763.998 150.102 759.762 155.89 755.108 162.214C750.454 168.539 745.74 174.864 740.967 181.188C736.313 187.394 731.957 193.241 727.9 198.73C723.962 204.1 720.799 208.635 718.413 212.334C716.026 216.034 714.833 218.361 714.833 219.315C714.833 220.031 715.25 220.568 716.086 220.926C716.802 221.284 717.756 221.463 718.95 221.463C721.575 221.463 724.439 220.568 727.542 218.778C730.764 216.869 733.926 214.542 737.029 211.797C740.251 208.933 743.174 206.069 745.8 203.205C748.544 200.222 750.692 197.656 752.244 195.508L753.676 196.582C752.005 198.73 749.797 201.296 747.053 204.279C744.308 207.263 741.265 210.246 737.924 213.229C734.582 216.213 731.122 218.719 727.542 220.747C724.081 222.657 720.74 223.611 717.518 223.611C715.25 223.611 713.46 223.134 712.148 222.179C710.716 221.344 710 219.852 710 217.704C710 215.795 711.133 212.871 713.401 208.933C715.668 204.876 718.592 200.222 722.172 194.971C725.871 189.721 729.869 184.172 734.165 178.324C738.461 172.358 742.697 166.51 746.874 160.782C751.17 154.935 754.929 149.565 758.151 144.672ZM738.461 164.72C737.267 164.72 736.671 164.362 736.671 163.646C736.671 163.05 737.267 162.751 738.461 162.751H772.471C772.829 162.751 773.187 162.811 773.545 162.93C774.022 163.05 774.261 163.288 774.261 163.646C774.261 164.124 774.022 164.422 773.545 164.541C773.187 164.661 772.829 164.72 772.471 164.72H738.461Z" fill="#71717A"/>
<path d="M572.65 256.534C573.724 257.012 575.335 257.25 577.483 257.25C579.75 257.25 581.66 257.131 583.211 256.892C580.228 260.472 576.886 264.351 573.187 268.527C569.488 272.585 565.967 276.642 562.626 280.699C559.285 284.757 556.54 288.396 554.392 291.618C552.125 294.84 550.991 297.346 550.991 299.136C550.991 300.33 551.349 301.105 552.065 301.463C552.662 301.821 553.437 302 554.392 302C557.256 302 560.418 300.867 563.879 298.599C567.459 296.332 571.099 293.408 574.798 289.828C578.617 286.129 582.316 282.191 585.896 278.014C589.476 273.838 592.758 269.9 595.741 266.2C598.844 262.382 601.469 259.219 603.617 256.713C604.81 257.071 606.481 257.25 608.629 257.25C610.777 257.25 612.627 257.131 614.178 256.892C611.075 260.83 607.615 265.007 603.796 269.422C599.977 273.718 596.278 277.895 592.698 281.952C589.237 285.89 586.373 289.411 584.106 292.513C581.839 295.497 580.705 297.764 580.705 299.315C580.705 300.031 581.003 300.628 581.6 301.105C582.316 301.463 583.271 301.642 584.464 301.642C587.089 301.642 589.894 300.747 592.877 298.957C595.98 297.048 599.023 294.721 602.006 291.976C605.109 289.112 608.032 286.248 610.777 283.384C613.641 280.401 616.087 277.776 618.116 275.508L619.548 276.761C617.639 278.79 615.252 281.356 612.388 284.458C609.643 287.442 606.6 290.425 603.259 293.408C600.037 296.272 596.755 298.719 593.414 300.747C590.073 302.657 586.91 303.611 583.927 303.611C582.256 303.611 580.705 303.134 579.273 302.179C577.841 301.225 577.125 299.494 577.125 296.988C577.125 294.721 577.662 292.394 578.736 290.007C579.81 287.501 580.944 285.353 582.137 283.563C583.33 281.654 584.046 280.52 584.285 280.162L585.538 280.699C584.464 282.251 582.734 284.339 580.347 286.964C578.08 289.47 575.395 292.036 572.292 294.661C569.309 297.167 566.146 299.315 562.805 301.105C559.464 302.776 556.182 303.611 552.96 303.611C547.829 303.611 545.263 300.926 545.263 295.556C545.263 293.289 546.218 290.604 548.127 287.501C550.036 284.279 552.483 280.878 555.466 277.298C558.33 273.599 561.313 269.959 564.416 266.379C567.519 262.799 570.263 259.518 572.65 256.534Z" fill="#71717A"/>
<path d="M612.173 306.117C607.996 306.117 604.834 305.342 602.686 303.79C600.538 302.239 599.464 300.151 599.464 297.525C599.464 295.616 600.12 293.945 601.433 292.513C602.626 290.962 604.058 289.769 605.729 288.933C607.399 287.979 608.712 287.501 609.667 287.501C610.979 287.501 611.874 287.8 612.352 288.396C612.71 288.874 612.889 289.411 612.889 290.007C612.889 290.962 612.352 291.738 611.278 292.334C610.084 292.931 609.13 293.229 608.414 293.229C607.578 293.229 606.862 292.991 606.266 292.513C605.55 291.917 605.192 291.618 605.192 291.618C604.595 291.738 603.76 292.394 602.686 293.587C601.612 294.781 601.075 296.093 601.075 297.525C601.075 298.957 601.85 300.33 603.402 301.642C604.953 302.955 607.459 303.611 610.92 303.611C614.5 303.611 617.901 302.418 621.123 300.031C624.464 297.645 627.209 294.602 629.357 290.902C631.505 287.203 632.579 283.444 632.579 279.625C632.579 278.313 632.579 276.582 632.579 274.434C632.579 272.167 632.579 270.317 632.579 268.885C632.579 267.095 632.877 265.067 633.474 262.799C634.07 260.413 634.727 258.205 635.443 256.176C636.278 254.148 636.934 252.895 637.412 252.417C638.366 251.582 639.082 251.343 639.56 251.701C640.037 252.059 640.156 252.417 639.918 252.775C639.798 252.895 639.023 253.849 637.591 255.639C636.159 257.31 634.369 259.398 632.221 261.904C630.073 264.41 627.925 266.916 625.777 269.422C623.629 271.928 621.719 274.136 620.049 276.045C618.497 277.955 617.602 279.088 617.364 279.446C616.767 280.282 616.23 280.461 615.753 279.983C615.275 279.506 615.395 278.909 616.111 278.193C617.423 276.523 619.034 274.554 620.944 272.286C622.972 269.9 625.001 267.573 627.03 265.305C629.058 263.038 630.789 261.129 632.221 259.577C633.772 257.907 634.607 256.952 634.727 256.713C635.085 256.236 635.383 255.401 635.622 254.207C635.98 253.014 636.397 251.88 636.875 250.806C637.471 249.732 638.187 249.195 639.023 249.195C641.051 249.195 642.066 249.911 642.066 251.343C642.066 252.417 641.23 253.73 639.56 255.281C638.008 256.833 637.113 258.086 636.875 259.04C636.517 260.472 636.517 262.501 636.875 265.126C637.352 267.632 637.829 270.496 638.307 273.718C638.903 276.94 639.202 280.341 639.202 283.921C639.202 288.695 638.247 292.573 636.338 295.556C634.428 298.42 632.042 300.628 629.178 302.179C626.314 303.731 623.33 304.745 620.228 305.222C617.244 305.819 614.559 306.117 612.173 306.117ZM639.739 293.766C636.636 293.766 634.607 293.17 633.653 291.976C632.817 290.783 632.519 289.411 632.758 287.859C633.116 286.189 633.533 284.697 634.011 283.384L635.801 283.563C635.443 284.757 635.085 286.01 634.727 287.322C634.488 288.635 634.667 289.769 635.264 290.723C635.86 291.678 637.412 292.155 639.918 292.155C641.708 292.155 643.736 291.32 646.004 289.649C648.271 287.979 650.479 285.95 652.627 283.563C654.894 281.177 656.803 278.85 658.355 276.582L659.966 277.835C658.414 279.745 656.505 281.952 654.238 284.458C652.09 286.964 649.763 289.172 647.257 291.081C644.751 292.871 642.245 293.766 639.739 293.766Z" fill="#71717A"/>
<path d="M92.8649 111.455H102.213L116.462 136.251H117.048L131.297 111.455H140.645L120.857 144.587V166H112.654V144.587L92.8649 111.455Z" stroke="#71717A" stroke-width="2" stroke-linecap="square" mask="url(#path-2-outside-1_47_314)"/>
<path d="M193.014 138.727C193.014 144.551 191.948 149.558 189.818 153.749C187.687 157.921 184.766 161.135 181.055 163.39C177.362 165.627 173.163 166.746 168.457 166.746C163.734 166.746 159.517 165.627 155.807 163.39C152.113 161.135 149.201 157.912 147.071 153.722C144.94 149.532 143.875 144.534 143.875 138.727C143.875 132.904 144.94 127.905 147.071 123.733C149.201 119.542 152.113 116.329 155.807 114.091C159.517 111.836 163.734 110.709 168.457 110.709C173.163 110.709 177.362 111.836 181.055 114.091C184.766 116.329 187.687 119.542 189.818 123.733C191.948 127.905 193.014 132.904 193.014 138.727ZM184.864 138.727C184.864 134.289 184.145 130.551 182.706 127.515C181.286 124.461 179.333 122.153 176.847 120.59C174.379 119.01 171.582 118.22 168.457 118.22C165.315 118.22 162.509 119.01 160.041 120.59C157.573 122.153 155.62 124.461 154.182 127.515C152.761 130.551 152.051 134.289 152.051 138.727C152.051 143.166 152.761 146.913 154.182 149.967C155.62 153.003 157.573 155.311 160.041 156.892C162.509 158.454 165.315 159.235 168.457 159.235C171.582 159.235 174.379 158.454 176.847 156.892C179.333 155.311 181.286 153.003 182.706 149.967C184.145 146.913 184.864 143.166 184.864 138.727Z" stroke="#71717A" stroke-width="2" stroke-linecap="square" mask="url(#path-2-outside-1_47_314)"/>
<path d="M238.35 111.455H246.607V147.33C246.607 151.148 245.71 154.53 243.917 157.477C242.124 160.407 239.602 162.715 236.353 164.402C233.104 166.071 229.295 166.906 224.927 166.906C220.577 166.906 216.777 166.071 213.528 164.402C210.279 162.715 207.757 160.407 205.964 157.477C204.171 154.53 203.274 151.148 203.274 147.33V111.455H211.504V146.664C211.504 149.132 212.045 151.325 213.129 153.243C214.229 155.16 215.783 156.67 217.789 157.77C219.796 158.854 222.175 159.395 224.927 159.395C227.697 159.395 230.085 158.854 232.092 157.77C234.116 156.67 235.661 155.16 236.726 153.243C237.809 151.325 238.35 149.132 238.35 146.664V111.455Z" stroke="#71717A" stroke-width="2" stroke-linecap="square" mask="url(#path-2-outside-1_47_314)"/>
<path d="M258.572 166V111.455H278.014C282.24 111.455 285.747 112.183 288.535 113.639C291.34 115.095 293.435 117.11 294.82 119.684C296.205 122.241 296.898 125.198 296.898 128.553C296.898 131.892 296.196 134.83 294.794 137.369C293.409 139.89 291.313 141.852 288.508 143.255C285.72 144.658 282.214 145.359 277.988 145.359H263.26V138.275H277.242C279.905 138.275 282.072 137.893 283.741 137.129C285.427 136.366 286.661 135.256 287.443 133.8C288.224 132.344 288.615 130.595 288.615 128.553C288.615 126.494 288.215 124.709 287.416 123.2C286.635 121.691 285.401 120.537 283.714 119.738C282.045 118.921 279.852 118.513 277.136 118.513H266.802V166H258.572ZM285.498 141.391L298.975 166H289.6L276.39 141.391H285.498Z" stroke="#71717A" stroke-width="2" stroke-linecap="square" mask="url(#path-2-outside-1_47_314)"/>
<path d="M68.6904 253V185.364H82.9905V241.21H111.987V253H68.6904Z" stroke="#71717A" stroke-width="2" stroke-linecap="square" mask="url(#path-2-outside-1_47_314)"/>
<path d="M180.977 219.182C180.977 226.558 179.579 232.833 176.783 238.007C174.009 243.181 170.222 247.133 165.422 249.863C160.645 252.571 155.272 253.925 149.306 253.925C143.295 253.925 137.901 252.56 133.123 249.83C128.346 247.1 124.57 243.148 121.796 237.974C119.021 232.8 117.634 226.536 117.634 219.182C117.634 211.806 119.021 205.531 121.796 200.357C124.57 195.183 128.346 191.242 133.123 188.534C137.901 185.804 143.295 184.439 149.306 184.439C155.272 184.439 160.645 185.804 165.422 188.534C170.222 191.242 174.009 195.183 176.783 200.357C179.579 205.531 180.977 211.806 180.977 219.182ZM166.479 219.182C166.479 214.404 165.764 210.375 164.332 207.095C162.923 203.814 160.931 201.326 158.355 199.631C155.779 197.936 152.763 197.088 149.306 197.088C145.849 197.088 142.833 197.936 140.257 199.631C137.681 201.326 135.677 203.814 134.246 207.095C132.837 210.375 132.133 214.404 132.133 219.182C132.133 223.96 132.837 227.989 134.246 231.269C135.677 234.55 137.681 237.038 140.257 238.733C142.833 240.428 145.849 241.276 149.306 241.276C152.763 241.276 155.779 240.428 158.355 238.733C160.931 237.038 162.923 234.55 164.332 231.269C165.764 227.989 166.479 223.96 166.479 219.182Z" stroke="#71717A" stroke-width="2" stroke-linecap="square" mask="url(#path-2-outside-1_47_314)"/>
<path d="M236.419 207.227C235.957 205.62 235.307 204.199 234.471 202.966C233.634 201.711 232.61 200.655 231.399 199.796C230.21 198.915 228.845 198.244 227.304 197.781C225.785 197.319 224.1 197.088 222.251 197.088C218.794 197.088 215.756 197.947 213.136 199.664C210.538 201.381 208.512 203.88 207.059 207.161C205.606 210.419 204.88 214.404 204.88 219.116C204.88 223.828 205.595 227.835 207.026 231.137C208.457 234.44 210.483 236.961 213.103 238.7C215.723 240.417 218.816 241.276 222.383 241.276C225.62 241.276 228.383 240.704 230.673 239.559C232.984 238.392 234.746 236.752 235.957 234.638C237.19 232.524 237.806 230.025 237.806 227.141L240.712 227.57H223.275V216.804H251.578V225.325C251.578 231.269 250.323 236.377 247.813 240.649C245.303 244.898 241.846 248.178 237.443 250.49C233.039 252.78 227.998 253.925 222.317 253.925C215.976 253.925 210.406 252.527 205.606 249.731C200.806 246.912 197.064 242.916 194.377 237.742C191.713 232.546 190.381 226.382 190.381 219.248C190.381 213.766 191.174 208.878 192.759 204.585C194.366 200.269 196.612 196.615 199.496 193.62C202.381 190.626 205.738 188.347 209.569 186.784C213.4 185.221 217.55 184.439 222.02 184.439C225.851 184.439 229.418 185.001 232.72 186.123C236.023 187.224 238.951 188.787 241.505 190.813C244.081 192.839 246.184 195.249 247.813 198.046C249.442 200.82 250.488 203.88 250.95 207.227H236.419Z" stroke="#71717A" stroke-width="2" stroke-linecap="square" mask="url(#path-2-outside-1_47_314)"/>
<path d="M324.473 219.182C324.473 226.558 323.075 232.833 320.279 238.007C317.505 243.181 313.718 247.133 308.918 249.863C304.141 252.571 298.769 253.925 292.802 253.925C286.791 253.925 281.397 252.56 276.619 249.83C271.842 247.1 268.066 243.148 265.292 237.974C262.517 232.8 261.13 226.536 261.13 219.182C261.13 211.806 262.517 205.531 265.292 200.357C268.066 195.183 271.842 191.242 276.619 188.534C281.397 185.804 286.791 184.439 292.802 184.439C298.769 184.439 304.141 185.804 308.918 188.534C313.718 191.242 317.505 195.183 320.279 200.357C323.075 205.531 324.473 211.806 324.473 219.182ZM309.975 219.182C309.975 214.404 309.26 210.375 307.829 207.095C306.419 203.814 304.427 201.326 301.851 199.631C299.275 197.936 296.259 197.088 292.802 197.088C289.345 197.088 286.329 197.936 283.753 199.631C281.177 201.326 279.173 203.814 277.742 207.095C276.333 210.375 275.629 214.404 275.629 219.182C275.629 223.96 276.333 227.989 277.742 231.269C279.173 234.55 281.177 237.038 283.753 238.733C286.329 240.428 289.345 241.276 292.802 241.276C296.259 241.276 299.275 240.428 301.851 238.733C304.427 237.038 306.419 234.55 307.829 231.269C309.26 227.989 309.975 223.96 309.975 219.182Z" stroke="#71717A" stroke-width="2" stroke-linecap="square" mask="url(#path-2-outside-1_47_314)"/>
<path d="M104.8 333V278.455H113.03V302.159H140.223V278.455H148.479V333H140.223V309.216H113.03V333H104.8Z" stroke="#71717A" stroke-width="2" stroke-linecap="square" mask="url(#path-2-outside-1_47_314)"/>
<path d="M160.464 333V278.455H194.662V285.539H168.694V302.159H192.877V309.216H168.694V325.916H194.981V333H160.464Z" stroke="#71717A" stroke-width="2" stroke-linecap="square" mask="url(#path-2-outside-1_47_314)"/>
<path d="M205.655 333V278.455H225.097C229.323 278.455 232.83 279.183 235.617 280.639C238.423 282.095 240.518 284.11 241.903 286.684C243.288 289.241 243.98 292.198 243.98 295.553C243.98 298.892 243.279 301.83 241.876 304.369C240.491 306.89 238.396 308.852 235.591 310.255C232.803 311.658 229.296 312.359 225.07 312.359H210.342V305.275H224.325C226.988 305.275 229.154 304.893 230.823 304.129C232.51 303.366 233.744 302.256 234.525 300.8C235.307 299.344 235.697 297.595 235.697 295.553C235.697 293.494 235.298 291.709 234.499 290.2C233.717 288.691 232.483 287.537 230.797 286.738C229.128 285.921 226.935 285.513 224.218 285.513H213.884V333H205.655ZM232.581 308.391L246.058 333H236.683L223.472 308.391H232.581Z" stroke="#71717A" stroke-width="2" stroke-linecap="square" mask="url(#path-2-outside-1_47_314)"/>
<path d="M253.994 333V278.455H288.192V285.539H262.224V302.159H286.407V309.216H262.224V325.916H288.511V333H253.994Z" stroke="#71717A" stroke-width="2" stroke-linecap="square" mask="url(#path-2-outside-1_47_314)"/>
<path d="M443.993 189.959C442.322 189.959 441.069 189.601 440.234 188.885C439.518 188.05 439.16 187.095 439.16 186.021C439.16 184.947 439.578 183.933 440.413 182.978C441.368 181.904 442.621 181.367 444.172 181.367C445.127 181.367 445.962 181.487 446.678 181.725C447.394 181.964 447.752 182.083 447.752 182.083C447.871 180.89 447.573 179.876 446.857 179.04C446.141 178.086 444.769 177.608 442.74 177.608C440.831 177.608 438.504 178.444 435.759 180.114C433.014 181.785 430.15 183.993 427.167 186.737C424.303 189.482 421.558 192.465 418.933 195.687C416.427 198.909 414.399 202.191 412.847 205.532C411.296 208.754 410.52 211.678 410.52 214.303C410.52 217.287 411.475 219.256 413.384 220.21C415.293 221.165 417.382 221.642 419.649 221.642C423.945 221.642 428.181 220.628 432.358 218.599C436.535 216.451 440.353 213.886 443.814 210.902C447.394 207.8 450.437 204.816 452.943 201.952C455.449 199.088 457.239 196.881 458.313 195.329L459.924 196.403C458.969 197.835 457.18 200.043 454.554 203.026C451.929 206.01 448.707 209.112 444.888 212.334C441.189 215.437 437.072 218.122 432.537 220.389C428.003 222.537 423.229 223.611 418.217 223.611C414.16 223.611 410.759 222.716 408.014 220.926C405.15 219.017 403.718 216.093 403.718 212.155C403.718 208.814 404.673 205.115 406.582 201.057C408.491 196.881 411.117 192.943 414.458 189.243C417.919 185.425 421.976 182.322 426.63 179.935C431.403 177.429 436.654 176.176 442.382 176.176C444.65 176.176 446.618 176.654 448.289 177.608C449.96 178.563 450.795 180.234 450.795 182.62C450.795 184.768 450.02 186.558 448.468 187.99C447.036 189.303 445.544 189.959 443.993 189.959Z" stroke="#71717A" stroke-width="2" stroke-linecap="square" mask="url(#path-2-outside-1_47_314)"/>
<path d="M489.184 176.355C495.15 176.355 498.134 179.219 498.134 184.947C498.134 189.363 497.119 193.897 495.091 198.551C493.062 203.086 490.317 207.263 486.857 211.081C483.396 214.781 479.637 217.824 475.58 220.21C471.522 222.478 467.405 223.611 463.229 223.611C460.007 223.611 457.322 222.836 455.174 221.284C452.906 219.614 451.773 216.929 451.773 213.229C451.773 209.769 452.787 205.95 454.816 201.773C456.844 197.477 459.589 193.42 463.05 189.601C466.63 185.783 470.627 182.62 475.043 180.114C479.577 177.608 484.291 176.355 489.184 176.355ZM491.153 178.861C489.124 178.861 486.737 179.756 483.993 181.546C481.248 183.336 478.444 185.663 475.58 188.527C472.716 191.391 470.031 194.494 467.525 197.835C465.138 201.057 463.169 204.22 461.618 207.322C460.186 210.425 459.47 213.05 459.47 215.198C459.47 217.585 460.126 219.256 461.439 220.21C462.751 221.046 464.243 221.463 465.914 221.463C468.658 221.463 471.761 220.33 475.222 218.062C478.682 215.676 482.024 212.692 485.246 209.112C488.468 205.532 491.093 201.773 493.122 197.835C495.27 193.778 496.344 190.079 496.344 186.737C496.344 183.635 495.807 181.546 494.733 180.472C493.659 179.398 492.465 178.861 491.153 178.861ZM494.375 197.298C494.971 197.298 495.21 197.537 495.091 198.014C495.091 198.372 494.792 198.551 494.196 198.551C493.718 198.551 493.002 199.208 492.048 200.52C491.212 201.714 490.437 202.967 489.721 204.279C489.005 205.592 488.647 206.308 488.647 206.427C488.647 209.172 489.661 210.544 491.69 210.544C493.599 210.544 495.747 209.649 498.134 207.859C500.64 206.069 503.026 204.041 505.294 201.773C507.68 199.387 509.59 197.298 511.022 195.508L512.454 196.761C510.902 198.551 508.933 200.699 506.547 203.205C504.16 205.592 501.654 207.74 499.029 209.649C496.403 211.439 493.957 212.334 491.69 212.334C489.78 212.334 488.468 211.917 487.752 211.081C487.036 210.246 486.678 208.754 486.678 206.606C486.678 203.742 487.632 201.475 489.542 199.804C491.57 198.134 493.181 197.298 494.375 197.298Z" stroke="#71717A" stroke-width="2" stroke-linecap="square" mask="url(#path-2-outside-1_47_314)"/>
<path d="M548.602 223.611C542.277 223.611 539.115 221.762 539.115 218.062C539.115 215.676 539.891 213.11 541.442 210.365C543.113 207.621 545.141 204.876 547.528 202.131C549.915 199.267 552.301 196.463 554.688 193.718C557.194 190.974 559.223 188.468 560.774 186.2C562.445 183.814 563.28 181.785 563.28 180.114C563.28 179.518 562.982 179.04 562.385 178.682C561.908 178.205 561.192 177.966 560.237 177.966C558.805 177.966 556.776 178.682 554.151 180.114C551.645 181.546 548.423 183.993 544.485 187.453C540.666 190.795 536.132 195.329 530.881 201.057C525.63 206.666 519.604 213.707 512.802 222.179C511.728 221.941 510.117 221.821 507.969 221.821C505.821 221.821 503.971 222.06 502.42 222.537C505.881 217.525 509.282 212.633 512.623 207.859C515.964 203.086 519.007 198.73 521.752 194.792C524.616 190.854 526.883 187.632 528.554 185.126C530.225 182.501 531.06 180.89 531.06 180.293C531.06 179.219 530.523 178.682 529.449 178.682C528.256 178.682 526.764 179.637 524.974 181.546C523.184 183.336 521.215 185.663 519.067 188.527C516.919 191.272 514.711 194.076 512.444 196.94L510.833 195.866C513.22 193.122 515.547 190.258 517.814 187.274C520.081 184.291 522.408 181.725 524.795 179.577C527.182 177.429 529.688 176.355 532.313 176.355C533.626 176.355 534.819 176.713 535.893 177.429C537.086 178.026 537.683 179.04 537.683 180.472C537.683 181.785 537.146 183.396 536.072 185.305C535.117 187.095 533.805 189.184 532.134 191.57C530.463 193.838 528.554 196.403 526.406 199.267C524.377 202.012 522.229 204.995 519.962 208.217L520.141 209.291C526.466 202.37 531.776 196.761 536.072 192.465C540.487 188.169 544.127 184.888 546.991 182.62C549.974 180.234 552.54 178.623 554.688 177.787C556.955 176.833 559.103 176.355 561.132 176.355C563.877 176.355 565.846 176.952 567.039 178.145C568.232 179.219 568.829 180.711 568.829 182.62C568.829 185.484 567.994 188.527 566.323 191.749C564.652 194.852 562.564 197.955 560.058 201.057C557.671 204.041 555.225 206.845 552.719 209.47C550.332 211.976 548.304 214.124 546.633 215.914C544.962 217.704 544.127 218.898 544.127 219.494C544.127 220.21 544.306 220.747 544.664 221.105C545.141 221.463 546.275 221.642 548.065 221.642C552.48 221.642 556.657 220.27 560.595 217.525C564.652 214.781 568.531 211.439 572.23 207.501C575.929 203.444 579.39 199.446 582.612 195.508L584.044 196.761C580.822 200.58 577.302 204.578 573.483 208.754C569.664 212.931 565.667 216.451 561.49 219.315C557.313 222.179 553.017 223.611 548.602 223.611Z" stroke="#71717A" stroke-width="2" stroke-linecap="square" mask="url(#path-2-outside-1_47_314)"/>
<path d="M618.307 144.672C619.381 145.15 620.932 145.388 622.961 145.388C625.109 145.269 626.78 145.09 627.973 144.851C624.154 150.102 619.918 155.89 615.264 162.214C610.61 168.539 605.896 174.864 601.123 181.188C596.469 187.394 592.113 193.241 588.056 198.73C584.118 204.1 580.956 208.635 578.569 212.334C576.182 216.034 574.989 218.361 574.989 219.315C574.989 220.031 575.407 220.568 576.242 220.926C576.958 221.284 577.913 221.463 579.106 221.463C581.731 221.463 584.595 220.568 587.698 218.778C590.92 216.869 594.082 214.542 597.185 211.797C600.407 208.933 603.331 206.069 605.956 203.205C608.701 200.222 610.849 197.656 612.4 195.508L613.832 196.582C612.161 198.73 609.954 201.296 607.209 204.279C604.464 207.263 601.421 210.246 598.08 213.229C594.739 216.213 591.278 218.719 587.698 220.747C584.237 222.657 580.896 223.611 577.674 223.611C575.407 223.611 573.617 223.134 572.304 222.179C570.872 221.344 570.156 219.852 570.156 217.704C570.156 215.795 571.29 212.871 573.557 208.933C575.824 204.876 578.748 200.222 582.328 194.971C586.027 189.721 590.025 184.172 594.321 178.324C598.617 172.358 602.853 166.51 607.03 160.782C611.326 154.935 615.085 149.565 618.307 144.672ZM598.617 164.72C597.424 164.72 596.827 164.362 596.827 163.646C596.827 163.05 597.424 162.751 598.617 162.751H632.627C632.985 162.751 633.343 162.811 633.701 162.93C634.178 163.05 634.417 163.288 634.417 163.646C634.417 164.124 634.178 164.422 633.701 164.541C633.343 164.661 632.985 164.72 632.627 164.72H598.617Z" stroke="#71717A" stroke-width="2" stroke-linecap="square" mask="url(#path-2-outside-1_47_314)"/>
<path d="M651.067 190.675C650.589 191.63 649.873 192.465 648.919 193.181C648.083 193.897 647.427 194.375 646.95 194.613C646.592 194.733 646.711 194.375 647.308 193.539C649.456 190.914 650.828 188.468 651.425 186.2C652.141 183.933 652.141 182.143 651.425 180.83C650.828 179.398 649.635 178.682 647.845 178.682C645.458 178.682 642.654 179.637 639.432 181.546C636.21 183.456 632.868 185.962 629.408 189.064C626.066 192.167 622.904 195.508 619.921 199.088C617.057 202.549 614.73 205.95 612.94 209.291C611.15 212.513 610.255 215.318 610.255 217.704C610.255 219.494 610.613 220.628 611.329 221.105C612.045 221.583 612.761 221.821 613.477 221.821C616.221 221.821 619.384 220.568 622.964 218.062C626.663 215.437 630.422 212.155 634.241 208.217C638.059 204.279 641.699 200.282 645.16 196.224C648.62 192.048 651.604 188.289 654.11 184.947C656.735 181.606 658.525 179.339 659.48 178.145C660.792 178.623 662.344 178.802 664.134 178.682C666.043 178.563 667.654 178.444 668.967 178.324C668.728 178.682 667.475 180.174 665.208 182.799C663.06 185.425 660.434 188.587 657.332 192.286C654.348 195.866 651.305 199.566 648.203 203.384C645.219 207.203 642.713 210.544 640.685 213.408C638.656 216.272 637.642 218.182 637.642 219.136C637.642 220.33 637.88 221.105 638.358 221.463C638.954 221.702 639.849 221.821 641.043 221.821C642.475 221.702 644.563 221.046 647.308 219.852C650.052 218.54 653.573 216.034 657.869 212.334C662.165 208.635 667.356 203.146 673.442 195.866C673.442 195.866 673.68 196.045 674.158 196.403C674.754 196.761 675.053 196.94 675.053 196.94C667.893 205.294 661.27 211.857 655.184 216.63C649.098 221.284 643.549 223.611 638.537 223.611C635.911 223.611 634.121 223.194 633.167 222.358C632.331 221.523 631.914 220.33 631.914 218.778C631.914 217.585 632.391 216.153 633.346 214.482C634.42 212.692 635.613 210.962 636.926 209.291C638.238 207.621 639.312 206.308 640.148 205.353C640.148 205.353 640.028 205.294 639.79 205.174C639.551 205.055 639.432 204.995 639.432 204.995C636.687 208.337 633.763 211.439 630.661 214.303C627.558 217.167 624.455 219.435 621.353 221.105C618.369 222.776 615.446 223.611 612.582 223.611C609.598 223.611 607.51 222.895 606.317 221.463C605.123 219.912 604.527 217.585 604.527 214.482C604.527 211.499 605.481 207.919 607.391 203.742C609.3 199.446 612.045 195.27 615.625 191.212C619.205 187.036 623.501 183.575 628.513 180.83C633.644 178.086 639.372 176.713 645.697 176.713C648.799 176.713 650.947 177.31 652.141 178.503C653.334 179.577 653.871 180.89 653.752 182.441C653.632 183.993 653.274 185.544 652.678 187.095C652.081 188.647 651.544 189.84 651.067 190.675Z" stroke="#71717A" stroke-width="2" stroke-linecap="square" mask="url(#path-2-outside-1_47_314)"/>
<path d="M707.948 189.959C706.278 189.959 705.025 189.601 704.189 188.885C703.473 188.05 703.115 187.095 703.115 186.021C703.115 184.947 703.533 183.933 704.368 182.978C705.323 181.904 706.576 181.367 708.127 181.367C709.082 181.367 709.917 181.487 710.633 181.725C711.349 181.964 711.707 182.083 711.707 182.083C711.827 180.89 711.528 179.876 710.812 179.04C710.096 178.086 708.724 177.608 706.695 177.608C704.786 177.608 702.459 178.444 699.714 180.114C696.97 181.785 694.106 183.993 691.122 186.737C688.258 189.482 685.514 192.465 682.888 195.687C680.382 198.909 678.354 202.191 676.802 205.532C675.251 208.754 674.475 211.678 674.475 214.303C674.475 217.287 675.43 219.256 677.339 220.21C679.249 221.165 681.337 221.642 683.604 221.642C687.9 221.642 692.137 220.628 696.313 218.599C700.49 216.451 704.309 213.886 707.769 210.902C711.349 207.8 714.392 204.816 716.898 201.952C719.404 199.088 721.194 196.881 722.268 195.329L723.879 196.403C722.925 197.835 721.135 200.043 718.509 203.026C715.884 206.01 712.662 209.112 708.843 212.334C705.144 215.437 701.027 218.122 696.492 220.389C691.958 222.537 687.184 223.611 682.172 223.611C678.115 223.611 674.714 222.716 671.969 220.926C669.105 219.017 667.673 216.093 667.673 212.155C667.673 208.814 668.628 205.115 670.537 201.057C672.447 196.881 675.072 192.943 678.413 189.243C681.874 185.425 685.931 182.322 690.585 179.935C695.359 177.429 700.609 176.176 706.337 176.176C708.605 176.176 710.574 176.654 712.244 177.608C713.915 178.563 714.75 180.234 714.75 182.62C714.75 184.768 713.975 186.558 712.423 187.99C710.991 189.303 709.5 189.959 707.948 189.959Z" stroke="#71717A" stroke-width="2" stroke-linecap="square" mask="url(#path-2-outside-1_47_314)"/>
<path d="M758.151 144.672C759.225 145.15 760.776 145.388 762.805 145.388C764.953 145.269 766.623 145.09 767.817 144.851C763.998 150.102 759.762 155.89 755.108 162.214C750.454 168.539 745.74 174.864 740.967 181.188C736.313 187.394 731.957 193.241 727.9 198.73C723.962 204.1 720.799 208.635 718.413 212.334C716.026 216.034 714.833 218.361 714.833 219.315C714.833 220.031 715.25 220.568 716.086 220.926C716.802 221.284 717.756 221.463 718.95 221.463C721.575 221.463 724.439 220.568 727.542 218.778C730.764 216.869 733.926 214.542 737.029 211.797C740.251 208.933 743.174 206.069 745.8 203.205C748.544 200.222 750.692 197.656 752.244 195.508L753.676 196.582C752.005 198.73 749.797 201.296 747.053 204.279C744.308 207.263 741.265 210.246 737.924 213.229C734.582 216.213 731.122 218.719 727.542 220.747C724.081 222.657 720.74 223.611 717.518 223.611C715.25 223.611 713.46 223.134 712.148 222.179C710.716 221.344 710 219.852 710 217.704C710 215.795 711.133 212.871 713.401 208.933C715.668 204.876 718.592 200.222 722.172 194.971C725.871 189.721 729.869 184.172 734.165 178.324C738.461 172.358 742.697 166.51 746.874 160.782C751.17 154.935 754.929 149.565 758.151 144.672ZM738.461 164.72C737.267 164.72 736.671 164.362 736.671 163.646C736.671 163.05 737.267 162.751 738.461 162.751H772.471C772.829 162.751 773.187 162.811 773.545 162.93C774.022 163.05 774.261 163.288 774.261 163.646C774.261 164.124 774.022 164.422 773.545 164.541C773.187 164.661 772.829 164.72 772.471 164.72H738.461Z" stroke="#71717A" stroke-width="2" stroke-linecap="square" mask="url(#path-2-outside-1_47_314)"/>
<path d="M572.65 256.534C573.724 257.012 575.335 257.25 577.483 257.25C579.75 257.25 581.66 257.131 583.211 256.892C580.228 260.472 576.886 264.351 573.187 268.527C569.488 272.585 565.967 276.642 562.626 280.699C559.285 284.757 556.54 288.396 554.392 291.618C552.125 294.84 550.991 297.346 550.991 299.136C550.991 300.33 551.349 301.105 552.065 301.463C552.662 301.821 553.437 302 554.392 302C557.256 302 560.418 300.867 563.879 298.599C567.459 296.332 571.099 293.408 574.798 289.828C578.617 286.129 582.316 282.191 585.896 278.014C589.476 273.838 592.758 269.9 595.741 266.2C598.844 262.382 601.469 259.219 603.617 256.713C604.81 257.071 606.481 257.25 608.629 257.25C610.777 257.25 612.627 257.131 614.178 256.892C611.075 260.83 607.615 265.007 603.796 269.422C599.977 273.718 596.278 277.895 592.698 281.952C589.237 285.89 586.373 289.411 584.106 292.513C581.839 295.497 580.705 297.764 580.705 299.315C580.705 300.031 581.003 300.628 581.6 301.105C582.316 301.463 583.271 301.642 584.464 301.642C587.089 301.642 589.894 300.747 592.877 298.957C595.98 297.048 599.023 294.721 602.006 291.976C605.109 289.112 608.032 286.248 610.777 283.384C613.641 280.401 616.087 277.776 618.116 275.508L619.548 276.761C617.639 278.79 615.252 281.356 612.388 284.458C609.643 287.442 606.6 290.425 603.259 293.408C600.037 296.272 596.755 298.719 593.414 300.747C590.073 302.657 586.91 303.611 583.927 303.611C582.256 303.611 580.705 303.134 579.273 302.179C577.841 301.225 577.125 299.494 577.125 296.988C577.125 294.721 577.662 292.394 578.736 290.007C579.81 287.501 580.944 285.353 582.137 283.563C583.33 281.654 584.046 280.52 584.285 280.162L585.538 280.699C584.464 282.251 582.734 284.339 580.347 286.964C578.08 289.47 575.395 292.036 572.292 294.661C569.309 297.167 566.146 299.315 562.805 301.105C559.464 302.776 556.182 303.611 552.96 303.611C547.829 303.611 545.263 300.926 545.263 295.556C545.263 293.289 546.218 290.604 548.127 287.501C550.036 284.279 552.483 280.878 555.466 277.298C558.33 273.599 561.313 269.959 564.416 266.379C567.519 262.799 570.263 259.518 572.65 256.534Z" stroke="#71717A" stroke-width="2" stroke-linecap="square" mask="url(#path-2-outside-1_47_314)"/>
<path d="M612.173 306.117C607.996 306.117 604.834 305.342 602.686 303.79C600.538 302.239 599.464 300.151 599.464 297.525C599.464 295.616 600.12 293.945 601.433 292.513C602.626 290.962 604.058 289.769 605.729 288.933C607.399 287.979 608.712 287.501 609.667 287.501C610.979 287.501 611.874 287.8 612.352 288.396C612.71 288.874 612.889 289.411 612.889 290.007C612.889 290.962 612.352 291.738 611.278 292.334C610.084 292.931 609.13 293.229 608.414 293.229C607.578 293.229 606.862 292.991 606.266 292.513C605.55 291.917 605.192 291.618 605.192 291.618C604.595 291.738 603.76 292.394 602.686 293.587C601.612 294.781 601.075 296.093 601.075 297.525C601.075 298.957 601.85 300.33 603.402 301.642C604.953 302.955 607.459 303.611 610.92 303.611C614.5 303.611 617.901 302.418 621.123 300.031C624.464 297.645 627.209 294.602 629.357 290.902C631.505 287.203 632.579 283.444 632.579 279.625C632.579 278.313 632.579 276.582 632.579 274.434C632.579 272.167 632.579 270.317 632.579 268.885C632.579 267.095 632.877 265.067 633.474 262.799C634.07 260.413 634.727 258.205 635.443 256.176C636.278 254.148 636.934 252.895 637.412 252.417C638.366 251.582 639.082 251.343 639.56 251.701C640.037 252.059 640.156 252.417 639.918 252.775C639.798 252.895 639.023 253.849 637.591 255.639C636.159 257.31 634.369 259.398 632.221 261.904C630.073 264.41 627.925 266.916 625.777 269.422C623.629 271.928 621.719 274.136 620.049 276.045C618.497 277.955 617.602 279.088 617.364 279.446C616.767 280.282 616.23 280.461 615.753 279.983C615.275 279.506 615.395 278.909 616.111 278.193C617.423 276.523 619.034 274.554 620.944 272.286C622.972 269.9 625.001 267.573 627.03 265.305C629.058 263.038 630.789 261.129 632.221 259.577C633.772 257.907 634.607 256.952 634.727 256.713C635.085 256.236 635.383 255.401 635.622 254.207C635.98 253.014 636.397 251.88 636.875 250.806C637.471 249.732 638.187 249.195 639.023 249.195C641.051 249.195 642.066 249.911 642.066 251.343C642.066 252.417 641.23 253.73 639.56 255.281C638.008 256.833 637.113 258.086 636.875 259.04C636.517 260.472 636.517 262.501 636.875 265.126C637.352 267.632 637.829 270.496 638.307 273.718C638.903 276.94 639.202 280.341 639.202 283.921C639.202 288.695 638.247 292.573 636.338 295.556C634.428 298.42 632.042 300.628 629.178 302.179C626.314 303.731 623.33 304.745 620.228 305.222C617.244 305.819 614.559 306.117 612.173 306.117ZM639.739 293.766C636.636 293.766 634.607 293.17 633.653 291.976C632.817 290.783 632.519 289.411 632.758 287.859C633.116 286.189 633.533 284.697 634.011 283.384L635.801 283.563C635.443 284.757 635.085 286.01 634.727 287.322C634.488 288.635 634.667 289.769 635.264 290.723C635.86 291.678 637.412 292.155 639.918 292.155C641.708 292.155 643.736 291.32 646.004 289.649C648.271 287.979 650.479 285.95 652.627 283.563C654.894 281.177 656.803 278.85 658.355 276.582L659.966 277.835C658.414 279.745 656.505 281.952 654.238 284.458C652.09 286.964 649.763 289.172 647.257 291.081C644.751 292.871 642.245 293.766 639.739 293.766Z" stroke="#71717A" stroke-width="2" stroke-linecap="square" mask="url(#path-2-outside-1_47_314)"/>
</svg>
