<svg version="1.1" xmlns="http://www.w3.org/2000/svg" xmlns:xlink="http://www.w3.org/1999/xlink" x="0px" y="0px"
    viewBox="0 0 180 125.8" enable-background="new 0 0 180 125.8" xml:space="preserve"
    class="el-image uk-text-primary uk-svg" width="575"
    data-svg="https://www.tbdgroup.com/wp-content/uploads/2021/01/TBDGroup_logo_rouge.svg">
    <g>
        <path fill="#fff" d="M62.4,0C27.7,0.3-0.3,28.8,0,63.5c0.3,34.7,28.8,62.7,63.5,62.4c6.1-0.1,11.8-1,17.4-2.7l-0.4-1.2
		c-5.4,1.6-11.1,2.5-17,2.6c-34,0.3-61.9-27.1-62.2-61.1C1,29.5,28.4,1.6,62.4,1.3c34-0.3,61.9,27.1,62.2,61.1
		c0.1,7.2-1.1,14-3.3,20.4l1.2,0.4c2.2-6.5,3.4-13.6,3.4-20.9C125.5,27.7,97.1-0.3,62.4,0z"></path>
        <path fill="#fff" d="M56,58.7h0.8l3-3h-6V45L40.2,58.6h3.5l0.1,15.5l8.3,8.3c0.4,0.4,1,0.6,1.5,0.6h2.7l3-3H56
		c-1.2,0-2.2-1-2.2-2.2V60.9C53.8,59.7,54.8,58.7,56,58.7z"></path>
        <path fill="#fff" d="M89.4,58.3C89.2,45,78,34.4,64.7,34.4h-29l2.9,2.9h3.1c1.2,0,2.2,1,2.2,2.2V49l10-10v-1.7h11.9h0.2
		c5.2,0,9.4,3.7,9.4,9.4c0,5.2-4.3,8.8-10,8.8v2.7l4.2-0.1c5.8,0,10.4,4.7,10.4,10.4c0,4.1-2.4,7.4-5.7,9.3
		c-2.8,1.7-9.1,2.1-9.1,2.1l-3,3l3-0.1C78.7,83,89.7,71.9,89.4,58.3z"></path>
        <path fill="#fff" d="M38.7,81.3l1.8,1.8h6.7l-4.4-4.4C41.2,81,38.7,81.3,38.7,81.3z"></path>
        <path fill="#fff" d="M69.7,97.3c0.4,0,0.8,0,1,0.1c0.3,0.1,0.5,0.2,0.7,0.4c0.2,0.2,0.4,0.4,0.5,0.6c0.2,0.3,0.3,0.6,0.5,0.9
		c0,0.1,0.1,0.1,0.1,0.1c0.1,0,0.1,0,0.2,0c0.1,0,0.2,0,0.2,0c0.1,0,0.1-0.1,0.2-0.1c-0.2-0.5-0.3-0.9-0.3-1.3
		c-0.1-0.4-0.1-0.7-0.2-1c-0.1-0.3-0.1-0.5-0.2-0.6c-0.1-0.1-0.2-0.2-0.3-0.2c-0.1,0-0.3,0-0.4,0c-0.2,0-0.4,0-0.6,0
		c-0.2,0-0.4,0-0.6,0c-0.2,0-0.4,0-0.6,0h-6.9c-0.2,0-0.4,0-0.6,0c-0.2,0-0.4,0-0.6,0c-0.2,0-0.4,0-0.6,0c-0.2,0-0.3,0-0.4,0
		c-0.1,0-0.2,0.1-0.3,0.2c-0.1,0.1-0.1,0.3-0.2,0.6c-0.1,0.3-0.1,0.6-0.2,1c-0.1,0.4-0.2,0.8-0.3,1.3c0.1,0.1,0.2,0.1,0.4,0.1
		c0.1,0,0.1,0,0.2,0c0.1,0,0.1-0.1,0.1-0.1c0.2-0.3,0.3-0.6,0.5-0.9c0.2-0.3,0.3-0.5,0.5-0.6c0.2-0.2,0.4-0.3,0.7-0.4
		c0.3-0.1,0.6-0.1,1-0.1h2.1v11c0,0.3-0.1,0.5-0.4,0.7c-0.3,0.1-0.7,0.2-1.3,0.3c-0.1,0-0.2,0.1-0.2,0.3c0,0.1,0,0.2,0,0.4
		c0.4,0,0.9-0.1,1.4-0.1c0.5,0,1,0,1.5,0c0.5,0,1,0,1.5,0c0.5,0,1,0,1.4,0.1c0-0.1,0-0.3,0-0.4c0-0.2-0.1-0.3-0.2-0.3
		c-0.6-0.1-1.1-0.2-1.3-0.3c-0.3-0.1-0.4-0.4-0.4-0.7v-11H69.7z"></path>
        <path fill="#fff" d="M84.7,103.6c-0.4-0.3-0.8-0.5-1.2-0.6c-0.4-0.1-0.9-0.2-1.3-0.3v-0.1c0.4-0.1,0.7-0.3,1-0.5
		c0.3-0.2,0.6-0.4,0.8-0.7c0.2-0.3,0.4-0.5,0.5-0.8c0.1-0.3,0.2-0.6,0.2-0.9c0-0.4-0.1-0.8-0.2-1.2c-0.2-0.4-0.4-0.7-0.8-1
		c-0.3-0.3-0.8-0.5-1.3-0.7c-0.5-0.2-1.2-0.3-2-0.3h-2.5c-0.3,0-0.7,0-1.2,0c-0.5,0-0.9,0-1.3-0.1c0,0,0,0.1,0,0.1c0,0,0,0.1,0,0.2
		c0,0.2,0.1,0.4,0.2,0.4c0.3,0.1,0.5,0.1,0.7,0.2c0.2,0,0.3,0.1,0.4,0.2c0.1,0.1,0.2,0.1,0.2,0.2c0,0.1,0.1,0.2,0.1,0.3v10.5
		c0,0.3-0.1,0.5-0.3,0.6c-0.2,0.1-0.6,0.2-1.1,0.3c-0.2,0-0.2,0.1-0.2,0.3c0,0,0,0.1,0,0.1s0,0.1,0,0.1c0,0.1,0,0.1,0,0.1
		c0.3,0,0.6,0,0.9,0c0.3,0,0.5,0,0.8,0c0.3,0,0.6,0,0.8,0h3.3c0.7,0,1.4-0.1,2-0.3c0.6-0.2,1.1-0.4,1.5-0.8c0.4-0.3,0.7-0.7,1-1.2
		c0.2-0.5,0.3-1,0.3-1.6c0-0.5-0.1-1-0.3-1.4C85.3,104.2,85,103.9,84.7,103.6z M78.8,97.3h0.3c1.2,0,2.1,0.2,2.6,0.6
		c0.5,0.4,0.8,1,0.8,1.9c0,0.9-0.3,1.6-0.8,2c-0.5,0.4-1.4,0.6-2.6,0.6h-0.3V97.3z M83.5,107.6c-0.2,0.4-0.4,0.6-0.7,0.8
		c-0.3,0.2-0.7,0.4-1.1,0.4c-0.4,0.1-0.9,0.1-1.4,0.1c-0.2,0-0.3,0-0.5,0c-0.2,0-0.3-0.1-0.5-0.1c-0.1-0.1-0.3-0.1-0.4-0.2
		c-0.1-0.1-0.1-0.2-0.1-0.4v-5h1.1c1.2,0,2.1,0.3,2.8,0.8c0.7,0.5,1,1.3,1,2.2C83.7,106.8,83.6,107.3,83.5,107.6z"></path>
        <path fill="#fff" d="M100.6,98.4c-0.6-0.6-1.3-1.1-2.2-1.4c-0.9-0.4-1.9-0.5-3-0.5h-4.2c-0.2,0-0.4,0-0.6,0c-0.2,0-0.4,0-0.6,0
		c-0.2,0-0.4,0-0.6,0c-0.2,0-0.5,0-0.8-0.1c0,0.1,0,0.2,0,0.3c0,0.1,0,0.2,0.1,0.2c0,0.1,0.1,0.1,0.2,0.1c0.5,0.1,0.9,0.2,1.1,0.3
		c0.2,0.1,0.3,0.3,0.3,0.6v10.5c0,0.2-0.1,0.4-0.3,0.5c-0.2,0.1-0.6,0.2-1.1,0.4c-0.2,0-0.2,0.1-0.2,0.3c0,0.1,0,0.2,0,0.3
		c0.4,0,0.9-0.1,1.3-0.1s0.9,0,1.2,0h4.2c1.2,0,2.2-0.2,3.1-0.6c0.9-0.4,1.6-0.9,2.2-1.5c0.6-0.6,1-1.4,1.3-2.2
		c0.3-0.8,0.4-1.6,0.4-2.4c0-0.9-0.1-1.8-0.4-2.6C101.6,99.7,101.1,99,100.6,98.4z M99.8,105.8c-0.2,0.7-0.5,1.2-1,1.7
		c-0.5,0.5-1,0.8-1.8,1.1c-0.7,0.3-1.6,0.4-2.7,0.4c-0.4,0-0.8,0-1.1,0c-0.3,0-0.5-0.1-0.7-0.1c-0.2-0.1-0.3-0.1-0.4-0.2
		c-0.1-0.1-0.1-0.2-0.1-0.4v-11H94c2,0,3.6,0.5,4.6,1.5c1.1,1,1.6,2.6,1.6,4.7C100.1,104.4,100,105.1,99.8,105.8z"></path>
        <path fill="#fff" d="M117.2,104.3h4.6c-0.2,1-0.7,1.8-1.4,2.4c-0.7,0.6-1.5,0.9-2.5,0.9c-1.3,0-2.4-0.4-3.1-1.2
		c-0.8-0.8-1.1-1.9-1.1-3.3c0-0.9,0.2-1.7,0.5-2.3c0.3-0.7,0.8-1.2,1.4-1.5c0.6-0.4,1.3-0.5,2.1-0.5c0.8,0,1.5,0.2,2.1,0.5
		c0.6,0.4,1,0.9,1.3,1.5h2.8c-0.3-1.4-1-2.5-2.1-3.3c-1.1-0.8-2.5-1.2-4.1-1.2c-1.3,0-2.5,0.3-3.5,0.9c-1,0.6-1.8,1.4-2.4,2.5
		c-0.6,1-0.8,2.2-0.8,3.6c0,1.3,0.3,2.5,0.8,3.6c0.6,1,1.3,1.9,2.4,2.4c1,0.6,2.2,0.9,3.5,0.9c1.2,0,2.2-0.2,3.1-0.7
		c0.9-0.5,1.6-1.1,2.2-1.8c0.6-0.8,0.9-1.6,1.1-2.5v-2.6h-6.9V104.3z"></path>
        <path fill="#fff" d="M136.3,103c0.6-0.7,0.9-1.6,0.9-2.6c0-1.3-0.4-2.3-1.2-3c-0.8-0.8-2-1.2-3.6-1.2h-5.2v13.6h2.7v-5.3h1.2
		l3.2,5.3h3l-3.4-5.4C134.9,104.2,135.7,103.7,136.3,103z M132,102.7h-2.2v-4.1h2.2c0.8,0,1.4,0.2,1.8,0.5c0.4,0.4,0.6,0.9,0.6,1.5
		C134.4,102,133.6,102.7,132,102.7z"></path>
        <path fill="#fff" d="M149.7,96.9c-1-0.6-2.2-0.9-3.5-0.9s-2.4,0.3-3.5,0.9c-1,0.6-1.8,1.4-2.4,2.5c-0.6,1.1-0.9,2.3-0.9,3.6
		c0,1.3,0.3,2.5,0.9,3.6c0.6,1.1,1.4,1.9,2.4,2.5c1,0.6,2.2,0.9,3.5,0.9s2.4-0.3,3.5-0.9c1-0.6,1.8-1.4,2.4-2.5
		c0.6-1.1,0.9-2.3,0.9-3.6c0-1.3-0.3-2.5-0.9-3.6C151.6,98.4,150.8,97.5,149.7,96.9z M149.8,105.4c-0.3,0.7-0.8,1.2-1.4,1.6
		c-0.6,0.4-1.3,0.5-2.1,0.5c-0.8,0-1.5-0.2-2.1-0.5c-0.6-0.4-1.1-0.9-1.4-1.6c-0.3-0.7-0.5-1.5-0.5-2.4c0-0.9,0.2-1.7,0.5-2.4
		c0.3-0.7,0.8-1.2,1.4-1.5c0.6-0.4,1.3-0.5,2.1-0.5c0.8,0,1.5,0.2,2.1,0.5c0.6,0.4,1.1,0.9,1.4,1.5c0.3,0.7,0.5,1.5,0.5,2.4
		C150.3,103.9,150.1,104.7,149.8,105.4z"></path>
        <path fill="#fff" d="M164.2,104.2c0,1.1-0.2,1.9-0.7,2.4c-0.5,0.5-1.1,0.8-2,0.8c-0.9,0-1.6-0.3-2-0.8c-0.5-0.5-0.7-1.3-0.7-2.4
		v-8H156v8c0,1.9,0.5,3.3,1.5,4.3c1,1,2.3,1.5,3.9,1.5c1.1,0,2-0.2,2.8-0.6c0.8-0.4,1.5-1.1,1.9-1.9c0.5-0.9,0.7-1.9,0.7-3.2v-8
		h-2.7V104.2z"></path>
        <path fill="#fff" d="M178.8,97.4c-0.8-0.8-2-1.2-3.6-1.2h-4.9v13.6h2.7v-5h2.2c1.6,0,2.8-0.4,3.6-1.2c0.8-0.8,1.3-1.8,1.3-3.1
		C180,99.2,179.6,98.2,178.8,97.4z M174.9,102.6h-1.9v-4.2h1.9c0.8,0,1.5,0.2,1.8,0.5c0.4,0.4,0.6,0.9,0.6,1.6
		C177.2,101.9,176.5,102.6,174.9,102.6z"></path>
    </g>
</svg>