<svg width="824" height="313" viewBox="0 0 824 313" fill="none" xmlns="http://www.w3.org/2000/svg">
    <g clip-path="url(#clip0_502_7173)">
        <path d="M215 173.5H309.13" stroke="currentColor" stroke-miterlimit="10" />
        <path d="M314.38 173.5L307.38 177L309.13 173.5L307.38 170L314.38 173.5Z" fill="currentColor"
            stroke="currentColor" stroke-miterlimit="10" />
        <path
            d="M207.5 148.5H7.5C3.35786 148.5 0 151.858 0 156V191C0 195.142 3.35786 198.5 7.5 198.5H207.5C211.642 198.5 215 195.142 215 191V156C215 151.858 211.642 148.5 207.5 148.5Z"
            fill="#F1F2F3" />
        <path d="M490 173.5H530.5V63.5H564.13" stroke="currentColor" stroke-miterlimit="10" />
        <path d="M569.38 63.5L562.38 67L564.13 63.5L562.38 60L569.38 63.5Z" fill="currentColor" stroke="currentColor"
            stroke-miterlimit="10" />
        <path d="M490 173.5H530.5V138.5H564.13" stroke="currentColor" stroke-miterlimit="10" />
        <path d="M569.38 138.5L562.38 142L564.13 138.5L562.38 135L569.38 138.5Z" fill="currentColor"
            stroke="currentColor" stroke-miterlimit="10" />
        <path d="M490 173.5H530.5V213.5H564.13" stroke="currentColor" stroke-miterlimit="10" />
        <path d="M569.38 213.5L562.38 217L564.13 213.5L562.38 210L569.38 213.5Z" fill="currentColor"
            stroke="currentColor" stroke-miterlimit="10" />
        <path d="M490 173H530.429V288H564" stroke="currentColor" stroke-miterlimit="10" />
        <path d="M569 288L562 292L563.75 288L562 284L569 288Z" fill="currentColor" stroke="currentColor"
            stroke-miterlimit="10" />
        <path
            d="M479.5 138.5H325.5C319.701 138.5 315 143.201 315 149V198C315 203.799 319.701 208.5 325.5 208.5H479.5C485.299 208.5 490 203.799 490 198V149C490 143.201 485.299 138.5 479.5 138.5Z"
            fill="#F1F2F3" />
        <path
            d="M24.3984 175.477V172.727L35.3984 167.883V171.047L27.8672 174.07L27.9688 173.906V174.297L27.8672 174.133L35.3984 177.156V180.32L24.3984 175.477ZM52.8828 171.602H49.4609C49.3984 171.159 49.2708 170.766 49.0781 170.422C48.8854 170.073 48.638 169.776 48.3359 169.531C48.0339 169.286 47.6849 169.099 47.2891 168.969C46.8984 168.839 46.474 168.773 46.0156 168.773C45.1875 168.773 44.4661 168.979 43.8516 169.391C43.237 169.797 42.7604 170.391 42.4219 171.172C42.0833 171.948 41.9141 172.891 41.9141 174C41.9141 175.141 42.0833 176.099 42.4219 176.875C42.7656 177.651 43.2448 178.237 43.8594 178.633C44.474 179.029 45.1849 179.227 45.9922 179.227C46.4453 179.227 46.8646 179.167 47.25 179.047C47.6406 178.927 47.987 178.753 48.2891 178.523C48.5911 178.289 48.8411 178.005 49.0391 177.672C49.2422 177.339 49.3828 176.958 49.4609 176.531L52.8828 176.547C52.7943 177.281 52.5729 177.99 52.2188 178.672C51.8698 179.349 51.3984 179.956 50.8047 180.492C50.2161 181.023 49.513 181.445 48.6953 181.758C47.8828 182.065 46.9635 182.219 45.9375 182.219C44.5104 182.219 43.2344 181.896 42.1094 181.25C40.9896 180.604 40.1042 179.669 39.4531 178.445C38.8073 177.221 38.4844 175.74 38.4844 174C38.4844 172.255 38.8125 170.771 39.4688 169.547C40.125 168.323 41.0156 167.391 42.1406 166.75C43.2656 166.104 44.5313 165.781 45.9375 165.781C46.8646 165.781 47.724 165.911 48.5156 166.172C49.3125 166.432 50.0182 166.812 50.6328 167.312C51.2474 167.807 51.7474 168.414 52.1328 169.133C52.5234 169.852 52.7734 170.674 52.8828 171.602ZM60.668 182.234C59.4544 182.234 58.4049 181.977 57.5195 181.461C56.6393 180.94 55.9596 180.216 55.4805 179.289C55.0013 178.357 54.7617 177.276 54.7617 176.047C54.7617 174.807 55.0013 173.724 55.4805 172.797C55.9596 171.865 56.6393 171.141 57.5195 170.625C58.4049 170.104 59.4544 169.844 60.668 169.844C61.8815 169.844 62.9284 170.104 63.8086 170.625C64.694 171.141 65.3763 171.865 65.8555 172.797C66.3346 173.724 66.5742 174.807 66.5742 176.047C66.5742 177.276 66.3346 178.357 65.8555 179.289C65.3763 180.216 64.694 180.94 63.8086 181.461C62.9284 181.977 61.8815 182.234 60.668 182.234ZM60.6836 179.656C61.2357 179.656 61.6966 179.5 62.0664 179.188C62.4362 178.87 62.7148 178.437 62.9023 177.891C63.0951 177.344 63.1914 176.721 63.1914 176.023C63.1914 175.326 63.0951 174.703 62.9023 174.156C62.7148 173.609 62.4362 173.177 62.0664 172.859C61.6966 172.542 61.2357 172.383 60.6836 172.383C60.1263 172.383 59.6576 172.542 59.2773 172.859C58.9023 173.177 58.6185 173.609 58.4258 174.156C58.2383 174.703 58.1445 175.326 58.1445 176.023C58.1445 176.721 58.2383 177.344 58.4258 177.891C58.6185 178.437 58.9023 178.87 59.2773 179.188C59.6576 179.5 60.1263 179.656 60.6836 179.656ZM68.7383 182V170H71.9102V172.117H72.0508C72.3008 171.414 72.7174 170.859 73.3008 170.453C73.8841 170.047 74.582 169.844 75.3945 169.844C76.2174 169.844 76.918 170.049 77.4961 170.461C78.0742 170.867 78.4596 171.419 78.6523 172.117H78.7773C79.0221 171.43 79.4648 170.88 80.1055 170.469C80.7513 170.052 81.5143 169.844 82.3945 169.844C83.5143 169.844 84.4232 170.201 85.1211 170.914C85.8242 171.622 86.1758 172.628 86.1758 173.93V182H82.8555V174.586C82.8555 173.919 82.6784 173.419 82.3242 173.086C81.9701 172.753 81.5273 172.586 80.9961 172.586C80.3919 172.586 79.9206 172.779 79.582 173.164C79.2435 173.544 79.0742 174.047 79.0742 174.672V182H75.8477V174.516C75.8477 173.927 75.6784 173.458 75.3398 173.109C75.0065 172.76 74.5664 172.586 74.0195 172.586C73.6497 172.586 73.3164 172.68 73.0195 172.867C72.7279 173.049 72.4961 173.307 72.3242 173.641C72.1523 173.969 72.0664 174.354 72.0664 174.797V182H68.7383ZM88.8047 186.5V170H92.0859V172.016H92.2344C92.3802 171.693 92.5911 171.365 92.8672 171.031C93.1484 170.693 93.513 170.411 93.9609 170.188C94.4141 169.958 94.9766 169.844 95.6484 169.844C96.5234 169.844 97.3307 170.073 98.0703 170.531C98.8099 170.984 99.401 171.669 99.8437 172.586C100.286 173.497 100.508 174.641 100.508 176.016C100.508 177.354 100.292 178.484 99.8594 179.406C99.4323 180.323 98.849 181.018 98.1094 181.492C97.375 181.961 96.5521 182.195 95.6406 182.195C94.9948 182.195 94.4453 182.089 93.9922 181.875C93.5443 181.661 93.1771 181.393 92.8906 181.07C92.6042 180.742 92.3854 180.411 92.2344 180.078H92.1328V186.5H88.8047ZM92.0625 176C92.0625 176.714 92.1615 177.336 92.3594 177.867C92.5573 178.398 92.8438 178.812 93.2188 179.109C93.5938 179.401 94.0495 179.547 94.5859 179.547C95.1276 179.547 95.5859 179.398 95.9609 179.102C96.3359 178.799 96.6198 178.383 96.8125 177.852C97.0104 177.315 97.1094 176.698 97.1094 176C97.1094 175.307 97.013 174.698 96.8203 174.172C96.6276 173.646 96.3438 173.234 95.9688 172.937C95.5938 172.641 95.1328 172.492 94.5859 172.492C94.0443 172.492 93.5859 172.635 93.2109 172.922C92.8411 173.208 92.5573 173.615 92.3594 174.141C92.1615 174.667 92.0625 175.286 92.0625 176ZM108.148 182.234C106.935 182.234 105.885 181.977 105 181.461C104.12 180.94 103.44 180.216 102.961 179.289C102.482 178.357 102.242 177.276 102.242 176.047C102.242 174.807 102.482 173.724 102.961 172.797C103.44 171.865 104.12 171.141 105 170.625C105.885 170.104 106.935 169.844 108.148 169.844C109.362 169.844 110.409 170.104 111.289 170.625C112.174 171.141 112.857 171.865 113.336 172.797C113.815 173.724 114.055 174.807 114.055 176.047C114.055 177.276 113.815 178.357 113.336 179.289C112.857 180.216 112.174 180.94 111.289 181.461C110.409 181.977 109.362 182.234 108.148 182.234ZM108.164 179.656C108.716 179.656 109.177 179.5 109.547 179.188C109.917 178.87 110.195 178.437 110.383 177.891C110.576 177.344 110.672 176.721 110.672 176.023C110.672 175.326 110.576 174.703 110.383 174.156C110.195 173.609 109.917 173.177 109.547 172.859C109.177 172.542 108.716 172.383 108.164 172.383C107.607 172.383 107.138 172.542 106.758 172.859C106.383 173.177 106.099 173.609 105.906 174.156C105.719 174.703 105.625 175.326 105.625 176.023C105.625 176.721 105.719 177.344 105.906 177.891C106.099 178.437 106.383 178.87 106.758 179.188C107.138 179.5 107.607 179.656 108.164 179.656ZM119.547 175.063V182H116.219V170H119.391V172.117H119.531C119.797 171.419 120.242 170.867 120.867 170.461C121.492 170.049 122.25 169.844 123.141 169.844C123.974 169.844 124.701 170.026 125.32 170.391C125.94 170.755 126.422 171.276 126.766 171.953C127.109 172.625 127.281 173.427 127.281 174.359V182H123.953V174.953C123.958 174.219 123.771 173.646 123.391 173.234C123.01 172.818 122.487 172.609 121.82 172.609C121.372 172.609 120.977 172.706 120.633 172.898C120.294 173.091 120.029 173.372 119.836 173.742C119.648 174.107 119.552 174.547 119.547 175.063ZM135.373 182.234C134.139 182.234 133.076 181.984 132.186 181.484C131.3 180.979 130.618 180.266 130.139 179.344C129.66 178.417 129.42 177.32 129.42 176.055C129.42 174.82 129.66 173.737 130.139 172.805C130.618 171.872 131.292 171.146 132.162 170.625C133.037 170.104 134.063 169.844 135.24 169.844C136.032 169.844 136.769 169.971 137.451 170.227C138.139 170.477 138.738 170.854 139.248 171.359C139.764 171.865 140.165 172.5 140.451 173.266C140.738 174.026 140.881 174.917 140.881 175.937V176.852H130.748V174.789H137.748C137.748 174.31 137.644 173.885 137.436 173.516C137.227 173.146 136.938 172.857 136.568 172.648C136.204 172.435 135.779 172.328 135.295 172.328C134.79 172.328 134.342 172.445 133.951 172.68C133.566 172.909 133.264 173.219 133.045 173.609C132.826 173.995 132.714 174.424 132.709 174.898V176.859C132.709 177.453 132.818 177.966 133.037 178.398C133.261 178.831 133.576 179.164 133.982 179.398C134.389 179.633 134.87 179.75 135.428 179.75C135.798 179.75 136.136 179.698 136.443 179.594C136.751 179.49 137.014 179.333 137.232 179.125C137.451 178.917 137.618 178.661 137.732 178.359L140.811 178.562C140.654 179.302 140.334 179.948 139.85 180.5C139.37 181.047 138.751 181.474 137.99 181.781C137.235 182.083 136.363 182.234 135.373 182.234ZM146.381 175.063V182H143.053V170H146.225V172.117H146.365C146.631 171.419 147.076 170.867 147.701 170.461C148.326 170.049 149.084 169.844 149.975 169.844C150.808 169.844 151.535 170.026 152.154 170.391C152.774 170.755 153.256 171.276 153.6 171.953C153.943 172.625 154.115 173.427 154.115 174.359V182H150.787V174.953C150.792 174.219 150.605 173.646 150.225 173.234C149.844 172.818 149.321 172.609 148.654 172.609C148.206 172.609 147.811 172.706 147.467 172.898C147.128 173.091 146.863 173.372 146.67 173.742C146.482 174.107 146.386 174.547 146.381 175.063ZM163.121 170V172.5H155.895V170H163.121ZM157.535 167.125H160.863V178.312C160.863 178.62 160.91 178.859 161.004 179.031C161.098 179.198 161.228 179.315 161.395 179.383C161.566 179.451 161.764 179.484 161.988 179.484C162.145 179.484 162.301 179.471 162.457 179.445C162.613 179.414 162.733 179.391 162.816 179.375L163.34 181.852C163.173 181.904 162.939 181.964 162.637 182.031C162.335 182.104 161.967 182.148 161.535 182.164C160.733 182.195 160.03 182.089 159.426 181.844C158.827 181.599 158.361 181.219 158.027 180.703C157.694 180.187 157.53 179.536 157.535 178.75V167.125ZM177.35 165.25L172.193 184.406H169.326L174.482 165.25H177.35ZM190.602 176.977L179.602 181.82V178.656L187.133 175.633L187.031 175.797V175.406L187.133 175.57L179.602 172.547V169.383L190.602 174.227V176.977Z"
            fill="black" />
        <path
            d="M249.377 157H247.792C247.698 156.544 247.534 156.143 247.3 155.798C247.07 155.453 246.788 155.163 246.456 154.929C246.128 154.69 245.763 154.511 245.363 154.392C244.962 154.273 244.545 154.213 244.11 154.213C243.317 154.213 242.599 154.413 241.956 154.814C241.317 155.214 240.808 155.805 240.428 156.585C240.053 157.364 239.866 158.321 239.866 159.455C239.866 160.588 240.053 161.545 240.428 162.325C240.808 163.104 241.317 163.695 241.956 164.095C242.599 164.496 243.317 164.696 244.11 164.696C244.545 164.696 244.962 164.636 245.363 164.517C245.763 164.398 246.128 164.221 246.456 163.987C246.788 163.748 247.07 163.456 247.3 163.111C247.534 162.761 247.698 162.361 247.792 161.909H249.377C249.258 162.578 249.04 163.177 248.725 163.705C248.41 164.234 248.018 164.683 247.549 165.054C247.08 165.42 246.554 165.7 245.97 165.891C245.391 166.083 244.771 166.179 244.11 166.179C242.994 166.179 242.001 165.906 241.131 165.361C240.262 164.815 239.578 164.04 239.08 163.034C238.581 162.028 238.332 160.835 238.332 159.455C238.332 158.074 238.581 156.881 239.08 155.875C239.578 154.869 240.262 154.094 241.131 153.548C242.001 153.003 242.994 152.73 244.11 152.73C244.771 152.73 245.391 152.826 245.97 153.018C246.554 153.21 247.08 153.491 247.549 153.862C248.018 154.228 248.41 154.675 248.725 155.204C249.04 155.728 249.258 156.327 249.377 157ZM253.243 152.909V166H251.734V152.909H253.243ZM256.006 166V156.182H257.514V166H256.006ZM256.773 154.545C256.479 154.545 256.225 154.445 256.012 154.245C255.803 154.045 255.699 153.804 255.699 153.523C255.699 153.241 255.803 153.001 256.012 152.8C256.225 152.6 256.479 152.5 256.773 152.5C257.067 152.5 257.318 152.6 257.527 152.8C257.74 153.001 257.847 153.241 257.847 153.523C257.847 153.804 257.74 154.045 257.527 154.245C257.318 154.445 257.067 154.545 256.773 154.545ZM264.266 166.205C263.345 166.205 262.553 165.987 261.888 165.553C261.223 165.118 260.712 164.519 260.354 163.756C259.996 162.994 259.817 162.122 259.817 161.142C259.817 160.145 260 159.265 260.367 158.502C260.737 157.735 261.253 157.136 261.914 156.706C262.578 156.271 263.354 156.054 264.24 156.054C264.931 156.054 265.553 156.182 266.107 156.438C266.661 156.693 267.115 157.051 267.468 157.511C267.822 157.972 268.041 158.509 268.127 159.122H266.618C266.503 158.675 266.247 158.278 265.851 157.933C265.459 157.584 264.931 157.409 264.266 157.409C263.678 157.409 263.162 157.562 262.719 157.869C262.28 158.172 261.937 158.6 261.69 159.154C261.447 159.704 261.325 160.349 261.325 161.091C261.325 161.849 261.445 162.51 261.683 163.072C261.926 163.635 262.267 164.072 262.706 164.383C263.149 164.694 263.669 164.849 264.266 164.849C264.658 164.849 265.014 164.781 265.333 164.645C265.653 164.509 265.923 164.312 266.145 164.057C266.367 163.801 266.524 163.494 266.618 163.136H268.127C268.041 163.716 267.83 164.238 267.494 164.702C267.161 165.163 266.72 165.529 266.171 165.802C265.625 166.07 264.99 166.205 264.266 166.205ZM271.738 162.42L271.713 160.554H272.019L276.315 156.182H278.181L273.605 160.81H273.477L271.738 162.42ZM270.332 166V152.909H271.84V166H270.332ZM276.57 166L272.735 161.142L273.809 160.094L278.488 166H276.57Z"
            fill="currentColor" />
        <path
            d="M231.701 194V180.909H236.125C237.147 180.909 237.987 181.084 238.643 181.433C239.299 181.778 239.785 182.254 240.101 182.859C240.416 183.464 240.574 184.152 240.574 184.923C240.574 185.695 240.416 186.379 240.101 186.975C239.785 187.572 239.302 188.04 238.65 188.381C237.998 188.718 237.165 188.886 236.15 188.886H232.571V187.455H236.099C236.798 187.455 237.361 187.352 237.787 187.148C238.217 186.943 238.528 186.653 238.72 186.278C238.916 185.899 239.014 185.447 239.014 184.923C239.014 184.399 238.916 183.941 238.72 183.549C238.524 183.157 238.211 182.854 237.78 182.641C237.35 182.424 236.781 182.315 236.074 182.315H233.287V194H231.701ZM237.863 188.119L241.085 194H239.244L236.074 188.119H237.863ZM247.022 194.205C246.076 194.205 245.259 193.996 244.573 193.578C243.892 193.156 243.365 192.568 242.995 191.814C242.628 191.055 242.445 190.173 242.445 189.168C242.445 188.162 242.628 187.276 242.995 186.509C243.365 185.737 243.881 185.136 244.541 184.706C245.206 184.271 245.982 184.054 246.868 184.054C247.38 184.054 247.884 184.139 248.383 184.31C248.882 184.48 249.335 184.757 249.745 185.141C250.154 185.52 250.48 186.023 250.723 186.649C250.965 187.276 251.087 188.047 251.087 188.963V189.602H243.519V188.298H249.553C249.553 187.744 249.442 187.25 249.22 186.815C249.003 186.381 248.692 186.038 248.287 185.786C247.887 185.535 247.414 185.409 246.868 185.409C246.267 185.409 245.747 185.558 245.309 185.857C244.874 186.151 244.539 186.534 244.305 187.007C244.071 187.48 243.953 187.987 243.953 188.528V189.398C243.953 190.139 244.081 190.768 244.337 191.283C244.597 191.795 244.957 192.185 245.417 192.453C245.877 192.717 246.412 192.849 247.022 192.849C247.418 192.849 247.776 192.794 248.095 192.683C248.419 192.568 248.698 192.398 248.933 192.172C249.167 191.942 249.348 191.656 249.476 191.315L250.934 191.724C250.78 192.219 250.522 192.653 250.16 193.028C249.798 193.399 249.35 193.689 248.818 193.898C248.285 194.102 247.686 194.205 247.022 194.205ZM254.89 188.094V194H253.382V184.182H254.839V185.716H254.967C255.197 185.217 255.546 184.817 256.015 184.514C256.484 184.207 257.089 184.054 257.831 184.054C258.495 184.054 259.077 184.19 259.576 184.463C260.074 184.732 260.462 185.141 260.739 185.69C261.016 186.236 261.154 186.926 261.154 187.761V194H259.646V187.864C259.646 187.092 259.446 186.491 259.045 186.061C258.644 185.626 258.095 185.409 257.396 185.409C256.914 185.409 256.484 185.513 256.105 185.722C255.73 185.931 255.434 186.236 255.216 186.636C254.999 187.037 254.89 187.523 254.89 188.094ZM267.618 194.205C266.8 194.205 266.078 193.998 265.451 193.585C264.825 193.167 264.335 192.579 263.981 191.82C263.628 191.058 263.451 190.156 263.451 189.116C263.451 188.085 263.628 187.19 263.981 186.432C264.335 185.673 264.827 185.087 265.458 184.674C266.089 184.261 266.817 184.054 267.644 184.054C268.283 184.054 268.788 184.161 269.159 184.374C269.534 184.582 269.819 184.821 270.015 185.089C270.216 185.354 270.371 185.571 270.482 185.741H270.61V180.909H272.118V194H270.661V192.491H270.482C270.371 192.67 270.214 192.896 270.009 193.169C269.804 193.437 269.513 193.678 269.133 193.891C268.754 194.1 268.249 194.205 267.618 194.205ZM267.823 192.849C268.428 192.849 268.939 192.692 269.357 192.376C269.775 192.057 270.092 191.616 270.309 191.053C270.527 190.487 270.635 189.832 270.635 189.091C270.635 188.358 270.529 187.717 270.316 187.167C270.103 186.613 269.787 186.183 269.37 185.876C268.952 185.565 268.437 185.409 267.823 185.409C267.184 185.409 266.651 185.573 266.225 185.901C265.803 186.225 265.486 186.666 265.272 187.224C265.064 187.778 264.959 188.401 264.959 189.091C264.959 189.79 265.066 190.425 265.279 190.996C265.496 191.562 265.816 192.014 266.238 192.351C266.664 192.683 267.192 192.849 267.823 192.849ZM279.207 194.205C278.261 194.205 277.445 193.996 276.759 193.578C276.077 193.156 275.551 192.568 275.18 191.814C274.814 191.055 274.63 190.173 274.63 189.168C274.63 188.162 274.814 187.276 275.18 186.509C275.551 185.737 276.066 185.136 276.727 184.706C277.392 184.271 278.167 184.054 279.054 184.054C279.565 184.054 280.07 184.139 280.569 184.31C281.067 184.48 281.521 184.757 281.93 185.141C282.339 185.52 282.665 186.023 282.908 186.649C283.151 187.276 283.272 188.047 283.272 188.963V189.602H275.704V188.298H281.738C281.738 187.744 281.628 187.25 281.406 186.815C281.189 186.381 280.878 186.038 280.473 185.786C280.072 185.535 279.599 185.409 279.054 185.409C278.453 185.409 277.933 185.558 277.494 185.857C277.059 186.151 276.725 186.534 276.491 187.007C276.256 187.48 276.139 187.987 276.139 188.528V189.398C276.139 190.139 276.267 190.768 276.522 191.283C276.782 191.795 277.142 192.185 277.603 192.453C278.063 192.717 278.598 192.849 279.207 192.849C279.603 192.849 279.961 192.794 280.281 192.683C280.605 192.568 280.884 192.398 281.118 192.172C281.353 191.942 281.534 191.656 281.662 191.315L283.119 191.724C282.966 192.219 282.708 192.653 282.346 193.028C281.983 193.399 281.536 193.689 281.003 193.898C280.471 194.102 279.872 194.205 279.207 194.205ZM285.567 194V184.182H287.025V185.665H287.127C287.306 185.179 287.63 184.785 288.098 184.482C288.567 184.18 289.096 184.028 289.684 184.028C289.794 184.028 289.933 184.031 290.099 184.035C290.265 184.039 290.391 184.045 290.476 184.054V185.588C290.425 185.575 290.308 185.556 290.125 185.531C289.946 185.501 289.756 185.486 289.556 185.486C289.079 185.486 288.652 185.586 288.277 185.786C287.907 185.982 287.613 186.255 287.395 186.604C287.182 186.95 287.076 187.344 287.076 187.787V194H285.567Z"
            fill="currentColor" />
        <path
            d="M348.093 156V157.562H341.874V156H348.093ZM343.687 153.125H345.53V164.562C345.53 165.083 345.606 165.474 345.757 165.734C345.913 165.99 346.111 166.161 346.351 166.25C346.595 166.333 346.853 166.375 347.124 166.375C347.327 166.375 347.494 166.365 347.624 166.344C347.754 166.318 347.858 166.297 347.937 166.281L348.312 167.937C348.187 167.984 348.012 168.031 347.788 168.078C347.564 168.13 347.28 168.156 346.937 168.156C346.416 168.156 345.905 168.044 345.405 167.82C344.91 167.596 344.499 167.255 344.171 166.797C343.848 166.339 343.687 165.76 343.687 165.062V153.125ZM350.866 168V156H352.647V157.812H352.772C352.991 157.219 353.387 156.737 353.96 156.367C354.533 155.997 355.179 155.812 355.897 155.812C356.033 155.812 356.202 155.815 356.405 155.82C356.608 155.826 356.762 155.833 356.866 155.844V157.719C356.804 157.703 356.66 157.68 356.437 157.648C356.218 157.612 355.986 157.594 355.741 157.594C355.158 157.594 354.637 157.716 354.179 157.961C353.726 158.201 353.366 158.534 353.101 158.961C352.84 159.383 352.71 159.865 352.71 160.406V168H350.866ZM362.583 168.281C361.823 168.281 361.132 168.138 360.513 167.852C359.893 167.56 359.401 167.141 359.036 166.594C358.672 166.042 358.489 165.375 358.489 164.594C358.489 163.906 358.625 163.349 358.896 162.922C359.166 162.49 359.528 162.151 359.981 161.906C360.435 161.661 360.935 161.479 361.481 161.359C362.034 161.234 362.588 161.135 363.146 161.063C363.875 160.969 364.466 160.898 364.919 160.852C365.377 160.799 365.711 160.714 365.919 160.594C366.132 160.474 366.239 160.266 366.239 159.969V159.906C366.239 159.135 366.028 158.536 365.606 158.109C365.19 157.682 364.557 157.469 363.708 157.469C362.828 157.469 362.138 157.661 361.638 158.047C361.138 158.432 360.786 158.844 360.583 159.281L358.833 158.656C359.146 157.927 359.562 157.359 360.083 156.953C360.609 156.542 361.182 156.255 361.802 156.094C362.427 155.927 363.041 155.844 363.646 155.844C364.031 155.844 364.474 155.891 364.974 155.984C365.479 156.073 365.966 156.258 366.435 156.539C366.909 156.82 367.302 157.245 367.614 157.812C367.927 158.38 368.083 159.141 368.083 160.094V168H366.239V166.375H366.146C366.021 166.635 365.812 166.914 365.521 167.211C365.229 167.508 364.841 167.76 364.356 167.969C363.872 168.177 363.281 168.281 362.583 168.281ZM362.864 166.625C363.593 166.625 364.208 166.482 364.708 166.195C365.213 165.909 365.593 165.539 365.849 165.086C366.109 164.633 366.239 164.156 366.239 163.656V161.969C366.161 162.062 365.989 162.148 365.724 162.227C365.463 162.299 365.161 162.365 364.817 162.422C364.479 162.474 364.148 162.521 363.825 162.562C363.507 162.599 363.25 162.63 363.052 162.656C362.573 162.719 362.125 162.82 361.708 162.961C361.297 163.096 360.963 163.302 360.708 163.578C360.458 163.849 360.333 164.219 360.333 164.687C360.333 165.328 360.57 165.812 361.044 166.141C361.523 166.464 362.13 166.625 362.864 166.625ZM376.323 168.25C375.198 168.25 374.229 167.984 373.417 167.453C372.604 166.922 371.979 166.19 371.542 165.258C371.104 164.326 370.886 163.26 370.886 162.062C370.886 160.844 371.11 159.768 371.558 158.836C372.011 157.898 372.641 157.167 373.448 156.641C374.261 156.109 375.209 155.844 376.292 155.844C377.136 155.844 377.896 156 378.573 156.312C379.25 156.625 379.805 157.062 380.237 157.625C380.67 158.187 380.938 158.844 381.042 159.594H379.198C379.058 159.047 378.745 158.562 378.261 158.141C377.782 157.714 377.136 157.5 376.323 157.5C375.604 157.5 374.974 157.687 374.433 158.062C373.896 158.432 373.477 158.956 373.175 159.633C372.878 160.305 372.729 161.094 372.729 162C372.729 162.927 372.875 163.734 373.167 164.422C373.464 165.109 373.881 165.643 374.417 166.023C374.959 166.404 375.594 166.594 376.323 166.594C376.802 166.594 377.237 166.51 377.628 166.344C378.019 166.177 378.349 165.938 378.62 165.625C378.891 165.312 379.084 164.937 379.198 164.5H381.042C380.938 165.208 380.68 165.846 380.269 166.414C379.862 166.977 379.323 167.424 378.651 167.758C377.985 168.086 377.209 168.25 376.323 168.25ZM385.456 163.625L385.425 161.344H385.8L391.05 156H393.331L387.737 161.656H387.581L385.456 163.625ZM383.737 168V152H385.581V168H383.737ZM391.362 168L386.675 162.062L387.987 160.781L393.706 168H391.362ZM395.954 168V152H405.61V153.719H397.892V159.125H405.11V160.844H397.892V166.281H405.735V168H395.954ZM418.665 156L414.228 168H412.353L407.915 156H409.915L413.228 165.562H413.353L416.665 156H418.665ZM425.7 168.25C424.544 168.25 423.547 167.995 422.708 167.484C421.875 166.969 421.231 166.25 420.778 165.328C420.33 164.401 420.106 163.323 420.106 162.094C420.106 160.865 420.33 159.781 420.778 158.844C421.231 157.901 421.862 157.167 422.669 156.641C423.481 156.109 424.429 155.844 425.513 155.844C426.138 155.844 426.755 155.948 427.364 156.156C427.974 156.365 428.528 156.703 429.028 157.172C429.528 157.635 429.927 158.25 430.224 159.016C430.521 159.781 430.669 160.724 430.669 161.844V162.625H421.419V161.031H428.794C428.794 160.354 428.659 159.75 428.388 159.219C428.122 158.687 427.742 158.268 427.247 157.961C426.757 157.654 426.179 157.5 425.513 157.5C424.778 157.5 424.143 157.682 423.606 158.047C423.075 158.406 422.666 158.875 422.38 159.453C422.093 160.031 421.95 160.651 421.95 161.312V162.375C421.95 163.281 422.106 164.049 422.419 164.68C422.737 165.305 423.177 165.781 423.739 166.109C424.302 166.432 424.955 166.594 425.7 166.594C426.185 166.594 426.622 166.526 427.013 166.391C427.409 166.25 427.75 166.042 428.036 165.766C428.323 165.484 428.544 165.135 428.7 164.719L430.481 165.219C430.294 165.823 429.979 166.354 429.536 166.812C429.093 167.266 428.547 167.62 427.896 167.875C427.244 168.125 426.513 168.25 425.7 168.25ZM435.317 160.781V168H433.474V156H435.255V157.875H435.411C435.692 157.266 436.119 156.776 436.692 156.406C437.265 156.031 438.005 155.844 438.911 155.844C439.724 155.844 440.435 156.01 441.044 156.344C441.653 156.672 442.127 157.172 442.466 157.844C442.804 158.51 442.974 159.354 442.974 160.375V168H441.13V160.5C441.13 159.557 440.885 158.823 440.396 158.297C439.906 157.766 439.234 157.5 438.38 157.5C437.791 157.5 437.265 157.628 436.802 157.883C436.343 158.138 435.981 158.51 435.716 159C435.45 159.49 435.317 160.083 435.317 160.781ZM451.562 156V157.562H445.343V156H451.562ZM447.155 153.125H448.999V164.562C448.999 165.083 449.075 165.474 449.226 165.734C449.382 165.99 449.58 166.161 449.819 166.25C450.064 166.333 450.322 166.375 450.593 166.375C450.796 166.375 450.963 166.365 451.093 166.344C451.223 166.318 451.327 166.297 451.405 166.281L451.78 167.937C451.655 167.984 451.481 168.031 451.257 168.078C451.033 168.13 450.749 168.156 450.405 168.156C449.884 168.156 449.374 168.044 448.874 167.82C448.379 167.596 447.968 167.255 447.64 166.797C447.317 166.339 447.155 165.76 447.155 165.062V153.125ZM457.085 165.812L456.96 166.656C456.871 167.25 456.736 167.885 456.554 168.563C456.377 169.24 456.192 169.878 455.999 170.477C455.806 171.076 455.647 171.552 455.522 171.906H454.116C454.184 171.573 454.272 171.133 454.382 170.586C454.491 170.039 454.601 169.427 454.71 168.75C454.825 168.078 454.918 167.391 454.991 166.687L455.085 165.812H457.085ZM354.205 183V184.562H347.986V183H354.205ZM349.799 180.125H351.643V191.562C351.643 192.083 351.718 192.474 351.869 192.734C352.025 192.99 352.223 193.161 352.463 193.25C352.708 193.333 352.965 193.375 353.236 193.375C353.439 193.375 353.606 193.365 353.736 193.344C353.867 193.318 353.971 193.297 354.049 193.281L354.424 194.937C354.299 194.984 354.124 195.031 353.9 195.078C353.676 195.13 353.393 195.156 353.049 195.156C352.528 195.156 352.018 195.044 351.518 194.82C351.023 194.596 350.611 194.255 350.283 193.797C349.96 193.339 349.799 192.76 349.799 192.062V180.125ZM356.979 195V183H358.76V184.812H358.885C359.104 184.219 359.499 183.737 360.072 183.367C360.645 182.997 361.291 182.812 362.01 182.812C362.145 182.812 362.314 182.815 362.518 182.82C362.721 182.826 362.874 182.833 362.979 182.844V184.719C362.916 184.703 362.773 184.68 362.549 184.648C362.33 184.612 362.098 184.594 361.854 184.594C361.27 184.594 360.749 184.716 360.291 184.961C359.838 185.201 359.479 185.534 359.213 185.961C358.952 186.383 358.822 186.865 358.822 187.406V195H356.979ZM368.695 195.281C367.935 195.281 367.245 195.138 366.625 194.852C366.005 194.56 365.513 194.141 365.148 193.594C364.784 193.042 364.602 192.375 364.602 191.594C364.602 190.906 364.737 190.349 365.008 189.922C365.279 189.49 365.641 189.151 366.094 188.906C366.547 188.661 367.047 188.479 367.594 188.359C368.146 188.234 368.701 188.135 369.258 188.063C369.987 187.969 370.578 187.898 371.031 187.852C371.49 187.799 371.823 187.714 372.031 187.594C372.245 187.474 372.352 187.266 372.352 186.969V186.906C372.352 186.135 372.141 185.536 371.719 185.109C371.302 184.682 370.669 184.469 369.82 184.469C368.94 184.469 368.25 184.661 367.75 185.047C367.25 185.432 366.898 185.844 366.695 186.281L364.945 185.656C365.258 184.927 365.674 184.359 366.195 183.953C366.721 183.542 367.294 183.255 367.914 183.094C368.539 182.927 369.154 182.844 369.758 182.844C370.143 182.844 370.586 182.891 371.086 182.984C371.591 183.073 372.078 183.258 372.547 183.539C373.021 183.82 373.414 184.245 373.727 184.812C374.039 185.38 374.195 186.141 374.195 187.094V195H372.352V193.375H372.258C372.133 193.635 371.924 193.914 371.633 194.211C371.341 194.508 370.953 194.76 370.469 194.969C369.984 195.177 369.393 195.281 368.695 195.281ZM368.977 193.625C369.706 193.625 370.32 193.482 370.82 193.195C371.326 192.909 371.706 192.539 371.961 192.086C372.221 191.633 372.352 191.156 372.352 190.656V188.969C372.273 189.062 372.102 189.148 371.836 189.227C371.576 189.299 371.273 189.365 370.93 189.422C370.591 189.474 370.26 189.521 369.938 189.562C369.62 189.599 369.362 189.63 369.164 189.656C368.685 189.719 368.237 189.82 367.82 189.961C367.409 190.096 367.076 190.302 366.82 190.578C366.57 190.849 366.445 191.219 366.445 191.687C366.445 192.328 366.682 192.812 367.156 193.141C367.635 193.464 368.242 193.625 368.977 193.625ZM382.436 195.25C381.311 195.25 380.342 194.984 379.529 194.453C378.717 193.922 378.092 193.19 377.654 192.258C377.217 191.326 376.998 190.26 376.998 189.062C376.998 187.844 377.222 186.768 377.67 185.836C378.123 184.898 378.753 184.167 379.561 183.641C380.373 183.109 381.321 182.844 382.404 182.844C383.248 182.844 384.008 183 384.686 183.312C385.363 183.625 385.917 184.062 386.35 184.625C386.782 185.187 387.05 185.844 387.154 186.594H385.311C385.17 186.047 384.857 185.562 384.373 185.141C383.894 184.714 383.248 184.5 382.436 184.5C381.717 184.5 381.087 184.687 380.545 185.062C380.008 185.432 379.589 185.956 379.287 186.633C378.99 187.305 378.842 188.094 378.842 189C378.842 189.927 378.988 190.734 379.279 191.422C379.576 192.109 379.993 192.643 380.529 193.023C381.071 193.404 381.706 193.594 382.436 193.594C382.915 193.594 383.35 193.51 383.74 193.344C384.131 193.177 384.462 192.938 384.732 192.625C385.003 192.312 385.196 191.937 385.311 191.5H387.154C387.05 192.208 386.792 192.846 386.381 193.414C385.975 193.977 385.436 194.424 384.764 194.758C384.097 195.086 383.321 195.25 382.436 195.25ZM391.568 190.625L391.537 188.344H391.912L397.162 183H399.443L393.85 188.656H393.693L391.568 190.625ZM389.85 195V179H391.693V195H389.85ZM397.475 195L392.787 189.062L394.1 187.781L399.818 195H397.475ZM402.066 195V179H407.473C408.728 179 409.754 179.227 410.551 179.68C411.353 180.128 411.947 180.734 412.332 181.5C412.717 182.266 412.91 183.12 412.91 184.062C412.91 185.005 412.717 185.862 412.332 186.633C411.952 187.404 411.363 188.018 410.566 188.477C409.77 188.93 408.749 189.156 407.504 189.156H403.629V187.438H407.441C408.301 187.438 408.991 187.289 409.512 186.992C410.033 186.695 410.41 186.294 410.645 185.789C410.884 185.279 411.004 184.703 411.004 184.062C411.004 183.422 410.884 182.849 410.645 182.344C410.41 181.839 410.03 181.443 409.504 181.156C408.978 180.865 408.28 180.719 407.41 180.719H404.004V195H402.066ZM419.313 195.281C418.552 195.281 417.862 195.138 417.242 194.852C416.622 194.56 416.13 194.141 415.766 193.594C415.401 193.042 415.219 192.375 415.219 191.594C415.219 190.906 415.354 190.349 415.625 189.922C415.896 189.49 416.258 189.151 416.711 188.906C417.164 188.661 417.664 188.479 418.211 188.359C418.763 188.234 419.318 188.135 419.875 188.063C420.604 187.969 421.195 187.898 421.648 187.852C422.107 187.799 422.44 187.714 422.648 187.594C422.862 187.474 422.969 187.266 422.969 186.969V186.906C422.969 186.135 422.758 185.536 422.336 185.109C421.919 184.682 421.286 184.469 420.438 184.469C419.557 184.469 418.867 184.661 418.367 185.047C417.867 185.432 417.516 185.844 417.313 186.281L415.563 185.656C415.875 184.927 416.292 184.359 416.813 183.953C417.339 183.542 417.911 183.255 418.531 183.094C419.156 182.927 419.771 182.844 420.375 182.844C420.76 182.844 421.203 182.891 421.703 182.984C422.208 183.073 422.695 183.258 423.164 183.539C423.638 183.82 424.031 184.245 424.344 184.812C424.656 185.38 424.813 186.141 424.813 187.094V195H422.969V193.375H422.875C422.75 193.635 422.542 193.914 422.25 194.211C421.958 194.508 421.57 194.76 421.086 194.969C420.602 195.177 420.01 195.281 419.313 195.281ZM419.594 193.625C420.323 193.625 420.938 193.482 421.438 193.195C421.943 192.909 422.323 192.539 422.578 192.086C422.839 191.633 422.969 191.156 422.969 190.656V188.969C422.891 189.062 422.719 189.148 422.453 189.227C422.193 189.299 421.891 189.365 421.547 189.422C421.208 189.474 420.878 189.521 420.555 189.562C420.237 189.599 419.979 189.63 419.781 189.656C419.302 189.719 418.854 189.82 418.438 189.961C418.026 190.096 417.693 190.302 417.438 190.578C417.188 190.849 417.063 191.219 417.063 191.687C417.063 192.328 417.299 192.812 417.773 193.141C418.253 193.464 418.859 193.625 419.594 193.625ZM433.021 199.75C432.131 199.75 431.365 199.635 430.725 199.406C430.084 199.182 429.55 198.885 429.123 198.516C428.701 198.151 428.365 197.76 428.115 197.344L429.584 196.313C429.751 196.531 429.962 196.781 430.217 197.062C430.472 197.349 430.821 197.596 431.264 197.805C431.712 198.018 432.298 198.125 433.021 198.125C433.99 198.125 434.79 197.891 435.42 197.422C436.05 196.953 436.365 196.219 436.365 195.219V192.781H436.209C436.074 193 435.881 193.271 435.631 193.594C435.386 193.911 435.032 194.195 434.568 194.445C434.11 194.69 433.49 194.812 432.709 194.812C431.74 194.812 430.87 194.583 430.1 194.125C429.334 193.667 428.727 193 428.279 192.125C427.837 191.25 427.615 190.187 427.615 188.937C427.615 187.708 427.831 186.638 428.264 185.727C428.696 184.81 429.298 184.102 430.068 183.602C430.839 183.096 431.73 182.844 432.74 182.844C433.521 182.844 434.141 182.974 434.6 183.234C435.063 183.49 435.417 183.781 435.662 184.109C435.912 184.432 436.105 184.698 436.24 184.906H436.428V183H438.209V195.344C438.209 196.375 437.975 197.214 437.506 197.859C437.042 198.51 436.417 198.987 435.631 199.289C434.85 199.596 433.98 199.75 433.021 199.75ZM432.959 193.156C433.699 193.156 434.324 192.987 434.834 192.648C435.344 192.31 435.732 191.823 435.998 191.188C436.264 190.552 436.396 189.792 436.396 188.906C436.396 188.042 436.266 187.279 436.006 186.617C435.745 185.956 435.36 185.437 434.85 185.062C434.339 184.687 433.709 184.5 432.959 184.5C432.178 184.5 431.527 184.698 431.006 185.094C430.49 185.49 430.102 186.021 429.842 186.688C429.587 187.354 429.459 188.094 429.459 188.906C429.459 189.74 429.589 190.477 429.85 191.117C430.115 191.753 430.506 192.253 431.021 192.617C431.542 192.977 432.188 193.156 432.959 193.156ZM446.615 195.25C445.459 195.25 444.462 194.995 443.623 194.484C442.79 193.969 442.146 193.25 441.693 192.328C441.245 191.401 441.021 190.323 441.021 189.094C441.021 187.865 441.245 186.781 441.693 185.844C442.146 184.901 442.777 184.167 443.584 183.641C444.396 183.109 445.344 182.844 446.428 182.844C447.053 182.844 447.67 182.948 448.279 183.156C448.889 183.365 449.443 183.703 449.943 184.172C450.443 184.635 450.842 185.25 451.139 186.016C451.436 186.781 451.584 187.724 451.584 188.844V189.625H442.334V188.031H449.709C449.709 187.354 449.574 186.75 449.303 186.219C449.037 185.687 448.657 185.268 448.162 184.961C447.673 184.654 447.094 184.5 446.428 184.5C445.693 184.5 445.058 184.682 444.521 185.047C443.99 185.406 443.581 185.875 443.295 186.453C443.008 187.031 442.865 187.651 442.865 188.312V189.375C442.865 190.281 443.021 191.049 443.334 191.68C443.652 192.305 444.092 192.781 444.654 193.109C445.217 193.432 445.87 193.594 446.615 193.594C447.1 193.594 447.537 193.526 447.928 193.391C448.324 193.25 448.665 193.042 448.951 192.766C449.238 192.484 449.459 192.135 449.615 191.719L451.396 192.219C451.209 192.823 450.894 193.354 450.451 193.812C450.008 194.266 449.462 194.62 448.811 194.875C448.16 195.125 447.428 195.25 446.615 195.25Z"
            fill="black" />
        <path
            d="M816.062 38H577.937C573.554 38 570 41.3579 570 45.5V80.5C570 84.6421 573.554 88 577.937 88H816.062C820.446 88 824 84.6421 824 80.5V45.5C824 41.3579 820.446 38 816.062 38Z"
            fill="#F1F2F3" />
        <path
            d="M621.937 61C621.765 60.474 621.538 60.0026 621.257 59.5859C620.981 59.1641 620.65 58.8047 620.265 58.5078C619.885 58.2109 619.452 57.9844 618.968 57.8281C618.484 57.6719 617.952 57.5937 617.374 57.5937C616.426 57.5937 615.564 57.8385 614.788 58.3281C614.012 58.8177 613.395 59.5391 612.937 60.4922C612.478 61.4453 612.249 62.6146 612.249 64C612.249 65.3854 612.481 66.5547 612.944 67.5078C613.408 68.4609 614.036 69.1823 614.827 69.6719C615.619 70.1615 616.51 70.4062 617.499 70.4062C618.416 70.4062 619.223 70.2109 619.921 69.8203C620.624 69.4245 621.171 68.8672 621.562 68.1484C621.958 67.4245 622.155 66.5729 622.155 65.5937L622.749 65.7187H617.937V64H624.03V65.7187C624.03 67.0365 623.749 68.1823 623.187 69.1562C622.629 70.1302 621.859 70.8854 620.874 71.4219C619.895 71.9531 618.77 72.2187 617.499 72.2187C616.083 72.2187 614.838 71.8854 613.765 71.2188C612.697 70.5521 611.864 69.6042 611.265 68.375C610.671 67.1458 610.374 65.6875 610.374 64C610.374 62.7344 610.543 61.5964 610.882 60.5859C611.226 59.5703 611.71 58.7057 612.335 57.9922C612.96 57.2786 613.7 56.7318 614.554 56.3516C615.408 55.9714 616.348 55.7812 617.374 55.7812C618.218 55.7812 619.004 55.9089 619.734 56.1641C620.468 56.4141 621.122 56.7708 621.694 57.2344C622.273 57.6927 622.754 58.2422 623.14 58.8828C623.525 59.5182 623.791 60.224 623.937 61H621.937ZM631.974 72.25C630.89 72.25 629.94 71.9922 629.122 71.4766C628.31 70.9609 627.674 70.2396 627.216 69.3125C626.763 68.3854 626.536 67.3021 626.536 66.0625C626.536 64.8125 626.763 63.7214 627.216 62.7891C627.674 61.8568 628.31 61.1328 629.122 60.6172C629.94 60.1016 630.89 59.8438 631.974 59.8438C633.057 59.8438 634.005 60.1016 634.818 60.6172C635.635 61.1328 636.271 61.8568 636.724 62.7891C637.182 63.7214 637.411 64.8125 637.411 66.0625C637.411 67.3021 637.182 68.3854 636.724 69.3125C636.271 70.2396 635.635 70.9609 634.818 71.4766C634.005 71.9922 633.057 72.25 631.974 72.25ZM631.974 70.5938C632.797 70.5938 633.474 70.3828 634.005 69.9609C634.536 69.5391 634.93 68.9844 635.185 68.2969C635.44 67.6094 635.568 66.8646 635.568 66.0625C635.568 65.2604 635.44 64.513 635.185 63.8203C634.93 63.1276 634.536 62.5677 634.005 62.1406C633.474 61.7135 632.797 61.5 631.974 61.5C631.151 61.5 630.474 61.7135 629.943 62.1406C629.411 62.5677 629.018 63.1276 628.763 63.8203C628.508 64.513 628.38 65.2604 628.38 66.0625C628.38 66.8646 628.508 67.6094 628.763 68.2969C629.018 68.9844 629.411 69.5391 629.943 69.9609C630.474 70.3828 631.151 70.5938 631.974 70.5938ZM645.101 72.25C644.017 72.25 643.067 71.9922 642.249 71.4766C641.437 70.9609 640.801 70.2396 640.343 69.3125C639.89 68.3854 639.663 67.3021 639.663 66.0625C639.663 64.8125 639.89 63.7214 640.343 62.7891C640.801 61.8568 641.437 61.1328 642.249 60.6172C643.067 60.1016 644.017 59.8438 645.101 59.8438C646.184 59.8438 647.132 60.1016 647.944 60.6172C648.762 61.1328 649.398 61.8568 649.851 62.7891C650.309 63.7214 650.538 64.8125 650.538 66.0625C650.538 67.3021 650.309 68.3854 649.851 69.3125C649.398 70.2396 648.762 70.9609 647.944 71.4766C647.132 71.9922 646.184 72.25 645.101 72.25ZM645.101 70.5938C645.924 70.5938 646.601 70.3828 647.132 69.9609C647.663 69.5391 648.056 68.9844 648.312 68.2969C648.567 67.6094 648.694 66.8646 648.694 66.0625C648.694 65.2604 648.567 64.513 648.312 63.8203C648.056 63.1276 647.663 62.5677 647.132 62.1406C646.601 61.7135 645.924 61.5 645.101 61.5C644.278 61.5 643.601 61.7135 643.069 62.1406C642.538 62.5677 642.145 63.1276 641.89 63.8203C641.635 64.513 641.507 65.2604 641.507 66.0625C641.507 66.8646 641.635 67.6094 641.89 68.2969C642.145 68.9844 642.538 69.5391 643.069 69.9609C643.601 70.3828 644.278 70.5938 645.101 70.5938ZM658.196 76.75C657.306 76.75 656.54 76.6354 655.9 76.4063C655.259 76.1823 654.725 75.8854 654.298 75.5156C653.876 75.151 653.54 74.7604 653.29 74.3438L654.759 73.3125C654.926 73.5313 655.137 73.7813 655.392 74.0625C655.647 74.349 655.996 74.5964 656.439 74.8047C656.887 75.0182 657.472 75.125 658.196 75.125C659.165 75.125 659.965 74.8906 660.595 74.4219C661.225 73.9531 661.54 73.2187 661.54 72.2187V69.7812H661.384C661.249 70 661.056 70.2708 660.806 70.5938C660.561 70.9115 660.207 71.1953 659.743 71.4453C659.285 71.6901 658.665 71.8125 657.884 71.8125C656.915 71.8125 656.045 71.5833 655.275 71.125C654.509 70.6667 653.902 70 653.454 69.125C653.012 68.25 652.79 67.1875 652.79 65.9375C652.79 64.7083 653.006 63.638 653.439 62.7266C653.871 61.8099 654.472 61.1016 655.243 60.6016C656.014 60.0964 656.905 59.8438 657.915 59.8438C658.696 59.8438 659.316 59.974 659.775 60.2344C660.238 60.4896 660.592 60.7812 660.837 61.1094C661.087 61.4323 661.28 61.6979 661.415 61.9062H661.603V60H663.384V72.3438C663.384 73.375 663.15 74.2135 662.681 74.8594C662.217 75.5104 661.592 75.987 660.806 76.2891C660.025 76.5964 659.155 76.75 658.196 76.75ZM658.134 70.1562C658.874 70.1562 659.499 69.987 660.009 69.6484C660.519 69.3099 660.907 68.8229 661.173 68.1875C661.439 67.5521 661.571 66.7917 661.571 65.9062C661.571 65.0417 661.441 64.2786 661.181 63.6172C660.92 62.9557 660.535 62.4375 660.025 62.0625C659.514 61.6875 658.884 61.5 658.134 61.5C657.353 61.5 656.702 61.6979 656.181 62.0937C655.665 62.4896 655.277 63.0208 655.017 63.6875C654.762 64.3542 654.634 65.0937 654.634 65.9062C654.634 66.7396 654.764 67.4766 655.025 68.1172C655.29 68.7526 655.681 69.2526 656.196 69.6172C656.717 69.9766 657.363 70.1562 658.134 70.1562ZM668.603 56V72H666.759V56H668.603ZM677.011 72.25C675.855 72.25 674.857 71.9948 674.019 71.4844C673.185 70.9688 672.542 70.25 672.089 69.3281C671.641 68.401 671.417 67.3229 671.417 66.0938C671.417 64.8646 671.641 63.7812 672.089 62.8437C672.542 61.901 673.172 61.1667 673.98 60.6406C674.792 60.1094 675.74 59.8438 676.823 59.8438C677.448 59.8438 678.066 59.9479 678.675 60.1562C679.284 60.3646 679.839 60.7031 680.339 61.1719C680.839 61.6354 681.237 62.25 681.534 63.0156C681.831 63.7812 681.98 64.724 681.98 65.8437V66.625H672.73V65.0312H680.105C680.105 64.3542 679.969 63.75 679.698 63.2187C679.433 62.6875 679.053 62.2682 678.558 61.9609C678.068 61.6536 677.49 61.5 676.823 61.5C676.089 61.5 675.454 61.6823 674.917 62.0469C674.386 62.4062 673.977 62.875 673.691 63.4531C673.404 64.0312 673.261 64.651 673.261 65.3125V66.375C673.261 67.2813 673.417 68.0495 673.73 68.6797C674.047 69.3047 674.487 69.7812 675.05 70.1094C675.612 70.4323 676.266 70.5938 677.011 70.5938C677.495 70.5938 677.933 70.526 678.323 70.3906C678.719 70.25 679.06 70.0417 679.347 69.7656C679.633 69.4844 679.855 69.1354 680.011 68.7187L681.792 69.2188C681.605 69.8229 681.29 70.3542 680.847 70.8125C680.404 71.2656 679.857 71.6198 679.206 71.875C678.555 72.125 677.823 72.25 677.011 72.25ZM691.878 72H689.847L695.722 56H697.722L703.597 72H701.566L696.784 58.5312H696.659L691.878 72ZM692.628 65.75H700.816V67.4687H692.628V65.75ZM707.683 64.7812V72H705.839V60H707.62V61.875H707.777C708.058 61.2656 708.485 60.776 709.058 60.4063C709.631 60.0313 710.37 59.8438 711.277 59.8438C712.089 59.8438 712.8 60.0104 713.409 60.3437C714.019 60.6719 714.493 61.1719 714.831 61.8437C715.17 62.5104 715.339 63.3542 715.339 64.375V72H713.495V64.5C713.495 63.5573 713.25 62.8229 712.761 62.2969C712.271 61.7656 711.599 61.5 710.745 61.5C710.157 61.5 709.631 61.6276 709.167 61.8828C708.709 62.138 708.347 62.5104 708.081 63C707.816 63.4896 707.683 64.0833 707.683 64.7812ZM722.239 72.2813C721.479 72.2813 720.789 72.138 720.169 71.8516C719.549 71.5599 719.057 71.1406 718.693 70.5938C718.328 70.0417 718.146 69.375 718.146 68.5937C718.146 67.9062 718.281 67.349 718.552 66.9219C718.823 66.4896 719.185 66.151 719.638 65.9062C720.091 65.6615 720.591 65.4792 721.138 65.3594C721.69 65.2344 722.245 65.1354 722.802 65.0625C723.531 64.9687 724.122 64.8984 724.575 64.8516C725.034 64.7995 725.367 64.7135 725.575 64.5937C725.789 64.474 725.896 64.2656 725.896 63.9687V63.9062C725.896 63.1354 725.685 62.5365 725.263 62.1094C724.846 61.6823 724.213 61.4687 723.364 61.4687C722.484 61.4687 721.794 61.6615 721.294 62.0469C720.794 62.4323 720.443 62.8437 720.239 63.2812L718.489 62.6562C718.802 61.9271 719.219 61.3594 719.739 60.9531C720.265 60.5417 720.838 60.2552 721.458 60.0937C722.083 59.9271 722.698 59.8438 723.302 59.8438C723.687 59.8438 724.13 59.8906 724.63 59.9844C725.135 60.0729 725.622 60.2578 726.091 60.5391C726.565 60.8203 726.958 61.2448 727.271 61.8125C727.583 62.3802 727.739 63.1406 727.739 64.0938V72H725.896V70.375H725.802C725.677 70.6354 725.469 70.9141 725.177 71.2109C724.885 71.5078 724.497 71.7604 724.013 71.9687C723.528 72.1771 722.937 72.2813 722.239 72.2813ZM722.521 70.625C723.25 70.625 723.864 70.4818 724.364 70.1953C724.87 69.9089 725.25 69.5391 725.505 69.0859C725.765 68.6328 725.896 68.1562 725.896 67.6562V65.9687C725.818 66.0625 725.646 66.1484 725.38 66.2266C725.12 66.2995 724.818 66.3646 724.474 66.4219C724.135 66.474 723.805 66.5208 723.482 66.5625C723.164 66.599 722.906 66.6302 722.708 66.6562C722.229 66.7187 721.781 66.8203 721.364 66.9609C720.953 67.0964 720.62 67.3021 720.364 67.5781C720.114 67.849 719.989 68.2187 719.989 68.6875C719.989 69.3281 720.226 69.8125 720.7 70.1406C721.18 70.4635 721.786 70.625 722.521 70.625ZM732.948 56V72H731.105V56H732.948ZM737.513 76.5C737.2 76.5 736.922 76.474 736.677 76.4219C736.432 76.375 736.263 76.3281 736.169 76.2813L736.638 74.6563C737.086 74.7708 737.482 74.8125 737.825 74.7812C738.169 74.75 738.474 74.5964 738.739 74.3203C739.01 74.0495 739.258 73.6094 739.482 73L739.825 72.0625L735.388 60H737.388L740.7 69.5625H740.825L744.138 60H746.138L741.044 73.75C740.815 74.3698 740.531 74.8828 740.193 75.2891C739.854 75.7005 739.461 76.0052 739.013 76.2031C738.57 76.401 738.07 76.5 737.513 76.5ZM753.79 60V61.5625H747.571V60H753.79ZM749.384 57.125H751.228V68.5625C751.228 69.0833 751.303 69.474 751.454 69.7344C751.611 69.9896 751.808 70.1615 752.048 70.25C752.293 70.3333 752.551 70.375 752.821 70.375C753.025 70.375 753.191 70.3646 753.321 70.3437C753.452 70.3177 753.556 70.2969 753.634 70.2812L754.009 71.9375C753.884 71.9844 753.709 72.0313 753.486 72.0781C753.262 72.1302 752.978 72.1563 752.634 72.1563C752.113 72.1563 751.603 72.0443 751.103 71.8203C750.608 71.5964 750.196 71.2552 749.868 70.7969C749.545 70.3385 749.384 69.7604 749.384 69.0625V57.125ZM756.564 72V60H758.407V72H756.564ZM757.501 58C757.142 58 756.832 57.8776 756.571 57.6328C756.316 57.388 756.189 57.0938 756.189 56.75C756.189 56.4063 756.316 56.112 756.571 55.8672C756.832 55.6224 757.142 55.5 757.501 55.5C757.861 55.5 758.168 55.6224 758.423 55.8672C758.683 56.112 758.814 56.4063 758.814 56.75C758.814 57.0938 758.683 57.388 758.423 57.6328C758.168 57.8776 757.861 58 757.501 58ZM766.659 72.25C765.534 72.25 764.566 71.9844 763.753 71.4531C762.941 70.9219 762.316 70.1901 761.878 69.2578C761.441 68.3255 761.222 67.2604 761.222 66.0625C761.222 64.8437 761.446 63.7682 761.894 62.8359C762.347 61.8984 762.977 61.1667 763.784 60.6406C764.597 60.1094 765.545 59.8438 766.628 59.8438C767.472 59.8438 768.232 60 768.909 60.3125C769.586 60.625 770.141 61.0625 770.573 61.625C771.006 62.1875 771.274 62.8437 771.378 63.5937H769.534C769.394 63.0469 769.081 62.5625 768.597 62.1406C768.118 61.7135 767.472 61.5 766.659 61.5C765.941 61.5 765.31 61.6875 764.769 62.0625C764.232 62.4323 763.813 62.9557 763.511 63.6328C763.214 64.3047 763.066 65.0937 763.066 66C763.066 66.9271 763.211 67.7344 763.503 68.4219C763.8 69.1094 764.217 69.6432 764.753 70.0234C765.295 70.4036 765.93 70.5938 766.659 70.5938C767.138 70.5938 767.573 70.5104 767.964 70.3437C768.355 70.1771 768.685 69.9375 768.956 69.625C769.227 69.3125 769.42 68.9375 769.534 68.5H771.378C771.274 69.2083 771.016 69.8464 770.605 70.4141C770.198 70.9766 769.659 71.4245 768.987 71.7578C768.321 72.0859 767.545 72.25 766.659 72.25ZM782.573 62.6875L780.917 63.1562C780.813 62.8802 780.659 62.612 780.456 62.3516C780.258 62.0859 779.987 61.8672 779.644 61.6953C779.3 61.5234 778.86 61.4375 778.323 61.4375C777.589 61.4375 776.977 61.6068 776.487 61.9453C776.003 62.2786 775.761 62.7031 775.761 63.2187C775.761 63.6771 775.928 64.0391 776.261 64.3047C776.594 64.5703 777.115 64.7917 777.823 64.9687L779.605 65.4063C780.678 65.6667 781.477 66.0651 782.003 66.6016C782.529 67.1328 782.792 67.8177 782.792 68.6562C782.792 69.3437 782.594 69.9583 782.198 70.5C781.808 71.0417 781.261 71.4688 780.558 71.7813C779.855 72.0938 779.037 72.25 778.105 72.25C776.881 72.25 775.868 71.9844 775.066 71.4531C774.263 70.9219 773.756 70.1458 773.542 69.125L775.292 68.6875C775.459 69.3333 775.774 69.8177 776.237 70.1406C776.706 70.4635 777.318 70.625 778.073 70.625C778.933 70.625 779.615 70.4427 780.12 70.0781C780.631 69.7083 780.886 69.2656 780.886 68.75C780.886 68.3333 780.74 67.9844 780.448 67.7031C780.157 67.4167 779.709 67.2031 779.105 67.0625L777.105 66.5937C776.006 66.3333 775.198 65.9297 774.683 65.3828C774.172 64.8307 773.917 64.1406 773.917 63.3125C773.917 62.6354 774.107 62.0365 774.487 61.5156C774.873 60.9948 775.396 60.5859 776.058 60.2891C776.724 59.9922 777.48 59.8438 778.323 59.8438C779.511 59.8438 780.443 60.1042 781.12 60.625C781.803 61.1458 782.287 61.8333 782.573 62.6875Z"
            fill="black" />
        <path
            d="M816.062 113H577.937C573.554 113 570 116.358 570 120.5V155.5C570 159.642 573.554 163 577.937 163H816.062C820.446 163 824 159.642 824 155.5V120.5C824 116.358 820.446 113 816.062 113Z"
            fill="#F1F2F3" />
        <path
            d="M600.654 136C600.482 135.474 600.255 135.003 599.974 134.586C599.698 134.164 599.367 133.805 598.982 133.508C598.602 133.211 598.169 132.984 597.685 132.828C597.2 132.672 596.669 132.594 596.091 132.594C595.143 132.594 594.281 132.839 593.505 133.328C592.729 133.818 592.112 134.539 591.654 135.492C591.195 136.445 590.966 137.615 590.966 139C590.966 140.385 591.198 141.555 591.661 142.508C592.125 143.461 592.753 144.182 593.544 144.672C594.336 145.161 595.227 145.406 596.216 145.406C597.133 145.406 597.94 145.211 598.638 144.82C599.341 144.424 599.888 143.867 600.279 143.148C600.674 142.424 600.872 141.573 600.872 140.594L601.466 140.719H596.654V139H602.747V140.719C602.747 142.036 602.466 143.182 601.904 144.156C601.346 145.13 600.575 145.885 599.591 146.422C598.612 146.953 597.487 147.219 596.216 147.219C594.799 147.219 593.555 146.885 592.482 146.219C591.414 145.552 590.581 144.604 589.982 143.375C589.388 142.146 589.091 140.687 589.091 139C589.091 137.734 589.26 136.596 589.599 135.586C589.943 134.57 590.427 133.706 591.052 132.992C591.677 132.279 592.417 131.732 593.271 131.352C594.125 130.971 595.065 130.781 596.091 130.781C596.935 130.781 597.721 130.909 598.45 131.164C599.185 131.414 599.838 131.771 600.411 132.234C600.99 132.693 601.471 133.242 601.857 133.883C602.242 134.518 602.508 135.224 602.654 136H600.654ZM610.691 147.25C609.607 147.25 608.657 146.992 607.839 146.477C607.027 145.961 606.391 145.24 605.933 144.312C605.48 143.385 605.253 142.302 605.253 141.062C605.253 139.812 605.48 138.721 605.933 137.789C606.391 136.857 607.027 136.133 607.839 135.617C608.657 135.102 609.607 134.844 610.691 134.844C611.774 134.844 612.722 135.102 613.534 135.617C614.352 136.133 614.988 136.857 615.441 137.789C615.899 138.721 616.128 139.812 616.128 141.062C616.128 142.302 615.899 143.385 615.441 144.312C614.988 145.24 614.352 145.961 613.534 146.477C612.722 146.992 611.774 147.25 610.691 147.25ZM610.691 145.594C611.514 145.594 612.191 145.383 612.722 144.961C613.253 144.539 613.646 143.984 613.902 143.297C614.157 142.609 614.284 141.865 614.284 141.062C614.284 140.26 614.157 139.513 613.902 138.82C613.646 138.128 613.253 137.568 612.722 137.141C612.191 136.714 611.514 136.5 610.691 136.5C609.868 136.5 609.191 136.714 608.659 137.141C608.128 137.568 607.735 138.128 607.48 138.82C607.225 139.513 607.097 140.26 607.097 141.062C607.097 141.865 607.225 142.609 607.48 143.297C607.735 143.984 608.128 144.539 608.659 144.961C609.191 145.383 609.868 145.594 610.691 145.594ZM623.818 147.25C622.734 147.25 621.784 146.992 620.966 146.477C620.154 145.961 619.518 145.24 619.06 144.312C618.607 143.385 618.38 142.302 618.38 141.062C618.38 139.812 618.607 138.721 619.06 137.789C619.518 136.857 620.154 136.133 620.966 135.617C621.784 135.102 622.734 134.844 623.818 134.844C624.901 134.844 625.849 135.102 626.661 135.617C627.479 136.133 628.115 136.857 628.568 137.789C629.026 138.721 629.255 139.812 629.255 141.062C629.255 142.302 629.026 143.385 628.568 144.312C628.115 145.24 627.479 145.961 626.661 146.477C625.849 146.992 624.901 147.25 623.818 147.25ZM623.818 145.594C624.641 145.594 625.318 145.383 625.849 144.961C626.38 144.539 626.773 143.984 627.029 143.297C627.284 142.609 627.411 141.865 627.411 141.062C627.411 140.26 627.284 139.513 627.029 138.82C626.773 138.128 626.38 137.568 625.849 137.141C625.318 136.714 624.641 136.5 623.818 136.5C622.995 136.5 622.318 136.714 621.786 137.141C621.255 137.568 620.862 138.128 620.607 138.82C620.352 139.513 620.224 140.26 620.224 141.062C620.224 141.865 620.352 142.609 620.607 143.297C620.862 143.984 621.255 144.539 621.786 144.961C622.318 145.383 622.995 145.594 623.818 145.594ZM636.913 151.75C636.023 151.75 635.257 151.635 634.616 151.406C633.976 151.182 633.442 150.885 633.015 150.516C632.593 150.151 632.257 149.76 632.007 149.344L633.476 148.313C633.643 148.531 633.853 148.781 634.109 149.062C634.364 149.349 634.713 149.596 635.156 149.805C635.603 150.018 636.189 150.125 636.913 150.125C637.882 150.125 638.682 149.891 639.312 149.422C639.942 148.953 640.257 148.219 640.257 147.219V144.781H640.101C639.965 145 639.773 145.271 639.523 145.594C639.278 145.911 638.924 146.195 638.46 146.445C638.002 146.69 637.382 146.812 636.601 146.812C635.632 146.812 634.762 146.583 633.991 146.125C633.226 145.667 632.619 145 632.171 144.125C631.728 143.25 631.507 142.187 631.507 140.937C631.507 139.708 631.723 138.638 632.156 137.727C632.588 136.81 633.189 136.102 633.96 135.602C634.731 135.096 635.622 134.844 636.632 134.844C637.413 134.844 638.033 134.974 638.491 135.234C638.955 135.49 639.309 135.781 639.554 136.109C639.804 136.432 639.997 136.698 640.132 136.906H640.32V135H642.101V147.344C642.101 148.375 641.866 149.214 641.398 149.859C640.934 150.51 640.309 150.987 639.523 151.289C638.741 151.596 637.872 151.75 636.913 151.75ZM636.851 145.156C637.59 145.156 638.215 144.987 638.726 144.648C639.236 144.31 639.624 143.823 639.89 143.188C640.156 142.552 640.288 141.792 640.288 140.906C640.288 140.042 640.158 139.279 639.898 138.617C639.637 137.956 639.252 137.437 638.741 137.062C638.231 136.687 637.601 136.5 636.851 136.5C636.07 136.5 635.419 136.698 634.898 137.094C634.382 137.49 633.994 138.021 633.734 138.688C633.478 139.354 633.351 140.094 633.351 140.906C633.351 141.74 633.481 142.477 633.741 143.117C634.007 143.753 634.398 144.253 634.913 144.617C635.434 144.977 636.08 145.156 636.851 145.156ZM647.32 131V147H645.476V131H647.32ZM655.728 147.25C654.572 147.25 653.574 146.995 652.736 146.484C651.902 145.969 651.259 145.25 650.806 144.328C650.358 143.401 650.134 142.323 650.134 141.094C650.134 139.865 650.358 138.781 650.806 137.844C651.259 136.901 651.889 136.167 652.697 135.641C653.509 135.109 654.457 134.844 655.54 134.844C656.165 134.844 656.783 134.948 657.392 135.156C658.001 135.365 658.556 135.703 659.056 136.172C659.556 136.635 659.954 137.25 660.251 138.016C660.548 138.781 660.697 139.724 660.697 140.844V141.625H651.447V140.031H658.822C658.822 139.354 658.686 138.75 658.415 138.219C658.15 137.687 657.769 137.268 657.275 136.961C656.785 136.654 656.207 136.5 655.54 136.5C654.806 136.5 654.171 136.682 653.634 137.047C653.103 137.406 652.694 137.875 652.408 138.453C652.121 139.031 651.978 139.651 651.978 140.312V141.375C651.978 142.281 652.134 143.049 652.447 143.68C652.764 144.305 653.204 144.781 653.767 145.109C654.329 145.432 654.983 145.594 655.728 145.594C656.212 145.594 656.65 145.526 657.04 145.391C657.436 145.25 657.777 145.042 658.064 144.766C658.35 144.484 658.572 144.135 658.728 143.719L660.509 144.219C660.322 144.823 660.006 145.354 659.564 145.812C659.121 146.266 658.574 146.62 657.923 146.875C657.272 147.125 656.54 147.25 655.728 147.25ZM669.064 132.719V131H681.064V132.719H676.033V147H674.095V132.719H669.064ZM685.702 147.281C684.942 147.281 684.252 147.138 683.632 146.852C683.012 146.56 682.52 146.141 682.156 145.594C681.791 145.042 681.609 144.375 681.609 143.594C681.609 142.906 681.744 142.349 682.015 141.922C682.286 141.49 682.648 141.151 683.101 140.906C683.554 140.661 684.054 140.479 684.601 140.359C685.153 140.234 685.708 140.135 686.265 140.063C686.994 139.969 687.585 139.898 688.038 139.852C688.497 139.799 688.83 139.714 689.038 139.594C689.252 139.474 689.359 139.266 689.359 138.969V138.906C689.359 138.135 689.148 137.536 688.726 137.109C688.309 136.682 687.676 136.469 686.827 136.469C685.947 136.469 685.257 136.661 684.757 137.047C684.257 137.432 683.906 137.844 683.702 138.281L681.952 137.656C682.265 136.927 682.682 136.359 683.202 135.953C683.728 135.542 684.301 135.255 684.921 135.094C685.546 134.927 686.161 134.844 686.765 134.844C687.15 134.844 687.593 134.891 688.093 134.984C688.598 135.073 689.085 135.258 689.554 135.539C690.028 135.82 690.421 136.245 690.734 136.812C691.046 137.38 691.202 138.141 691.202 139.094V147H689.359V145.375H689.265C689.14 145.635 688.932 145.914 688.64 146.211C688.348 146.508 687.96 146.76 687.476 146.969C686.991 147.177 686.4 147.281 685.702 147.281ZM685.984 145.625C686.713 145.625 687.327 145.482 687.827 145.195C688.333 144.909 688.713 144.539 688.968 144.086C689.228 143.633 689.359 143.156 689.359 142.656V140.969C689.281 141.062 689.109 141.148 688.843 141.227C688.583 141.299 688.281 141.365 687.937 141.422C687.598 141.474 687.268 141.521 686.945 141.562C686.627 141.599 686.369 141.63 686.171 141.656C685.692 141.719 685.244 141.82 684.827 141.961C684.416 142.096 684.083 142.302 683.827 142.578C683.577 142.849 683.452 143.219 683.452 143.687C683.452 144.328 683.689 144.812 684.163 145.141C684.643 145.464 685.249 145.625 685.984 145.625ZM699.411 151.75C698.521 151.75 697.755 151.635 697.115 151.406C696.474 151.182 695.94 150.885 695.513 150.516C695.091 150.151 694.755 149.76 694.505 149.344L695.974 148.313C696.141 148.531 696.352 148.781 696.607 149.062C696.862 149.349 697.211 149.596 697.654 149.805C698.102 150.018 698.687 150.125 699.411 150.125C700.38 150.125 701.18 149.891 701.81 149.422C702.44 148.953 702.755 148.219 702.755 147.219V144.781H702.599C702.463 145 702.271 145.271 702.021 145.594C701.776 145.911 701.422 146.195 700.958 146.445C700.5 146.69 699.88 146.812 699.099 146.812C698.13 146.812 697.26 146.583 696.49 146.125C695.724 145.667 695.117 145 694.669 144.125C694.227 143.25 694.005 142.187 694.005 140.937C694.005 139.708 694.221 138.638 694.654 137.727C695.086 136.81 695.687 136.102 696.458 135.602C697.229 135.096 698.12 134.844 699.13 134.844C699.911 134.844 700.531 134.974 700.99 135.234C701.453 135.49 701.807 135.781 702.052 136.109C702.302 136.432 702.495 136.698 702.63 136.906H702.818V135H704.599V147.344C704.599 148.375 704.365 149.214 703.896 149.859C703.432 150.51 702.807 150.987 702.021 151.289C701.24 151.596 700.37 151.75 699.411 151.75ZM699.349 145.156C700.088 145.156 700.713 144.987 701.224 144.648C701.734 144.31 702.122 143.823 702.388 143.188C702.654 142.552 702.786 141.792 702.786 140.906C702.786 140.042 702.656 139.279 702.396 138.617C702.135 137.956 701.75 137.437 701.24 137.062C700.729 136.687 700.099 136.5 699.349 136.5C698.568 136.5 697.917 136.698 697.396 137.094C696.88 137.49 696.492 138.021 696.232 138.688C695.977 139.354 695.849 140.094 695.849 140.906C695.849 141.74 695.979 142.477 696.24 143.117C696.505 143.753 696.896 144.253 697.411 144.617C697.932 144.977 698.578 145.156 699.349 145.156ZM714.411 131H716.724L722.161 144.281H722.349L727.786 131H730.099V147H728.286V134.844H728.13L723.13 147H721.38L716.38 134.844H716.224V147H714.411V131ZM737.265 147.281C736.505 147.281 735.814 147.138 735.195 146.852C734.575 146.56 734.083 146.141 733.718 145.594C733.353 145.042 733.171 144.375 733.171 143.594C733.171 142.906 733.307 142.349 733.577 141.922C733.848 141.49 734.21 141.151 734.663 140.906C735.116 140.661 735.616 140.479 736.163 140.359C736.715 140.234 737.27 140.135 737.827 140.063C738.557 139.969 739.148 139.898 739.601 139.852C740.059 139.799 740.393 139.714 740.601 139.594C740.814 139.474 740.921 139.266 740.921 138.969V138.906C740.921 138.135 740.71 137.536 740.288 137.109C739.872 136.682 739.239 136.469 738.39 136.469C737.51 136.469 736.82 136.661 736.32 137.047C735.82 137.432 735.468 137.844 735.265 138.281L733.515 137.656C733.827 136.927 734.244 136.359 734.765 135.953C735.291 135.542 735.864 135.255 736.484 135.094C737.109 134.927 737.723 134.844 738.327 134.844C738.713 134.844 739.156 134.891 739.656 134.984C740.161 135.073 740.648 135.258 741.116 135.539C741.59 135.82 741.984 136.245 742.296 136.812C742.609 137.38 742.765 138.141 742.765 139.094V147H740.921V145.375H740.827C740.702 145.635 740.494 145.914 740.202 146.211C739.911 146.508 739.523 146.76 739.038 146.969C738.554 147.177 737.963 147.281 737.265 147.281ZM737.546 145.625C738.275 145.625 738.89 145.482 739.39 145.195C739.895 144.909 740.275 144.539 740.531 144.086C740.791 143.633 740.921 143.156 740.921 142.656V140.969C740.843 141.062 740.671 141.148 740.406 141.227C740.145 141.299 739.843 141.365 739.499 141.422C739.161 141.474 738.83 141.521 738.507 141.562C738.189 141.599 737.932 141.63 737.734 141.656C737.255 141.719 736.807 141.82 736.39 141.961C735.978 142.096 735.645 142.302 735.39 142.578C735.14 142.849 735.015 143.219 735.015 143.687C735.015 144.328 735.252 144.812 735.726 145.141C736.205 145.464 736.812 145.625 737.546 145.625ZM747.974 139.781V147H746.13V135H747.911V136.875H748.068C748.349 136.266 748.776 135.776 749.349 135.406C749.922 135.031 750.661 134.844 751.568 134.844C752.38 134.844 753.091 135.01 753.7 135.344C754.31 135.672 754.784 136.172 755.122 136.844C755.461 137.51 755.63 138.354 755.63 139.375V147H753.786V139.5C753.786 138.557 753.542 137.823 753.052 137.297C752.562 136.766 751.891 136.5 751.036 136.5C750.448 136.5 749.922 136.628 749.458 136.883C749 137.138 748.638 137.51 748.372 138C748.107 138.49 747.974 139.083 747.974 139.781ZM762.531 147.281C761.77 147.281 761.08 147.138 760.46 146.852C759.84 146.56 759.348 146.141 758.984 145.594C758.619 145.042 758.437 144.375 758.437 143.594C758.437 142.906 758.572 142.349 758.843 141.922C759.114 141.49 759.476 141.151 759.929 140.906C760.382 140.661 760.882 140.479 761.429 140.359C761.981 140.234 762.536 140.135 763.093 140.063C763.822 139.969 764.413 139.898 764.866 139.852C765.325 139.799 765.658 139.714 765.866 139.594C766.08 139.474 766.187 139.266 766.187 138.969V138.906C766.187 138.135 765.976 137.536 765.554 137.109C765.137 136.682 764.505 136.469 763.656 136.469C762.775 136.469 762.085 136.661 761.585 137.047C761.085 137.432 760.734 137.844 760.531 138.281L758.781 137.656C759.093 136.927 759.51 136.359 760.031 135.953C760.557 135.542 761.13 135.255 761.749 135.094C762.374 134.927 762.989 134.844 763.593 134.844C763.978 134.844 764.421 134.891 764.921 134.984C765.426 135.073 765.913 135.258 766.382 135.539C766.856 135.82 767.249 136.245 767.562 136.812C767.874 137.38 768.031 138.141 768.031 139.094V147H766.187V145.375H766.093C765.968 145.635 765.76 145.914 765.468 146.211C765.176 146.508 764.788 146.76 764.304 146.969C763.82 147.177 763.228 147.281 762.531 147.281ZM762.812 145.625C763.541 145.625 764.156 145.482 764.656 145.195C765.161 144.909 765.541 144.539 765.796 144.086C766.057 143.633 766.187 143.156 766.187 142.656V140.969C766.109 141.062 765.937 141.148 765.671 141.227C765.411 141.299 765.109 141.365 764.765 141.422C764.426 141.474 764.096 141.521 763.773 141.562C763.455 141.599 763.197 141.63 762.999 141.656C762.52 141.719 762.072 141.82 761.656 141.961C761.244 142.096 760.911 142.302 760.656 142.578C760.406 142.849 760.281 143.219 760.281 143.687C760.281 144.328 760.518 144.812 760.991 145.141C761.471 145.464 762.077 145.625 762.812 145.625ZM776.24 151.75C775.349 151.75 774.583 151.635 773.943 151.406C773.302 151.182 772.768 150.885 772.341 150.516C771.919 150.151 771.583 149.76 771.333 149.344L772.802 148.313C772.969 148.531 773.18 148.781 773.435 149.062C773.69 149.349 774.039 149.596 774.482 149.805C774.93 150.018 775.516 150.125 776.24 150.125C777.208 150.125 778.008 149.891 778.638 149.422C779.268 148.953 779.583 148.219 779.583 147.219V144.781H779.427C779.292 145 779.099 145.271 778.849 145.594C778.604 145.911 778.25 146.195 777.786 146.445C777.328 146.69 776.708 146.812 775.927 146.812C774.958 146.812 774.088 146.583 773.318 146.125C772.552 145.667 771.945 145 771.497 144.125C771.055 143.25 770.833 142.187 770.833 140.937C770.833 139.708 771.049 138.638 771.482 137.727C771.914 136.81 772.516 136.102 773.286 135.602C774.057 135.096 774.948 134.844 775.958 134.844C776.74 134.844 777.359 134.974 777.818 135.234C778.281 135.49 778.635 135.781 778.88 136.109C779.13 136.432 779.323 136.698 779.458 136.906H779.646V135H781.427V147.344C781.427 148.375 781.193 149.214 780.724 149.859C780.26 150.51 779.635 150.987 778.849 151.289C778.068 151.596 777.198 151.75 776.24 151.75ZM776.177 145.156C776.917 145.156 777.542 144.987 778.052 144.648C778.562 144.31 778.95 143.823 779.216 143.188C779.482 142.552 779.615 141.792 779.615 140.906C779.615 140.042 779.484 139.279 779.224 138.617C778.963 137.956 778.578 137.437 778.068 137.062C777.557 136.687 776.927 136.5 776.177 136.5C775.396 136.5 774.745 136.698 774.224 137.094C773.708 137.49 773.32 138.021 773.06 138.688C772.805 139.354 772.677 140.094 772.677 140.906C772.677 141.74 772.807 142.477 773.068 143.117C773.333 143.753 773.724 144.253 774.24 144.617C774.76 144.977 775.406 145.156 776.177 145.156ZM789.833 147.25C788.677 147.25 787.68 146.995 786.841 146.484C786.008 145.969 785.365 145.25 784.911 144.328C784.463 143.401 784.24 142.323 784.24 141.094C784.24 139.865 784.463 138.781 784.911 137.844C785.365 136.901 785.995 136.167 786.802 135.641C787.615 135.109 788.562 134.844 789.646 134.844C790.271 134.844 790.888 134.948 791.497 135.156C792.107 135.365 792.661 135.703 793.161 136.172C793.661 136.635 794.06 137.25 794.357 138.016C794.654 138.781 794.802 139.724 794.802 140.844V141.625H785.552V140.031H792.927C792.927 139.354 792.792 138.75 792.521 138.219C792.255 137.687 791.875 137.268 791.38 136.961C790.891 136.654 790.312 136.5 789.646 136.5C788.911 136.5 788.276 136.682 787.74 137.047C787.208 137.406 786.799 137.875 786.513 138.453C786.227 139.031 786.083 139.651 786.083 140.312V141.375C786.083 142.281 786.24 143.049 786.552 143.68C786.87 144.305 787.31 144.781 787.872 145.109C788.435 145.432 789.088 145.594 789.833 145.594C790.318 145.594 790.755 145.526 791.146 145.391C791.542 145.25 791.883 145.042 792.169 144.766C792.456 144.484 792.677 144.135 792.833 143.719L794.615 144.219C794.427 144.823 794.112 145.354 793.669 145.812C793.227 146.266 792.68 146.62 792.029 146.875C791.378 147.125 790.646 147.25 789.833 147.25ZM797.607 147V135H799.388V136.812H799.513C799.732 136.219 800.128 135.737 800.7 135.367C801.273 134.997 801.919 134.812 802.638 134.812C802.773 134.812 802.943 134.815 803.146 134.82C803.349 134.826 803.503 134.833 803.607 134.844V136.719C803.544 136.703 803.401 136.68 803.177 136.648C802.958 136.612 802.727 136.594 802.482 136.594C801.898 136.594 801.378 136.716 800.919 136.961C800.466 137.201 800.107 137.534 799.841 137.961C799.581 138.383 799.45 138.865 799.45 139.406V147H797.607Z"
            fill="black" />
        <path
            d="M816.062 188H577.937C573.554 188 570 191.358 570 195.5V230.5C570 234.642 573.554 238 577.937 238H816.062C820.446 238 824 234.642 824 230.5V195.5C824 191.358 820.446 188 816.062 188Z"
            fill="#F1F2F3" />
        <path
            d="M619.343 222V206H628.937V207.719H621.28V213.125H628.218V214.844H621.28V222H619.343ZM635.536 222.281C634.776 222.281 634.086 222.138 633.466 221.852C632.846 221.56 632.354 221.141 631.989 220.594C631.625 220.042 631.443 219.375 631.443 218.594C631.443 217.906 631.578 217.349 631.849 216.922C632.12 216.49 632.482 216.151 632.935 215.906C633.388 215.661 633.888 215.479 634.435 215.359C634.987 215.234 635.542 215.135 636.099 215.063C636.828 214.969 637.419 214.898 637.872 214.852C638.331 214.799 638.664 214.714 638.872 214.594C639.086 214.474 639.193 214.266 639.193 213.969V213.906C639.193 213.135 638.982 212.536 638.56 212.109C638.143 211.682 637.51 211.469 636.661 211.469C635.781 211.469 635.091 211.661 634.591 212.047C634.091 212.432 633.739 212.844 633.536 213.281L631.786 212.656C632.099 211.927 632.515 211.359 633.036 210.953C633.562 210.542 634.135 210.255 634.755 210.094C635.38 209.927 635.995 209.844 636.599 209.844C636.984 209.844 637.427 209.891 637.927 209.984C638.432 210.073 638.919 210.258 639.388 210.539C639.862 210.82 640.255 211.245 640.568 211.812C640.88 212.38 641.036 213.141 641.036 214.094V222H639.193V220.375H639.099C638.974 220.635 638.765 220.914 638.474 221.211C638.182 221.508 637.794 221.76 637.31 221.969C636.825 222.177 636.234 222.281 635.536 222.281ZM635.818 220.625C636.547 220.625 637.161 220.482 637.661 220.195C638.167 219.909 638.547 219.539 638.802 219.086C639.062 218.633 639.193 218.156 639.193 217.656V215.969C639.114 216.062 638.943 216.148 638.677 216.227C638.417 216.299 638.114 216.365 637.771 216.422C637.432 216.474 637.101 216.521 636.779 216.562C636.461 216.599 636.203 216.63 636.005 216.656C635.526 216.719 635.078 216.82 634.661 216.961C634.25 217.096 633.917 217.302 633.661 217.578C633.411 217.849 633.286 218.219 633.286 218.687C633.286 219.328 633.523 219.812 633.997 220.141C634.476 220.464 635.083 220.625 635.818 220.625ZM649.277 222.25C648.152 222.25 647.183 221.984 646.37 221.453C645.558 220.922 644.933 220.19 644.495 219.258C644.058 218.326 643.839 217.26 643.839 216.062C643.839 214.844 644.063 213.768 644.511 212.836C644.964 211.898 645.594 211.167 646.402 210.641C647.214 210.109 648.162 209.844 649.245 209.844C650.089 209.844 650.849 210 651.527 210.312C652.204 210.625 652.758 211.062 653.191 211.625C653.623 212.187 653.891 212.844 653.995 213.594H652.152C652.011 213.047 651.698 212.562 651.214 212.141C650.735 211.714 650.089 211.5 649.277 211.5C648.558 211.5 647.928 211.687 647.386 212.062C646.849 212.432 646.43 212.956 646.128 213.633C645.831 214.305 645.683 215.094 645.683 216C645.683 216.927 645.829 217.734 646.12 218.422C646.417 219.109 646.834 219.643 647.37 220.023C647.912 220.404 648.547 220.594 649.277 220.594C649.756 220.594 650.191 220.51 650.581 220.344C650.972 220.177 651.303 219.938 651.573 219.625C651.844 219.312 652.037 218.937 652.152 218.5H653.995C653.891 219.208 653.633 219.846 653.222 220.414C652.816 220.977 652.277 221.424 651.605 221.758C650.938 222.086 650.162 222.25 649.277 222.25ZM661.722 222.25C660.566 222.25 659.568 221.995 658.73 221.484C657.896 220.969 657.253 220.25 656.8 219.328C656.352 218.401 656.128 217.323 656.128 216.094C656.128 214.865 656.352 213.781 656.8 212.844C657.253 211.901 657.883 211.167 658.691 210.641C659.503 210.109 660.451 209.844 661.534 209.844C662.159 209.844 662.777 209.948 663.386 210.156C663.995 210.365 664.55 210.703 665.05 211.172C665.55 211.635 665.948 212.25 666.245 213.016C666.542 213.781 666.691 214.724 666.691 215.844V216.625H657.441V215.031H664.816C664.816 214.354 664.68 213.75 664.409 213.219C664.144 212.687 663.764 212.268 663.269 211.961C662.779 211.654 662.201 211.5 661.534 211.5C660.8 211.5 660.165 211.682 659.628 212.047C659.097 212.406 658.688 212.875 658.402 213.453C658.115 214.031 657.972 214.651 657.972 215.312V216.375C657.972 217.281 658.128 218.049 658.441 218.68C658.758 219.305 659.198 219.781 659.761 220.109C660.323 220.432 660.977 220.594 661.722 220.594C662.206 220.594 662.644 220.526 663.034 220.391C663.43 220.25 663.771 220.042 664.058 219.766C664.344 219.484 664.566 219.135 664.722 218.719L666.503 219.219C666.316 219.823 666.001 220.354 665.558 220.812C665.115 221.266 664.568 221.62 663.917 221.875C663.266 222.125 662.534 222.25 661.722 222.25ZM669.745 222V206H671.589V211.906H671.745C671.881 211.698 672.068 211.432 672.308 211.109C672.553 210.781 672.902 210.49 673.355 210.234C673.813 209.974 674.433 209.844 675.214 209.844C676.224 209.844 677.115 210.096 677.886 210.602C678.657 211.107 679.258 211.823 679.691 212.75C680.123 213.677 680.339 214.771 680.339 216.031C680.339 217.302 680.123 218.404 679.691 219.336C679.258 220.263 678.659 220.982 677.894 221.492C677.128 221.997 676.245 222.25 675.245 222.25C674.474 222.25 673.857 222.122 673.394 221.867C672.93 221.607 672.573 221.312 672.323 220.984C672.073 220.651 671.881 220.375 671.745 220.156H671.527V222H669.745ZM671.558 216C671.558 216.906 671.691 217.706 671.956 218.398C672.222 219.086 672.61 219.625 673.12 220.016C673.631 220.401 674.256 220.594 674.995 220.594C675.766 220.594 676.409 220.391 676.925 219.984C677.446 219.573 677.836 219.021 678.097 218.328C678.362 217.63 678.495 216.854 678.495 216C678.495 215.156 678.365 214.396 678.105 213.719C677.849 213.036 677.461 212.497 676.941 212.102C676.425 211.701 675.777 211.5 674.995 211.5C674.245 211.5 673.615 211.69 673.105 212.07C672.594 212.445 672.209 212.971 671.948 213.648C671.688 214.32 671.558 215.104 671.558 216ZM688.034 222.25C686.951 222.25 686.001 221.992 685.183 221.477C684.37 220.961 683.735 220.24 683.277 219.312C682.823 218.385 682.597 217.302 682.597 216.062C682.597 214.812 682.823 213.721 683.277 212.789C683.735 211.857 684.37 211.133 685.183 210.617C686.001 210.102 686.951 209.844 688.034 209.844C689.118 209.844 690.066 210.102 690.878 210.617C691.696 211.133 692.331 211.857 692.784 212.789C693.243 213.721 693.472 214.812 693.472 216.062C693.472 217.302 693.243 218.385 692.784 219.312C692.331 220.24 691.696 220.961 690.878 221.477C690.066 221.992 689.118 222.25 688.034 222.25ZM688.034 220.594C688.857 220.594 689.534 220.383 690.066 219.961C690.597 219.539 690.99 218.984 691.245 218.297C691.501 217.609 691.628 216.865 691.628 216.062C691.628 215.26 691.501 214.513 691.245 213.82C690.99 213.128 690.597 212.568 690.066 212.141C689.534 211.714 688.857 211.5 688.034 211.5C687.211 211.5 686.534 211.714 686.003 212.141C685.472 212.568 685.079 213.128 684.823 213.82C684.568 214.513 684.441 215.26 684.441 216.062C684.441 216.865 684.568 217.609 684.823 218.297C685.079 218.984 685.472 219.539 686.003 219.961C686.534 220.383 687.211 220.594 688.034 220.594ZM701.161 222.25C700.078 222.25 699.127 221.992 698.31 221.477C697.497 220.961 696.862 220.24 696.404 219.312C695.95 218.385 695.724 217.302 695.724 216.062C695.724 214.812 695.95 213.721 696.404 212.789C696.862 211.857 697.497 211.133 698.31 210.617C699.127 210.102 700.078 209.844 701.161 209.844C702.245 209.844 703.193 210.102 704.005 210.617C704.823 211.133 705.458 211.857 705.911 212.789C706.37 213.721 706.599 214.812 706.599 216.062C706.599 217.302 706.37 218.385 705.911 219.312C705.458 220.24 704.823 220.961 704.005 221.477C703.193 221.992 702.245 222.25 701.161 222.25ZM701.161 220.594C701.984 220.594 702.661 220.383 703.193 219.961C703.724 219.539 704.117 218.984 704.372 218.297C704.627 217.609 704.755 216.865 704.755 216.062C704.755 215.26 704.627 214.513 704.372 213.82C704.117 213.128 703.724 212.568 703.193 212.141C702.661 211.714 701.984 211.5 701.161 211.5C700.338 211.5 699.661 211.714 699.13 212.141C698.599 212.568 698.206 213.128 697.95 213.82C697.695 214.513 697.568 215.26 697.568 216.062C697.568 216.865 697.695 217.609 697.95 218.297C698.206 218.984 698.599 219.539 699.13 219.961C699.661 220.383 700.338 220.594 701.161 220.594ZM711.132 217.625L711.101 215.344H711.476L716.726 210H719.007L713.413 215.656H713.257L711.132 217.625ZM709.413 222V206H711.257V222H709.413ZM717.038 222L712.351 216.062L713.663 214.781L719.382 222H717.038ZM727.818 222V206H733.224C734.479 206 735.505 206.227 736.302 206.68C737.104 207.128 737.698 207.734 738.083 208.5C738.469 209.266 738.661 210.12 738.661 211.062C738.661 212.005 738.469 212.862 738.083 213.633C737.703 214.404 737.114 215.018 736.318 215.477C735.521 215.93 734.5 216.156 733.255 216.156H729.38V214.438H733.193C734.052 214.438 734.742 214.289 735.263 213.992C735.784 213.695 736.161 213.294 736.396 212.789C736.635 212.279 736.755 211.703 736.755 211.062C736.755 210.422 736.635 209.849 736.396 209.344C736.161 208.839 735.781 208.443 735.255 208.156C734.729 207.865 734.031 207.719 733.161 207.719H729.755V222H727.818ZM741.532 222V210H743.376V222H741.532ZM742.47 208C742.111 208 741.801 207.878 741.54 207.633C741.285 207.388 741.157 207.094 741.157 206.75C741.157 206.406 741.285 206.112 741.54 205.867C741.801 205.622 742.111 205.5 742.47 205.5C742.829 205.5 743.137 205.622 743.392 205.867C743.652 206.112 743.782 206.406 743.782 206.75C743.782 207.094 743.652 207.388 743.392 207.633C743.137 207.878 742.829 208 742.47 208ZM748.128 210L751.003 214.906L753.878 210H756.003L752.128 216L756.003 222H753.878L751.003 217.344L748.128 222H746.003L749.816 216L746.003 210H748.128ZM763.171 222.25C762.015 222.25 761.017 221.995 760.179 221.484C759.346 220.969 758.702 220.25 758.249 219.328C757.801 218.401 757.577 217.323 757.577 216.094C757.577 214.865 757.801 213.781 758.249 212.844C758.702 211.901 759.333 211.167 760.14 210.641C760.952 210.109 761.9 209.844 762.984 209.844C763.609 209.844 764.226 209.948 764.835 210.156C765.445 210.365 765.999 210.703 766.499 211.172C766.999 211.635 767.398 212.25 767.695 213.016C767.991 213.781 768.14 214.724 768.14 215.844V216.625H758.89V215.031H766.265C766.265 214.354 766.129 213.75 765.859 213.219C765.593 212.687 765.213 212.268 764.718 211.961C764.228 211.654 763.65 211.5 762.984 211.5C762.249 211.5 761.614 211.682 761.077 212.047C760.546 212.406 760.137 212.875 759.851 213.453C759.564 214.031 759.421 214.651 759.421 215.312V216.375C759.421 217.281 759.577 218.049 759.89 218.68C760.208 219.305 760.648 219.781 761.21 220.109C761.773 220.432 762.426 220.594 763.171 220.594C763.655 220.594 764.093 220.526 764.484 220.391C764.879 220.25 765.221 220.042 765.507 219.766C765.793 219.484 766.015 219.135 766.171 218.719L767.952 219.219C767.765 219.823 767.45 220.354 767.007 220.812C766.564 221.266 766.017 221.62 765.366 221.875C764.715 222.125 763.984 222.25 763.171 222.25ZM772.788 206V222H770.945V206H772.788Z"
            fill="black" />
        <path
            d="M816.062 263H577.937C573.554 263 570 266.358 570 270.5V305.5C570 309.642 573.554 313 577.937 313H816.062C820.446 313 824 309.642 824 305.5V270.5C824 266.358 820.446 263 816.062 263Z"
            fill="#F1F2F3" />
        <path
            d="M683.682 297.25C682.526 297.25 681.528 296.995 680.69 296.484C679.856 295.969 679.213 295.25 678.76 294.328C678.312 293.401 678.088 292.323 678.088 291.094C678.088 289.865 678.312 288.781 678.76 287.844C679.213 286.901 679.843 286.167 680.651 285.641C681.463 285.109 682.411 284.844 683.494 284.844C684.119 284.844 684.736 284.948 685.346 285.156C685.955 285.365 686.51 285.703 687.01 286.172C687.51 286.635 687.908 287.25 688.205 288.016C688.502 288.781 688.651 289.724 688.651 290.844V291.625H679.401V290.031H686.776C686.776 289.354 686.64 288.75 686.369 288.219C686.104 287.687 685.723 287.268 685.229 286.961C684.739 286.654 684.161 286.5 683.494 286.5C682.76 286.5 682.124 286.682 681.588 287.047C681.057 287.406 680.648 287.875 680.361 288.453C680.075 289.031 679.932 289.651 679.932 290.312V291.375C679.932 292.281 680.088 293.049 680.401 293.68C680.718 294.305 681.158 294.781 681.721 295.109C682.283 295.432 682.937 295.594 683.682 295.594C684.166 295.594 684.604 295.526 684.994 295.391C685.39 295.25 685.731 295.042 686.018 294.766C686.304 294.484 686.526 294.135 686.682 293.719L688.463 294.219C688.276 294.823 687.96 295.354 687.518 295.812C687.075 296.266 686.528 296.62 685.877 296.875C685.226 297.125 684.494 297.25 683.682 297.25ZM696.674 285V286.562H690.455V285H696.674ZM692.268 282.125H694.111V293.562C694.111 294.083 694.187 294.474 694.338 294.734C694.494 294.99 694.692 295.161 694.932 295.25C695.177 295.333 695.434 295.375 695.705 295.375C695.908 295.375 696.075 295.365 696.205 295.344C696.335 295.318 696.44 295.297 696.518 295.281L696.893 296.937C696.768 296.984 696.593 297.031 696.369 297.078C696.145 297.13 695.861 297.156 695.518 297.156C694.997 297.156 694.486 297.044 693.986 296.82C693.492 296.596 693.08 296.255 692.752 295.797C692.429 295.339 692.268 294.76 692.268 294.062V282.125ZM704.193 297.25C703.068 297.25 702.1 296.984 701.287 296.453C700.475 295.922 699.85 295.19 699.412 294.258C698.975 293.326 698.756 292.26 698.756 291.062C698.756 289.844 698.98 288.768 699.428 287.836C699.881 286.898 700.511 286.167 701.318 285.641C702.131 285.109 703.079 284.844 704.162 284.844C705.006 284.844 705.766 285 706.443 285.312C707.121 285.625 707.675 286.062 708.108 286.625C708.54 287.187 708.808 287.844 708.912 288.594H707.068C706.928 288.047 706.615 287.562 706.131 287.141C705.652 286.714 705.006 286.5 704.193 286.5C703.475 286.5 702.845 286.687 702.303 287.062C701.766 287.432 701.347 287.956 701.045 288.633C700.748 289.305 700.6 290.094 700.6 291C700.6 291.927 700.746 292.734 701.037 293.422C701.334 294.109 701.751 294.643 702.287 295.023C702.829 295.404 703.464 295.594 704.193 295.594C704.673 295.594 705.108 295.51 705.498 295.344C705.889 295.177 706.22 294.938 706.49 294.625C706.761 294.312 706.954 293.937 707.068 293.5H708.912C708.808 294.208 708.55 294.846 708.139 295.414C707.733 295.977 707.193 296.424 706.522 296.758C705.855 297.086 705.079 297.25 704.193 297.25ZM712.951 297.125C712.566 297.125 712.235 296.987 711.959 296.711C711.683 296.435 711.545 296.104 711.545 295.719C711.545 295.333 711.683 295.003 711.959 294.727C712.235 294.451 712.566 294.312 712.951 294.312C713.337 294.312 713.667 294.451 713.943 294.727C714.22 295.003 714.358 295.333 714.358 295.719C714.358 295.974 714.292 296.208 714.162 296.422C714.037 296.635 713.868 296.807 713.654 296.937C713.446 297.063 713.212 297.125 712.951 297.125Z"
            fill="black" />
        <path
            d="M661.92 20V6.90909H666.343C667.37 6.90909 668.21 7.09446 668.862 7.4652C669.518 7.83168 670.004 8.32812 670.319 8.95455C670.635 9.58097 670.792 10.2798 670.792 11.0511C670.792 11.8224 670.635 12.5234 670.319 13.1541C670.008 13.7848 669.527 14.2876 668.875 14.6626C668.223 15.0334 667.388 15.2188 666.369 15.2188H663.199V13.8125H666.318C667.021 13.8125 667.586 13.6911 668.012 13.4482C668.438 13.2053 668.747 12.8771 668.939 12.4638C669.135 12.0462 669.233 11.5753 669.233 11.0511C669.233 10.527 669.135 10.0582 668.939 9.64489C668.747 9.23153 668.436 8.90767 668.005 8.6733C667.575 8.43466 667.004 8.31534 666.292 8.31534H663.505V20H661.92ZM674.65 6.90909V20H673.141V6.90909H674.65ZM683.6 15.9858V10.1818H685.109V20H683.6V18.3381H683.498C683.268 18.8366 682.91 19.2607 682.424 19.6101C681.938 19.9553 681.325 20.1278 680.583 20.1278C679.97 20.1278 679.424 19.9936 678.947 19.7251C678.47 19.4524 678.095 19.0433 677.822 18.4979C677.549 17.9482 677.413 17.2557 677.413 16.4205V10.1818H678.921V16.3182C678.921 17.0341 679.122 17.6051 679.522 18.0312C679.927 18.4574 680.443 18.6705 681.069 18.6705C681.444 18.6705 681.826 18.5746 682.213 18.3828C682.605 18.1911 682.934 17.897 683.198 17.5007C683.466 17.1044 683.6 16.5994 683.6 15.9858ZM691.835 23.8864C691.106 23.8864 690.48 23.7926 689.956 23.6051C689.432 23.4219 688.995 23.179 688.645 22.8764C688.3 22.5781 688.025 22.2585 687.821 21.9176L689.022 21.0739C689.159 21.2528 689.331 21.4574 689.54 21.6875C689.749 21.9219 690.035 22.1243 690.397 22.2947C690.763 22.4695 691.243 22.5568 691.835 22.5568C692.628 22.5568 693.282 22.3651 693.797 21.9815C694.313 21.598 694.571 20.9972 694.571 20.179V18.1847H694.443C694.332 18.3636 694.174 18.5852 693.97 18.8494C693.77 19.1094 693.48 19.3416 693.101 19.5462C692.726 19.7464 692.218 19.8466 691.579 19.8466C690.787 19.8466 690.075 19.6591 689.444 19.2841C688.818 18.9091 688.321 18.3636 687.955 17.6477C687.593 16.9318 687.412 16.0625 687.412 15.0398C687.412 14.0341 687.589 13.1584 687.942 12.4126C688.296 11.6626 688.788 11.0831 689.419 10.674C690.049 10.2607 690.778 10.054 691.605 10.054C692.244 10.054 692.751 10.1605 693.126 10.3736C693.505 10.5824 693.795 10.821 693.995 11.0895C694.2 11.3537 694.358 11.571 694.468 11.7415H694.622V10.1818H696.079V20.2812C696.079 21.125 695.888 21.8111 695.504 22.3395C695.125 22.8722 694.613 23.2621 693.97 23.5092C693.331 23.7607 692.619 23.8864 691.835 23.8864ZM691.784 18.4915C692.389 18.4915 692.9 18.353 693.318 18.076C693.736 17.799 694.053 17.4006 694.27 16.8807C694.488 16.3608 694.596 15.7386 694.596 15.0142C694.596 14.3068 694.49 13.6825 694.277 13.1413C694.064 12.6001 693.748 12.1761 693.331 11.8693C692.913 11.5625 692.397 11.4091 691.784 11.4091C691.145 11.4091 690.612 11.571 690.186 11.8949C689.764 12.2187 689.446 12.6534 689.233 13.1989C689.025 13.7443 688.92 14.3494 688.92 15.0142C688.92 15.696 689.027 16.299 689.24 16.8232C689.457 17.343 689.777 17.7521 690.199 18.0504C690.625 18.3445 691.153 18.4915 691.784 18.4915ZM698.841 20V10.1818H700.349V20H698.841ZM699.608 8.54545C699.314 8.54545 699.06 8.44531 698.847 8.24503C698.638 8.04474 698.534 7.80398 698.534 7.52273C698.534 7.24148 698.638 7.00071 698.847 6.80043C699.06 6.60014 699.314 6.5 699.608 6.5C699.902 6.5 700.153 6.60014 700.362 6.80043C700.575 7.00071 700.682 7.24148 700.682 7.52273C700.682 7.80398 700.575 8.04474 700.362 8.24503C700.153 8.44531 699.902 8.54545 699.608 8.54545ZM704.621 14.0938V20H703.112V10.1818H704.57V11.7159H704.697C704.927 11.2173 705.277 10.8168 705.746 10.5142C706.214 10.2074 706.82 10.054 707.561 10.054C708.226 10.054 708.807 10.1903 709.306 10.4631C709.805 10.7315 710.192 11.1406 710.469 11.6903C710.746 12.2358 710.885 12.9261 710.885 13.7614V20H709.376V13.8636C709.376 13.0923 709.176 12.4915 708.775 12.0611C708.375 11.6264 707.825 11.4091 707.126 11.4091C706.645 11.4091 706.214 11.5135 705.835 11.7223C705.46 11.9311 705.164 12.2358 704.947 12.6364C704.729 13.0369 704.621 13.5227 704.621 14.0938ZM720.596 12.3807L719.241 12.7642C719.156 12.5384 719.03 12.3189 718.864 12.1058C718.702 11.8885 718.48 11.7095 718.199 11.5689C717.918 11.4283 717.558 11.358 717.119 11.358C716.518 11.358 716.017 11.4964 715.617 11.7734C715.22 12.0462 715.022 12.3935 715.022 12.8153C715.022 13.1903 715.158 13.4865 715.431 13.7038C715.704 13.9212 716.13 14.1023 716.71 14.2472L718.167 14.6051C719.045 14.8182 719.699 15.1442 720.129 15.5831C720.56 16.0178 720.775 16.5781 720.775 17.2642C720.775 17.8267 720.613 18.3295 720.289 18.7727C719.97 19.2159 719.522 19.5653 718.947 19.821C718.372 20.0767 717.703 20.2045 716.94 20.2045C715.938 20.2045 715.109 19.9872 714.453 19.5526C713.797 19.1179 713.381 18.483 713.207 17.6477L714.639 17.2898C714.775 17.8182 715.033 18.2145 715.412 18.4787C715.796 18.7429 716.296 18.875 716.914 18.875C717.617 18.875 718.176 18.7259 718.589 18.4276C719.006 18.125 719.215 17.7628 719.215 17.3409C719.215 17 719.096 16.7145 718.857 16.4844C718.619 16.25 718.252 16.0753 717.758 15.9602L716.122 15.5767C715.222 15.3636 714.562 15.0334 714.14 14.5859C713.722 14.1342 713.514 13.5696 713.514 12.892C713.514 12.3381 713.669 11.848 713.98 11.4219C714.296 10.9957 714.724 10.6612 715.265 10.4183C715.81 10.1754 716.428 10.054 717.119 10.054C718.09 10.054 718.853 10.267 719.407 10.6932C719.965 11.1193 720.362 11.6818 720.596 12.3807Z"
            fill="currentColor" />
    </g>
    <defs>
        <clipPath id="clip0_502_7173">
            <rect width="824" height="313" fill="white" />
        </clipPath>
    </defs>
</svg>