<svg xmlns:i="&amp;#38;ns_ai;" xmlns="http://www.w3.org/2000/svg" width="511.888" height="47.3" viewBox="0 0 511.888 47.3"><switch transform="translate(-135.742 -121.5)"><g i:extraneous="self"><g fill="#fff"><g><path d="M208.542 127.9c-2.7 0-2.7 4.3 0 4.3h31.4c-1.7 7.6-3.4 15.3-5.1 22.9h-28l-11.1-31.8c-.3-.9-1-1.6-2-1.6h-13c-2.7 0-2.7 4.3 0 4.3h11.5l11.1 31.8c1.2 3 2.5 6 3.7 9.1.4.9 1 1.6 2 1.6h24.7c2.7 0 2.7-4.3 0-4.3h-23.3c-.7-1.6-1.3-3.2-2-4.8h28c.9 0 1.8-.6 2-1.6 2-9.1 4-18.1 6-27.2.3-1.3-.6-2.7-2-2.7h-33.9zM159.942 164.3h37.3c2 0 2.9 1 2.9 2.2 0 1.2-.9 2.2-2.9 2.2h-37.3c-2 0-2.8-1-2.8-2.2 0-1.2.9-2.2 2.8-2.2zM192.842 155.7h-17c-1.1 0-2.1-1-2.1-2.1s1-2.1 2.1-2.1h17c1.1 0 2.1 1 2.1 2.1s-1 2.1-2.1 2.1z"/><path d="M182.442 155.7h-17c-1.1 0-2.1-1-2.1-2.1s1-2.1 2.1-2.1h17c1.1 0 2.1 1 2.1 2.1s-1 2.1-2.1 2.1zM158.742 138.3h27.6c2 0 2.8 1 2.8 2.1s-.8 2.1-2.8 2.1h-27.6c-2 .1-3.1-.9-3.1-2.1 0-1.1 1-2.1 3.1-2.1zM138.542 164.3h37.3c2 0 2.9 1 2.9 2.2 0 1.2-.9 2.2-2.9 2.2h-37.3c-2 0-2.8-1-2.8-2.2 0-1.2.8-2.2 2.8-2.2z"/><path d="M142.842 138.3h27.6c2 0 2.8 1 2.8 2.1s-.8 2.1-2.8 2.1h-27.6c-2 .1-3.1-.9-3.1-2.1 0-1.1 1-2.1 3.1-2.1z"/></g><path d="M258.83 168.4h4.5c1.1 0 2-.7 2.2-1.8l4.1-20.9c.2-1 1.1-1.8 2.2-1.8h10.6c.5 0 1-.4 1.1-.9l.6-3.2c.1-.7-.4-1.5-1.1-1.5h-9.4c-1.4 0-2.4-1.1-2.2-2.5l1.4-7.1c.2-1 1.1-1.8 2.2-1.8h13c.5 0 1-.4 1.1-.9l.6-3.2c.1-.7-.4-1.3-1.1-1.3h-19.8c-.5 0-1 .4-1.1.9zm25.2 0h5.4c.5 0 1-.4 1.1-.9l3.2-16.9c1.7-4.5 5.1-6.6 7.8-6.6.6 0 1.3 0 1.8.2.5.1 1.1-.2 1.2-.7l1.4-3.7c.3-.7-.3-1.5-1-1.5h-1.5c-3.5 0-5.9.7-8.2 4.3l-.4 2.1 1-5.2c.1-.6-.4-1.2-1.1-1.2h-4.1c-.5 0-1 .4-1.1.9zm60.4-19.9c0-.2.2-.4.3-.6 2.8-2.8 4.9-4.1 6.8-4.1 2.5 0 3.6 1.3 3.6 3.8 0 .9-.2 1.7-.5 3.1l-3.5 17.7h5.4c.5 0 1-.4 1.1-.9l3.5-17.6c.4-1.6.5-2.7.5-4.1 0-4.7-2-7.4-6.8-7.4-3.6 0-5.7.7-9.4 4.3l.6-3.1c0-.6-.5-1.2-1.1-1.2h-4c-.5 0-1 .4-1.1.9l-5.8 29.2h5.4c.5 0 1-.4 1.1-.9zm23.7 9.3c-.2 1.2-.4 2.3-.4 3.5 0 4.1 2.1 7.2 7.5 7.2 2.1 0 3.9-.5 5.2-1 .5-.2.8-.8.7-1.3l-.6-2.4c-.2-.6-.8-1-1.4-.8-.5.2-1 .3-1.6.3-2.4 0-3.4-1.1-3.4-3.2 0-.7.1-1.4.2-2.1l2.9-14.6h6.2c.5 0 1-.4 1.1-.9l.6-2.9c.1-.7-.4-1.3-1.1-1.3h-5.6l1.3-6.6c.1-.7-.4-1.3-1.1-1.3h-3.1c-.5 0-.9.3-1.1.8l-2.1 7.1h-3.6c-.5 0-.9.4-1 .9l-.8 4.2h4.1zm-52 10.9c7.7 0 15.6-7.5 15.6-18.4 0-7.2-4.2-11.7-10.6-11.7-7.7 0-15.5 7.4-15.5 18.4 0 7.2 4.2 11.7 10.5 11.7zm4.3-24.7c3.3 0 5 2.5 5 6.9 0 7.4-4.2 13.3-8.7 13.3-3.3 0-5.1-2.5-5.1-6.9 0-7.4 4.2-13.3 8.8-13.3zM397.53 150c0 11.3 6.1 18.6 16.3 18.6 5.3 0 9.4-2.3 12.4-4.8.4-.4.5-1 .2-1.4l-2-3c-.4-.5-1.1-.7-1.6-.3-2.3 1.8-4.8 3-7.6 3-7.2 0-10.3-5.1-10.3-12.7 0-10.5 6.4-21.3 15.4-21.3 2.6 0 4.5 1.3 6.1 3.5.4.5 1.1.6 1.6.2l3.3-2.6c.4-.3.6-1 .3-1.4-2.4-3.7-6.1-6.1-10.9-6.1-13.5 0-23.2 13.3-23.2 28.3zm61.9 18.6h5.4c.5 0 1-.4 1.1-.9l3.7-19.1c2.9-3.2 5.4-4.5 6.9-4.5 2.3 0 3.5 1.3 3.5 3.8 0 .9-.2 1.7-.5 3.1l-3.5 17.7h5.4c.5 0 1-.4 1.1-.9l3.8-19.1c2.9-3.2 5.4-4.5 6.9-4.5 2.4 0 3.5 1.3 3.5 3.8 0 .9-.2 1.7-.5 3.1l-3.5 17.7h5.4c.5 0 1-.4 1.1-.9l3.5-17.6c.3-1.6.5-2.7.5-4.1 0-4.7-2.1-7.4-6.8-7.4-3.1 0-6.6 2.2-10 5.4-.6-3.2-2.2-5.4-6.7-5.4-3.1 0-6.7 2.2-9.6 4.8l.2-2.9c0-.6-.5-1.2-1.1-1.2h-3c-.5 0-1 .4-1.1.9zm45.1 0h5.4c.5 0 1-.4 1.1-.9l3.7-19.1c2.9-3.2 5.4-4.5 6.9-4.5 2.3 0 3.5 1.3 3.5 3.8 0 .9-.2 1.7-.5 3.1l-3.5 17.7h5.4c.5 0 1-.4 1.1-.9l3.8-19.1c2.9-3.2 5.4-4.5 6.9-4.5 2.4 0 3.5 1.3 3.5 3.8 0 .9-.2 1.7-.5 3.1l-3.5 17.7h5.4c.5 0 1-.4 1.1-.9l3.5-17.6c.3-1.6.5-2.7.5-4.1 0-4.7-2.1-7.4-6.8-7.4-3.1 0-6.6 2.2-10 5.4-.6-3.2-2.2-5.4-6.7-5.4-3.1 0-6.7 2.2-9.6 4.8l.2-2.9c0-.6-.5-1.2-1.1-1.2h-3c-.5 0-1 .4-1.1.9zm48.1-12.2c0 7.7 4.6 12.1 11.3 12.1 3.5 0 6.5-1.1 8.7-2.4.5-.3.7-1 .4-1.5l-1.2-2.1c-.3-.6-1-.7-1.6-.4-1.4.9-3.2 1.6-4.8 1.6-4 0-7.2-2.3-7-7.5 0-.6.5-1.1 1.1-1.1h15.4c.5 0 .9-.3 1-.7.4-1.2.9-3.3.9-5.3 0-5.9-2.4-10.5-9-10.5-7.3-.1-15.2 7.2-15.2 17.8zm8-5.2c-.8 0-1.3-.8-1-1.5 1.6-4 4.6-6.3 7.6-6.3 3.4 0 4.6 2.5 4.6 5.3 0 .6 0 1.1-.1 1.6s-.5.9-1.1.9zm62.8 5.2c0 7.7 4.6 12.1 11.3 12.1 3.5 0 6.5-1.1 8.7-2.4.5-.3.7-1 .4-1.5l-1.2-2.1c-.3-.6-1-.7-1.6-.4-1.4.9-3.2 1.6-4.8 1.6-4 0-7.2-2.3-7-7.5 0-.6.5-1.1 1.1-1.1h15.4c.5 0 .9-.3 1-.7.4-1.2.9-3.3.9-5.3 0-5.9-2.4-10.5-9-10.5-7.3-.1-15.2 7.2-15.2 17.8zm8-5.2c-.8 0-1.3-.8-1-1.5 1.6-4 4.6-6.3 7.6-6.3 3.4 0 4.6 2.5 4.6 5.3 0 .6 0 1.1-.1 1.6s-.5.9-1.1.9zm-31 5.7c0 7.4 4.5 11.7 10.7 11.7 3.7 0 6.3-1.3 8.3-2.7.5-.3.6-1 .3-1.5l-1.4-2.1c-.3-.5-1-.6-1.6-.3-1.2.9-2.7 1.5-4.4 1.5-3.8 0-5.7-2.5-5.7-6.8 0-7.1 4.4-13.1 9.5-13.1 1.5 0 2.5.4 3.6 1.4.5.4 1.2.4 1.6 0l2-2.2c.4-.4.4-1.1 0-1.5-1.5-1.5-3.7-2.7-6.7-2.7-8.8-.1-16.2 8-16.2 18.3zm-159 11.7c7.7 0 15.6-7.5 15.6-18.4 0-7.2-4.2-11.7-10.6-11.7-7.7 0-15.5 7.4-15.5 18.4 0 7.1 4.2 11.7 10.5 11.7zm4.3-24.7c3.3 0 5 2.5 5 6.9 0 7.4-4.2 13.3-8.7 13.3-3.3 0-5.1-2.5-5.1-6.9 0-7.5 4.2-13.3 8.8-13.3zm133.3 24.7h5.4c.5 0 1-.4 1.1-.9l3.2-16.9c1.7-4.5 5.1-6.6 7.8-6.6.6 0 1.3 0 1.8.2.5.1 1.1-.2 1.2-.7l1.4-3.7c.3-.7-.3-1.5-1-1.5h-1.5c-3.5 0-5.9.7-8.2 4.3l-.4 2.1 1-5.2c.1-.6-.4-1.2-1.1-1.2h-4.1c-.5 0-1 .4-1.1.9z"/></g></g></switch></svg>