<svg id="fcLogo" xmlns="http://www.w3.org/2000/svg" width="224.506" height="88.481" viewBox="0 0 224.506 88.481">
  <g id="Group_3" data-name="Group 3" transform="translate(-682.381 -204.772)">
    <g id="Group_2" data-name="Group 2">
      <path id="Path_3" data-name="Path 3" d="M739.828,237.949l19.18-11.057-38.313-22.12-38.313,22.12v44.241l19.2,11.086-.024-22.176,19.134,11.047,0-22.077L701.56,237.949,720.694,226.9Z" />
      <path id="Path_4" data-name="Path 4" d="M739.828,260.044l19.18,11.09-38.313,22.12V271.091Z" />
    </g>
  </g>
  <g id="Group_8" data-name="Group 8" transform="translate(-682.381 -204.772)">
    <g id="Group_6" data-name="Group 6">
      <g id="Group_5" data-name="Group 5">
        <g id="Group_4" data-name="Group 4">
          <path id="Path_5" data-name="Path 5" d="M770.783,245.769V231.475h9.8V234.9h-5.879v2.375H779.5v3.181h-4.792v5.315Z" />
          <path id="Path_6" data-name="Path 6" d="M785.439,245.769V231.475H792a4.352,4.352,0,0,1,1.933.433,5.011,5.011,0,0,1,1.52,1.128,5.271,5.271,0,0,1,1,1.59,4.786,4.786,0,0,1,.362,1.8,5.089,5.089,0,0,1-.543,2.325,4.739,4.739,0,0,1-1.51,1.762l3.02,5.254h-4.43l-2.516-4.388h-1.47v4.388Zm3.926-7.811h2.476a.868.868,0,0,0,.675-.4,1.8,1.8,0,0,0,.312-1.127,1.621,1.621,0,0,0-.362-1.137,1.018,1.018,0,0,0-.725-.393h-2.376Z" />
          <path id="Path_7" data-name="Path 7" d="M808.611,245.89a6.876,6.876,0,0,1-2.959-.624,7.318,7.318,0,0,1-2.275-1.641,7.4,7.4,0,0,1-1.469-2.325,7.18,7.18,0,0,1-.524-2.7,7.005,7.005,0,0,1,.544-2.718,7.2,7.2,0,0,1,1.52-2.306,7.4,7.4,0,0,1,2.315-1.59,7.136,7.136,0,0,1,2.929-.594,6.88,6.88,0,0,1,2.96.624,7.243,7.243,0,0,1,2.274,1.651,7.409,7.409,0,0,1,1.46,2.335,7.28,7.28,0,0,1,.513,2.678,6.951,6.951,0,0,1-.543,2.708,7.321,7.321,0,0,1-3.815,3.895A7.038,7.038,0,0,1,808.611,245.89Zm-3.241-7.247a4.84,4.84,0,0,0,.2,1.4,3.643,3.643,0,0,0,.6,1.2,3.037,3.037,0,0,0,1.016.845,3.443,3.443,0,0,0,2.929-.01,2.981,2.981,0,0,0,1.017-.865,3.731,3.731,0,0,0,.584-1.219,5.147,5.147,0,0,0,.191-1.388,4.875,4.875,0,0,0-.2-1.4,3.459,3.459,0,0,0-.614-1.188,3.106,3.106,0,0,0-1.027-.825,3.138,3.138,0,0,0-1.44-.312,3.1,3.1,0,0,0-1.459.322,3,3,0,0,0-1.017.856,3.637,3.637,0,0,0-.594,1.208A5.052,5.052,0,0,0,805.37,238.643Z" />
          <path id="Path_8" data-name="Path 8" d="M824.818,238.743v7.026h-3.926V231.475h3.06l5.738,7.268v-7.268h3.926v14.294h-3.121Z" />
          <path id="Path_9" data-name="Path 9" d="M850.527,234.9H846.42v10.871h-3.926V234.9h-4.127v-3.423h12.16Z" />
        </g>
      </g>
      <path id="Path_10" data-name="Path 10" d="M860.886,236.113l-5.47,3.1v4.219l5.47-3.1Z" />
    </g>
    <g id="Group_7" data-name="Group 7">
      <path id="Path_11" data-name="Path 11" d="M769.847,262.7a7.137,7.137,0,0,1,1.933-4.853,7.357,7.357,0,0,1,2.295-1.63,7.95,7.95,0,0,1,6.674.231,5.585,5.585,0,0,1,2.265,2.265l-3,2.134a2.522,2.522,0,0,0-.533-.865,2.728,2.728,0,0,0-.735-.544,3.171,3.171,0,0,0-.836-.282,4.618,4.618,0,0,0-.835-.08,2.928,2.928,0,0,0-2.466,1.2,3.717,3.717,0,0,0-.584,1.207,4.876,4.876,0,0,0-.191,1.339,4.608,4.608,0,0,0,.221,1.43,3.767,3.767,0,0,0,.644,1.208,3.155,3.155,0,0,0,1.037.835,2.987,2.987,0,0,0,1.379.312,3.961,3.961,0,0,0,.826-.09,3.054,3.054,0,0,0,.815-.3,2.753,2.753,0,0,0,.705-.543,2.412,2.412,0,0,0,.493-.816l3.2,1.913a4.065,4.065,0,0,1-.977,1.41,6.192,6.192,0,0,1-1.489,1.046,7.921,7.921,0,0,1-1.792.645,8.278,8.278,0,0,1-1.862.221,6.618,6.618,0,0,1-2.909-.634,7.363,7.363,0,0,1-2.275-1.681,7.643,7.643,0,0,1-1.48-2.376A7.3,7.3,0,0,1,769.847,262.7Z" />
      <path id="Path_12" data-name="Path 12" d="M794.087,270.093a6.88,6.88,0,0,1-2.96-.624,7.329,7.329,0,0,1-2.275-1.641,7.442,7.442,0,0,1-1.469-2.325,7.2,7.2,0,0,1-.524-2.7,7.011,7.011,0,0,1,.544-2.718,7.209,7.209,0,0,1,1.52-2.3,7.412,7.412,0,0,1,2.315-1.59,7.143,7.143,0,0,1,2.929-.594,6.88,6.88,0,0,1,2.96.624,7.235,7.235,0,0,1,2.275,1.651,7.414,7.414,0,0,1,1.459,2.335,7.262,7.262,0,0,1,.514,2.678,6.938,6.938,0,0,1-.544,2.708,7.329,7.329,0,0,1-1.51,2.294,7.426,7.426,0,0,1-2.3,1.6A7.037,7.037,0,0,1,794.087,270.093Zm-3.241-7.248a4.834,4.834,0,0,0,.2,1.4,3.66,3.66,0,0,0,.6,1.2,3.049,3.049,0,0,0,1.016.845,3.446,3.446,0,0,0,2.93-.01,2.959,2.959,0,0,0,1.016-.866,3.7,3.7,0,0,0,.584-1.218,5.115,5.115,0,0,0,.191-1.389,4.875,4.875,0,0,0-.2-1.4,3.45,3.45,0,0,0-.614-1.188,3.1,3.1,0,0,0-1.027-.825,3.137,3.137,0,0,0-1.439-.312,3.1,3.1,0,0,0-1.46.322,2.987,2.987,0,0,0-1.016.856,3.6,3.6,0,0,0-.594,1.207A5.012,5.012,0,0,0,790.846,262.845Z" />
      <path id="Path_13" data-name="Path 13" d="M817.179,269.972v-7.529l-2.4,5.3h-2.094l-2.4-5.3v7.529h-3.926V255.678h4.289l3.08,6.725,3.1-6.725H821.1v14.294Z" />
      <path id="Path_14" data-name="Path 14" d="M837.693,269.972v-7.529l-2.4,5.3H833.2l-2.4-5.3v7.529h-3.926V255.678h4.288l3.08,6.725,3.1-6.725h4.268v14.294Z" />
      <path id="Path_15" data-name="Path 15" d="M857.583,266.55v3.422H847.4V255.678H857.4V259.1h-6.08v2.013h5.2V264.3h-5.2v2.255Z" />
      <path id="Path_16" data-name="Path 16" d="M862.737,269.972V255.678H869.3a4.352,4.352,0,0,1,1.933.433,5.049,5.049,0,0,1,1.52,1.127,5.275,5.275,0,0,1,1,1.591,4.781,4.781,0,0,1,.362,1.8,5.076,5.076,0,0,1-.544,2.325,4.738,4.738,0,0,1-1.51,1.762l3.02,5.254h-4.429l-2.516-4.389h-1.47v4.389Zm3.926-7.811h2.476a.87.87,0,0,0,.675-.4,1.8,1.8,0,0,0,.312-1.127,1.62,1.62,0,0,0-.363-1.138,1.012,1.012,0,0,0-.724-.392h-2.376Z" />
      <path id="Path_17" data-name="Path 17" d="M878.682,262.7a7.13,7.13,0,0,1,1.932-4.853,7.357,7.357,0,0,1,2.295-1.63,7.95,7.95,0,0,1,6.674.231,5.574,5.574,0,0,1,2.265,2.265l-3,2.134a2.54,2.54,0,0,0-.534-.865,2.7,2.7,0,0,0-.735-.544,3.177,3.177,0,0,0-.835-.282,4.638,4.638,0,0,0-.836-.08,2.928,2.928,0,0,0-2.466,1.2,3.739,3.739,0,0,0-.584,1.207,4.916,4.916,0,0,0-.191,1.339,4.639,4.639,0,0,0,.221,1.43,3.749,3.749,0,0,0,.645,1.208,3.14,3.14,0,0,0,1.036.835,2.99,2.99,0,0,0,1.379.312,3.962,3.962,0,0,0,.826-.09,3.055,3.055,0,0,0,.815-.3,2.754,2.754,0,0,0,.7-.543,2.413,2.413,0,0,0,.493-.816l3.2,1.913a4.076,4.076,0,0,1-.976,1.41,6.217,6.217,0,0,1-1.49,1.046,7.9,7.9,0,0,1-1.792.645,8.272,8.272,0,0,1-1.862.221,6.618,6.618,0,0,1-2.909-.634,7.364,7.364,0,0,1-2.275-1.681,7.642,7.642,0,0,1-1.48-2.376A7.3,7.3,0,0,1,878.682,262.7Z" />
      <path id="Path_18" data-name="Path 18" d="M906.887,266.55v3.422H896.7V255.678h10.006V259.1h-6.08v2.013h5.194V264.3h-5.194v2.255Z" />
    </g>
  </g>
</svg>
