<?xml version="1.0" encoding="UTF-8" standalone="no"?>
<!-- Created with Inkscape (http://www.inkscape.org/) -->

<svg xmlns:dc="http://purl.org/dc/elements/1.1/"
  xmlns:cc="http://creativecommons.org/ns#"
  xmlns:rdf="http://www.w3.org/1999/02/22-rdf-syntax-ns#"
  xmlns:svg="http://www.w3.org/2000/svg"
  xmlns="http://www.w3.org/2000/svg"
  xmlns:sodipodi="http://sodipodi.sourceforge.net/DTD/sodipodi-0.dtd"
  xmlns:inkscape="http://www.inkscape.org/namespaces/inkscape" version="1.1" id="svg3802" xml:space="preserve" width="317.29825" height="87.848267" viewBox="0 0 317.29825 87.848266" sodipodi:docname="LOGOTYPE_NOIR_horizontal_frontcommerce.svg" inkscape:version="0.92.5 (2060ec1f9f, 2020-04-08)">
  <metadata id="metadata3808">
    <rdf:RDF>
      <cc:Work rdf:about="">
        <dc:format>image/svg+xml</dc:format>
        <dc:type rdf:resource="http://purl.org/dc/dcmitype/StillImage" />
        <dc:title></dc:title>
      </cc:Work>
    </rdf:RDF>
  </metadata>
  <defs id="defs3806">
    <clipPath clipPathUnits="userSpaceOnUse" id="clipPath3830">
      <path d="M 0,128 H 300 V 0 H 0 Z" id="path3828" inkscape:connector-curvature="0" />
    </clipPath>
  </defs>
  <sodipodi:namedview pagecolor="#ffffff" bordercolor="#666666" borderopacity="1" objecttolerance="10" gridtolerance="10" guidetolerance="10" inkscape:pageopacity="0" inkscape:pageshadow="2" inkscape:window-width="1916" inkscape:window-height="1041" id="namedview3804" showgrid="false" inkscape:zoom="4.395" inkscape:cx="158.55093" inkscape:cy="44.279335" inkscape:window-x="1440" inkscape:window-y="238" inkscape:window-maximized="0" inkscape:current-layer="g3810" />
  <g id="g3810" inkscape:groupmode="layer" inkscape:label="LOGOTYPE_NOIR_horizontal_frontcommerce" transform="matrix(1.3333333,0,0,-1.3333333,-41.449066,128.90226)">
    <g id="g3812" transform="translate(73.8638,71.9717)">
      <path d="M 0,0 14.282,8.233 -14.247,24.705 -42.777,8.233 V -24.71 l 14.299,-8.256 -0.018,16.514 14.248,-8.227 0.002,16.44 -14.25,8.239 14.248,8.226 z" style="fill:#FFFFFF;fill-opacity:1;fill-rule:nonzero;stroke:none" id="path3814" inkscape:connector-curvature="0" />
    </g>
    <g id="g3816" transform="translate(73.8638,55.5195)">
      <path d="m 0,0 14.282,-8.258 -28.529,-16.471 -10e-4,16.502 z" style="fill:#FFFFFF;fill-opacity:1;fill-rule:nonzero;stroke:none" id="path3818" inkscape:connector-curvature="0" />
    </g>
    <g id="g3820" transform="translate(96.2178,58.4268)">
      <path d="M 0,0 V 10.644 H 7.3 V 8.095 H 2.923 V 6.326 H 6.491 V 3.958 H 2.923 V 0 Z" style="fill:#FFFFFF;fill-opacity:1;fill-rule:nonzero;stroke:none" id="path3822" inkscape:connector-curvature="0" />
    </g>
    <g id="g3824">
      <g id="g3826" clip-path="url(#clipPath3830)">
        <g id="g3832" transform="translate(110.0542,64.2427)">
          <path d="m 0,0 h 1.844 c 0.18,0 0.347,0.1 0.502,0.3 0.155,0.2 0.233,0.48 0.233,0.839 0,0.37 -0.09,0.653 -0.27,0.847 -0.18,0.196 -0.36,0.293 -0.54,0.293 H 0 Z M -2.923,-5.816 V 4.828 H 1.964 C 2.483,4.828 2.963,4.72 3.403,4.505 3.843,4.29 4.22,4.01 4.535,3.666 4.85,3.321 5.097,2.926 5.277,2.481 5.457,2.037 5.547,1.589 5.547,1.139 5.547,0.52 5.412,-0.058 5.142,-0.592 4.873,-1.127 4.498,-1.564 4.018,-1.904 L 6.267,-5.816 H 2.968 L 1.095,-2.548 H 0 v -3.268 z" style="fill:#FFFFFF;fill-opacity:1;fill-rule:nonzero;stroke:none" id="path3834" inkscape:connector-curvature="0" />
        </g>
        <g id="g3836" transform="translate(121.9722,63.7329)">
          <path d="m 0,0 c 0,-0.359 0.05,-0.707 0.15,-1.042 0.1,-0.334 0.249,-0.632 0.45,-0.892 0.2,-0.26 0.452,-0.47 0.757,-0.629 0.305,-0.16 0.667,-0.24 1.087,-0.24 0.419,0 0.784,0.082 1.094,0.247 0.31,0.165 0.562,0.38 0.757,0.644 0.195,0.266 0.34,0.568 0.435,0.908 0.095,0.339 0.142,0.684 0.142,1.034 0,0.36 -0.05,0.707 -0.15,1.042 C 4.623,1.407 4.47,1.702 4.265,1.957 4.06,2.211 3.805,2.416 3.5,2.571 3.196,2.726 2.838,2.803 2.429,2.803 2.009,2.803 1.646,2.724 1.342,2.564 1.037,2.404 0.785,2.191 0.584,1.927 0.385,1.662 0.237,1.362 0.143,1.027 0.047,0.692 0,0.35 0,0 m 2.414,-5.397 c -0.81,0 -1.544,0.155 -2.204,0.465 -0.66,0.31 -1.225,0.717 -1.694,1.222 -0.47,0.504 -0.835,1.082 -1.094,1.732 -0.26,0.649 -0.39,1.319 -0.39,2.008 0,0.699 0.135,1.374 0.405,2.024 0.27,0.65 0.646,1.222 1.131,1.717 0.485,0.494 1.059,0.889 1.724,1.184 0.665,0.295 1.392,0.442 2.182,0.442 0.809,0 1.544,-0.155 2.203,-0.464 0.66,-0.31 1.224,-0.72 1.694,-1.23 C 6.841,3.193 7.204,2.614 7.458,1.964 7.713,1.314 7.84,0.65 7.84,-0.03 7.84,-0.729 7.706,-1.401 7.436,-2.046 7.166,-2.691 6.791,-3.26 6.312,-3.754 5.832,-4.25 5.259,-4.647 4.595,-4.947 3.93,-5.247 3.203,-5.397 2.414,-5.397" style="fill:#FFFFFF;fill-opacity:1;fill-rule:nonzero;stroke:none" id="path3838" inkscape:connector-curvature="0" />
        </g>
        <g id="g3840" transform="translate(136.4536,63.6582)">
          <path d="M 0,0 V -5.231 H -2.923 V 5.412 h 2.278 L 3.628,0 V 5.412 H 6.551 V -5.231 H 4.228 Z" style="fill:#FFFFFF;fill-opacity:1;fill-rule:nonzero;stroke:none" id="path3842" inkscape:connector-curvature="0" />
        </g>
        <g id="g3844" transform="translate(155.5977,66.5215)">
          <path d="M 0,0 H -3.059 V -8.095 H -5.982 V 0 H -9.055 V 2.549 H 0 Z" style="fill:#FFFFFF;fill-opacity:1;fill-rule:nonzero;stroke:none" id="path3846" inkscape:connector-curvature="0" />
        </g>
        <g id="g3848" transform="translate(167.0166,63.8379)">
          <path d="m 0,0 c 0,0.649 0.122,1.29 0.367,1.919 0.244,0.63 0.602,1.194 1.071,1.694 0.47,0.5 1.041,0.905 1.709,1.215 0.67,0.309 1.435,0.464 2.294,0.464 1.03,0 1.921,-0.212 2.676,-0.637 C 8.872,4.23 9.435,3.668 9.804,2.969 L 7.57,1.379 C 7.471,1.639 7.338,1.854 7.173,2.024 7.008,2.194 6.826,2.329 6.626,2.429 6.426,2.529 6.219,2.599 6.004,2.639 5.789,2.678 5.581,2.698 5.382,2.698 4.962,2.698 4.6,2.616 4.295,2.451 3.99,2.287 3.74,2.071 3.545,1.807 3.351,1.542 3.205,1.242 3.11,0.907 3.016,0.572 2.968,0.24 2.968,-0.09 c 0,-0.369 0.054,-0.724 0.165,-1.064 0.11,-0.34 0.27,-0.639 0.479,-0.9 0.21,-0.259 0.468,-0.467 0.773,-0.622 0.304,-0.155 0.646,-0.232 1.027,-0.232 0.199,0 0.404,0.022 0.614,0.067 0.21,0.045 0.412,0.12 0.608,0.226 0.194,0.104 0.369,0.239 0.524,0.404 0.155,0.165 0.278,0.367 0.367,0.607 L 9.909,-3.028 C 9.749,-3.418 9.507,-3.768 9.182,-4.077 8.857,-4.387 8.487,-4.647 8.072,-4.856 7.657,-5.066 7.213,-5.227 6.738,-5.337 6.264,-5.446 5.802,-5.502 5.352,-5.502 4.562,-5.502 3.84,-5.345 3.186,-5.029 2.53,-4.715 1.966,-4.297 1.491,-3.777 1.017,-3.258 0.649,-2.668 0.39,-2.009 0.13,-1.349 0,-0.68 0,0" style="fill:#FFFFFF;fill-opacity:1;fill-rule:nonzero;stroke:none" id="path3850" inkscape:connector-curvature="0" />
        </g>
        <g id="g3852" transform="translate(182.6523,63.7329)">
          <path d="m 0,0 c 0,-0.359 0.05,-0.707 0.15,-1.042 0.1,-0.334 0.249,-0.632 0.45,-0.892 0.2,-0.26 0.452,-0.47 0.756,-0.629 0.305,-0.16 0.667,-0.24 1.087,-0.24 0.42,0 0.785,0.082 1.095,0.247 0.31,0.165 0.562,0.38 0.757,0.644 0.195,0.266 0.34,0.568 0.434,0.908 0.095,0.339 0.143,0.684 0.143,1.034 0,0.36 -0.05,0.707 -0.149,1.042 C 4.622,1.407 4.47,1.702 4.265,1.957 4.06,2.211 3.805,2.416 3.5,2.571 3.195,2.726 2.838,2.803 2.429,2.803 2.009,2.803 1.646,2.724 1.342,2.564 1.037,2.404 0.784,2.191 0.585,1.927 0.385,1.662 0.237,1.362 0.143,1.027 0.047,0.692 0,0.35 0,0 m 2.413,-5.397 c -0.809,0 -1.544,0.155 -2.203,0.465 -0.66,0.31 -1.225,0.717 -1.694,1.222 -0.47,0.504 -0.834,1.082 -1.094,1.732 -0.261,0.649 -0.391,1.319 -0.391,2.008 0,0.699 0.136,1.374 0.406,2.024 0.269,0.65 0.646,1.222 1.131,1.717 0.485,0.494 1.059,0.889 1.724,1.184 0.665,0.295 1.392,0.442 2.182,0.442 0.809,0 1.544,-0.155 2.204,-0.464 C 5.337,4.623 5.901,4.213 6.371,3.703 6.841,3.193 7.203,2.614 7.458,1.964 7.713,1.314 7.84,0.65 7.84,-0.03 7.84,-0.729 7.705,-1.401 7.436,-2.046 7.166,-2.691 6.791,-3.26 6.312,-3.754 5.831,-4.25 5.259,-4.647 4.595,-4.947 3.93,-5.247 3.203,-5.397 2.413,-5.397" style="fill:#FFFFFF;fill-opacity:1;fill-rule:nonzero;stroke:none" id="path3854" inkscape:connector-curvature="0" />
        </g>
        <g id="g3856" transform="translate(202.2607,58.4268)">
          <path d="M 0,0 V 5.606 L -1.784,1.663 H -3.343 L -5.127,5.606 V 0 h -2.924 v 10.644 h 3.194 l 2.294,-5.008 2.308,5.008 H 2.924 V 0 Z" style="fill:#FFFFFF;fill-opacity:1;fill-rule:nonzero;stroke:none" id="path3858" inkscape:connector-curvature="0" />
        </g>
        <g id="g3860" transform="translate(217.5361,58.4268)">
          <path d="M 0,0 V 5.606 L -1.783,1.663 h -1.56 L -5.127,5.606 V 0 H -8.05 v 10.644 h 3.194 l 2.293,-5.008 2.309,5.008 H 2.924 V 0 Z" style="fill:#FFFFFF;fill-opacity:1;fill-rule:nonzero;stroke:none" id="path3862" inkscape:connector-curvature="0" />
        </g>
        <g id="g3864" transform="translate(232.3477,60.9746)">
          <path d="M 0,0 V -2.548 H -7.586 V 8.096 h 7.451 V 5.547 H -4.662 V 4.048 h 3.867 V 1.679 H -4.662 V 0 Z" style="fill:#FFFFFF;fill-opacity:1;fill-rule:nonzero;stroke:none" id="path3866" inkscape:connector-curvature="0" />
        </g>
        <g id="g3868" transform="translate(239.1084,64.2427)">
          <path d="m 0,0 h 1.844 c 0.18,0 0.347,0.1 0.503,0.3 0.154,0.2 0.231,0.48 0.231,0.839 0,0.37 -0.09,0.653 -0.269,0.847 C 2.129,2.182 1.949,2.279 1.77,2.279 H 0 Z M -2.923,-5.816 V 4.828 H 1.964 C 2.483,4.828 2.963,4.72 3.403,4.505 3.843,4.29 4.22,4.01 4.535,3.666 4.85,3.321 5.097,2.926 5.277,2.481 5.457,2.037 5.547,1.589 5.547,1.139 5.547,0.52 5.412,-0.058 5.142,-0.592 4.872,-1.127 4.497,-1.564 4.018,-1.904 L 6.267,-5.816 H 2.969 L 1.095,-2.548 H 0 v -3.268 z" style="fill:#FFFFFF;fill-opacity:1;fill-rule:nonzero;stroke:none" id="path3870" inkscape:connector-curvature="0" />
        </g>
        <g id="g3872" transform="translate(248.0576,63.8379)">
          <path d="m 0,0 c 0,0.649 0.123,1.29 0.368,1.919 0.244,0.63 0.602,1.194 1.071,1.694 0.47,0.5 1.04,0.905 1.709,1.215 0.67,0.309 1.435,0.464 2.294,0.464 1.03,0 1.921,-0.212 2.676,-0.637 C 8.873,4.23 9.435,3.668 9.805,2.969 L 7.571,1.379 C 7.471,1.639 7.339,1.854 7.174,2.024 7.009,2.194 6.826,2.329 6.627,2.429 6.427,2.529 6.22,2.599 6.004,2.639 5.789,2.678 5.582,2.698 5.382,2.698 4.963,2.698 4.601,2.616 4.295,2.451 3.99,2.287 3.741,2.071 3.546,1.807 3.351,1.542 3.206,1.242 3.111,0.907 3.017,0.572 2.969,0.24 2.969,-0.09 c 0,-0.369 0.054,-0.724 0.165,-1.064 0.109,-0.34 0.269,-0.639 0.479,-0.9 0.21,-0.259 0.467,-0.467 0.773,-0.622 0.304,-0.155 0.646,-0.232 1.026,-0.232 0.2,0 0.405,0.022 0.615,0.067 0.209,0.045 0.412,0.12 0.607,0.226 0.195,0.104 0.37,0.239 0.525,0.404 0.154,0.165 0.277,0.367 0.367,0.607 L 9.909,-3.028 C 9.75,-3.418 9.507,-3.768 9.183,-4.077 8.857,-4.387 8.488,-4.647 8.073,-4.856 7.658,-5.066 7.214,-5.227 6.739,-5.337 6.265,-5.446 5.802,-5.502 5.353,-5.502 c -0.791,0 -1.512,0.157 -2.166,0.473 -0.656,0.314 -1.22,0.732 -1.695,1.252 C 1.018,-3.258 0.65,-2.668 0.391,-2.009 0.13,-1.349 0,-0.68 0,0" style="fill:#FFFFFF;fill-opacity:1;fill-rule:nonzero;stroke:none" id="path3874" inkscape:connector-curvature="0" />
        </g>
        <g id="g3876" transform="translate(269.0605,60.9746)">
          <path d="M 0,0 V -2.548 H -7.586 V 8.096 h 7.451 V 5.547 H -4.662 V 4.048 h 3.867 V 1.679 H -4.662 V 0 Z" style="fill:#FFFFFF;fill-opacity:1;fill-rule:nonzero;stroke:none" id="path3878" inkscape:connector-curvature="0" />
        </g>
        <g id="g3880" transform="translate(163.3115,65.6172)">
          <path d="M 0,0 -4.073,-2.306 V -5.448 L 0,-3.142 Z" style="fill:#FFFFFF;fill-opacity:1;fill-rule:nonzero;stroke:none" id="path3882" inkscape:connector-curvature="0" />
        </g>
      </g>
    </g>
  </g>
</svg>