<?xml version="1.0" encoding="UTF-8" standalone="no"?>
<svg
   xmlns:dc="http://purl.org/dc/elements/1.1/"
   xmlns:cc="http://creativecommons.org/ns#"
   xmlns:rdf="http://www.w3.org/1999/02/22-rdf-syntax-ns#"
   xmlns:svg="http://www.w3.org/2000/svg"
   xmlns="http://www.w3.org/2000/svg"
   id="svg16"
   version="1.1"
   viewBox="0 0 133.04762 132.54762"
   height="132.54762mm"
   width="133.04762mm">
  <defs
     id="defs10" />
  <metadata
     id="metadata13">
    <rdf:RDF>
      <cc:Work
         rdf:about="">
        <dc:format>image/svg+xml</dc:format>
        <dc:type
           rdf:resource="http://purl.org/dc/dcmitype/StillImage" />
        <dc:title></dc:title>
      </cc:Work>
    </rdf:RDF>
  </metadata>
  <g
     transform="translate(-39.309517,-58.619049)"
     id="layer1">
    <circle
       style="fill:#4a6bdd;fill-opacity:1;stroke-width:0.26458332"
       r="66.523811"
       cy="124.64286"
       cx="105.83333"
       id="path18" />
    <g
       transform="matrix(3.627389,0,0,3.627389,63.743744,88.119583)"
       id="g4597">
      <g
         transform="matrix(0.06761865,0,0,0.06761865,-2.011962,-3.3742256)"
         id="g4985">
	<g
   id="g4923">
		<g
   id="g4921">
			
				<rect
   style="fill:#ffffff;fill-opacity:1"
   x="122"
   y="-0.40000001"
   transform="matrix(-0.866,-0.5,0.5,-0.866,163.3196,363.3136)"
   width="16.6"
   height="320.29999"
   id="rect4919" />

		</g>

	</g>

	<g
   id="g4929">
		<g
   id="g4927">
			<rect
   style="fill:#ffffff;fill-opacity:1"
   x="39.799999"
   y="272.20001"
   width="320.29999"
   height="16.6"
   id="rect4925" />

		</g>

	</g>

	<g
   id="g4935">
		<g
   id="g4933">
			
				<rect
   style="fill:#ffffff;fill-opacity:1"
   x="37.900002"
   y="312.20001"
   transform="matrix(-0.866,-0.5,0.5,-0.866,83.0693,663.3409)"
   width="185"
   height="16.6"
   id="rect4931" />

		</g>

	</g>

	<g
   id="g4941">
		<g
   id="g4939">
			
				<rect
   style="fill:#ffffff;fill-opacity:1"
   x="177.10001"
   y="71.099998"
   transform="matrix(-0.866,-0.5,0.5,-0.866,463.3409,283.0693)"
   width="185"
   height="16.6"
   id="rect4937" />

		</g>

	</g>

	<g
   id="g4947">
		<g
   id="g4945">
			
				<rect
   style="fill:#ffffff;fill-opacity:1"
   x="122.1"
   y="-13"
   transform="matrix(-0.5,-0.866,0.866,-0.5,126.7903,232.1221)"
   width="16.6"
   height="185"
   id="rect4943" />

		</g>

	</g>

	<g
   id="g4953">
		<g
   id="g4951">
			
				<rect
   style="fill:#ffffff;fill-opacity:1"
   x="109.6"
   y="151.60001"
   transform="matrix(-0.5,-0.866,0.866,-0.5,266.0828,473.3766)"
   width="320.29999"
   height="16.6"
   id="rect4949" />

		</g>

	</g>

	<g
   id="g4959">
		<g
   id="g4957">
			<rect
   style="fill:#ffffff;fill-opacity:1"
   x="52.5"
   y="107.5"
   width="16.6"
   height="185"
   id="rect4955" />

		</g>

	</g>

	<g
   id="g4965">
		<g
   id="g4963">
			<rect
   style="fill:#ffffff;fill-opacity:1"
   x="330.89999"
   y="107.5"
   width="16.6"
   height="185"
   id="rect4961" />

		</g>

	</g>

	<g
   id="g4971">
		<g
   id="g4969">
			
				<rect
   style="fill:#ffffff;fill-opacity:1"
   x="262.39999"
   y="240.10001"
   transform="matrix(-0.5,-0.866,0.866,-0.5,126.7953,714.2875)"
   width="14.5"
   height="160.89999"
   id="rect4967" />

		</g>

	</g>

	<path
   style="fill:#ffffff;fill-opacity:1"
   d="m 369.5,297.9 c -9.6,16.7 -31,22.4 -47.7,12.8 -16.7,-9.6 -22.4,-31 -12.8,-47.7 9.6,-16.7 31,-22.4 47.7,-12.8 16.8,9.7 22.5,31 12.8,47.7"
   id="path4973" />

	<path
   style="fill:#ffffff;fill-opacity:1"
   d="m 90.9,137 c -9.6,16.7 -31,22.4 -47.7,12.8 -16.7,-9.6 -22.4,-31 -12.8,-47.7 9.6,-16.7 31,-22.4 47.7,-12.8 16.7,9.7 22.4,31 12.8,47.7"
   id="path4975" />

	<path
   style="fill:#ffffff;fill-opacity:1"
   d="m 30.5,297.9 c -9.6,-16.7 -3.9,-38 12.8,-47.7 16.7,-9.6 38,-3.9 47.7,12.8 9.6,16.7 3.9,38 -12.8,47.7 -16.8,9.6 -38.1,3.9 -47.7,-12.8"
   id="path4977" />

	<path
   style="fill:#ffffff;fill-opacity:1"
   d="m 309.1,137 c -9.6,-16.7 -3.9,-38 12.8,-47.7 16.7,-9.6 38,-3.9 47.7,12.8 9.6,16.7 3.9,38 -12.8,47.7 -16.7,9.6 -38.1,3.9 -47.7,-12.8"
   id="path4979" />

	<path
   style="fill:#ffffff;fill-opacity:1"
   d="m 200,395.8 c -19.3,0 -34.9,-15.6 -34.9,-34.9 0,-19.3 15.6,-34.9 34.9,-34.9 19.3,0 34.9,15.6 34.9,34.9 0,19.2 -15.6,34.9 -34.9,34.9"
   id="path4981" />

	<path
   style="fill:#ffffff;fill-opacity:1"
   d="m 200,74 c -19.3,0 -34.9,-15.6 -34.9,-34.9 0,-19.3 15.6,-34.9 34.9,-34.9 19.3,0 34.9,15.6 34.9,34.9 0,19.3 -15.6,34.9 -34.9,34.9"
   id="path4983" />

</g>
    </g>
  </g>
</svg>
