<svg xmlns="http://www.w3.org/2000/svg" viewBox="0 0 133.048 132.548" height="500.967" width="502.857"><g transform="translate(-39.31 -58.619)"><circle r="66.524" cy="124.643" cx="105.833" fill="#4a6bdd"/><path d="M69.93 148.006h69.323c1 0 1.801-.819 1.801-1.82v-9.822h6.712a1.828 1.828 0 0 0 1.837-1.819V114.9c0-1-.818-1.82-1.837-1.82h-6.73v-9.822c0-1-.782-1.819-1.801-1.819H69.931a1.828 1.828 0 0 0-1.838 1.819v42.929c0 1 .819 1.819 1.838 1.819zm39.164-40.746l-5.075 14.734h11.187l-18.263 20.19 5.075-14.733H90.831z" fill="#fff"/></g></svg>