<?xml version="1.0" encoding="UTF-8" standalone="no"?>
<svg
   xmlns:dc="http://purl.org/dc/elements/1.1/"
   xmlns:cc="http://creativecommons.org/ns#"
   xmlns:rdf="http://www.w3.org/1999/02/22-rdf-syntax-ns#"
   xmlns:svg="http://www.w3.org/2000/svg"
   xmlns="http://www.w3.org/2000/svg"
   id="svg16"
   version="1.1"
   viewBox="0 0 133.04762 132.54762"
   height="132.54762mm"
   width="133.04762mm">
  <defs
     id="defs10" />
  <metadata
     id="metadata13">
    <rdf:RDF>
      <cc:Work
         rdf:about="">
        <dc:format>image/svg+xml</dc:format>
        <dc:type
           rdf:resource="http://purl.org/dc/dcmitype/StillImage" />
        <dc:title></dc:title>
      </cc:Work>
    </rdf:RDF>
  </metadata>
  <g
     transform="translate(-39.309517,-58.619049)"
     id="layer1">
    <circle
       style="fill:#4a6bdd;fill-opacity:1;stroke-width:0.26458332"
       r="66.523811"
       cy="124.64286"
       cx="105.83333"
       id="path18" />
    <g
       transform="matrix(3.9128753,0,0,3.9128753,60.457292,85.222038)"
       id="g4597">
      <path
         style="fill:#ffffff;fill-opacity:1;stroke-width:1.10079801"
         d="m 19.657684,6.2697855 v 0 Q 19.25346,6.131085 18.842631,6.0129694 18.910737,5.7362177 18.968573,5.4570664 C 19.585515,2.4621914 19.182128,0.04953939 17.8046,-0.74467534 16.483863,-1.5064275 14.323767,-0.71217979 12.142162,1.1862784 Q 11.819705,1.4675323 11.511768,1.7647918 11.305621,1.5671876 11.092253,1.3773109 C 8.805874,-0.65276972 6.5141117,-1.5081558 5.1380261,-0.71159636 3.8185326,0.05224736 3.4276943,2.3204746 3.9831349,5.1586951 Q 4.066025,5.5803007 4.1702706,5.997272 C 3.8459975,6.0893758 3.5328205,6.1875339 3.2331943,6.2919666 0.55271817,7.226467 -1.1591768,8.6911888 -1.1591768,10.210356 c 0,1.569144 1.83761711,3.142999 4.6296811,4.09717 q 0.3395962,0.115518 0.6846193,0.214017 -0.1120502,0.449126 -0.1988922,0.90391 c -0.5295499,2.788915 -0.115969,5.003358 1.200057,5.762501 1.3592763,0.783768 3.6406141,-0.02185 5.8621126,-1.963681 q 0.263377,-0.230254 0.528317,-0.486971 0.333432,0.321709 0.684399,0.62445 c 2.151807,1.851619 4.276941,2.599336 5.591856,1.838179 1.358043,-0.786146 1.799298,-3.16507 1.226289,-6.059442 q -0.06555,-0.331604 -0.151822,-0.676782 0.240348,-0.07092 0.470833,-0.147011 c 2.902529,-0.961536 4.790904,-2.516237 4.790904,-4.106329 0,-1.5246711 -1.767023,-2.9992451 -4.501493,-3.9405815 z M 12.85222,2.0022559 c 1.869221,-1.62677022 3.616188,-2.26900879 4.412186,-1.80994301 v 0 C 18.112174,0.68129836 18.44194,2.6530367 17.909253,5.2388222 Q 17.856877,5.4914883 17.795409,5.742151 A 25.910055,25.910055 0 0 0 14.410158,5.2073394 25.407826,25.407826 0 0 0 12.270008,2.5362861 Q 12.554432,2.2620773 12.85222,2.0022559 Z M 6.3164634,11.50812 q 0.343449,0.663396 0.7177973,1.310093 0.3818889,0.659499 0.7948863,1.300229 A 23.030543,23.030543 0 0 1 5.4958185,13.74329 c 0.223528,-0.721837 0.4989477,-1.472108 0.8206449,-2.23517 z M 6.3152415,8.9643629 C 6.0002702,8.2173283 5.7307948,7.4828429 5.5107233,6.7735657 6.233111,6.6118805 7.0034054,6.4797738 7.8060632,6.3794801 Q 7.4030501,7.0080357 7.0298906,7.6550517 6.6573255,8.3012312 6.3152415,8.9643629 Z M 6.8901663,10.236357 Q 7.3900496,9.1959157 7.9670769,8.1952573 v 2.202e-4 q 0.5764769,-1.000152 1.227621,-1.9543788 c 0.7529458,-0.056922 1.5250011,-0.086732 2.3054231,-0.086732 0.7839,0 1.556936,0.03003 2.309683,0.087403 q 0.644121,0.9520472 1.219883,1.947763 0.578634,0.9977082 1.091474,2.0314673 -0.507281,1.043743 -1.087897,2.049388 h -1.1e-4 q -0.575288,0.999371 -1.21462,1.959752 c -0.751185,0.05368 -1.527468,0.08135 -2.318534,0.08135 -0.787819,0 -1.5542497,-0.02454 -2.2923127,-0.07238 Q 8.552107,13.281472 7.9703243,12.276334 7.3917008,11.277216 6.8901553,10.236357 Z m 9.0799647,2.574348 q 0.381977,-0.662482 0.734233,-1.341465 v 0 a 22.970032,22.970032 0 0 1 0.850234,2.227211 22.953443,22.953443 0 0 1 -2.361784,0.402595 q 0.401439,-0.636371 0.777306,-1.288341 z M 16.694093,8.9651444 Q 16.343126,8.2991617 15.965772,7.6476654 v 0 Q 15.594506,7.0063625 15.195874,6.3815055 c 0.807876,0.1019669 1.581847,0.2375412 2.308561,0.4034865 A 23.071724,23.071724 0 0 1 16.694082,8.9651444 Z M 11.512109,3.3097618 a 23.130936,23.130936 0 0 1 1.48993,1.7986268 q -1.495357,-0.07066 -2.992409,-6.715e-4 c 0.491946,-0.6486562 0.995781,-1.251266 1.502479,-1.7979553 z M 5.6799049,0.2244672 c 0.8470971,-0.49032844 2.7200168,0.2088544 4.6941111,1.961622 0.126162,0.1120502 0.252897,0.2293623 0.379852,0.3507142 A 25.918751,25.918751 0 0 0 8.5971297,5.2058753 26.427958,26.427958 0 0 0 5.2186045,5.7309559 Q 5.1217343,5.3431668 5.0445904,4.9508644 v 1.101e-4 C 4.5687044,2.5191356 4.8846885,0.68480991 5.6799049,0.2244672 Z M 4.445338,13.479748 Q 4.1305098,13.389626 3.8203269,13.284103 A 9.1627232,9.1627232 0 0 1 0.86739228,11.715411 2.2354125,2.2354125 0 0 1 -0.07763178,10.210356 c 0,-0.9218301 1.37451138,-2.0978016 3.66694518,-2.897058 Q 4.0209143,7.1634794 4.4607271,7.0391112 A 25.939809,25.939809 0 0 0 5.6947217,10.236687 26.333807,26.333807 0 0 0 4.445338,13.479748 Z m 5.861331,4.930111 a 9.1604115,9.1604115 0 0 1 -2.8341916,1.77431 h -1.101e-4 a 2.2350822,2.2350822 0 0 1 -1.7756532,0.06679 C 4.8980191,19.790425 4.5661285,18.012196 5.0189198,15.627218 q 0.080766,-0.422784 0.184934,-0.840603 a 25.433321,25.433321 0 0 0 3.4119234,0.493918 26.319573,26.319573 0 0 0 2.1733168,2.685165 q -0.23578,0.227953 -0.482425,0.444161 z M 11.542017,17.18739 C 11.029387,16.634206 10.51811,16.022404 10.0187,15.364336 q 0.727088,0.02862 1.4813,0.02869 0.774147,0 1.528359,-0.03395 a 23.000348,23.000348 0 0 1 -1.486342,1.828294 z m 6.567923,1.504791 A 2.2350492,2.2350492 0 0 1 17.281039,20.2639 C 16.483125,20.725773 14.776723,20.125409 12.93664,18.541911 Q 12.620161,18.269628 12.299972,17.961493 A 25.416479,25.416479 0 0 0 14.4222,15.26674 25.24842,25.24842 0 0 0 17.851263,14.738202 q 0.07732,0.312627 0.137038,0.612462 v 0 a 9.1586392,9.1586392 0 0 1 0.121639,3.341539 z m 0.918252,-5.402045 h -1.1e-4 c -0.138381,0.04583 -0.280461,0.09009 -0.425227,0.132998 a 25.385733,25.385733 0 0 0 -1.282077,-3.207428 25.374626,25.374626 0 0 0 1.232211,-3.1606993 c 0.258952,0.075075 0.510385,0.1541118 0.752637,0.2375412 2.342961,0.8064226 3.77205,1.9989721 3.77205,2.9177861 0,0.978786 -1.543484,2.249426 -4.049484,3.079824 z"
         id="path4584" />
      <path
         style="fill:#ffffff;fill-opacity:1;stroke-width:1.10079801"
         d="M 11.5,7.9495262 A 2.2608849,2.2608849 0 1 1 9.2391701,10.210356 2.2608299,2.2608299 0 0 1 11.5,7.9495262"
         id="path4586" />
    </g>
  </g>
</svg>
