<svg xmlns="http://www.w3.org/2000/svg" viewBox="0 0 133.048 132.548" height="500.967" width="502.857"><g transform="translate(-39.31 -58.619)"><circle r="66.524" cy="124.643" cx="105.833" fill="#BB1F4E"/><g fill="#fff"><path d="M137.375 109.755q-1.581-.543-3.189-1.005.267-1.083.493-2.175c2.414-11.719.836-21.16-4.555-24.267-5.167-2.98-13.62.127-22.156 7.556q-1.262 1.1-2.467 2.263-.806-.773-1.641-1.516c-8.946-7.943-17.914-11.29-23.298-8.173-5.163 2.988-6.693 11.864-4.52 22.97q.325 1.65.733 3.28c-1.269.361-2.494.745-3.667 1.154-10.488 3.656-17.186 9.388-17.186 15.332 0 6.14 7.19 12.298 18.115 16.032q1.329.452 2.679.837-.439 1.757-.778 3.537c-2.073 10.913-.454 19.577 4.695 22.548 5.319 3.067 14.245-.086 22.938-7.684q1.03-.9 2.067-1.905 1.305 1.259 2.678 2.443c8.42 7.245 16.735 10.171 21.88 7.193 5.314-3.076 7.04-12.385 4.799-23.71q-.257-1.298-.594-2.648.94-.278 1.842-.576c11.357-3.762 18.746-9.845 18.746-16.067 0-5.966-6.914-11.736-17.614-15.42zm-26.629-16.698c7.314-6.366 14.15-8.879 17.265-7.082 3.317 1.913 4.607 9.628 2.523 19.746q-.205.989-.445 1.97a101.383 101.383 0 0 0-13.247-2.093 99.418 99.418 0 0 0-8.374-10.452q1.113-1.073 2.278-2.09zm-25.573 37.195q1.344 2.596 2.808 5.126 1.495 2.58 3.11 5.088a90.116 90.116 0 0 1-9.13-1.468 94.876 94.876 0 0 1 3.212-8.746zm-.005-9.954a93.405 93.405 0 0 1-3.148-8.572 95.492 95.492 0 0 1 8.981-1.542q-1.576 2.46-3.037 4.991-1.457 2.529-2.796 5.123zm2.25 4.978q1.956-4.071 4.213-7.987 2.256-3.913 4.804-7.646a119.902 119.902 0 0 1 18.058.002q2.52 3.726 4.774 7.622 2.264 3.904 4.27 7.949-1.985 4.084-4.256 8.019-2.252 3.91-4.754 7.668c-2.939.21-5.976.318-9.072.318-3.082 0-6.081-.096-8.97-.283q-2.564-3.747-4.84-7.68-2.265-3.91-4.227-7.982zm35.528 10.073q1.495-2.592 2.873-5.25a89.879 89.879 0 0 1 3.327 8.716 89.814 89.814 0 0 1-9.241 1.575q1.57-2.49 3.041-5.041zm2.833-15.047q-1.373-2.606-2.85-5.156-1.452-2.509-3.012-4.954c3.161.4 6.19.93 9.033 1.579a90.277 90.277 0 0 1-3.17 8.53zm-20.276-22.13a90.508 90.508 0 0 1 5.83 7.039q-5.851-.277-11.71-.003a93.365 93.365 0 0 1 5.88-7.035zM82.683 86.1c3.314-1.918 10.642.818 18.367 7.676.493.438.99.897 1.486 1.372a101.417 101.417 0 0 0-8.44 10.444 103.41 103.41 0 0 0-13.219 2.055q-.379-1.518-.68-3.053c-1.863-9.515-.627-16.692 2.485-18.494zm-4.832 51.867q-1.232-.353-2.445-.766a35.853 35.853 0 0 1-11.555-6.138 8.747 8.747 0 0 1-3.697-5.89c0-3.606 5.378-8.208 14.348-11.335q1.689-.586 3.41-1.073a101.5 101.5 0 0 0 4.828 12.512 103.04 103.04 0 0 0-4.889 12.69zm22.935 19.29a35.844 35.844 0 0 1-11.09 6.943 8.746 8.746 0 0 1-6.948.262c-3.125-1.802-4.424-8.76-2.652-18.093q.316-1.654.723-3.289a99.517 99.517 0 0 0 13.35 1.933 102.985 102.985 0 0 0 8.505 10.507q-.923.892-1.888 1.738zm4.834-4.783a95.121 95.121 0 0 1-5.96-7.133q2.844.112 5.795.112 3.03 0 5.98-.133a89.997 89.997 0 0 1-5.815 7.154zm25.7 5.888a8.745 8.745 0 0 1-3.244 6.15c-3.122 1.807-9.8-.542-17-6.738q-1.238-1.065-2.49-2.27a99.452 99.452 0 0 0 8.304-10.545 98.794 98.794 0 0 0 13.417-2.068q.303 1.223.536 2.396a35.837 35.837 0 0 1 .476 13.075zm3.592-21.137c-.542.179-1.098.352-1.664.52a99.331 99.331 0 0 0-5.017-12.55 99.288 99.288 0 0 0 4.822-12.368c1.013.294 1.997.603 2.945.93 9.168 3.155 14.76 7.822 14.76 11.417 0 3.83-6.04 8.802-15.846 12.05z"/><path d="M105.455 116.328a8.847 8.847 0 1 1-8.846 8.846 8.846 8.846 0 0 1 8.846-8.846"/></g></g></svg>