<svg width="1071" height="652" viewBox="0 0 1071 652" fill="none" xmlns="http://www.w3.org/2000/svg">
    <path d="M427 70.5V134.13" stroke="currentColor" stroke-miterlimit="10" />
    <path d="M427 139.38L423.5 132.38L427 134.13L430.5 132.38L427 139.38Z" fill="currentColor" stroke="currentColor"
        stroke-miterlimit="10" />
    <path
        d="M528 10.5H326C321.029 10.5 317 14.5294 317 19.5V61.5C317 66.4706 321.029 70.5 326 70.5H528C532.971 70.5 537 66.4706 537 61.5V19.5C537 14.5294 532.971 10.5 528 10.5Z"
        fill="#F1F2F3" />
    <path
        d="M362.149 29.7273L356.524 50.625H353.396L359.021 29.7273H362.149ZM363.898 48V34.9091H367.358V37.2188H367.512C367.784 36.4517 368.239 35.8466 368.875 35.4034C369.512 34.9602 370.273 34.7386 371.159 34.7386C372.057 34.7386 372.821 34.9631 373.452 35.4119C374.083 35.8551 374.503 36.4574 374.713 37.2188H374.85C375.117 36.4688 375.6 35.8693 376.299 35.4205C377.003 34.9659 377.836 34.7386 378.796 34.7386C380.017 34.7386 381.009 35.1278 381.77 35.9062C382.537 36.679 382.921 37.7756 382.921 39.196V48H379.299V39.9119C379.299 39.1847 379.105 38.6392 378.719 38.2756C378.333 37.9119 377.85 37.7301 377.27 37.7301C376.611 37.7301 376.097 37.9403 375.728 38.3608C375.358 38.7756 375.174 39.3239 375.174 40.0057V48H371.654V39.8352C371.654 39.1932 371.469 38.6818 371.1 38.3011C370.736 37.9205 370.256 37.7301 369.659 37.7301C369.256 37.7301 368.892 37.8324 368.569 38.0369C368.25 38.2358 367.998 38.517 367.81 38.8807C367.623 39.2386 367.529 39.6591 367.529 40.142V48H363.898ZM387.561 52.9091C387.101 52.9091 386.669 52.8722 386.266 52.7983C385.868 52.7301 385.539 52.642 385.277 52.5341L386.096 49.8239C386.522 49.9545 386.905 50.0256 387.246 50.0369C387.593 50.0483 387.891 49.9688 388.141 49.7983C388.397 49.6278 388.604 49.3381 388.763 48.929L388.976 48.375L384.28 34.9091H388.098L390.809 44.5227H390.945L393.681 34.9091H397.525L392.436 49.4148C392.192 50.1193 391.86 50.733 391.439 51.2557C391.025 51.7841 390.499 52.1903 389.863 52.4744C389.226 52.7642 388.459 52.9091 387.561 52.9091ZM407.539 39.392V42.2727H399.578V39.392H407.539ZM410.632 52.9091V34.9091H414.212V37.108H414.374C414.533 36.7557 414.763 36.3977 415.064 36.0341C415.371 35.6648 415.769 35.358 416.257 35.1136C416.752 34.8636 417.365 34.7386 418.098 34.7386C419.053 34.7386 419.934 34.9886 420.74 35.4886C421.547 35.983 422.192 36.7301 422.675 37.7301C423.158 38.7244 423.4 39.9716 423.4 41.4716C423.4 42.9318 423.164 44.1648 422.692 45.1705C422.226 46.1705 421.59 46.929 420.783 47.446C419.982 47.9574 419.084 48.2131 418.09 48.2131C417.385 48.2131 416.786 48.0966 416.292 47.8636C415.803 47.6307 415.402 47.3381 415.09 46.9858C414.777 46.6278 414.539 46.267 414.374 45.9034H414.263V52.9091H410.632ZM414.186 41.4545C414.186 42.233 414.294 42.9119 414.51 43.4915C414.726 44.071 415.039 44.5227 415.448 44.8466C415.857 45.1648 416.354 45.3239 416.939 45.3239C417.53 45.3239 418.03 45.1619 418.439 44.8381C418.848 44.5085 419.158 44.054 419.368 43.4744C419.584 42.8892 419.692 42.2159 419.692 41.4545C419.692 40.6989 419.587 40.0341 419.377 39.4602C419.167 38.8864 418.857 38.4375 418.448 38.1136C418.039 37.7898 417.536 37.6278 416.939 37.6278C416.348 37.6278 415.848 37.7841 415.439 38.0966C415.036 38.4091 414.726 38.8523 414.51 39.4261C414.294 40 414.186 40.6761 414.186 41.4545ZM425.82 48V34.9091H429.34V37.1932H429.476C429.715 36.3807 430.115 35.767 430.678 35.3523C431.24 34.9318 431.888 34.7216 432.621 34.7216C432.803 34.7216 432.999 34.733 433.209 34.7557C433.419 34.7784 433.604 34.8097 433.763 34.8494V38.071C433.593 38.0199 433.357 37.9744 433.056 37.9347C432.755 37.8949 432.479 37.875 432.229 37.875C431.695 37.875 431.218 37.9915 430.797 38.2244C430.382 38.4517 430.053 38.7699 429.809 39.179C429.57 39.5881 429.451 40.0597 429.451 40.5938V48H425.82ZM440.946 48.2557C439.622 48.2557 438.477 47.9744 437.511 47.4119C436.551 46.8437 435.809 46.054 435.287 45.0426C434.764 44.0256 434.502 42.8466 434.502 41.5057C434.502 40.1534 434.764 38.9716 435.287 37.9602C435.809 36.9432 436.551 36.1534 437.511 35.5909C438.477 35.0227 439.622 34.7386 440.946 34.7386C442.27 34.7386 443.412 35.0227 444.372 35.5909C445.338 36.1534 446.082 36.9432 446.605 37.9602C447.127 38.9716 447.389 40.1534 447.389 41.5057C447.389 42.8466 447.127 44.0256 446.605 45.0426C446.082 46.054 445.338 46.8437 444.372 47.4119C443.412 47.9744 442.27 48.2557 440.946 48.2557ZM440.963 45.4432C441.565 45.4432 442.068 45.2727 442.471 44.9318C442.875 44.5852 443.179 44.1136 443.383 43.517C443.593 42.9205 443.699 42.2415 443.699 41.4801C443.699 40.7188 443.593 40.0398 443.383 39.4432C443.179 38.8466 442.875 38.375 442.471 38.0284C442.068 37.6818 441.565 37.5085 440.963 37.5085C440.355 37.5085 439.843 37.6818 439.429 38.0284C439.02 38.375 438.71 38.8466 438.5 39.4432C438.295 40.0398 438.193 40.7188 438.193 41.4801C438.193 42.2415 438.295 42.9205 438.5 43.517C438.71 44.1136 439.02 44.5852 439.429 44.9318C439.843 45.2727 440.355 45.4432 440.963 45.4432ZM454.574 48.2131C453.579 48.2131 452.679 47.9574 451.872 47.446C451.071 46.929 450.434 46.1705 449.963 45.1705C449.497 44.1648 449.264 42.9318 449.264 41.4716C449.264 39.9716 449.505 38.7244 449.988 37.7301C450.471 36.7301 451.113 35.983 451.914 35.4886C452.721 34.9886 453.605 34.7386 454.565 34.7386C455.298 34.7386 455.909 34.8636 456.397 35.1136C456.892 35.358 457.289 35.6648 457.591 36.0341C457.897 36.3977 458.13 36.7557 458.289 37.108H458.4V30.5455H462.022V48H458.443V45.9034H458.289C458.119 46.267 457.877 46.6278 457.565 46.9858C457.258 47.3381 456.858 47.6307 456.363 47.8636C455.875 48.0966 455.278 48.2131 454.574 48.2131ZM455.724 45.3239C456.309 45.3239 456.804 45.1648 457.207 44.8466C457.616 44.5227 457.929 44.071 458.145 43.4915C458.366 42.9119 458.477 42.233 458.477 41.4545C458.477 40.6761 458.369 40 458.153 39.4261C457.937 38.8523 457.625 38.4091 457.216 38.0966C456.806 37.7841 456.309 37.6278 455.724 37.6278C455.127 37.6278 454.625 37.7898 454.216 38.1136C453.806 38.4375 453.497 38.8864 453.287 39.4602C453.076 40.0341 452.971 40.6989 452.971 41.4545C452.971 42.2159 453.076 42.8892 453.287 43.4744C453.502 44.054 453.812 44.5085 454.216 44.8381C454.625 45.1619 455.127 45.3239 455.724 45.3239ZM473.402 42.4261V34.9091H477.033V48H473.547V45.6222H473.411C473.115 46.3892 472.624 47.0057 471.936 47.4716C471.255 47.9375 470.422 48.1705 469.439 48.1705C468.564 48.1705 467.794 47.9716 467.13 47.5739C466.465 47.1761 465.945 46.6108 465.57 45.8778C465.201 45.1449 465.013 44.267 465.007 43.2443V34.9091H468.638V42.5966C468.644 43.3693 468.851 43.9801 469.26 44.429C469.669 44.8778 470.218 45.1023 470.905 45.1023C471.343 45.1023 471.752 45.0028 472.132 44.804C472.513 44.5994 472.82 44.2983 473.053 43.9006C473.292 43.5028 473.408 43.0114 473.402 42.4261ZM485.852 48.2557C484.511 48.2557 483.358 47.9716 482.392 47.4034C481.431 46.8295 480.693 46.0341 480.176 45.017C479.664 44 479.409 42.8295 479.409 41.5057C479.409 40.1648 479.667 38.9886 480.184 37.9773C480.707 36.9602 481.449 36.1676 482.409 35.5994C483.369 35.0256 484.511 34.7386 485.835 34.7386C486.977 34.7386 487.977 34.946 488.835 35.3608C489.693 35.7756 490.372 36.358 490.872 37.108C491.372 37.858 491.647 38.7386 491.699 39.75H488.272C488.176 39.0966 487.92 38.571 487.505 38.1733C487.096 37.7699 486.559 37.5682 485.895 37.5682C485.332 37.5682 484.841 37.7216 484.42 38.0284C484.005 38.3295 483.681 38.7699 483.449 39.3494C483.216 39.929 483.099 40.6307 483.099 41.4545C483.099 42.2898 483.213 43 483.44 43.5852C483.673 44.1705 484 44.6165 484.42 44.9233C484.841 45.2301 485.332 45.3835 485.895 45.3835C486.309 45.3835 486.681 45.2983 487.011 45.1278C487.346 44.9574 487.622 44.7102 487.838 44.3864C488.059 44.0568 488.204 43.6619 488.272 43.2017H491.699C491.642 44.2017 491.369 45.0824 490.88 45.8438C490.397 46.5994 489.73 47.1903 488.877 47.6165C488.025 48.0426 487.017 48.2557 485.852 48.2557ZM500.986 34.9091V37.6364H493.103V34.9091H500.986ZM494.892 31.7727H498.523V43.9773C498.523 44.3125 498.574 44.5739 498.676 44.7614C498.779 44.9432 498.921 45.071 499.103 45.1449C499.29 45.2187 499.506 45.2557 499.75 45.2557C499.921 45.2557 500.091 45.2415 500.262 45.2131C500.432 45.179 500.563 45.1534 500.654 45.1364L501.225 47.8381C501.043 47.8949 500.787 47.9602 500.458 48.0341C500.128 48.1136 499.728 48.1619 499.256 48.179C498.381 48.2131 497.614 48.0966 496.955 47.8295C496.301 47.5625 495.793 47.1477 495.429 46.5852C495.066 46.0227 494.887 45.3125 494.892 44.4545V31.7727Z"
        fill="black" />
    <path d="M391.5 200.5V240.5H175.5V274.13" stroke="currentColor" stroke-miterlimit="10" />
    <path d="M175.5 279.38L172 272.38L175.5 274.13L179 272.38L175.5 279.38Z" fill="currentColor" stroke="currentColor"
        stroke-miterlimit="10" />
    <path d="M451.5 200.5V240.5H684.5V274.13" stroke="currentColor" stroke-miterlimit="10" />
    <path d="M684.5 279.38L681 272.38L684.5 274.13L688 272.38L684.5 279.38Z" fill="currentColor" stroke="currentColor"
        stroke-miterlimit="10" />
    <path
        d="M546.5 140.5H307.5C302.529 140.5 298.5 144.529 298.5 149.5V191.5C298.5 196.471 302.529 200.5 307.5 200.5H546.5C551.471 200.5 555.5 196.471 555.5 191.5V149.5C555.5 144.529 551.471 140.5 546.5 140.5Z"
        fill="#F1F2F3" />
    <path
        d="M361.007 165.909C360.904 165.045 360.49 164.375 359.762 163.898C359.035 163.42 358.143 163.182 357.086 163.182C356.314 163.182 355.637 163.307 355.058 163.557C354.484 163.807 354.035 164.151 353.711 164.588C353.393 165.026 353.234 165.523 353.234 166.08C353.234 166.545 353.345 166.946 353.566 167.281C353.794 167.611 354.083 167.886 354.436 168.108C354.788 168.324 355.157 168.503 355.544 168.645C355.93 168.781 356.285 168.892 356.609 168.977L358.382 169.455C358.836 169.574 359.342 169.739 359.899 169.949C360.461 170.159 360.998 170.446 361.51 170.81C362.027 171.168 362.453 171.628 362.788 172.19C363.123 172.753 363.291 173.443 363.291 174.261C363.291 175.205 363.044 176.057 362.549 176.818C362.061 177.58 361.345 178.185 360.402 178.634C359.464 179.082 358.325 179.307 356.984 179.307C355.734 179.307 354.652 179.105 353.737 178.702C352.828 178.298 352.112 177.736 351.589 177.014C351.072 176.293 350.779 175.455 350.711 174.5H352.893C352.95 175.159 353.172 175.705 353.558 176.136C353.95 176.562 354.444 176.881 355.041 177.091C355.643 177.295 356.291 177.398 356.984 177.398C357.791 177.398 358.515 177.267 359.157 177.006C359.799 176.739 360.308 176.369 360.683 175.898C361.058 175.42 361.245 174.864 361.245 174.227C361.245 173.648 361.083 173.176 360.76 172.812C360.436 172.449 360.01 172.153 359.481 171.926C358.953 171.699 358.382 171.5 357.768 171.33L355.62 170.716C354.257 170.324 353.177 169.764 352.382 169.037C351.586 168.31 351.189 167.358 351.189 166.182C351.189 165.205 351.453 164.352 351.981 163.625C352.515 162.892 353.231 162.324 354.129 161.92C355.032 161.511 356.041 161.307 357.154 161.307C358.279 161.307 359.279 161.509 360.154 161.912C361.029 162.31 361.723 162.855 362.234 163.548C362.751 164.241 363.024 165.028 363.052 165.909H361.007ZM372.186 165.909V167.614H365.402V165.909H372.186ZM367.38 162.773H369.391V175.25C369.391 175.818 369.473 176.244 369.638 176.528C369.809 176.807 370.025 176.994 370.286 177.091C370.553 177.182 370.834 177.227 371.13 177.227C371.351 177.227 371.533 177.216 371.675 177.193C371.817 177.165 371.931 177.142 372.016 177.125L372.425 178.932C372.289 178.983 372.098 179.034 371.854 179.085C371.61 179.142 371.3 179.17 370.925 179.17C370.357 179.17 369.8 179.048 369.255 178.804C368.715 178.56 368.266 178.188 367.908 177.688C367.556 177.188 367.38 176.557 367.38 175.795V162.773ZM379.064 179.307C378.235 179.307 377.482 179.151 376.806 178.838C376.13 178.52 375.593 178.062 375.195 177.466C374.797 176.864 374.598 176.136 374.598 175.284C374.598 174.534 374.746 173.926 375.042 173.46C375.337 172.989 375.732 172.619 376.226 172.352C376.721 172.085 377.266 171.886 377.863 171.756C378.465 171.619 379.07 171.511 379.678 171.432C380.473 171.33 381.118 171.253 381.613 171.202C382.113 171.145 382.476 171.051 382.703 170.92C382.936 170.79 383.053 170.562 383.053 170.239V170.17C383.053 169.33 382.823 168.676 382.363 168.21C381.908 167.744 381.218 167.511 380.292 167.511C379.331 167.511 378.578 167.722 378.033 168.142C377.488 168.562 377.104 169.011 376.882 169.489L374.973 168.807C375.314 168.011 375.769 167.392 376.337 166.949C376.911 166.5 377.536 166.187 378.212 166.011C378.894 165.83 379.564 165.739 380.223 165.739C380.644 165.739 381.127 165.79 381.672 165.892C382.223 165.989 382.755 166.19 383.266 166.497C383.783 166.804 384.212 167.267 384.553 167.886C384.894 168.506 385.064 169.335 385.064 170.375V179H383.053V177.227H382.951C382.814 177.511 382.587 177.815 382.269 178.139C381.951 178.463 381.527 178.739 380.999 178.966C380.471 179.193 379.826 179.307 379.064 179.307ZM379.371 177.5C380.167 177.5 380.837 177.344 381.382 177.031C381.934 176.719 382.348 176.315 382.627 175.821C382.911 175.327 383.053 174.807 383.053 174.261V172.42C382.968 172.523 382.78 172.616 382.49 172.702C382.206 172.781 381.877 172.852 381.502 172.915C381.132 172.972 380.772 173.023 380.419 173.068C380.073 173.108 379.792 173.142 379.576 173.17C379.053 173.239 378.564 173.349 378.11 173.503C377.661 173.651 377.297 173.875 377.019 174.176C376.746 174.472 376.61 174.875 376.61 175.386C376.61 176.085 376.868 176.614 377.385 176.972C377.908 177.324 378.57 177.5 379.371 177.5ZM394.429 165.909V167.614H387.645V165.909H394.429ZM389.622 162.773H391.633V175.25C391.633 175.818 391.716 176.244 391.88 176.528C392.051 176.807 392.267 176.994 392.528 177.091C392.795 177.182 393.076 177.227 393.372 177.227C393.593 177.227 393.775 177.216 393.917 177.193C394.059 177.165 394.173 177.142 394.258 177.125L394.667 178.932C394.531 178.983 394.341 179.034 394.096 179.085C393.852 179.142 393.542 179.17 393.167 179.17C392.599 179.17 392.042 179.048 391.497 178.804C390.957 178.56 390.508 178.188 390.15 177.688C389.798 177.188 389.622 176.557 389.622 175.795V162.773ZM397.454 179V165.909H399.466V179H397.454ZM398.477 163.727C398.085 163.727 397.747 163.594 397.463 163.327C397.184 163.06 397.045 162.739 397.045 162.364C397.045 161.989 397.184 161.668 397.463 161.401C397.747 161.134 398.085 161 398.477 161C398.869 161 399.204 161.134 399.483 161.401C399.767 161.668 399.909 161.989 399.909 162.364C399.909 162.739 399.767 163.06 399.483 163.327C399.204 163.594 398.869 163.727 398.477 163.727ZM408.468 179.273C407.24 179.273 406.184 178.983 405.297 178.403C404.411 177.824 403.729 177.026 403.252 176.009C402.775 174.991 402.536 173.83 402.536 172.523C402.536 171.193 402.78 170.02 403.269 169.003C403.763 167.98 404.451 167.182 405.331 166.608C406.218 166.028 407.252 165.739 408.434 165.739C409.354 165.739 410.184 165.909 410.922 166.25C411.661 166.591 412.266 167.068 412.738 167.682C413.209 168.295 413.502 169.011 413.615 169.83H411.604C411.451 169.233 411.11 168.705 410.581 168.244C410.059 167.778 409.354 167.545 408.468 167.545C407.684 167.545 406.996 167.75 406.405 168.159C405.82 168.562 405.363 169.134 405.033 169.872C404.709 170.605 404.547 171.466 404.547 172.455C404.547 173.466 404.706 174.347 405.025 175.097C405.348 175.847 405.803 176.429 406.388 176.844C406.979 177.259 407.672 177.466 408.468 177.466C408.99 177.466 409.465 177.375 409.891 177.193C410.317 177.011 410.678 176.75 410.973 176.409C411.269 176.068 411.479 175.659 411.604 175.182H413.615C413.502 175.955 413.221 176.651 412.772 177.27C412.328 177.884 411.74 178.372 411.007 178.736C410.28 179.094 409.434 179.273 408.468 179.273ZM423.578 179V161.545H429.476C430.84 161.545 431.959 161.778 432.834 162.244C433.709 162.705 434.357 163.338 434.777 164.145C435.198 164.952 435.408 165.869 435.408 166.898C435.408 167.926 435.198 168.838 434.777 169.634C434.357 170.429 433.712 171.054 432.843 171.509C431.973 171.957 430.863 172.182 429.51 172.182H424.738V170.273H429.442C430.374 170.273 431.124 170.136 431.692 169.864C432.266 169.591 432.681 169.205 432.936 168.705C433.198 168.199 433.328 167.597 433.328 166.898C433.328 166.199 433.198 165.588 432.936 165.065C432.675 164.543 432.257 164.139 431.684 163.855C431.11 163.565 430.351 163.42 429.408 163.42H425.692V179H423.578ZM431.794 171.159L436.09 179H433.635L429.408 171.159H431.794ZM443.835 179.273C442.653 179.273 441.616 178.991 440.724 178.429C439.838 177.866 439.145 177.08 438.645 176.068C438.15 175.057 437.903 173.875 437.903 172.523C437.903 171.159 438.15 169.969 438.645 168.952C439.145 167.935 439.838 167.145 440.724 166.582C441.616 166.02 442.653 165.739 443.835 165.739C445.017 165.739 446.051 166.02 446.937 166.582C447.829 167.145 448.522 167.935 449.017 168.952C449.517 169.969 449.767 171.159 449.767 172.523C449.767 173.875 449.517 175.057 449.017 176.068C448.522 177.08 447.829 177.866 446.937 178.429C446.051 178.991 445.017 179.273 443.835 179.273ZM443.835 177.466C444.733 177.466 445.471 177.236 446.051 176.776C446.63 176.315 447.059 175.71 447.338 174.96C447.616 174.21 447.755 173.398 447.755 172.523C447.755 171.648 447.616 170.832 447.338 170.077C447.059 169.321 446.63 168.71 446.051 168.244C445.471 167.778 444.733 167.545 443.835 167.545C442.937 167.545 442.199 167.778 441.619 168.244C441.039 168.71 440.61 169.321 440.332 170.077C440.054 170.832 439.914 171.648 439.914 172.523C439.914 173.398 440.054 174.21 440.332 174.96C440.61 175.71 441.039 176.315 441.619 176.776C442.199 177.236 442.937 177.466 443.835 177.466ZM461.087 173.648V165.909H463.098V179H461.087V176.784H460.951C460.644 177.449 460.167 178.014 459.519 178.48C458.871 178.94 458.053 179.17 457.064 179.17C456.246 179.17 455.519 178.991 454.882 178.634C454.246 178.27 453.746 177.724 453.382 176.997C453.019 176.264 452.837 175.341 452.837 174.227V165.909H454.848V174.091C454.848 175.045 455.115 175.807 455.65 176.375C456.189 176.943 456.877 177.227 457.712 177.227C458.212 177.227 458.721 177.099 459.238 176.844C459.76 176.588 460.198 176.196 460.55 175.668C460.908 175.139 461.087 174.466 461.087 173.648ZM472.475 165.909V167.614H465.691V165.909H472.475ZM467.669 162.773H469.68V175.25C469.68 175.818 469.762 176.244 469.927 176.528C470.098 176.807 470.314 176.994 470.575 177.091C470.842 177.182 471.123 177.227 471.419 177.227C471.64 177.227 471.822 177.216 471.964 177.193C472.106 177.165 472.22 177.142 472.305 177.125L472.714 178.932C472.578 178.983 472.387 179.034 472.143 179.085C471.899 179.142 471.589 179.17 471.214 179.17C470.646 179.17 470.089 179.048 469.544 178.804C469.004 178.56 468.555 178.188 468.197 177.688C467.845 177.188 467.669 176.557 467.669 175.795V162.773ZM480.849 179.273C479.588 179.273 478.5 178.994 477.585 178.438C476.676 177.875 475.974 177.091 475.48 176.085C474.991 175.074 474.747 173.898 474.747 172.557C474.747 171.216 474.991 170.034 475.48 169.011C475.974 167.983 476.662 167.182 477.542 166.608C478.429 166.028 479.463 165.739 480.645 165.739C481.326 165.739 482 165.852 482.664 166.08C483.329 166.307 483.934 166.676 484.48 167.188C485.025 167.693 485.46 168.364 485.784 169.199C486.108 170.034 486.27 171.062 486.27 172.284V173.136H476.179V171.398H484.224C484.224 170.659 484.076 170 483.781 169.42C483.491 168.841 483.076 168.384 482.537 168.048C482.002 167.713 481.372 167.545 480.645 167.545C479.843 167.545 479.15 167.744 478.565 168.142C477.985 168.534 477.539 169.045 477.227 169.676C476.914 170.307 476.758 170.983 476.758 171.705V172.864C476.758 173.852 476.929 174.69 477.27 175.378C477.616 176.06 478.096 176.58 478.71 176.938C479.324 177.29 480.037 177.466 480.849 177.466C481.377 177.466 481.855 177.392 482.281 177.244C482.713 177.091 483.085 176.864 483.397 176.562C483.71 176.256 483.951 175.875 484.122 175.42L486.065 175.966C485.86 176.625 485.517 177.205 485.034 177.705C484.551 178.199 483.954 178.585 483.244 178.864C482.534 179.136 481.735 179.273 480.849 179.273ZM491.954 174.091V173.989C491.966 172.903 492.079 172.04 492.295 171.398C492.511 170.756 492.818 170.236 493.216 169.838C493.613 169.44 494.091 169.074 494.647 168.739C494.983 168.534 495.284 168.293 495.551 168.014C495.818 167.73 496.028 167.403 496.181 167.034C496.341 166.665 496.42 166.256 496.42 165.807C496.42 165.25 496.289 164.767 496.028 164.358C495.767 163.949 495.417 163.634 494.98 163.412C494.542 163.19 494.056 163.08 493.522 163.08C493.056 163.08 492.608 163.176 492.176 163.369C491.744 163.562 491.383 163.866 491.093 164.281C490.804 164.696 490.636 165.239 490.591 165.909H488.443C488.488 164.943 488.738 164.116 489.193 163.429C489.653 162.741 490.258 162.216 491.008 161.852C491.764 161.489 492.602 161.307 493.522 161.307C494.522 161.307 495.392 161.506 496.13 161.903C496.875 162.301 497.449 162.847 497.852 163.54C498.261 164.233 498.466 165.023 498.466 165.909C498.466 166.534 498.369 167.099 498.176 167.605C497.988 168.111 497.716 168.562 497.358 168.96C497.005 169.358 496.579 169.71 496.079 170.017C495.579 170.33 495.179 170.659 494.877 171.006C494.576 171.347 494.358 171.753 494.221 172.224C494.085 172.696 494.011 173.284 494 173.989V174.091H491.954ZM493.045 179.136C492.625 179.136 492.264 178.986 491.963 178.685C491.662 178.384 491.511 178.023 491.511 177.602C491.511 177.182 491.662 176.821 491.963 176.52C492.264 176.219 492.625 176.068 493.045 176.068C493.466 176.068 493.826 176.219 494.127 176.52C494.429 176.821 494.579 177.182 494.579 177.602C494.579 177.881 494.508 178.136 494.366 178.369C494.23 178.602 494.045 178.79 493.812 178.932C493.585 179.068 493.329 179.136 493.045 179.136Z"
        fill="black" />
    <path
        d="M170.809 216.545H173.229L178.07 224.693H178.275L183.116 216.545H185.536L179.229 226.807V234H177.116V226.807L170.809 216.545ZM188.27 234V216.545H198.804V218.42H190.384V224.318H198.259V226.193H190.384V232.125H198.94V234H188.27ZM212.159 220.909C212.057 220.045 211.642 219.375 210.915 218.898C210.188 218.42 209.295 218.182 208.239 218.182C207.466 218.182 206.79 218.307 206.21 218.557C205.636 218.807 205.188 219.151 204.864 219.588C204.545 220.026 204.386 220.523 204.386 221.08C204.386 221.545 204.497 221.946 204.719 222.281C204.946 222.611 205.236 222.886 205.588 223.108C205.94 223.324 206.31 223.503 206.696 223.645C207.082 223.781 207.438 223.892 207.761 223.977L209.534 224.455C209.989 224.574 210.494 224.739 211.051 224.949C211.614 225.159 212.151 225.446 212.662 225.81C213.179 226.168 213.605 226.628 213.94 227.19C214.276 227.753 214.443 228.443 214.443 229.261C214.443 230.205 214.196 231.057 213.702 231.818C213.213 232.58 212.497 233.185 211.554 233.634C210.616 234.082 209.477 234.307 208.136 234.307C206.886 234.307 205.804 234.105 204.889 233.702C203.98 233.298 203.264 232.736 202.741 232.014C202.224 231.293 201.932 230.455 201.864 229.5H204.045C204.102 230.159 204.324 230.705 204.71 231.136C205.102 231.562 205.597 231.881 206.193 232.091C206.795 232.295 207.443 232.398 208.136 232.398C208.943 232.398 209.668 232.267 210.31 232.006C210.952 231.739 211.46 231.369 211.835 230.898C212.21 230.42 212.398 229.864 212.398 229.227C212.398 228.648 212.236 228.176 211.912 227.812C211.588 227.449 211.162 227.153 210.634 226.926C210.105 226.699 209.534 226.5 208.92 226.33L206.773 225.716C205.409 225.324 204.33 224.764 203.534 224.037C202.739 223.31 202.341 222.358 202.341 221.182C202.341 220.205 202.605 219.352 203.134 218.625C203.668 217.892 204.384 217.324 205.281 216.92C206.185 216.511 207.193 216.307 208.307 216.307C209.432 216.307 210.432 216.509 211.307 216.912C212.182 217.31 212.875 217.855 213.386 218.548C213.903 219.241 214.176 220.028 214.205 220.909H212.159Z"
        fill="currentColor" />
    <path
        d="M424.809 493.545H427.229L432.07 501.693H432.275L437.116 493.545H439.536L433.229 503.807V511H431.116V503.807L424.809 493.545ZM442.27 511V493.545H452.804V495.42H444.384V501.318H452.259V503.193H444.384V509.125H452.94V511H442.27ZM466.159 497.909C466.057 497.045 465.642 496.375 464.915 495.898C464.188 495.42 463.295 495.182 462.239 495.182C461.466 495.182 460.79 495.307 460.21 495.557C459.636 495.807 459.188 496.151 458.864 496.588C458.545 497.026 458.386 497.523 458.386 498.08C458.386 498.545 458.497 498.946 458.719 499.281C458.946 499.611 459.236 499.886 459.588 500.108C459.94 500.324 460.31 500.503 460.696 500.645C461.082 500.781 461.438 500.892 461.761 500.977L463.534 501.455C463.989 501.574 464.494 501.739 465.051 501.949C465.614 502.159 466.151 502.446 466.662 502.81C467.179 503.168 467.605 503.628 467.94 504.19C468.276 504.753 468.443 505.443 468.443 506.261C468.443 507.205 468.196 508.057 467.702 508.818C467.213 509.58 466.497 510.185 465.554 510.634C464.616 511.082 463.477 511.307 462.136 511.307C460.886 511.307 459.804 511.105 458.889 510.702C457.98 510.298 457.264 509.736 456.741 509.014C456.224 508.293 455.932 507.455 455.864 506.5H458.045C458.102 507.159 458.324 507.705 458.71 508.136C459.102 508.562 459.597 508.881 460.193 509.091C460.795 509.295 461.443 509.398 462.136 509.398C462.943 509.398 463.668 509.267 464.31 509.006C464.952 508.739 465.46 508.369 465.835 507.898C466.21 507.42 466.398 506.864 466.398 506.227C466.398 505.648 466.236 505.176 465.912 504.812C465.588 504.449 465.162 504.153 464.634 503.926C464.105 503.699 463.534 503.5 462.92 503.33L460.773 502.716C459.409 502.324 458.33 501.764 457.534 501.037C456.739 500.31 456.341 499.358 456.341 498.182C456.341 497.205 456.605 496.352 457.134 495.625C457.668 494.892 458.384 494.324 459.281 493.92C460.185 493.511 461.193 493.307 462.307 493.307C463.432 493.307 464.432 493.509 465.307 493.912C466.182 494.31 466.875 494.855 467.386 495.548C467.903 496.241 468.176 497.028 468.205 497.909H466.159Z"
        fill="currentColor" />
    <path
        d="M668.279 216.545V234H666.233L656.722 220.295H656.551V234H654.438V216.545H656.483L666.029 230.284H666.199V216.545H668.279ZM687.235 225.273C687.235 227.114 686.903 228.705 686.238 230.045C685.574 231.386 684.662 232.42 683.502 233.148C682.343 233.875 681.02 234.239 679.531 234.239C678.042 234.239 676.718 233.875 675.559 233.148C674.4 232.42 673.488 231.386 672.824 230.045C672.159 228.705 671.826 227.114 671.826 225.273C671.826 223.432 672.159 221.841 672.824 220.5C673.488 219.159 674.4 218.125 675.559 217.398C676.718 216.67 678.042 216.307 679.531 216.307C681.02 216.307 682.343 216.67 683.502 217.398C684.662 218.125 685.574 219.159 686.238 220.5C686.903 221.841 687.235 223.432 687.235 225.273ZM685.19 225.273C685.19 223.761 684.937 222.486 684.431 221.446C683.931 220.406 683.252 219.619 682.395 219.085C681.542 218.551 680.588 218.284 679.531 218.284C678.474 218.284 677.517 218.551 676.659 219.085C675.806 219.619 675.127 220.406 674.622 221.446C674.122 222.486 673.872 223.761 673.872 225.273C673.872 226.784 674.122 228.06 674.622 229.099C675.127 230.139 675.806 230.926 676.659 231.46C677.517 231.994 678.474 232.261 679.531 232.261C680.588 232.261 681.542 231.994 682.395 231.46C683.252 230.926 683.931 230.139 684.431 229.099C684.937 228.06 685.19 226.784 685.19 225.273Z"
        fill="currentColor" />
    <path
        d="M912.279 493.545V511H910.233L900.722 497.295H900.551V511H898.438V493.545H900.483L910.029 507.284H910.199V493.545H912.279ZM931.235 502.273C931.235 504.114 930.903 505.705 930.238 507.045C929.574 508.386 928.662 509.42 927.502 510.148C926.343 510.875 925.02 511.239 923.531 511.239C922.042 511.239 920.718 510.875 919.559 510.148C918.4 509.42 917.488 508.386 916.824 507.045C916.159 505.705 915.826 504.114 915.826 502.273C915.826 500.432 916.159 498.841 916.824 497.5C917.488 496.159 918.4 495.125 919.559 494.398C920.718 493.67 922.042 493.307 923.531 493.307C925.02 493.307 926.343 493.67 927.502 494.398C928.662 495.125 929.574 496.159 930.238 497.5C930.903 498.841 931.235 500.432 931.235 502.273ZM929.19 502.273C929.19 500.761 928.937 499.486 928.431 498.446C927.931 497.406 927.252 496.619 926.395 496.085C925.542 495.551 924.588 495.284 923.531 495.284C922.474 495.284 921.517 495.551 920.659 496.085C919.806 496.619 919.127 497.406 918.622 498.446C918.122 499.486 917.872 500.761 917.872 502.273C917.872 503.784 918.122 505.06 918.622 506.099C919.127 507.139 919.806 507.926 920.659 508.46C921.517 508.994 922.474 509.261 923.531 509.261C924.588 509.261 925.542 508.994 926.395 508.46C927.252 507.926 927.931 507.139 928.431 506.099C928.937 505.06 929.19 503.784 929.19 502.273Z"
        fill="currentColor" />
    <path
        d="M309.427 280H32.5735C28.3908 280 25 284.029 25 289V331C25 335.971 28.3908 340 32.5735 340H309.427C313.609 340 317 335.971 317 331V289C317 284.029 313.609 280 309.427 280Z"
        fill="#F1F2F3" />
    <path d="M684 340.5V414.13" stroke="currentColor" stroke-miterlimit="10" />
    <path d="M684 419.38L680.5 412.38L684 414.13L687.5 412.38L684 419.38Z" fill="currentColor" stroke="currentColor"
        stroke-miterlimit="10" />
    <path
        d="M791.331 280H587.669C583.434 280 580 284.029 580 289V331C580 335.971 583.434 340 587.669 340H791.331C795.566 340 799 335.971 799 331V289C799 284.029 795.566 280 791.331 280Z"
        fill="#F1F2F3" />
    <path
        d="M534.92 561H312.08C304.856 561 299 565.029 299 570V612C299 616.971 304.856 621 312.08 621H534.92C542.144 621 548 616.971 548 612V570C548 565.029 542.144 561 534.92 561Z"
        fill="#F1F2F3" />
    <path d="M651.5 480.5V520.5H423.5V554.13" stroke="currentColor" stroke-miterlimit="10" />
    <path d="M423.5 559.38L420 552.38L423.5 554.13L427 552.38L423.5 559.38Z" fill="currentColor" stroke="currentColor"
        stroke-miterlimit="10" />
    <path d="M711.5 480.5V520.5H932.5V554.13" stroke="currentColor" stroke-miterlimit="10" />
    <path d="M932.5 559.38L929 552.38L932.5 554.13L936 552.38L932.5 559.38Z" fill="currentColor" stroke="currentColor"
        stroke-miterlimit="10" />
    <path
        d="M803.5 420.5H564.5C559.529 420.5 555.5 424.529 555.5 429.5V471.5C555.5 476.471 559.529 480.5 564.5 480.5H803.5C808.471 480.5 812.5 476.471 812.5 471.5V429.5C812.5 424.529 808.471 420.5 803.5 420.5Z"
        fill="#F1F2F3" />
    <path
        d="M1060.5 560.5H821.5C816.529 560.5 812.5 564.529 812.5 569.5V611.5C812.5 616.471 816.529 620.5 821.5 620.5H1060.5C1065.47 620.5 1069.5 616.471 1069.5 611.5V569.5C1069.5 564.529 1065.47 560.5 1060.5 560.5Z"
        fill="#F1F2F3" />
    <path
        d="M61.4925 319V301.545H67.3903C68.7539 301.545 69.8732 301.778 70.7482 302.244C71.6232 302.705 72.271 303.338 72.6914 304.145C73.1119 304.952 73.3221 305.869 73.3221 306.898C73.3221 307.926 73.1119 308.838 72.6914 309.634C72.271 310.429 71.6261 311.054 70.7567 311.509C69.8874 311.957 68.7766 312.182 67.4244 312.182H62.6516V310.273H67.3562C68.288 310.273 69.038 310.136 69.6062 309.864C70.18 309.591 70.5948 309.205 70.8505 308.705C71.1119 308.199 71.2425 307.597 71.2425 306.898C71.2425 306.199 71.1119 305.588 70.8505 305.065C70.5891 304.543 70.1715 304.139 69.5977 303.855C69.0238 303.565 68.2653 303.42 67.3221 303.42H63.6062V319H61.4925ZM69.7085 311.159L74.0039 319H71.5494L67.3221 311.159H69.7085ZM81.7489 319.273C80.5671 319.273 79.5302 318.991 78.6381 318.429C77.7518 317.866 77.0586 317.08 76.5586 316.068C76.0643 315.057 75.8171 313.875 75.8171 312.523C75.8171 311.159 76.0643 309.969 76.5586 308.952C77.0586 307.935 77.7518 307.145 78.6381 306.582C79.5302 306.02 80.5671 305.739 81.7489 305.739C82.9308 305.739 83.9648 306.02 84.8512 306.582C85.7433 307.145 86.4364 307.935 86.9308 308.952C87.4308 309.969 87.6808 311.159 87.6808 312.523C87.6808 313.875 87.4308 315.057 86.9308 316.068C86.4364 317.08 85.7433 317.866 84.8512 318.429C83.9648 318.991 82.9308 319.273 81.7489 319.273ZM81.7489 317.466C82.6467 317.466 83.3853 317.236 83.9648 316.776C84.5444 316.315 84.9734 315.71 85.2518 314.96C85.5302 314.21 85.6694 313.398 85.6694 312.523C85.6694 311.648 85.5302 310.832 85.2518 310.077C84.9734 309.321 84.5444 308.71 83.9648 308.244C83.3853 307.778 82.6467 307.545 81.7489 307.545C80.8512 307.545 80.1126 307.778 79.533 308.244C78.9535 308.71 78.5245 309.321 78.2461 310.077C77.9677 310.832 77.8285 311.648 77.8285 312.523C77.8285 313.398 77.9677 314.21 78.2461 314.96C78.5245 315.71 78.9535 316.315 79.533 316.776C80.1126 317.236 80.8512 317.466 81.7489 317.466ZM99.0011 313.648V305.909H101.012V319H99.0011V316.784H98.8647C98.5579 317.449 98.0806 318.014 97.4329 318.48C96.7852 318.94 95.967 319.17 94.9783 319.17C94.1602 319.17 93.4329 318.991 92.7965 318.634C92.1602 318.27 91.6602 317.724 91.2965 316.997C90.9329 316.264 90.7511 315.341 90.7511 314.227V305.909H92.7624V314.091C92.7624 315.045 93.0295 315.807 93.5636 316.375C94.1033 316.943 94.7908 317.227 95.6261 317.227C96.1261 317.227 96.6346 317.099 97.1516 316.844C97.6744 316.588 98.1119 316.196 98.4641 315.668C98.8221 315.139 99.0011 314.466 99.0011 313.648ZM110.39 305.909V307.614H103.605V305.909H110.39ZM105.583 302.773H107.594V315.25C107.594 315.818 107.676 316.244 107.841 316.528C108.012 316.807 108.228 316.994 108.489 317.091C108.756 317.182 109.037 317.227 109.333 317.227C109.554 317.227 109.736 317.216 109.878 317.193C110.02 317.165 110.134 317.142 110.219 317.125L110.628 318.932C110.492 318.983 110.301 319.034 110.057 319.085C109.813 319.142 109.503 319.17 109.128 319.17C108.56 319.17 108.003 319.048 107.458 318.804C106.918 318.56 106.469 318.188 106.111 317.688C105.759 317.188 105.583 316.557 105.583 315.795V302.773ZM118.763 319.273C117.502 319.273 116.414 318.994 115.499 318.438C114.59 317.875 113.888 317.091 113.394 316.085C112.905 315.074 112.661 313.898 112.661 312.557C112.661 311.216 112.905 310.034 113.394 309.011C113.888 307.983 114.576 307.182 115.456 306.608C116.343 306.028 117.377 305.739 118.559 305.739C119.24 305.739 119.914 305.852 120.578 306.08C121.243 306.307 121.848 306.676 122.394 307.188C122.939 307.693 123.374 308.364 123.698 309.199C124.022 310.034 124.184 311.062 124.184 312.284V313.136H114.093V311.398H122.138C122.138 310.659 121.99 310 121.695 309.42C121.405 308.841 120.99 308.384 120.451 308.048C119.917 307.713 119.286 307.545 118.559 307.545C117.757 307.545 117.064 307.744 116.479 308.142C115.9 308.534 115.453 309.045 115.141 309.676C114.828 310.307 114.672 310.983 114.672 311.705V312.864C114.672 313.852 114.843 314.69 115.184 315.378C115.53 316.06 116.01 316.58 116.624 316.938C117.238 317.29 117.951 317.466 118.763 317.466C119.292 317.466 119.769 317.392 120.195 317.244C120.627 317.091 120.999 316.864 121.311 316.562C121.624 316.256 121.865 315.875 122.036 315.42L123.979 315.966C123.775 316.625 123.431 317.205 122.948 317.705C122.465 318.199 121.868 318.585 121.158 318.864C120.448 319.136 119.65 319.273 118.763 319.273ZM129.016 301.545V303.08C129.016 303.545 128.931 304.043 128.76 304.571C128.596 305.094 128.351 305.602 128.027 306.097C127.709 306.585 127.323 307.011 126.868 307.375L125.777 306.489C126.135 305.977 126.445 305.446 126.706 304.895C126.973 304.338 127.107 303.744 127.107 303.114V301.545H129.016ZM139.094 308.841L137.287 309.352C137.174 309.051 137.006 308.759 136.784 308.474C136.569 308.185 136.273 307.946 135.898 307.759C135.523 307.571 135.043 307.477 134.458 307.477C133.657 307.477 132.989 307.662 132.455 308.031C131.926 308.395 131.662 308.858 131.662 309.42C131.662 309.92 131.844 310.315 132.208 310.605C132.571 310.895 133.14 311.136 133.912 311.33L135.855 311.807C137.026 312.091 137.898 312.526 138.472 313.111C139.046 313.69 139.333 314.437 139.333 315.352C139.333 316.102 139.117 316.773 138.685 317.364C138.259 317.955 137.662 318.42 136.895 318.761C136.128 319.102 135.236 319.273 134.219 319.273C132.884 319.273 131.779 318.983 130.904 318.403C130.029 317.824 129.475 316.977 129.242 315.864L131.151 315.386C131.333 316.091 131.676 316.619 132.182 316.972C132.694 317.324 133.361 317.5 134.185 317.5C135.123 317.5 135.867 317.301 136.418 316.903C136.975 316.5 137.253 316.017 137.253 315.455C137.253 315 137.094 314.619 136.776 314.312C136.458 314 135.969 313.767 135.31 313.614L133.128 313.102C131.929 312.818 131.049 312.378 130.486 311.781C129.929 311.179 129.651 310.426 129.651 309.523C129.651 308.784 129.858 308.131 130.273 307.562C130.694 306.994 131.265 306.548 131.986 306.224C132.713 305.901 133.537 305.739 134.458 305.739C135.753 305.739 136.77 306.023 137.509 306.591C138.253 307.159 138.782 307.909 139.094 308.841ZM163.429 307H161.315C161.19 306.392 160.971 305.858 160.659 305.398C160.352 304.938 159.977 304.551 159.534 304.239C159.096 303.92 158.61 303.682 158.076 303.523C157.542 303.364 156.985 303.284 156.406 303.284C155.349 303.284 154.392 303.551 153.534 304.085C152.681 304.619 152.002 305.406 151.497 306.446C150.997 307.486 150.747 308.761 150.747 310.273C150.747 311.784 150.997 313.06 151.497 314.099C152.002 315.139 152.681 315.926 153.534 316.46C154.392 316.994 155.349 317.261 156.406 317.261C156.985 317.261 157.542 317.182 158.076 317.023C158.61 316.864 159.096 316.628 159.534 316.315C159.977 315.997 160.352 315.608 160.659 315.148C160.971 314.682 161.19 314.148 161.315 313.545H163.429C163.27 314.437 162.98 315.236 162.559 315.94C162.139 316.645 161.616 317.244 160.991 317.739C160.366 318.227 159.664 318.599 158.886 318.855C158.113 319.111 157.287 319.239 156.406 319.239C154.917 319.239 153.593 318.875 152.434 318.148C151.275 317.42 150.363 316.386 149.699 315.045C149.034 313.705 148.701 312.114 148.701 310.273C148.701 308.432 149.034 306.841 149.699 305.5C150.363 304.159 151.275 303.125 152.434 302.398C153.593 301.67 154.917 301.307 156.406 301.307C157.287 301.307 158.113 301.435 158.886 301.69C159.664 301.946 160.366 302.321 160.991 302.815C161.616 303.304 162.139 303.901 162.559 304.605C162.98 305.304 163.27 306.102 163.429 307ZM171.89 319.273C170.708 319.273 169.671 318.991 168.779 318.429C167.892 317.866 167.199 317.08 166.699 316.068C166.205 315.057 165.958 313.875 165.958 312.523C165.958 311.159 166.205 309.969 166.699 308.952C167.199 307.935 167.892 307.145 168.779 306.582C169.671 306.02 170.708 305.739 171.89 305.739C173.071 305.739 174.105 306.02 174.992 306.582C175.884 307.145 176.577 307.935 177.071 308.952C177.571 309.969 177.821 311.159 177.821 312.523C177.821 313.875 177.571 315.057 177.071 316.068C176.577 317.08 175.884 317.866 174.992 318.429C174.105 318.991 173.071 319.273 171.89 319.273ZM171.89 317.466C172.787 317.466 173.526 317.236 174.105 316.776C174.685 316.315 175.114 315.71 175.392 314.96C175.671 314.21 175.81 313.398 175.81 312.523C175.81 311.648 175.671 310.832 175.392 310.077C175.114 309.321 174.685 308.71 174.105 308.244C173.526 307.778 172.787 307.545 171.89 307.545C170.992 307.545 170.253 307.778 169.674 308.244C169.094 308.71 168.665 309.321 168.387 310.077C168.108 310.832 167.969 311.648 167.969 312.523C167.969 313.398 168.108 314.21 168.387 314.96C168.665 315.71 169.094 316.315 169.674 316.776C170.253 317.236 170.992 317.466 171.89 317.466ZM180.892 319V305.909H182.835V307.955H183.005C183.278 307.256 183.718 306.713 184.326 306.327C184.934 305.935 185.664 305.739 186.517 305.739C187.38 305.739 188.099 305.935 188.673 306.327C189.252 306.713 189.704 307.256 190.028 307.955H190.164C190.5 307.278 191.002 306.741 191.673 306.344C192.343 305.94 193.147 305.739 194.085 305.739C195.255 305.739 196.213 306.105 196.957 306.838C197.701 307.565 198.074 308.699 198.074 310.239V319H196.062V310.239C196.062 309.273 195.798 308.582 195.27 308.168C194.741 307.753 194.119 307.545 193.403 307.545C192.483 307.545 191.77 307.824 191.264 308.381C190.758 308.932 190.505 309.631 190.505 310.477V319H188.46V310.034C188.46 309.29 188.218 308.69 187.735 308.236C187.252 307.776 186.63 307.545 185.869 307.545C185.346 307.545 184.858 307.685 184.403 307.963C183.954 308.241 183.591 308.628 183.312 309.122C183.039 309.611 182.903 310.176 182.903 310.818V319H180.892ZM201.751 323.909V305.909H203.694V307.989H203.933C204.081 307.761 204.285 307.472 204.547 307.119C204.814 306.761 205.194 306.443 205.689 306.165C206.189 305.881 206.865 305.739 207.717 305.739C208.819 305.739 209.791 306.014 210.632 306.565C211.473 307.116 212.129 307.898 212.6 308.909C213.072 309.92 213.308 311.114 213.308 312.489C213.308 313.875 213.072 315.077 212.6 316.094C212.129 317.105 211.475 317.889 210.64 318.446C209.805 318.997 208.842 319.273 207.751 319.273C206.91 319.273 206.237 319.134 205.731 318.855C205.225 318.571 204.836 318.25 204.564 317.892C204.291 317.528 204.081 317.227 203.933 316.989H203.762V323.909H201.751ZM203.728 312.455C203.728 313.443 203.873 314.315 204.163 315.071C204.453 315.821 204.876 316.409 205.433 316.835C205.99 317.256 206.672 317.466 207.478 317.466C208.319 317.466 209.021 317.244 209.583 316.801C210.152 316.352 210.578 315.75 210.862 314.994C211.152 314.233 211.297 313.386 211.297 312.455C211.297 311.534 211.154 310.705 210.87 309.966C210.592 309.222 210.169 308.634 209.6 308.202C209.038 307.764 208.331 307.545 207.478 307.545C206.66 307.545 205.973 307.753 205.416 308.168C204.859 308.577 204.439 309.151 204.154 309.889C203.87 310.622 203.728 311.477 203.728 312.455ZM221.694 319.273C220.512 319.273 219.475 318.991 218.583 318.429C217.697 317.866 217.004 317.08 216.504 316.068C216.01 315.057 215.762 313.875 215.762 312.523C215.762 311.159 216.01 309.969 216.504 308.952C217.004 307.935 217.697 307.145 218.583 306.582C219.475 306.02 220.512 305.739 221.694 305.739C222.876 305.739 223.91 306.02 224.797 306.582C225.689 307.145 226.382 307.935 226.876 308.952C227.376 309.969 227.626 311.159 227.626 312.523C227.626 313.875 227.376 315.057 226.876 316.068C226.382 317.08 225.689 317.866 224.797 318.429C223.91 318.991 222.876 319.273 221.694 319.273ZM221.694 317.466C222.592 317.466 223.331 317.236 223.91 316.776C224.49 316.315 224.919 315.71 225.197 314.96C225.475 314.21 225.615 313.398 225.615 312.523C225.615 311.648 225.475 310.832 225.197 310.077C224.919 309.321 224.49 308.71 223.91 308.244C223.331 307.778 222.592 307.545 221.694 307.545C220.797 307.545 220.058 307.778 219.478 308.244C218.899 308.71 218.47 309.321 218.191 310.077C217.913 310.832 217.774 311.648 217.774 312.523C217.774 313.398 217.913 314.21 218.191 314.96C218.47 315.71 218.899 316.315 219.478 316.776C220.058 317.236 220.797 317.466 221.694 317.466ZM232.708 311.125V319H230.696V305.909H232.64V307.955H232.81C233.117 307.29 233.583 306.756 234.208 306.352C234.833 305.943 235.64 305.739 236.628 305.739C237.515 305.739 238.29 305.92 238.955 306.284C239.62 306.642 240.137 307.188 240.506 307.92C240.875 308.648 241.06 309.568 241.06 310.682V319H239.049V310.818C239.049 309.79 238.782 308.989 238.248 308.415C237.713 307.835 236.98 307.545 236.049 307.545C235.407 307.545 234.833 307.685 234.327 307.963C233.827 308.241 233.432 308.648 233.142 309.182C232.853 309.716 232.708 310.364 232.708 311.125ZM250.224 319.273C248.963 319.273 247.875 318.994 246.96 318.438C246.051 317.875 245.349 317.091 244.855 316.085C244.366 315.074 244.122 313.898 244.122 312.557C244.122 311.216 244.366 310.034 244.855 309.011C245.349 307.983 246.037 307.182 246.917 306.608C247.804 306.028 248.838 305.739 250.02 305.739C250.701 305.739 251.375 305.852 252.039 306.08C252.704 306.307 253.309 306.676 253.855 307.188C254.4 307.693 254.835 308.364 255.159 309.199C255.483 310.034 255.645 311.062 255.645 312.284V313.136H245.554V311.398H253.599C253.599 310.659 253.451 310 253.156 309.42C252.866 308.841 252.451 308.384 251.912 308.048C251.377 307.713 250.747 307.545 250.02 307.545C249.218 307.545 248.525 307.744 247.94 308.142C247.36 308.534 246.914 309.045 246.602 309.676C246.289 310.307 246.133 310.983 246.133 311.705V312.864C246.133 313.852 246.304 314.69 246.645 315.378C246.991 316.06 247.471 316.58 248.085 316.938C248.699 317.29 249.412 317.466 250.224 317.466C250.752 317.466 251.23 317.392 251.656 317.244C252.088 317.091 252.46 316.864 252.772 316.562C253.085 316.256 253.326 315.875 253.497 315.42L255.44 315.966C255.235 316.625 254.892 317.205 254.409 317.705C253.926 318.199 253.329 318.585 252.619 318.864C251.909 319.136 251.11 319.273 250.224 319.273ZM260.716 311.125V319H258.704V305.909H260.647V307.955H260.818C261.125 307.29 261.591 306.756 262.216 306.352C262.841 305.943 263.647 305.739 264.636 305.739C265.522 305.739 266.298 305.92 266.963 306.284C267.627 306.642 268.145 307.188 268.514 307.92C268.883 308.648 269.068 309.568 269.068 310.682V319H267.056V310.818C267.056 309.79 266.789 308.989 266.255 308.415C265.721 307.835 264.988 307.545 264.056 307.545C263.414 307.545 262.841 307.685 262.335 307.963C261.835 308.241 261.44 308.648 261.15 309.182C260.86 309.716 260.716 310.364 260.716 311.125ZM278.436 305.909V307.614H271.652V305.909H278.436ZM273.63 302.773H275.641V315.25C275.641 315.818 275.723 316.244 275.888 316.528C276.059 316.807 276.275 316.994 276.536 317.091C276.803 317.182 277.084 317.227 277.38 317.227C277.601 317.227 277.783 317.216 277.925 317.193C278.067 317.165 278.181 317.142 278.266 317.125L278.675 318.932C278.539 318.983 278.348 319.034 278.104 319.085C277.86 319.142 277.55 319.17 277.175 319.17C276.607 319.17 276.05 319.048 275.505 318.804C274.965 318.56 274.516 318.188 274.158 317.688C273.806 317.188 273.63 316.557 273.63 315.795V302.773Z"
        fill="black" />
    <path
        d="M639.652 319H634.266V301.545H639.891C641.584 301.545 643.033 301.895 644.238 302.594C645.442 303.287 646.365 304.284 647.007 305.585C647.65 306.881 647.971 308.432 647.971 310.239C647.971 312.057 647.647 313.622 646.999 314.935C646.351 316.241 645.408 317.247 644.169 317.952C642.931 318.651 641.425 319 639.652 319ZM636.38 317.125H639.516C640.959 317.125 642.155 316.847 643.104 316.29C644.053 315.733 644.76 314.94 645.226 313.912C645.692 312.884 645.925 311.659 645.925 310.239C645.925 308.83 645.695 307.616 645.235 306.599C644.775 305.577 644.087 304.793 643.172 304.247C642.257 303.696 641.118 303.42 639.755 303.42H636.38V317.125ZM651.243 319V305.909H653.255V319H651.243ZM652.266 303.727C651.874 303.727 651.536 303.594 651.252 303.327C650.973 303.06 650.834 302.739 650.834 302.364C650.834 301.989 650.973 301.668 651.252 301.401C651.536 301.134 651.874 301 652.266 301C652.658 301 652.993 301.134 653.272 301.401C653.556 301.668 653.698 301.989 653.698 302.364C653.698 302.739 653.556 303.06 653.272 303.327C652.993 303.594 652.658 303.727 652.266 303.727ZM666.211 308.841L664.404 309.352C664.291 309.051 664.123 308.759 663.902 308.474C663.686 308.185 663.39 307.946 663.015 307.759C662.64 307.571 662.16 307.477 661.575 307.477C660.774 307.477 660.106 307.662 659.572 308.031C659.044 308.395 658.779 308.858 658.779 309.42C658.779 309.92 658.961 310.315 659.325 310.605C659.689 310.895 660.257 311.136 661.029 311.33L662.973 311.807C664.143 312.091 665.015 312.526 665.589 313.111C666.163 313.69 666.45 314.437 666.45 315.352C666.45 316.102 666.234 316.773 665.802 317.364C665.376 317.955 664.779 318.42 664.012 318.761C663.245 319.102 662.353 319.273 661.336 319.273C660.001 319.273 658.896 318.983 658.021 318.403C657.146 317.824 656.592 316.977 656.359 315.864L658.268 315.386C658.45 316.091 658.794 316.619 659.299 316.972C659.811 317.324 660.478 317.5 661.302 317.5C662.24 317.5 662.984 317.301 663.535 316.903C664.092 316.5 664.37 316.017 664.37 315.455C664.37 315 664.211 314.619 663.893 314.312C663.575 314 663.086 313.767 662.427 313.614L660.245 313.102C659.047 312.818 658.166 312.378 657.603 311.781C657.047 311.179 656.768 310.426 656.768 309.523C656.768 308.784 656.975 308.131 657.39 307.562C657.811 306.994 658.382 306.548 659.103 306.224C659.831 305.901 660.654 305.739 661.575 305.739C662.87 305.739 663.887 306.023 664.626 306.591C665.37 307.159 665.899 307.909 666.211 308.841ZM669.478 323.909V305.909H671.421V307.989H671.659C671.807 307.761 672.012 307.472 672.273 307.119C672.54 306.761 672.921 306.443 673.415 306.165C673.915 305.881 674.591 305.739 675.444 305.739C676.546 305.739 677.517 306.014 678.358 306.565C679.199 307.116 679.855 307.898 680.327 308.909C680.799 309.92 681.034 311.114 681.034 312.489C681.034 313.875 680.799 315.077 680.327 316.094C679.855 317.105 679.202 317.889 678.367 318.446C677.532 318.997 676.569 319.273 675.478 319.273C674.637 319.273 673.963 319.134 673.458 318.855C672.952 318.571 672.563 318.25 672.29 317.892C672.017 317.528 671.807 317.227 671.659 316.989H671.489V323.909H669.478ZM671.455 312.455C671.455 313.443 671.6 314.315 671.89 315.071C672.179 315.821 672.603 316.409 673.159 316.835C673.716 317.256 674.398 317.466 675.205 317.466C676.046 317.466 676.748 317.244 677.31 316.801C677.878 316.352 678.304 315.75 678.588 314.994C678.878 314.233 679.023 313.386 679.023 312.455C679.023 311.534 678.881 310.705 678.597 309.966C678.319 309.222 677.895 308.634 677.327 308.202C676.765 307.764 676.057 307.545 675.205 307.545C674.387 307.545 673.699 307.753 673.142 308.168C672.586 308.577 672.165 309.151 671.881 309.889C671.597 310.622 671.455 311.477 671.455 312.455ZM687.955 319.307C687.125 319.307 686.373 319.151 685.696 318.838C685.02 318.52 684.483 318.062 684.086 317.466C683.688 316.864 683.489 316.136 683.489 315.284C683.489 314.534 683.637 313.926 683.932 313.46C684.228 312.989 684.623 312.619 685.117 312.352C685.611 312.085 686.157 311.886 686.753 311.756C687.355 311.619 687.961 311.511 688.569 311.432C689.364 311.33 690.009 311.253 690.503 311.202C691.003 311.145 691.367 311.051 691.594 310.92C691.827 310.79 691.944 310.562 691.944 310.239V310.17C691.944 309.33 691.713 308.676 691.253 308.21C690.799 307.744 690.108 307.511 689.182 307.511C688.222 307.511 687.469 307.722 686.924 308.142C686.378 308.562 685.995 309.011 685.773 309.489L683.864 308.807C684.205 308.011 684.659 307.392 685.228 306.949C685.801 306.5 686.426 306.187 687.103 306.011C687.784 305.83 688.455 305.739 689.114 305.739C689.534 305.739 690.017 305.79 690.563 305.892C691.114 305.989 691.645 306.19 692.157 306.497C692.674 306.804 693.103 307.267 693.444 307.886C693.784 308.506 693.955 309.335 693.955 310.375V319H691.944V317.227H691.841C691.705 317.511 691.478 317.815 691.159 318.139C690.841 318.463 690.418 318.739 689.89 318.966C689.361 319.193 688.716 319.307 687.955 319.307ZM688.262 317.5C689.057 317.5 689.728 317.344 690.273 317.031C690.824 316.719 691.239 316.315 691.517 315.821C691.801 315.327 691.944 314.807 691.944 314.261V312.42C691.858 312.523 691.671 312.616 691.381 312.702C691.097 312.781 690.767 312.852 690.392 312.915C690.023 312.972 689.662 313.023 689.31 313.068C688.963 313.108 688.682 313.142 688.466 313.17C687.944 313.239 687.455 313.349 687 313.503C686.551 313.651 686.188 313.875 685.909 314.176C685.637 314.472 685.5 314.875 685.5 315.386C685.5 316.085 685.759 316.614 686.276 316.972C686.799 317.324 687.461 317.5 688.262 317.5ZM703.319 305.909V307.614H696.535V305.909H703.319ZM698.512 302.773H700.524V315.25C700.524 315.818 700.606 316.244 700.771 316.528C700.941 316.807 701.157 316.994 701.419 317.091C701.686 317.182 701.967 317.227 702.262 317.227C702.484 317.227 702.666 317.216 702.808 317.193C702.95 317.165 703.064 317.142 703.149 317.125L703.558 318.932C703.422 318.983 703.231 319.034 702.987 319.085C702.743 319.142 702.433 319.17 702.058 319.17C701.49 319.17 700.933 319.048 700.387 318.804C699.848 318.56 699.399 318.188 699.041 317.688C698.689 317.188 698.512 316.557 698.512 315.795V302.773ZM711.522 319.273C710.295 319.273 709.238 318.983 708.352 318.403C707.466 317.824 706.784 317.026 706.306 316.009C705.829 314.991 705.591 313.83 705.591 312.523C705.591 311.193 705.835 310.02 706.324 309.003C706.818 307.98 707.505 307.182 708.386 306.608C709.272 306.028 710.306 305.739 711.488 305.739C712.409 305.739 713.238 305.909 713.977 306.25C714.716 306.591 715.321 307.068 715.792 307.682C716.264 308.295 716.556 309.011 716.67 309.83H714.659C714.505 309.233 714.164 308.705 713.636 308.244C713.113 307.778 712.409 307.545 711.522 307.545C710.738 307.545 710.051 307.75 709.46 308.159C708.875 308.562 708.417 309.134 708.088 309.872C707.764 310.605 707.602 311.466 707.602 312.455C707.602 313.466 707.761 314.347 708.079 315.097C708.403 315.847 708.858 316.429 709.443 316.844C710.034 317.259 710.727 317.466 711.522 317.466C712.045 317.466 712.52 317.375 712.946 317.193C713.372 317.011 713.733 316.75 714.028 316.409C714.324 316.068 714.534 315.659 714.659 315.182H716.67C716.556 315.955 716.275 316.651 715.826 317.27C715.383 317.884 714.795 318.372 714.062 318.736C713.335 319.094 712.488 319.273 711.522 319.273ZM721.622 311.125V319H719.61V301.545H721.622V307.955H721.792C722.099 307.278 722.559 306.741 723.173 306.344C723.792 305.94 724.616 305.739 725.645 305.739C726.537 305.739 727.318 305.918 727.988 306.276C728.659 306.628 729.179 307.17 729.548 307.903C729.923 308.631 730.11 309.557 730.11 310.682V319H728.099V310.818C728.099 309.778 727.829 308.974 727.289 308.406C726.755 307.832 726.014 307.545 725.065 307.545C724.406 307.545 723.815 307.685 723.292 307.963C722.775 308.241 722.366 308.648 722.065 309.182C721.77 309.716 721.622 310.364 721.622 311.125ZM739.279 319.273C738.017 319.273 736.929 318.994 736.015 318.438C735.105 317.875 734.404 317.091 733.909 316.085C733.421 315.074 733.176 313.898 733.176 312.557C733.176 311.216 733.421 310.034 733.909 309.011C734.404 307.983 735.091 307.182 735.972 306.608C736.858 306.028 737.892 305.739 739.074 305.739C739.756 305.739 740.429 305.852 741.094 306.08C741.759 306.307 742.364 306.676 742.909 307.188C743.455 307.693 743.89 308.364 744.213 309.199C744.537 310.034 744.699 311.062 744.699 312.284V313.136H734.608V311.398H742.654C742.654 310.659 742.506 310 742.211 309.42C741.921 308.841 741.506 308.384 740.966 308.048C740.432 307.713 739.801 307.545 739.074 307.545C738.273 307.545 737.58 307.744 736.995 308.142C736.415 308.534 735.969 309.045 735.657 309.676C735.344 310.307 735.188 310.983 735.188 311.705V312.864C735.188 313.852 735.358 314.69 735.699 315.378C736.046 316.06 736.526 316.58 737.14 316.938C737.753 317.29 738.466 317.466 739.279 317.466C739.807 317.466 740.284 317.392 740.711 317.244C741.142 317.091 741.515 316.864 741.827 316.562C742.14 316.256 742.381 315.875 742.551 315.42L744.495 315.966C744.29 316.625 743.946 317.205 743.463 317.705C742.98 318.199 742.384 318.585 741.674 318.864C740.963 319.136 740.165 319.273 739.279 319.273ZM747.759 319V305.909H749.702V307.886H749.838C750.077 307.239 750.509 306.713 751.134 306.31C751.759 305.906 752.463 305.705 753.248 305.705C753.395 305.705 753.58 305.707 753.801 305.713C754.023 305.719 754.191 305.727 754.304 305.739V307.784C754.236 307.767 754.08 307.741 753.836 307.707C753.597 307.668 753.344 307.648 753.077 307.648C752.441 307.648 751.873 307.781 751.373 308.048C750.878 308.31 750.486 308.673 750.196 309.139C749.912 309.599 749.77 310.125 749.77 310.716V319H747.759Z"
        fill="black" />
    <path
        d="M614.121 441.545H616.644L622.576 456.034H622.781L628.712 441.545H631.235V459H629.258V445.739H629.087L623.633 459H621.724L616.269 445.739H616.099V459H614.121V441.545ZM636.189 459H633.973L640.382 441.545H642.564L648.973 459H646.757L641.541 444.307H641.405L636.189 459ZM637.007 452.182H645.939V454.057H637.007V452.182ZM648.698 443.42V441.545H661.789V443.42H656.3V459H654.187V443.42H648.698ZM678.37 447H676.256C676.131 446.392 675.913 445.858 675.6 445.398C675.293 444.938 674.918 444.551 674.475 444.239C674.038 443.92 673.552 443.682 673.018 443.523C672.484 443.364 671.927 443.284 671.347 443.284C670.29 443.284 669.333 443.551 668.475 444.085C667.623 444.619 666.944 445.406 666.438 446.446C665.938 447.486 665.688 448.761 665.688 450.273C665.688 451.784 665.938 453.06 666.438 454.099C666.944 455.139 667.623 455.926 668.475 456.46C669.333 456.994 670.29 457.261 671.347 457.261C671.927 457.261 672.484 457.182 673.018 457.023C673.552 456.864 674.038 456.628 674.475 456.315C674.918 455.997 675.293 455.608 675.6 455.148C675.913 454.682 676.131 454.148 676.256 453.545H678.37C678.211 454.437 677.921 455.236 677.501 455.94C677.08 456.645 676.558 457.244 675.933 457.739C675.308 458.227 674.606 458.599 673.827 458.855C673.055 459.111 672.228 459.239 671.347 459.239C669.859 459.239 668.535 458.875 667.376 458.148C666.217 457.42 665.305 456.386 664.64 455.045C663.975 453.705 663.643 452.114 663.643 450.273C663.643 448.432 663.975 446.841 664.64 445.5C665.305 444.159 666.217 443.125 667.376 442.398C668.535 441.67 669.859 441.307 671.347 441.307C672.228 441.307 673.055 441.435 673.827 441.69C674.606 441.946 675.308 442.321 675.933 442.815C676.558 443.304 677.08 443.901 677.501 444.605C677.921 445.304 678.211 446.102 678.37 447ZM681.786 459V441.545H683.899V449.318H693.206V441.545H695.32V459H693.206V451.193H683.899V459H681.786ZM717.756 441.545H719.869V453.102C719.869 454.295 719.588 455.361 719.026 456.298C718.469 457.23 717.682 457.966 716.665 458.506C715.648 459.04 714.455 459.307 713.085 459.307C711.716 459.307 710.523 459.04 709.506 458.506C708.489 457.966 707.699 457.23 707.136 456.298C706.58 455.361 706.301 454.295 706.301 453.102V441.545H708.415V452.932C708.415 453.784 708.602 454.543 708.977 455.207C709.352 455.866 709.886 456.386 710.58 456.767C711.278 457.142 712.114 457.33 713.085 457.33C714.057 457.33 714.892 457.142 715.591 456.767C716.29 456.386 716.824 455.866 717.193 455.207C717.568 454.543 717.756 453.784 717.756 452.932V441.545ZM724.09 459V441.545H726.204V457.125H734.317V459H724.09ZM737.59 459V441.545H743.488C744.852 441.545 745.971 441.778 746.846 442.244C747.721 442.705 748.369 443.338 748.789 444.145C749.21 444.952 749.42 445.869 749.42 446.898C749.42 447.926 749.21 448.838 748.789 449.634C748.369 450.429 747.724 451.054 746.854 451.509C745.985 451.957 744.874 452.182 743.522 452.182H738.749V450.273H743.454C744.386 450.273 745.136 450.136 745.704 449.864C746.278 449.591 746.692 449.205 746.948 448.705C747.21 448.199 747.34 447.597 747.34 446.898C747.34 446.199 747.21 445.588 746.948 445.065C746.687 444.543 746.269 444.139 745.695 443.855C745.121 443.565 744.363 443.42 743.42 443.42H739.704V459H737.59ZM745.806 451.159L750.102 459H747.647L743.42 451.159H745.806ZM755.294 454.091V453.989C755.305 452.903 755.419 452.04 755.635 451.398C755.851 450.756 756.158 450.236 756.555 449.838C756.953 449.44 757.43 449.074 757.987 448.739C758.322 448.534 758.624 448.293 758.891 448.014C759.158 447.73 759.368 447.403 759.521 447.034C759.68 446.665 759.76 446.256 759.76 445.807C759.76 445.25 759.629 444.767 759.368 444.358C759.107 443.949 758.757 443.634 758.32 443.412C757.882 443.19 757.396 443.08 756.862 443.08C756.396 443.08 755.947 443.176 755.516 443.369C755.084 443.562 754.723 443.866 754.433 444.281C754.143 444.696 753.976 445.239 753.93 445.909H751.783C751.828 444.943 752.078 444.116 752.533 443.429C752.993 442.741 753.598 442.216 754.348 441.852C755.104 441.489 755.942 441.307 756.862 441.307C757.862 441.307 758.732 441.506 759.47 441.903C760.214 442.301 760.788 442.847 761.192 443.54C761.601 444.233 761.805 445.023 761.805 445.909C761.805 446.534 761.709 447.099 761.516 447.605C761.328 448.111 761.055 448.562 760.697 448.96C760.345 449.358 759.919 449.71 759.419 450.017C758.919 450.33 758.518 450.659 758.217 451.006C757.916 451.347 757.697 451.753 757.561 452.224C757.425 452.696 757.351 453.284 757.339 453.989V454.091H755.294ZM756.385 459.136C755.964 459.136 755.604 458.986 755.303 458.685C755.001 458.384 754.851 458.023 754.851 457.602C754.851 457.182 755.001 456.821 755.303 456.52C755.604 456.219 755.964 456.068 756.385 456.068C756.805 456.068 757.166 456.219 757.467 456.52C757.768 456.821 757.919 457.182 757.919 457.602C757.919 457.881 757.848 458.136 757.706 458.369C757.57 458.602 757.385 458.79 757.152 458.932C756.925 459.068 756.669 459.136 756.385 459.136Z"
        fill="black" />
    <path
        d="M332.996 600H327.61V582.545H333.235C334.928 582.545 336.377 582.895 337.581 583.594C338.786 584.287 339.709 585.284 340.351 586.585C340.993 587.881 341.314 589.432 341.314 591.239C341.314 593.057 340.99 594.622 340.343 595.935C339.695 597.241 338.752 598.247 337.513 598.952C336.275 599.651 334.769 600 332.996 600ZM329.723 598.125H332.86C334.303 598.125 335.499 597.847 336.448 597.29C337.397 596.733 338.104 595.94 338.57 594.912C339.036 593.884 339.269 592.659 339.269 591.239C339.269 589.83 339.039 588.616 338.578 587.599C338.118 586.577 337.431 585.793 336.516 585.247C335.601 584.696 334.462 584.42 333.098 584.42H329.723V598.125ZM345.882 604.909C345.542 604.909 345.238 604.881 344.971 604.824C344.703 604.773 344.519 604.722 344.417 604.67L344.928 602.898C345.417 603.023 345.848 603.068 346.223 603.034C346.598 603 346.931 602.832 347.221 602.531C347.516 602.236 347.786 601.756 348.03 601.091L348.405 600.068L343.564 586.909H345.746L349.36 597.341H349.496L353.11 586.909H355.292L349.735 601.909C349.485 602.585 349.175 603.145 348.806 603.588C348.436 604.037 348.007 604.369 347.519 604.585C347.036 604.801 346.49 604.909 345.882 604.909ZM359.958 592.125V600H357.946V586.909H359.89V588.955H360.06C360.367 588.29 360.833 587.756 361.458 587.352C362.083 586.943 362.89 586.739 363.878 586.739C364.765 586.739 365.54 586.92 366.205 587.284C366.87 587.642 367.387 588.188 367.756 588.92C368.125 589.648 368.31 590.568 368.31 591.682V600H366.299V591.818C366.299 590.79 366.032 589.989 365.498 589.415C364.963 588.835 364.23 588.545 363.299 588.545C362.657 588.545 362.083 588.685 361.577 588.963C361.077 589.241 360.682 589.648 360.392 590.182C360.103 590.716 359.958 591.364 359.958 592.125ZM375.838 600.307C375.008 600.307 374.255 600.151 373.579 599.838C372.903 599.52 372.366 599.062 371.968 598.466C371.571 597.864 371.372 597.136 371.372 596.284C371.372 595.534 371.52 594.926 371.815 594.46C372.11 593.989 372.505 593.619 373 593.352C373.494 593.085 374.039 592.886 374.636 592.756C375.238 592.619 375.843 592.511 376.451 592.432C377.247 592.33 377.892 592.253 378.386 592.202C378.886 592.145 379.25 592.051 379.477 591.92C379.71 591.79 379.826 591.562 379.826 591.239V591.17C379.826 590.33 379.596 589.676 379.136 589.21C378.681 588.744 377.991 588.511 377.065 588.511C376.105 588.511 375.352 588.722 374.806 589.142C374.261 589.562 373.877 590.011 373.656 590.489L371.747 589.807C372.088 589.011 372.542 588.392 373.11 587.949C373.684 587.5 374.309 587.187 374.985 587.011C375.667 586.83 376.338 586.739 376.997 586.739C377.417 586.739 377.9 586.79 378.446 586.892C378.997 586.989 379.528 587.19 380.039 587.497C380.556 587.804 380.985 588.267 381.326 588.886C381.667 589.506 381.838 590.335 381.838 591.375V600H379.826V598.227H379.724C379.588 598.511 379.36 598.815 379.042 599.139C378.724 599.463 378.301 599.739 377.772 599.966C377.244 600.193 376.599 600.307 375.838 600.307ZM376.145 598.5C376.94 598.5 377.61 598.344 378.156 598.031C378.707 597.719 379.122 597.315 379.4 596.821C379.684 596.327 379.826 595.807 379.826 595.261V593.42C379.741 593.523 379.554 593.616 379.264 593.702C378.98 593.781 378.65 593.852 378.275 593.915C377.906 593.972 377.545 594.023 377.193 594.068C376.846 594.108 376.565 594.142 376.349 594.17C375.826 594.239 375.338 594.349 374.883 594.503C374.434 594.651 374.071 594.875 373.792 595.176C373.52 595.472 373.383 595.875 373.383 596.386C373.383 597.085 373.642 597.614 374.159 597.972C374.681 598.324 375.343 598.5 376.145 598.5ZM385.509 600V586.909H387.452V588.955H387.623C387.895 588.256 388.336 587.713 388.944 587.327C389.551 586.935 390.282 586.739 391.134 586.739C391.998 586.739 392.716 586.935 393.29 587.327C393.87 587.713 394.321 588.256 394.645 588.955H394.782C395.117 588.278 395.62 587.741 396.29 587.344C396.961 586.94 397.765 586.739 398.702 586.739C399.873 586.739 400.83 587.105 401.574 587.838C402.319 588.565 402.691 589.699 402.691 591.239V600H400.679V591.239C400.679 590.273 400.415 589.582 399.887 589.168C399.358 588.753 398.736 588.545 398.02 588.545C397.1 588.545 396.387 588.824 395.881 589.381C395.375 589.932 395.123 590.631 395.123 591.477V600H393.077V591.034C393.077 590.29 392.836 589.69 392.353 589.236C391.87 588.776 391.248 588.545 390.486 588.545C389.963 588.545 389.475 588.685 389.02 588.963C388.571 589.241 388.208 589.628 387.929 590.122C387.657 590.611 387.52 591.176 387.52 591.818V600H385.509ZM406.368 600V586.909H408.38V600H406.368ZM407.391 584.727C406.999 584.727 406.661 584.594 406.377 584.327C406.098 584.06 405.959 583.739 405.959 583.364C405.959 582.989 406.098 582.668 406.377 582.401C406.661 582.134 406.999 582 407.391 582C407.783 582 408.118 582.134 408.397 582.401C408.681 582.668 408.823 582.989 408.823 583.364C408.823 583.739 408.681 584.06 408.397 584.327C408.118 584.594 407.783 584.727 407.391 584.727ZM417.382 600.273C416.154 600.273 415.098 599.983 414.211 599.403C413.325 598.824 412.643 598.026 412.166 597.009C411.689 595.991 411.45 594.83 411.45 593.523C411.45 592.193 411.694 591.02 412.183 590.003C412.677 588.98 413.365 588.182 414.245 587.608C415.132 587.028 416.166 586.739 417.348 586.739C418.268 586.739 419.098 586.909 419.836 587.25C420.575 587.591 421.18 588.068 421.652 588.682C422.123 589.295 422.416 590.011 422.529 590.83H420.518C420.365 590.233 420.024 589.705 419.495 589.244C418.973 588.778 418.268 588.545 417.382 588.545C416.598 588.545 415.91 588.75 415.319 589.159C414.734 589.562 414.277 590.134 413.947 590.872C413.623 591.605 413.461 592.466 413.461 593.455C413.461 594.466 413.62 595.347 413.939 596.097C414.262 596.847 414.717 597.429 415.302 597.844C415.893 598.259 416.586 598.466 417.382 598.466C417.904 598.466 418.379 598.375 418.805 598.193C419.231 598.011 419.592 597.75 419.887 597.409C420.183 597.068 420.393 596.659 420.518 596.182H422.529C422.416 596.955 422.135 597.651 421.686 598.27C421.243 598.884 420.654 599.372 419.922 599.736C419.194 600.094 418.348 600.273 417.382 600.273ZM446.538 588H444.424C444.299 587.392 444.081 586.858 443.768 586.398C443.461 585.938 443.086 585.551 442.643 585.239C442.206 584.92 441.72 584.682 441.186 584.523C440.652 584.364 440.095 584.284 439.515 584.284C438.458 584.284 437.501 584.551 436.643 585.085C435.791 585.619 435.112 586.406 434.606 587.446C434.106 588.486 433.856 589.761 433.856 591.273C433.856 592.784 434.106 594.06 434.606 595.099C435.112 596.139 435.791 596.926 436.643 597.46C437.501 597.994 438.458 598.261 439.515 598.261C440.095 598.261 440.652 598.182 441.186 598.023C441.72 597.864 442.206 597.628 442.643 597.315C443.086 596.997 443.461 596.608 443.768 596.148C444.081 595.682 444.299 595.148 444.424 594.545H446.538C446.379 595.437 446.089 596.236 445.669 596.94C445.248 597.645 444.725 598.244 444.1 598.739C443.475 599.227 442.774 599.599 441.995 599.855C441.223 600.111 440.396 600.239 439.515 600.239C438.027 600.239 436.703 599.875 435.544 599.148C434.385 598.42 433.473 597.386 432.808 596.045C432.143 594.705 431.811 593.114 431.811 591.273C431.811 589.432 432.143 587.841 432.808 586.5C433.473 585.159 434.385 584.125 435.544 583.398C436.703 582.67 438.027 582.307 439.515 582.307C440.396 582.307 441.223 582.435 441.995 582.69C442.774 582.946 443.475 583.321 444.1 583.815C444.725 584.304 445.248 584.901 445.669 585.605C446.089 586.304 446.379 587.102 446.538 588ZM454.999 600.273C453.817 600.273 452.78 599.991 451.888 599.429C451.002 598.866 450.309 598.08 449.809 597.068C449.314 596.057 449.067 594.875 449.067 593.523C449.067 592.159 449.314 590.969 449.809 589.952C450.309 588.935 451.002 588.145 451.888 587.582C452.78 587.02 453.817 586.739 454.999 586.739C456.181 586.739 457.215 587.02 458.101 587.582C458.993 588.145 459.686 588.935 460.181 589.952C460.681 590.969 460.931 592.159 460.931 593.523C460.931 594.875 460.681 596.057 460.181 597.068C459.686 598.08 458.993 598.866 458.101 599.429C457.215 599.991 456.181 600.273 454.999 600.273ZM454.999 598.466C455.897 598.466 456.635 598.236 457.215 597.776C457.794 597.315 458.223 596.71 458.502 595.96C458.78 595.21 458.919 594.398 458.919 593.523C458.919 592.648 458.78 591.832 458.502 591.077C458.223 590.321 457.794 589.71 457.215 589.244C456.635 588.778 455.897 588.545 454.999 588.545C454.101 588.545 453.363 588.778 452.783 589.244C452.203 589.71 451.775 590.321 451.496 591.077C451.218 591.832 451.078 592.648 451.078 593.523C451.078 594.398 451.218 595.21 451.496 595.96C451.775 596.71 452.203 597.315 452.783 597.776C453.363 598.236 454.101 598.466 454.999 598.466ZM466.012 592.125V600H464.001V586.909H465.944V588.955H466.115C466.422 588.29 466.887 587.756 467.512 587.352C468.137 586.943 468.944 586.739 469.933 586.739C470.819 586.739 471.595 586.92 472.26 587.284C472.924 587.642 473.441 588.188 473.811 588.92C474.18 589.648 474.365 590.568 474.365 591.682V600H472.353V591.818C472.353 590.79 472.086 589.989 471.552 589.415C471.018 588.835 470.285 588.545 469.353 588.545C468.711 588.545 468.137 588.685 467.632 588.963C467.132 589.241 466.737 589.648 466.447 590.182C466.157 590.716 466.012 591.364 466.012 592.125ZM483.733 586.909V588.614H476.949V586.909H483.733ZM478.926 583.773H480.938V596.25C480.938 596.818 481.02 597.244 481.185 597.528C481.355 597.807 481.571 597.994 481.833 598.091C482.1 598.182 482.381 598.227 482.676 598.227C482.898 598.227 483.08 598.216 483.222 598.193C483.364 598.165 483.478 598.142 483.563 598.125L483.972 599.932C483.836 599.983 483.645 600.034 483.401 600.085C483.157 600.142 482.847 600.17 482.472 600.17C481.904 600.17 481.347 600.048 480.801 599.804C480.262 599.56 479.813 599.188 479.455 598.688C479.103 598.188 478.926 597.557 478.926 596.795V583.773ZM492.107 600.273C490.846 600.273 489.757 599.994 488.843 599.438C487.934 598.875 487.232 598.091 486.738 597.085C486.249 596.074 486.005 594.898 486.005 593.557C486.005 592.216 486.249 591.034 486.738 590.011C487.232 588.983 487.919 588.182 488.8 587.608C489.686 587.028 490.721 586.739 491.902 586.739C492.584 586.739 493.257 586.852 493.922 587.08C494.587 587.307 495.192 587.676 495.738 588.188C496.283 588.693 496.718 589.364 497.042 590.199C497.365 591.034 497.527 592.062 497.527 593.284V594.136H487.436V592.398H495.482C495.482 591.659 495.334 591 495.039 590.42C494.749 589.841 494.334 589.384 493.794 589.048C493.26 588.713 492.63 588.545 491.902 588.545C491.101 588.545 490.408 588.744 489.823 589.142C489.243 589.534 488.797 590.045 488.485 590.676C488.172 591.307 488.016 591.983 488.016 592.705V593.864C488.016 594.852 488.186 595.69 488.527 596.378C488.874 597.06 489.354 597.58 489.968 597.938C490.581 598.29 491.294 598.466 492.107 598.466C492.635 598.466 493.113 598.392 493.539 598.244C493.971 598.091 494.343 597.864 494.655 597.562C494.968 597.256 495.209 596.875 495.38 596.42L497.323 596.966C497.118 597.625 496.775 598.205 496.292 598.705C495.809 599.199 495.212 599.585 494.502 599.864C493.792 600.136 492.993 600.273 492.107 600.273ZM502.598 592.125V600H500.587V586.909H502.53V588.955H502.701C503.007 588.29 503.473 587.756 504.098 587.352C504.723 586.943 505.53 586.739 506.519 586.739C507.405 586.739 508.181 586.92 508.846 587.284C509.51 587.642 510.027 588.188 510.397 588.92C510.766 589.648 510.951 590.568 510.951 591.682V600H508.939V591.818C508.939 590.79 508.672 589.989 508.138 589.415C507.604 588.835 506.871 588.545 505.939 588.545C505.297 588.545 504.723 588.685 504.218 588.963C503.718 589.241 503.323 589.648 503.033 590.182C502.743 590.716 502.598 591.364 502.598 592.125ZM520.319 586.909V588.614H513.535V586.909H520.319ZM515.512 583.773H517.524V596.25C517.524 596.818 517.606 597.244 517.771 597.528C517.941 597.807 518.157 597.994 518.419 598.091C518.686 598.182 518.967 598.227 519.262 598.227C519.484 598.227 519.666 598.216 519.808 598.193C519.95 598.165 520.064 598.142 520.149 598.125L520.558 599.932C520.422 599.983 520.231 600.034 519.987 600.085C519.743 600.142 519.433 600.17 519.058 600.17C518.49 600.17 517.933 600.048 517.387 599.804C516.848 599.56 516.399 599.188 516.041 598.688C515.689 598.188 515.512 597.557 515.512 596.795V583.773Z"
        fill="black" />
    <path
        d="M856.527 595.42V593.682L864.197 581.545H865.458V584.239H864.606L858.811 593.409V593.545H869.14V595.42H856.527ZM864.743 599V594.892V594.082V581.545H866.754V599H864.743ZM878.027 599.239C876.743 599.239 875.65 598.889 874.746 598.19C873.843 597.486 873.152 596.466 872.675 595.131C872.198 593.79 871.959 592.17 871.959 590.273C871.959 588.386 872.198 586.776 872.675 585.44C873.158 584.099 873.851 583.077 874.755 582.372C875.664 581.662 876.755 581.307 878.027 581.307C879.3 581.307 880.388 581.662 881.292 582.372C882.201 583.077 882.894 584.099 883.371 585.44C883.854 586.776 884.096 588.386 884.096 590.273C884.096 592.17 883.857 593.79 883.38 595.131C882.902 596.466 882.212 597.486 881.309 598.19C880.405 598.889 879.311 599.239 878.027 599.239ZM878.027 597.364C879.3 597.364 880.289 596.75 880.993 595.523C881.698 594.295 882.05 592.545 882.05 590.273C882.05 588.761 881.888 587.474 881.564 586.412C881.246 585.349 880.786 584.54 880.184 583.983C879.587 583.426 878.868 583.148 878.027 583.148C876.766 583.148 875.78 583.77 875.07 585.014C874.36 586.253 874.005 588.006 874.005 590.273C874.005 591.784 874.164 593.068 874.482 594.125C874.8 595.182 875.257 595.986 875.854 596.537C876.456 597.088 877.181 597.364 878.027 597.364ZM886.925 595.42V593.682L894.596 581.545H895.857V584.239H895.005L889.209 593.409V593.545H899.539V595.42H886.925ZM895.141 599V594.892V594.082V581.545H897.152V599H895.141ZM923.63 581.545V599H921.585L912.074 585.295H911.903V599H909.789V581.545H911.835L921.38 595.284H921.551V581.545H923.63ZM932.905 599.273C931.723 599.273 930.686 598.991 929.794 598.429C928.908 597.866 928.215 597.08 927.715 596.068C927.221 595.057 926.973 593.875 926.973 592.523C926.973 591.159 927.221 589.969 927.715 588.952C928.215 587.935 928.908 587.145 929.794 586.582C930.686 586.02 931.723 585.739 932.905 585.739C934.087 585.739 935.121 586.02 936.007 586.582C936.9 587.145 937.593 587.935 938.087 588.952C938.587 589.969 938.837 591.159 938.837 592.523C938.837 593.875 938.587 595.057 938.087 596.068C937.593 597.08 936.9 597.866 936.007 598.429C935.121 598.991 934.087 599.273 932.905 599.273ZM932.905 597.466C933.803 597.466 934.542 597.236 935.121 596.776C935.701 596.315 936.13 595.71 936.408 594.96C936.686 594.21 936.826 593.398 936.826 592.523C936.826 591.648 936.686 590.832 936.408 590.077C936.13 589.321 935.701 588.71 935.121 588.244C934.542 587.778 933.803 587.545 932.905 587.545C932.007 587.545 931.269 587.778 930.689 588.244C930.11 588.71 929.681 589.321 929.402 590.077C929.124 590.832 928.985 591.648 928.985 592.523C928.985 593.398 929.124 594.21 929.402 594.96C929.681 595.71 930.11 596.315 930.689 596.776C931.269 597.236 932.007 597.466 932.905 597.466ZM947.6 585.909V587.614H940.816V585.909H947.6ZM942.794 582.773H944.805V595.25C944.805 595.818 944.887 596.244 945.052 596.528C945.223 596.807 945.439 596.994 945.7 597.091C945.967 597.182 946.248 597.227 946.544 597.227C946.765 597.227 946.947 597.216 947.089 597.193C947.231 597.165 947.345 597.142 947.43 597.125L947.839 598.932C947.703 598.983 947.512 599.034 947.268 599.085C947.024 599.142 946.714 599.17 946.339 599.17C945.771 599.17 945.214 599.048 944.669 598.804C944.129 598.56 943.68 598.188 943.322 597.688C942.97 597.188 942.794 596.557 942.794 595.795V582.773ZM957.649 599V581.545H968.115V583.42H959.762V589.318H967.331V591.193H959.762V599H957.649ZM975.819 599.273C974.637 599.273 973.6 598.991 972.708 598.429C971.822 597.866 971.129 597.08 970.629 596.068C970.135 595.057 969.887 593.875 969.887 592.523C969.887 591.159 970.135 589.969 970.629 588.952C971.129 587.935 971.822 587.145 972.708 586.582C973.6 586.02 974.637 585.739 975.819 585.739C977.001 585.739 978.035 586.02 978.922 586.582C979.814 587.145 980.507 587.935 981.001 588.952C981.501 589.969 981.751 591.159 981.751 592.523C981.751 593.875 981.501 595.057 981.001 596.068C980.507 597.08 979.814 597.866 978.922 598.429C978.035 598.991 977.001 599.273 975.819 599.273ZM975.819 597.466C976.717 597.466 977.456 597.236 978.035 596.776C978.615 596.315 979.044 595.71 979.322 594.96C979.6 594.21 979.74 593.398 979.74 592.523C979.74 591.648 979.6 590.832 979.322 590.077C979.044 589.321 978.615 588.71 978.035 588.244C977.456 587.778 976.717 587.545 975.819 587.545C974.922 587.545 974.183 587.778 973.603 588.244C973.024 588.71 972.595 589.321 972.316 590.077C972.038 590.832 971.899 591.648 971.899 592.523C971.899 593.398 972.038 594.21 972.316 594.96C972.595 595.71 973.024 596.315 973.603 596.776C974.183 597.236 974.922 597.466 975.819 597.466ZM993.071 593.648V585.909H995.083V599H993.071V596.784H992.935C992.628 597.449 992.151 598.014 991.503 598.48C990.855 598.94 990.037 599.17 989.049 599.17C988.23 599.17 987.503 598.991 986.867 598.634C986.23 598.27 985.73 597.724 985.367 596.997C985.003 596.264 984.821 595.341 984.821 594.227V585.909H986.833V594.091C986.833 595.045 987.1 595.807 987.634 596.375C988.174 596.943 988.861 597.227 989.696 597.227C990.196 597.227 990.705 597.099 991.222 596.844C991.745 596.588 992.182 596.196 992.534 595.668C992.892 595.139 993.071 594.466 993.071 593.648ZM1000.78 591.125V599H998.767V585.909H1000.71V587.955H1000.88C1001.19 587.29 1001.65 586.756 1002.28 586.352C1002.9 585.943 1003.71 585.739 1004.7 585.739C1005.58 585.739 1006.36 585.92 1007.03 586.284C1007.69 586.642 1008.21 587.188 1008.58 587.92C1008.95 588.648 1009.13 589.568 1009.13 590.682V599H1007.12V590.818C1007.12 589.79 1006.85 588.989 1006.32 588.415C1005.78 587.835 1005.05 587.545 1004.12 587.545C1003.48 587.545 1002.9 587.685 1002.4 587.963C1001.9 588.241 1001.5 588.648 1001.21 589.182C1000.92 589.716 1000.78 590.364 1000.78 591.125ZM1017.75 599.273C1016.66 599.273 1015.69 598.997 1014.86 598.446C1014.02 597.889 1013.37 597.105 1012.9 596.094C1012.43 595.077 1012.19 593.875 1012.19 592.489C1012.19 591.114 1012.43 589.92 1012.9 588.909C1013.37 587.898 1014.03 587.116 1014.87 586.565C1015.71 586.014 1016.68 585.739 1017.78 585.739C1018.64 585.739 1019.31 585.881 1019.8 586.165C1020.3 586.443 1020.68 586.761 1020.94 587.119C1021.21 587.472 1021.42 587.761 1021.57 587.989H1021.74V581.545H1023.75V599H1021.81V596.989H1021.57C1021.42 597.227 1021.21 597.528 1020.94 597.892C1020.66 598.25 1020.27 598.571 1019.77 598.855C1019.26 599.134 1018.59 599.273 1017.75 599.273ZM1018.02 597.466C1018.83 597.466 1019.51 597.256 1020.07 596.835C1020.62 596.409 1021.05 595.821 1021.34 595.071C1021.63 594.315 1021.77 593.443 1021.77 592.455C1021.77 591.477 1021.63 590.622 1021.35 589.889C1021.06 589.151 1020.64 588.577 1020.08 588.168C1019.53 587.753 1018.84 587.545 1018.02 587.545C1017.17 587.545 1016.46 587.764 1015.89 588.202C1015.33 588.634 1014.91 589.222 1014.62 589.966C1014.34 590.705 1014.2 591.534 1014.2 592.455C1014.2 593.386 1014.35 594.233 1014.63 594.994C1014.92 595.75 1015.35 596.352 1015.91 596.801C1016.48 597.244 1017.18 597.466 1018.02 597.466Z"
        fill="black" />
</svg>