<?xml version="1.0" encoding="UTF-8"?>
<svg width="1920px" height="906px" viewBox="0 0 1920 906" version="1.1" xmlns="http://www.w3.org/2000/svg" xmlns:xlink="http://www.w3.org/1999/xlink" style="background: #FFFFFF;">
    <!-- Generator: Sketch 49.1 (51147) - http://www.bohemiancoding.com/sketch -->
    <title>Schema 2 - With your services</title>
    <desc>Created with Sketch.</desc>
    <defs></defs>
    <g id="Schema-2---With-your-services" stroke="none" stroke-width="1" fill="none" fill-rule="evenodd">
        <g id="Group-4" transform="translate(84.000000, 0.000000)">
            <rect id="Rectangle" fill="#F1F2F3" x="634" y="0" width="634" height="1080"></rect>
            <circle id="Oval-2" fill-opacity="0.150000006" fill="#2A495F" cx="950" cy="460" r="275"></circle>
            <ellipse id="Oval-Copy" fill="#4AA0DD" cx="1031" cy="477" rx="121" ry="122"></ellipse>
            <rect id="Rectangle-2" fill="#2A495F" x="864" y="285" width="151" height="83"></rect>
            <g id="Group-3" transform="translate(748.000000, 397.000000)">
                <circle id="Oval" fill="#4A6BDD" cx="63.5" cy="63.5" r="63.5"></circle>
                <text id="React-APP" font-family="RobotoCondensed-Bold, Roboto Condensed" font-size="24" font-style="condensed" font-weight="bold" fill="#FFFFFF">
                    <tspan x="37.0351562" y="57">React</tspan>
                    <tspan x="43.7851562" y="89">APP</tspan>
                </text>
            </g>
            <text id="SSR" font-family="RobotoCondensed-Bold, Roboto Condensed" font-size="24" font-style="condensed" font-weight="bold" fill="#FFFFFF">
                <tspan x="920.195312" y="335">SSR</tspan>
            </text>
            <text id="GraphQL-middleware" transform="translate(1008.500000, 461.000000) rotate(-416.000000) translate(-1008.500000, -461.000000) " font-family="RobotoCondensed-Bold, Roboto Condensed" font-size="24" font-style="condensed" font-weight="bold" fill="#FFFFFF">
                <tspan x="967.671875" y="454">GraphQL </tspan>
                <tspan x="954.458984" y="486">middleware</tspan>
            </text>
            <path d="M948.015821,542.920694 C948.660087,541.628285 1163.23488,437 1165.16768,437 C1167.10048,437 1169.96646,461.652586 1168.67793,462.944995 C1167.3894,464.237404 967.903681,563 967.259415,563 C966.615148,563 947.371555,544.213103 948.015821,542.920694 Z" id="Path-6" fill="#90C6EC" transform="translate(1058.500000, 500.000000) rotate(-30.000000) translate(-1058.500000, -500.000000) "></path>
            <path d="M1044,525 L1106.62634,569.845317" id="Line-3" stroke="#90C6EC" stroke-width="4" stroke-linecap="square"></path>
            <path d="M1076,470 L1144.64652,514.291464" id="Line-3-Copy" stroke="#90C6EC" stroke-width="4" stroke-linecap="square"></path>
            <path d="M633,72 L633,1056" id="Line-Copy-2" stroke="#F1F2F3" stroke-width="2" stroke-linecap="square"></path>
            <text id="YOUR-SERVICES" font-family="RobotoCondensed-Bold, Roboto Condensed" font-size="36" font-style="condensed" font-weight="bold" fill="#001B24">
                <tspan x="1433" y="102">YOUR SERVICES</tspan>
            </text>
            <text id="FRONT-COMMERCE-With" font-family="RobotoCondensed-Bold, Roboto Condensed" font-size="48" font-style="condensed" font-weight="bold" fill="#333333">
                <tspan x="0" y="106">FRONT-COMMERCE</tspan>
                <tspan x="0" y="169" font-family="RobotoCondensed-Light, Roboto Condensed" font-weight="300">With your services.</tspan>
            </text>
            <rect id="Rectangle-2" fill="#4ECDA5" x="1359" y="394" width="284" height="110"></rect>
            <rect id="Rectangle-2-Copy" fill="#4ECDA5" x="1369" y="674" width="85" height="85"></rect>
            <g id="noun_1476991_cc" transform="translate(374.000000, 262.000000)" fill="#333333">
                <g id="Group">
                    <path d="M116.947917,144.048936 C116.885813,126.306247 105.964137,110.42089 89.44375,104.044681 L85.921875,102.7 L83.5739583,105.725532 L82.2322917,107.238298 C78.146129,111.38369 72.482133,113.573339 66.6768616,113.251885 C60.8715902,112.930431 55.4827398,110.128756 51.8770833,105.557447 L49.5291667,102.7 L46.175,104.044681 C29.6546133,110.42089 18.7329374,126.306247 18.6708333,144.048936 L18.6708333,157.159574 L116.947917,157.159574 L116.947917,144.048936 Z M106.885417,147.074468 L28.7333333,147.074468 L28.7333333,144.048936 C28.7728563,131.69968 35.7000049,120.409663 46.678125,114.802128 C58.4655182,126.05049 76.9855234,126.05049 88.7729167,114.802128 C99.8161375,120.363239 106.813793,131.662568 106.885417,144.048936 L106.885417,147.074468 Z" id="Shape" fill-rule="nonzero"></path>
                    <rect id="Rectangle-path" fill-rule="nonzero" x="98.1645833" y="28.2382979" width="26.8333333" height="10.0851064"></rect>
                    <rect id="Rectangle-path" fill-rule="nonzero" x="98.1645833" y="46.7276596" width="55.34375" height="10.0851064"></rect>
                    <path d="M178.329167,0.672340426 L72.6729167,0.672340426 L72.6729167,46.0553191 L67.9770833,45.5510638 C53.4423429,45.518873 41.298434,56.6356793 40.0169668,71.146381 C38.7354996,85.6570827 48.7423857,98.7388664 63.0568055,101.265859 C77.3712254,103.792852 91.2356023,94.925176 94.978125,80.8489362 L104.872917,80.8489362 L104.872917,103.876596 L136.066667,80.8489362 L178.329167,80.8489362 L178.329167,0.672340426 Z M67.809375,91.606383 C57.8987402,91.606383 49.8645833,83.5541766 49.8645833,73.6212766 C49.8645833,63.6883766 57.8987402,55.6361702 67.809375,55.6361702 C77.7200098,55.6361702 85.7541667,63.6883766 85.7541667,73.6212766 C85.7541667,78.3912234 83.8635601,82.9658056 80.4982589,86.3386673 C77.1329576,89.711529 72.5686297,91.606383 67.809375,91.606383 Z M168.266667,70.7638298 L132.880208,70.7638298 L114.935417,83.8744681 L114.935417,70.7638298 L95.6489583,70.7638298 C94.7238105,62.1679883 89.8980327,54.4790037 82.5677083,49.9212766 L82.5677083,10.7574468 L168.098958,10.7574468 L168.266667,70.7638298 Z" id="Shape" fill-rule="nonzero"></path>
                    <text id="Customer" font-family="RobotoCondensed-Bold, Roboto Condensed" font-size="36" font-style="condensed" font-weight="bold">
                        <tspan x="0" y="210">Customer</tspan>
                    </text>
                </g>
            </g>
            <text id="Magento-2" font-family="RobotoCondensed-Bold, Roboto Condensed" font-size="28" font-style="condensed" font-weight="bold" fill="#FFFFFF">
                <tspan x="1443" y="459">Magento 2</tspan>
            </text>
            <rect id="Rectangle-2-Copy-2" fill="#4ECDA5" x="1338" y="165" width="284" height="110"></rect>
            <text id="ElasticSearch" font-family="RobotoCondensed-Bold, Roboto Condensed" font-size="28" font-style="condensed" font-weight="bold" fill="#FFFFFF">
                <tspan x="1405" y="230">ElasticSearch</tspan>
            </text>
            <text id="ERP" font-family="RobotoCondensed-Bold, Roboto Condensed" font-size="28" font-style="condensed" font-weight="bold" fill="#FFFFFF">
                <tspan x="1389" y="727">ERP</tspan>
            </text>
            <rect id="Rectangle-2-Copy-3" fill="#4ECDA5" x="1470" y="674" width="85" height="85"></rect>
            <text id="CRM" font-family="RobotoCondensed-Bold, Roboto Condensed" font-size="28" font-style="condensed" font-weight="bold" fill="#FFFFFF">
                <tspan x="1487" y="726">CRM</tspan>
            </text>
            <rect id="Rectangle-2-Copy-4" fill="#4ECDA5" x="1571" y="674" width="85" height="85"></rect>
            <text id="CMS" font-family="RobotoCondensed-Bold, Roboto Condensed" font-size="28" font-style="condensed" font-weight="bold" fill="#FFFFFF">
                <tspan x="1588" y="726">CMS</tspan>
            </text>
            <rect id="Rectangle-2-Copy-5" fill="#4ECDA5" x="1671" y="674" width="85" height="85"></rect>
            <text id="PIM" font-family="RobotoCondensed-Bold, Roboto Condensed" font-size="28" font-style="condensed" font-weight="bold" fill="#FFFFFF">
                <tspan x="1692" y="727">PIM</tspan>
            </text>
            <g id="noun_593916_cc-copy-12" transform="translate(594.500000, 379.500000) scale(1, -1) rotate(-474.000000) translate(-594.500000, -379.500000) translate(563.000000, 316.000000)" fill="#333333" fill-rule="nonzero">
                <path d="M0.792543248,126.332338 C10.1794561,83.637521 25.5908054,47.7245523 44.3646311,24.4504825 C49.7586033,17.8227672 55.3627304,12.1198494 61.1069606,7.0334633 C60.9668574,7.34172912 60.8968059,7.64999495 60.7567027,7.95826078 C60.2663416,9.49958991 59.7759804,11.040919 59.2856193,12.4281153 C58.2348455,15.5107735 57.1840717,18.5934318 56.0632463,21.67609 C55.6429367,22.9091533 55.7129883,24.9128812 55.7830399,26.3000774 C55.7830399,26.6083432 56.1332979,29.8451344 56.4135042,28.9203369 C58.0947423,23.9880837 59.7759804,18.9016976 61.3171154,13.8153115 C62.2978376,10.5785203 63.8389726,5.02973543 62.4379408,1.1764126 C61.9475797,-0.210783612 61.1069606,-0.0566506995 60.4064447,0.0974822135 C59.005413,0.405748039 57.6043812,1.02227969 56.2033495,1.48467843 C53.2611828,2.40947591 50.319016,3.4884063 47.3768493,4.7214696 C46.9565398,4.87560252 47.0265914,8.88305825 47.4469009,8.72892534 C50.0388097,8.2665266 52.70077,7.64999495 55.2926788,7.0334633 C55.3627304,7.0334633 55.3627304,7.0334633 55.432782,7.0334633 C47.2367462,13.9694444 39.6011231,23.9880837 32.5959643,35.3939193 C23.8395157,49.5741473 16.0637895,66.9911664 9.61904335,86.5660464 C6.04641236,97.5094832 2.89409089,109.069452 0.232130543,121.245952 C-0.0480758096,122.479015 -0.0480758096,124.020344 0.0920273667,125.40754 C0.162078955,125.869939 0.512336895,127.565401 0.792543248,126.332338 Z M61.5973217,5.49213417 C61.5973217,5.49213417 61.5973217,5.64626708 61.5973217,5.49213417 C61.6673733,5.64626708 61.5973217,5.64626708 61.5973217,5.80039999 C61.5973217,5.80039999 61.5973217,5.64626708 61.5973217,5.49213417 Z" id="Shape"></path>
            </g>
            <circle id="Oval-2-Copy" fill="#333333" cx="600" cy="404" r="18"></circle>
            <text id="1" font-family="RobotoCondensed-Bold, Roboto Condensed" font-size="24" font-style="condensed" font-weight="bold" fill="#FFFFFF">
                <tspan x="594.029297" y="414">1</tspan>
            </text>
            <g id="noun_593916_cc-copy-13" transform="translate(594.500000, 427.500000) scale(1, -1) rotate(-298.000000) translate(-594.500000, -427.500000) translate(563.000000, 364.000000)" fill="#333333" fill-rule="nonzero">
                <path d="M0.792543248,126.332338 C10.1794561,83.637521 25.5908054,47.7245523 44.3646311,24.4504825 C49.7586033,17.8227672 55.3627304,12.1198494 61.1069606,7.0334633 C60.9668574,7.34172912 60.8968059,7.64999495 60.7567027,7.95826078 C60.2663416,9.49958991 59.7759804,11.040919 59.2856193,12.4281153 C58.2348455,15.5107735 57.1840717,18.5934318 56.0632463,21.67609 C55.6429367,22.9091533 55.7129883,24.9128812 55.7830399,26.3000774 C55.7830399,26.6083432 56.1332979,29.8451344 56.4135042,28.9203369 C58.0947423,23.9880837 59.7759804,18.9016976 61.3171154,13.8153115 C62.2978376,10.5785203 63.8389726,5.02973543 62.4379408,1.1764126 C61.9475797,-0.210783612 61.1069606,-0.0566506995 60.4064447,0.0974822135 C59.005413,0.405748039 57.6043812,1.02227969 56.2033495,1.48467843 C53.2611828,2.40947591 50.319016,3.4884063 47.3768493,4.7214696 C46.9565398,4.87560252 47.0265914,8.88305825 47.4469009,8.72892534 C50.0388097,8.2665266 52.70077,7.64999495 55.2926788,7.0334633 C55.3627304,7.0334633 55.3627304,7.0334633 55.432782,7.0334633 C47.2367462,13.9694444 39.6011231,23.9880837 32.5959643,35.3939193 C23.8395157,49.5741473 16.0637895,66.9911664 9.61904335,86.5660464 C6.04641236,97.5094832 2.89409089,109.069452 0.232130543,121.245952 C-0.0480758096,122.479015 -0.0480758096,124.020344 0.0920273667,125.40754 C0.162078955,125.869939 0.512336895,127.565401 0.792543248,126.332338 Z M61.5973217,5.49213417 C61.5973217,5.49213417 61.5973217,5.64626708 61.5973217,5.49213417 C61.6673733,5.64626708 61.5973217,5.64626708 61.5973217,5.80039999 C61.5973217,5.80039999 61.5973217,5.64626708 61.5973217,5.49213417 Z" id="Shape"></path>
            </g>
            <g id="noun_371299_cc" transform="translate(1704.000000, 310.000000)" fill="#333333" fill-rule="nonzero">
                <path d="M53.7237375,13.3291139 L53.7237375,22.4620253 C53.7237375,22.4620253 53.7237375,22.4620253 53.6411651,22.4620253 C52.320008,22.5443038 50.9988508,22.7911392 49.760266,23.2025316 C48.3565366,23.6962025 47.0353794,24.3544304 45.7142223,25.1772152 C44.3930651,26 43.1544803,27.0696203 42.0810401,28.221519 C41.1727446,29.1265823 40.3470214,30.1962025 39.6864428,31.1835443 L26.7225883,31.1835443 L26.7225883,6.91139241 C19.6213687,11.6835443 13.0981552,14.3164557 6.24465256,14.9746835 L6.24465256,19.8291139 C6.24465256,23.5316456 6.24465256,27.3987342 6.24465256,31.2658228 L26.7225883,31.2658228 L26.7225883,54.7151899 C27.2180222,54.5506329 27.6308838,54.3037975 28.0437455,54.221519 C29.4474749,53.5632911 30.8512044,52.9050633 32.2549339,52.3291139 C34.0715249,51.4240506 35.640399,50.3544304 37.1267008,49.2848101 C37.4569901,50.4367089 38.1175687,52.3291139 39.2735812,53.8924051 C39.4387258,54.3860759 39.5212981,54.8797468 39.7690151,55.3734177 C39.5212981,55.5379747 39.2735812,55.7025316 39.0258642,55.8670886 C38.200141,56.3607595 37.3744178,56.8544304 36.4661223,57.4303797 C36.0532606,57.6772152 35.7229714,57.9240506 35.3101097,58.0886076 C33.7412356,58.9936709 32.2549339,59.6518987 30.6860597,60.2278481 L28.7868963,60.9683544 C28.2914624,61.2151899 27.6308838,61.3797468 26.8877329,61.3797468 C26.392299,61.3797468 25.8968651,61.2151899 25.3188588,61.1329114 C17.8873499,58.4177215 12.1898597,54.8797468 7.5658097,50.2721519 C3.76748291,46.4050633 1.53803023,42.5379747 0.547162368,38.1772152 C0.13430076,36.2848101 -0.113416204,34.4746835 0.0517284387,32.8291139 C0.0517284387,28.4683544 0.0517284387,24.2721519 0.0517284387,19.9113924 L0.0517284387,13.4936709 C0.0517284387,9.5443038 2.85918737,8.88607595 4.5106338,8.72151899 C10.7861302,8.31012658 16.9790544,5.92405063 23.9151294,1.15189873 C24.6582803,0.658227848 25.5665758,0 26.8877329,0 C28.2088901,0 29.0346133,0.658227848 29.9429088,1.3164557 C35.0623928,4.93670886 39.6864428,7.07594937 44.4756374,8.14556962 C45.7967946,8.39240506 47.2005241,8.63924051 48.6042535,8.80379747 L49.5951214,8.96835443 C52.2374357,9.21518987 53.7237375,10.8607595 53.7237375,13.3291139 Z M62.7241205,32.664557 C62.7241205,32.664557 61.9809696,31.1835443 59.9166616,30.0316456 C58.5955044,29.2088608 56.696341,28.6329114 54.1365991,28.7974684 C53.3108759,28.7974684 52.567725,28.9620253 51.8245741,29.2088608 C50.9162785,29.5379747 50.0905553,29.9493671 49.2648321,30.5253165 C48.3565366,31.1012658 47.448241,31.8417722 46.7050901,32.664557 C45.4665053,33.8987342 44.3930651,35.5443038 43.8976312,37.6012658 C43.4847696,39.3291139 43.4847696,41.1392405 44.1453482,43.0316456 C43.2370526,42.9493671 42.1636124,43.443038 43.1544803,47.0632911 C43.8976312,49.6962025 44.5582098,50.4367089 45.136216,50.4367089 C45.383933,51.9177215 45.8793669,53.6455696 46.7050901,55.1265823 L46.7050901,58.5822785 C46.7050901,58.7468354 46.6225178,58.9113924 46.4573732,58.9936709 C45.2187883,59.5696203 39.6038705,62.4493671 33.9889526,66.7278481 C32.0897892,68.2088608 30.9337767,70.5126582 30.9337767,72.8987342 L30.9337767,76.5189873 C30.9337767,77.3417722 31.5943553,78 32.4200785,78 L76.5136982,78 C77.3394214,78 78,77.3417722 78,76.5189873 L78,72.8987342 C78,70.5126582 76.9265598,68.2088608 74.9448241,66.7278481 C69.4124786,62.4493671 63.7975607,59.5696203 62.5589759,58.9936709 C62.3938312,58.9113924 62.3112589,58.7468354 62.3112589,58.5822785 C62.3112589,57.9240506 62.3112589,56.3607595 62.3112589,54.6329114 C62.8892652,53.3987342 63.3021268,52.0822785 63.4672714,50.9303797 C63.9627053,51.2594937 64.8710009,51.0949367 65.8618687,47.6392405 C66.6875919,44.8417722 66.192158,43.8544304 65.4490071,43.6898734 C67.7610321,32.9936709 62.7241205,32.664557 62.7241205,32.664557 Z" id="Shape"></path>
            </g>
            <text id="Admin" font-family="RobotoCondensed-Bold, Roboto Condensed" font-size="24" font-style="condensed" font-weight="bold" fill="#333333">
                <tspan x="1713" y="422">Admin</tspan>
            </text>
            <g id="noun_593916_cc" transform="translate(1631.000000, 357.000000)" fill="#4ECDA5" fill-rule="nonzero" stroke="#FFFFFF">
                <path d="M5.84286345,76.7460256 C15.8257707,52.1610437 32.2156185,31.4812575 52.181433,18.0793359 C57.9178797,14.2628947 63.8778244,10.9789801 69.9867676,8.05008337 C69.837769,8.22759227 69.7632697,8.40510116 69.6142711,8.58261006 C69.0927759,9.47015453 68.5712808,10.357699 68.0497856,11.156489 C66.932296,12.931578 65.8148064,14.7066669 64.6228175,16.4817559 C64.1758216,17.1917915 64.2503209,18.3455993 64.3248202,19.1443893 C64.3248202,19.3218982 64.6973168,21.1857416 64.995314,20.6532149 C66.7832974,17.8130726 68.5712808,14.8841758 70.2102656,11.9552791 C71.2532559,10.0914357 72.8922407,6.89627556 71.4022545,4.67741437 C70.8807593,3.87862435 69.9867676,3.96737879 69.2417746,4.05613324 C67.7517884,4.23364214 66.2618022,4.58865993 64.7718161,4.85492327 C61.6428451,5.38744995 58.5138742,6.00873108 55.3849033,6.71876666 C54.9379074,6.80752111 55.0124067,9.11513674 55.4594026,9.02638229 C58.215877,8.76011895 61.0468507,8.40510116 63.8033251,8.05008337 C63.8778244,8.05008337 63.8778244,8.05008337 63.9523237,8.05008337 C55.2359047,12.0440335 47.1154801,17.8130726 39.6655493,24.3809017 C30.3531358,32.5463108 22.0837126,42.5755634 15.2297763,53.8473782 C11.4303116,60.148944 8.07784269,66.8055275 5.24686899,73.8171289 C4.94887176,74.5271644 4.94887176,75.4147089 5.09787037,76.2134989 C5.17236968,76.4797623 5.54486622,77.4560612 5.84286345,76.7460256 Z M71,7 C71,7 71,7.1 71,7 C71.1,7.1 71,7.1 71,7.2 C71,7.2 71,7.1 71,7 Z" id="Shape" transform="translate(38.500000, 40.500000) rotate(17.000000) translate(-38.500000, -40.500000) "></path>
            </g>
            <g id="noun_593916_cc-copy-2" transform="translate(1666.361597, 450.024105) rotate(189.000000) translate(-1666.361597, -450.024105) translate(1627.861597, 409.524105)" fill="#4ECDA5" fill-rule="nonzero" stroke="#FFFFFF">
                <path d="M5.84286345,76.7460256 C15.8257707,52.1610437 32.2156185,31.4812575 52.181433,18.0793359 C57.9178797,14.2628947 63.8778244,10.9789801 69.9867676,8.05008337 C69.837769,8.22759227 69.7632697,8.40510116 69.6142711,8.58261006 C69.0927759,9.47015453 68.5712808,10.357699 68.0497856,11.156489 C66.932296,12.931578 65.8148064,14.7066669 64.6228175,16.4817559 C64.1758216,17.1917915 64.2503209,18.3455993 64.3248202,19.1443893 C64.3248202,19.3218982 64.6973168,21.1857416 64.995314,20.6532149 C66.7832974,17.8130726 68.5712808,14.8841758 70.2102656,11.9552791 C71.2532559,10.0914357 72.8922407,6.89627556 71.4022545,4.67741437 C70.8807593,3.87862435 69.9867676,3.96737879 69.2417746,4.05613324 C67.7517884,4.23364214 66.2618022,4.58865993 64.7718161,4.85492327 C61.6428451,5.38744995 58.5138742,6.00873108 55.3849033,6.71876666 C54.9379074,6.80752111 55.0124067,9.11513674 55.4594026,9.02638229 C58.215877,8.76011895 61.0468507,8.40510116 63.8033251,8.05008337 C63.8778244,8.05008337 63.8778244,8.05008337 63.9523237,8.05008337 C55.2359047,12.0440335 47.1154801,17.8130726 39.6655493,24.3809017 C30.3531358,32.5463108 22.0837126,42.5755634 15.2297763,53.8473782 C11.4303116,60.148944 8.07784269,66.8055275 5.24686899,73.8171289 C4.94887176,74.5271644 4.94887176,75.4147089 5.09787037,76.2134989 C5.17236968,76.4797623 5.54486622,77.4560612 5.84286345,76.7460256 Z M71,7 C71,7 71,7.1 71,7 C71.1,7.1 71,7.1 71,7.2 C71,7.2 71,7.1 71,7 Z" id="Shape" transform="translate(38.500000, 40.500000) rotate(17.000000) translate(-38.500000, -40.500000) "></path>
            </g>
            <g id="Group-2" transform="translate(1424.000000, 589.500000) rotate(-9.000000) translate(-1424.000000, -589.500000) translate(1358.000000, 527.000000)" fill="#4ECDA5" fill-rule="nonzero">
                <g id="noun_593916_cc" transform="translate(66.085828, 62.723382) rotate(175.000000) translate(-66.085828, -62.723382) translate(35.585828, 3.223382)">
                    <path d="M0.767383145,117.123051 C9.85629872,77.5405714 24.7783989,44.2455612 42.9562301,22.6681083 C48.1789651,16.5235356 53.6051834,11.2363451 59.1670571,6.5207428 C59.0314017,6.80653688 58.9635739,7.09233095 58.8279185,7.37812503 C58.3531244,8.80709543 57.8783303,10.2360658 57.4035362,11.5221392 C56.3861203,14.38008 55.3687043,17.2380208 54.2834607,20.0959615 C53.8764943,21.2391379 53.944322,23.0967994 54.0121498,24.3828727 C54.0121498,24.6686668 54.3512884,27.6695046 54.6225993,26.8121224 C56.2504648,22.2394171 57.8783303,17.5238148 59.3705403,12.8082125 C60.3201285,9.8073747 61.8123385,4.66308128 60.4557839,1.0906553 C59.9809898,-0.195418056 59.1670571,-0.0525210163 58.4887798,0.0903760231 C57.1322253,0.376170102 55.7756707,0.94775826 54.4191161,1.37644938 C51.5703516,2.23383161 48.721587,3.23411089 45.8728224,4.37728721 C45.465856,4.52018425 45.5336837,8.23550727 45.9406501,8.09261023 C48.4502761,7.66391911 51.0277297,7.09233095 53.5373557,6.5207428 C53.6051834,6.5207428 53.6051834,6.5207428 53.6730111,6.5207428 C45.7371669,12.9511096 38.3439446,22.2394171 31.5611717,32.8137981 C23.0827057,45.9603257 15.5538279,62.1076911 9.3136769,80.2556151 C5.85446276,90.4013049 2.80221499,101.118583 0.224761319,112.407449 C-0.0465495934,113.550625 -0.0465495934,114.979596 0.089105863,116.265669 C0.156933591,116.69436 0.496072232,118.266228 0.767383145,117.123051 Z M59.6418512,5.0917724 C59.6418512,5.0917724 59.6418512,5.23466944 59.6418512,5.0917724 C59.7096789,5.23466944 59.6418512,5.23466944 59.6418512,5.37756648 C59.6418512,5.37756648 59.6418512,5.23466944 59.6418512,5.0917724 Z" id="Shape"></path>
                </g>
                <g id="noun_593916_cc-copy-9" transform="translate(66.085828, 62.723382) scale(1, -1) rotate(130.000000) translate(-66.085828, -62.723382) translate(35.585828, 3.223382)">
                    <path d="M0.767383145,117.123051 C9.85629872,77.5405714 24.7783989,44.2455612 42.9562301,22.6681083 C48.1789651,16.5235356 53.6051834,11.2363451 59.1670571,6.5207428 C59.0314017,6.80653688 58.9635739,7.09233095 58.8279185,7.37812503 C58.3531244,8.80709543 57.8783303,10.2360658 57.4035362,11.5221392 C56.3861203,14.38008 55.3687043,17.2380208 54.2834607,20.0959615 C53.8764943,21.2391379 53.944322,23.0967994 54.0121498,24.3828727 C54.0121498,24.6686668 54.3512884,27.6695046 54.6225993,26.8121224 C56.2504648,22.2394171 57.8783303,17.5238148 59.3705403,12.8082125 C60.3201285,9.8073747 61.8123385,4.66308128 60.4557839,1.0906553 C59.9809898,-0.195418056 59.1670571,-0.0525210163 58.4887798,0.0903760231 C57.1322253,0.376170102 55.7756707,0.94775826 54.4191161,1.37644938 C51.5703516,2.23383161 48.721587,3.23411089 45.8728224,4.37728721 C45.465856,4.52018425 45.5336837,8.23550727 45.9406501,8.09261023 C48.4502761,7.66391911 51.0277297,7.09233095 53.5373557,6.5207428 C53.6051834,6.5207428 53.6051834,6.5207428 53.6730111,6.5207428 C45.7371669,12.9511096 38.3439446,22.2394171 31.5611717,32.8137981 C23.0827057,45.9603257 15.5538279,62.1076911 9.3136769,80.2556151 C5.85446276,90.4013049 2.80221499,101.118583 0.224761319,112.407449 C-0.0465495934,113.550625 -0.0465495934,114.979596 0.089105863,116.265669 C0.156933591,116.69436 0.496072232,118.266228 0.767383145,117.123051 Z M59.6418512,5.0917724 C59.6418512,5.0917724 59.6418512,5.23466944 59.6418512,5.0917724 C59.7096789,5.23466944 59.6418512,5.23466944 59.6418512,5.37756648 C59.6418512,5.37756648 59.6418512,5.23466944 59.6418512,5.0917724 Z" id="Shape"></path>
                </g>
            </g>
            <g id="Group-2-Copy-4" transform="translate(1263.107211, 657.494895) rotate(102.000000) translate(-1263.107211, -657.494895) translate(1176.107211, 555.994895)" fill="#4ECDA5" fill-rule="nonzero">
                <g id="noun_593916_cc" transform="translate(85.908446, 102.745536) rotate(175.000000) translate(-85.908446, -102.745536) translate(48.908446, 6.245536)">
                    <path d="M0.924313682,192.232546 C11.8719206,127.266334 29.8456036,72.6196659 51.7408174,37.2048722 C58.0316065,27.1198647 64.5674912,18.4420675 71.266773,10.7024106 C71.1033759,11.1714807 71.0216773,11.6405508 70.8582802,12.109621 C70.2863903,14.4549715 69.7145004,16.8003221 69.1426105,18.9111376 C67.9171321,23.6018388 66.6916537,28.29254 65.3844768,32.9832411 C64.8942854,34.8595216 64.975984,37.9084773 65.0576825,40.0192929 C65.0576825,40.488363 65.4661753,45.4135992 65.7929696,44.0063888 C67.753735,36.501267 69.7145004,28.7616101 71.5118687,21.0219532 C72.6556485,16.0967169 74.4530168,7.65345485 72.8190456,1.7900784 C72.2471557,-0.320737121 71.266773,-0.0862020631 70.4497874,0.148332995 C68.8158162,0.617403111 67.1818451,1.55554334 65.5478739,2.25914852 C62.1165344,3.66635887 58.6851949,5.30810427 55.2538554,7.18438474 C54.7636641,7.41891979 54.8453627,13.5168313 55.335554,13.2822962 C58.3584007,12.5786911 61.4629459,11.6405508 64.4857926,10.7024106 C64.5674912,10.7024106 64.5674912,10.7024106 64.6491897,10.7024106 C55.0904583,21.2564882 46.1853154,36.501267 38.0154595,53.8568613 C27.8031396,75.4340866 18.7345996,101.936548 11.2183321,131.722501 C7.05170561,148.37449 3.37527045,165.964619 0.270725209,184.492889 C-0.0560690267,186.369169 -0.0560690267,188.71452 0.107328091,190.825335 C0.18902665,191.52894 0.597519446,194.108826 0.924313682,192.232546 Z M71.8386629,8.35706003 C71.8386629,8.35706003 71.8386629,8.59159508 71.8386629,8.35706003 C71.9203615,8.59159508 71.8386629,8.59159508 71.8386629,8.82613014 C71.8386629,8.82613014 71.8386629,8.59159508 71.8386629,8.35706003 Z" id="Shape"></path>
                </g>
                <g id="noun_593916_cc-copy-9" transform="translate(86.727729, 100.613021) scale(1, -1) rotate(144.000000) translate(-86.727729, -100.613021) translate(49.727729, 4.113021)">
                    <path d="M0.924313682,192.232546 C11.8719206,127.266334 29.8456036,72.6196659 51.7408174,37.2048722 C58.0316065,27.1198647 64.5674912,18.4420675 71.266773,10.7024106 C71.1033759,11.1714807 71.0216773,11.6405508 70.8582802,12.109621 C70.2863903,14.4549715 69.7145004,16.8003221 69.1426105,18.9111376 C67.9171321,23.6018388 66.6916537,28.29254 65.3844768,32.9832411 C64.8942854,34.8595216 64.975984,37.9084773 65.0576825,40.0192929 C65.0576825,40.488363 65.4661753,45.4135992 65.7929696,44.0063888 C67.753735,36.501267 69.7145004,28.7616101 71.5118687,21.0219532 C72.6556485,16.0967169 74.4530168,7.65345485 72.8190456,1.7900784 C72.2471557,-0.320737121 71.266773,-0.0862020631 70.4497874,0.148332995 C68.8158162,0.617403111 67.1818451,1.55554334 65.5478739,2.25914852 C62.1165344,3.66635887 58.6851949,5.30810427 55.2538554,7.18438474 C54.7636641,7.41891979 54.8453627,13.5168313 55.335554,13.2822962 C58.3584007,12.5786911 61.4629459,11.6405508 64.4857926,10.7024106 C64.5674912,10.7024106 64.5674912,10.7024106 64.6491897,10.7024106 C55.0904583,21.2564882 46.1853154,36.501267 38.0154595,53.8568613 C27.8031396,75.4340866 18.7345996,101.936548 11.2183321,131.722501 C7.05170561,148.37449 3.37527045,165.964619 0.270725209,184.492889 C-0.0560690267,186.369169 -0.0560690267,188.71452 0.107328091,190.825335 C0.18902665,191.52894 0.597519446,194.108826 0.924313682,192.232546 Z M71.8386629,8.35706003 C71.8386629,8.35706003 71.8386629,8.59159508 71.8386629,8.35706003 C71.9203615,8.59159508 71.8386629,8.59159508 71.8386629,8.82613014 C71.8386629,8.82613014 71.8386629,8.59159508 71.8386629,8.35706003 Z" id="Shape"></path>
                </g>
            </g>
            <g id="Group-2-Copy" transform="translate(1504.000000, 589.500000) rotate(-16.000000) translate(-1504.000000, -589.500000) translate(1438.000000, 527.000000)" fill="#4ECDA5" fill-rule="nonzero">
                <g id="noun_593916_cc" transform="translate(66.085828, 62.723382) rotate(175.000000) translate(-66.085828, -62.723382) translate(35.585828, 3.223382)">
                    <path d="M0.767383145,117.123051 C9.85629872,77.5405714 24.7783989,44.2455612 42.9562301,22.6681083 C48.1789651,16.5235356 53.6051834,11.2363451 59.1670571,6.5207428 C59.0314017,6.80653688 58.9635739,7.09233095 58.8279185,7.37812503 C58.3531244,8.80709543 57.8783303,10.2360658 57.4035362,11.5221392 C56.3861203,14.38008 55.3687043,17.2380208 54.2834607,20.0959615 C53.8764943,21.2391379 53.944322,23.0967994 54.0121498,24.3828727 C54.0121498,24.6686668 54.3512884,27.6695046 54.6225993,26.8121224 C56.2504648,22.2394171 57.8783303,17.5238148 59.3705403,12.8082125 C60.3201285,9.8073747 61.8123385,4.66308128 60.4557839,1.0906553 C59.9809898,-0.195418056 59.1670571,-0.0525210163 58.4887798,0.0903760231 C57.1322253,0.376170102 55.7756707,0.94775826 54.4191161,1.37644938 C51.5703516,2.23383161 48.721587,3.23411089 45.8728224,4.37728721 C45.465856,4.52018425 45.5336837,8.23550727 45.9406501,8.09261023 C48.4502761,7.66391911 51.0277297,7.09233095 53.5373557,6.5207428 C53.6051834,6.5207428 53.6051834,6.5207428 53.6730111,6.5207428 C45.7371669,12.9511096 38.3439446,22.2394171 31.5611717,32.8137981 C23.0827057,45.9603257 15.5538279,62.1076911 9.3136769,80.2556151 C5.85446276,90.4013049 2.80221499,101.118583 0.224761319,112.407449 C-0.0465495934,113.550625 -0.0465495934,114.979596 0.089105863,116.265669 C0.156933591,116.69436 0.496072232,118.266228 0.767383145,117.123051 Z M59.6418512,5.0917724 C59.6418512,5.0917724 59.6418512,5.23466944 59.6418512,5.0917724 C59.7096789,5.23466944 59.6418512,5.23466944 59.6418512,5.37756648 C59.6418512,5.37756648 59.6418512,5.23466944 59.6418512,5.0917724 Z" id="Shape"></path>
                </g>
                <g id="noun_593916_cc-copy-9" transform="translate(66.085828, 62.723382) scale(1, -1) rotate(130.000000) translate(-66.085828, -62.723382) translate(35.585828, 3.223382)">
                    <path d="M0.767383145,117.123051 C9.85629872,77.5405714 24.7783989,44.2455612 42.9562301,22.6681083 C48.1789651,16.5235356 53.6051834,11.2363451 59.1670571,6.5207428 C59.0314017,6.80653688 58.9635739,7.09233095 58.8279185,7.37812503 C58.3531244,8.80709543 57.8783303,10.2360658 57.4035362,11.5221392 C56.3861203,14.38008 55.3687043,17.2380208 54.2834607,20.0959615 C53.8764943,21.2391379 53.944322,23.0967994 54.0121498,24.3828727 C54.0121498,24.6686668 54.3512884,27.6695046 54.6225993,26.8121224 C56.2504648,22.2394171 57.8783303,17.5238148 59.3705403,12.8082125 C60.3201285,9.8073747 61.8123385,4.66308128 60.4557839,1.0906553 C59.9809898,-0.195418056 59.1670571,-0.0525210163 58.4887798,0.0903760231 C57.1322253,0.376170102 55.7756707,0.94775826 54.4191161,1.37644938 C51.5703516,2.23383161 48.721587,3.23411089 45.8728224,4.37728721 C45.465856,4.52018425 45.5336837,8.23550727 45.9406501,8.09261023 C48.4502761,7.66391911 51.0277297,7.09233095 53.5373557,6.5207428 C53.6051834,6.5207428 53.6051834,6.5207428 53.6730111,6.5207428 C45.7371669,12.9511096 38.3439446,22.2394171 31.5611717,32.8137981 C23.0827057,45.9603257 15.5538279,62.1076911 9.3136769,80.2556151 C5.85446276,90.4013049 2.80221499,101.118583 0.224761319,112.407449 C-0.0465495934,113.550625 -0.0465495934,114.979596 0.089105863,116.265669 C0.156933591,116.69436 0.496072232,118.266228 0.767383145,117.123051 Z M59.6418512,5.0917724 C59.6418512,5.0917724 59.6418512,5.23466944 59.6418512,5.0917724 C59.7096789,5.23466944 59.6418512,5.23466944 59.6418512,5.37756648 C59.6418512,5.37756648 59.6418512,5.23466944 59.6418512,5.0917724 Z" id="Shape"></path>
                </g>
            </g>
            <g id="Group-2-Copy-2" transform="translate(1595.000000, 589.500000) scale(-1, 1) rotate(-7.000000) translate(-1595.000000, -589.500000) translate(1529.000000, 527.000000)" fill="#4ECDA5" fill-rule="nonzero">
                <g id="noun_593916_cc" transform="translate(66.085828, 62.723382) rotate(175.000000) translate(-66.085828, -62.723382) translate(35.585828, 3.223382)">
                    <path d="M0.767383145,117.123051 C9.85629872,77.5405714 24.7783989,44.2455612 42.9562301,22.6681083 C48.1789651,16.5235356 53.6051834,11.2363451 59.1670571,6.5207428 C59.0314017,6.80653688 58.9635739,7.09233095 58.8279185,7.37812503 C58.3531244,8.80709543 57.8783303,10.2360658 57.4035362,11.5221392 C56.3861203,14.38008 55.3687043,17.2380208 54.2834607,20.0959615 C53.8764943,21.2391379 53.944322,23.0967994 54.0121498,24.3828727 C54.0121498,24.6686668 54.3512884,27.6695046 54.6225993,26.8121224 C56.2504648,22.2394171 57.8783303,17.5238148 59.3705403,12.8082125 C60.3201285,9.8073747 61.8123385,4.66308128 60.4557839,1.0906553 C59.9809898,-0.195418056 59.1670571,-0.0525210163 58.4887798,0.0903760231 C57.1322253,0.376170102 55.7756707,0.94775826 54.4191161,1.37644938 C51.5703516,2.23383161 48.721587,3.23411089 45.8728224,4.37728721 C45.465856,4.52018425 45.5336837,8.23550727 45.9406501,8.09261023 C48.4502761,7.66391911 51.0277297,7.09233095 53.5373557,6.5207428 C53.6051834,6.5207428 53.6051834,6.5207428 53.6730111,6.5207428 C45.7371669,12.9511096 38.3439446,22.2394171 31.5611717,32.8137981 C23.0827057,45.9603257 15.5538279,62.1076911 9.3136769,80.2556151 C5.85446276,90.4013049 2.80221499,101.118583 0.224761319,112.407449 C-0.0465495934,113.550625 -0.0465495934,114.979596 0.089105863,116.265669 C0.156933591,116.69436 0.496072232,118.266228 0.767383145,117.123051 Z M59.6418512,5.0917724 C59.6418512,5.0917724 59.6418512,5.23466944 59.6418512,5.0917724 C59.7096789,5.23466944 59.6418512,5.23466944 59.6418512,5.37756648 C59.6418512,5.37756648 59.6418512,5.23466944 59.6418512,5.0917724 Z" id="Shape"></path>
                </g>
                <g id="noun_593916_cc-copy-9" transform="translate(66.085828, 62.723382) scale(1, -1) rotate(130.000000) translate(-66.085828, -62.723382) translate(35.585828, 3.223382)">
                    <path d="M0.767383145,117.123051 C9.85629872,77.5405714 24.7783989,44.2455612 42.9562301,22.6681083 C48.1789651,16.5235356 53.6051834,11.2363451 59.1670571,6.5207428 C59.0314017,6.80653688 58.9635739,7.09233095 58.8279185,7.37812503 C58.3531244,8.80709543 57.8783303,10.2360658 57.4035362,11.5221392 C56.3861203,14.38008 55.3687043,17.2380208 54.2834607,20.0959615 C53.8764943,21.2391379 53.944322,23.0967994 54.0121498,24.3828727 C54.0121498,24.6686668 54.3512884,27.6695046 54.6225993,26.8121224 C56.2504648,22.2394171 57.8783303,17.5238148 59.3705403,12.8082125 C60.3201285,9.8073747 61.8123385,4.66308128 60.4557839,1.0906553 C59.9809898,-0.195418056 59.1670571,-0.0525210163 58.4887798,0.0903760231 C57.1322253,0.376170102 55.7756707,0.94775826 54.4191161,1.37644938 C51.5703516,2.23383161 48.721587,3.23411089 45.8728224,4.37728721 C45.465856,4.52018425 45.5336837,8.23550727 45.9406501,8.09261023 C48.4502761,7.66391911 51.0277297,7.09233095 53.5373557,6.5207428 C53.6051834,6.5207428 53.6051834,6.5207428 53.6730111,6.5207428 C45.7371669,12.9511096 38.3439446,22.2394171 31.5611717,32.8137981 C23.0827057,45.9603257 15.5538279,62.1076911 9.3136769,80.2556151 C5.85446276,90.4013049 2.80221499,101.118583 0.224761319,112.407449 C-0.0465495934,113.550625 -0.0465495934,114.979596 0.089105863,116.265669 C0.156933591,116.69436 0.496072232,118.266228 0.767383145,117.123051 Z M59.6418512,5.0917724 C59.6418512,5.0917724 59.6418512,5.23466944 59.6418512,5.0917724 C59.7096789,5.23466944 59.6418512,5.23466944 59.6418512,5.37756648 C59.6418512,5.37756648 59.6418512,5.23466944 59.6418512,5.0917724 Z" id="Shape"></path>
                </g>
            </g>
            <g id="Group-2-Copy-3" transform="translate(1667.000000, 589.500000) scale(-1, 1) rotate(6.000000) translate(-1667.000000, -589.500000) translate(1601.000000, 527.000000)" fill="#4ECDA5" fill-rule="nonzero">
                <g id="noun_593916_cc" transform="translate(66.085828, 62.723382) rotate(175.000000) translate(-66.085828, -62.723382) translate(35.585828, 3.223382)">
                    <path d="M0.767383145,117.123051 C9.85629872,77.5405714 24.7783989,44.2455612 42.9562301,22.6681083 C48.1789651,16.5235356 53.6051834,11.2363451 59.1670571,6.5207428 C59.0314017,6.80653688 58.9635739,7.09233095 58.8279185,7.37812503 C58.3531244,8.80709543 57.8783303,10.2360658 57.4035362,11.5221392 C56.3861203,14.38008 55.3687043,17.2380208 54.2834607,20.0959615 C53.8764943,21.2391379 53.944322,23.0967994 54.0121498,24.3828727 C54.0121498,24.6686668 54.3512884,27.6695046 54.6225993,26.8121224 C56.2504648,22.2394171 57.8783303,17.5238148 59.3705403,12.8082125 C60.3201285,9.8073747 61.8123385,4.66308128 60.4557839,1.0906553 C59.9809898,-0.195418056 59.1670571,-0.0525210163 58.4887798,0.0903760231 C57.1322253,0.376170102 55.7756707,0.94775826 54.4191161,1.37644938 C51.5703516,2.23383161 48.721587,3.23411089 45.8728224,4.37728721 C45.465856,4.52018425 45.5336837,8.23550727 45.9406501,8.09261023 C48.4502761,7.66391911 51.0277297,7.09233095 53.5373557,6.5207428 C53.6051834,6.5207428 53.6051834,6.5207428 53.6730111,6.5207428 C45.7371669,12.9511096 38.3439446,22.2394171 31.5611717,32.8137981 C23.0827057,45.9603257 15.5538279,62.1076911 9.3136769,80.2556151 C5.85446276,90.4013049 2.80221499,101.118583 0.224761319,112.407449 C-0.0465495934,113.550625 -0.0465495934,114.979596 0.089105863,116.265669 C0.156933591,116.69436 0.496072232,118.266228 0.767383145,117.123051 Z M59.6418512,5.0917724 C59.6418512,5.0917724 59.6418512,5.23466944 59.6418512,5.0917724 C59.7096789,5.23466944 59.6418512,5.23466944 59.6418512,5.37756648 C59.6418512,5.37756648 59.6418512,5.23466944 59.6418512,5.0917724 Z" id="Shape"></path>
                </g>
                <g id="noun_593916_cc-copy-9" transform="translate(66.085828, 62.723382) scale(1, -1) rotate(130.000000) translate(-66.085828, -62.723382) translate(35.585828, 3.223382)">
                    <path d="M0.767383145,117.123051 C9.85629872,77.5405714 24.7783989,44.2455612 42.9562301,22.6681083 C48.1789651,16.5235356 53.6051834,11.2363451 59.1670571,6.5207428 C59.0314017,6.80653688 58.9635739,7.09233095 58.8279185,7.37812503 C58.3531244,8.80709543 57.8783303,10.2360658 57.4035362,11.5221392 C56.3861203,14.38008 55.3687043,17.2380208 54.2834607,20.0959615 C53.8764943,21.2391379 53.944322,23.0967994 54.0121498,24.3828727 C54.0121498,24.6686668 54.3512884,27.6695046 54.6225993,26.8121224 C56.2504648,22.2394171 57.8783303,17.5238148 59.3705403,12.8082125 C60.3201285,9.8073747 61.8123385,4.66308128 60.4557839,1.0906553 C59.9809898,-0.195418056 59.1670571,-0.0525210163 58.4887798,0.0903760231 C57.1322253,0.376170102 55.7756707,0.94775826 54.4191161,1.37644938 C51.5703516,2.23383161 48.721587,3.23411089 45.8728224,4.37728721 C45.465856,4.52018425 45.5336837,8.23550727 45.9406501,8.09261023 C48.4502761,7.66391911 51.0277297,7.09233095 53.5373557,6.5207428 C53.6051834,6.5207428 53.6051834,6.5207428 53.6730111,6.5207428 C45.7371669,12.9511096 38.3439446,22.2394171 31.5611717,32.8137981 C23.0827057,45.9603257 15.5538279,62.1076911 9.3136769,80.2556151 C5.85446276,90.4013049 2.80221499,101.118583 0.224761319,112.407449 C-0.0465495934,113.550625 -0.0465495934,114.979596 0.089105863,116.265669 C0.156933591,116.69436 0.496072232,118.266228 0.767383145,117.123051 Z M59.6418512,5.0917724 C59.6418512,5.0917724 59.6418512,5.23466944 59.6418512,5.0917724 C59.7096789,5.23466944 59.6418512,5.23466944 59.6418512,5.37756648 C59.6418512,5.37756648 59.6418512,5.23466944 59.6418512,5.0917724 Z" id="Shape"></path>
                </g>
            </g>
            <g id="noun_593916_cc-copy-5" transform="translate(1494.085828, 363.723382) scale(1, -1) rotate(143.000000) translate(-1494.085828, -363.723382) translate(1463.585828, 304.223382)" fill="#4ECDA5" fill-rule="nonzero">
                <path d="M0.767383145,117.123051 C9.85629872,77.5405714 24.7783989,44.2455612 42.9562301,22.6681083 C48.1789651,16.5235356 53.6051834,11.2363451 59.1670571,6.5207428 C59.0314017,6.80653688 58.9635739,7.09233095 58.8279185,7.37812503 C58.3531244,8.80709543 57.8783303,10.2360658 57.4035362,11.5221392 C56.3861203,14.38008 55.3687043,17.2380208 54.2834607,20.0959615 C53.8764943,21.2391379 53.944322,23.0967994 54.0121498,24.3828727 C54.0121498,24.6686668 54.3512884,27.6695046 54.6225993,26.8121224 C56.2504648,22.2394171 57.8783303,17.5238148 59.3705403,12.8082125 C60.3201285,9.8073747 61.8123385,4.66308128 60.4557839,1.0906553 C59.9809898,-0.195418056 59.1670571,-0.0525210163 58.4887798,0.0903760231 C57.1322253,0.376170102 55.7756707,0.94775826 54.4191161,1.37644938 C51.5703516,2.23383161 48.721587,3.23411089 45.8728224,4.37728721 C45.465856,4.52018425 45.5336837,8.23550727 45.9406501,8.09261023 C48.4502761,7.66391911 51.0277297,7.09233095 53.5373557,6.5207428 C53.6051834,6.5207428 53.6051834,6.5207428 53.6730111,6.5207428 C45.7371669,12.9511096 38.3439446,22.2394171 31.5611717,32.8137981 C23.0827057,45.9603257 15.5538279,62.1076911 9.3136769,80.2556151 C5.85446276,90.4013049 2.80221499,101.118583 0.224761319,112.407449 C-0.0465495934,113.550625 -0.0465495934,114.979596 0.089105863,116.265669 C0.156933591,116.69436 0.496072232,118.266228 0.767383145,117.123051 Z M59.6418512,5.0917724 C59.6418512,5.0917724 59.6418512,5.23466944 59.6418512,5.0917724 C59.7096789,5.23466944 59.6418512,5.23466944 59.6418512,5.37756648 C59.6418512,5.37756648 59.6418512,5.23466944 59.6418512,5.0917724 Z" id="Shape"></path>
            </g>
            <g id="noun_593916_cc-copy-6" transform="translate(1270.166377, 266.874171) scale(1, -1) rotate(266.000000) translate(-1270.166377, -266.874171) translate(1239.666377, 207.374171)" fill="#4ECDA5" fill-rule="nonzero">
                <path d="M0.767383145,117.123051 C9.85629872,77.5405714 24.7783989,44.2455612 42.9562301,22.6681083 C48.1789651,16.5235356 53.6051834,11.2363451 59.1670571,6.5207428 C59.0314017,6.80653688 58.9635739,7.09233095 58.8279185,7.37812503 C58.3531244,8.80709543 57.8783303,10.2360658 57.4035362,11.5221392 C56.3861203,14.38008 55.3687043,17.2380208 54.2834607,20.0959615 C53.8764943,21.2391379 53.944322,23.0967994 54.0121498,24.3828727 C54.0121498,24.6686668 54.3512884,27.6695046 54.6225993,26.8121224 C56.2504648,22.2394171 57.8783303,17.5238148 59.3705403,12.8082125 C60.3201285,9.8073747 61.8123385,4.66308128 60.4557839,1.0906553 C59.9809898,-0.195418056 59.1670571,-0.0525210163 58.4887798,0.0903760231 C57.1322253,0.376170102 55.7756707,0.94775826 54.4191161,1.37644938 C51.5703516,2.23383161 48.721587,3.23411089 45.8728224,4.37728721 C45.465856,4.52018425 45.5336837,8.23550727 45.9406501,8.09261023 C48.4502761,7.66391911 51.0277297,7.09233095 53.5373557,6.5207428 C53.6051834,6.5207428 53.6051834,6.5207428 53.6730111,6.5207428 C45.7371669,12.9511096 38.3439446,22.2394171 31.5611717,32.8137981 C23.0827057,45.9603257 15.5538279,62.1076911 9.3136769,80.2556151 C5.85446276,90.4013049 2.80221499,101.118583 0.224761319,112.407449 C-0.0465495934,113.550625 -0.0465495934,114.979596 0.089105863,116.265669 C0.156933591,116.69436 0.496072232,118.266228 0.767383145,117.123051 Z M59.6418512,5.0917724 C59.6418512,5.0917724 59.6418512,5.23466944 59.6418512,5.0917724 C59.7096789,5.23466944 59.6418512,5.23466944 59.6418512,5.37756648 C59.6418512,5.37756648 59.6418512,5.23466944 59.6418512,5.0917724 Z" id="Shape"></path>
            </g>
            <g id="noun_593916_cc-copy-7" transform="translate(1273.517367, 464.576214) scale(1, -1) rotate(62.000000) translate(-1273.517367, -464.576214) translate(1243.017367, 405.076214)" fill="#4ECDA5" fill-rule="nonzero">
                <path d="M0.767383145,117.123051 C9.85629872,77.5405714 24.7783989,44.2455612 42.9562301,22.6681083 C48.1789651,16.5235356 53.6051834,11.2363451 59.1670571,6.5207428 C59.0314017,6.80653688 58.9635739,7.09233095 58.8279185,7.37812503 C58.3531244,8.80709543 57.8783303,10.2360658 57.4035362,11.5221392 C56.3861203,14.38008 55.3687043,17.2380208 54.2834607,20.0959615 C53.8764943,21.2391379 53.944322,23.0967994 54.0121498,24.3828727 C54.0121498,24.6686668 54.3512884,27.6695046 54.6225993,26.8121224 C56.2504648,22.2394171 57.8783303,17.5238148 59.3705403,12.8082125 C60.3201285,9.8073747 61.8123385,4.66308128 60.4557839,1.0906553 C59.9809898,-0.195418056 59.1670571,-0.0525210163 58.4887798,0.0903760231 C57.1322253,0.376170102 55.7756707,0.94775826 54.4191161,1.37644938 C51.5703516,2.23383161 48.721587,3.23411089 45.8728224,4.37728721 C45.465856,4.52018425 45.5336837,8.23550727 45.9406501,8.09261023 C48.4502761,7.66391911 51.0277297,7.09233095 53.5373557,6.5207428 C53.6051834,6.5207428 53.6051834,6.5207428 53.6730111,6.5207428 C45.7371669,12.9511096 38.3439446,22.2394171 31.5611717,32.8137981 C23.0827057,45.9603257 15.5538279,62.1076911 9.3136769,80.2556151 C5.85446276,90.4013049 2.80221499,101.118583 0.224761319,112.407449 C-0.0465495934,113.550625 -0.0465495934,114.979596 0.089105863,116.265669 C0.156933591,116.69436 0.496072232,118.266228 0.767383145,117.123051 Z M59.6418512,5.0917724 C59.6418512,5.0917724 59.6418512,5.23466944 59.6418512,5.0917724 C59.7096789,5.23466944 59.6418512,5.23466944 59.6418512,5.37756648 C59.6418512,5.37756648 59.6418512,5.23466944 59.6418512,5.0917724 Z" id="Shape"></path>
            </g>
            <g id="noun_593916_cc-copy-8" transform="translate(1273.517367, 440.576214) scale(1, -1) rotate(-120.000000) translate(-1273.517367, -440.576214) translate(1243.017367, 381.076214)" fill="#4ECDA5" fill-rule="nonzero">
                <path d="M0.767383145,117.123051 C9.85629872,77.5405714 24.7783989,44.2455612 42.9562301,22.6681083 C48.1789651,16.5235356 53.6051834,11.2363451 59.1670571,6.5207428 C59.0314017,6.80653688 58.9635739,7.09233095 58.8279185,7.37812503 C58.3531244,8.80709543 57.8783303,10.2360658 57.4035362,11.5221392 C56.3861203,14.38008 55.3687043,17.2380208 54.2834607,20.0959615 C53.8764943,21.2391379 53.944322,23.0967994 54.0121498,24.3828727 C54.0121498,24.6686668 54.3512884,27.6695046 54.6225993,26.8121224 C56.2504648,22.2394171 57.8783303,17.5238148 59.3705403,12.8082125 C60.3201285,9.8073747 61.8123385,4.66308128 60.4557839,1.0906553 C59.9809898,-0.195418056 59.1670571,-0.0525210163 58.4887798,0.0903760231 C57.1322253,0.376170102 55.7756707,0.94775826 54.4191161,1.37644938 C51.5703516,2.23383161 48.721587,3.23411089 45.8728224,4.37728721 C45.465856,4.52018425 45.5336837,8.23550727 45.9406501,8.09261023 C48.4502761,7.66391911 51.0277297,7.09233095 53.5373557,6.5207428 C53.6051834,6.5207428 53.6051834,6.5207428 53.6730111,6.5207428 C45.7371669,12.9511096 38.3439446,22.2394171 31.5611717,32.8137981 C23.0827057,45.9603257 15.5538279,62.1076911 9.3136769,80.2556151 C5.85446276,90.4013049 2.80221499,101.118583 0.224761319,112.407449 C-0.0465495934,113.550625 -0.0465495934,114.979596 0.089105863,116.265669 C0.156933591,116.69436 0.496072232,118.266228 0.767383145,117.123051 Z M59.6418512,5.0917724 C59.6418512,5.0917724 59.6418512,5.23466944 59.6418512,5.0917724 C59.7096789,5.23466944 59.6418512,5.23466944 59.6418512,5.37756648 C59.6418512,5.37756648 59.6418512,5.23466944 59.6418512,5.0917724 Z" id="Shape"></path>
            </g>
            <circle id="Oval-2-Copy-3" fill="#333333" cx="1704" cy="560" r="18"></circle>
            <text id="4" font-family="RobotoCondensed-Bold, Roboto Condensed" font-size="24" font-style="condensed" font-weight="bold" fill="#FFFFFF">
                <tspan x="1697.0293" y="569">4</tspan>
            </text>
            <g id="fc_logo_2018--inline" transform="translate(807.000000, 75.000000)" fill-rule="nonzero">
                <g id="Group-5-Copy-12_1_" fill="#4267AD">
                    <path d="M40.7972477,3.88125 C39.2862385,3.88125 39.2862385,6.3 40.7972477,6.3 C48.3522936,6.3 50.8146789,6.3 58.3697248,6.3 C57.4183486,10.575 56.4669725,14.90625 55.5155963,19.18125 C49.1917431,19.18125 46.1697248,19.18125 39.8458716,19.18125 C37.7752294,13.21875 35.7045872,7.25625 33.633945,1.29375 C33.466055,0.7875 33.0743119,0.39375 32.5146789,0.39375 L25.2394495,0.39375 C23.7284404,0.39375 23.7284404,2.8125 25.2394495,2.8125 L31.6752294,2.8125 C33.7458716,8.775 35.8165138,14.7375 37.887156,20.7 C38.5587156,22.3875 39.2862385,24.075 39.9577982,25.81875 C40.1816514,26.325 40.5174312,26.71875 41.0770642,26.71875 C46.7853211,26.71875 49.1357798,26.71875 54.9,26.71875 C56.4110092,26.71875 56.4110092,24.3 54.9,24.3 C49.4155963,24.3 47.3449541,24.3 41.8605505,24.3 C41.4688073,23.4 41.1330275,22.5 40.7412844,21.6 C47.0651376,21.6 50.087156,21.6 56.4110092,21.6 C56.9146789,21.6 57.4183486,21.2625 57.5302752,20.7 C58.6495413,15.58125 59.7688073,10.51875 60.8880734,5.4 C61.0559633,4.66875 60.5522936,3.88125 59.7688073,3.88125 C51.8220183,3.88125 48.8559633,3.88125 40.7972477,3.88125 Z" id="Shape_1_"></path>
                    <path d="M13.5990826,24.35625 L34.4733945,24.35625 C35.5926606,24.35625 36.0963303,24.91875 36.0963303,25.59375 C36.0963303,26.26875 35.5926606,26.83125 34.4733945,26.83125 L13.5990826,26.83125 C12.4798165,26.83125 12.0321101,26.26875 12.0321101,25.59375 C12.0321101,24.91875 12.5357798,24.35625 13.5990826,24.35625 Z" id="Path-Copy_3_"></path>
                    <path d="M32.0110092,19.51875 L22.4972477,19.51875 C21.8816514,19.51875 21.3220183,18.95625 21.3220183,18.3375 C21.3220183,17.71875 21.8816514,17.15625 22.4972477,17.15625 L32.0110092,17.15625 C32.6266055,17.15625 33.1862385,17.71875 33.1862385,18.3375 C33.1862385,18.95625 32.6266055,19.51875 32.0110092,19.51875 Z" id="Path-Copy-2_3_"></path>
                    <path d="M26.1908257,19.51875 L16.6770642,19.51875 C16.0614679,19.51875 15.5018349,18.95625 15.5018349,18.3375 C15.5018349,17.71875 16.0614679,17.15625 16.6770642,17.15625 L26.1908257,17.15625 C26.806422,17.15625 27.366055,17.71875 27.366055,18.3375 C27.366055,18.95625 26.806422,19.51875 26.1908257,19.51875 Z" id="Path-Copy-2_2_"></path>
                    <path d="M12.9275229,9.73125 L28.3733945,9.73125 C29.4926606,9.73125 29.940367,10.29375 29.940367,10.9125 C29.940367,11.53125 29.4926606,12.09375 28.3733945,12.09375 L12.9275229,12.09375 C11.8082569,12.15 11.1926606,11.5875 11.1926606,10.9125 C11.1926606,10.29375 11.7522936,9.73125 12.9275229,9.73125 Z" id="Path-Copy-3_3_"></path>
                    <path d="M1.62293578,24.35625 L22.4972477,24.35625 C23.6165138,24.35625 24.1201835,24.91875 24.1201835,25.59375 C24.1201835,26.26875 23.6165138,26.83125 22.4972477,26.83125 L1.62293578,26.83125 C0.503669725,26.83125 0.0559633028,26.26875 0.0559633028,25.59375 C0.0559633028,24.91875 0.503669725,24.35625 1.62293578,24.35625 Z" id="Path-Copy_2_"></path>
                    <path d="M4.0293578,9.73125 L19.4752294,9.73125 C20.5944954,9.73125 21.0422018,10.29375 21.0422018,10.9125 C21.0422018,11.53125 20.5944954,12.09375 19.4752294,12.09375 L4.0293578,12.09375 C2.91009174,12.15 2.29449541,11.5875 2.29449541,10.9125 C2.29449541,10.29375 2.85412844,9.73125 4.0293578,9.73125 Z" id="Path-Copy-3_2_"></path>
                </g>
                <path d="M69,26.8283898 L71.529436,26.8283898 C72.1477426,26.8283898 72.6536298,26.4279661 72.7660492,25.7987288 L75.0706465,13.8432203 C75.1830659,13.2711864 75.6889531,12.8135593 76.3072596,12.8135593 L82.2654867,12.8135593 C82.5465352,12.8135593 82.8275836,12.5847458 82.8837933,12.2987288 L83.2210515,10.4682203 C83.2772612,10.0677966 82.9962127,9.61016949 82.6027449,9.61016949 L77.3190341,9.61016949 C76.5320984,9.61016949 75.9700015,8.9809322 76.0824209,8.18008475 L76.8693565,4.11864407 C76.9817759,3.54661017 77.4876631,3.08898305 78.1059697,3.08898305 L85.4132294,3.08898305 C85.6942778,3.08898305 85.9753263,2.86016949 86.0315359,2.57415254 L86.3687941,0.743644068 C86.4250038,0.343220339 86.1439553,0 85.7504875,0 L74.620969,0 C74.3399205,0 74.0588721,0.228813559 74.0026624,0.514830508 L69,26.8283898 Z M83.1648418,26.8283898 L86.200165,26.8283898 C86.4812135,26.8283898 86.7622619,26.5995763 86.8184716,26.3135593 L88.6171817,16.6461864 C89.5727464,14.0720339 91.4838758,12.8707627 93.0015374,12.8707627 C93.3387956,12.8707627 93.7322634,12.8707627 94.0133119,12.9851695 C94.2943603,13.0423729 94.6316184,12.8707627 94.6878281,12.5847458 L95.4747638,10.4682203 C95.6433929,10.0677966 95.3061347,9.61016949 94.9126669,9.61016949 L94.0695215,9.61016949 C92.1021824,9.61016949 90.7531499,10.0105932 89.460327,12.0699153 L89.2354882,13.2711864 L89.7975851,10.2966102 C89.8537948,9.95338983 89.5727464,9.61016949 89.1792786,9.61016949 L86.8746813,9.61016949 C86.5936328,9.61016949 86.3125844,9.83898305 86.2563747,10.125 L83.1648418,26.8283898 Z M117.115494,15.4449153 C117.115494,15.3305085 117.227914,15.2161017 117.284123,15.1016949 C118.857995,13.5 120.038398,12.7563559 121.106382,12.7563559 C122.511624,12.7563559 123.129931,13.5 123.129931,14.9300847 C123.129931,15.4449153 123.017512,15.9025424 122.848883,16.7033898 L120.881543,26.8283898 L123.916867,26.8283898 C124.197915,26.8283898 124.478964,26.5995763 124.535173,26.3135593 L126.502512,16.2457627 C126.727351,15.3305085 126.783561,14.7012712 126.783561,13.9004237 C126.783561,11.2118644 125.659367,9.66737288 122.961302,9.66737288 C120.937753,9.66737288 119.75735,10.0677966 117.677591,12.1271186 L118.014849,10.3538136 C118.014849,10.0105932 117.733801,9.66737288 117.396543,9.66737288 L115.148155,9.66737288 C114.867107,9.66737288 114.586058,9.89618644 114.529849,10.1822034 L111.269687,26.8855932 L114.30501,26.8855932 C114.586058,26.8855932 114.867107,26.6567797 114.923316,26.3707627 L117.115494,15.4449153 Z M130.437191,20.7648305 C130.324771,21.4512712 130.212352,22.0805085 130.212352,22.7669492 C130.212352,25.1122881 131.392755,26.8855932 134.428079,26.8855932 C135.608482,26.8855932 136.620257,26.5995763 137.350983,26.3135593 C137.632031,26.1991525 137.80066,25.8559322 137.74445,25.5699153 L137.407192,24.1970339 C137.294773,23.8538136 136.957515,23.625 136.620257,23.7394068 C136.339208,23.8538136 136.05816,23.9110169 135.720902,23.9110169 C134.371869,23.9110169 133.809772,23.2817797 133.809772,22.0805085 C133.809772,21.6800847 133.865982,21.279661 133.922191,20.8792373 L135.552272,12.5275424 L139.037273,12.5275424 C139.318322,12.5275424 139.59937,12.2987288 139.65558,12.0127119 L139.992838,10.3538136 C140.049048,9.95338983 139.767999,9.61016949 139.374531,9.61016949 L136.226789,9.61016949 L136.957515,5.83474576 C137.013724,5.43432203 136.732676,5.09110169 136.339208,5.09110169 L134.596708,5.09110169 C134.315659,5.09110169 134.090821,5.26271186 133.978401,5.54872881 L132.797998,9.61016949 L130.774449,9.61016949 C130.4934,9.61016949 130.268562,9.83898305 130.212352,10.125 L129.762674,12.5275424 L132.067272,12.5275424 L130.437191,20.7648305 Z M101.208152,27 C105.536298,27 109.976864,22.7097458 109.976864,16.4745763 C109.976864,12.3559322 107.616057,9.78177966 104.018637,9.78177966 C99.6904905,9.78177966 95.3061347,14.0148305 95.3061347,20.3072034 C95.3061347,24.4258475 97.6669417,27 101.208152,27 Z M103.625169,12.8707627 C105.480089,12.8707627 106.435653,14.3008475 106.435653,16.8177966 C106.435653,21.0508475 104.074846,24.4258475 101.54541,24.4258475 C99.6904905,24.4258475 98.6787161,22.9957627 98.6787161,20.4788136 C98.6787161,16.2457627 101.039523,12.8707627 103.625169,12.8707627 Z" id="Front_1_" fill="#333333"></path>
                <path d="M147,15.6220807 C147,21.8598726 150.439024,25.8895966 156.189524,25.8895966 C159.177529,25.8895966 161.489004,24.6199575 163.180328,23.2399151 C163.405838,23.0191083 163.462215,22.6878981 163.293083,22.4670913 L162.165534,20.8110403 C161.940024,20.5350318 161.545382,20.4246285 161.263495,20.6454352 C159.966813,21.6390658 158.557377,22.3014862 156.978808,22.3014862 C152.919632,22.3014862 151.171931,19.4861996 151.171931,15.2908705 C151.171931,9.49469214 154.780088,3.5329087 159.854058,3.5329087 C161.319872,3.5329087 162.391044,4.25053079 163.293083,5.46496815 C163.518593,5.74097665 163.913235,5.79617834 164.195122,5.57537155 L166.055578,4.14012739 C166.281088,3.97452229 166.393842,3.5881104 166.22471,3.36730361 C164.871651,1.32484076 162.785686,0 160.079568,0 C152.468613,2.35338995e-14 147,7.3418259 147,15.6220807 Z M181.897641,25.8895966 L184.942023,25.8895966 C185.22391,25.8895966 185.505798,25.6687898 185.562175,25.3927813 L187.648141,14.8492569 C189.283087,13.0828025 190.692523,12.3651805 191.538185,12.3651805 C192.834866,12.3651805 193.511395,13.0828025 193.511395,14.462845 C193.511395,14.9596603 193.398641,15.4012739 193.229508,16.1740977 L191.256297,25.9447983 L194.30068,25.9447983 C194.582567,25.9447983 194.864454,25.7239915 194.920832,25.447983 L197.063175,14.9044586 C198.698121,13.1380042 200.107557,12.4203822 200.953219,12.4203822 C202.306277,12.4203822 202.926429,13.1380042 202.926429,14.5180467 C202.926429,15.014862 202.813675,15.4564756 202.644542,16.2292994 L200.671331,26 L203.715714,26 C203.997601,26 204.279488,25.7791932 204.335866,25.5031847 L206.309076,15.7876858 C206.478209,14.9044586 206.590964,14.2972399 206.590964,13.5244161 C206.590964,10.9299363 205.407037,9.43949045 202.757297,9.43949045 C201.009596,9.43949045 199.036385,10.6539278 197.119552,12.4203822 C196.781287,10.6539278 195.879248,9.43949045 193.342263,9.43949045 C191.594562,9.43949045 189.564974,10.6539278 187.930028,12.089172 L188.042783,10.4883227 C188.042783,10.1571125 187.760896,9.82590234 187.422631,9.82590234 L185.731307,9.82590234 C185.44942,9.82590234 185.167533,10.0467091 185.111156,10.3227176 L181.897641,25.8895966 Z M207.32387,25.8895966 L210.368253,25.8895966 C210.65014,25.8895966 210.932027,25.6687898 210.988405,25.3927813 L213.07437,14.8492569 C214.709316,13.0828025 216.118752,12.3651805 216.964414,12.3651805 C218.261096,12.3651805 218.937625,13.0828025 218.937625,14.462845 C218.937625,14.9596603 218.82487,15.4012739 218.655738,16.1740977 L216.682527,25.9447983 L219.726909,25.9447983 C220.008796,25.9447983 220.290684,25.7239915 220.347061,25.447983 L222.489404,14.9044586 C224.12435,13.1380042 225.533786,12.4203822 226.379448,12.4203822 C227.732507,12.4203822 228.352659,13.1380042 228.352659,14.5180467 C228.352659,15.014862 228.239904,15.4564756 228.070772,16.2292994 L226.097561,26 L229.141943,26 C229.42383,26 229.705718,25.7791932 229.762095,25.5031847 L231.735306,15.7876858 C231.904438,14.9044586 232.017193,14.2972399 232.017193,13.5244161 C232.017193,10.9299363 230.833267,9.43949045 228.183527,9.43949045 C226.435826,9.43949045 224.462615,10.6539278 222.545782,12.4203822 C222.207517,10.6539278 221.305478,9.43949045 218.768493,9.43949045 C217.020792,9.43949045 214.991204,10.6539278 213.356257,12.089172 L213.469012,10.4883227 C213.469012,10.1571125 213.187125,9.82590234 212.84886,9.82590234 L211.157537,9.82590234 C210.87565,9.82590234 210.593762,10.0467091 210.537385,10.3227176 L207.32387,25.8895966 Z M234.441423,19.1549894 C234.441423,23.4055202 237.034786,25.8343949 240.812075,25.8343949 C242.785286,25.8343949 244.476609,25.2271762 245.716913,24.5095541 C245.9988,24.343949 246.111555,23.9575372 245.942423,23.6815287 L245.265894,22.522293 C245.096761,22.1910828 244.702119,22.1358811 244.363854,22.3014862 C243.57457,22.7983015 242.559776,23.1847134 241.657737,23.1847134 C239.402639,23.1847134 237.598561,21.9150743 237.711315,19.044586 C237.711315,18.7133758 237.993203,18.4373673 238.331467,18.4373673 L247.013595,18.4373673 C247.295482,18.4373673 247.520992,18.2717622 247.577369,18.0509554 C247.802879,17.388535 248.084766,16.2292994 248.084766,15.1252654 C248.084766,11.8683652 246.731707,9.32908705 243.010796,9.32908705 C238.895242,9.27388535 234.441423,13.3036093 234.441423,19.1549894 Z M238.951619,16.2845011 C238.5006,16.2845011 238.218713,15.8428875 238.387845,15.4564756 C239.289884,13.2484076 240.981208,11.9787686 242.672531,11.9787686 C244.589364,11.9787686 245.265894,13.358811 245.265894,14.9044586 C245.265894,15.2356688 245.265894,15.5116773 245.209516,15.7876858 C245.153139,16.0636943 244.927629,16.2845011 244.589364,16.2845011 L238.951619,16.2845011 Z M274.356657,19.1549894 C274.356657,23.4055202 276.95002,25.8343949 280.727309,25.8343949 C282.70052,25.8343949 284.391843,25.2271762 285.632147,24.5095541 C285.914034,24.343949 286.026789,23.9575372 285.857657,23.6815287 L285.181128,22.522293 C285.011995,22.1910828 284.617353,22.1358811 284.279088,22.3014862 C283.489804,22.7983015 282.47501,23.1847134 281.572971,23.1847134 C279.317873,23.1847134 277.513794,21.9150743 277.626549,19.044586 C277.626549,18.7133758 277.908437,18.4373673 278.246701,18.4373673 L286.928828,18.4373673 C287.210716,18.4373673 287.436226,18.2717622 287.492603,18.0509554 C287.718113,17.388535 288,16.2292994 288,15.1252654 C288,11.8683652 286.646941,9.32908705 282.92603,9.32908705 C278.810476,9.27388535 274.356657,13.3036093 274.356657,19.1549894 Z M278.866853,16.2845011 C278.415834,16.2845011 278.133946,15.8428875 278.303079,15.4564756 C279.205118,13.2484076 280.896441,11.9787686 282.587765,11.9787686 C284.504598,11.9787686 285.181128,13.358811 285.181128,14.9044586 C285.181128,15.2356688 285.181128,15.5116773 285.12475,15.7876858 C285.068373,16.0636943 284.842863,16.2845011 284.504598,16.2845011 L278.866853,16.2845011 Z M261.389844,19.4309979 C261.389844,23.5159236 263.926829,25.8895966 267.422231,25.8895966 C269.508197,25.8895966 270.97401,25.1719745 272.101559,24.3991507 C272.383447,24.2335456 272.439824,23.8471338 272.270692,23.5711253 L271.481407,22.4118896 C271.312275,22.1358811 270.917633,22.0806794 270.579368,22.2462845 C269.902839,22.7430998 269.057177,23.07431 268.09876,23.07431 C265.956417,23.07431 264.885246,21.6942675 264.885246,19.3205945 C264.885246,15.4012739 267.365854,12.089172 270.241104,12.089172 C271.086765,12.089172 271.65054,12.3099788 272.270692,12.8619958 C272.552579,13.0828025 272.947221,13.0828025 273.172731,12.8619958 L274.30028,11.6475584 C274.52579,11.4267516 274.52579,11.0403397 274.30028,10.8195329 C273.454618,9.99150743 272.214314,9.32908705 270.522991,9.32908705 C265.561775,9.27388535 261.389844,13.7452229 261.389844,19.4309979 Z M171.7497,25.8895966 C176.090764,25.8895966 180.544582,21.7494692 180.544582,15.7324841 C180.544582,11.7579618 178.176729,9.27388535 174.568573,9.27388535 C170.227509,9.27388535 165.830068,13.358811 165.830068,19.4309979 C165.830068,23.3503185 168.197921,25.8895966 171.7497,25.8895966 Z M174.17393,12.2547771 C176.034386,12.2547771 176.992803,13.6348195 176.992803,16.0636943 C176.992803,20.14862 174.62495,23.4055202 172.087965,23.4055202 C170.227509,23.4055202 169.212715,22.0254777 169.212715,19.596603 C169.212715,15.4564756 171.580568,12.2547771 174.17393,12.2547771 Z M249.32507,25.8895966 L252.369452,25.8895966 C252.651339,25.8895966 252.933227,25.6687898 252.989604,25.3927813 L254.793683,16.0636943 C255.752099,13.5796178 257.668932,12.4203822 259.191124,12.4203822 C259.529388,12.4203822 259.92403,12.4203822 260.205918,12.5307856 C260.487805,12.5859873 260.82607,12.4203822 260.882447,12.1443737 L261.671731,10.1019108 C261.840864,9.71549894 261.502599,9.27388535 261.107957,9.27388535 L260.262295,9.27388535 C258.289084,9.27388535 256.936026,9.66029724 255.639344,11.6475584 L255.413834,12.8067941 L255.977609,9.93630573 C256.033986,9.60509554 255.752099,9.27388535 255.357457,9.27388535 L253.045982,9.27388535 C252.764094,9.27388535 252.482207,9.49469214 252.42583,9.77070064 L249.32507,25.8895966 Z" id="_x2D_copy_1_" fill="#333333"></path>
            </g>
        </g>
        <circle id="Oval-2-Copy" fill="#333333" cx="1358" cy="508" r="18"></circle>
        <text id="2" font-family="RobotoCondensed-Bold, Roboto Condensed" font-size="24" font-style="condensed" font-weight="bold" fill="#FFFFFF">
            <tspan x="1352.0293" y="517">2</tspan>
        </text>
        <circle id="Oval-2-Copy-2" fill="#333333" cx="1344" cy="226" r="18"></circle>
        <text id="3" font-family="RobotoCondensed-Bold, Roboto Condensed" font-size="24" font-style="condensed" font-weight="bold" fill="#FFFFFF">
            <tspan x="1338.0293" y="235">3</tspan>
        </text>
        <polygon id="Path-5" fill="#FFFFFF" points="1401 687 1401 708 1396 705 1396 682"></polygon>
        <polygon id="Path-5-Copy" fill="#FFFFFF" points="1385 687 1385 708 1380 705 1380 682"></polygon>
        <polygon id="Path-5-Copy-2" fill="#FFFFFF" points="1369 679 1369 700 1364 697 1364 674"></polygon>
        <polygon id="Path-5-Copy-3" fill="#F1F2F3" points="1351 671 1351 692 1346 689 1346 666"></polygon>
        <polygon id="Path-5-Copy-4" fill="#F1F2F3" points="1337 663 1337 684 1332 681 1332 658"></polygon>
        <polygon id="Path-5-Copy-5" fill="#F1F2F3" points="1321 647 1321 668 1316 665 1316 642"></polygon>
        <polygon id="Path-5-Copy-6" fill="#F1F2F3" points="1305 639 1305 660 1300 657 1300 634"></polygon>
        <polygon id="Path-5-Copy-7" fill="#F1F2F3" points="1289 631 1289 652 1284 649 1284 626"></polygon>
        <path d="M1328,729 C1337.94113,729 1346,720.941125 1346,711 C1346,701.058875 1337.94113,693 1328,693 C1318.05887,693 1310,701.058875 1310,711 C1310,720.941125 1318.05887,729 1328,729 Z" id="Oval-2-Copy-4" stroke="#333333" stroke-width="2" stroke-dasharray="6"></path>
        <text id="4" font-family="RobotoCondensed-Bold, Roboto Condensed" font-size="24" font-style="condensed" font-weight="bold" fill="#333333">
            <tspan x="1319.38477" y="720">4</tspan>
        </text>
    </g>
</svg>